<svg width="1000" height="29" viewBox="0 0 1000 29" fill="none" xmlns="http://www.w3.org/2000/svg">
<path d="M978.07 24.063H976.019L958.033 0.350952H963.239L980.239 22.347L978.07 24.063ZM957.244 0.350952H960.952V28.314H957.244V0.350952ZM980.042 24.063H976.255L994.399 0.350952H998.382L980.042 24.063ZM995.306 0.350952H999.999V28.314H995.306V0.350952Z" fill="black" fill-opacity="0.25" style="fill:black;fill-opacity:0.25;"/>
<path d="M919.667 28.704C916.196 28.704 913.119 28.366 910.437 27.69C907.781 26.988 905.546 26 903.732 24.726C901.918 23.452 900.537 21.944 899.59 20.202C898.67 18.434 898.21 16.484 898.21 14.352C898.21 12.22 898.67 10.283 899.59 8.541C900.537 6.773 901.918 5.252 903.732 3.978C905.546 2.704 907.781 1.729 910.437 1.053C913.119 0.350999 916.196 0 919.667 0C923.137 0 926.201 0.350999 928.857 1.053C931.539 1.729 933.787 2.704 935.601 3.978C937.415 5.252 938.783 6.773 939.703 8.541C940.65 10.283 941.123 12.22 941.123 14.352C941.123 16.484 940.65 18.434 939.703 20.202C938.783 21.944 937.415 23.452 935.601 24.726C933.787 26 931.539 26.988 928.857 27.69C926.201 28.366 923.137 28.704 919.667 28.704ZM919.667 26.052C923.295 26.052 926.332 25.597 928.778 24.687C931.223 23.751 933.064 22.412 934.3 20.67C935.535 18.928 936.153 16.822 936.153 14.352C936.153 12.506 935.798 10.855 935.088 9.399C934.405 7.943 933.366 6.721 931.972 5.733C930.579 4.719 928.857 3.952 926.806 3.432C924.755 2.912 922.375 2.652 919.667 2.652C916.958 2.652 914.578 2.912 912.527 3.432C910.476 3.952 908.754 4.719 907.361 5.733C905.967 6.721 904.915 7.943 904.205 9.399C903.521 10.855 903.18 12.506 903.18 14.352C903.18 16.822 903.798 18.928 905.033 20.67C906.269 22.412 908.11 23.751 910.555 24.687C913.027 25.597 916.064 26.052 919.667 26.052Z" fill="black" fill-opacity="0.25" style="fill:black;fill-opacity:0.25;"/>
<path d="M871.427 25.662C873.267 25.662 874.727 25.48 875.805 25.116C876.909 24.726 877.711 24.141 878.211 23.361C878.71 22.555 878.96 21.541 878.96 20.319C878.96 19.071 878.697 18.0829 878.171 17.3549C877.645 16.627 876.751 16.107 875.489 15.795C874.253 15.457 872.531 15.288 870.322 15.288H855.926V13.65H872.925C875.371 13.65 877.409 13.871 879.039 14.313C880.669 14.755 881.892 15.457 882.707 16.419C883.522 17.381 883.93 18.668 883.93 20.28C883.93 21.528 883.654 22.646 883.101 23.634C882.576 24.622 881.774 25.467 880.695 26.169C879.644 26.871 878.342 27.404 876.791 27.768C875.239 28.132 873.451 28.314 871.427 28.314H855.926V25.662H871.427ZM852.573 0.350952H857.267V28.314H852.573V0.350952ZM870.717 12.636C872.347 12.636 873.675 12.402 874.7 11.934C875.752 11.44 876.515 10.79 876.988 9.98395C877.488 9.15195 877.737 8.24195 877.737 7.25395C877.737 6.23995 877.527 5.42095 877.106 4.79695C876.686 4.17295 875.962 3.71795 874.937 3.43195C873.911 3.14595 872.505 3.00295 870.717 3.00295H855.886V0.350952H870.717C872.741 0.350952 874.49 0.493952 875.962 0.779951C877.435 1.06595 878.644 1.49495 879.591 2.06695C880.564 2.63895 881.274 3.36695 881.721 4.25095C882.194 5.10895 882.431 6.10995 882.431 7.25395C882.431 8.73595 881.958 9.99695 881.011 11.037C880.091 12.077 878.723 12.87 876.909 13.416C875.095 13.962 872.846 14.235 870.164 14.235H855.926V12.636H870.717Z" fill="black" fill-opacity="0.25" style="fill:black;fill-opacity:0.25;"/>
<path d="M803.758 3.00295V0.350952H837.639V3.00295H803.758ZM818.351 0.818951H823.045V28.314H818.351V0.818951Z" fill="black" fill-opacity="0.25" style="fill:black;fill-opacity:0.25;"/>
<path d="M776.623 28.704C771.995 28.704 768.077 28.106 764.869 26.91C761.687 25.688 759.268 23.998 757.611 21.84C755.981 19.682 755.166 17.186 755.166 14.352C755.166 11.492 755.981 8.996 757.611 6.864C759.268 4.706 761.687 3.029 764.869 1.833C768.077 0.611 771.995 0 776.623 0C778.516 0 780.278 0.0909996 781.908 0.272999C783.564 0.428998 785.076 0.662998 786.444 0.974999C787.811 1.287 789.021 1.69 790.072 2.184V5.187C788.731 4.641 787.351 4.199 785.931 3.861C784.537 3.523 783.065 3.276 781.513 3.12C779.988 2.938 778.358 2.847 776.623 2.847C773.02 2.847 769.996 3.289 767.551 4.173C765.105 5.057 763.252 6.357 761.99 8.073C760.754 9.763 760.136 11.856 760.136 14.352C760.136 16.822 760.754 18.915 761.99 20.631C763.252 22.347 765.105 23.647 767.551 24.531C769.996 25.415 773.02 25.857 776.623 25.857C778.332 25.857 779.975 25.753 781.553 25.545C783.157 25.337 784.669 25.025 786.089 24.609C787.535 24.193 788.863 23.699 790.072 23.127V26.247C788.6 27.027 786.68 27.638 784.314 28.08C781.974 28.496 779.41 28.704 776.623 28.704Z" fill="black" fill-opacity="0.25" style="fill:black;fill-opacity:0.25;"/>
<path d="M727.828 14.742C729.774 14.742 731.418 14.534 732.759 14.118C734.1 13.676 735.112 13 735.796 12.09C736.506 11.154 736.861 9.93195 736.861 8.42395C736.861 7.20195 736.519 6.20095 735.835 5.42095C735.178 4.61495 734.231 4.01695 732.995 3.62695C731.759 3.23695 730.3 3.04195 728.617 3.04195H715.049V0.350952H728.617C731.247 0.350952 733.508 0.649952 735.401 1.24795C737.321 1.81995 738.793 2.70395 739.819 3.89995C740.844 5.06995 741.357 6.57795 741.357 8.42395C741.357 10.53 740.831 12.246 739.779 13.572C738.728 14.898 737.189 15.873 735.165 16.497C733.166 17.095 730.721 17.394 727.828 17.394H715.049V14.742H727.828ZM711.263 0.350952H715.956V28.314H711.263V0.350952Z" fill="black" fill-opacity="0.25" style="fill:black;fill-opacity:0.25;"/>
<path d="M696.91 28.314H691.782L674.782 0.584951V0.350952H679.792L696.91 28.314ZM674.388 0.350952H678.096L661.096 28.314H657.31L674.388 0.350952ZM664.685 20.046V17.394H689.021V20.046H664.685Z" fill="black" fill-opacity="0.25" style="fill:black;fill-opacity:0.25;"/>
<path d="M615.064 0.350952H619.758V28.314H615.064V0.350952ZM646.145 28.314H639.952L622.282 14.313L641.215 0.350952H645.829L626.503 14.703L626.739 12.792L646.145 28.314Z" fill="black" fill-opacity="0.25" style="fill:black;fill-opacity:0.25;"/>
<path d="M569.182 0.350952H573.875V28.314H569.182V0.350952ZM571.43 28.314V25.584H598.605V28.314H571.43ZM571.43 15.171V12.441H594.937V15.171H571.43ZM571.43 3.08095V0.350952H598.211V3.08095H571.43Z" fill="black" fill-opacity="0.25" style="fill:black;fill-opacity:0.25;"/>
<path d="M525.276 0.350952H548.271V3.04195H525.276V0.350952ZM546.023 28.314V0.350952H550.716V28.314H546.023ZM517.703 24.57C518.781 24.648 519.702 24.544 520.464 24.258C521.227 23.946 521.871 23.426 522.397 22.698C522.923 21.97 523.33 21.034 523.619 19.89C523.803 19.188 523.961 18.408 524.093 17.55C524.251 16.666 524.382 15.665 524.487 14.547C524.592 13.429 524.671 12.181 524.724 10.803C524.803 9.39895 524.855 7.83895 524.882 6.12295C524.934 4.40695 524.96 2.48295 524.96 0.350952H528.589C528.563 2.71695 528.523 4.82295 528.471 6.66895C528.445 8.48895 528.392 10.101 528.313 11.505C528.26 12.909 528.168 14.17 528.037 15.288C527.932 16.38 527.8 17.4069 527.643 18.3689C527.485 19.305 527.288 20.228 527.051 21.138C526.604 22.932 525.973 24.388 525.158 25.506C524.369 26.598 523.37 27.378 522.16 27.846C520.951 28.314 519.465 28.522 517.703 28.47V24.57Z" fill="black" fill-opacity="0.25" style="fill:black;fill-opacity:0.25;"/>
<path d="M450.475 8.46295C450.475 6.61695 450.922 5.09595 451.816 3.89995C452.71 2.70395 454.09 1.81995 455.957 1.24795C457.824 0.649952 460.204 0.350952 463.096 0.350952H476.23V3.04195H463.491C461.44 3.04195 459.783 3.22395 458.521 3.58795C457.285 3.95195 456.378 4.53695 455.799 5.34295C455.247 6.14895 454.971 7.24095 454.971 8.61895C454.971 9.97095 455.247 11.063 455.799 11.895C456.378 12.727 457.259 13.338 458.442 13.728C459.625 14.118 461.137 14.313 462.978 14.313H476.23V16.965H463.017L460.848 16.731C458.403 16.549 456.417 16.133 454.892 15.483C453.367 14.807 452.25 13.897 451.54 12.753C450.83 11.583 450.475 10.153 450.475 8.46295ZM461.282 15.21H466.922L453.433 28.314H447.832L461.282 15.21ZM475.363 0.350952H480.056V28.314H475.363V0.350952Z" fill="black" fill-opacity="0.25" style="fill:black;fill-opacity:0.25;"/>
<path d="M421.877 28.704C417.25 28.704 413.332 28.106 410.124 26.91C406.942 25.688 404.523 23.998 402.866 21.84C401.236 19.682 400.421 17.186 400.421 14.352C400.421 11.492 401.236 8.996 402.866 6.864C404.523 4.706 406.942 3.029 410.124 1.833C413.332 0.611 417.25 0 421.877 0C423.771 0 425.532 0.0909996 427.163 0.272999C428.819 0.428998 430.331 0.662998 431.699 0.974999C433.066 1.287 434.275 1.69 435.327 2.184V5.187C433.986 4.641 432.606 4.199 431.186 3.861C429.792 3.523 428.32 3.276 426.768 3.12C425.243 2.938 423.613 2.847 421.877 2.847C418.275 2.847 415.251 3.289 412.806 4.173C410.36 5.057 408.507 6.357 407.244 8.073C406.009 9.763 405.391 11.856 405.391 14.352C405.391 16.822 406.009 18.915 407.244 20.631C408.507 22.347 410.36 23.647 412.806 24.531C415.251 25.415 418.275 25.857 421.877 25.857C423.587 25.857 425.23 25.753 426.808 25.545C428.412 25.337 429.924 25.025 431.344 24.609C432.79 24.193 434.118 23.699 435.327 23.127V26.247C433.855 27.027 431.935 27.638 429.569 28.08C427.228 28.496 424.665 28.704 421.877 28.704Z" fill="black" fill-opacity="0.25" style="fill:black;fill-opacity:0.25;"/>
<path d="M355.511 3.00295V0.350952H389.392V3.00295H355.511ZM370.104 0.818951H374.798V28.314H370.104V0.818951Z" fill="black" fill-opacity="0.25" style="fill:black;fill-opacity:0.25;"/>
<path d="M312.56 0.350952H317.253V28.314H312.56V0.350952ZM314.808 28.314V25.584H341.983V28.314H314.808ZM314.808 15.171V12.441H338.315V15.171H314.808ZM314.808 3.08095V0.350952H341.589V3.08095H314.808Z" fill="black" fill-opacity="0.25" style="fill:black;fill-opacity:0.25;"/>
<path d="M264.513 8.46295C264.513 6.61695 264.96 5.09595 265.854 3.89995C266.748 2.70395 268.128 1.81995 269.995 1.24795C271.862 0.649952 274.242 0.350952 277.134 0.350952H290.268V3.04195H277.529C275.478 3.04195 273.821 3.22395 272.559 3.58795C271.323 3.95195 270.416 4.53695 269.837 5.34295C269.285 6.14895 269.009 7.24095 269.009 8.61895C269.009 9.97095 269.285 11.063 269.837 11.895C270.416 12.727 271.297 13.338 272.48 13.728C273.663 14.118 275.175 14.313 277.016 14.313H290.268V16.965H277.055L274.886 16.731C272.441 16.549 270.455 16.133 268.93 15.483C267.405 14.807 266.288 13.897 265.578 12.753C264.868 11.583 264.513 10.153 264.513 8.46295ZM275.32 15.21H280.96L267.471 28.314H261.87L275.32 15.21ZM289.401 0.350952H294.094V28.314H289.401V0.350952Z" fill="black" fill-opacity="0.25" style="fill:black;fill-opacity:0.25;"/>
<path d="M220.882 0.350952H243.877V3.04195H220.882V0.350952ZM241.629 28.314V0.350952H246.323V28.314H241.629ZM213.31 24.57C214.388 24.648 215.308 24.544 216.071 24.258C216.833 23.946 217.477 23.426 218.003 22.698C218.529 21.97 218.937 21.034 219.226 19.89C219.41 19.188 219.568 18.408 219.699 17.55C219.857 16.666 219.988 15.665 220.094 14.547C220.199 13.429 220.278 12.181 220.33 10.803C220.409 9.39895 220.462 7.83895 220.488 6.12295C220.541 4.40695 220.567 2.48295 220.567 0.350952H224.196C224.169 2.71695 224.13 4.82295 224.077 6.66895C224.051 8.48895 223.998 10.101 223.92 11.505C223.867 12.909 223.775 14.17 223.643 15.288C223.538 16.38 223.407 17.4069 223.249 18.3689C223.091 19.305 222.894 20.228 222.657 21.138C222.21 22.932 221.579 24.388 220.764 25.506C219.975 26.598 218.976 27.378 217.767 27.846C216.557 28.314 215.071 28.522 213.31 28.47V24.57Z" fill="black" fill-opacity="0.25" style="fill:black;fill-opacity:0.25;"/>
<path d="M188.484 25.662C190.325 25.662 191.784 25.48 192.862 25.116C193.967 24.726 194.769 24.141 195.268 23.361C195.768 22.555 196.018 21.541 196.018 20.319C196.018 19.071 195.755 18.0829 195.229 17.3549C194.703 16.627 193.809 16.107 192.547 15.795C191.311 15.457 189.589 15.288 187.38 15.288H172.983V13.65H189.983C192.428 13.65 194.466 13.871 196.097 14.313C197.727 14.755 198.95 15.457 199.765 16.419C200.58 17.381 200.987 18.668 200.987 20.28C200.987 21.528 200.711 22.646 200.159 23.634C199.633 24.622 198.831 25.467 197.753 26.169C196.701 26.871 195.4 27.404 193.848 27.768C192.297 28.132 190.509 28.314 188.484 28.314H172.983V25.662H188.484ZM169.631 0.350952H174.324V28.314H169.631V0.350952ZM187.774 12.636C189.405 12.636 190.732 12.402 191.758 11.934C192.81 11.44 193.572 10.79 194.046 9.98395C194.545 9.15195 194.795 8.24195 194.795 7.25395C194.795 6.23995 194.585 5.42095 194.164 4.79695C193.743 4.17295 193.02 3.71795 191.995 3.43195C190.969 3.14595 189.562 3.00295 187.774 3.00295H172.944V0.350952H187.774C189.799 0.350952 191.548 0.493952 193.02 0.779951C194.493 1.06595 195.702 1.49495 196.649 2.06695C197.622 2.63895 198.332 3.36695 198.779 4.25095C199.252 5.10895 199.489 6.10995 199.489 7.25395C199.489 8.73595 199.015 9.99695 198.069 11.037C197.148 12.077 195.781 12.87 193.967 13.416C192.152 13.962 189.904 14.235 187.222 14.235H172.983V12.636H187.774Z" fill="black" fill-opacity="0.25" style="fill:black;fill-opacity:0.25;"/>
<path d="M121.583 8.46295C121.583 6.61695 122.03 5.09595 122.924 3.89995C123.818 2.70395 125.199 1.81995 127.066 1.24795C128.932 0.649952 131.312 0.350952 134.205 0.350952H147.339V3.04195H134.599C132.548 3.04195 130.891 3.22395 129.629 3.58795C128.393 3.95195 127.486 4.53695 126.908 5.34295C126.356 6.14895 126.079 7.24095 126.079 8.61895C126.079 9.97095 126.356 11.063 126.908 11.895C127.486 12.727 128.367 13.338 129.55 13.728C130.734 14.118 132.246 14.313 134.086 14.313H147.339V16.965H134.126L131.956 16.731C129.511 16.549 127.526 16.133 126.001 15.483C124.475 14.807 123.358 13.897 122.648 12.753C121.938 11.583 121.583 10.153 121.583 8.46295ZM132.39 15.21H138.03L124.541 28.314H118.94L132.39 15.21ZM146.471 0.350952H151.165V28.314H146.471V0.350952Z" fill="black" fill-opacity="0.25" style="fill:black;fill-opacity:0.25;"/>
<path d="M53.0869 0.350952H57.7805V28.314H53.0869V0.350952ZM55.3351 28.314V25.584H82.5108V28.314H55.3351ZM55.3351 15.171V12.441H78.8426V15.171H55.3351ZM55.3351 3.08095V0.350952H82.1163V3.08095H55.3351Z" fill="black" fill-opacity="0.25" style="fill:black;fill-opacity:0.25;"/>
<path d="M29.9366 0.350952H34.6302V28.314H29.9366V0.350952ZM0 0.350952H4.69362V28.314H0V0.350952ZM2.20876 15.405V12.753H31.7509V15.405H2.20876Z" fill="black" fill-opacity="0.25" style="fill:black;fill-opacity:0.25;"/>
</svg>
