<svg width="193" height="48" viewBox="0 0 193 48" fill="none" xmlns="http://www.w3.org/2000/svg">
<path d="M182.526 44.5736H181.34H181.311L181.34 44.5448L175.061 30.8678V47.7121H172.486V27.067H176.277L182.729 41.5502L189.47 27.067H193V47.7121H190.252V31.0981L183.886 44.5448L182.526 44.5736Z" fill="black" fill-opacity="0.25" style="fill:black;fill-opacity:0.25;"/>
<path d="M158.93 48C157.078 48 155.4 47.5873 153.896 46.7619C152.391 45.9364 151.195 44.7367 150.308 43.1627C149.44 41.5694 149.006 39.621 149.006 37.3175C149.006 35.014 149.44 33.0849 150.308 31.53C151.195 29.956 152.391 28.7754 153.896 27.9884C155.4 27.2014 157.078 26.8079 158.93 26.8079C160.82 26.8079 162.508 27.211 163.993 28.0172C165.498 28.8042 166.684 29.9752 167.552 31.53C168.42 33.0849 168.854 35.0236 168.854 37.3463C168.854 39.6306 168.42 41.5694 167.552 43.1627C166.684 44.7367 165.498 45.9364 163.993 46.7619C162.508 47.5873 160.82 48 158.93 48ZM158.93 45.5525C160.261 45.5525 161.457 45.2838 162.518 44.7463C163.579 44.2088 164.408 43.345 165.006 42.1549C165.623 40.9455 165.932 39.3619 165.932 37.4039C165.932 35.4268 165.623 33.8431 165.006 32.653C164.408 31.4628 163.579 30.599 162.518 30.0615C161.457 29.5241 160.261 29.2553 158.93 29.2553C157.599 29.2553 156.403 29.5241 155.342 30.0615C154.301 30.599 153.471 31.4628 152.854 32.653C152.237 33.8431 151.928 35.4268 151.928 37.4039C151.928 39.3619 152.237 40.9455 152.854 42.1549C153.471 43.345 154.301 44.2088 155.342 44.7463C156.403 45.2838 157.599 45.5525 158.93 45.5525Z" fill="black" fill-opacity="0.25" style="fill:black;fill-opacity:0.25;"/>
<path d="M131.714 27.067H138.745C141.021 27.067 142.747 27.4509 143.924 28.2188C145.12 28.9866 145.718 30.2823 145.718 32.1059C145.718 33.584 145.342 34.7069 144.589 35.4748C143.837 36.2234 142.834 36.7321 141.58 37.0008C143.181 37.1928 144.396 37.6631 145.226 38.4117C146.055 39.1411 146.47 40.2545 146.47 41.7518C146.47 43.1723 146.132 44.324 145.457 45.207C144.782 46.09 143.856 46.7331 142.68 47.1362C141.503 47.5201 140.172 47.7121 138.687 47.7121H131.714V27.067ZM138.542 35.8779C139.854 35.8779 140.915 35.5899 141.725 35.0141C142.554 34.419 142.969 33.4976 142.969 32.2499C142.969 31.1941 142.603 30.4839 141.87 30.1191C141.137 29.7352 140.095 29.5433 138.745 29.5433H134.434V35.8779H138.542ZM138.687 45.2646C140.153 45.2646 141.339 45.0151 142.246 44.516C143.152 44.0169 143.606 43.1147 143.606 41.8094C143.606 40.5041 143.181 39.6018 142.332 39.1028C141.503 38.5845 140.182 38.3253 138.369 38.3253H134.434V45.2646H138.687Z" fill="black" fill-opacity="0.25" style="fill:black;fill-opacity:0.25;"/>
<path d="M112.888 29.5721V27.067H128.425V29.5721H122.031V47.7121H119.282V29.5721H112.888Z" fill="black" fill-opacity="0.25" style="fill:black;fill-opacity:0.25;"/>
<path d="M104.037 48C101.992 48 100.198 47.5777 98.6552 46.7331C97.1313 45.8885 95.945 44.6791 95.0963 43.1051C94.2476 41.5118 93.8232 39.6114 93.8232 37.4039C93.8232 34.0831 94.7009 31.4916 96.4562 29.6296C98.2115 27.7485 100.719 26.8079 103.979 26.8079C105.387 26.8079 106.622 26.9614 107.682 27.2686C108.763 27.5565 109.631 27.902 110.286 28.3051V30.8966C109.418 30.3399 108.415 29.9272 107.277 29.6584C106.159 29.3897 105.049 29.2553 103.95 29.2553C101.52 29.2553 99.7161 29.9368 98.5394 31.2997C97.3628 32.6626 96.7745 34.6973 96.7745 37.4039C96.7745 40.1297 97.411 42.1741 98.6841 43.537C99.9572 44.8807 101.819 45.5525 104.268 45.5525C105.329 45.5525 106.361 45.4086 107.364 45.1206C108.386 44.8327 109.361 44.3432 110.286 43.6521V46.2436C109.727 46.6851 108.907 47.0882 107.827 47.4529C106.766 47.8176 105.503 48 104.037 48Z" fill="black" fill-opacity="0.25" style="fill:black;fill-opacity:0.25;"/>
<path d="M77.3779 27.067H84.0037C86.357 27.067 88.1798 27.5565 89.4722 28.5355C90.7838 29.4953 91.4397 31.0021 91.4397 33.0561C91.4397 34.6109 91.1118 35.8779 90.4559 36.8569C89.8194 37.8358 88.9224 38.5557 87.7651 39.0164C86.627 39.4579 85.2961 39.6786 83.7723 39.6786H80.0977V47.7121H77.3779V27.067ZM83.7723 37.2312C85.2382 37.2312 86.4245 36.9144 87.3311 36.281C88.2377 35.6475 88.691 34.5822 88.691 33.0849C88.691 31.8372 88.2859 30.935 87.4758 30.3783C86.6656 29.8216 85.5083 29.5433 84.0037 29.5433H80.0977V37.2312H83.7723Z" fill="black" fill-opacity="0.25" style="fill:black;fill-opacity:0.25;"/>
<path d="M74.3589 47.7121H71.4655L69.3244 41.8094H60.1525L58.0403 47.7121H55.4941L62.8722 27.067H66.9229L74.3589 47.7121ZM61.0494 39.3619H68.4564L64.7529 29.0826L61.0494 39.3619Z" fill="black" fill-opacity="0.25" style="fill:black;fill-opacity:0.25;"/>
<path d="M54.3469 47.7121H50.9617L43.7283 38.8724H41.5293V47.7121H38.8096V27.067H41.5293V36.425H43.5547L50.9617 27.067H54.0286L45.8404 37.3751L54.3469 47.7121Z" fill="black" fill-opacity="0.25" style="fill:black;fill-opacity:0.25;"/>
<path d="M21.5166 27.067H34.3631V29.5433H24.2364V35.7915H32.8296V38.2389H24.2364V45.2646H34.5078V47.7121H21.5166V27.067Z" fill="black" fill-opacity="0.25" style="fill:black;fill-opacity:0.25;"/>
<path d="M0 45.0918C0.945165 45.1878 1.63957 44.8903 2.08322 44.1992C2.54616 43.5082 2.89336 42.5964 3.12483 41.4638C3.41417 40.0242 3.60706 38.1046 3.7035 35.7051C3.79995 33.3056 3.86746 30.4263 3.90604 27.067H16.6947V47.7121H13.946V29.5433H6.48113C6.42326 32.3267 6.34611 34.7549 6.24966 36.8281C6.15322 38.882 5.96997 40.6192 5.69992 42.0397C5.46845 43.1147 5.14054 44.1033 4.71618 45.0055C4.29182 45.9077 3.7035 46.6179 2.95123 47.1362C2.19895 47.6545 1.21521 47.8848 0 47.8272V45.0918Z" fill="black" fill-opacity="0.25" style="fill:black;fill-opacity:0.25;"/>
<path d="M190.542 0.259155V20.9042H187.793V12.6404H184.032L178.303 20.9042H174.976L181.254 12.1509C179.73 11.8246 178.563 11.1911 177.753 10.2505C176.943 9.30996 176.538 8.03344 176.538 6.42099C176.538 4.96212 176.856 3.78158 177.493 2.87938C178.129 1.97718 179.017 1.31492 180.155 0.892614C181.293 0.470308 182.604 0.259155 184.09 0.259155H190.542ZM183.8 10.193H187.793V2.73541H184.09C182.72 2.73541 181.592 3.01375 180.704 3.57042C179.836 4.10791 179.402 5.0581 179.402 6.42099C179.402 7.70711 179.779 8.6573 180.531 9.27157C181.302 9.88583 182.392 10.193 183.8 10.193Z" fill="black" fill-opacity="0.25" style="fill:black;fill-opacity:0.25;"/>
<path d="M166.411 21.1921C164.366 21.1921 162.572 20.7698 161.029 19.9252C159.505 19.0806 158.319 17.8713 157.47 16.2972C156.622 14.704 156.197 12.8036 156.197 10.5961C156.197 7.27519 157.075 4.68377 158.83 2.82178C160.586 0.940592 163.093 0 166.353 0C167.761 0 168.996 0.153566 170.056 0.460698C171.137 0.748634 172.005 1.09416 172.66 1.49727V4.0887C171.792 3.53202 170.789 3.11931 169.651 2.85057C168.533 2.58183 167.424 2.44746 166.324 2.44746C163.894 2.44746 162.09 3.12891 160.913 4.49181C159.737 5.85471 159.148 7.88946 159.148 10.5961C159.148 13.3219 159.785 15.3662 161.058 16.7291C162.331 18.0728 164.193 18.7447 166.642 18.7447C167.703 18.7447 168.735 18.6007 169.738 18.3128C170.761 18.0248 171.735 17.5353 172.66 16.8443V19.4357C172.101 19.8772 171.281 20.2803 170.201 20.645C169.14 21.0098 167.877 21.1921 166.411 21.1921Z" fill="black" fill-opacity="0.25" style="fill:black;fill-opacity:0.25;"/>
<path d="M139.603 2.7642V0.259155H155.14V2.7642H148.746V20.9042H145.997V2.7642H139.603Z" fill="black" fill-opacity="0.25" style="fill:black;fill-opacity:0.25;"/>
<path d="M124.015 0.259155H136.861V2.73541H126.734V8.98363H135.328V11.4311H126.734V18.4567H137.006V20.9042H124.015V0.259155Z" fill="black" fill-opacity="0.25" style="fill:black;fill-opacity:0.25;"/>
<path d="M119.169 0.259155V20.9042H116.42V12.6404H112.659L106.93 20.9042H103.603L109.881 12.1509C108.357 11.8246 107.19 11.1911 106.38 10.2505C105.57 9.30996 105.165 8.03344 105.165 6.42099C105.165 4.96212 105.483 3.78158 106.12 2.87938C106.756 1.97718 107.644 1.31492 108.782 0.892614C109.92 0.470308 111.231 0.259155 112.717 0.259155H119.169ZM112.427 10.193H116.42V2.73541H112.717C111.347 2.73541 110.219 3.01375 109.331 3.57042C108.463 4.10791 108.029 5.0581 108.029 6.42099C108.029 7.70711 108.406 8.6573 109.158 9.27157C109.929 9.88583 111.019 10.193 112.427 10.193Z" fill="black" fill-opacity="0.25" style="fill:black;fill-opacity:0.25;"/>
<path d="M83.791 18.284C84.7362 18.38 85.4306 18.0824 85.8742 17.3914C86.3372 16.7003 86.6844 15.7885 86.9158 14.656C87.2052 13.2163 87.3981 11.2967 87.4945 8.89725C87.591 6.49778 87.6585 3.61841 87.6971 0.259155H100.486V20.9042H97.737V2.73541H90.2721C90.2143 5.51879 90.1371 7.94706 90.0407 10.0202C89.9442 12.0741 89.761 13.8114 89.4909 15.2319C89.2595 16.3068 88.9316 17.2954 88.5072 18.1976C88.0828 19.0998 87.4945 19.81 86.7422 20.3283C85.99 20.8466 85.0062 21.077 83.791 21.0194V18.284Z" fill="black" fill-opacity="0.25" style="fill:black;fill-opacity:0.25;"/>
<path d="M66.9951 0.259155H74.026C76.3021 0.259155 78.0285 0.64307 79.2051 1.4109C80.401 2.17873 80.999 3.47444 80.999 5.29804C80.999 6.77612 80.6229 7.89907 79.8706 8.6669C79.1183 9.41553 78.1153 9.92422 76.8615 10.193C78.4625 10.3849 79.6777 10.8552 80.5071 11.6039C81.3365 12.3333 81.7513 13.4466 81.7513 14.9439C81.7513 16.3644 81.4137 17.5161 80.7386 18.3992C80.0635 19.2822 79.1376 19.9252 77.961 20.3283C76.7843 20.7122 75.4534 20.9042 73.9681 20.9042H66.9951V0.259155ZM73.8235 9.07001C75.1351 9.07001 76.196 8.78207 77.0062 8.2062C77.8356 7.61113 78.2503 6.68974 78.2503 5.44201C78.2503 4.38624 77.8838 3.676 77.1508 3.31128C76.4178 2.92737 75.3762 2.73541 74.026 2.73541H69.7149V9.07001H73.8235ZM73.9681 18.4567C75.4341 18.4567 76.6204 18.2072 77.527 17.7081C78.4335 17.209 78.8868 16.3068 78.8868 15.0015C78.8868 13.6962 78.4625 12.794 77.6138 12.2949C76.7843 11.7766 75.463 11.5175 73.6499 11.5175H69.7149V18.4567H73.9681Z" fill="black" fill-opacity="0.25" style="fill:black;fill-opacity:0.25;"/>
<path d="M62.1493 0.259155V20.9042H59.4006V12.6404H55.6392L49.9104 20.9042H46.583L52.8616 12.1509C51.3378 11.8246 50.1708 11.1911 49.3606 10.2505C48.5505 9.30996 48.1454 8.03344 48.1454 6.42099C48.1454 4.96212 48.4637 3.78158 49.1002 2.87938C49.7368 1.97718 50.6241 1.31492 51.7621 0.892614C52.9002 0.470308 54.2118 0.259155 55.6971 0.259155H62.1493ZM55.4078 10.193H59.4006V2.73541H55.6971C54.3276 2.73541 53.1992 3.01375 52.3119 3.57042C51.4439 4.10791 51.0099 5.0581 51.0099 6.42099C51.0099 7.70711 51.386 8.6573 52.1383 9.27157C52.9098 9.88583 53.9997 10.193 55.4078 10.193Z" fill="black" fill-opacity="0.25" style="fill:black;fill-opacity:0.25;"/>
<path d="M25.2051 0.259155H38.0516V2.73541H27.9248V8.98363H36.5181V11.4311H27.9248V18.4567H38.1963V20.9042H25.2051V0.259155Z" fill="black" fill-opacity="0.25" style="fill:black;fill-opacity:0.25;"/>
<path d="M4.2666 0.259155H6.98636V9.44433H17.6339V0.259155H20.3826V20.9042H17.6339V11.8918H6.98636V20.9042H4.2666V0.259155Z" fill="black" fill-opacity="0.25" style="fill:black;fill-opacity:0.25;"/>
</svg>
