<svg width="260" height="57" viewBox="0 0 260 57" fill="none" xmlns="http://www.w3.org/2000/svg">
<path d="M246.947 52.7529H245.469H245.432L245.469 52.7172L237.644 35.7647V56.643H234.435V31.0537H239.158L247.199 49.0055L255.601 31.0537H260V56.643H256.575V36.0502L248.642 52.7172L246.947 52.7529Z" fill="black" fill-opacity="0.25" style="fill:black;fill-opacity:0.25;"/>
<path d="M215.376 57C213.068 57 210.977 56.4884 209.102 55.4653C207.227 54.4422 205.736 52.9552 204.63 51.0041C203.549 49.0293 203.008 46.6143 203.008 43.7592C203.008 40.904 203.549 38.5128 204.63 36.5856C205.736 34.6346 207.227 33.1713 209.102 32.1958C210.977 31.2203 213.068 30.7325 215.376 30.7325C217.732 30.7325 219.835 31.2322 221.686 32.2315C223.561 33.207 225.04 34.6584 226.121 36.5856C227.203 38.5128 227.744 40.9159 227.744 43.7949C227.744 46.6262 227.203 49.0293 226.121 51.0041C225.04 52.9552 223.561 54.4422 221.686 55.4653C219.835 56.4884 217.732 57 215.376 57ZM215.376 53.9664C217.035 53.9664 218.525 53.6333 219.847 52.9671C221.169 52.3009 222.203 51.2302 222.948 49.755C223.718 48.2561 224.102 46.2931 224.102 43.8663C224.102 41.4156 223.718 39.4527 222.948 37.9775C222.203 36.5023 221.169 35.4317 219.847 34.7655C218.525 34.0992 217.035 33.7661 215.376 33.7661C213.717 33.7661 212.227 34.0992 210.905 34.7655C209.607 35.4317 208.573 36.5023 207.804 37.9775C207.034 39.4527 206.65 41.4156 206.65 43.8663C206.65 46.2931 207.034 48.2561 207.804 49.755C208.573 51.2302 209.607 52.3009 210.905 52.9671C212.227 53.6333 213.717 53.9664 215.376 53.9664Z" fill="black" fill-opacity="0.25" style="fill:black;fill-opacity:0.25;"/>
<path d="M179.294 31.0537H188.056C190.893 31.0537 193.044 31.5296 194.511 32.4813C196.001 33.433 196.746 35.039 196.746 37.2994C196.746 39.1314 196.278 40.5233 195.34 41.475C194.403 42.403 193.153 43.0335 191.59 43.3666C193.585 43.6045 195.1 44.1874 196.133 45.1153C197.167 46.0195 197.684 47.3995 197.684 49.2553C197.684 51.016 197.263 52.4436 196.422 53.5381C195.58 54.6325 194.427 55.4296 192.96 55.9292C191.494 56.4051 189.835 56.643 187.984 56.643H179.294V31.0537ZM187.804 41.9747C189.438 41.9747 190.761 41.6178 191.77 40.904C192.804 40.1664 193.321 39.0244 193.321 37.4778C193.321 36.1692 192.864 35.2889 191.951 34.8368C191.037 34.3609 189.739 34.123 188.056 34.123H182.683V41.9747H187.804ZM187.984 53.6094C189.811 53.6094 191.289 53.3001 192.419 52.6815C193.549 52.0629 194.114 50.9446 194.114 49.3267C194.114 47.7088 193.585 46.5905 192.527 45.9719C191.494 45.3295 189.847 45.0083 187.587 45.0083H182.683V53.6094H187.984Z" fill="black" fill-opacity="0.25" style="fill:black;fill-opacity:0.25;"/>
<path d="M153.668 34.1587V31.0537H173.031V34.1587H165.063V56.643H161.637V34.1587H153.668Z" fill="black" fill-opacity="0.25" style="fill:black;fill-opacity:0.25;"/>
<path d="M140.474 57C137.926 57 135.69 56.4765 133.767 55.4296C131.868 54.3827 130.389 52.8838 129.332 50.9328C128.274 48.958 127.745 46.6024 127.745 43.8663C127.745 39.7501 128.839 36.538 131.026 34.2301C133.214 31.8984 136.339 30.7325 140.402 30.7325C142.157 30.7325 143.695 30.9229 145.017 31.3036C146.363 31.6605 147.445 32.0887 148.263 32.5884V35.8004C147.181 35.1104 145.931 34.5989 144.512 34.2658C143.118 33.9327 141.736 33.7661 140.366 33.7661C137.337 33.7661 135.089 34.6108 133.623 36.3001C132.156 37.9894 131.423 40.5115 131.423 43.8663C131.423 47.2449 132.216 49.7788 133.803 51.4681C135.39 53.1336 137.709 53.9664 140.762 53.9664C142.084 53.9664 143.371 53.7879 144.621 53.431C145.895 53.0741 147.109 52.4674 148.263 51.6109V54.8229C147.565 55.3702 146.544 55.8698 145.198 56.3219C143.875 56.7739 142.301 57 140.474 57Z" fill="black" fill-opacity="0.25" style="fill:black;fill-opacity:0.25;"/>
<path d="M105.088 31.0537H113.345C116.278 31.0537 118.55 31.6604 120.16 32.8739C121.795 34.0635 122.612 35.9313 122.612 38.4771C122.612 40.4043 122.204 41.9747 121.386 43.1881C120.593 44.4016 119.475 45.2938 118.033 45.8648C116.615 46.4121 114.956 46.6857 113.057 46.6857H108.477V56.643H105.088V31.0537ZM113.057 43.6521C114.884 43.6521 116.362 43.2595 117.492 42.4743C118.622 41.6892 119.187 40.3687 119.187 38.5128C119.187 36.9663 118.682 35.848 117.672 35.158C116.663 34.468 115.22 34.123 113.345 34.123H108.477V43.6521H113.057Z" fill="black" fill-opacity="0.25" style="fill:black;fill-opacity:0.25;"/>
<path d="M99.1607 56.643H95.5548L92.8865 49.3267H81.4558L78.8236 56.643H75.6504L84.8454 31.0537H89.8936L99.1607 56.643ZM82.5737 46.2931H91.8047L87.1892 33.552L82.5737 46.2931Z" fill="black" fill-opacity="0.25" style="fill:black;fill-opacity:0.25;"/>
<path d="M72.0579 56.643H67.839L58.8243 45.6864H56.0839V56.643H52.6943V31.0537H56.0839V42.6528H58.608L67.839 31.0537H71.6612L61.4566 43.8305L72.0579 56.643Z" fill="black" fill-opacity="0.25" style="fill:black;fill-opacity:0.25;"/>
<path d="M28.9795 31.0537H44.9896V34.123H32.369V41.8676H43.0784V44.9012H32.369V53.6094H45.1699V56.643H28.9795V31.0537Z" fill="black" fill-opacity="0.25" style="fill:black;fill-opacity:0.25;"/>
<path d="M0 53.3953C1.17792 53.5143 2.04333 53.1455 2.59623 52.2889C3.17317 51.4324 3.60587 50.3022 3.89434 48.8984C4.25493 47.114 4.49532 44.7347 4.61551 41.7605C4.73571 38.7864 4.81985 35.2175 4.86792 31.0537H20.8059V56.643H17.3803V34.123H8.07715C8.00503 37.573 7.90888 40.5828 7.78868 43.1524C7.66848 45.6983 7.44011 47.8515 7.10356 49.6122C6.8151 50.9446 6.40643 52.17 5.87757 53.2882C5.34871 54.4065 4.61551 55.2868 3.67799 55.9292C2.74046 56.5717 1.51447 56.8572 0 56.7858V53.3953Z" fill="black" fill-opacity="0.25" style="fill:black;fill-opacity:0.25;"/>
<path d="M256.054 0.321167V25.9105H252.628V15.6676H247.941L240.801 25.9105H236.654L244.479 15.0609C242.58 14.6564 241.126 13.8713 240.116 12.7054C239.106 11.5395 238.601 9.95731 238.601 7.95871C238.601 6.15044 238.998 4.68717 239.791 3.5689C240.585 2.45064 241.69 1.62978 243.109 1.10633C244.527 0.582889 246.162 0.321167 248.013 0.321167H256.054ZM247.652 12.634H252.628V3.39046H248.013C246.306 3.39046 244.9 3.73546 243.794 4.42545C242.712 5.09165 242.171 6.26941 242.171 7.95871C242.171 9.55283 242.64 10.7306 243.578 11.492C244.539 12.2533 245.897 12.634 247.652 12.634Z" fill="black" fill-opacity="0.25" style="fill:black;fill-opacity:0.25;"/>
<path d="M223.817 26.2674C221.268 26.2674 219.033 25.744 217.11 24.6971C215.211 23.6502 213.732 22.1512 212.674 20.2002C211.617 18.2254 211.088 15.8699 211.088 13.1337C211.088 9.01753 212.182 5.80548 214.369 3.49756C216.557 1.16585 219.682 0 223.744 0C225.499 0 227.038 0.190343 228.36 0.57103C229.706 0.927924 230.788 1.3562 231.605 1.85585V5.0679C230.524 4.3779 229.274 3.86635 227.855 3.53325C226.461 3.20015 225.079 3.0336 223.708 3.0336C220.68 3.0336 218.432 3.87825 216.965 5.56755C215.499 7.25685 214.766 9.77891 214.766 13.1337C214.766 16.5123 215.559 19.0463 217.146 20.7356C218.732 22.4011 221.052 23.2338 224.105 23.2338C225.427 23.2338 226.713 23.0554 227.963 22.6985C229.237 22.3416 230.451 21.7349 231.605 20.8783V24.0904C230.908 24.6376 229.887 25.1373 228.54 25.5893C227.218 26.0414 225.644 26.2674 223.817 26.2674Z" fill="black" fill-opacity="0.25" style="fill:black;fill-opacity:0.25;"/>
<path d="M188.244 3.42615V0.321167H207.608V3.42615H199.639V25.9105H196.213V3.42615H188.244Z" fill="black" fill-opacity="0.25" style="fill:black;fill-opacity:0.25;"/>
<path d="M166.652 0.321167H182.662V3.39046H170.042V11.1351H180.751V14.1687H170.042V22.8769H182.843V25.9105H166.652V0.321167Z" fill="black" fill-opacity="0.25" style="fill:black;fill-opacity:0.25;"/>
<path d="M158.45 0.321167V25.9105H155.025V15.6676H150.337L143.198 25.9105H139.051L146.876 15.0609C144.976 14.6564 143.522 13.8713 142.512 12.7054C141.503 11.5395 140.998 9.95731 140.998 7.95871C140.998 6.15044 141.395 4.68717 142.188 3.5689C142.981 2.45064 144.087 1.62978 145.505 1.10633C146.924 0.582889 148.558 0.321167 150.409 0.321167H158.45ZM150.049 12.634H155.025V3.39046H150.409C148.703 3.39046 147.296 3.73546 146.19 4.42545C145.109 5.09165 144.568 6.26941 144.568 7.95871C144.568 9.55283 145.037 10.7306 145.974 11.492C146.936 12.2533 148.294 12.634 150.049 12.634Z" fill="black" fill-opacity="0.25" style="fill:black;fill-opacity:0.25;"/>
<path d="M112.197 22.6628C113.375 22.7817 114.241 22.4129 114.793 21.5564C115.37 20.6998 115.803 19.5697 116.092 18.1659C116.452 16.3814 116.693 14.0021 116.813 11.028C116.933 8.05388 117.017 4.48493 117.065 0.321167H133.003V25.9105H129.578V3.39046H120.274C120.202 6.84044 120.106 9.85025 119.986 12.4199C119.866 14.9657 119.637 17.119 119.301 18.8797C119.012 20.2121 118.604 21.4374 118.075 22.5557C117.546 23.674 116.813 24.5543 115.875 25.1967C114.938 25.8391 113.712 26.1246 112.197 26.0533V22.6628Z" fill="black" fill-opacity="0.25" style="fill:black;fill-opacity:0.25;"/>
<path d="M89.1016 0.321167H97.8638C100.7 0.321167 102.852 0.797026 104.318 1.74874C105.809 2.70046 106.554 4.30649 106.554 6.56682C106.554 8.39887 106.085 9.79076 105.148 10.7425C104.21 11.6704 102.96 12.3009 101.398 12.634C103.393 12.872 104.907 13.4549 105.941 14.3828C106.975 15.2869 107.492 16.6669 107.492 18.5228C107.492 20.2835 107.071 21.711 106.229 22.8055C105.388 23.9 104.234 24.6971 102.768 25.1967C101.301 25.6726 99.6427 25.9105 97.7917 25.9105H89.1016V0.321167ZM97.6114 11.2421C99.2461 11.2421 100.568 10.8852 101.578 10.1715C102.612 9.43387 103.128 8.29181 103.128 6.74527C103.128 5.43665 102.672 4.55631 101.758 4.10425C100.845 3.62839 99.5466 3.39046 97.8638 3.39046H92.4911V11.2421H97.6114ZM97.7917 22.8769C99.6187 22.8769 101.097 22.5676 102.227 21.949C103.357 21.3303 103.922 20.2121 103.922 18.5942C103.922 16.9762 103.393 15.858 102.335 15.2394C101.301 14.5969 99.6547 14.2757 97.3951 14.2757H92.4911V22.8769H97.7917Z" fill="black" fill-opacity="0.25" style="fill:black;fill-opacity:0.25;"/>
<path d="M80.8986 0.321167V25.9105H77.473V15.6676H72.7854L65.6458 25.9105H61.499L69.3238 15.0609C67.4247 14.6564 65.9703 13.8713 64.9607 12.7054C63.951 11.5395 63.4462 9.95731 63.4462 7.95871C63.4462 6.15044 63.8428 4.68717 64.6361 3.5689C65.4294 2.45064 66.5352 1.62978 67.9535 1.10633C69.3718 0.582889 71.0065 0.321167 72.8575 0.321167H80.8986ZM72.4969 12.634H77.473V3.39046H72.8575C71.1507 3.39046 69.7444 3.73546 68.6386 4.42545C67.5569 5.09165 67.016 6.26941 67.016 7.95871C67.016 9.55283 67.4848 10.7306 68.4223 11.492C69.3839 12.2533 70.7421 12.634 72.4969 12.634Z" fill="black" fill-opacity="0.25" style="fill:black;fill-opacity:0.25;"/>
<path d="M30.5293 0.321167H46.5394V3.39046H33.9188V11.1351H44.6283V14.1687H33.9188V22.8769H46.7197V25.9105H30.5293V0.321167Z" fill="black" fill-opacity="0.25" style="fill:black;fill-opacity:0.25;"/>
<path d="M2.27246 0.321167H5.66198V11.7061H18.9316V0.321167H22.3572V25.9105H18.9316V14.7397H5.66198V25.9105H2.27246V0.321167Z" fill="black" fill-opacity="0.25" style="fill:black;fill-opacity:0.25;"/>
</svg>
