<svg width="572" height="28" viewBox="0 0 572 28" fill="none" xmlns="http://www.w3.org/2000/svg">
<path d="M557.887 23.4727H556.289H556.25L556.289 23.4347L547.829 5.36402V27.6195H544.359V0.342285H549.466L558.16 19.4782L567.244 0.342285H572V27.6195H568.296V5.66837L559.72 23.4347L557.887 23.4727Z" fill="black" fill-opacity="0.25" style="fill:black;fill-opacity:0.25;"/>
<path d="M523.755 28C521.26 28 518.999 27.4547 516.971 26.3641C514.944 25.2735 513.333 23.6884 512.137 21.6087C510.968 19.5036 510.383 16.9293 510.383 13.8859C510.383 10.8424 510.968 8.29348 512.137 6.23913C513.333 4.15942 514.944 2.59964 516.971 1.55978C518.999 0.519927 521.26 0 523.755 0C526.302 0 528.576 0.532609 530.577 1.59783C532.605 2.63768 534.203 4.18478 535.373 6.23913C536.542 8.29348 537.127 10.8551 537.127 13.9239C537.127 16.942 536.542 19.5036 535.373 21.6087C534.203 23.6884 532.605 25.2735 530.577 26.3641C528.576 27.4547 526.302 28 523.755 28ZM523.755 24.7663C525.548 24.7663 527.16 24.4112 528.589 23.7011C530.018 22.9909 531.136 21.8496 531.942 20.2772C532.773 18.6793 533.189 16.587 533.189 14C533.189 11.3877 532.773 9.29529 531.942 7.72283C531.136 6.15036 530.018 5.00906 528.589 4.29891C527.16 3.58877 525.548 3.23369 523.755 3.23369C521.962 3.23369 520.35 3.58877 518.921 4.29891C517.517 5.00906 516.4 6.15036 515.568 7.72283C514.736 9.29529 514.32 11.3877 514.32 14C514.32 16.587 514.736 18.6793 515.568 20.2772C516.4 21.8496 517.517 22.9909 518.921 23.7011C520.35 24.4112 521.962 24.7663 523.755 24.7663Z" fill="black" fill-opacity="0.25" style="fill:black;fill-opacity:0.25;"/>
<path d="M484.744 0.342285H494.218C497.284 0.342285 499.611 0.849531 501.196 1.86402C502.807 2.87852 503.613 4.59047 503.613 6.99989C503.613 8.95279 503.106 10.4365 502.093 11.451C501.079 12.4401 499.728 13.1122 498.038 13.4673C500.195 13.7209 501.833 14.3423 502.95 15.3314C504.068 16.2952 504.627 17.7662 504.627 19.7445C504.627 21.6213 504.172 23.143 503.262 24.3097C502.353 25.4763 501.105 26.326 499.52 26.8586C497.934 27.3658 496.141 27.6195 494.14 27.6195H484.744V0.342285ZM493.945 11.9836C495.712 11.9836 497.142 11.6032 498.233 10.8423C499.351 10.0561 499.909 8.83866 499.909 7.19011C499.909 5.79518 499.416 4.85678 498.428 4.37489C497.44 3.86765 496.037 3.61402 494.218 3.61402H488.409V11.9836H493.945ZM494.14 24.3858C496.115 24.3858 497.713 24.0561 498.935 23.3966C500.156 22.7372 500.767 21.5452 500.767 19.8205C500.767 18.0959 500.195 16.9039 499.052 16.2445C497.934 15.5597 496.154 15.2173 493.711 15.2173H488.409V24.3858H494.14Z" fill="black" fill-opacity="0.25" style="fill:black;fill-opacity:0.25;"/>
<path d="M457.037 3.65207V0.342285H477.972V3.65207H469.356V27.6195H465.653V3.65207H457.037Z" fill="black" fill-opacity="0.25" style="fill:black;fill-opacity:0.25;"/>
<path d="M442.773 28C440.018 28 437.601 27.442 435.521 26.3261C433.468 25.2101 431.87 23.6123 430.726 21.5326C429.583 19.4275 429.011 16.9167 429.011 14C429.011 9.61232 430.193 6.18841 432.558 3.72826C434.924 1.24275 438.302 0 442.695 0C444.592 0 446.255 0.202898 447.685 0.608695C449.14 0.989129 450.31 1.44565 451.193 1.97826V5.40217C450.024 4.66667 448.672 4.12138 447.139 3.7663C445.632 3.41123 444.137 3.23369 442.656 3.23369C439.381 3.23369 436.951 4.13406 435.365 5.93478C433.78 7.73551 432.987 10.4239 432.987 14C432.987 17.6014 433.845 20.3025 435.56 22.1033C437.276 23.8786 439.784 24.7663 443.084 24.7663C444.514 24.7663 445.904 24.5761 447.256 24.1957C448.633 23.8152 449.946 23.1685 451.193 22.2554V25.6793C450.44 26.2627 449.335 26.7953 447.88 27.2772C446.45 27.7591 444.748 28 442.773 28Z" fill="black" fill-opacity="0.25" style="fill:black;fill-opacity:0.25;"/>
<path d="M404.514 0.342285H413.441C416.612 0.342285 419.068 0.989024 420.81 2.2825C422.577 3.55062 423.461 5.54156 423.461 8.25533C423.461 10.3097 423.019 11.9836 422.135 13.2771C421.277 14.5705 420.069 15.5216 418.509 16.1303C416.976 16.7137 415.183 17.0053 413.129 17.0053H408.178V27.6195H404.514V0.342285ZM413.129 13.7716C415.105 13.7716 416.703 13.3532 417.925 12.5162C419.146 11.6792 419.757 10.2716 419.757 8.29337C419.757 6.64482 419.211 5.45279 418.12 4.71728C417.028 3.98178 415.469 3.61402 413.441 3.61402H408.178V13.7716H413.129Z" fill="black" fill-opacity="0.25" style="fill:black;fill-opacity:0.25;"/>
<path d="M398.106 27.6195H394.207L391.323 19.8205H378.964L376.118 27.6195H372.688L382.629 0.342285H388.087L398.106 27.6195ZM380.173 16.5868H390.153L385.163 3.00533L380.173 16.5868Z" fill="black" fill-opacity="0.25" style="fill:black;fill-opacity:0.25;"/>
<path d="M368.803 27.6195H364.242L354.496 15.9401H351.533V27.6195H347.868V0.342285H351.533V12.7064H354.262L364.242 0.342285H368.375L357.342 13.9618L368.803 27.6195Z" fill="black" fill-opacity="0.25" style="fill:black;fill-opacity:0.25;"/>
<path d="M322.229 0.342285H339.539V3.61402H325.894V11.8695H337.473V15.1032H325.894V24.3858H339.734V27.6195H322.229V0.342285Z" fill="black" fill-opacity="0.25" style="fill:black;fill-opacity:0.25;"/>
<path d="M290.897 24.1575C292.171 24.2843 293.107 23.8912 293.704 22.9782C294.328 22.0651 294.796 20.8604 295.108 19.364C295.498 17.4618 295.758 14.9256 295.888 11.7553C296.018 8.58504 296.109 4.78069 296.161 0.342285H313.392V27.6195H309.688V3.61402H299.63C299.552 7.29156 299.448 10.4999 299.318 13.239C299.188 15.9528 298.941 18.2481 298.578 20.1249C298.266 21.5452 297.824 22.8513 297.252 24.0434C296.68 25.2354 295.888 26.1738 294.874 26.8586C293.86 27.5434 292.535 27.8477 290.897 27.7716V24.1575Z" fill="black" fill-opacity="0.25" style="fill:black;fill-opacity:0.25;"/>
<path d="M274.379 0.342285V27.6195H270.676V16.701H265.608L257.889 27.6195H253.405L261.865 16.0542C259.812 15.6231 258.239 14.7861 257.148 13.5434C256.056 12.3006 255.51 10.614 255.51 8.48359C255.51 6.55605 255.939 4.99627 256.797 3.80424C257.655 2.61221 258.85 1.73721 260.384 1.17924C261.917 0.62127 263.684 0.342285 265.686 0.342285H274.379ZM265.296 13.4673H270.676V3.61402H265.686C263.84 3.61402 262.32 3.98178 261.124 4.71728C259.955 5.42743 259.37 6.68286 259.37 8.48359C259.37 10.1829 259.877 11.4383 260.89 12.2499C261.93 13.0615 263.399 13.4673 265.296 13.4673Z" fill="black" fill-opacity="0.25" style="fill:black;fill-opacity:0.25;"/>
<path d="M239.527 28C236.772 28 234.354 27.442 232.275 26.3261C230.222 25.2101 228.624 23.6123 227.48 21.5326C226.336 19.4275 225.765 16.9167 225.765 14C225.765 9.61232 226.947 6.18841 229.312 3.72826C231.677 1.24275 235.056 0 239.449 0C241.346 0 243.009 0.202898 244.439 0.608695C245.894 0.989129 247.064 1.44565 247.947 1.97826V5.40217C246.778 4.66667 245.426 4.12138 243.893 3.7663C242.385 3.41123 240.891 3.23369 239.41 3.23369C236.135 3.23369 233.705 4.13406 232.119 5.93478C230.534 7.73551 229.741 10.4239 229.741 14C229.741 17.6014 230.599 20.3025 232.314 22.1033C234.03 23.8786 236.538 24.7663 239.838 24.7663C241.268 24.7663 242.658 24.5761 244.01 24.1957C245.387 23.8152 246.7 23.1685 247.947 22.2554V25.6793C247.194 26.2627 246.089 26.7953 244.634 27.2772C243.204 27.7591 241.502 28 239.527 28Z" fill="black" fill-opacity="0.25" style="fill:black;fill-opacity:0.25;"/>
<path d="M201.065 3.65207V0.342285H222.001V3.65207H213.385V27.6195H209.681V3.65207H201.065Z" fill="black" fill-opacity="0.25" style="fill:black;fill-opacity:0.25;"/>
<path d="M177.723 0.342285H195.032V3.61402H181.387V11.8695H192.966V15.1032H181.387V24.3858H195.227V27.6195H177.723V0.342285Z" fill="black" fill-opacity="0.25" style="fill:black;fill-opacity:0.25;"/>
<path d="M168.853 0.342285V27.6195H165.149V16.701H160.081L152.362 27.6195H147.879L156.339 16.0542C154.286 15.6231 152.713 14.7861 151.621 13.5434C150.53 12.3006 149.984 10.614 149.984 8.48359C149.984 6.55605 150.413 4.99627 151.271 3.80424C152.128 2.61221 153.324 1.73721 154.857 1.17924C156.391 0.62127 158.158 0.342285 160.159 0.342285H168.853ZM159.769 13.4673H165.149V3.61402H160.159C158.314 3.61402 156.794 3.98178 155.598 4.71728C154.428 5.42743 153.844 6.68286 153.844 8.48359C153.844 10.1829 154.35 11.4383 155.364 12.2499C156.404 13.0615 157.872 13.4673 159.769 13.4673Z" fill="black" fill-opacity="0.25" style="fill:black;fill-opacity:0.25;"/>
<path d="M118.849 24.1575C120.122 24.2843 121.058 23.8912 121.656 22.9782C122.279 22.0651 122.747 20.8604 123.059 19.364C123.449 17.4618 123.709 14.9256 123.839 11.7553C123.969 8.58504 124.06 4.78069 124.112 0.342285H141.343V27.6195H137.64V3.61402H127.581C127.503 7.29156 127.399 10.4999 127.269 13.239C127.14 15.9528 126.893 18.2481 126.529 20.1249C126.217 21.5452 125.775 22.8513 125.203 24.0434C124.631 25.2354 123.839 26.1738 122.825 26.8586C121.812 27.5434 120.486 27.8477 118.849 27.7716V24.1575Z" fill="black" fill-opacity="0.25" style="fill:black;fill-opacity:0.25;"/>
<path d="M93.876 0.342285H103.349C106.416 0.342285 108.742 0.849531 110.328 1.86402C111.939 2.87852 112.745 4.59047 112.745 6.99989C112.745 8.95279 112.238 10.4365 111.225 11.451C110.211 12.4401 108.859 13.1122 107.17 13.4673C109.327 13.7209 110.965 14.3423 112.082 15.3314C113.2 16.2952 113.759 17.7662 113.759 19.7445C113.759 21.6213 113.304 23.143 112.394 24.3097C111.484 25.4763 110.237 26.326 108.651 26.8586C107.066 27.3658 105.273 27.6195 103.271 27.6195H93.876V0.342285ZM103.077 11.9836C104.844 11.9836 106.273 11.6032 107.365 10.8423C108.483 10.0561 109.041 8.83866 109.041 7.19011C109.041 5.79518 108.548 4.85678 107.56 4.37489C106.572 3.86765 105.169 3.61402 103.349 3.61402H97.5406V11.9836H103.077ZM103.271 24.3858C105.247 24.3858 106.845 24.0561 108.067 23.3966C109.288 22.7372 109.899 21.5452 109.899 19.8205C109.899 18.0959 109.327 16.9039 108.184 16.2445C107.066 15.5597 105.286 15.2173 102.843 15.2173H97.5406V24.3858H103.271Z" fill="black" fill-opacity="0.25" style="fill:black;fill-opacity:0.25;"/>
<path d="M85.0084 0.342285V27.6195H81.3047V16.701H76.2366L68.5175 27.6195H64.0342L72.494 16.0542C70.4408 15.6231 68.8684 14.7861 67.7768 13.5434C66.6852 12.3006 66.1394 10.614 66.1394 8.48359C66.1394 6.55605 66.5682 4.99627 67.4259 3.80424C68.2836 2.61221 69.4792 1.73721 71.0126 1.17924C72.546 0.62127 74.3133 0.342285 76.3146 0.342285H85.0084ZM75.9247 13.4673H81.3047V3.61402H76.3146C74.4693 3.61402 72.9489 3.98178 71.7533 4.71728C70.5837 5.42743 69.999 6.68286 69.999 8.48359C69.999 10.1829 70.5058 11.4383 71.5194 12.2499C72.559 13.0615 74.0275 13.4673 75.9247 13.4673Z" fill="black" fill-opacity="0.25" style="fill:black;fill-opacity:0.25;"/>
<path d="M30.5508 0.342285H47.8603V3.61402H34.2154V11.8695H45.7941V15.1032H34.2154V24.3858H48.0553V27.6195H30.5508V0.342285Z" fill="black" fill-opacity="0.25" style="fill:black;fill-opacity:0.25;"/>
<path d="M0 0.342285H3.66463V12.4782H18.0113V0.342285H21.7149V27.6195H18.0113V15.7118H3.66463V27.6195H0V0.342285Z" fill="black" fill-opacity="0.25" style="fill:black;fill-opacity:0.25;"/>
</svg>
