<svg width="578" height="69" viewBox="0 0 578 69" fill="none" xmlns="http://www.w3.org/2000/svg">
<path d="M564.697 66.3534V55.1907H566.207V65.03H571.827V55.1907H573.352V65.03H574.862V69H573.449L573.272 66.3534H564.697Z" fill="black" fill-opacity="0.25" style="fill:black;fill-opacity:0.25;"/>
<path d="M546.354 60.7643C546.354 61.5116 546.51 62.1084 546.82 62.5547C547.13 63.001 547.553 63.3279 548.089 63.5355C548.635 63.7327 549.239 63.8469 549.903 63.878V57.6661C549.239 57.6973 548.635 57.8166 548.089 58.0242C547.553 58.2214 547.13 58.5431 546.82 58.9894C546.51 59.4254 546.354 60.017 546.354 60.7643ZM554.977 60.7954C554.977 60.0377 554.822 59.4409 554.511 59.005C554.201 58.5587 553.778 58.2318 553.243 58.0242C552.708 57.8166 552.103 57.7024 551.429 57.6817V63.8936C552.103 63.8624 552.708 63.7483 553.243 63.5511C553.778 63.3435 554.201 63.0217 554.511 62.5858C554.822 62.1395 554.977 61.5427 554.977 60.7954ZM549.903 55.0662H551.429V56.4985C552.403 56.5192 553.275 56.6905 554.046 57.0122C554.827 57.334 555.443 57.8062 555.892 58.429C556.342 59.0413 556.567 59.8146 556.567 60.7487C556.567 61.6724 556.342 62.4509 555.892 63.084C555.443 63.7067 554.827 64.1842 554.046 64.5163C553.275 64.8381 552.403 65.0145 551.429 65.0456V66.5091H549.903V65.0456C548.929 65.0249 548.051 64.8588 547.27 64.5474C546.499 64.2257 545.889 63.7534 545.439 63.1307C544.989 62.508 544.765 61.7347 544.765 60.811C544.765 59.8769 544.989 59.0984 545.439 58.4757C545.889 57.8426 546.499 57.3651 547.27 57.0434C548.051 56.7112 548.929 56.5296 549.903 56.4985V55.0662Z" fill="black" fill-opacity="0.25" style="fill:black;fill-opacity:0.25;"/>
<path d="M530.843 64.6564H530.185H530.169L530.185 64.6408L526.701 57.2457V66.3534H525.271V55.1907H527.375L530.956 63.0217L534.697 55.1907H536.656V66.3534H535.131V57.3703L531.598 64.6408L530.843 64.6564Z" fill="black" fill-opacity="0.25" style="fill:black;fill-opacity:0.25;"/>
<path d="M499.503 55.1907H503.405C504.668 55.1907 505.626 55.3983 506.279 55.8134C506.943 56.2286 507.275 56.9292 507.275 57.9152C507.275 58.7144 507.066 59.3215 506.648 59.7367C506.231 60.1415 505.674 60.4165 504.979 60.5618C505.867 60.6656 506.541 60.9199 507.002 61.3247C507.462 61.7191 507.692 62.3211 507.692 63.1307C507.692 63.8987 507.505 64.5215 507.13 64.9989C506.756 65.4763 506.242 65.824 505.589 66.042C504.936 66.2496 504.197 66.3534 503.373 66.3534H499.503V55.1907ZM503.292 59.9547C504.02 59.9547 504.609 59.799 505.059 59.4876C505.519 59.1659 505.749 58.6677 505.749 57.993C505.749 57.4222 505.546 57.0381 505.139 56.8409C504.732 56.6334 504.154 56.5296 503.405 56.5296H501.012V59.9547H503.292ZM503.373 65.03C504.186 65.03 504.845 64.8951 505.348 64.6252C505.851 64.3554 506.103 63.8676 506.103 63.1618C506.103 62.456 505.867 61.9682 505.396 61.6984C504.936 61.4181 504.202 61.278 503.196 61.278H501.012V65.03H503.373Z" fill="black" fill-opacity="0.25" style="fill:black;fill-opacity:0.25;"/>
<path d="M473.57 66.3534H471.932V55.1907H473.441V64.4073L479.768 55.1907H481.406V66.3534H479.864V57.1835L473.57 66.3534Z" fill="black" fill-opacity="0.25" style="fill:black;fill-opacity:0.25;"/>
<path d="M447.236 64.8899C447.899 64.9522 448.418 64.8588 448.793 64.6097C449.168 64.3502 449.478 64.0129 449.724 63.5977L445.453 55.1907H447.171L450.495 61.9163L453.369 55.1907H454.927L451.282 63.3331C450.982 64.0181 450.656 64.5941 450.302 65.0612C449.949 65.5282 449.526 65.8707 449.034 66.0887C448.552 66.3067 447.953 66.3949 447.236 66.3534V64.8899Z" fill="black" fill-opacity="0.25" style="fill:black;fill-opacity:0.25;"/>
<path d="M430.481 55.1907H434.159C435.465 55.1907 436.476 55.4553 437.193 55.9847C437.921 56.5036 438.285 57.3184 438.285 58.4289C438.285 59.2696 438.103 59.9547 437.739 60.484C437.386 61.0133 436.888 61.4025 436.246 61.6516C435.614 61.8904 434.876 62.0097 434.03 62.0097H431.991V66.3534H430.481V55.1907ZM434.03 60.6864C434.844 60.6864 435.502 60.5151 436.005 60.1726C436.508 59.8301 436.76 59.2541 436.76 58.4445C436.76 57.7699 436.535 57.2821 436.086 56.9811C435.636 56.6801 434.994 56.5296 434.159 56.5296H431.991V60.6864H434.03Z" fill="black" fill-opacity="0.25" style="fill:black;fill-opacity:0.25;"/>
<path d="M416.856 66.5092C415.829 66.5092 414.897 66.286 414.062 65.8397C413.227 65.3934 412.564 64.7447 412.071 63.8936C411.589 63.0322 411.349 61.9787 411.349 60.7332C411.349 59.4877 411.589 58.4446 412.071 57.6039C412.564 56.7528 413.227 56.1145 414.062 55.689C414.897 55.2634 415.829 55.0507 416.856 55.0507C417.905 55.0507 418.842 55.2686 419.666 55.7045C420.501 56.1301 421.16 56.7632 421.641 57.6039C422.123 58.4446 422.364 59.4929 422.364 60.7488C422.364 61.9839 422.123 63.0322 421.641 63.8936C421.16 64.7447 420.501 65.3934 419.666 65.8397C418.842 66.286 417.905 66.5092 416.856 66.5092ZM416.856 65.1858C417.595 65.1858 418.259 65.0405 418.847 64.7499C419.436 64.4593 419.897 63.9922 420.228 63.3487C420.571 62.6948 420.742 61.8386 420.742 60.7799C420.742 59.7109 420.571 58.8546 420.228 58.2111C419.897 57.5676 419.436 57.1005 418.847 56.8099C418.259 56.5193 417.595 56.374 416.856 56.374C416.118 56.374 415.454 56.5193 414.865 56.8099C414.287 57.1005 413.827 57.5676 413.484 58.2111C413.142 58.8546 412.97 59.7109 412.97 60.7799C412.97 61.8386 413.142 62.6948 413.484 63.3487C413.827 63.9922 414.287 64.4593 414.865 64.7499C415.454 65.0405 416.118 65.1858 416.856 65.1858Z" fill="black" fill-opacity="0.25" style="fill:black;fill-opacity:0.25;"/>
<path d="M396.038 56.5451V55.1907H404.661V56.5451H401.112V66.3534H399.587V56.5451H396.038Z" fill="black" fill-opacity="0.25" style="fill:black;fill-opacity:0.25;"/>
<path d="M380.287 66.3534H378.649V55.1907H380.159V64.4073L386.485 55.1907H388.123V66.3534H386.582V57.1835L380.287 66.3534Z" fill="black" fill-opacity="0.25" style="fill:black;fill-opacity:0.25;"/>
<path d="M360.558 69H359.193V65.03H359.98C360.473 64.5941 360.837 63.961 361.072 63.1307C361.308 62.3003 361.468 61.2365 361.554 59.9391C361.639 58.6313 361.704 57.0485 361.746 55.1907H369.085V65.03H370.562V69H369.165L369.004 66.3534H360.735L360.558 69ZM361.73 65.03H367.559V56.5296H363.16C363.127 58.1072 363.058 59.4461 362.951 60.5463C362.854 61.6465 362.705 62.5598 362.501 63.2863C362.309 64.0025 362.052 64.5837 361.73 65.03Z" fill="black" fill-opacity="0.25" style="fill:black;fill-opacity:0.25;"/>
<path d="M344.603 55.1907H351.732V56.5296H346.112V59.908H350.881V61.2313H346.112V65.03H351.812V66.3534H344.603V55.1907Z" fill="black" fill-opacity="0.25" style="fill:black;fill-opacity:0.25;"/>
<path d="M328.7 55.1907H332.377C333.683 55.1907 334.695 55.4553 335.412 55.9847C336.14 56.5036 336.504 57.3184 336.504 58.4289C336.504 59.2696 336.322 59.9547 335.958 60.484C335.605 61.0133 335.107 61.4025 334.465 61.6516C333.833 61.8904 333.095 62.0097 332.249 62.0097H330.21V66.3534H328.7V55.1907ZM332.249 60.6864C333.062 60.6864 333.721 60.5151 334.224 60.1726C334.727 59.8301 334.979 59.2541 334.979 58.4445C334.979 57.7699 334.754 57.2821 334.304 56.9811C333.855 56.6801 333.212 56.5296 332.377 56.5296H330.21V60.6864H332.249Z" fill="black" fill-opacity="0.25" style="fill:black;fill-opacity:0.25;"/>
<path d="M320.934 66.3534H319.056L315.041 61.5738H313.821V66.3534H312.312V55.1907H313.821V60.2505H314.945L319.056 55.1907H320.758L316.213 60.7642L320.934 66.3534Z" fill="black" fill-opacity="0.25" style="fill:black;fill-opacity:0.25;"/>
<path d="M287.614 64.8899C288.278 64.9522 288.797 64.8588 289.172 64.6097C289.547 64.3502 289.857 64.0129 290.103 63.5977L285.832 55.1907H287.55L290.874 61.9163L293.748 55.1907H295.306L291.661 63.3331C291.361 64.0181 291.035 64.5941 290.681 65.0612C290.328 65.5282 289.905 65.8707 289.413 66.0887C288.931 66.3067 288.332 66.3949 287.614 66.3534V64.8899Z" fill="black" fill-opacity="0.25" style="fill:black;fill-opacity:0.25;"/>
<path d="M272.168 64.6564H271.509H271.493L271.509 64.6408L268.025 57.2457V66.3534H266.596V55.1907H268.699L272.28 63.0217L276.021 55.1907H277.98V66.3534H276.455V57.3703L272.922 64.6408L272.168 64.6564Z" fill="black" fill-opacity="0.25" style="fill:black;fill-opacity:0.25;"/>
<path d="M250.896 55.1907H258.026V56.5296H252.406V59.908H257.175V61.2313H252.406V65.03H258.106V66.3534H250.896V55.1907Z" fill="black" fill-opacity="0.25" style="fill:black;fill-opacity:0.25;"/>
<path d="M237.271 66.5092C236.244 66.5092 235.312 66.286 234.477 65.8397C233.642 65.3934 232.979 64.7447 232.486 63.8936C232.005 63.0322 231.764 61.9787 231.764 60.7332C231.764 59.4877 232.005 58.4446 232.486 57.6039C232.979 56.7528 233.642 56.1145 234.477 55.689C235.312 55.2634 236.244 55.0507 237.271 55.0507C238.32 55.0507 239.257 55.2686 240.081 55.7045C240.916 56.1301 241.575 56.7632 242.056 57.6039C242.538 58.4446 242.779 59.4929 242.779 60.7488C242.779 61.9839 242.538 63.0322 242.056 63.8936C241.575 64.7447 240.916 65.3934 240.081 65.8397C239.257 66.286 238.32 66.5092 237.271 66.5092ZM237.271 65.1858C238.01 65.1858 238.674 65.0405 239.262 64.7499C239.851 64.4593 240.312 63.9922 240.643 63.3487C240.986 62.6948 241.157 61.8386 241.157 60.7799C241.157 59.7109 240.986 58.8546 240.643 58.2111C240.312 57.5676 239.851 57.1005 239.262 56.8099C238.674 56.5193 238.01 56.374 237.271 56.374C236.533 56.374 235.869 56.5193 235.28 56.8099C234.702 57.1005 234.242 57.5676 233.899 58.2111C233.557 58.8546 233.385 59.7109 233.385 60.7799C233.385 61.8386 233.557 62.6948 233.899 63.3487C234.242 63.9922 234.702 64.4593 235.28 64.7499C235.869 65.0405 236.533 65.1858 237.271 65.1858Z" fill="black" fill-opacity="0.25" style="fill:black;fill-opacity:0.25;"/>
<path d="M216.064 55.1907H219.966C221.23 55.1907 222.188 55.3983 222.841 55.8134C223.504 56.2286 223.836 56.9292 223.836 57.9152C223.836 58.7144 223.628 59.3215 223.21 59.7367C222.793 60.1415 222.236 60.4165 221.54 60.5618C222.429 60.6656 223.103 60.9199 223.563 61.3247C224.024 61.7191 224.254 62.3211 224.254 63.1307C224.254 63.8987 224.066 64.5215 223.692 64.9989C223.317 65.4763 222.803 65.824 222.15 66.042C221.497 66.2496 220.759 66.3534 219.934 66.3534H216.064V55.1907ZM219.854 59.9547C220.582 59.9547 221.171 59.799 221.62 59.4876C222.081 59.1659 222.311 58.6677 222.311 57.993C222.311 57.4222 222.107 57.0381 221.701 56.8409C221.294 56.6334 220.716 56.5296 219.966 56.5296H217.574V59.9547H219.854ZM219.934 65.03C220.748 65.03 221.406 64.8951 221.909 64.6252C222.413 64.3554 222.664 63.8676 222.664 63.1618C222.664 62.456 222.429 61.9682 221.958 61.6984C221.497 61.4181 220.764 61.278 219.758 61.278H217.574V65.03H219.934Z" fill="black" fill-opacity="0.25" style="fill:black;fill-opacity:0.25;"/>
<path d="M204.185 66.5092C203.05 66.5092 202.055 66.2808 201.198 65.8241C200.352 65.3675 199.694 64.7136 199.223 63.8625C198.752 63.001 198.517 61.9735 198.517 60.7799C198.517 58.9843 199.004 57.5832 199.978 56.5764C200.952 55.5592 202.344 55.0507 204.153 55.0507C204.934 55.0507 205.619 55.1337 206.208 55.2998C206.808 55.4554 207.289 55.6423 207.653 55.8602V57.2614C207.172 56.9604 206.615 56.7373 205.983 56.592C205.362 56.4466 204.747 56.374 204.137 56.374C202.788 56.374 201.787 56.7424 201.134 57.4794C200.481 58.2163 200.154 59.3165 200.154 60.7799C200.154 62.2537 200.508 63.3591 201.214 64.096C201.921 64.8226 202.954 65.1858 204.313 65.1858C204.902 65.1858 205.475 65.108 206.031 64.9523C206.599 64.7966 207.139 64.5319 207.653 64.1583V65.5595C207.343 65.7982 206.888 66.0162 206.288 66.2134C205.7 66.4106 204.998 66.5092 204.185 66.5092Z" fill="black" fill-opacity="0.25" style="fill:black;fill-opacity:0.25;"/>
<path d="M182.107 66.3534H180.229L176.214 61.5738H174.994V66.3534H173.484V55.1907H174.994V60.2505H176.118L180.229 55.1907H181.931L177.386 60.7642L182.107 66.3534Z" fill="black" fill-opacity="0.25" style="fill:black;fill-opacity:0.25;"/>
<path d="M148.126 66.3534V55.1907H149.635V59.5187H151.916C153.189 59.5187 154.169 59.7782 154.854 60.2972C155.539 60.8161 155.882 61.6568 155.882 62.8193C155.882 63.6704 155.705 64.3554 155.352 64.8744C154.999 65.3933 154.506 65.7721 153.875 66.0109C153.243 66.2392 152.515 66.3534 151.691 66.3534H148.126ZM151.691 65.03C152.451 65.03 153.072 64.8744 153.553 64.563C154.046 64.2516 154.292 63.6911 154.292 62.8816C154.292 62.1965 154.083 61.6828 153.666 61.3403C153.248 60.9978 152.649 60.8265 151.867 60.8265H149.635V65.03H151.691Z" fill="black" fill-opacity="0.25" style="fill:black;fill-opacity:0.25;"/>
<path d="M136.243 66.5092C135.109 66.5092 134.113 66.2808 133.257 65.8241C132.411 65.3675 131.753 64.7136 131.282 63.8625C130.811 63.001 130.575 61.9735 130.575 60.7799C130.575 58.9843 131.062 57.5832 132.036 56.5764C133.011 55.5592 134.402 55.0507 136.211 55.0507C136.993 55.0507 137.678 55.1337 138.267 55.2998C138.866 55.4554 139.348 55.6423 139.712 55.8602V57.2614C139.23 56.9604 138.674 56.7373 138.042 56.592C137.421 56.4466 136.805 56.374 136.195 56.374C134.846 56.374 133.846 56.7424 133.193 57.4794C132.54 58.2163 132.213 59.3165 132.213 60.7799C132.213 62.2537 132.566 63.3591 133.273 64.096C133.979 64.8226 135.012 65.1858 136.372 65.1858C136.961 65.1858 137.533 65.108 138.09 64.9523C138.657 64.7966 139.198 64.5319 139.712 64.1583V65.5595C139.401 65.7982 138.946 66.0162 138.347 66.2134C137.758 66.4106 137.057 66.5092 136.243 66.5092Z" fill="black" fill-opacity="0.25" style="fill:black;fill-opacity:0.25;"/>
<path d="M115.866 55.1907H122.996V56.5296H117.376V59.908H122.145V61.2313H117.376V65.03H123.076V66.3534H115.866V55.1907Z" fill="black" fill-opacity="0.25" style="fill:black;fill-opacity:0.25;"/>
<path d="M99.3154 56.5451V55.1907H107.938V56.5451H104.39V66.3534H102.864V56.5451H99.3154Z" fill="black" fill-opacity="0.25" style="fill:black;fill-opacity:0.25;"/>
<path d="M83.5656 66.3534H81.9277V55.1907H83.4371V64.4073L89.7638 55.1907H91.4016V66.3534H89.8601V57.1835L83.5656 66.3534Z" fill="black" fill-opacity="0.25" style="fill:black;fill-opacity:0.25;"/>
<path d="M65.3779 56.5451V55.1907H74.0008V56.5451H70.4521V66.3534H68.9266V56.5451H65.3779Z" fill="black" fill-opacity="0.25" style="fill:black;fill-opacity:0.25;"/>
<path d="M59.5954 66.3534H57.9897L56.8014 63.1618H51.7112L50.539 66.3534H49.126L53.2206 55.1907H55.4687L59.5954 66.3534ZM52.209 61.8385H56.3197L54.2644 56.2805L52.209 61.8385Z" fill="black" fill-opacity="0.25" style="fill:black;fill-opacity:0.25;"/>
<path d="M35.208 55.1907H38.8852C40.1912 55.1907 41.2028 55.4553 41.92 55.9847C42.648 56.5036 43.0119 57.3184 43.0119 58.4289C43.0119 59.2696 42.8299 59.9547 42.466 60.484C42.1127 61.0133 41.6149 61.4025 40.9726 61.6516C40.341 61.8904 39.6024 62.0097 38.7567 62.0097H36.7174V66.3534H35.208V55.1907ZM38.7567 60.6864C39.5703 60.6864 40.2286 60.5151 40.7318 60.1726C41.2349 59.8301 41.4865 59.2541 41.4865 58.4445C41.4865 57.7699 41.2617 57.2821 40.8121 56.9811C40.3624 56.6801 39.7201 56.5296 38.8852 56.5296H36.7174V60.6864H38.7567Z" fill="black" fill-opacity="0.25" style="fill:black;fill-opacity:0.25;"/>
<path d="M19.1328 66.3534V55.1907H26.1499V56.5296H20.6422V59.6744H22.9224C24.1963 59.6744 25.1758 59.9287 25.8609 60.4373C26.546 60.9459 26.8886 61.7658 26.8886 62.8971C26.8886 63.7275 26.7119 64.3969 26.3587 64.9055C26.0054 65.4141 25.513 65.7825 24.8814 66.0109C24.2498 66.2392 23.5218 66.3534 22.6976 66.3534H19.1328ZM22.6976 65.03C23.4576 65.03 24.0785 64.8795 24.5602 64.5785C25.0527 64.2776 25.2989 63.7378 25.2989 62.9594C25.2989 62.2951 25.0901 61.8021 24.6726 61.4804C24.2551 61.1586 23.6557 60.9978 22.8742 60.9978H20.6422V65.03H22.6976Z" fill="black" fill-opacity="0.25" style="fill:black;fill-opacity:0.25;"/>
<path d="M5.5077 66.5092C4.48003 66.5092 3.54869 66.286 2.71371 65.8397C1.87872 65.3934 1.21501 64.7447 0.722585 63.8936C0.240862 63.0322 0 61.9787 0 60.7332C0 59.4877 0.240862 58.4446 0.722585 57.6039C1.21501 56.7528 1.87872 56.1145 2.71371 55.689C3.54869 55.2634 4.48003 55.0507 5.5077 55.0507C6.55679 55.0507 7.49347 55.2686 8.31776 55.7045C9.15274 56.1301 9.8111 56.7632 10.2928 57.6039C10.7745 58.4446 11.0154 59.4929 11.0154 60.7488C11.0154 61.9839 10.7745 63.0322 10.2928 63.8936C9.8111 64.7447 9.15274 65.3934 8.31776 65.8397C7.49347 66.286 6.55679 66.5092 5.5077 66.5092ZM5.5077 65.1858C6.24635 65.1858 6.91005 65.0405 7.49883 64.7499C8.0876 64.4593 8.54791 63.9922 8.87977 63.3487C9.22233 62.6948 9.39361 61.8386 9.39361 60.7799C9.39361 59.7109 9.22233 58.8546 8.87977 58.2111C8.54791 57.5676 8.0876 57.1005 7.49883 56.8099C6.91005 56.5193 6.24635 56.374 5.5077 56.374C4.76906 56.374 4.10535 56.5193 3.51658 56.8099C2.93851 57.1005 2.4782 57.5676 2.13564 58.2111C1.79308 58.8546 1.6218 59.7109 1.6218 60.7799C1.6218 61.8386 1.79308 62.6948 2.13564 63.3487C2.4782 63.9922 2.93851 64.4593 3.51658 64.7499C4.10535 65.0405 4.76906 65.1858 5.5077 65.1858Z" fill="black" fill-opacity="0.25" style="fill:black;fill-opacity:0.25;"/>
<path d="M572.492 48.9944C571.464 48.9944 570.533 48.7712 569.698 48.3249C568.863 47.8786 568.199 47.2299 567.707 46.3789C567.225 45.5174 566.984 44.4639 566.984 43.2184C566.984 41.9729 567.225 40.9298 567.707 40.0891C568.199 39.2381 568.863 38.5997 569.698 38.1742C570.533 37.7487 571.464 37.5359 572.492 37.5359C573.541 37.5359 574.478 37.7539 575.302 38.1898C576.137 38.6153 576.795 39.2484 577.277 40.0891C577.759 40.9298 578 41.9781 578 43.234C578 44.4691 577.759 45.5174 577.277 46.3789C576.795 47.2299 576.137 47.8786 575.302 48.3249C574.478 48.7712 573.541 48.9944 572.492 48.9944ZM572.492 47.6711C573.231 47.6711 573.894 47.5257 574.483 47.2351C575.072 46.9445 575.532 46.4775 575.864 45.834C576.207 45.1801 576.378 44.3238 576.378 43.2651C576.378 42.1961 576.207 41.3398 575.864 40.6963C575.532 40.0528 575.072 39.5858 574.483 39.2951C573.894 39.0045 573.231 38.8592 572.492 38.8592C571.753 38.8592 571.09 39.0045 570.501 39.2951C569.923 39.5858 569.463 40.0528 569.12 40.6963C568.777 41.3398 568.606 42.1961 568.606 43.2651C568.606 44.3238 568.777 45.1801 569.12 45.834C569.463 46.4775 569.923 46.9445 570.501 47.2351C571.09 47.5257 571.753 47.6711 572.492 47.6711Z" fill="black" fill-opacity="0.25" style="fill:black;fill-opacity:0.25;"/>
<path d="M552.987 37.676H554.497V42.6424H560.406V37.676H561.931V48.8387H560.406V43.9657H554.497V48.8387H552.987V37.676Z" fill="black" fill-opacity="0.25" style="fill:black;fill-opacity:0.25;"/>
<path d="M540.012 48.8387V37.676H541.521V42.0041H543.801C545.075 42.0041 546.055 42.2636 546.74 42.7825C547.425 43.3015 547.767 44.1422 547.767 45.3046C547.767 46.1557 547.591 46.8407 547.238 47.3597C546.884 47.8787 546.392 48.2575 545.76 48.4962C545.129 48.7245 544.401 48.8387 543.576 48.8387H540.012ZM543.576 47.5154C544.337 47.5154 544.957 47.3597 545.439 47.0483C545.932 46.737 546.178 46.1765 546.178 45.3669C546.178 44.6819 545.969 44.1681 545.552 43.8256C545.134 43.4831 544.535 43.3119 543.753 43.3119H541.521V47.5154H543.576Z" fill="black" fill-opacity="0.25" style="fill:black;fill-opacity:0.25;"/>
<path d="M525.02 47.422C525.544 47.4739 525.929 47.313 526.176 46.9393C526.433 46.5657 526.625 46.0727 526.754 45.4603C526.914 44.6819 527.021 43.644 527.075 42.3466C527.128 41.0492 527.166 39.4924 527.187 37.676H534.285V48.8387H532.759V39.0149H528.616C528.584 40.5199 528.541 41.8328 528.488 42.9538C528.434 44.0643 528.333 45.0036 528.183 45.7717C528.054 46.3529 527.872 46.8875 527.637 47.3753C527.401 47.8631 527.075 48.2471 526.657 48.5273C526.24 48.8076 525.694 48.9321 525.02 48.901V47.422Z" fill="black" fill-opacity="0.25" style="fill:black;fill-opacity:0.25;"/>
<path d="M513.398 37.676H520.528V39.0149H514.908V42.3933H519.677V43.7166H514.908V47.5154H520.608V48.8387H513.398V37.676Z" fill="black" fill-opacity="0.25" style="fill:black;fill-opacity:0.25;"/>
<path d="M499.899 39.0305V37.676H508.522V39.0305H504.974V48.8387H503.448V39.0305H499.899Z" fill="black" fill-opacity="0.25" style="fill:black;fill-opacity:0.25;"/>
<path d="M487.201 48.8387H485.563V37.676H487.073V46.8926L493.4 37.676H495.037V48.8387H493.496V39.6688L487.201 48.8387Z" fill="black" fill-opacity="0.25" style="fill:black;fill-opacity:0.25;"/>
<path d="M472.712 37.676H476.389C477.695 37.676 478.707 37.9407 479.424 38.47C480.152 38.989 480.516 39.8037 480.516 40.9143C480.516 41.755 480.334 42.44 479.97 42.9694C479.617 43.4987 479.119 43.8879 478.477 44.137C477.845 44.3757 477.106 44.4951 476.261 44.4951H474.221V48.8387H472.712V37.676ZM476.261 43.1717C477.074 43.1717 477.733 43.0005 478.236 42.658C478.739 42.3155 478.99 41.7394 478.99 40.9299C478.99 40.2552 478.766 39.7674 478.316 39.4664C477.866 39.1654 477.224 39.0149 476.389 39.0149H474.221V43.1717H476.261Z" fill="black" fill-opacity="0.25" style="fill:black;fill-opacity:0.25;"/>
<path d="M467.984 48.8387H466.378L465.19 45.6472H460.1L458.928 48.8387H457.515L461.609 37.676H463.857L467.984 48.8387ZM460.598 44.3238H464.708L462.653 38.7658L460.598 44.3238Z" fill="black" fill-opacity="0.25" style="fill:black;fill-opacity:0.25;"/>
<path d="M445.378 37.676H449.28C450.543 37.676 451.501 37.8836 452.154 38.2988C452.818 38.7139 453.15 39.4145 453.15 40.4005C453.15 41.1997 452.941 41.8069 452.523 42.2221C452.106 42.6268 451.549 42.9019 450.854 43.0472C451.742 43.151 452.416 43.4053 452.877 43.8101C453.337 44.2045 453.567 44.8064 453.567 45.616C453.567 46.3841 453.38 47.0068 453.005 47.4843C452.631 47.9617 452.117 48.3094 451.464 48.5273C450.811 48.7349 450.072 48.8387 449.248 48.8387H445.378V37.676ZM449.167 42.44C449.895 42.44 450.484 42.2843 450.934 41.973C451.394 41.6512 451.624 41.153 451.624 40.4784C451.624 39.9075 451.421 39.5235 451.014 39.3263C450.607 39.1187 450.029 39.0149 449.28 39.0149H446.887V42.44H449.167ZM449.248 47.5154C450.061 47.5154 450.72 47.3805 451.223 47.1106C451.726 46.8407 451.978 46.3529 451.978 45.6472C451.978 44.9414 451.742 44.4536 451.271 44.1837C450.811 43.9035 450.077 43.7634 449.071 43.7634H446.887V47.5154H449.248Z" fill="black" fill-opacity="0.25" style="fill:black;fill-opacity:0.25;"/>
<path d="M430.336 51.4854H428.971V47.5154H429.758C430.25 47.0795 430.614 46.4463 430.849 45.616C431.085 44.7857 431.246 43.7218 431.331 42.4245C431.417 41.1167 431.481 39.5339 431.524 37.676H438.862V47.5154H440.339V51.4854H438.942L438.782 48.8387H430.512L430.336 51.4854ZM431.508 47.5154H437.337V39.0149H432.937C432.905 40.5925 432.835 41.9314 432.728 43.0316C432.632 44.1318 432.482 45.0452 432.279 45.7717C432.086 46.4879 431.829 47.0691 431.508 47.5154Z" fill="black" fill-opacity="0.25" style="fill:black;fill-opacity:0.25;"/>
<path d="M417.432 37.676H424.561V39.0149H418.941V42.3933H423.71V43.7166H418.941V47.5154H424.641V48.8387H417.432V37.676Z" fill="black" fill-opacity="0.25" style="fill:black;fill-opacity:0.25;"/>
<path d="M404.58 37.676H408.257C409.563 37.676 410.575 37.9407 411.292 38.47C412.02 38.989 412.384 39.8037 412.384 40.9143C412.384 41.755 412.202 42.44 411.838 42.9694C411.485 43.4987 410.987 43.8879 410.345 44.137C409.713 44.3757 408.974 44.4951 408.129 44.4951H406.089V48.8387H404.58V37.676ZM408.129 43.1717C408.942 43.1717 409.601 43.0005 410.104 42.658C410.607 42.3155 410.859 41.7394 410.859 40.9299C410.859 40.2552 410.634 39.7674 410.184 39.4664C409.735 39.1654 409.092 39.0149 408.257 39.0149H406.089V43.1717H408.129Z" fill="black" fill-opacity="0.25" style="fill:black;fill-opacity:0.25;"/>
<path d="M390.191 37.676H398.846V48.8387H397.321V39.0149H391.701V48.8387H390.191V37.676Z" fill="black" fill-opacity="0.25" style="fill:black;fill-opacity:0.25;"/>
<path d="M377.611 48.9311C377.311 48.9311 377.06 48.8378 376.856 48.651C376.664 48.4539 376.567 48.2205 376.567 47.9508C376.567 47.6603 376.664 47.4217 376.856 47.2349C377.06 47.0482 377.311 46.9548 377.611 46.9548C377.911 46.9548 378.157 47.0482 378.35 47.2349C378.542 47.4217 378.639 47.6603 378.639 47.9508C378.639 48.2205 378.542 48.4539 378.35 48.651C378.157 48.8378 377.911 48.9311 377.611 48.9311Z" fill="black" fill-opacity="0.25" style="fill:black;fill-opacity:0.25;"/>
<path d="M364.82 39.0305V37.676H373.443V39.0305H369.894V48.8387H368.369V39.0305H364.82Z" fill="black" fill-opacity="0.25" style="fill:black;fill-opacity:0.25;"/>
<path d="M353.118 37.676H360.248V39.0149H354.628V42.3933H359.397V43.7166H354.628V47.5154H360.328V48.8387H353.118V37.676Z" fill="black" fill-opacity="0.25" style="fill:black;fill-opacity:0.25;"/>
<path d="M338.125 47.422C338.65 47.4739 339.035 47.313 339.281 46.9393C339.538 46.5657 339.731 46.0727 339.859 45.4603C340.02 44.6819 340.127 43.644 340.18 42.3466C340.234 41.0492 340.271 39.4924 340.293 37.676H347.39V48.8387H345.865V39.0149H341.722C341.69 40.5199 341.647 41.8328 341.593 42.9538C341.54 44.0643 341.438 45.0036 341.288 45.7717C341.16 46.3529 340.978 46.8875 340.742 47.3753C340.507 47.8631 340.18 48.2471 339.763 48.5273C339.345 48.8076 338.799 48.9321 338.125 48.901V47.422Z" fill="black" fill-opacity="0.25" style="fill:black;fill-opacity:0.25;"/>
<path d="M319.321 48.8387H317.684V37.676H319.193V46.8926L325.52 37.676H327.157V48.8387H325.616V39.6688L319.321 48.8387Z" fill="black" fill-opacity="0.25" style="fill:black;fill-opacity:0.25;"/>
<path d="M304.185 39.0305V37.676H312.807V39.0305H309.259V48.8387H307.733V39.0305H304.185Z" fill="black" fill-opacity="0.25" style="fill:black;fill-opacity:0.25;"/>
<path d="M299.312 37.676V48.8387H297.786V44.3705H295.699L292.519 48.8387H290.673L294.157 44.1059C293.312 43.9294 292.664 43.5869 292.214 43.0783C291.765 42.5698 291.54 41.8795 291.54 41.0077C291.54 40.2189 291.717 39.5806 292.07 39.0928C292.423 38.605 292.916 38.2469 293.547 38.0185C294.179 37.7902 294.907 37.676 295.731 37.676H299.312ZM295.57 43.0472H297.786V39.0149H295.731C294.971 39.0149 294.345 39.1654 293.852 39.4664C293.371 39.757 293.13 40.2708 293.13 41.0077C293.13 41.7031 293.338 42.2169 293.756 42.549C294.184 42.8811 294.789 43.0472 295.57 43.0472Z" fill="black" fill-opacity="0.25" style="fill:black;fill-opacity:0.25;"/>
<path d="M277.231 37.676H285.886V48.8387H284.361V39.0149H278.741V48.8387H277.231V37.676Z" fill="black" fill-opacity="0.25" style="fill:black;fill-opacity:0.25;"/>
<path d="M258.318 37.676H265.448V39.0149H259.828V42.3933H264.597V43.7166H259.828V47.5154H265.528V48.8387H258.318V37.676Z" fill="black" fill-opacity="0.25" style="fill:black;fill-opacity:0.25;"/>
<path d="M244.752 48.8387H243.114V37.676H244.624V46.8926L250.95 37.676H252.588V48.8387H251.047V39.6688L244.752 48.8387Z" fill="black" fill-opacity="0.25" style="fill:black;fill-opacity:0.25;"/>
<path d="M228.443 37.676H229.953V42.6424H235.862V37.676H237.387V48.8387H235.862V43.9657H229.953V48.8387H228.443V37.676Z" fill="black" fill-opacity="0.25" style="fill:black;fill-opacity:0.25;"/>
<path d="M215.812 37.676H222.941V39.0149H217.321V42.3933H222.09V43.7166H217.321V47.5154H223.021V48.8387H215.812V37.676Z" fill="black" fill-opacity="0.25" style="fill:black;fill-opacity:0.25;"/>
<path d="M201.56 40.7897V37.676H203.085V40.7897C203.085 41.6616 203.304 42.331 203.743 42.7981C204.193 43.2652 204.851 43.4987 205.718 43.4987C206.243 43.4987 206.746 43.4416 207.228 43.3274C207.71 43.2029 208.154 43.0005 208.561 42.7203V37.676H210.086V48.8387H208.561V43.9657C208.122 44.2356 207.661 44.4328 207.18 44.5573C206.709 44.6819 206.216 44.7442 205.702 44.7442C204.386 44.7442 203.363 44.4224 202.635 43.7789C201.918 43.1354 201.56 42.139 201.56 40.7897Z" fill="black" fill-opacity="0.25" style="fill:black;fill-opacity:0.25;"/>
<path d="M189.137 37.676H196.266V39.0149H190.646V42.3933H195.415V43.7166H190.646V47.5154H196.347V48.8387H189.137V37.676Z" fill="black" fill-opacity="0.25" style="fill:black;fill-opacity:0.25;"/>
<path d="M175.638 39.0305V37.676H184.261V39.0305H180.712V48.8387H179.186V39.0305H175.638Z" fill="black" fill-opacity="0.25" style="fill:black;fill-opacity:0.25;"/>
<path d="M156.839 37.676H160.741C162.004 37.676 162.962 37.8836 163.615 38.2988C164.279 38.7139 164.611 39.4145 164.611 40.4005C164.611 41.1997 164.402 41.8069 163.984 42.2221C163.567 42.6268 163.01 42.9019 162.314 43.0472C163.203 43.151 163.877 43.4053 164.338 43.8101C164.798 44.2045 165.028 44.8064 165.028 45.616C165.028 46.3841 164.841 47.0068 164.466 47.4843C164.091 47.9617 163.578 48.3094 162.925 48.5273C162.272 48.7349 161.533 48.8387 160.709 48.8387H156.839V37.676ZM160.628 42.44C161.356 42.44 161.945 42.2843 162.395 41.973C162.855 41.6512 163.085 41.153 163.085 40.4784C163.085 39.9075 162.882 39.5235 162.475 39.3263C162.068 39.1187 161.49 39.0149 160.741 39.0149H158.348V42.44H160.628ZM160.709 47.5154C161.522 47.5154 162.181 47.3805 162.684 47.1106C163.187 46.8407 163.438 46.3529 163.438 45.6472C163.438 44.9414 163.203 44.4536 162.732 44.1837C162.272 43.9035 161.538 43.7634 160.532 43.7634H158.348V47.5154H160.709Z" fill="black" fill-opacity="0.25" style="fill:black;fill-opacity:0.25;"/>
<path d="M139.999 48.9944C138.971 48.9944 138.04 48.7712 137.205 48.3249C136.37 47.8786 135.706 47.2299 135.214 46.3789C134.732 45.5174 134.491 44.4639 134.491 43.2184C134.491 41.9729 134.732 40.9298 135.214 40.0891C135.706 39.2381 136.37 38.5997 137.205 38.1742C138.04 37.7487 138.971 37.5359 139.999 37.5359C141.048 37.5359 141.985 37.7539 142.809 38.1898C143.644 38.6153 144.302 39.2484 144.784 40.0891C145.266 40.9298 145.507 41.9781 145.507 43.234C145.507 44.4691 145.266 45.5174 144.784 46.3789C144.302 47.2299 143.644 47.8786 142.809 48.3249C141.985 48.7712 141.048 48.9944 139.999 48.9944ZM139.999 47.6711C140.738 47.6711 141.401 47.5257 141.99 47.2351C142.579 46.9445 143.039 46.4775 143.371 45.834C143.714 45.1801 143.885 44.3238 143.885 43.2651C143.885 42.1961 143.714 41.3398 143.371 40.6963C143.039 40.0528 142.579 39.5858 141.99 39.2951C141.401 39.0045 140.738 38.8592 139.999 38.8592C139.26 38.8592 138.597 39.0045 138.008 39.2951C137.43 39.5858 136.969 40.0528 136.627 40.6963C136.284 41.3398 136.113 42.1961 136.113 43.2651C136.113 44.3238 136.284 45.1801 136.627 45.834C136.969 46.4775 137.43 46.9445 138.008 47.2351C138.597 47.5257 139.26 47.6711 139.999 47.6711Z" fill="black" fill-opacity="0.25" style="fill:black;fill-opacity:0.25;"/>
<path d="M121.843 37.676H125.745C127.008 37.676 127.966 37.8836 128.619 38.2988C129.283 38.7139 129.615 39.4145 129.615 40.4005C129.615 41.1997 129.406 41.8069 128.988 42.2221C128.571 42.6268 128.014 42.9019 127.318 43.0472C128.207 43.151 128.881 43.4053 129.342 43.8101C129.802 44.2045 130.032 44.8064 130.032 45.616C130.032 46.3841 129.845 47.0068 129.47 47.4843C129.095 47.9617 128.582 48.3094 127.929 48.5273C127.276 48.7349 126.537 48.8387 125.713 48.8387H121.843V37.676ZM125.632 42.44C126.36 42.44 126.949 42.2843 127.399 41.973C127.859 41.6512 128.089 41.153 128.089 40.4784C128.089 39.9075 127.886 39.5235 127.479 39.3263C127.072 39.1187 126.494 39.0149 125.745 39.0149H123.352V42.44H125.632ZM125.713 47.5154C126.526 47.5154 127.185 47.3805 127.688 47.1106C128.191 46.8407 128.442 46.3529 128.442 45.6472C128.442 44.9414 128.207 44.4536 127.736 44.1837C127.276 43.9035 126.542 43.7634 125.536 43.7634H123.352V47.5154H125.713Z" fill="black" fill-opacity="0.25" style="fill:black;fill-opacity:0.25;"/>
<path d="M108.344 39.0305V37.676H116.967V39.0305H113.418V48.8387H111.892V39.0305H108.344Z" fill="black" fill-opacity="0.25" style="fill:black;fill-opacity:0.25;"/>
<path d="M100.381 48.9944C99.2464 48.9944 98.2509 48.766 97.3945 48.3094C96.5488 47.8527 95.8904 47.1988 95.4194 46.3477C94.9484 45.4863 94.7129 44.4587 94.7129 43.2651C94.7129 41.4696 95.2 40.0684 96.1741 39.0616C97.1483 38.0445 98.5399 37.5359 100.349 37.5359C101.131 37.5359 101.816 37.6189 102.404 37.785C103.004 37.9407 103.486 38.1275 103.85 38.3455V39.7466C103.368 39.4456 102.811 39.2225 102.18 39.0772C101.559 38.9319 100.943 38.8592 100.333 38.8592C98.9842 38.8592 97.9833 39.2277 97.3303 39.9646C96.6773 40.7015 96.3508 41.8017 96.3508 43.2651C96.3508 44.739 96.704 45.8443 97.4105 46.5813C98.1171 47.3078 99.1501 47.6711 100.51 47.6711C101.098 47.6711 101.671 47.5932 102.228 47.4375C102.795 47.2818 103.336 47.0172 103.85 46.6435V48.0447C103.539 48.2834 103.084 48.5014 102.485 48.6986C101.896 48.8958 101.195 48.9944 100.381 48.9944Z" fill="black" fill-opacity="0.25" style="fill:black;fill-opacity:0.25;"/>
<path d="M82.4521 39.0305V37.676H91.075V39.0305H87.5263V48.8387H86.0008V39.0305H82.4521Z" fill="black" fill-opacity="0.25" style="fill:black;fill-opacity:0.25;"/>
<path d="M73.3104 48.9944C72.2828 48.9944 71.3514 48.7712 70.5164 48.3249C69.6815 47.8786 69.0177 47.2299 68.5253 46.3789C68.0436 45.5174 67.8027 44.4639 67.8027 43.2184C67.8027 41.9729 68.0436 40.9298 68.5253 40.0891C69.0177 39.2381 69.6815 38.5997 70.5164 38.1742C71.3514 37.7487 72.2828 37.5359 73.3104 37.5359C74.3595 37.5359 75.2962 37.7539 76.1205 38.1898C76.9555 38.6153 77.6138 39.2484 78.0956 40.0891C78.5773 40.9298 78.8181 41.9781 78.8181 43.234C78.8181 44.4691 78.5773 45.5174 78.0956 46.3789C77.6138 47.2299 76.9555 47.8786 76.1205 48.3249C75.2962 48.7712 74.3595 48.9944 73.3104 48.9944ZM73.3104 47.6711C74.0491 47.6711 74.7128 47.5257 75.3016 47.2351C75.8903 46.9445 76.3507 46.4775 76.6825 45.834C77.0251 45.1801 77.1963 44.3238 77.1963 43.2651C77.1963 42.1961 77.0251 41.3398 76.6825 40.6963C76.3507 40.0528 75.8903 39.5858 75.3016 39.2951C74.7128 39.0045 74.0491 38.8592 73.3104 38.8592C72.5718 38.8592 71.9081 39.0045 71.3193 39.2951C70.7413 39.5858 70.2809 40.0528 69.9384 40.6963C69.5958 41.3398 69.4245 42.1961 69.4245 43.2651C69.4245 44.3238 69.5958 45.1801 69.9384 45.834C70.2809 46.4775 70.7413 46.9445 71.3193 47.2351C71.9081 47.5257 72.5718 47.6711 73.3104 47.6711Z" fill="black" fill-opacity="0.25" style="fill:black;fill-opacity:0.25;"/>
<path d="M55.625 37.676H59.3022C60.6082 37.676 61.6198 37.9407 62.337 38.47C63.0649 38.989 63.4289 39.8037 63.4289 40.9143C63.4289 41.755 63.2469 42.44 62.883 42.9694C62.5297 43.4987 62.0319 43.8879 61.3896 44.137C60.758 44.3757 60.0194 44.4951 59.1737 44.4951H57.1344V48.8387H55.625V37.676ZM59.1737 43.1717C59.9873 43.1717 60.6456 43.0005 61.1488 42.658C61.6519 42.3155 61.9035 41.7394 61.9035 40.9299C61.9035 40.2552 61.6787 39.7674 61.229 39.4664C60.7794 39.1654 60.1371 39.0149 59.3022 39.0149H57.1344V43.1717H59.1737Z" fill="black" fill-opacity="0.25" style="fill:black;fill-opacity:0.25;"/>
<path d="M50.91 48.8387H49.0312L45.0169 44.0592H43.7965V48.8387H42.2871V37.676H43.7965V42.7358H44.9205L49.0312 37.676H50.7333L46.1891 43.2496L50.91 48.8387Z" fill="black" fill-opacity="0.25" style="fill:black;fill-opacity:0.25;"/>
<path d="M27.6162 37.676H29.1256V42.6424H35.0347V37.676H36.5602V48.8387H35.0347V43.9657H29.1256V48.8387H27.6162V37.676Z" fill="black" fill-opacity="0.25" style="fill:black;fill-opacity:0.25;"/>
<path d="M22.906 48.8387H21.3002L20.112 45.6472H15.0218L13.8496 48.8387H12.4365L16.5312 37.676H18.7792L22.906 48.8387ZM15.5196 44.3238H19.6303L17.5749 38.7658L15.5196 44.3238Z" fill="black" fill-opacity="0.25" style="fill:black;fill-opacity:0.25;"/>
<path d="M0.674805 48.8387V37.676H7.69191V39.0149H2.1842V42.1598H4.46436C5.73825 42.1598 6.71776 42.4141 7.40287 42.9226C8.08799 43.4312 8.43055 44.2512 8.43055 45.3825C8.43055 46.2128 8.25392 46.8823 7.90066 47.3908C7.54739 47.8994 7.05496 48.2679 6.42337 48.4962C5.79178 48.7245 5.06384 48.8387 4.23956 48.8387H0.674805ZM4.23956 47.5154C4.99961 47.5154 5.6205 47.3649 6.10222 47.0639C6.59465 46.7629 6.84086 46.2232 6.84086 45.4448C6.84086 44.7805 6.63212 44.2875 6.21462 43.9657C5.79713 43.644 5.19765 43.4831 4.41619 43.4831H2.1842V47.5154H4.23956Z" fill="black" fill-opacity="0.25" style="fill:black;fill-opacity:0.25;"/>
<path d="M570.108 20.1614H577.238V21.5003H571.618V24.8787H576.387V26.202H571.618V30.0007H577.318V31.3241H570.108V20.1614Z" fill="black" fill-opacity="0.25" style="fill:black;fill-opacity:0.25;"/>
<path d="M559.374 31.4797C558.346 31.4797 557.415 31.2566 556.58 30.8103C555.745 30.364 555.081 29.7153 554.589 28.8642C554.107 28.0027 553.866 26.9493 553.866 25.7038C553.866 24.4583 554.107 23.4152 554.589 22.5745C555.081 21.7234 555.745 21.0851 556.58 20.6596C557.415 20.234 558.346 20.0212 559.374 20.0212C560.423 20.0212 561.36 20.2392 562.184 20.6751C563.019 21.1007 563.677 21.7338 564.159 22.5745C564.641 23.4152 564.882 24.4635 564.882 25.7194C564.882 26.9545 564.641 28.0027 564.159 28.8642C563.677 29.7153 563.019 30.364 562.184 30.8103C561.36 31.2566 560.423 31.4797 559.374 31.4797ZM559.374 30.1564C560.113 30.1564 560.776 30.0111 561.365 29.7205C561.954 29.4299 562.414 28.9628 562.746 28.3193C563.089 27.6654 563.26 26.8092 563.26 25.7505C563.26 24.6814 563.089 23.8252 562.746 23.1817C562.414 22.5382 561.954 22.0711 561.365 21.7805C560.776 21.4899 560.113 21.3446 559.374 21.3446C558.635 21.3446 557.972 21.4899 557.383 21.7805C556.805 22.0711 556.344 22.5382 556.002 23.1817C555.659 23.8252 555.488 24.6814 555.488 25.7505C555.488 26.8092 555.659 27.6654 556.002 28.3193C556.344 28.9628 556.805 29.4299 557.383 29.7205C557.972 30.0111 558.635 30.1564 559.374 30.1564Z" fill="black" fill-opacity="0.25" style="fill:black;fill-opacity:0.25;"/>
<path d="M539.709 20.1614H541.218V25.1278H547.127V20.1614H548.653V31.3241H547.127V26.4511H541.218V31.3241H539.709V20.1614Z" fill="black" fill-opacity="0.25" style="fill:black;fill-opacity:0.25;"/>
<path d="M526.713 20.1614H530.39C531.696 20.1614 532.708 20.426 533.425 20.9554C534.153 21.4743 534.517 22.2891 534.517 23.3996C534.517 24.2404 534.335 24.9254 533.971 25.4547C533.618 25.984 533.12 26.3733 532.478 26.6223C531.846 26.8611 531.107 26.9804 530.262 26.9804H528.222V31.3241H526.713V20.1614ZM530.262 25.6571C531.075 25.6571 531.734 25.4858 532.237 25.1433C532.74 24.8008 532.991 24.2248 532.991 23.4152C532.991 22.7406 532.767 22.2528 532.317 21.9518C531.867 21.6508 531.225 21.5003 530.39 21.5003H528.222V25.6571H530.262Z" fill="black" fill-opacity="0.25" style="fill:black;fill-opacity:0.25;"/>
<path d="M515.977 31.4797C514.95 31.4797 514.018 31.2566 513.183 30.8103C512.348 30.364 511.685 29.7153 511.192 28.8642C510.711 28.0027 510.47 26.9493 510.47 25.7038C510.47 24.4583 510.711 23.4152 511.192 22.5745C511.685 21.7234 512.348 21.0851 513.183 20.6596C514.018 20.234 514.95 20.0212 515.977 20.0212C517.026 20.0212 517.963 20.2392 518.788 20.6751C519.622 21.1007 520.281 21.7338 520.763 22.5745C521.244 23.4152 521.485 24.4635 521.485 25.7194C521.485 26.9545 521.244 28.0027 520.763 28.8642C520.281 29.7153 519.622 30.364 518.788 30.8103C517.963 31.2566 517.026 31.4797 515.977 31.4797ZM515.977 30.1564C516.716 30.1564 517.38 30.0111 517.969 29.7205C518.557 29.4299 519.018 28.9628 519.35 28.3193C519.692 27.6654 519.863 26.8092 519.863 25.7505C519.863 24.6814 519.692 23.8252 519.35 23.1817C519.018 22.5382 518.557 22.0711 517.969 21.7805C517.38 21.4899 516.716 21.3446 515.977 21.3446C515.239 21.3446 514.575 21.4899 513.986 21.7805C513.408 22.0711 512.948 22.5382 512.605 23.1817C512.263 23.8252 512.092 24.6814 512.092 25.7505C512.092 26.8092 512.263 27.6654 512.605 28.3193C512.948 28.9628 513.408 29.4299 513.986 29.7205C514.575 30.0111 515.239 30.1564 515.977 30.1564Z" fill="black" fill-opacity="0.25" style="fill:black;fill-opacity:0.25;"/>
<path d="M498.049 21.5158V20.1614H506.672V21.5158H503.123V31.3241H501.598V21.5158H498.049Z" fill="black" fill-opacity="0.25" style="fill:black;fill-opacity:0.25;"/>
<path d="M485.67 20.1614H489.572C490.835 20.1614 491.793 20.369 492.446 20.7841C493.11 21.1993 493.442 21.8999 493.442 22.8859C493.442 23.6851 493.233 24.2922 492.815 24.7074C492.398 25.1122 491.841 25.3872 491.146 25.5325C492.034 25.6363 492.708 25.8906 493.169 26.2954C493.629 26.6898 493.859 27.2918 493.859 28.1014C493.859 28.8694 493.672 29.4922 493.297 29.9696C492.923 30.447 492.409 30.7947 491.756 31.0127C491.103 31.2203 490.364 31.3241 489.54 31.3241H485.67V20.1614ZM489.459 24.9254C490.187 24.9254 490.776 24.7697 491.226 24.4583C491.686 24.1366 491.916 23.6384 491.916 22.9637C491.916 22.3929 491.713 22.0089 491.306 21.8116C490.899 21.6041 490.321 21.5003 489.572 21.5003H487.179V24.9254H489.459ZM489.54 30.0007C490.353 30.0007 491.012 29.8658 491.515 29.596C492.018 29.3261 492.27 28.8383 492.27 28.1325C492.27 27.4267 492.034 26.9389 491.563 26.6691C491.103 26.3888 490.369 26.2487 489.363 26.2487H487.179V30.0007H489.54Z" fill="black" fill-opacity="0.25" style="fill:black;fill-opacity:0.25;"/>
<path d="M474.934 31.4797C473.907 31.4797 472.975 31.2566 472.14 30.8103C471.305 30.364 470.642 29.7153 470.149 28.8642C469.668 28.0027 469.427 26.9493 469.427 25.7038C469.427 24.4583 469.668 23.4152 470.149 22.5745C470.642 21.7234 471.305 21.0851 472.14 20.6596C472.975 20.234 473.907 20.0212 474.934 20.0212C475.984 20.0212 476.92 20.2392 477.745 20.6751C478.579 21.1007 479.238 21.7338 479.72 22.5745C480.201 23.4152 480.442 24.4635 480.442 25.7194C480.442 26.9545 480.201 28.0027 479.72 28.8642C479.238 29.7153 478.579 30.364 477.745 30.8103C476.92 31.2566 475.984 31.4797 474.934 31.4797ZM474.934 30.1564C475.673 30.1564 476.337 30.0111 476.926 29.7205C477.514 29.4299 477.975 28.9628 478.307 28.3193C478.649 27.6654 478.82 26.8092 478.82 25.7505C478.82 24.6814 478.649 23.8252 478.307 23.1817C477.975 22.5382 477.514 22.0711 476.926 21.7805C476.337 21.4899 475.673 21.3446 474.934 21.3446C474.196 21.3446 473.532 21.4899 472.943 21.7805C472.365 22.0711 471.905 22.5382 471.562 23.1817C471.22 23.8252 471.049 24.6814 471.049 25.7505C471.049 26.8092 471.22 27.6654 471.562 28.3193C471.905 28.9628 472.365 29.4299 472.943 29.7205C473.532 30.0111 474.196 30.1564 474.934 30.1564Z" fill="black" fill-opacity="0.25" style="fill:black;fill-opacity:0.25;"/>
<path d="M455.552 20.1614H464.207V31.3241H462.681V21.5003H457.061V31.3241H455.552V20.1614Z" fill="black" fill-opacity="0.25" style="fill:black;fill-opacity:0.25;"/>
<path d="M435.4 31.3241H433.762V20.1614H435.271V29.378L441.598 20.1614H443.236V31.3241H441.694V22.1542L435.4 31.3241Z" fill="black" fill-opacity="0.25" style="fill:black;fill-opacity:0.25;"/>
<path d="M422.447 31.3241H420.841L419.653 28.1325H414.563L413.391 31.3241H411.978L416.072 20.1614H418.32L422.447 31.3241ZM415.061 26.8092H419.171L417.116 21.2512L415.061 26.8092Z" fill="black" fill-opacity="0.25" style="fill:black;fill-opacity:0.25;"/>
<path d="M400.476 21.5158V20.1614H409.098V21.5158H405.55V31.3241H404.024V21.5158H400.476Z" fill="black" fill-opacity="0.25" style="fill:black;fill-opacity:0.25;"/>
<path d="M387.614 31.3241H385.977V20.1614H387.486V29.378L393.813 20.1614H395.45V31.3241H393.909V22.1542L387.614 31.3241Z" fill="black" fill-opacity="0.25" style="fill:black;fill-opacity:0.25;"/>
<path d="M370.776 33.9707H369.411V30.0007H370.198C370.69 29.5648 371.054 28.9317 371.29 28.1014C371.525 27.271 371.686 26.2072 371.772 24.9098C371.857 23.602 371.921 22.0192 371.964 20.1614H379.303V30.0007H380.78V33.9707H379.383L379.222 31.3241H370.953L370.776 33.9707ZM371.948 30.0007H377.777V21.5003H373.377C373.345 23.0779 373.276 24.4168 373.169 25.517C373.072 26.6172 372.922 27.5305 372.719 28.2571C372.526 28.9732 372.269 29.5544 371.948 30.0007Z" fill="black" fill-opacity="0.25" style="fill:black;fill-opacity:0.25;"/>
<path d="M357.711 20.1614H364.84V21.5003H359.22V24.8787H363.989V26.202H359.22V30.0007H364.921V31.3241H357.711V20.1614Z" fill="black" fill-opacity="0.25" style="fill:black;fill-opacity:0.25;"/>
<path d="M344.699 20.1614H348.376C349.682 20.1614 350.694 20.426 351.411 20.9554C352.139 21.4743 352.503 22.2891 352.503 23.3996C352.503 24.2404 352.321 24.9254 351.957 25.4547C351.604 25.984 351.106 26.3733 350.464 26.6223C349.832 26.8611 349.094 26.9804 348.248 26.9804H346.209V31.3241H344.699V20.1614ZM348.248 25.6571C349.062 25.6571 349.72 25.4858 350.223 25.1433C350.726 24.8008 350.978 24.2248 350.978 23.4152C350.978 22.7406 350.753 22.2528 350.303 21.9518C349.854 21.6508 349.211 21.5003 348.376 21.5003H346.209V25.6571H348.248Z" fill="black" fill-opacity="0.25" style="fill:black;fill-opacity:0.25;"/>
<path d="M339.823 31.3241H337.944L333.93 26.5445H332.71V31.3241H331.2V20.1614H332.71V25.2212H333.834L337.944 20.1614H339.646L335.102 25.7349L339.823 31.3241Z" fill="black" fill-opacity="0.25" style="fill:black;fill-opacity:0.25;"/>
<path d="M311.967 20.1614H319.096V21.5003H313.476V24.8787H318.245V26.202H313.476V30.0007H319.177V31.3241H311.967V20.1614Z" fill="black" fill-opacity="0.25" style="fill:black;fill-opacity:0.25;"/>
<path d="M298.239 31.3241H296.602V20.1614H298.111V29.378L304.438 20.1614H306.075V31.3241H304.534V22.1542L298.239 31.3241Z" fill="black" fill-opacity="0.25" style="fill:black;fill-opacity:0.25;"/>
<path d="M281.771 20.1614H283.28V25.1278H289.189V20.1614H290.714V31.3241H289.189V26.4511H283.28V31.3241H281.771V20.1614Z" fill="black" fill-opacity="0.25" style="fill:black;fill-opacity:0.25;"/>
<path d="M268.979 20.1614H276.108V21.5003H270.488V24.8787H275.257V26.202H270.488V30.0007H276.188V31.3241H268.979V20.1614Z" fill="black" fill-opacity="0.25" style="fill:black;fill-opacity:0.25;"/>
<path d="M254.565 23.2751V20.1614H256.091V23.2751C256.091 24.1469 256.31 24.8164 256.749 25.2834C257.199 25.7505 257.857 25.984 258.724 25.984C259.249 25.984 259.752 25.927 260.234 25.8128C260.715 25.6882 261.16 25.4858 261.566 25.2056V20.1614H263.092V31.3241H261.566V26.4511C261.128 26.721 260.667 26.9182 260.186 27.0427C259.715 27.1673 259.222 27.2295 258.708 27.2295C257.392 27.2295 256.369 26.9078 255.641 26.2643C254.924 25.6208 254.565 24.6244 254.565 23.2751Z" fill="black" fill-opacity="0.25" style="fill:black;fill-opacity:0.25;"/>
<path d="M242.299 29.8606C242.963 29.9229 243.482 29.8295 243.857 29.5804C244.231 29.3209 244.542 28.9836 244.788 28.5684L240.517 20.1614H242.235L245.559 26.887L248.433 20.1614H249.99L246.345 28.3038C246.046 28.9888 245.719 29.5648 245.366 30.0319C245.013 30.4989 244.59 30.8414 244.097 31.0594C243.616 31.2774 243.016 31.3656 242.299 31.3241V29.8606Z" fill="black" fill-opacity="0.25" style="fill:black;fill-opacity:0.25;"/>
<path d="M226.295 29.9073C226.819 29.9592 227.205 29.7983 227.451 29.4247C227.708 29.0511 227.901 28.558 228.029 27.9457C228.19 27.1673 228.297 26.1293 228.35 24.832C228.404 23.5346 228.441 21.9777 228.463 20.1614H235.56V31.3241H234.035V21.5003H229.892C229.86 23.0052 229.817 24.3182 229.763 25.4391C229.71 26.5497 229.608 27.489 229.458 28.2571C229.33 28.8383 229.148 29.3728 228.912 29.8606C228.677 30.3484 228.35 30.7325 227.933 31.0127C227.515 31.2929 226.969 31.4175 226.295 31.3863V29.9073Z" fill="black" fill-opacity="0.25" style="fill:black;fill-opacity:0.25;"/>
<path d="M216.901 31.4797C215.874 31.4797 214.942 31.2566 214.107 30.8103C213.272 30.364 212.609 29.7153 212.116 28.8642C211.634 28.0027 211.394 26.9493 211.394 25.7038C211.394 24.4583 211.634 23.4152 212.116 22.5745C212.609 21.7234 213.272 21.0851 214.107 20.6596C214.942 20.234 215.874 20.0212 216.901 20.0212C217.95 20.0212 218.887 20.2392 219.711 20.6751C220.546 21.1007 221.205 21.7338 221.686 22.5745C222.168 23.4152 222.409 24.4635 222.409 25.7194C222.409 26.9545 222.168 28.0027 221.686 28.8642C221.205 29.7153 220.546 30.364 219.711 30.8103C218.887 31.2566 217.95 31.4797 216.901 31.4797ZM216.901 30.1564C217.64 30.1564 218.304 30.0111 218.892 29.7205C219.481 29.4299 219.941 28.9628 220.273 28.3193C220.616 27.6654 220.787 26.8092 220.787 25.7505C220.787 24.6814 220.616 23.8252 220.273 23.1817C219.941 22.5382 219.481 22.0711 218.892 21.7805C218.304 21.4899 217.64 21.3446 216.901 21.3446C216.163 21.3446 215.499 21.4899 214.91 21.7805C214.332 22.0711 213.872 22.5382 213.529 23.1817C213.187 23.8252 213.015 24.6814 213.015 25.7505C213.015 26.8092 213.187 27.6654 213.529 28.3193C213.872 28.9628 214.332 29.4299 214.91 29.7205C215.499 30.0111 216.163 30.1564 216.901 30.1564Z" fill="black" fill-opacity="0.25" style="fill:black;fill-opacity:0.25;"/>
<path d="M197.519 20.1614H206.174V31.3241H204.648V21.5003H199.028V31.3241H197.519V20.1614Z" fill="black" fill-opacity="0.25" style="fill:black;fill-opacity:0.25;"/>
<path d="M186.206 31.3241H184.6L183.412 28.1325H178.322L177.149 31.3241H175.736L179.831 20.1614H182.079L186.206 31.3241ZM178.819 26.8092H182.93L180.875 21.2512L178.819 26.8092Z" fill="black" fill-opacity="0.25" style="fill:black;fill-opacity:0.25;"/>
<path d="M161.932 20.1614H163.441V25.1278H169.35V20.1614H170.876V31.3241H169.35V26.4511H163.441V31.3241H161.932V20.1614Z" fill="black" fill-opacity="0.25" style="fill:black;fill-opacity:0.25;"/>
<path d="M149.621 20.1614V31.3241H148.096V26.8559H146.008L142.829 31.3241H140.982L144.467 26.5912C143.621 26.4148 142.974 26.0723 142.524 25.5637C142.074 25.0551 141.85 24.3649 141.85 23.4931C141.85 22.7042 142.026 22.0659 142.379 21.5781C142.733 21.0903 143.225 20.7322 143.857 20.5039C144.488 20.2755 145.216 20.1614 146.041 20.1614H149.621ZM145.88 25.5325H148.096V21.5003H146.041C145.28 21.5003 144.654 21.6508 144.162 21.9518C143.68 22.2424 143.439 22.7561 143.439 23.4931C143.439 24.1885 143.648 24.7022 144.065 25.0344C144.494 25.3665 145.098 25.5325 145.88 25.5325Z" fill="black" fill-opacity="0.25" style="fill:black;fill-opacity:0.25;"/>
<path d="M128.202 31.3241H126.564V20.1614H128.074V29.378L134.4 20.1614H136.038V31.3241H134.497V22.1542L128.202 31.3241Z" fill="black" fill-opacity="0.25" style="fill:black;fill-opacity:0.25;"/>
<path d="M111.733 20.1614H113.243V25.1278H119.152V20.1614H120.677V31.3241H119.152V26.4511H113.243V31.3241H111.733V20.1614Z" fill="black" fill-opacity="0.25" style="fill:black;fill-opacity:0.25;"/>
<path d="M98.9414 20.1614H106.071V21.5003H100.451V24.8787H105.22V26.202H100.451V30.0007H106.151V31.3241H98.9414V20.1614Z" fill="black" fill-opacity="0.25" style="fill:black;fill-opacity:0.25;"/>
<path d="M84.5293 23.2751V20.1614H86.0548V23.2751C86.0548 24.1469 86.2742 24.8164 86.7131 25.2834C87.1627 25.7505 87.8211 25.984 88.6882 25.984C89.2127 25.984 89.7158 25.927 90.1976 25.8128C90.6793 25.6882 91.1236 25.4858 91.5303 25.2056V20.1614H93.0558V31.3241H91.5303V26.4511C91.0914 26.721 90.6311 26.9182 90.1494 27.0427C89.6784 27.1673 89.186 27.2295 88.6721 27.2295C87.3554 27.2295 86.3331 26.9078 85.6051 26.2643C84.8879 25.6208 84.5293 24.6244 84.5293 23.2751Z" fill="black" fill-opacity="0.25" style="fill:black;fill-opacity:0.25;"/>
<path d="M71.0275 31.3241H69.3896V20.1614H70.899V29.378L77.2257 20.1614H78.8635V31.3241H77.322V22.1542L71.0275 31.3241Z" fill="black" fill-opacity="0.25" style="fill:black;fill-opacity:0.25;"/>
<path d="M54.5576 20.1614H56.067V25.1278H61.9762V20.1614H63.5016V31.3241H61.9762V26.4511H56.067V31.3241H54.5576V20.1614Z" fill="black" fill-opacity="0.25" style="fill:black;fill-opacity:0.25;"/>
<path d="M49.6853 31.3241H48.0795L46.8913 28.1325H41.8011L40.6289 31.3241H39.2158L43.3105 20.1614H45.5585L49.6853 31.3241ZM42.2988 26.8092H46.4096L44.3542 21.2512L42.2988 26.8092Z" fill="black" fill-opacity="0.25" style="fill:black;fill-opacity:0.25;"/>
<path d="M28.1895 20.1614H31.8666C33.1726 20.1614 34.1842 20.426 34.9015 20.9554C35.6294 21.4743 35.9934 22.2891 35.9934 23.3996C35.9934 24.2404 35.8114 24.9254 35.4474 25.4547C35.0942 25.984 34.5964 26.3733 33.9541 26.6223C33.3225 26.8611 32.5838 26.9804 31.7381 26.9804H29.6989V31.3241H28.1895V20.1614ZM31.7381 25.6571C32.5517 25.6571 33.2101 25.4858 33.7132 25.1433C34.2163 24.8008 34.4679 24.2248 34.4679 23.4152C34.4679 22.7406 34.2431 22.2528 33.7935 21.9518C33.3439 21.6508 32.7016 21.5003 31.8666 21.5003H29.6989V25.6571H31.7381Z" fill="black" fill-opacity="0.25" style="fill:black;fill-opacity:0.25;"/>
<path d="M16.2432 20.1614H22.9552V21.5003H17.7526V31.3241H16.2432V20.1614Z" fill="black" fill-opacity="0.25" style="fill:black;fill-opacity:0.25;"/>
<path d="M5.5077 31.4797C4.48003 31.4797 3.54869 31.2566 2.71371 30.8103C1.87872 30.364 1.21501 29.7153 0.722585 28.8642C0.240862 28.0027 0 26.9493 0 25.7038C0 24.4583 0.240862 23.4152 0.722585 22.5745C1.21501 21.7234 1.87872 21.0851 2.71371 20.6596C3.54869 20.234 4.48003 20.0212 5.5077 20.0212C6.55679 20.0212 7.49347 20.2392 8.31776 20.6751C9.15274 21.1007 9.8111 21.7338 10.2928 22.5745C10.7745 23.4152 11.0154 24.4635 11.0154 25.7194C11.0154 26.9545 10.7745 28.0027 10.2928 28.8642C9.8111 29.7153 9.15274 30.364 8.31776 30.8103C7.49347 31.2566 6.55679 31.4797 5.5077 31.4797ZM5.5077 30.1564C6.24635 30.1564 6.91005 30.0111 7.49883 29.7205C8.0876 29.4299 8.54791 28.9628 8.87977 28.3193C9.22233 27.6654 9.39361 26.8092 9.39361 25.7505C9.39361 24.6814 9.22233 23.8252 8.87977 23.1817C8.54791 22.5382 8.0876 22.0711 7.49883 21.7805C6.91005 21.4899 6.24635 21.3446 5.5077 21.3446C4.76906 21.3446 4.10535 21.4899 3.51658 21.7805C2.93851 22.0711 2.4782 22.5382 2.13564 23.1817C1.79308 23.8252 1.6218 24.6814 1.6218 25.7505C1.6218 26.8092 1.79308 27.6654 2.13564 28.3193C2.4782 28.9628 2.93851 29.4299 3.51658 29.7205C4.10535 30.0111 4.76906 30.1564 5.5077 30.1564Z" fill="black" fill-opacity="0.25" style="fill:black;fill-opacity:0.25;"/>
<path d="M568.476 2.64673H575.605V3.98563H569.985V7.36402H574.754V8.68735H569.985V12.4861H575.685V13.8094H568.476V2.64673Z" fill="black" fill-opacity="0.25" style="fill:black;fill-opacity:0.25;"/>
<path d="M555.571 12.3927C556.096 12.4446 556.481 12.2837 556.727 11.9101C556.984 11.5364 557.177 11.0434 557.305 10.431C557.466 9.6526 557.573 8.61469 557.627 7.31731C557.68 6.01993 557.718 4.46307 557.739 2.64673H564.836V13.8094H563.311V3.98563H559.168C559.136 5.49059 559.093 6.80355 559.04 7.92449C558.986 9.03505 558.884 9.97435 558.735 10.7424C558.606 11.3236 558.424 11.8582 558.189 12.346C557.953 12.8338 557.627 13.2178 557.209 13.498C556.792 13.7783 556.246 13.9028 555.571 13.8717V12.3927Z" fill="black" fill-opacity="0.25" style="fill:black;fill-opacity:0.25;"/>
<path d="M549.856 13.9651C548.721 13.9651 547.725 13.7367 546.869 13.2801C546.023 12.8234 545.365 12.1695 544.894 11.3184C544.423 10.457 544.188 9.42943 544.188 8.23584C544.188 6.44026 544.675 5.03909 545.649 4.03232C546.623 3.01517 548.015 2.50659 549.824 2.50659C550.605 2.50659 551.29 2.58962 551.879 2.75569C552.478 2.91138 552.96 3.0982 553.324 3.31616V4.71733C552.842 4.41634 552.286 4.19319 551.654 4.04788C551.033 3.90258 550.418 3.82992 549.808 3.82992C548.459 3.82992 547.458 4.19838 546.805 4.93529C546.152 5.67221 545.825 6.77239 545.825 8.23584C545.825 9.70967 546.179 10.815 546.885 11.552C547.592 12.2785 548.625 12.6418 549.984 12.6418C550.573 12.6418 551.146 12.5639 551.702 12.4082C552.27 12.2525 552.81 11.9879 553.324 11.6142V13.0154C553.014 13.2541 552.559 13.4721 551.959 13.6693C551.371 13.8665 550.669 13.9651 549.856 13.9651Z" fill="black" fill-opacity="0.25" style="fill:black;fill-opacity:0.25;"/>
<path d="M533.384 13.8094H531.746V2.64673H533.256V11.8633L539.582 2.64673H541.22V13.8094H539.678V4.63951L533.384 13.8094Z" fill="black" fill-opacity="0.25" style="fill:black;fill-opacity:0.25;"/>
<path d="M519.582 5.76045V2.64673H521.108V5.76045C521.108 6.63229 521.327 7.30174 521.766 7.7688C522.215 8.23586 522.874 8.46939 523.741 8.46939C524.265 8.46939 524.769 8.4123 525.25 8.29813C525.732 8.17358 526.176 7.97119 526.583 7.69096V2.64673H528.109V13.8094H526.583V8.93645C526.144 9.2063 525.684 9.40351 525.202 9.52805C524.731 9.6526 524.239 9.71488 523.725 9.71488C522.408 9.71488 521.386 9.39312 520.658 8.74962C519.941 8.10612 519.582 7.10973 519.582 5.76045Z" fill="black" fill-opacity="0.25" style="fill:black;fill-opacity:0.25;"/>
<path d="M506.171 12.1124H505.512H505.496L505.512 12.0969L502.028 4.70178V13.8094H500.599V2.64673H502.702L506.283 10.4777L510.024 2.64673H511.983V13.8094H510.458V4.82633L506.925 12.0969L506.171 12.1124Z" fill="black" fill-opacity="0.25" style="fill:black;fill-opacity:0.25;"/>
<path d="M492.112 13.9651C491.085 13.9651 490.153 13.7419 489.318 13.2956C488.483 12.8493 487.82 12.2006 487.327 11.3496C486.845 10.4881 486.604 9.43462 486.604 8.18913C486.604 6.94364 486.845 5.90055 487.327 5.05984C487.82 4.20876 488.483 3.57045 489.318 3.1449C490.153 2.71936 491.085 2.50659 492.112 2.50659C493.161 2.50659 494.098 2.72455 494.922 3.16047C495.757 3.58602 496.416 4.21914 496.897 5.05984C497.379 5.90055 497.62 6.94883 497.62 8.2047C497.62 9.43981 497.379 10.4881 496.897 11.3496C496.416 12.2006 495.757 12.8493 494.922 13.2956C494.098 13.7419 493.161 13.9651 492.112 13.9651ZM492.112 12.6418C492.851 12.6418 493.515 12.4964 494.103 12.2058C494.692 11.9152 495.152 11.4482 495.484 10.8047C495.827 10.1508 495.998 9.2945 495.998 8.23584C495.998 7.16679 495.827 6.31052 495.484 5.66702C495.152 5.02352 494.692 4.55646 494.103 4.26584C493.515 3.97523 492.851 3.82992 492.112 3.82992C491.374 3.82992 490.71 3.97523 490.121 4.26584C489.543 4.55646 489.083 5.02352 488.74 5.66702C488.398 6.31052 488.226 7.16679 488.226 8.23584C488.226 9.2945 488.398 10.1508 488.74 10.8047C489.083 11.4482 489.543 11.9152 490.121 12.2058C490.71 12.4964 491.374 12.6418 492.112 12.6418Z" fill="black" fill-opacity="0.25" style="fill:black;fill-opacity:0.25;"/>
<path d="M476.431 4.0012V2.64673H485.053V4.0012H481.505V13.8094H479.979V4.0012H476.431Z" fill="black" fill-opacity="0.25" style="fill:black;fill-opacity:0.25;"/>
<path d="M461.807 2.64673H465.709C466.972 2.64673 467.93 2.85431 468.583 3.26947C469.247 3.68464 469.578 4.38522 469.578 5.37123C469.578 6.17042 469.37 6.7776 468.952 7.19276C468.535 7.59755 467.978 7.87259 467.282 8.0179C468.171 8.12169 468.845 8.37598 469.305 8.78076C469.766 9.17516 469.996 9.77715 469.996 10.5867C469.996 11.3548 469.809 11.9775 469.434 12.455C469.059 12.9324 468.545 13.2801 467.892 13.498C467.239 13.7056 466.501 13.8094 465.677 13.8094H461.807V2.64673ZM465.596 7.41072C466.324 7.41072 466.913 7.25504 467.363 6.94366C467.823 6.62191 468.053 6.12372 468.053 5.44908C468.053 4.87823 467.85 4.4942 467.443 4.297C467.036 4.08942 466.458 3.98563 465.709 3.98563H463.316V7.41072H465.596ZM465.677 12.4861C466.49 12.4861 467.148 12.3512 467.652 12.0813C468.155 11.8114 468.406 11.3236 468.406 10.6179C468.406 9.91208 468.171 9.42426 467.7 9.15441C467.239 8.87417 466.506 8.73405 465.5 8.73405H463.316V12.4861H465.677Z" fill="black" fill-opacity="0.25" style="fill:black;fill-opacity:0.25;"/>
<path d="M453.402 15.4753H452.342C452.545 15.2573 452.727 14.9823 452.888 14.6501C453.059 14.318 453.161 14.0534 453.193 13.8561C452.968 13.8043 452.786 13.6953 452.647 13.5292C452.508 13.3631 452.438 13.1659 452.438 12.9376C452.438 12.6677 452.524 12.4446 452.695 12.2682C452.877 12.0813 453.118 11.9879 453.418 11.9879C453.717 11.9879 453.958 12.0865 454.14 12.2837C454.333 12.4809 454.429 12.7456 454.429 13.0777C454.429 13.3683 454.376 13.6693 454.269 13.9807C454.162 14.2921 454.028 14.5775 453.867 14.837C453.717 15.1068 453.562 15.3196 453.402 15.4753Z" fill="black" fill-opacity="0.25" style="fill:black;fill-opacity:0.25;"/>
<path d="M449.171 2.64673V13.8094H447.646V9.34123H445.558L442.379 13.8094H440.532L444.017 9.07656C443.171 8.90012 442.523 8.55761 442.074 8.04904C441.624 7.54046 441.399 6.85025 441.399 5.97841C441.399 5.1896 441.576 4.55129 441.929 4.06347C442.282 3.57565 442.775 3.21758 443.407 2.98924C444.038 2.7609 444.766 2.64673 445.59 2.64673H449.171ZM445.43 8.0179H447.646V3.98563H445.59C444.83 3.98563 444.204 4.13612 443.712 4.43712C443.23 4.72773 442.989 5.2415 442.989 5.97841C442.989 6.67381 443.198 7.18757 443.615 7.5197C444.043 7.85183 444.648 8.0179 445.43 8.0179Z" fill="black" fill-opacity="0.25" style="fill:black;fill-opacity:0.25;"/>
<path d="M430.001 13.8094H428.363V2.64673H429.873V11.8633L436.199 2.64673H437.837V13.8094H436.296V4.63951L430.001 13.8094Z" fill="black" fill-opacity="0.25" style="fill:black;fill-opacity:0.25;"/>
<path d="M417.05 2.64673H420.952C422.215 2.64673 423.173 2.85431 423.826 3.26947C424.49 3.68464 424.822 4.38522 424.822 5.37123C424.822 6.17042 424.613 6.7776 424.195 7.19276C423.778 7.59755 423.221 7.87259 422.525 8.0179C423.414 8.12169 424.088 8.37598 424.549 8.78076C425.009 9.17516 425.239 9.77715 425.239 10.5867C425.239 11.3548 425.052 11.9775 424.677 12.455C424.302 12.9324 423.789 13.2801 423.136 13.498C422.483 13.7056 421.744 13.8094 420.92 13.8094H417.05V2.64673ZM420.839 7.41072C421.567 7.41072 422.156 7.25504 422.606 6.94366C423.066 6.62191 423.296 6.12372 423.296 5.44908C423.296 4.87823 423.093 4.4942 422.686 4.297C422.279 4.08942 421.701 3.98563 420.952 3.98563H418.559V7.41072H420.839ZM420.92 12.4861C421.733 12.4861 422.392 12.3512 422.895 12.0813C423.398 11.8114 423.649 11.3236 423.649 10.6179C423.649 9.91208 423.414 9.42426 422.943 9.15441C422.483 8.87417 421.749 8.73405 420.743 8.73405H418.559V12.4861H420.92Z" fill="black" fill-opacity="0.25" style="fill:black;fill-opacity:0.25;"/>
<path d="M405.639 4.0012V2.64673H414.261V4.0012H410.713V13.8094H409.187V4.0012H405.639Z" fill="black" fill-opacity="0.25" style="fill:black;fill-opacity:0.25;"/>
<path d="M399.764 13.9651C398.629 13.9651 397.634 13.7367 396.777 13.2801C395.932 12.8234 395.273 12.1695 394.802 11.3184C394.331 10.457 394.096 9.42943 394.096 8.23584C394.096 6.44026 394.583 5.03909 395.557 4.03232C396.531 3.01517 397.923 2.50659 399.732 2.50659C400.513 2.50659 401.198 2.58962 401.787 2.75569C402.387 2.91138 402.868 3.0982 403.232 3.31616V4.71733C402.751 4.41634 402.194 4.19319 401.562 4.04788C400.942 3.90258 400.326 3.82992 399.716 3.82992C398.367 3.82992 397.366 4.19838 396.713 4.93529C396.06 5.67221 395.734 6.77239 395.734 8.23584C395.734 9.70967 396.087 10.815 396.793 11.552C397.5 12.2785 398.533 12.6418 399.892 12.6418C400.481 12.6418 401.054 12.5639 401.611 12.4082C402.178 12.2525 402.719 11.9879 403.232 11.6142V13.0154C402.922 13.2541 402.467 13.4721 401.868 13.6693C401.279 13.8665 400.578 13.9651 399.764 13.9651Z" fill="black" fill-opacity="0.25" style="fill:black;fill-opacity:0.25;"/>
<path d="M382.13 16.4561H380.765V12.4861H381.551C382.044 12.0502 382.408 11.417 382.643 10.5867C382.879 9.75639 383.039 8.69254 383.125 7.39515C383.211 6.08739 383.275 4.50458 383.318 2.64673H390.656V12.4861H392.133V16.4561H390.736L390.576 13.8094H382.306L382.13 16.4561ZM383.302 12.4861H389.131V3.98563H384.731C384.699 5.56325 384.629 6.90215 384.522 8.00233C384.426 9.10251 384.276 10.0159 384.073 10.7424C383.88 11.4586 383.623 12.0398 383.302 12.4861Z" fill="black" fill-opacity="0.25" style="fill:black;fill-opacity:0.25;"/>
<path d="M371.312 2.64673H378.442V3.98563H372.822V7.36402H377.591V8.68735H372.822V12.4861H378.522V13.8094H371.312V2.64673Z" fill="black" fill-opacity="0.25" style="fill:black;fill-opacity:0.25;"/>
<path d="M358.407 12.3927C358.932 12.4446 359.317 12.2837 359.563 11.9101C359.82 11.5364 360.013 11.0434 360.141 10.431C360.302 9.6526 360.409 8.61469 360.463 7.31731C360.516 6.01993 360.554 4.46307 360.575 2.64673H367.672V13.8094H366.147V3.98563H362.004C361.972 5.49059 361.929 6.80355 361.876 7.92449C361.822 9.03505 361.72 9.97435 361.571 10.7424C361.442 11.3236 361.26 11.8582 361.025 12.346C360.789 12.8338 360.463 13.2178 360.045 13.498C359.628 13.7783 359.082 13.9028 358.407 13.8717V12.3927Z" fill="black" fill-opacity="0.25" style="fill:black;fill-opacity:0.25;"/>
<path d="M352.692 13.9651C351.557 13.9651 350.561 13.7367 349.705 13.2801C348.859 12.8234 348.201 12.1695 347.73 11.3184C347.259 10.457 347.023 9.42943 347.023 8.23584C347.023 6.44026 347.511 5.03909 348.485 4.03232C349.459 3.01517 350.85 2.50659 352.66 2.50659C353.441 2.50659 354.126 2.58962 354.715 2.75569C355.314 2.91138 355.796 3.0982 356.16 3.31616V4.71733C355.678 4.41634 355.122 4.19319 354.49 4.04788C353.869 3.90258 353.254 3.82992 352.644 3.82992C351.295 3.82992 350.294 4.19838 349.641 4.93529C348.988 5.67221 348.661 6.77239 348.661 8.23584C348.661 9.70967 349.015 10.815 349.721 11.552C350.428 12.2785 351.461 12.6418 352.82 12.6418C353.409 12.6418 353.982 12.5639 354.538 12.4082C355.106 12.2525 355.646 11.9879 356.16 11.6142V13.0154C355.85 13.2541 355.395 13.4721 354.795 13.6693C354.206 13.8665 353.505 13.9651 352.692 13.9651Z" fill="black" fill-opacity="0.25" style="fill:black;fill-opacity:0.25;"/>
<path d="M339.212 13.9651C338.184 13.9651 337.253 13.7419 336.418 13.2956C335.583 12.8493 334.919 12.2006 334.427 11.3496C333.945 10.4881 333.704 9.43462 333.704 8.18913C333.704 6.94364 333.945 5.90055 334.427 5.05984C334.919 4.20876 335.583 3.57045 336.418 3.1449C337.253 2.71936 338.184 2.50659 339.212 2.50659C340.261 2.50659 341.198 2.72455 342.022 3.16047C342.857 3.58602 343.515 4.21914 343.997 5.05984C344.479 5.90055 344.72 6.94883 344.72 8.2047C344.72 9.43981 344.479 10.4881 343.997 11.3496C343.515 12.2006 342.857 12.8493 342.022 13.2956C341.198 13.7419 340.261 13.9651 339.212 13.9651ZM339.212 12.6418C339.95 12.6418 340.614 12.4964 341.203 12.2058C341.792 11.9152 342.252 11.4482 342.584 10.8047C342.926 10.1508 343.098 9.2945 343.098 8.23584C343.098 7.16679 342.926 6.31052 342.584 5.66702C342.252 5.02352 341.792 4.55646 341.203 4.26584C340.614 3.97523 339.95 3.82992 339.212 3.82992C338.473 3.82992 337.809 3.97523 337.221 4.26584C336.643 4.55646 336.182 5.02352 335.84 5.66702C335.497 6.31052 335.326 7.16679 335.326 8.23584C335.326 9.2945 335.497 10.1508 335.84 10.8047C336.182 11.4482 336.643 11.9152 337.221 12.2058C337.809 12.4964 338.473 12.6418 339.212 12.6418Z" fill="black" fill-opacity="0.25" style="fill:black;fill-opacity:0.25;"/>
<path d="M322.077 2.64673H330.732V13.8094H329.207V3.98563H323.587V13.8094H322.077V2.64673Z" fill="black" fill-opacity="0.25" style="fill:black;fill-opacity:0.25;"/>
<path d="M307.339 2.64673H314.468V3.98563H308.848V7.36402H313.617V8.68735H308.848V12.4861H314.549V13.8094H307.339V2.64673Z" fill="black" fill-opacity="0.25" style="fill:black;fill-opacity:0.25;"/>
<path d="M292.874 13.8094V2.64673H294.383V6.9748H296.664C297.937 6.9748 298.917 7.23428 299.602 7.75323C300.287 8.27219 300.63 9.11289 300.63 10.2753C300.63 11.1264 300.453 11.8114 300.1 12.3304C299.747 12.8494 299.254 13.2282 298.623 13.4669C297.991 13.6953 297.263 13.8094 296.439 13.8094H292.874ZM302.171 2.6623H303.697V13.8094H302.171V2.6623ZM296.439 12.4861C297.199 12.4861 297.82 12.3304 298.301 12.019C298.794 11.7077 299.04 11.1472 299.04 10.3376C299.04 9.64222 298.831 9.12846 298.414 8.79633C297.996 8.45382 297.397 8.28256 296.615 8.28256H294.383V12.4861H296.439Z" fill="black" fill-opacity="0.25" style="fill:black;fill-opacity:0.25;"/>
<path d="M280.291 2.64673H281.8V7.61311H287.71V2.64673H289.235V13.8094H287.71V8.93645H281.8V13.8094H280.291V2.64673Z" fill="black" fill-opacity="0.25" style="fill:black;fill-opacity:0.25;"/>
<path d="M268.994 2.64673H272.896C274.159 2.64673 275.117 2.85431 275.77 3.26947C276.434 3.68464 276.766 4.38522 276.766 5.37123C276.766 6.17042 276.557 6.7776 276.14 7.19276C275.722 7.59755 275.166 7.87259 274.47 8.0179C275.358 8.12169 276.033 8.37598 276.493 8.78076C276.953 9.17516 277.183 9.77715 277.183 10.5867C277.183 11.3548 276.996 11.9775 276.621 12.455C276.247 12.9324 275.733 13.2801 275.08 13.498C274.427 13.7056 273.688 13.8094 272.864 13.8094H268.994V2.64673ZM272.784 7.41072C273.512 7.41072 274.1 7.25504 274.55 6.94366C275.01 6.62191 275.24 6.12372 275.24 5.44908C275.24 4.87823 275.037 4.4942 274.63 4.297C274.224 4.08942 273.645 3.98563 272.896 3.98563H270.504V7.41072H272.784ZM272.864 12.4861C273.678 12.4861 274.336 12.3512 274.839 12.0813C275.342 11.8114 275.594 11.3236 275.594 10.6179C275.594 9.91208 275.358 9.42426 274.887 9.15441C274.427 8.87417 273.694 8.73405 272.687 8.73405H270.504V12.4861H272.864Z" fill="black" fill-opacity="0.25" style="fill:black;fill-opacity:0.25;"/>
<path d="M257.515 13.8094H255.877V2.64673H257.386V11.8633L263.713 2.64673H265.351V13.8094H263.809V4.63951L257.515 13.8094Z" fill="black" fill-opacity="0.25" style="fill:black;fill-opacity:0.25;"/>
<path d="M244.466 4.0012V2.64673H253.089V4.0012H249.54V13.8094H248.015V4.0012H244.466Z" fill="black" fill-opacity="0.25" style="fill:black;fill-opacity:0.25;"/>
<path d="M243.823 13.8094H242.217L241.029 10.6179H235.939L234.767 13.8094H233.354L237.448 2.64673H239.696L243.823 13.8094ZM236.437 9.29452H240.547L238.492 3.73653L236.437 9.29452Z" fill="black" fill-opacity="0.25" style="fill:black;fill-opacity:0.25;"/>
<path d="M225.812 2.64673H232.525V3.98563H227.322V13.8094H225.812V2.64673Z" fill="black" fill-opacity="0.25" style="fill:black;fill-opacity:0.25;"/>
<path d="M215.252 2.64673H222.381V3.98563H216.761V7.36402H221.53V8.68735H216.761V12.4861H222.462V13.8094H215.252V2.64673Z" fill="black" fill-opacity="0.25" style="fill:black;fill-opacity:0.25;"/>
<path d="M202.668 2.64673H204.177V7.61311H210.087V2.64673H211.612V13.8094H210.087V8.93645H204.177V13.8094H202.668V2.64673Z" fill="black" fill-opacity="0.25" style="fill:black;fill-opacity:0.25;"/>
<path d="M187.094 4.0012V2.64673H195.717V4.0012H192.168V13.8094H190.642V4.0012H187.094Z" fill="black" fill-opacity="0.25" style="fill:black;fill-opacity:0.25;"/>
<path d="M182.554 1.79039C182.286 1.79039 182.067 1.70736 181.895 1.54129C181.735 1.36485 181.654 1.14689 181.654 0.88741C181.654 0.638313 181.735 0.430731 181.895 0.264666C182.067 0.0882219 182.286 0 182.554 0C182.832 0 183.051 0.0882219 183.212 0.264666C183.373 0.430731 183.453 0.638313 183.453 0.88741C183.453 1.14689 183.373 1.36485 183.212 1.54129C183.051 1.70736 182.832 1.79039 182.554 1.79039ZM179.519 1.79039C179.24 1.79039 179.021 1.70736 178.86 1.54129C178.7 1.36485 178.62 1.14689 178.62 0.88741C178.62 0.638313 178.7 0.430731 178.86 0.264666C179.021 0.0882219 179.24 0 179.519 0C179.797 0 180.017 0.0882219 180.177 0.264666C180.338 0.430731 180.418 0.638313 180.418 0.88741C180.418 1.14689 180.338 1.36485 180.177 1.54129C180.017 1.70736 179.797 1.79039 179.519 1.79039ZM177.479 2.64666H184.609V3.98556H178.989V7.36395H183.758V8.68728H178.989V12.486H184.689V13.8094H177.479V2.64666Z" fill="black" fill-opacity="0.25" style="fill:black;fill-opacity:0.25;"/>
<path d="M165.314 5.76045V2.64673H166.84V5.76045C166.84 6.63229 167.059 7.30174 167.498 7.7688C167.948 8.23586 168.606 8.46939 169.473 8.46939C169.998 8.46939 170.501 8.4123 170.983 8.29813C171.464 8.17358 171.909 7.97119 172.316 7.69096V2.64673H173.841V13.8094H172.316V8.93645C171.877 9.2063 171.416 9.40351 170.935 9.52805C170.464 9.6526 169.971 9.71488 169.457 9.71488C168.141 9.71488 167.118 9.39312 166.39 8.74962C165.673 8.10612 165.314 7.10973 165.314 5.76045Z" fill="black" fill-opacity="0.25" style="fill:black;fill-opacity:0.25;"/>
<path d="M154.979 2.64673H162.109V3.98563H156.489V7.36402H161.258V8.68735H156.489V12.4861H162.189V13.8094H154.979V2.64673Z" fill="black" fill-opacity="0.25" style="fill:black;fill-opacity:0.25;"/>
<path d="M142.073 12.3927C142.598 12.4446 142.983 12.2837 143.229 11.9101C143.486 11.5364 143.679 11.0434 143.807 10.431C143.968 9.6526 144.075 8.61469 144.129 7.31731C144.182 6.01993 144.22 4.46307 144.241 2.64673H151.338V13.8094H149.813V3.98563H145.67C145.638 5.49059 145.595 6.80355 145.542 7.92449C145.488 9.03505 145.386 9.97435 145.237 10.7424C145.108 11.3236 144.926 11.8582 144.691 12.346C144.455 12.8338 144.129 13.2178 143.711 13.498C143.294 13.7783 142.748 13.9028 142.073 13.8717V12.3927Z" fill="black" fill-opacity="0.25" style="fill:black;fill-opacity:0.25;"/>
<path d="M131.788 2.64673H135.69C136.953 2.64673 137.911 2.85431 138.564 3.26947C139.228 3.68464 139.56 4.38522 139.56 5.37123C139.56 6.17042 139.351 6.7776 138.934 7.19276C138.516 7.59755 137.96 7.87259 137.264 8.0179C138.152 8.12169 138.827 8.37598 139.287 8.78076C139.747 9.17516 139.977 9.77715 139.977 10.5867C139.977 11.3548 139.79 11.9775 139.415 12.455C139.041 12.9324 138.527 13.2801 137.874 13.498C137.221 13.7056 136.482 13.8094 135.658 13.8094H131.788V2.64673ZM135.578 7.41072C136.306 7.41072 136.894 7.25504 137.344 6.94366C137.804 6.62191 138.034 6.12372 138.034 5.44908C138.034 4.87823 137.831 4.4942 137.424 4.297C137.017 4.08942 136.439 3.98563 135.69 3.98563H133.297V7.41072H135.578ZM135.658 12.4861C136.472 12.4861 137.13 12.3512 137.633 12.0813C138.136 11.8114 138.388 11.3236 138.388 10.6179C138.388 9.91208 138.152 9.42426 137.681 9.15441C137.221 8.87417 136.488 8.73405 135.481 8.73405H133.297V12.4861H135.658Z" fill="black" fill-opacity="0.25" style="fill:black;fill-opacity:0.25;"/>
<path d="M119.124 13.9651C118.096 13.9651 117.165 13.7419 116.33 13.2956C115.495 12.8493 114.831 12.2006 114.339 11.3496C113.857 10.4881 113.616 9.43462 113.616 8.18913C113.616 6.94364 113.857 5.90055 114.339 5.05984C114.831 4.20876 115.495 3.57045 116.33 3.1449C117.165 2.71936 118.096 2.50659 119.124 2.50659C120.173 2.50659 121.11 2.72455 121.934 3.16047C122.769 3.58602 123.427 4.21914 123.909 5.05984C124.391 5.90055 124.632 6.94883 124.632 8.2047C124.632 9.43981 124.391 10.4881 123.909 11.3496C123.427 12.2006 122.769 12.8493 121.934 13.2956C121.11 13.7419 120.173 13.9651 119.124 13.9651ZM119.124 12.6418C119.863 12.6418 120.526 12.4964 121.115 12.2058C121.704 11.9152 122.164 11.4482 122.496 10.8047C122.839 10.1508 123.01 9.2945 123.01 8.23584C123.01 7.16679 122.839 6.31052 122.496 5.66702C122.164 5.02352 121.704 4.55646 121.115 4.26584C120.526 3.97523 119.863 3.82992 119.124 3.82992C118.385 3.82992 117.722 3.97523 117.133 4.26584C116.555 4.55646 116.094 5.02352 115.752 5.66702C115.409 6.31052 115.238 7.16679 115.238 8.23584C115.238 9.2945 115.409 10.1508 115.752 10.8047C116.094 11.4482 116.555 11.9152 117.133 12.2058C117.722 12.4964 118.385 12.6418 119.124 12.6418Z" fill="black" fill-opacity="0.25" style="fill:black;fill-opacity:0.25;"/>
<path d="M103.056 2.64673H106.958C108.221 2.64673 109.179 2.85431 109.832 3.26947C110.496 3.68464 110.827 4.38522 110.827 5.37123C110.827 6.17042 110.619 6.7776 110.201 7.19276C109.784 7.59755 109.227 7.87259 108.531 8.0179C109.42 8.12169 110.094 8.37598 110.554 8.78076C111.015 9.17516 111.245 9.77715 111.245 10.5867C111.245 11.3548 111.058 11.9775 110.683 12.455C110.308 12.9324 109.794 13.2801 109.141 13.498C108.488 13.7056 107.75 13.8094 106.926 13.8094H103.056V2.64673ZM106.845 7.41072C107.573 7.41072 108.162 7.25504 108.612 6.94366C109.072 6.62191 109.302 6.12372 109.302 5.44908C109.302 4.87823 109.099 4.4942 108.692 4.297C108.285 4.08942 107.707 3.98563 106.958 3.98563H104.565V7.41072H106.845ZM106.926 12.4861C107.739 12.4861 108.397 12.3512 108.901 12.0813C109.404 11.8114 109.655 11.3236 109.655 10.6179C109.655 9.91208 109.42 9.42426 108.949 9.15441C108.488 8.87417 107.755 8.73405 106.749 8.73405H104.565V12.4861H106.926Z" fill="black" fill-opacity="0.25" style="fill:black;fill-opacity:0.25;"/>
<path d="M91.6445 4.0012V2.64673H100.267V4.0012H96.7187V13.8094H95.1932V4.0012H91.6445Z" fill="black" fill-opacity="0.25" style="fill:black;fill-opacity:0.25;"/>
<path d="M85.7679 13.9651C84.6332 13.9651 83.6376 13.7367 82.7812 13.2801C81.9355 12.8234 81.2772 12.1695 80.8061 11.3184C80.3351 10.457 80.0996 9.42943 80.0996 8.23584C80.0996 6.44026 80.5867 5.03909 81.5608 4.03232C82.535 3.01517 83.9266 2.50659 85.7358 2.50659C86.5172 2.50659 87.2024 2.58962 87.7911 2.75569C88.3906 2.91138 88.8723 3.0982 89.2363 3.31616V4.71733C88.7546 4.41634 88.1979 4.19319 87.5663 4.04788C86.9454 3.90258 86.3299 3.82992 85.7197 3.82992C84.3709 3.82992 83.37 4.19838 82.717 4.93529C82.064 5.67221 81.7375 6.77239 81.7375 8.23584C81.7375 9.70967 82.0907 10.815 82.7973 11.552C83.5038 12.2785 84.5368 12.6418 85.8963 12.6418C86.4851 12.6418 87.0578 12.5639 87.6145 12.4082C88.1819 12.2525 88.7225 11.9879 89.2363 11.6142V13.0154C88.9259 13.2541 88.4709 13.4721 87.8714 13.6693C87.2826 13.8665 86.5815 13.9651 85.7679 13.9651Z" fill="black" fill-opacity="0.25" style="fill:black;fill-opacity:0.25;"/>
<path d="M69.9277 4.0012V2.64673H78.5506V4.0012H75.0019V13.8094H73.4764V4.0012H69.9277Z" fill="black" fill-opacity="0.25" style="fill:black;fill-opacity:0.25;"/>
<path d="M62.8729 13.9651C61.8453 13.9651 60.9139 13.7419 60.0789 13.2956C59.244 12.8493 58.5802 12.2006 58.0878 11.3496C57.6061 10.4881 57.3652 9.43462 57.3652 8.18913C57.3652 6.94364 57.6061 5.90055 58.0878 5.05984C58.5802 4.20876 59.244 3.57045 60.0789 3.1449C60.9139 2.71936 61.8453 2.50659 62.8729 2.50659C63.922 2.50659 64.8587 2.72455 65.683 3.16047C66.518 3.58602 67.1763 4.21914 67.6581 5.05984C68.1398 5.90055 68.3806 6.94883 68.3806 8.2047C68.3806 9.43981 68.1398 10.4881 67.6581 11.3496C67.1763 12.2006 66.518 12.8493 65.683 13.2956C64.8587 13.7419 63.922 13.9651 62.8729 13.9651ZM62.8729 12.6418C63.6116 12.6418 64.2753 12.4964 64.8641 12.2058C65.4528 11.9152 65.9131 11.4482 66.245 10.8047C66.5876 10.1508 66.7588 9.2945 66.7588 8.23584C66.7588 7.16679 66.5876 6.31052 66.245 5.66702C65.9131 5.02352 65.4528 4.55646 64.8641 4.26584C64.2753 3.97523 63.6116 3.82992 62.8729 3.82992C62.1343 3.82992 61.4706 3.97523 60.8818 4.26584C60.3037 4.55646 59.8434 5.02352 59.5009 5.66702C59.1583 6.31052 58.987 7.16679 58.987 8.23584C58.987 9.2945 59.1583 10.1508 59.5009 10.8047C59.8434 11.4482 60.3037 11.9152 60.8818 12.2058C61.4706 12.4964 62.1343 12.6418 62.8729 12.6418Z" fill="black" fill-opacity="0.25" style="fill:black;fill-opacity:0.25;"/>
<path d="M47.2754 2.64673H50.9525C52.2585 2.64673 53.2702 2.91139 53.9874 3.44073C54.7153 3.95968 55.0793 4.77444 55.0793 5.885C55.0793 6.7257 54.8973 7.41072 54.5334 7.94006C54.1801 8.46939 53.6823 8.8586 53.04 9.1077C52.4084 9.34642 51.6698 9.46578 50.8241 9.46578H48.7848V13.8094H47.2754V2.64673ZM50.8241 8.14245C51.6377 8.14245 52.296 7.97119 52.7991 7.62868C53.3023 7.28617 53.5539 6.71014 53.5539 5.90057C53.5539 5.22593 53.329 4.73811 52.8794 4.43712C52.4298 4.13612 51.7875 3.98563 50.9525 3.98563H48.7848V8.14245H50.8241Z" fill="black" fill-opacity="0.25" style="fill:black;fill-opacity:0.25;"/>
<path d="M44.6473 13.8094H42.7685L38.7542 9.02986H37.5338V13.8094H36.0244V2.64673H37.5338V7.70653H38.6578L42.7685 2.64673H44.4706L39.9264 8.22029L44.6473 13.8094Z" fill="black" fill-opacity="0.25" style="fill:black;fill-opacity:0.25;"/>
<path d="M23.4414 2.64673H24.9508V7.61311H30.8599V2.64673H32.3854V13.8094H30.8599V8.93645H24.9508V13.8094H23.4414V2.64673Z" fill="black" fill-opacity="0.25" style="fill:black;fill-opacity:0.25;"/>
<path d="M20.8181 13.8094H19.2123L18.0241 10.6179H12.9339L11.7617 13.8094H10.3486L14.4433 2.64673H16.6913L20.8181 13.8094ZM13.4317 9.29452H17.5424L15.487 3.73653L13.4317 9.29452Z" fill="black" fill-opacity="0.25" style="fill:black;fill-opacity:0.25;"/>
<path d="M0.674805 13.8094V2.64673H7.69191V3.98563H2.1842V7.13049H4.46436C5.73825 7.13049 6.71776 7.38477 7.40287 7.89335C8.08799 8.40192 8.43055 9.22187 8.43055 10.3532C8.43055 11.1835 8.25392 11.853 7.90066 12.3615C7.54739 12.8701 7.05496 13.2386 6.42337 13.4669C5.79178 13.6953 5.06384 13.8094 4.23956 13.8094H0.674805ZM4.23956 12.4861C4.99961 12.4861 5.6205 12.3356 6.10222 12.0346C6.59465 11.7336 6.84086 11.1939 6.84086 10.4155C6.84086 9.7512 6.63212 9.2582 6.21462 8.93645C5.79713 8.61469 5.19765 8.45382 4.41619 8.45382H2.1842V12.4861H4.23956Z" fill="black" fill-opacity="0.25" style="fill:black;fill-opacity:0.25;"/>
</svg>
