<svg width="266" height="77" viewBox="0 0 266 77" fill="none" xmlns="http://www.w3.org/2000/svg">
<path d="M257.196 74.9779V66.4497H258.321V73.9669H262.511V66.4497H263.648V73.9669H264.773V77H263.72L263.588 74.9779H257.196Z" fill="black" fill-opacity="0.25" style="fill:black;fill-opacity:0.25;"/>
<path d="M248.072 70.7079C248.072 71.2789 248.187 71.7348 248.419 72.0758C248.65 72.4168 248.965 72.6665 249.364 72.8251C249.771 72.9758 250.222 73.063 250.717 73.0868V68.341C250.222 68.3648 249.771 68.4559 249.364 68.6145C248.965 68.7652 248.65 69.011 248.419 69.352C248.187 69.685 248.072 70.137 248.072 70.7079ZM254.499 70.7317C254.499 70.1529 254.384 69.6969 254.152 69.3639C253.921 69.0229 253.606 68.7731 253.207 68.6145C252.808 68.4559 252.357 68.3687 251.854 68.3529V73.0987C252.357 73.0749 252.808 72.9877 253.207 72.837C253.606 72.6784 253.921 72.4326 254.152 72.0996C254.384 71.7586 254.499 71.3027 254.499 70.7317ZM250.717 66.3546H251.854V67.4489C252.58 67.4647 253.231 67.5956 253.805 67.8414C254.388 68.0872 254.847 68.448 255.182 68.9238C255.517 69.3916 255.684 69.9824 255.684 70.696C255.684 71.4018 255.517 71.9965 255.182 72.4802C254.847 72.956 254.388 73.3207 253.805 73.5745C253.231 73.8203 252.58 73.9551 251.854 73.9789V75.0969H250.717V73.9789C249.991 73.963 249.337 73.8361 248.754 73.5983C248.179 73.3524 247.725 72.9916 247.389 72.5159C247.054 72.0401 246.887 71.4493 246.887 70.7436C246.887 70.03 247.054 69.4352 247.389 68.9595C247.725 68.4758 248.179 68.111 248.754 67.8652C249.337 67.6114 249.991 67.4727 250.717 67.4489V66.3546Z" fill="black" fill-opacity="0.25" style="fill:black;fill-opacity:0.25;"/>
<path d="M241.058 73.6815H240.567H240.555L240.567 73.6696L237.97 68.0198V74.9779H236.904V66.4497H238.472L241.142 72.4326L243.931 66.4497H245.391V74.9779H244.254V68.1149L241.62 73.6696L241.058 73.6815Z" fill="black" fill-opacity="0.25" style="fill:black;fill-opacity:0.25;"/>
<path d="M226.793 66.4497H229.702C230.643 66.4497 231.357 66.6083 231.844 66.9255C232.339 67.2427 232.586 67.7779 232.586 68.5312C232.586 69.1418 232.431 69.6057 232.119 69.9229C231.808 70.2321 231.393 70.4422 230.875 70.5533C231.537 70.6326 232.04 70.8268 232.383 71.1361C232.726 71.4374 232.898 71.8973 232.898 72.5158C232.898 73.1026 232.758 73.5784 232.479 73.9431C232.199 74.3079 231.816 74.5735 231.329 74.7401C230.843 74.8987 230.292 74.9779 229.678 74.9779H226.793V66.4497ZM229.618 70.0894C230.16 70.0894 230.599 69.9704 230.934 69.7325C231.278 69.4867 231.449 69.1061 231.449 68.5907C231.449 68.1546 231.298 67.8612 230.994 67.7105C230.691 67.5519 230.26 67.4726 229.702 67.4726H227.918V70.0894H229.618ZM229.678 73.9669C230.284 73.9669 230.775 73.8638 231.15 73.6577C231.525 73.4515 231.713 73.0788 231.713 72.5396C231.713 72.0004 231.537 71.6277 231.186 71.4215C230.843 71.2074 230.296 71.1004 229.546 71.1004H227.918V73.9669H229.678Z" fill="black" fill-opacity="0.25" style="fill:black;fill-opacity:0.25;"/>
<path d="M216.559 74.9779H215.338V66.4497H216.463V73.4912L221.179 66.4497H222.4V74.9779H221.251V67.9722L216.559 74.9779Z" fill="black" fill-opacity="0.25" style="fill:black;fill-opacity:0.25;"/>
<path d="M206.024 73.8599C206.519 73.9075 206.906 73.8361 207.185 73.6458C207.464 73.4475 207.696 73.1898 207.879 72.8727L204.695 66.4497H205.976L208.454 71.5881L210.596 66.4497H211.757L209.04 72.6704C208.817 73.1938 208.574 73.6339 208.31 73.9907C208.047 74.3475 207.732 74.6092 207.365 74.7757C207.005 74.9423 206.559 75.0097 206.024 74.9779V73.8599Z" fill="black" fill-opacity="0.25" style="fill:black;fill-opacity:0.25;"/>
<path d="M198.084 66.4497H200.825C201.799 66.4497 202.553 66.6519 203.087 67.0563C203.63 67.4528 203.901 68.0753 203.901 68.9237C203.901 69.566 203.766 70.0894 203.494 70.4938C203.231 70.8982 202.86 71.1956 202.381 71.3859C201.91 71.5682 201.36 71.6594 200.729 71.6594H199.209V74.9779H198.084V66.4497ZM200.729 70.6484C201.336 70.6484 201.827 70.5176 202.202 70.2559C202.577 69.9942 202.764 69.5541 202.764 68.9356C202.764 68.4202 202.597 68.0475 202.261 67.8176C201.926 67.5876 201.447 67.4726 200.825 67.4726H199.209V70.6484H200.729Z" fill="black" fill-opacity="0.25" style="fill:black;fill-opacity:0.25;"/>
<path d="M192.477 75.0969C191.711 75.0969 191.016 74.9264 190.394 74.5854C189.772 74.2444 189.277 73.7489 188.91 73.0986C188.551 72.4405 188.371 71.6356 188.371 70.6841C188.371 69.7325 188.551 68.9356 188.91 68.2933C189.277 67.6431 189.772 67.1554 190.394 66.8303C191.016 66.5052 191.711 66.3427 192.477 66.3427C193.259 66.3427 193.957 66.5092 194.571 66.8422C195.194 67.1673 195.685 67.651 196.044 68.2933C196.403 68.9356 196.582 69.7365 196.582 70.696C196.582 71.6396 196.403 72.4405 196.044 73.0986C195.685 73.7489 195.194 74.2444 194.571 74.5854C193.957 74.9264 193.259 75.0969 192.477 75.0969ZM192.477 74.0859C193.027 74.0859 193.522 73.9748 193.961 73.7528C194.4 73.5308 194.743 73.174 194.99 72.6823C195.246 72.1828 195.373 71.5286 195.373 70.7198C195.373 69.903 195.246 69.2488 194.99 68.7572C194.743 68.2656 194.4 67.9087 193.961 67.6867C193.522 67.4647 193.027 67.3537 192.477 67.3537C191.926 67.3537 191.431 67.4647 190.992 67.6867C190.562 67.9087 190.218 68.2656 189.963 68.7572C189.708 69.2488 189.58 69.903 189.58 70.7198C189.58 71.5286 189.708 72.1828 189.963 72.6823C190.218 73.174 190.562 73.5308 190.992 73.7528C191.431 73.9748 191.926 74.0859 192.477 74.0859Z" fill="black" fill-opacity="0.25" style="fill:black;fill-opacity:0.25;"/>
<path d="M181.506 67.4845V66.4497H187.934V67.4845H185.288V74.9779H184.151V67.4845H181.506Z" fill="black" fill-opacity="0.25" style="fill:black;fill-opacity:0.25;"/>
<path d="M174.314 74.9779H173.093V66.4497H174.218V73.4912L178.934 66.4497H180.155V74.9779H179.006V67.9722L174.314 74.9779Z" fill="black" fill-opacity="0.25" style="fill:black;fill-opacity:0.25;"/>
<path d="M164.155 77H163.138V73.9669H163.724C164.091 73.6339 164.363 73.1502 164.538 72.5158C164.714 71.8815 164.833 71.0687 164.897 70.0775C164.961 69.0784 165.009 67.8691 165.041 66.4497H170.511V73.9669H171.612V77H170.571L170.451 74.9779H164.287L164.155 77ZM165.029 73.9669H169.374V67.4726H166.094C166.07 68.6779 166.018 69.7008 165.939 70.5414C165.867 71.3819 165.755 72.0797 165.603 72.6348C165.46 73.1819 165.268 73.626 165.029 73.9669Z" fill="black" fill-opacity="0.25" style="fill:black;fill-opacity:0.25;"/>
<path d="M156.811 66.4497H162.125V67.4726H157.936V70.0537H161.491V71.0647H157.936V73.9669H162.185V74.9779H156.811V66.4497Z" fill="black" fill-opacity="0.25" style="fill:black;fill-opacity:0.25;"/>
<path d="M149.504 66.4497H152.245C153.219 66.4497 153.973 66.6519 154.507 67.0563C155.05 67.4528 155.321 68.0753 155.321 68.9237C155.321 69.566 155.186 70.0894 154.914 70.4938C154.651 70.8982 154.28 71.1956 153.801 71.3859C153.33 71.5682 152.78 71.6594 152.149 71.6594H150.629V74.9779H149.504V66.4497ZM152.149 70.6484C152.756 70.6484 153.246 70.5176 153.621 70.2559C153.997 69.9942 154.184 69.5541 154.184 68.9356C154.184 68.4202 154.016 68.0475 153.681 67.8176C153.346 67.5876 152.867 67.4726 152.245 67.4726H150.629V70.6484H152.149Z" fill="black" fill-opacity="0.25" style="fill:black;fill-opacity:0.25;"/>
<path d="M148.264 74.9779H146.863L143.871 71.3264H142.961V74.9779H141.836V66.4497H142.961V70.3154H143.799L146.863 66.4497H148.132L144.745 70.7079L148.264 74.9779Z" fill="black" fill-opacity="0.25" style="fill:black;fill-opacity:0.25;"/>
<path d="M132.523 73.8599C133.018 73.9075 133.405 73.8361 133.684 73.6458C133.963 73.4475 134.195 73.1898 134.378 72.8727L131.194 66.4497H132.475L134.953 71.5881L137.095 66.4497H138.256L135.539 72.6704C135.316 73.1938 135.073 73.6339 134.809 73.9907C134.546 74.3475 134.231 74.6092 133.864 74.7757C133.504 74.9423 133.058 75.0097 132.523 74.9779V73.8599Z" fill="black" fill-opacity="0.25" style="fill:black;fill-opacity:0.25;"/>
<path d="M125.557 73.6815H125.066H125.054L125.066 73.6696L122.469 68.0198V74.9779H121.403V66.4497H122.971L125.641 72.4326L128.43 66.4497H129.89V74.9779H128.753V68.1149L126.119 73.6696L125.557 73.6815Z" fill="black" fill-opacity="0.25" style="fill:black;fill-opacity:0.25;"/>
<path d="M114.25 66.4497H119.565V67.4726H115.375V70.0537H118.93V71.0647H115.375V73.9669H119.624V74.9779H114.25V66.4497Z" fill="black" fill-opacity="0.25" style="fill:black;fill-opacity:0.25;"/>
<path d="M108.642 75.0969C107.876 75.0969 107.181 74.9264 106.559 74.5854C105.937 74.2444 105.442 73.7489 105.075 73.0986C104.716 72.4405 104.536 71.6356 104.536 70.6841C104.536 69.7325 104.716 68.9356 105.075 68.2933C105.442 67.6431 105.937 67.1554 106.559 66.8303C107.181 66.5052 107.876 66.3427 108.642 66.3427C109.424 66.3427 110.122 66.5092 110.736 66.8422C111.359 67.1673 111.85 67.651 112.209 68.2933C112.568 68.9356 112.747 69.7365 112.747 70.696C112.747 71.6396 112.568 72.4405 112.209 73.0986C111.85 73.7489 111.359 74.2444 110.736 74.5854C110.122 74.9264 109.424 75.0969 108.642 75.0969ZM108.642 74.0859C109.192 74.0859 109.687 73.9748 110.126 73.7528C110.565 73.5308 110.908 73.174 111.155 72.6823C111.411 72.1828 111.538 71.5286 111.538 70.7198C111.538 69.903 111.411 69.2488 111.155 68.7572C110.908 68.2656 110.565 67.9087 110.126 67.6867C109.687 67.4647 109.192 67.3537 108.642 67.3537C108.091 67.3537 107.596 67.4647 107.158 67.6867C106.727 67.9087 106.383 68.2656 106.128 68.7572C105.873 69.2488 105.745 69.903 105.745 70.7198C105.745 71.5286 105.873 72.1828 106.128 72.6823C106.383 73.174 106.727 73.5308 107.158 73.7528C107.596 73.9748 108.091 74.0859 108.642 74.0859Z" fill="black" fill-opacity="0.25" style="fill:black;fill-opacity:0.25;"/>
<path d="M97.3828 66.4497H100.291C101.233 66.4497 101.947 66.6083 102.434 66.9255C102.929 67.2427 103.176 67.7779 103.176 68.5312C103.176 69.1418 103.021 69.6057 102.709 69.9229C102.398 70.2321 101.983 70.4422 101.464 70.5533C102.127 70.6326 102.63 70.8268 102.973 71.1361C103.316 71.4374 103.487 71.8973 103.487 72.5158C103.487 73.1026 103.348 73.5784 103.068 73.9431C102.789 74.3079 102.406 74.5735 101.919 74.7401C101.433 74.8987 100.882 74.9779 100.268 74.9779H97.3828V66.4497ZM100.208 70.0894C100.75 70.0894 101.189 69.9704 101.524 69.7325C101.867 69.4867 102.039 69.1061 102.039 68.5907C102.039 68.1546 101.887 67.8612 101.584 67.7105C101.281 67.5519 100.85 67.4726 100.291 67.4726H98.508V70.0894H100.208ZM100.268 73.9669C100.874 73.9669 101.365 73.8638 101.74 73.6577C102.115 73.4515 102.302 73.0788 102.302 72.5396C102.302 72.0004 102.127 71.6277 101.776 71.4215C101.433 71.2074 100.886 71.1004 100.136 71.1004H98.508V73.9669H100.268Z" fill="black" fill-opacity="0.25" style="fill:black;fill-opacity:0.25;"/>
<path d="M93.0749 75.0969C92.2291 75.0969 91.4869 74.9224 90.8486 74.5735C90.2182 74.2246 89.7274 73.7251 89.3763 73.0748C89.0252 72.4167 88.8496 71.6317 88.8496 70.7198C88.8496 69.348 89.2127 68.2775 89.9389 67.5083C90.665 66.7312 91.7024 66.3427 93.051 66.3427C93.6335 66.3427 94.1442 66.4061 94.5831 66.533C95.03 66.6519 95.3891 66.7946 95.6604 66.9612V68.0316C95.3013 67.8017 94.8863 67.6312 94.4155 67.5202C93.9527 67.4092 93.4939 67.3537 93.039 67.3537C92.0336 67.3537 91.2874 67.6352 90.8007 68.1982C90.3139 68.7612 90.0705 69.6017 90.0705 70.7198C90.0705 71.8458 90.3339 72.6903 90.8605 73.2533C91.3872 73.8083 92.1572 74.0859 93.1707 74.0859C93.6096 74.0859 94.0365 74.0264 94.4514 73.9074C94.8744 73.7885 95.2773 73.5863 95.6604 73.3008V74.3713C95.429 74.5537 95.0898 74.7202 94.6429 74.8709C94.2041 75.0215 93.6814 75.0969 93.0749 75.0969Z" fill="black" fill-opacity="0.25" style="fill:black;fill-opacity:0.25;"/>
<path d="M85.7148 74.9779H84.3144L81.322 71.3264H80.4123V74.9779H79.2871V66.4497H80.4123V70.3154H81.2501L84.3144 66.4497H85.5832L82.1957 70.7079L85.7148 74.9779Z" fill="black" fill-opacity="0.25" style="fill:black;fill-opacity:0.25;"/>
<path d="M69.4805 74.9779V66.4497H70.6056V69.7563H72.3053C73.2549 69.7563 73.9851 69.9546 74.4958 70.3511C75.0065 70.7475 75.2618 71.3898 75.2618 72.2779C75.2618 72.9282 75.1302 73.4515 74.8668 73.848C74.6035 74.2445 74.2364 74.5339 73.7656 74.7163C73.2948 74.8907 72.7522 74.9779 72.1377 74.9779H69.4805ZM72.1377 73.9669C72.7043 73.9669 73.1671 73.848 73.5262 73.6101C73.8933 73.3722 74.0768 72.944 74.0768 72.3255C74.0768 71.8022 73.9212 71.4097 73.61 71.148C73.2988 70.8863 72.8519 70.7555 72.2694 70.7555H70.6056V73.9669H72.1377Z" fill="black" fill-opacity="0.25" style="fill:black;fill-opacity:0.25;"/>
<path d="M65.1726 75.0969C64.3267 75.0969 63.5846 74.9224 62.9462 74.5735C62.3158 74.2246 61.825 73.7251 61.4739 73.0748C61.1228 72.4167 60.9473 71.6317 60.9473 70.7198C60.9473 69.348 61.3103 68.2775 62.0365 67.5083C62.7627 66.7312 63.8 66.3427 65.1486 66.3427C65.7312 66.3427 66.2419 66.4061 66.6807 66.533C67.1276 66.6519 67.4867 66.7946 67.758 66.9612V68.0316C67.3989 67.8017 66.984 67.6312 66.5132 67.5202C66.0503 67.4092 65.5915 67.3537 65.1367 67.3537C64.1312 67.3537 63.3851 67.6352 62.8983 68.1982C62.4116 68.7612 62.1682 69.6017 62.1682 70.7198C62.1682 71.8458 62.4315 72.6903 62.9582 73.2533C63.4848 73.8083 64.2549 74.0859 65.2683 74.0859C65.7072 74.0859 66.1341 74.0264 66.5491 73.9074C66.972 73.7885 67.375 73.5863 67.758 73.3008V74.3713C67.5266 74.5537 67.1875 74.7202 66.7406 74.8709C66.3017 75.0215 65.779 75.0969 65.1726 75.0969Z" fill="black" fill-opacity="0.25" style="fill:black;fill-opacity:0.25;"/>
<path d="M54.5303 66.4497H59.8448V67.4726H55.6554V70.0537H59.2104V71.0647H55.6554V73.9669H59.9047V74.9779H54.5303V66.4497Z" fill="black" fill-opacity="0.25" style="fill:black;fill-opacity:0.25;"/>
<path d="M46.7422 67.4845V66.4497H53.1699V67.4845H50.5246V74.9779H49.3875V67.4845H46.7422Z" fill="black" fill-opacity="0.25" style="fill:black;fill-opacity:0.25;"/>
<path d="M39.55 74.9779H38.3291V66.4497H39.4543V73.4912L44.1703 66.4497H45.3912V74.9779H44.2421V67.9722L39.55 74.9779Z" fill="black" fill-opacity="0.25" style="fill:black;fill-opacity:0.25;"/>
<path d="M30.541 67.4845V66.4497H36.9687V67.4845H34.3234V74.9779H33.1863V67.4845H30.541Z" fill="black" fill-opacity="0.25" style="fill:black;fill-opacity:0.25;"/>
<path d="M30.7789 74.9779H29.5819L28.6961 72.5396H24.9017L24.0279 74.9779H22.9746L26.0269 66.4497H27.7026L30.7789 74.9779ZM25.2728 71.5286H28.337L26.8049 67.2823L25.2728 71.5286Z" fill="black" fill-opacity="0.25" style="fill:black;fill-opacity:0.25;"/>
<path d="M17.1484 66.4497H19.8895C20.863 66.4497 21.6171 66.6519 22.1518 67.0563C22.6944 67.4528 22.9657 68.0753 22.9657 68.9237C22.9657 69.566 22.8301 70.0894 22.5587 70.4938C22.2954 70.8982 21.9243 71.1956 21.4456 71.3859C20.9748 71.5682 20.4241 71.6594 19.7937 71.6594H18.2736V74.9779H17.1484V66.4497ZM19.7937 70.6484C20.4002 70.6484 20.891 70.5176 21.266 70.2559C21.6411 69.9942 21.8286 69.5541 21.8286 68.9356C21.8286 68.4202 21.661 68.0475 21.3259 67.8176C20.9907 67.5876 20.5119 67.4726 19.8895 67.4726H18.2736V70.6484H19.7937Z" fill="black" fill-opacity="0.25" style="fill:black;fill-opacity:0.25;"/>
<path d="M9.71387 74.9779V66.4497H14.9446V67.4726H10.839V69.8753H12.5387C13.4883 69.8753 14.2185 70.0696 14.7292 70.4581C15.2399 70.8467 15.4952 71.4731 15.4952 72.3374C15.4952 72.9718 15.3636 73.4832 15.1002 73.8718C14.8369 74.2603 14.4698 74.5418 13.999 74.7163C13.5282 74.8907 12.9856 74.9779 12.3711 74.9779H9.71387ZM12.3711 73.9669C12.9377 73.9669 13.4005 73.8519 13.7596 73.622C14.1267 73.392 14.3102 72.9797 14.3102 72.385C14.3102 71.8775 14.1546 71.5008 13.8434 71.255C13.5322 71.0092 13.0853 70.8863 12.5028 70.8863H10.839V73.9669H12.3711Z" fill="black" fill-opacity="0.25" style="fill:black;fill-opacity:0.25;"/>
<path d="M4.10561 75.0969C3.33955 75.0969 2.6453 74.9264 2.02288 74.5854C1.40045 74.2444 0.905707 73.7489 0.538636 73.0986C0.179545 72.4405 0 71.6356 0 70.6841C0 69.7325 0.179545 68.9356 0.538636 68.2933C0.905707 67.6431 1.40045 67.1554 2.02288 66.8303C2.6453 66.5052 3.33955 66.3427 4.10561 66.3427C4.88763 66.3427 5.58586 66.5092 6.2003 66.8422C6.82273 67.1673 7.31349 67.651 7.67258 68.2933C8.03167 68.9356 8.21121 69.7365 8.21121 70.696C8.21121 71.6396 8.03167 72.4405 7.67258 73.0986C7.31349 73.7489 6.82273 74.2444 6.2003 74.5854C5.58586 74.9264 4.88763 75.0969 4.10561 75.0969ZM4.10561 74.0859C4.65621 74.0859 5.15096 73.9748 5.58985 73.7528C6.02874 73.5308 6.37187 73.174 6.61924 72.6823C6.8746 72.1828 7.00227 71.5286 7.00227 70.7198C7.00227 69.903 6.8746 69.2488 6.61924 68.7572C6.37187 68.2656 6.02874 67.9087 5.58985 67.6867C5.15096 67.4647 4.65621 67.3537 4.10561 67.3537C3.555 67.3537 3.06025 67.4647 2.62136 67.6867C2.19045 67.9087 1.84732 68.2656 1.59197 68.7572C1.33662 69.2488 1.20894 69.903 1.20894 70.7198C1.20894 71.5286 1.33662 72.1828 1.59197 72.6823C1.84732 73.174 2.19045 73.5308 2.62136 73.7528C3.06025 73.9748 3.555 74.0859 4.10561 74.0859Z" fill="black" fill-opacity="0.25" style="fill:black;fill-opacity:0.25;"/>
<path d="M261.895 62.2114C261.129 62.2114 260.434 62.0409 259.812 61.6999C259.19 61.359 258.695 60.8634 258.328 60.2131C257.969 59.555 257.789 58.7501 257.789 57.7986C257.789 56.847 257.969 56.0501 258.328 55.4078C258.695 54.7576 259.19 54.2699 259.812 53.9448C260.434 53.6197 261.129 53.4572 261.895 53.4572C262.677 53.4572 263.375 53.6237 263.989 53.9567C264.612 54.2818 265.103 54.7655 265.462 55.4078C265.821 56.0501 266 56.851 266 57.8105C266 58.7541 265.821 59.555 265.462 60.2131C265.103 60.8634 264.612 61.359 263.989 61.6999C263.375 62.0409 262.677 62.2114 261.895 62.2114ZM261.895 61.2004C262.445 61.2004 262.94 61.0894 263.379 60.8673C263.818 60.6453 264.161 60.2885 264.408 59.7968C264.664 59.2973 264.791 58.6431 264.791 57.8343C264.791 57.0175 264.664 56.3633 264.408 55.8717C264.161 55.3801 263.818 55.0232 263.379 54.8012C262.94 54.5792 262.445 54.4682 261.895 54.4682C261.344 54.4682 260.849 54.5792 260.41 54.8012C259.98 55.0232 259.636 55.3801 259.381 55.8717C259.126 56.3633 258.998 57.0175 258.998 57.8343C258.998 58.6431 259.126 59.2973 259.381 59.7968C259.636 60.2885 259.98 60.6453 260.41 60.8673C260.849 61.0894 261.344 61.2004 261.895 61.2004Z" fill="black" fill-opacity="0.25" style="fill:black;fill-opacity:0.25;"/>
<path d="M245.56 53.5642H246.685V57.3585H251.09V53.5642H252.227V62.0924H251.09V58.3695H246.685V62.0924H245.56V53.5642Z" fill="black" fill-opacity="0.25" style="fill:black;fill-opacity:0.25;"/>
<path d="M234.091 62.0924V53.5642H235.216V56.8708H236.916C237.865 56.8708 238.595 57.0691 239.106 57.4656C239.617 57.862 239.872 58.5043 239.872 59.3924C239.872 60.0427 239.741 60.566 239.477 60.9625C239.214 61.359 238.847 61.6484 238.376 61.8308C237.905 62.0052 237.363 62.0924 236.748 62.0924H234.091ZM236.748 61.0814C237.315 61.0814 237.777 60.9625 238.137 60.7246C238.504 60.4867 238.687 60.0585 238.687 59.44C238.687 58.9167 238.532 58.5241 238.22 58.2625C237.909 58.0008 237.462 57.87 236.88 57.87H235.216V61.0814H236.748Z" fill="black" fill-opacity="0.25" style="fill:black;fill-opacity:0.25;"/>
<path d="M221.12 61.0101C221.511 61.0497 221.798 60.9268 221.982 60.6413C222.173 60.3559 222.317 59.9792 222.413 59.5114C222.533 58.9167 222.612 58.1237 222.652 57.1325C222.692 56.1413 222.72 54.9519 222.736 53.5642H228.027V62.0924H226.89V54.5871H223.801C223.777 55.7369 223.745 56.74 223.706 57.5964C223.666 58.4449 223.59 59.1625 223.478 59.7493C223.382 60.1933 223.247 60.6017 223.071 60.9744C222.896 61.3471 222.652 61.6405 222.341 61.8546C222.03 62.0687 221.623 62.1638 221.12 62.14V61.0101Z" fill="black" fill-opacity="0.25" style="fill:black;fill-opacity:0.25;"/>
<path d="M210.663 53.5642H215.978V54.5871H211.788V57.1682H215.343V58.1792H211.788V61.0814H216.037V62.0924H210.663V53.5642Z" fill="black" fill-opacity="0.25" style="fill:black;fill-opacity:0.25;"/>
<path d="M198.805 54.599V53.5642H205.232V54.599H202.587V62.0924H201.45V54.599H198.805Z" fill="black" fill-opacity="0.25" style="fill:black;fill-opacity:0.25;"/>
<path d="M187.543 62.0924H186.322V53.5642H187.447V60.6057L192.163 53.5642H193.384V62.0924H192.235V55.0867L187.543 62.0924Z" fill="black" fill-opacity="0.25" style="fill:black;fill-opacity:0.25;"/>
<path d="M174.946 53.5642H177.687C178.661 53.5642 179.415 53.7664 179.95 54.1708C180.492 54.5673 180.764 55.1898 180.764 56.0382C180.764 56.6805 180.628 57.2039 180.357 57.6083C180.093 58.0127 179.722 58.31 179.243 58.5004C178.773 58.6827 178.222 58.7739 177.592 58.7739H176.071V62.0924H174.946V53.5642ZM177.592 57.7629C178.198 57.7629 178.689 57.6321 179.064 57.3704C179.439 57.1087 179.626 56.6686 179.626 56.0501C179.626 55.5347 179.459 55.162 179.124 54.9321C178.789 54.7021 178.31 54.5871 177.687 54.5871H176.071V57.7629H177.592Z" fill="black" fill-opacity="0.25" style="fill:black;fill-opacity:0.25;"/>
<path d="M169.628 62.0924H168.431L167.546 59.6541H163.751L162.878 62.0924H161.824L164.876 53.5642H166.552L169.628 62.0924ZM164.122 58.6431H167.187L165.655 54.3968L164.122 58.6431Z" fill="black" fill-opacity="0.25" style="fill:black;fill-opacity:0.25;"/>
<path d="M150.98 53.5642H153.889C154.831 53.5642 155.545 53.7228 156.032 54.04C156.526 54.3572 156.774 54.8924 156.774 55.6457C156.774 56.2563 156.618 56.7202 156.307 57.0374C155.996 57.3466 155.581 57.5567 155.062 57.6678C155.724 57.747 156.227 57.9413 156.57 58.2506C156.913 58.5519 157.085 59.0118 157.085 59.6303C157.085 60.2171 156.945 60.6929 156.666 61.0576C156.387 61.4224 156.004 61.688 155.517 61.8546C155.03 62.0132 154.48 62.0924 153.865 62.0924H150.98V53.5642ZM153.805 57.2039C154.348 57.2039 154.787 57.0849 155.122 56.847C155.465 56.6012 155.637 56.2206 155.637 55.7052C155.637 55.2691 155.485 54.9757 155.182 54.825C154.879 54.6664 154.448 54.5871 153.889 54.5871H152.106V57.2039H153.805ZM153.865 61.0814C154.472 61.0814 154.962 60.9783 155.337 60.7722C155.713 60.566 155.9 60.1933 155.9 59.6541C155.9 59.1149 155.724 58.7422 155.373 58.536C155.03 58.3219 154.484 58.2149 153.734 58.2149H152.106V61.0814H153.865Z" fill="black" fill-opacity="0.25" style="fill:black;fill-opacity:0.25;"/>
<path d="M137.973 64.1145H136.955V61.0814H137.542C137.909 60.7484 138.18 60.2647 138.356 59.6303C138.531 58.996 138.651 58.1832 138.715 57.192C138.778 56.1929 138.826 54.9836 138.858 53.5642H144.328V61.0814H145.43V64.1145H144.388L144.269 62.0924H138.104L137.973 64.1145ZM138.846 61.0814H143.191V54.5871H139.912C139.888 55.7924 139.836 56.8153 139.756 57.6559C139.684 58.4964 139.572 59.1942 139.421 59.7493C139.277 60.2964 139.086 60.7405 138.846 61.0814Z" fill="black" fill-opacity="0.25" style="fill:black;fill-opacity:0.25;"/>
<path d="M126.558 53.5642H131.872V54.5871H127.683V57.1682H131.238V58.1792H127.683V61.0814H131.932V62.0924H126.558V53.5642Z" fill="black" fill-opacity="0.25" style="fill:black;fill-opacity:0.25;"/>
<path d="M115.182 53.5642H117.923C118.896 53.5642 119.65 53.7664 120.185 54.1708C120.728 54.5673 120.999 55.1898 120.999 56.0382C120.999 56.6805 120.863 57.2039 120.592 57.6083C120.329 58.0127 119.958 58.31 119.479 58.5004C119.008 58.6827 118.457 58.7739 117.827 58.7739H116.307V62.0924H115.182V53.5642ZM117.827 57.7629C118.433 57.7629 118.924 57.6321 119.299 57.3704C119.674 57.1087 119.862 56.6686 119.862 56.0501C119.862 55.5347 119.694 55.162 119.359 54.9321C119.024 54.7021 118.545 54.5871 117.923 54.5871H116.307V57.7629H117.827Z" fill="black" fill-opacity="0.25" style="fill:black;fill-opacity:0.25;"/>
<path d="M102.661 53.5642H109.113V62.0924H107.976V54.5871H103.786V62.0924H102.661V53.5642Z" fill="black" fill-opacity="0.25" style="fill:black;fill-opacity:0.25;"/>
<path d="M89.6921 62.1638C89.4687 62.1638 89.2811 62.0924 89.1295 61.9497C88.9859 61.799 88.9141 61.6206 88.9141 61.4144C88.9141 61.1924 88.9859 61.01 89.1295 60.8673C89.2811 60.7246 89.4687 60.6532 89.6921 60.6532C89.9155 60.6532 90.0991 60.7246 90.2427 60.8673C90.3863 61.01 90.4582 61.1924 90.4582 61.4144C90.4582 61.6206 90.3863 61.799 90.2427 61.9497C90.0991 62.0924 89.9155 62.1638 89.6921 62.1638Z" fill="black" fill-opacity="0.25" style="fill:black;fill-opacity:0.25;"/>
<path d="M78.3623 54.599V53.5642H84.79V54.599H82.1447V62.0924H81.0076V54.599H78.3623Z" fill="black" fill-opacity="0.25" style="fill:black;fill-opacity:0.25;"/>
<path d="M67.8438 53.5642H73.1583V54.5871H68.9689V57.1682H72.5239V58.1792H68.9689V61.0814H73.2181V62.0924H67.8438V53.5642Z" fill="black" fill-opacity="0.25" style="fill:black;fill-opacity:0.25;"/>
<path d="M54.8721 61.0101C55.2631 61.0497 55.5504 60.9268 55.7339 60.6413C55.9254 60.3559 56.069 59.9792 56.1648 59.5114C56.2845 58.9167 56.3643 58.1237 56.4042 57.1325C56.4441 56.1413 56.472 54.9519 56.488 53.5642H61.7786V62.0924H60.6415V54.5871H57.5533C57.5293 55.7369 57.4974 56.74 57.4575 57.5964C57.4176 58.4449 57.3418 59.1625 57.2301 59.7493C57.1343 60.1933 56.9987 60.6017 56.8231 60.9744C56.6476 61.3471 56.4042 61.6405 56.093 61.8546C55.7818 62.0687 55.3748 62.1638 54.8721 62.14V61.0101Z" fill="black" fill-opacity="0.25" style="fill:black;fill-opacity:0.25;"/>
<path d="M37.2649 62.0924H36.0439V53.5642H37.1691V60.6057L41.8852 53.5642H43.1061V62.0924H41.957V55.0867L37.2649 62.0924Z" fill="black" fill-opacity="0.25" style="fill:black;fill-opacity:0.25;"/>
<path d="M24.1846 54.599V53.5642H30.6123V54.599H27.967V62.0924H26.8299V54.599H24.1846Z" fill="black" fill-opacity="0.25" style="fill:black;fill-opacity:0.25;"/>
<path d="M18.7571 53.5642V62.0924H17.62V58.6788H16.0639L13.6939 62.0924H12.3174L14.9148 58.4766C14.2844 58.3418 13.8016 58.0801 13.4665 57.6915C13.1313 57.303 12.9637 56.7757 12.9637 56.1096C12.9637 55.507 13.0954 55.0193 13.3587 54.6466C13.6221 54.2739 13.9892 54.0003 14.46 53.8259C14.9308 53.6514 15.4734 53.5642 16.0878 53.5642H18.7571ZM15.9681 57.6678H17.62V54.5871H16.0878C15.5213 54.5871 15.0545 54.7021 14.6874 54.9321C14.3283 55.1541 14.1487 55.5466 14.1487 56.1096C14.1487 56.6409 14.3044 57.0334 14.6156 57.2871C14.9348 57.5409 15.3856 57.6678 15.9681 57.6678Z" fill="black" fill-opacity="0.25" style="fill:black;fill-opacity:0.25;"/>
<path d="M0.50293 53.5642H6.9546V62.0924H5.81748V54.5871H1.62808V62.0924H0.50293V53.5642Z" fill="black" fill-opacity="0.25" style="fill:black;fill-opacity:0.25;"/>
<path d="M257.303 40.6787H262.617V41.7016H258.428V44.2827H261.983V45.2937H258.428V48.1959H262.677V49.2069H257.303V40.6787Z" fill="black" fill-opacity="0.25" style="fill:black;fill-opacity:0.25;"/>
<path d="M248.746 49.2069H247.525V40.6787H248.651V47.7202L253.367 40.6787H254.588V49.2069H253.438V42.2012L248.746 49.2069Z" fill="black" fill-opacity="0.25" style="fill:black;fill-opacity:0.25;"/>
<path d="M238.146 40.6787H239.271V44.473H243.675V40.6787H244.813V49.2069H243.675V45.484H239.271V49.2069H238.146V40.6787Z" fill="black" fill-opacity="0.25" style="fill:black;fill-opacity:0.25;"/>
<path d="M230.285 40.6787H235.6V41.7016H231.41V44.2827H234.965V45.2937H231.41V48.1959H235.66V49.2069H230.285V40.6787Z" fill="black" fill-opacity="0.25" style="fill:black;fill-opacity:0.25;"/>
<path d="M221.218 43.0576V40.6787H222.355V43.0576C222.355 43.7237 222.518 44.2351 222.846 44.5919C223.181 44.9488 223.672 45.1272 224.318 45.1272C224.709 45.1272 225.084 45.0836 225.443 44.9964C225.802 44.9012 226.133 44.7466 226.437 44.5325V40.6787H227.574V49.2069H226.437V45.484C226.109 45.6902 225.766 45.8409 225.407 45.936C225.056 46.0312 224.689 46.0787 224.306 46.0787C223.324 46.0787 222.562 45.8329 222.02 45.3413C221.485 44.8497 221.218 44.0884 221.218 43.0576Z" fill="black" fill-opacity="0.25" style="fill:black;fill-opacity:0.25;"/>
<path d="M213.514 40.6787H218.828V41.7016H214.639V44.2827H218.194V45.2937H214.639V48.1959H218.888V49.2069H213.514V40.6787Z" fill="black" fill-opacity="0.25" style="fill:black;fill-opacity:0.25;"/>
<path d="M205.007 41.7135V40.6787H211.435V41.7135H208.789V49.2069H207.652V41.7135H205.007Z" fill="black" fill-opacity="0.25" style="fill:black;fill-opacity:0.25;"/>
<path d="M194.105 40.6787H197.014C197.956 40.6787 198.67 40.8373 199.157 41.1545C199.651 41.4717 199.899 42.0069 199.899 42.7602C199.899 43.3708 199.743 43.8347 199.432 44.1519C199.121 44.4611 198.706 44.6712 198.187 44.7823C198.849 44.8616 199.352 45.0558 199.695 45.3651C200.038 45.6664 200.21 46.1263 200.21 46.7448C200.21 47.3316 200.07 47.8074 199.791 48.1721C199.512 48.5369 199.129 48.8025 198.642 48.9691C198.155 49.1277 197.605 49.2069 196.99 49.2069H194.105V40.6787ZM196.93 44.3184C197.473 44.3184 197.912 44.1994 198.247 43.9615C198.59 43.7157 198.762 43.3351 198.762 42.8197C198.762 42.3836 198.61 42.0902 198.307 41.9395C198.004 41.7809 197.573 41.7016 197.014 41.7016H195.231V44.3184H196.93ZM196.99 48.1959C197.597 48.1959 198.087 48.0928 198.462 47.8867C198.838 47.6805 199.025 47.3078 199.025 46.7686C199.025 46.2294 198.849 45.8567 198.498 45.6505C198.155 45.4364 197.609 45.3294 196.859 45.3294H195.231V48.1959H196.99Z" fill="black" fill-opacity="0.25" style="fill:black;fill-opacity:0.25;"/>
<path d="M184.664 49.3258C183.898 49.3258 183.204 49.1553 182.581 48.8143C181.959 48.4733 181.464 47.9777 181.097 47.3275C180.738 46.6694 180.559 45.8645 180.559 44.913C180.559 43.9614 180.738 43.1645 181.097 42.5222C181.464 41.872 181.959 41.3843 182.581 41.0592C183.204 40.7341 183.898 40.5715 184.664 40.5715C185.446 40.5715 186.144 40.7381 186.759 41.0711C187.381 41.3962 187.872 41.8799 188.231 42.5222C188.59 43.1645 188.77 43.9654 188.77 44.9249C188.77 45.8685 188.59 46.6694 188.231 47.3275C187.872 47.9777 187.381 48.4733 186.759 48.8143C186.144 49.1553 185.446 49.3258 184.664 49.3258ZM184.664 48.3147C185.215 48.3147 185.71 48.2037 186.148 47.9817C186.587 47.7597 186.93 47.4028 187.178 46.9112C187.433 46.4117 187.561 45.7575 187.561 44.9486C187.561 44.1319 187.433 43.4777 187.178 42.9861C186.93 42.4945 186.587 42.1376 186.148 41.9156C185.71 41.6936 185.215 41.5826 184.664 41.5826C184.114 41.5826 183.619 41.6936 183.18 41.9156C182.749 42.1376 182.406 42.4945 182.151 42.9861C181.895 43.4777 181.768 44.1319 181.768 44.9486C181.768 45.7575 181.895 46.4117 182.151 46.9112C182.406 47.4028 182.749 47.7597 183.18 47.9817C183.619 48.2037 184.114 48.3147 184.664 48.3147Z" fill="black" fill-opacity="0.25" style="fill:black;fill-opacity:0.25;"/>
<path d="M172.687 40.6787H175.595C176.537 40.6787 177.251 40.8373 177.738 41.1545C178.232 41.4717 178.48 42.0069 178.48 42.7602C178.48 43.3708 178.324 43.8347 178.013 44.1519C177.702 44.4611 177.287 44.6712 176.768 44.7823C177.431 44.8616 177.933 45.0558 178.276 45.3651C178.62 45.6664 178.791 46.1263 178.791 46.7448C178.791 47.3316 178.651 47.8074 178.372 48.1721C178.093 48.5369 177.71 48.8025 177.223 48.9691C176.736 49.1277 176.186 49.2069 175.571 49.2069H172.687V40.6787ZM175.511 44.3184C176.054 44.3184 176.493 44.1994 176.828 43.9615C177.171 43.7157 177.343 43.3351 177.343 42.8197C177.343 42.3836 177.191 42.0902 176.888 41.9395C176.585 41.7809 176.154 41.7016 175.595 41.7016H173.812V44.3184H175.511ZM175.571 48.1959C176.178 48.1959 176.668 48.0928 177.044 47.8867C177.419 47.6805 177.606 47.3078 177.606 46.7686C177.606 46.2294 177.431 45.8567 177.079 45.6505C176.736 45.4364 176.19 45.3294 175.44 45.3294H173.812V48.1959H175.571Z" fill="black" fill-opacity="0.25" style="fill:black;fill-opacity:0.25;"/>
<path d="M164.18 41.7135V40.6787H170.607V41.7135H167.962V49.2069H166.825V41.7135H164.18Z" fill="black" fill-opacity="0.25" style="fill:black;fill-opacity:0.25;"/>
<path d="M159.801 49.3258C158.955 49.3258 158.213 49.1513 157.574 48.8024C156.944 48.4535 156.453 47.9539 156.102 47.3037C155.751 46.6456 155.575 45.8605 155.575 44.9486C155.575 43.5768 155.938 42.5063 156.664 41.7372C157.391 40.9601 158.428 40.5715 159.777 40.5715C160.359 40.5715 160.87 40.635 161.309 40.7618C161.756 40.8808 162.115 41.0235 162.386 41.19V42.2605C162.027 42.0306 161.612 41.8601 161.141 41.7491C160.678 41.6381 160.219 41.5826 159.765 41.5826C158.759 41.5826 158.013 41.8641 157.526 42.4271C157.039 42.99 156.796 43.8306 156.796 44.9486C156.796 46.0746 157.059 46.9191 157.586 47.4821C158.113 48.0372 158.883 48.3147 159.896 48.3147C160.335 48.3147 160.762 48.2553 161.177 48.1363C161.6 48.0174 162.003 47.8152 162.386 47.5297V48.6002C162.155 48.7826 161.815 48.9491 161.369 49.0998C160.93 49.2504 160.407 49.3258 159.801 49.3258Z" fill="black" fill-opacity="0.25" style="fill:black;fill-opacity:0.25;"/>
<path d="M147.992 41.7135V40.6787H154.42V41.7135H151.775V49.2069H150.637V41.7135H147.992Z" fill="black" fill-opacity="0.25" style="fill:black;fill-opacity:0.25;"/>
<path d="M142.734 49.3258C141.967 49.3258 141.273 49.1553 140.651 48.8143C140.028 48.4733 139.534 47.9777 139.167 47.3275C138.807 46.6694 138.628 45.8645 138.628 44.913C138.628 43.9614 138.807 43.1645 139.167 42.5222C139.534 41.872 140.028 41.3843 140.651 41.0592C141.273 40.7341 141.967 40.5715 142.734 40.5715C143.516 40.5715 144.214 40.7381 144.828 41.0711C145.451 41.3962 145.941 41.8799 146.301 42.5222C146.66 43.1645 146.839 43.9654 146.839 44.9249C146.839 45.8685 146.66 46.6694 146.301 47.3275C145.941 47.9777 145.451 48.4733 144.828 48.8143C144.214 49.1553 143.516 49.3258 142.734 49.3258ZM142.734 48.3147C143.284 48.3147 143.779 48.2037 144.218 47.9817C144.657 47.7597 145 47.4028 145.247 46.9112C145.503 46.4117 145.63 45.7575 145.63 44.9486C145.63 44.1319 145.503 43.4777 145.247 42.9861C145 42.4945 144.657 42.1376 144.218 41.9156C143.779 41.6936 143.284 41.5826 142.734 41.5826C142.183 41.5826 141.688 41.6936 141.249 41.9156C140.818 42.1376 140.475 42.4945 140.22 42.9861C139.965 43.4777 139.837 44.1319 139.837 44.9486C139.837 45.7575 139.965 46.4117 140.22 46.9112C140.475 47.4028 140.818 47.7597 141.249 47.9817C141.688 48.2037 142.183 48.3147 142.734 48.3147Z" fill="black" fill-opacity="0.25" style="fill:black;fill-opacity:0.25;"/>
<path d="M131.106 40.6787H133.848C134.821 40.6787 135.575 40.8809 136.11 41.2853C136.652 41.6818 136.924 42.3043 136.924 43.1527C136.924 43.795 136.788 44.3184 136.517 44.7228C136.253 45.1272 135.882 45.4246 135.404 45.6149C134.933 45.7972 134.382 45.8884 133.752 45.8884H132.232V49.2069H131.106V40.6787ZM133.752 44.8774C134.358 44.8774 134.849 44.7466 135.224 44.4849C135.599 44.2232 135.787 43.7831 135.787 43.1646C135.787 42.6492 135.619 42.2765 135.284 42.0466C134.949 41.8166 134.47 41.7016 133.848 41.7016H132.232V44.8774H133.752Z" fill="black" fill-opacity="0.25" style="fill:black;fill-opacity:0.25;"/>
<path d="M129.147 49.2069H127.747L124.755 45.5554H123.845V49.2069H122.72V40.6787H123.845V44.5444H124.683L127.747 40.6787H129.016L125.628 44.9369L129.147 49.2069Z" fill="black" fill-opacity="0.25" style="fill:black;fill-opacity:0.25;"/>
<path d="M113.34 40.6787H114.465V44.473H118.87V40.6787H120.007V49.2069H118.87V45.484H114.465V49.2069H113.34V40.6787Z" fill="black" fill-opacity="0.25" style="fill:black;fill-opacity:0.25;"/>
<path d="M111.383 49.2069H110.186L109.301 46.7686H105.506L104.632 49.2069H103.579L106.631 40.6787H108.307L111.383 49.2069ZM105.877 45.7576H108.942L107.409 41.5113L105.877 45.7576Z" fill="black" fill-opacity="0.25" style="fill:black;fill-opacity:0.25;"/>
<path d="M96.3691 49.2069V40.6787H101.6V41.7016H97.4943V44.1043H99.194C100.144 44.1043 100.874 44.2986 101.384 44.6871C101.895 45.0756 102.151 45.7021 102.151 46.5664C102.151 47.2008 102.019 47.7122 101.755 48.1008C101.492 48.4893 101.125 48.7708 100.654 48.9453C100.183 49.1197 99.6409 49.2069 99.0264 49.2069H96.3691ZM99.0264 48.1959C99.593 48.1959 100.056 48.081 100.415 47.851C100.782 47.621 100.965 47.2087 100.965 46.614C100.965 46.1065 100.81 45.7298 100.499 45.484C100.187 45.2382 99.7406 45.1153 99.1581 45.1153H97.4943V48.1959H99.0264Z" fill="black" fill-opacity="0.25" style="fill:black;fill-opacity:0.25;"/>
<path d="M85.3828 40.6787H90.6974V41.7016H86.508V44.2827H90.063V45.2937H86.508V48.1959H90.7572V49.2069H85.3828V40.6787Z" fill="black" fill-opacity="0.25" style="fill:black;fill-opacity:0.25;"/>
<path d="M79.0568 49.3258C78.2907 49.3258 77.5965 49.1553 76.9741 48.8143C76.3516 48.4733 75.8569 47.9777 75.4898 47.3275C75.1307 46.6694 74.9512 45.8645 74.9512 44.913C74.9512 43.9614 75.1307 43.1645 75.4898 42.5222C75.8569 41.872 76.3516 41.3843 76.9741 41.0592C77.5965 40.7341 78.2907 40.5715 79.0568 40.5715C79.8388 40.5715 80.537 40.7381 81.1515 41.0711C81.7739 41.3962 82.2647 41.8799 82.6237 42.5222C82.9828 43.1645 83.1624 43.9654 83.1624 44.9249C83.1624 45.8685 82.9828 46.6694 82.6237 47.3275C82.2647 47.9777 81.7739 48.4733 81.1515 48.8143C80.537 49.1553 79.8388 49.3258 79.0568 49.3258ZM79.0568 48.3147C79.6074 48.3147 80.1021 48.2037 80.541 47.9817C80.9799 47.7597 81.323 47.4028 81.5704 46.9112C81.8258 46.4117 81.9534 45.7575 81.9534 44.9486C81.9534 44.1319 81.8258 43.4777 81.5704 42.9861C81.323 42.4945 80.9799 42.1376 80.541 41.9156C80.1021 41.6936 79.6074 41.5826 79.0568 41.5826C78.5062 41.5826 78.0114 41.6936 77.5725 41.9156C77.1416 42.1376 76.7985 42.4945 76.5431 42.9861C76.2878 43.4777 76.1601 44.1319 76.1601 44.9486C76.1601 45.7575 76.2878 46.4117 76.5431 46.9112C76.7985 47.4028 77.1416 47.7597 77.5725 47.9817C78.0114 48.2037 78.5062 48.3147 79.0568 48.3147Z" fill="black" fill-opacity="0.25" style="fill:black;fill-opacity:0.25;"/>
<path d="M66.0732 40.6787H67.1984V44.473H71.6032V40.6787H72.7404V49.2069H71.6032V45.484H67.1984V49.2069H66.0732V40.6787Z" fill="black" fill-opacity="0.25" style="fill:black;fill-opacity:0.25;"/>
<path d="M58.0605 40.6787H60.8016C61.7751 40.6787 62.5292 40.8809 63.0639 41.2853C63.6065 41.6818 63.8778 42.3043 63.8778 43.1527C63.8778 43.795 63.7422 44.3184 63.4708 44.7228C63.2075 45.1272 62.8365 45.4246 62.3577 45.6149C61.8869 45.7972 61.3363 45.8884 60.7059 45.8884H59.1857V49.2069H58.0605V40.6787ZM60.7059 44.8774C61.3123 44.8774 61.8031 44.7466 62.1781 44.4849C62.5532 44.2232 62.7407 43.7831 62.7407 43.1646C62.7407 42.6492 62.5731 42.2765 62.238 42.0466C61.9028 41.8166 61.424 41.7016 60.8016 41.7016H59.1857V44.8774H60.7059Z" fill="black" fill-opacity="0.25" style="fill:black;fill-opacity:0.25;"/>
<path d="M51.7355 49.3258C50.9694 49.3258 50.2752 49.1553 49.6528 48.8143C49.0303 48.4733 48.5356 47.9777 48.1685 47.3275C47.8094 46.6694 47.6299 45.8645 47.6299 44.913C47.6299 43.9614 47.8094 43.1645 48.1685 42.5222C48.5356 41.872 49.0303 41.3843 49.6528 41.0592C50.2752 40.7341 50.9694 40.5715 51.7355 40.5715C52.5175 40.5715 53.2157 40.7381 53.8302 41.0711C54.4526 41.3962 54.9434 41.8799 55.3025 42.5222C55.6615 43.1645 55.8411 43.9654 55.8411 44.9249C55.8411 45.8685 55.6615 46.6694 55.3025 47.3275C54.9434 47.9777 54.4526 48.4733 53.8302 48.8143C53.2157 49.1553 52.5175 49.3258 51.7355 49.3258ZM51.7355 48.3147C52.2861 48.3147 52.7808 48.2037 53.2197 47.9817C53.6586 47.7597 54.0017 47.4028 54.2491 46.9112C54.5045 46.4117 54.6322 45.7575 54.6322 44.9486C54.6322 44.1319 54.5045 43.4777 54.2491 42.9861C54.0017 42.4945 53.6586 42.1376 53.2197 41.9156C52.7808 41.6936 52.2861 41.5826 51.7355 41.5826C51.1849 41.5826 50.6901 41.6936 50.2512 41.9156C49.8203 42.1376 49.4772 42.4945 49.2218 42.9861C48.9665 43.4777 48.8388 44.1319 48.8388 44.9486C48.8388 45.7575 48.9665 46.4117 49.2218 46.9112C49.4772 47.4028 49.8203 47.7597 50.2512 47.9817C50.6901 48.2037 51.1849 48.3147 51.7355 48.3147Z" fill="black" fill-opacity="0.25" style="fill:black;fill-opacity:0.25;"/>
<path d="M40.0459 41.7135V40.6787H46.4736V41.7135H43.8283V49.2069H42.6912V41.7135H40.0459Z" fill="black" fill-opacity="0.25" style="fill:black;fill-opacity:0.25;"/>
<path d="M32.4932 40.6787H35.4018C36.3434 40.6787 37.0576 40.8373 37.5444 41.1545C38.0391 41.4717 38.2865 42.0069 38.2865 42.7602C38.2865 43.3708 38.1309 43.8347 37.8197 44.1519C37.5085 44.4611 37.0935 44.6712 36.5748 44.7823C37.2372 44.8616 37.7399 45.0558 38.083 45.3651C38.4261 45.6664 38.5977 46.1263 38.5977 46.7448C38.5977 47.3316 38.4581 47.8074 38.1788 48.1721C37.8995 48.5369 37.5164 48.8025 37.0297 48.9691C36.5429 49.1277 35.9923 49.2069 35.3779 49.2069H32.4932V40.6787ZM35.318 44.3184C35.8606 44.3184 36.2995 44.1994 36.6347 43.9615C36.9778 43.7157 37.1494 43.3351 37.1494 42.8197C37.1494 42.3836 36.9978 42.0902 36.6945 41.9395C36.3913 41.7809 35.9604 41.7016 35.4018 41.7016H33.6183V44.3184H35.318ZM35.3779 48.1959C35.9843 48.1959 36.4751 48.0928 36.8501 47.8867C37.2252 47.6805 37.4127 47.3078 37.4127 46.7686C37.4127 46.2294 37.2372 45.8567 36.886 45.6505C36.5429 45.4364 35.9963 45.3294 35.2462 45.3294H33.6183V48.1959H35.3779Z" fill="black" fill-opacity="0.25" style="fill:black;fill-opacity:0.25;"/>
<path d="M26.1671 49.3258C25.4011 49.3258 24.7068 49.1553 24.0844 48.8143C23.462 48.4733 22.9672 47.9777 22.6002 47.3275C22.2411 46.6694 22.0615 45.8645 22.0615 44.913C22.0615 43.9614 22.2411 43.1645 22.6002 42.5222C22.9672 41.872 23.462 41.3843 24.0844 41.0592C24.7068 40.7341 25.4011 40.5715 26.1671 40.5715C26.9492 40.5715 27.6474 40.7381 28.2618 41.0711C28.8843 41.3962 29.375 41.8799 29.7341 42.5222C30.0932 43.1645 30.2727 43.9654 30.2727 44.9249C30.2727 45.8685 30.0932 46.6694 29.7341 47.3275C29.375 47.9777 28.8843 48.4733 28.2618 48.8143C27.6474 49.1553 26.9492 49.3258 26.1671 49.3258ZM26.1671 48.3147C26.7177 48.3147 27.2125 48.2037 27.6514 47.9817C28.0903 47.7597 28.4334 47.4028 28.6808 46.9112C28.9361 46.4117 29.0638 45.7575 29.0638 44.9486C29.0638 44.1319 28.9361 43.4777 28.6808 42.9861C28.4334 42.4945 28.0903 42.1376 27.6514 41.9156C27.2125 41.6936 26.7177 41.5826 26.1671 41.5826C25.6165 41.5826 25.1218 41.6936 24.6829 41.9156C24.252 42.1376 23.9088 42.4945 23.6535 42.9861C23.3981 43.4777 23.2705 44.1319 23.2705 44.9486C23.2705 45.7575 23.3981 46.4117 23.6535 46.9112C23.9088 47.4028 24.252 47.7597 24.6829 47.9817C25.1218 48.2037 25.6165 48.3147 26.1671 48.3147Z" fill="black" fill-opacity="0.25" style="fill:black;fill-opacity:0.25;"/>
<path d="M13.3945 40.6787H19.8462V49.2069H18.7091V41.7016H14.5197V49.2069H13.3945V40.6787Z" fill="black" fill-opacity="0.25" style="fill:black;fill-opacity:0.25;"/>
<path d="M1.72384 49.2069H0.50293V40.6787H1.62808V47.7202L6.34414 40.6787H7.56505V49.2069H6.41596V42.2012L1.72384 49.2069Z" fill="black" fill-opacity="0.25" style="fill:black;fill-opacity:0.25;"/>
<path d="M262.957 36.3213H261.76L260.874 33.883H257.079L256.206 36.3213H255.152L258.205 27.7931H259.88L262.957 36.3213ZM257.451 32.872H260.515L258.983 28.6257L257.451 32.872Z" fill="black" fill-opacity="0.25" style="fill:black;fill-opacity:0.25;"/>
<path d="M248.253 28.8279V27.7931H254.681V28.8279H252.035V36.3213H250.898V28.8279H248.253Z" fill="black" fill-opacity="0.25" style="fill:black;fill-opacity:0.25;"/>
<path d="M240.343 36.3213H239.122V27.7931H240.247V34.8345L244.963 27.7931H246.184V36.3213H245.035V29.3156L240.343 36.3213Z" fill="black" fill-opacity="0.25" style="fill:black;fill-opacity:0.25;"/>
<path d="M229.467 38.3434H228.449V35.3103H229.036C229.403 34.9773 229.674 34.4936 229.85 33.8592C230.025 33.2248 230.145 32.4121 230.209 31.4209C230.273 30.4217 230.32 29.2125 230.352 27.7931H235.823V35.3103H236.924V38.3434H235.882L235.763 36.3213H229.598L229.467 38.3434ZM230.34 35.3103H234.685V28.816H231.406C231.382 30.0213 231.33 31.0442 231.25 31.8847C231.178 32.7253 231.067 33.4231 230.915 33.9781C230.771 34.5253 230.58 34.9693 230.34 35.3103Z" fill="black" fill-opacity="0.25" style="fill:black;fill-opacity:0.25;"/>
<path d="M221.403 27.7931H226.718V28.816H222.528V31.3971H226.083V32.4081H222.528V35.3103H226.778V36.3213H221.403V27.7931Z" fill="black" fill-opacity="0.25" style="fill:black;fill-opacity:0.25;"/>
<path d="M213.379 27.7931H216.12C217.094 27.7931 217.848 27.9953 218.382 28.3997C218.925 28.7962 219.196 29.4186 219.196 30.2671C219.196 30.9094 219.061 31.4328 218.789 31.8372C218.526 32.2416 218.155 32.5389 217.676 32.7292C217.205 32.9116 216.655 33.0028 216.024 33.0028H214.504V36.3213H213.379V27.7931ZM216.024 31.9918C216.631 31.9918 217.121 31.861 217.496 31.5993C217.872 31.3376 218.059 30.8975 218.059 30.279C218.059 29.7636 217.891 29.3909 217.556 29.1609C217.221 28.931 216.742 28.816 216.12 28.816H214.504V31.9918H216.024Z" fill="black" fill-opacity="0.25" style="fill:black;fill-opacity:0.25;"/>
<path d="M211.421 36.3213H210.02L207.028 32.6698H206.118V36.3213H204.993V27.7931H206.118V31.6588H206.956L210.02 27.7931H211.289L207.902 32.0513L211.421 36.3213Z" fill="black" fill-opacity="0.25" style="fill:black;fill-opacity:0.25;"/>
<path d="M194.007 27.7931H199.321V28.816H195.132V31.3971H198.687V32.4081H195.132V35.3103H199.381V36.3213H194.007V27.7931Z" fill="black" fill-opacity="0.25" style="fill:black;fill-opacity:0.25;"/>
<path d="M185.449 36.3213H184.229V27.7931H185.354V34.8345L190.07 27.7931H191.291V36.3213H190.142V29.3156L185.449 36.3213Z" fill="black" fill-opacity="0.25" style="fill:black;fill-opacity:0.25;"/>
<path d="M174.85 27.7931H175.975V31.5874H180.38V27.7931H181.517V36.3213H180.38V32.5984H175.975V36.3213H174.85V27.7931Z" fill="black" fill-opacity="0.25" style="fill:black;fill-opacity:0.25;"/>
<path d="M166.989 27.7931H172.304V28.816H168.114V31.3971H171.669V32.4081H168.114V35.3103H172.364V36.3213H166.989V27.7931Z" fill="black" fill-opacity="0.25" style="fill:black;fill-opacity:0.25;"/>
<path d="M157.921 30.172V27.7931H159.058V30.172C159.058 30.838 159.222 31.3495 159.549 31.7063C159.884 32.0632 160.375 32.2416 161.021 32.2416C161.412 32.2416 161.787 32.198 162.146 32.1107C162.505 32.0156 162.836 31.861 163.14 31.6469V27.7931H164.277V36.3213H163.14V32.5984C162.813 32.8046 162.469 32.9552 162.11 33.0504C161.759 33.1455 161.392 33.1931 161.009 33.1931C160.028 33.1931 159.265 32.9473 158.723 32.4557C158.188 31.964 157.921 31.2028 157.921 30.172Z" fill="black" fill-opacity="0.25" style="fill:black;fill-opacity:0.25;"/>
<path d="M150.454 35.2033C150.948 35.2508 151.335 35.1795 151.615 34.9892C151.894 34.7909 152.125 34.5332 152.309 34.216L149.125 27.7931H150.406L152.883 32.9314L155.026 27.7931H156.187L153.47 34.0138C153.247 34.5372 153.003 34.9773 152.74 35.3341C152.477 35.6909 152.161 35.9526 151.794 36.1191C151.435 36.2856 150.988 36.353 150.454 36.3213V35.2033Z" fill="black" fill-opacity="0.25" style="fill:black;fill-opacity:0.25;"/>
<path d="M140.2 35.2389C140.591 35.2786 140.878 35.1557 141.062 34.8702C141.254 34.5848 141.397 34.2081 141.493 33.7403C141.613 33.1455 141.692 32.3526 141.732 31.3614C141.772 30.3702 141.8 29.1808 141.816 27.7931H147.107V36.3213H145.97V28.816H142.881C142.857 29.9658 142.826 30.9689 142.786 31.8253C142.746 32.6737 142.67 33.3914 142.558 33.9781C142.462 34.4222 142.327 34.8306 142.151 35.2033C141.976 35.576 141.732 35.8693 141.421 36.0834C141.11 36.2975 140.703 36.3927 140.2 36.3689V35.2389Z" fill="black" fill-opacity="0.25" style="fill:black;fill-opacity:0.25;"/>
<path d="M134.873 36.4403C134.107 36.4403 133.413 36.2698 132.79 35.9288C132.168 35.5878 131.673 35.0922 131.306 34.442C130.947 33.7839 130.768 32.979 130.768 32.0275C130.768 31.0759 130.947 30.279 131.306 29.6367C131.673 28.9865 132.168 28.4988 132.79 28.1737C133.413 27.8486 134.107 27.686 134.873 27.686C135.655 27.686 136.353 27.8526 136.968 28.1856C137.59 28.5107 138.081 28.9944 138.44 29.6367C138.799 30.279 138.979 31.0799 138.979 32.0394C138.979 32.983 138.799 33.7839 138.44 34.442C138.081 35.0922 137.59 35.5878 136.968 35.9288C136.353 36.2698 135.655 36.4403 134.873 36.4403ZM134.873 35.4292C135.424 35.4292 135.919 35.3182 136.357 35.0962C136.796 34.8742 137.139 34.5173 137.387 34.0257C137.642 33.5262 137.77 32.872 137.77 32.0631C137.77 31.2464 137.642 30.5922 137.387 30.1006C137.139 29.609 136.796 29.2521 136.357 29.0301C135.919 28.8081 135.424 28.6971 134.873 28.6971C134.323 28.6971 133.828 28.8081 133.389 29.0301C132.958 29.2521 132.615 29.609 132.36 30.1006C132.104 30.5922 131.977 31.2464 131.977 32.0631C131.977 32.872 132.104 33.5262 132.36 34.0257C132.615 34.5173 132.958 34.8742 133.389 35.0962C133.828 35.3182 134.323 35.4292 134.873 35.4292Z" fill="black" fill-opacity="0.25" style="fill:black;fill-opacity:0.25;"/>
<path d="M122.1 27.7931H128.551V36.3213H127.414V28.816H123.225V36.3213H122.1V27.7931Z" fill="black" fill-opacity="0.25" style="fill:black;fill-opacity:0.25;"/>
<path d="M117.018 36.3213H115.821L114.935 33.883H111.141L110.267 36.3213H109.214L112.266 27.7931H113.942L117.018 36.3213ZM111.512 32.872H114.576L113.044 28.6257L111.512 32.872Z" fill="black" fill-opacity="0.25" style="fill:black;fill-opacity:0.25;"/>
<path d="M100.6 27.7931H101.725V31.5874H106.13V27.7931H107.267V36.3213H106.13V32.5984H101.725V36.3213H100.6V27.7931Z" fill="black" fill-opacity="0.25" style="fill:black;fill-opacity:0.25;"/>
<path d="M94.7747 27.7931V36.3213H93.6375V32.9077H92.0815L89.7115 36.3213H88.335L90.9324 32.7055C90.302 32.5707 89.8192 32.309 89.4841 31.9204C89.1489 31.5319 88.9813 31.0046 88.9813 30.3385C88.9813 29.7358 89.113 29.2482 89.3763 28.8755C89.6397 28.5028 90.0067 28.2292 90.4775 28.0548C90.9483 27.8803 91.491 27.7931 92.1054 27.7931H94.7747ZM91.9857 31.8966H93.6375V28.816H92.1054C91.5388 28.816 91.072 28.931 90.705 29.1609C90.3459 29.383 90.1663 29.7755 90.1663 30.3385C90.1663 30.8698 90.3219 31.2623 90.6331 31.516C90.9523 31.7698 91.4032 31.8966 91.9857 31.8966Z" fill="black" fill-opacity="0.25" style="fill:black;fill-opacity:0.25;"/>
<path d="M80.4856 36.3213H79.2646V27.7931H80.3898V34.8345L85.1059 27.7931H86.3268V36.3213H85.1777V29.3156L80.4856 36.3213Z" fill="black" fill-opacity="0.25" style="fill:black;fill-opacity:0.25;"/>
<path d="M69.8838 27.7931H71.0089V31.5874H75.4138V27.7931H76.5509V36.3213H75.4138V32.5984H71.0089V36.3213H69.8838V27.7931Z" fill="black" fill-opacity="0.25" style="fill:black;fill-opacity:0.25;"/>
<path d="M62.0234 27.7931H67.338V28.816H63.1486V31.3971H66.7036V32.4081H63.1486V35.3103H67.3978V36.3213H62.0234V27.7931Z" fill="black" fill-opacity="0.25" style="fill:black;fill-opacity:0.25;"/>
<path d="M52.9561 30.172V27.7931H54.0932V30.172C54.0932 30.838 54.2568 31.3495 54.5839 31.7063C54.9191 32.0632 55.4098 32.2416 56.0562 32.2416C56.4472 32.2416 56.8223 32.198 57.1814 32.1107C57.5404 32.0156 57.8716 31.861 58.1748 31.6469V27.7931H59.312V36.3213H58.1748V32.5984C57.8477 32.8046 57.5045 32.9552 57.1454 33.0504C56.7943 33.1455 56.4273 33.1931 56.0442 33.1931C55.0627 33.1931 54.3007 32.9473 53.758 32.4557C53.2234 31.964 52.9561 31.2028 52.9561 30.172Z" fill="black" fill-opacity="0.25" style="fill:black;fill-opacity:0.25;"/>
<path d="M44.5676 36.3213H43.3467V27.7931H44.4718V34.8345L49.1879 27.7931H50.4088V36.3213H49.2597V29.3156L44.5676 36.3213Z" fill="black" fill-opacity="0.25" style="fill:black;fill-opacity:0.25;"/>
<path d="M33.9658 27.7931H35.091V31.5874H39.4958V27.7931H40.6329V36.3213H39.4958V32.5984H35.091V36.3213H33.9658V27.7931Z" fill="black" fill-opacity="0.25" style="fill:black;fill-opacity:0.25;"/>
<path d="M32.0103 36.3213H30.8133L29.9276 33.883H26.1332L25.2594 36.3213H24.2061L27.2583 27.7931H28.9341L32.0103 36.3213ZM26.5042 32.872H29.5685L28.0364 28.6257L26.5042 32.872Z" fill="black" fill-opacity="0.25" style="fill:black;fill-opacity:0.25;"/>
<path d="M17.6611 27.7931H20.4022C21.3757 27.7931 22.1298 27.9953 22.6645 28.3997C23.2071 28.7962 23.4784 29.4186 23.4784 30.2671C23.4784 30.9094 23.3428 31.4328 23.0714 31.8372C22.8081 32.2416 22.437 32.5389 21.9583 32.7292C21.4874 32.9116 20.9368 33.0028 20.3064 33.0028H18.7863V36.3213H17.6611V27.7931ZM20.3064 31.9918C20.9129 31.9918 21.4037 31.861 21.7787 31.5993C22.1538 31.3376 22.3413 30.8975 22.3413 30.279C22.3413 29.7636 22.1737 29.3909 21.8386 29.1609C21.5034 28.931 21.0246 28.816 20.4022 28.816H18.7863V31.9918H20.3064Z" fill="black" fill-opacity="0.25" style="fill:black;fill-opacity:0.25;"/>
<path d="M10.4316 27.7931H15.435V28.816H11.5568V36.3213H10.4316V27.7931Z" fill="black" fill-opacity="0.25" style="fill:black;fill-opacity:0.25;"/>
<path d="M4.10561 36.4403C3.33955 36.4403 2.6453 36.2698 2.02288 35.9288C1.40045 35.5878 0.905707 35.0922 0.538636 34.442C0.179545 33.7839 0 32.979 0 32.0275C0 31.0759 0.179545 30.279 0.538636 29.6367C0.905707 28.9865 1.40045 28.4988 2.02288 28.1737C2.6453 27.8486 3.33955 27.686 4.10561 27.686C4.88763 27.686 5.58586 27.8526 6.2003 28.1856C6.82273 28.5107 7.31349 28.9944 7.67258 29.6367C8.03167 30.279 8.21121 31.0799 8.21121 32.0394C8.21121 32.983 8.03167 33.7839 7.67258 34.442C7.31349 35.0922 6.82273 35.5878 6.2003 35.9288C5.58586 36.2698 4.88763 36.4403 4.10561 36.4403ZM4.10561 35.4292C4.65621 35.4292 5.15096 35.3182 5.58985 35.0962C6.02874 34.8742 6.37187 34.5173 6.61924 34.0257C6.8746 33.5262 7.00227 32.872 7.00227 32.0631C7.00227 31.2464 6.8746 30.5922 6.61924 30.1006C6.37187 29.609 6.02874 29.2521 5.58985 29.0301C5.15096 28.8081 4.65621 28.6971 4.10561 28.6971C3.555 28.6971 3.06025 28.8081 2.62136 29.0301C2.19045 29.2521 1.84732 29.609 1.59197 30.1006C1.33662 30.5922 1.20894 31.2464 1.20894 32.0631C1.20894 32.872 1.33662 33.5262 1.59197 34.0257C1.84732 34.5173 2.19045 34.8742 2.62136 35.0962C3.06025 35.3182 3.555 35.4292 4.10561 35.4292Z" fill="black" fill-opacity="0.25" style="fill:black;fill-opacity:0.25;"/>
<path d="M258.508 14.9076H263.822V15.9305H259.633V18.5116H263.188V19.5226H259.633V22.4248H263.882V23.4358H258.508V14.9076Z" fill="black" fill-opacity="0.25" style="fill:black;fill-opacity:0.25;"/>
<path d="M245.656 22.3534C246.047 22.3931 246.335 22.2702 246.518 21.9847C246.71 21.6993 246.853 21.3226 246.949 20.8548C247.069 20.26 247.148 19.4671 247.188 18.4759C247.228 17.4847 247.256 16.2953 247.272 14.9076H252.563V23.4358H251.426V15.9305H248.337C248.314 17.0803 248.282 18.0834 248.242 18.9398C248.202 19.7882 248.126 20.5059 248.014 21.0926C247.919 21.5367 247.783 21.9451 247.607 22.3178C247.432 22.6905 247.188 22.9838 246.877 23.1979C246.566 23.412 246.159 23.5072 245.656 23.4834V22.3534Z" fill="black" fill-opacity="0.25" style="fill:black;fill-opacity:0.25;"/>
<path d="M238.165 23.5548C237.319 23.5548 236.577 23.3803 235.938 23.0314C235.308 22.6825 234.817 22.183 234.466 21.5327C234.115 20.8746 233.939 20.0896 233.939 19.1777C233.939 17.8058 234.303 16.7353 235.029 15.9662C235.755 15.1891 236.792 14.8005 238.141 14.8005C238.723 14.8005 239.234 14.864 239.673 14.9908C240.12 15.1098 240.479 15.2525 240.75 15.419V16.4895C240.391 16.2596 239.976 16.0891 239.505 15.9781C239.043 15.8671 238.584 15.8116 238.129 15.8116C237.123 15.8116 236.377 16.0931 235.891 16.6561C235.404 17.2191 235.16 18.0596 235.16 19.1777C235.16 20.3036 235.424 21.1481 235.95 21.7111C236.477 22.2662 237.247 22.5437 238.261 22.5437C238.699 22.5437 239.126 22.4843 239.541 22.3653C239.964 22.2464 240.367 22.0442 240.75 21.7587V22.8292C240.519 23.0116 240.18 23.1781 239.733 23.3288C239.294 23.4794 238.771 23.5548 238.165 23.5548Z" fill="black" fill-opacity="0.25" style="fill:black;fill-opacity:0.25;"/>
<path d="M222.654 23.4358H221.433V14.9076H222.558V21.949L227.274 14.9076H228.495V23.4358H227.346V16.4301L222.654 23.4358Z" fill="black" fill-opacity="0.25" style="fill:black;fill-opacity:0.25;"/>
<path d="M209.133 17.2865V14.9076H210.27V17.2865C210.27 17.9525 210.434 18.464 210.761 18.8208C211.096 19.1777 211.587 19.3561 212.233 19.3561C212.624 19.3561 212.999 19.3125 213.358 19.2252C213.717 19.1301 214.048 18.9755 214.352 18.7614V14.9076H215.489V23.4358H214.352V19.7129C214.024 19.9191 213.681 20.0697 213.322 20.1649C212.971 20.26 212.604 20.3076 212.221 20.3076C211.239 20.3076 210.477 20.0618 209.935 19.5702C209.4 19.0785 209.133 18.3173 209.133 17.2865Z" fill="black" fill-opacity="0.25" style="fill:black;fill-opacity:0.25;"/>
<path d="M192.672 22.1393H192.181H192.169L192.181 22.1275L189.584 16.4776V23.4358H188.519V14.9076H190.087L192.756 20.8904L195.545 14.9076H197.005V23.4358H195.868V16.5728L193.235 22.1275L192.672 22.1393Z" fill="black" fill-opacity="0.25" style="fill:black;fill-opacity:0.25;"/>
<path d="M178.961 23.5548C178.195 23.5548 177.501 23.3843 176.878 23.0433C176.256 22.7023 175.761 22.2067 175.394 21.5565C175.035 20.8984 174.855 20.0935 174.855 19.142C174.855 18.1904 175.035 17.3935 175.394 16.7512C175.761 16.101 176.256 15.6133 176.878 15.2882C177.501 14.9631 178.195 14.8005 178.961 14.8005C179.743 14.8005 180.441 14.9671 181.056 15.3001C181.678 15.6252 182.169 16.1089 182.528 16.7512C182.887 17.3935 183.067 18.1944 183.067 19.1539C183.067 20.0975 182.887 20.8984 182.528 21.5565C182.169 22.2067 181.678 22.7023 181.056 23.0433C180.441 23.3843 179.743 23.5548 178.961 23.5548ZM178.961 22.5437C179.512 22.5437 180.006 22.4327 180.445 22.2107C180.884 21.9887 181.227 21.6318 181.475 21.1402C181.73 20.6407 181.858 19.9865 181.858 19.1777C181.858 18.3609 181.73 17.7067 181.475 17.2151C181.227 16.7235 180.884 16.3666 180.445 16.1446C180.006 15.9226 179.512 15.8116 178.961 15.8116C178.41 15.8116 177.916 15.9226 177.477 16.1446C177.046 16.3666 176.703 16.7235 176.447 17.2151C176.192 17.7067 176.064 18.3609 176.064 19.1777C176.064 19.9865 176.192 20.6407 176.447 21.1402C176.703 21.6318 177.046 21.9887 177.477 22.2107C177.916 22.4327 178.41 22.5437 178.961 22.5437Z" fill="black" fill-opacity="0.25" style="fill:black;fill-opacity:0.25;"/>
<path d="M164.04 15.9424V14.9076H170.468V15.9424H167.822V23.4358H166.685V15.9424H164.04Z" fill="black" fill-opacity="0.25" style="fill:black;fill-opacity:0.25;"/>
<path d="M146.676 14.9076H149.584C150.526 14.9076 151.24 15.0662 151.727 15.3834C152.222 15.7005 152.469 16.2358 152.469 16.9891C152.469 17.5997 152.314 18.0636 152.002 18.3807C151.691 18.69 151.276 18.9001 150.757 19.0111C151.42 19.0904 151.923 19.2847 152.266 19.594C152.609 19.8953 152.78 20.3552 152.78 20.9737C152.78 21.5605 152.641 22.0363 152.361 22.401C152.082 22.7658 151.699 23.0314 151.212 23.1979C150.726 23.3565 150.175 23.4358 149.56 23.4358H146.676V14.9076ZM149.501 18.5473C150.043 18.5473 150.482 18.4283 150.817 18.1904C151.16 17.9446 151.332 17.564 151.332 17.0486C151.332 16.6124 151.18 16.3191 150.877 16.1684C150.574 16.0098 150.143 15.9305 149.584 15.9305H147.801V18.5473H149.501ZM149.56 22.4248C150.167 22.4248 150.658 22.3217 151.033 22.1156C151.408 21.9094 151.595 21.5367 151.595 20.9975C151.595 20.4583 151.42 20.0856 151.069 19.8794C150.726 19.6653 150.179 19.5583 149.429 19.5583H147.801V22.4248H149.56Z" fill="black" fill-opacity="0.25" style="fill:black;fill-opacity:0.25;"/>
<path d="M133.946 24.7085H133.156C133.308 24.542 133.444 24.3319 133.563 24.0781C133.691 23.8244 133.767 23.6222 133.791 23.4715C133.623 23.4319 133.487 23.3486 133.384 23.2217C133.28 23.0949 133.228 22.9442 133.228 22.7697C133.228 22.5636 133.292 22.3931 133.42 22.2583C133.555 22.1156 133.735 22.0442 133.958 22.0442C134.182 22.0442 134.361 22.1195 134.497 22.2702C134.641 22.4208 134.712 22.623 134.712 22.8768C134.712 23.0988 134.672 23.3288 134.593 23.5667C134.513 23.8046 134.413 24.0226 134.293 24.2209C134.182 24.427 134.066 24.5896 133.946 24.7085Z" fill="black" fill-opacity="0.25" style="fill:black;fill-opacity:0.25;"/>
<path d="M127.561 14.9076V23.4358H126.424V20.0222H124.868L122.498 23.4358H121.121L123.719 19.82C123.088 19.6852 122.605 19.4235 122.27 19.0349C121.935 18.6464 121.767 18.1191 121.767 17.453C121.767 16.8503 121.899 16.3627 122.162 15.99C122.426 15.6173 122.793 15.3437 123.264 15.1693C123.734 14.9948 124.277 14.9076 124.892 14.9076H127.561ZM124.772 19.0111H126.424V15.9305H124.892C124.325 15.9305 123.858 16.0455 123.491 16.2754C123.132 16.4975 122.952 16.89 122.952 17.453C122.952 17.9843 123.108 18.3768 123.419 18.6305C123.738 18.8843 124.189 19.0111 124.772 19.0111Z" fill="black" fill-opacity="0.25" style="fill:black;fill-opacity:0.25;"/>
<path d="M110.039 23.4358H108.818V14.9076H109.944V21.949L114.66 14.9076H115.88V23.4358H114.731V16.4301L110.039 23.4358Z" fill="black" fill-opacity="0.25" style="fill:black;fill-opacity:0.25;"/>
<path d="M97.1533 14.9076H100.062C101.004 14.9076 101.718 15.0662 102.205 15.3834C102.699 15.7005 102.947 16.2358 102.947 16.9891C102.947 17.5997 102.791 18.0636 102.48 18.3807C102.169 18.69 101.754 18.9001 101.235 19.0111C101.897 19.0904 102.4 19.2847 102.743 19.594C103.086 19.8953 103.258 20.3552 103.258 20.9737C103.258 21.5605 103.118 22.0363 102.839 22.401C102.56 22.7658 102.177 23.0314 101.69 23.1979C101.203 23.3565 100.652 23.4358 100.038 23.4358H97.1533V14.9076ZM99.9782 18.5473C100.521 18.5473 100.96 18.4283 101.295 18.1904C101.638 17.9446 101.81 17.564 101.81 17.0486C101.81 16.6124 101.658 16.3191 101.355 16.1684C101.051 16.0098 100.621 15.9305 100.062 15.9305H98.2785V18.5473H99.9782ZM100.038 22.4248C100.644 22.4248 101.135 22.3217 101.51 22.1156C101.885 21.9094 102.073 21.5367 102.073 20.9975C102.073 20.4583 101.897 20.0856 101.546 19.8794C101.203 19.6653 100.656 19.5583 99.9063 19.5583H98.2785V22.4248H100.038Z" fill="black" fill-opacity="0.25" style="fill:black;fill-opacity:0.25;"/>
<path d="M85.415 15.9424V14.9076H91.8428V15.9424H89.1975V23.4358H88.0603V15.9424H85.415Z" fill="black" fill-opacity="0.25" style="fill:black;fill-opacity:0.25;"/>
<path d="M77.8025 23.5548C76.9566 23.5548 76.2145 23.3803 75.5761 23.0314C74.9457 22.6825 74.4549 22.183 74.1038 21.5327C73.7527 20.8746 73.5771 20.0896 73.5771 19.1777C73.5771 17.8058 73.9402 16.7353 74.6664 15.9662C75.3926 15.1891 76.4299 14.8005 77.7785 14.8005C78.361 14.8005 78.8717 14.864 79.3106 14.9908C79.7575 15.1098 80.1166 15.2525 80.3879 15.419V16.4895C80.0288 16.2596 79.6139 16.0891 79.1431 15.9781C78.6802 15.8671 78.2214 15.8116 77.7665 15.8116C76.7611 15.8116 76.015 16.0931 75.5282 16.6561C75.0414 17.2191 74.7981 18.0596 74.7981 19.1777C74.7981 20.3036 75.0614 21.1481 75.5881 21.7111C76.1147 22.2662 76.8848 22.5437 77.8982 22.5437C78.3371 22.5437 78.764 22.4843 79.179 22.3653C79.6019 22.2464 80.0049 22.0442 80.3879 21.7587V22.8292C80.1565 23.0116 79.8174 23.1781 79.3705 23.3288C78.9316 23.4794 78.4089 23.5548 77.8025 23.5548Z" fill="black" fill-opacity="0.25" style="fill:black;fill-opacity:0.25;"/>
<path d="M61.4266 25.4579H60.4092V22.4248H60.9957C61.3628 22.0918 61.6341 21.6081 61.8096 20.9737C61.9852 20.3393 62.1049 19.5266 62.1687 18.5354C62.2326 17.5362 62.2804 16.327 62.3124 14.9076H67.7825V22.4248H68.8837V25.4579H67.8424L67.7227 23.4358H61.5583L61.4266 25.4579ZM62.3004 22.4248H66.6454V15.9305H63.3657C63.3418 17.1358 63.2899 18.1587 63.2101 18.9992C63.1383 19.8398 63.0266 20.5376 62.8749 21.0926C62.7313 21.6398 62.5398 22.0838 62.3004 22.4248Z" fill="black" fill-opacity="0.25" style="fill:black;fill-opacity:0.25;"/>
<path d="M50.1309 14.9076H55.4454V15.9305H51.256V18.5116H54.811V19.5226H51.256V22.4248H55.5053V23.4358H50.1309V14.9076Z" fill="black" fill-opacity="0.25" style="fill:black;fill-opacity:0.25;"/>
<path d="M37.2793 22.3534C37.6703 22.3931 37.9576 22.2702 38.1411 21.9847C38.3326 21.6993 38.4763 21.3226 38.572 20.8548C38.6917 20.26 38.7715 19.4671 38.8114 18.4759C38.8513 17.4847 38.8792 16.2953 38.8952 14.9076H44.1858V23.4358H43.0487V15.9305H39.9605C39.9366 17.0803 39.9046 18.0834 39.8648 18.9398C39.8249 19.7882 39.749 20.5059 39.6373 21.0926C39.5416 21.5367 39.4059 21.9451 39.2304 22.3178C39.0548 22.6905 38.8114 22.9838 38.5002 23.1979C38.189 23.412 37.782 23.5072 37.2793 23.4834V22.3534Z" fill="black" fill-opacity="0.25" style="fill:black;fill-opacity:0.25;"/>
<path d="M29.7878 23.5548C28.9419 23.5548 28.1998 23.3803 27.5614 23.0314C26.931 22.6825 26.4403 22.183 26.0892 21.5327C25.7381 20.8746 25.5625 20.0896 25.5625 19.1777C25.5625 17.8058 25.9256 16.7353 26.6517 15.9662C27.3779 15.1891 28.4153 14.8005 29.7639 14.8005C30.3464 14.8005 30.8571 14.864 31.296 14.9908C31.7429 15.1098 32.1019 15.2525 32.3733 15.419V16.4895C32.0142 16.2596 31.5992 16.0891 31.1284 15.9781C30.6656 15.8671 30.2067 15.8116 29.7519 15.8116C28.7464 15.8116 28.0003 16.0931 27.5136 16.6561C27.0268 17.2191 26.7834 18.0596 26.7834 19.1777C26.7834 20.3036 27.0467 21.1481 27.5734 21.7111C28.1001 22.2662 28.8701 22.5437 29.8836 22.5437C30.3225 22.5437 30.7494 22.4843 31.1643 22.3653C31.5872 22.2464 31.9902 22.0442 32.3733 21.7587V22.8292C32.1418 23.0116 31.8027 23.1781 31.3558 23.3288C30.9169 23.4794 30.3943 23.5548 29.7878 23.5548Z" fill="black" fill-opacity="0.25" style="fill:black;fill-opacity:0.25;"/>
<path d="M16.507 23.5548C15.7409 23.5548 15.0467 23.3843 14.4242 23.0433C13.8018 22.7023 13.3071 22.2067 12.94 21.5565C12.5809 20.8984 12.4014 20.0935 12.4014 19.142C12.4014 18.1904 12.5809 17.3935 12.94 16.7512C13.3071 16.101 13.8018 15.6133 14.4242 15.2882C15.0467 14.9631 15.7409 14.8005 16.507 14.8005C17.289 14.8005 17.9872 14.9671 18.6017 15.3001C19.2241 15.6252 19.7149 16.1089 20.0739 16.7512C20.433 17.3935 20.6126 18.1944 20.6126 19.1539C20.6126 20.0975 20.433 20.8984 20.0739 21.5565C19.7149 22.2067 19.2241 22.7023 18.6017 23.0433C17.9872 23.3843 17.289 23.5548 16.507 23.5548ZM16.507 22.5437C17.0576 22.5437 17.5523 22.4327 17.9912 22.2107C18.4301 21.9887 18.7732 21.6318 19.0206 21.1402C19.276 20.6407 19.4036 19.9865 19.4036 19.1777C19.4036 18.3609 19.276 17.7067 19.0206 17.2151C18.7732 16.7235 18.4301 16.3666 17.9912 16.1446C17.5523 15.9226 17.0576 15.8116 16.507 15.8116C15.9564 15.8116 15.4616 15.9226 15.0227 16.1446C14.5918 16.3666 14.2487 16.7235 13.9933 17.2151C13.738 17.7067 13.6103 18.3609 13.6103 19.1777C13.6103 19.9865 13.738 20.6407 13.9933 21.1402C14.2487 21.6318 14.5918 21.9887 15.0227 22.2107C15.4616 22.4327 15.9564 22.5437 16.507 22.5437Z" fill="black" fill-opacity="0.25" style="fill:black;fill-opacity:0.25;"/>
<path d="M0.50293 14.9076H6.9546V23.4358H5.81748V15.9305H1.62808V23.4358H0.50293V14.9076Z" fill="black" fill-opacity="0.25" style="fill:black;fill-opacity:0.25;"/>
<path d="M259.264 2.02209H264.578V3.04501H260.389V5.62608H263.944V6.6371H260.389V9.53931H264.638V10.5503H259.264V2.02209Z" fill="black" fill-opacity="0.25" style="fill:black;fill-opacity:0.25;"/>
<path d="M247.404 10.5503V2.02209H248.529V5.32872H250.229C251.179 5.32872 251.909 5.52696 252.42 5.92344C252.93 6.31991 253.186 6.96221 253.186 7.85032C253.186 8.50054 253.054 9.02389 252.791 9.42037C252.527 9.81685 252.16 10.1063 251.689 10.2887C251.219 10.4631 250.676 10.5503 250.062 10.5503H247.404ZM254.335 2.03399H255.472V10.5503H254.335V2.03399ZM250.062 9.53931C250.628 9.53931 251.091 9.42037 251.45 9.18248C251.817 8.9446 252.001 8.5164 252.001 7.8979C252.001 7.36662 251.845 6.9741 251.534 6.72036C251.223 6.45868 250.776 6.32784 250.193 6.32784H248.529V9.53931H250.062Z" fill="black" fill-opacity="0.25" style="fill:black;fill-opacity:0.25;"/>
<path d="M236.946 2.02209H238.071V5.81639H242.476V2.02209H243.613V10.5503H242.476V6.82741H238.071V10.5503H236.946V2.02209Z" fill="black" fill-opacity="0.25" style="fill:black;fill-opacity:0.25;"/>
<path d="M227.447 2.02209H230.356C231.298 2.02209 232.012 2.18069 232.498 2.49787C232.993 2.81505 233.241 3.3503 233.241 4.1036C233.241 4.71418 233.085 5.17806 232.774 5.49524C232.463 5.80449 232.048 6.01463 231.529 6.12564C232.191 6.20494 232.694 6.39921 233.037 6.70846C233.38 7.00979 233.552 7.4697 233.552 8.08821C233.552 8.67499 233.412 9.15077 233.133 9.51553C232.854 9.88029 232.471 10.1459 231.984 10.3124C231.497 10.471 230.946 10.5503 230.332 10.5503H227.447V2.02209ZM230.272 5.66176C230.815 5.66176 231.254 5.54282 231.589 5.30493C231.932 5.05911 232.103 4.6785 232.103 4.16307C232.103 3.72695 231.952 3.43356 231.649 3.28289C231.345 3.1243 230.914 3.04501 230.356 3.04501H228.572V5.66176H230.272ZM230.332 9.53931C230.938 9.53931 231.429 9.43623 231.804 9.23006C232.179 9.02389 232.367 8.6512 232.367 8.11199C232.367 7.57278 232.191 7.2001 231.84 6.99393C231.497 6.77983 230.95 6.67278 230.2 6.67278H228.572V9.53931H230.332Z" fill="black" fill-opacity="0.25" style="fill:black;fill-opacity:0.25;"/>
<path d="M217.815 10.5503H216.594V2.02209H217.719V9.06354L222.435 2.02209H223.656V10.5503H222.507V3.54457L217.815 10.5503Z" fill="black" fill-opacity="0.25" style="fill:black;fill-opacity:0.25;"/>
<path d="M207.009 3.0569V2.02209H213.437V3.0569H210.791V10.5503H209.654V3.0569H207.009Z" fill="black" fill-opacity="0.25" style="fill:black;fill-opacity:0.25;"/>
<path d="M205.453 10.5503H204.256L203.37 8.11199H199.576L198.702 10.5503H197.648L200.701 2.02209H202.376L205.453 10.5503ZM199.947 7.10098H203.011L201.479 2.8547L199.947 7.10098Z" fill="black" fill-opacity="0.25" style="fill:black;fill-opacity:0.25;"/>
<path d="M190.949 2.02209H195.953V3.04501H192.074V10.5503H190.949V2.02209Z" fill="black" fill-opacity="0.25" style="fill:black;fill-opacity:0.25;"/>
<path d="M182 2.02209H187.315V3.04501H183.125V5.62608H186.68V6.6371H183.125V9.53931H187.374V10.5503H182V2.02209Z" fill="black" fill-opacity="0.25" style="fill:black;fill-opacity:0.25;"/>
<path d="M171.543 2.02209H172.668V5.81639H177.073V2.02209H178.21V10.5503H177.073V6.82741H172.668V10.5503H171.543V2.02209Z" fill="black" fill-opacity="0.25" style="fill:black;fill-opacity:0.25;"/>
<path d="M157.779 3.0569V2.02209H164.207V3.0569H161.562V10.5503H160.425V3.0569H157.779Z" fill="black" fill-opacity="0.25" style="fill:black;fill-opacity:0.25;"/>
<path d="M153.317 1.36785C153.117 1.36785 152.954 1.30441 152.826 1.17754C152.706 1.04274 152.646 0.876216 152.646 0.677977C152.646 0.487668 152.706 0.329076 152.826 0.202203C152.954 0.0674011 153.117 0 153.317 0C153.524 0 153.688 0.0674011 153.807 0.202203C153.927 0.329076 153.987 0.487668 153.987 0.677977C153.987 0.876216 153.927 1.04274 153.807 1.17754C153.688 1.30441 153.524 1.36785 153.317 1.36785ZM151.054 1.36785C150.847 1.36785 150.683 1.30441 150.564 1.17754C150.444 1.04274 150.384 0.876216 150.384 0.677977C150.384 0.487668 150.444 0.329076 150.564 0.202203C150.683 0.0674011 150.847 0 151.054 0C151.262 0 151.425 0.0674011 151.545 0.202203C151.665 0.329076 151.725 0.487668 151.725 0.677977C151.725 0.876216 151.665 1.04274 151.545 1.17754C151.425 1.30441 151.262 1.36785 151.054 1.36785ZM149.534 2.02204H154.849V3.04495H150.659V5.62602H154.214V6.63704H150.659V9.53926H154.909V10.5503H149.534V2.02204Z" fill="black" fill-opacity="0.25" style="fill:black;fill-opacity:0.25;"/>
<path d="M139.39 4.40096V2.02209H140.527V4.40096C140.527 5.06704 140.69 5.5785 141.018 5.93533C141.353 6.29216 141.843 6.47058 142.49 6.47058C142.881 6.47058 143.256 6.42696 143.615 6.33974C143.974 6.24458 144.305 6.08996 144.608 5.87586V2.02209H145.746V10.5503H144.608V6.82741C144.281 7.03357 143.938 7.18424 143.579 7.27939C143.228 7.37455 142.861 7.42212 142.478 7.42212C141.496 7.42212 140.734 7.17631 140.192 6.68467C139.657 6.19304 139.39 5.4318 139.39 4.40096Z" fill="black" fill-opacity="0.25" style="fill:black;fill-opacity:0.25;"/>
<path d="M130.607 2.02209H135.922V3.04501H131.733V5.62608H135.288V6.6371H131.733V9.53931H135.982V10.5503H130.607V2.02209Z" fill="black" fill-opacity="0.25" style="fill:black;fill-opacity:0.25;"/>
<path d="M119.91 9.46795C120.301 9.5076 120.588 9.38469 120.772 9.09922C120.963 8.81376 121.107 8.43711 121.203 7.96926C121.323 7.37455 121.402 6.58159 121.442 5.59039C121.482 4.5992 121.51 3.40977 121.526 2.02209H126.817V10.5503H125.68V3.04501H122.591C122.567 4.19479 122.536 5.19788 122.496 6.05427C122.456 6.90274 122.38 7.62036 122.268 8.20715C122.172 8.6512 122.037 9.05958 121.861 9.43226C121.686 9.80495 121.442 10.0983 121.131 10.3124C120.82 10.5265 120.413 10.6217 119.91 10.5979V9.46795Z" fill="black" fill-opacity="0.25" style="fill:black;fill-opacity:0.25;"/>
<path d="M111.167 2.02209H114.076C115.017 2.02209 115.731 2.18069 116.218 2.49787C116.713 2.81505 116.96 3.3503 116.96 4.1036C116.96 4.71418 116.805 5.17806 116.494 5.49524C116.182 5.80449 115.767 6.01463 115.249 6.12564C115.911 6.20494 116.414 6.39921 116.757 6.70846C117.1 7.00979 117.272 7.4697 117.272 8.08821C117.272 8.67499 117.132 9.15077 116.853 9.51553C116.573 9.88029 116.19 10.1459 115.704 10.3124C115.217 10.471 114.666 10.5503 114.052 10.5503H111.167V2.02209ZM113.992 5.66176C114.534 5.66176 114.973 5.54282 115.309 5.30493C115.652 5.05911 115.823 4.6785 115.823 4.16307C115.823 3.72695 115.672 3.43356 115.368 3.28289C115.065 3.1243 114.634 3.04501 114.076 3.04501H112.292V5.66176H113.992ZM114.052 9.53931C114.658 9.53931 115.149 9.43623 115.524 9.23006C115.899 9.02389 116.087 8.6512 116.087 8.11199C116.087 7.57278 115.911 7.2001 115.56 6.99393C115.217 6.77983 114.67 6.67278 113.92 6.67278H112.292V9.53931H114.052Z" fill="black" fill-opacity="0.25" style="fill:black;fill-opacity:0.25;"/>
<path d="M99.5714 10.6693C98.8054 10.6693 98.1111 10.4988 97.4887 10.1578C96.8663 9.81684 96.3715 9.32124 96.0045 8.67102C95.6454 8.01287 95.4658 7.20802 95.4658 6.25647C95.4658 5.30492 95.6454 4.508 96.0045 3.86571C96.3715 3.21549 96.8663 2.72782 97.4887 2.40271C98.1111 2.07759 98.8054 1.91504 99.5714 1.91504C100.353 1.91504 101.052 2.08156 101.666 2.4146C102.289 2.73971 102.779 3.22342 103.138 3.86571C103.497 4.508 103.677 5.30889 103.677 6.26837C103.677 7.21198 103.497 8.01287 103.138 8.67102C102.779 9.32124 102.289 9.81684 101.666 10.1578C101.052 10.4988 100.353 10.6693 99.5714 10.6693ZM99.5714 9.65825C100.122 9.65825 100.617 9.54724 101.056 9.32521C101.495 9.10318 101.838 8.74635 102.085 8.25472C102.34 7.75516 102.468 7.10097 102.468 6.29215C102.468 5.47541 102.34 4.82122 102.085 4.32959C101.838 3.83796 101.495 3.48113 101.056 3.2591C100.617 3.03707 100.122 2.92606 99.5714 2.92606C99.0208 2.92606 98.5261 3.03707 98.0872 3.2591C97.6563 3.48113 97.3131 3.83796 97.0578 4.32959C96.8024 4.82122 96.6748 5.47541 96.6748 6.29215C96.6748 7.10097 96.8024 7.75516 97.0578 8.25472C97.3131 8.74635 97.6563 9.10318 98.0872 9.32521C98.5261 9.54724 99.0208 9.65825 99.5714 9.65825Z" fill="black" fill-opacity="0.25" style="fill:black;fill-opacity:0.25;"/>
<path d="M86.5166 2.02209H89.4252C90.3669 2.02209 91.081 2.18069 91.5678 2.49787C92.0626 2.81505 92.3099 3.3503 92.3099 4.1036C92.3099 4.71418 92.1543 5.17806 91.8431 5.49524C91.5319 5.80449 91.117 6.01463 90.5983 6.12564C91.2606 6.20494 91.7633 6.39921 92.1064 6.70846C92.4496 7.00979 92.6211 7.4697 92.6211 8.08821C92.6211 8.67499 92.4815 9.15077 92.2022 9.51553C91.9229 9.88029 91.5399 10.1459 91.0531 10.3124C90.5663 10.471 90.0157 10.5503 89.4013 10.5503H86.5166V2.02209ZM89.3415 5.66176C89.8841 5.66176 90.323 5.54282 90.6581 5.30493C91.0012 5.05911 91.1728 4.6785 91.1728 4.16307C91.1728 3.72695 91.0212 3.43356 90.718 3.28289C90.4147 3.1243 89.9838 3.04501 89.4252 3.04501H87.6418V5.66176H89.3415ZM89.4013 9.53931C90.0078 9.53931 90.4985 9.43623 90.8736 9.23006C91.2486 9.02389 91.4361 8.6512 91.4361 8.11199C91.4361 7.57278 91.2606 7.2001 90.9095 6.99393C90.5663 6.77983 90.0197 6.67278 89.2696 6.67278H87.6418V9.53931H89.4013Z" fill="black" fill-opacity="0.25" style="fill:black;fill-opacity:0.25;"/>
<path d="M76.9326 3.0569V2.02209H83.3603V3.0569H80.715V10.5503H79.5779V3.0569H76.9326Z" fill="black" fill-opacity="0.25" style="fill:black;fill-opacity:0.25;"/>
<path d="M71.4753 10.6693C70.6294 10.6693 69.8873 10.4948 69.2489 10.1459C68.6185 9.79702 68.1278 9.29746 67.7767 8.64723C67.4256 7.98908 67.25 7.20405 67.25 6.29215C67.25 4.92034 67.6131 3.84985 68.3392 3.08068C69.0654 2.30359 70.1028 1.91504 71.4514 1.91504C72.0339 1.91504 72.5446 1.97848 72.9835 2.10535C73.4304 2.22429 73.7894 2.36702 74.0608 2.53354V3.60403C73.7017 3.37408 73.2867 3.20359 72.8159 3.09258C72.3531 2.98156 71.8942 2.92606 71.4394 2.92606C70.4339 2.92606 69.6878 3.20756 69.2011 3.77055C68.7143 4.33355 68.4709 5.17409 68.4709 6.29215C68.4709 7.41815 68.7342 8.26265 69.2609 8.82565C69.7876 9.38072 70.5576 9.65825 71.5711 9.65825C72.01 9.65825 72.4369 9.59878 72.8518 9.47984C73.2748 9.36089 73.6777 9.15869 74.0608 8.87322V9.94371C73.8293 10.1261 73.4902 10.2926 73.0433 10.4433C72.6045 10.5939 72.0818 10.6693 71.4753 10.6693Z" fill="black" fill-opacity="0.25" style="fill:black;fill-opacity:0.25;"/>
<path d="M58.5898 3.0569V2.02209H65.0176V3.0569H62.3723V10.5503H61.2351V3.0569H58.5898Z" fill="black" fill-opacity="0.25" style="fill:black;fill-opacity:0.25;"/>
<path d="M52.2531 10.6693C51.487 10.6693 50.7928 10.4988 50.1703 10.1578C49.5479 9.81684 49.0532 9.32124 48.6861 8.67102C48.327 8.01287 48.1475 7.20802 48.1475 6.25647C48.1475 5.30492 48.327 4.508 48.6861 3.86571C49.0532 3.21549 49.5479 2.72782 50.1703 2.40271C50.7928 2.07759 51.487 1.91504 52.2531 1.91504C53.0351 1.91504 53.7333 2.08156 54.3478 2.4146C54.9702 2.73971 55.4609 3.22342 55.82 3.86571C56.1791 4.508 56.3587 5.30889 56.3587 6.26837C56.3587 7.21198 56.1791 8.01287 55.82 8.67102C55.4609 9.32124 54.9702 9.81684 54.3478 10.1578C53.7333 10.4988 53.0351 10.6693 52.2531 10.6693ZM52.2531 9.65825C52.8037 9.65825 53.2984 9.54724 53.7373 9.32521C54.1762 9.10318 54.5193 8.74635 54.7667 8.25472C55.0221 7.75516 55.1497 7.10097 55.1497 6.29215C55.1497 5.47541 55.0221 4.82122 54.7667 4.32959C54.5193 3.83796 54.1762 3.48113 53.7373 3.2591C53.2984 3.03707 52.8037 2.92606 52.2531 2.92606C51.7025 2.92606 51.2077 3.03707 50.7688 3.2591C50.3379 3.48113 49.9948 3.83796 49.7394 4.32959C49.4841 4.82122 49.3564 5.47541 49.3564 6.29215C49.3564 7.10097 49.4841 7.75516 49.7394 8.25472C49.9948 8.74635 50.3379 9.10318 50.7688 9.32521C51.2077 9.54724 51.7025 9.65825 52.2531 9.65825Z" fill="black" fill-opacity="0.25" style="fill:black;fill-opacity:0.25;"/>
<path d="M39.5488 2.02209H42.2899C43.2634 2.02209 44.0175 2.2243 44.5522 2.62871C45.0948 3.02518 45.3661 3.64765 45.3661 4.49612C45.3661 5.13841 45.2304 5.66176 44.9591 6.06617C44.6958 6.47058 44.3247 6.76793 43.846 6.95824C43.3751 7.14062 42.8245 7.23181 42.1941 7.23181H40.674V10.5503H39.5488V2.02209ZM42.1941 6.2208C42.8006 6.2208 43.2914 6.08996 43.6664 5.82828C44.0415 5.56661 44.229 5.12652 44.229 4.50801C44.229 3.99259 44.0614 3.6199 43.7263 3.38994C43.3911 3.15999 42.9123 3.04501 42.2899 3.04501H40.674V6.2208H42.1941Z" fill="black" fill-opacity="0.25" style="fill:black;fill-opacity:0.25;"/>
<path d="M36.5137 10.5503H35.1132L32.1208 6.89877H31.2111V10.5503H30.0859V2.02209H31.2111V5.88775H32.049L35.1132 2.02209H36.382L32.9946 6.28027L36.5137 10.5503Z" fill="black" fill-opacity="0.25" style="fill:black;fill-opacity:0.25;"/>
<path d="M19.6279 2.02209H20.7531V5.81639H25.1579V2.02209H26.2951V10.5503H25.1579V6.82741H20.7531V10.5503H19.6279V2.02209Z" fill="black" fill-opacity="0.25" style="fill:black;fill-opacity:0.25;"/>
<path d="M16.5953 10.5503H15.3983L14.5125 8.11199H10.7181L9.84435 10.5503H8.79102L11.8433 2.02209H13.519L16.5953 10.5503ZM11.0892 7.10098H14.1534L12.6213 2.8547L11.0892 7.10098Z" fill="black" fill-opacity="0.25" style="fill:black;fill-opacity:0.25;"/>
<path d="M0.50293 10.5503V2.02209H5.73369V3.04501H1.62808V5.44766H3.32778C4.27737 5.44766 5.00753 5.64194 5.51823 6.03049C6.02894 6.41903 6.28429 7.04547 6.28429 7.90979C6.28429 8.54415 6.15263 9.05561 5.88929 9.44416C5.62596 9.83271 5.25889 10.1142 4.78808 10.2887C4.31727 10.4631 3.77465 10.5503 3.1602 10.5503H0.50293ZM3.1602 9.53931C3.72677 9.53931 4.1896 9.42434 4.54869 9.19438C4.91576 8.96442 5.09929 8.55208 5.09929 7.95737C5.09929 7.44988 4.94369 7.07322 4.63248 6.82741C4.32126 6.58159 3.87439 6.45868 3.29187 6.45868H1.62808V9.53931H3.1602Z" fill="black" fill-opacity="0.25" style="fill:black;fill-opacity:0.25;"/>
</svg>
