<svg width="197" height="95" viewBox="0 0 197 95" fill="none" xmlns="http://www.w3.org/2000/svg">
<path d="M190.071 93.1423V85.307H191.1V92.2134H194.931V85.307H195.971V92.2134H197V95H196.037L195.917 93.1423H190.071Z" fill="black" fill-opacity="0.25" style="fill:black;fill-opacity:0.25;"/>
<path d="M180.632 89.2191C180.632 89.7436 180.738 90.1625 180.95 90.4758C181.162 90.7891 181.45 91.0185 181.815 91.1642C182.187 91.3027 182.599 91.3828 183.052 91.4047V87.0444C182.599 87.0663 182.187 87.1501 181.815 87.2958C181.45 87.4342 181.162 87.66 180.95 87.9733C180.738 88.2793 180.632 88.6945 180.632 89.2191ZM186.511 89.2409C186.511 88.7091 186.405 88.2902 186.193 87.9842C185.981 87.671 185.693 87.4415 185.328 87.2958C184.964 87.1501 184.551 87.0699 184.091 87.0554V91.4156C184.551 91.3937 184.964 91.3136 185.328 91.1752C185.693 91.0295 185.981 90.8036 186.193 90.4976C186.405 90.1844 186.511 89.7655 186.511 89.2409ZM183.052 85.2195H184.091V86.2248C184.756 86.2394 185.35 86.3596 185.876 86.5855C186.408 86.8113 186.828 87.1428 187.134 87.5799C187.441 88.0097 187.594 88.5525 187.594 89.2082C187.594 89.8565 187.441 90.4029 187.134 90.8473C186.828 91.2845 186.408 91.6196 185.876 91.8527C185.35 92.0785 184.756 92.2024 184.091 92.2242V93.2515H183.052V92.2242C182.388 92.2097 181.789 92.0931 181.256 91.8746C180.731 91.6487 180.315 91.3172 180.009 90.8801C179.702 90.443 179.549 89.9003 179.549 89.2519C179.549 88.5962 179.702 88.0498 180.009 87.6127C180.315 87.1683 180.731 86.8332 181.256 86.6073C181.789 86.3742 182.388 86.2467 183.052 86.2248V85.2195Z" fill="black" fill-opacity="0.25" style="fill:black;fill-opacity:0.25;"/>
<path d="M173.123 91.9512H172.674H172.663L172.674 91.9402L170.298 86.7495V93.1423H169.324V85.307H170.758L173.199 90.8037L175.75 85.307H177.085V93.1423H176.045V86.8369L173.637 91.9402L173.123 91.9512Z" fill="black" fill-opacity="0.25" style="fill:black;fill-opacity:0.25;"/>
<path d="M157.89 85.307H160.55C161.411 85.307 162.064 85.4527 162.509 85.7441C162.961 86.0355 163.188 86.5273 163.188 87.2194C163.188 87.7804 163.045 88.2065 162.761 88.4979C162.476 88.7821 162.097 88.9751 161.622 89.0771C162.228 89.15 162.688 89.3285 163.001 89.6126C163.315 89.8894 163.472 90.312 163.472 90.8802C163.472 91.4193 163.344 91.8564 163.089 92.1916C162.834 92.5267 162.483 92.7707 162.038 92.9237C161.593 93.0694 161.09 93.1423 160.528 93.1423H157.89V85.307ZM160.473 88.6509C160.969 88.6509 161.371 88.5417 161.677 88.3231C161.991 88.0973 162.148 87.7476 162.148 87.274C162.148 86.8733 162.009 86.6038 161.732 86.4654C161.454 86.3197 161.06 86.2468 160.55 86.2468H158.919V88.6509H160.473ZM160.528 92.2134C161.082 92.2134 161.531 92.1187 161.874 91.9293C162.217 91.7399 162.389 91.3975 162.389 90.9021C162.389 90.4067 162.228 90.0643 161.907 89.8749C161.593 89.6782 161.093 89.5798 160.407 89.5798H158.919V92.2134H160.528Z" fill="black" fill-opacity="0.25" style="fill:black;fill-opacity:0.25;"/>
<path d="M146.341 93.1423H145.225V85.307H146.254V91.7763L150.566 85.307H151.683V93.1423H150.632V86.7058L146.341 93.1423Z" fill="black" fill-opacity="0.25" style="fill:black;fill-opacity:0.25;"/>
<path d="M134.519 92.1151C134.971 92.1588 135.325 92.0932 135.581 91.9184C135.836 91.7362 136.048 91.4995 136.215 91.2081L133.304 85.307H134.475L136.741 90.0278L138.7 85.307H139.762L137.277 91.0223C137.073 91.5031 136.85 91.9074 136.609 92.2353C136.369 92.5631 136.08 92.8035 135.745 92.9565C135.416 93.1095 135.008 93.1714 134.519 93.1423V92.1151Z" fill="black" fill-opacity="0.25" style="fill:black;fill-opacity:0.25;"/>
<path d="M126.163 85.307H128.67C129.56 85.307 130.25 85.4928 130.739 85.8643C131.235 86.2286 131.483 86.8005 131.483 87.58C131.483 88.1701 131.359 88.6509 131.111 89.0225C130.87 89.394 130.531 89.6672 130.093 89.8421C129.662 90.0096 129.159 90.0934 128.582 90.0934H127.192V93.1423H126.163V85.307ZM128.582 89.1646C129.137 89.1646 129.586 89.0443 129.929 88.8039C130.272 88.5635 130.443 88.1592 130.443 87.5909C130.443 87.1174 130.29 86.775 129.983 86.5637C129.677 86.3524 129.239 86.2468 128.67 86.2468H127.192V89.1646H128.582Z" fill="black" fill-opacity="0.25" style="fill:black;fill-opacity:0.25;"/>
<path d="M119.939 93.2515C119.239 93.2515 118.604 93.0949 118.034 92.7816C117.465 92.4684 117.013 92.013 116.677 91.4157C116.349 90.811 116.185 90.0715 116.185 89.1973C116.185 88.3231 116.349 87.5909 116.677 87.0008C117.013 86.4034 117.465 85.9554 118.034 85.6567C118.604 85.358 119.239 85.2086 119.939 85.2086C120.654 85.2086 121.293 85.3616 121.855 85.6676C122.424 85.9663 122.873 86.4107 123.201 87.0008C123.529 87.5909 123.694 88.3267 123.694 89.2082C123.694 90.0752 123.529 90.811 123.201 91.4157C122.873 92.013 122.424 92.4684 121.855 92.7816C121.293 93.0949 120.654 93.2515 119.939 93.2515ZM119.939 92.3227C120.443 92.3227 120.895 92.2207 121.296 92.0167C121.698 91.8127 122.012 91.4849 122.238 91.0332C122.471 90.5742 122.588 89.9732 122.588 89.2301C122.588 88.4797 122.471 87.8787 122.238 87.427C122.012 86.9753 121.698 86.6475 121.296 86.4435C120.895 86.2395 120.443 86.1375 119.939 86.1375C119.436 86.1375 118.983 86.2395 118.582 86.4435C118.188 86.6475 117.874 86.9753 117.64 87.427C117.407 87.8787 117.29 88.4797 117.29 89.2301C117.29 89.9732 117.407 90.5742 117.64 91.0332C117.874 91.4849 118.188 91.8127 118.582 92.0167C118.983 92.2207 119.436 92.3227 119.939 92.3227Z" fill="black" fill-opacity="0.25" style="fill:black;fill-opacity:0.25;"/>
<path d="M108.812 86.2577V85.307H114.691V86.2577H112.271V93.1423H111.232V86.2577H108.812Z" fill="black" fill-opacity="0.25" style="fill:black;fill-opacity:0.25;"/>
<path d="M101.141 93.1423H100.024V85.307H101.053V91.7763L105.366 85.307H106.483V93.1423H105.432V86.7058L101.141 93.1423Z" fill="black" fill-opacity="0.25" style="fill:black;fill-opacity:0.25;"/>
<path d="M90.7566 95H89.8262V92.2134H90.3625C90.6982 91.9074 90.9463 91.463 91.1069 90.8802C91.2674 90.2974 91.3769 89.5507 91.4352 88.64C91.4936 87.7221 91.5374 86.6111 91.5666 85.307H96.569V92.2134H97.576V95H96.6237L96.5142 93.1423H90.877L90.7566 95ZM91.5557 92.2134H95.5291V86.2468H92.5299C92.508 87.3542 92.4605 88.294 92.3876 89.0662C92.3219 89.8384 92.2197 90.4795 92.0811 90.9895C91.9497 91.4922 91.7746 91.9002 91.5557 92.2134Z" fill="black" fill-opacity="0.25" style="fill:black;fill-opacity:0.25;"/>
<path d="M82.9453 85.307H87.8054V86.2468H83.9742V88.6182H87.2252V89.547H83.9742V92.2134H87.8601V93.1423H82.9453V85.307Z" fill="black" fill-opacity="0.25" style="fill:black;fill-opacity:0.25;"/>
<path d="M75.1689 85.307H77.6756C78.5659 85.307 79.2555 85.4928 79.7444 85.8643C80.2406 86.2286 80.4888 86.8005 80.4888 87.58C80.4888 88.1701 80.3647 88.6509 80.1166 89.0225C79.8758 89.394 79.5364 89.6672 79.0986 89.8421C78.6681 90.0096 78.1645 90.0934 77.588 90.0934H76.1979V93.1423H75.1689V85.307ZM77.588 89.1646C78.1426 89.1646 78.5914 89.0443 78.9344 88.8039C79.2774 88.5635 79.4489 88.1592 79.4489 87.5909C79.4489 87.1174 79.2956 86.775 78.9891 86.5637C78.6826 86.3524 78.2448 86.2468 77.6756 86.2468H76.1979V89.1646H77.588Z" fill="black" fill-opacity="0.25" style="fill:black;fill-opacity:0.25;"/>
<path d="M72.9406 93.1423H71.6599L68.9233 89.7874H68.0914V93.1423H67.0625V85.307H68.0914V88.8586H68.8577L71.6599 85.307H72.8202L69.7224 89.2192L72.9406 93.1423Z" fill="black" fill-opacity="0.25" style="fill:black;fill-opacity:0.25;"/>
<path d="M56.3566 92.1151C56.8091 92.1588 57.163 92.0932 57.4184 91.9184C57.6738 91.7362 57.8854 91.4995 58.0533 91.2081L55.1416 85.307H56.3128L58.5787 90.0278L60.538 85.307H61.5998L59.115 91.0223C58.9107 91.5031 58.6881 91.9074 58.4473 92.2353C58.2065 92.5631 57.9183 92.8035 57.5826 92.9565C57.2542 93.1095 56.8455 93.1714 56.3566 93.1423V92.1151Z" fill="black" fill-opacity="0.25" style="fill:black;fill-opacity:0.25;"/>
<path d="M48.8921 91.9512H48.4433H48.4323L48.4433 91.9402L46.068 86.7495V93.1423H45.0938V85.307H46.5277L48.9687 90.8037L51.5191 85.307H52.8545V93.1423H51.8147V86.8369L49.4065 91.9402L48.8921 91.9512Z" fill="black" fill-opacity="0.25" style="fill:black;fill-opacity:0.25;"/>
<path d="M37.4561 85.307H42.3161V86.2468H38.485V88.6182H41.736V89.547H38.485V92.2134H42.3709V93.1423H37.4561V85.307Z" fill="black" fill-opacity="0.25" style="fill:black;fill-opacity:0.25;"/>
<path d="M31.233 93.2515C30.5325 93.2515 29.8976 93.0949 29.3284 92.7816C28.7592 92.4684 28.3068 92.013 27.9711 91.4157C27.6427 90.811 27.4785 90.0715 27.4785 89.1973C27.4785 88.3231 27.6427 87.5909 27.9711 87.0008C28.3068 86.4034 28.7592 85.9554 29.3284 85.6567C29.8976 85.358 30.5325 85.2086 31.233 85.2086C31.9482 85.2086 32.5867 85.3616 33.1486 85.6676C33.7178 85.9663 34.1666 86.4107 34.495 87.0008C34.8234 87.5909 34.9875 88.3267 34.9875 89.2082C34.9875 90.0752 34.8234 90.811 34.495 91.4157C34.1666 92.013 33.7178 92.4684 33.1486 92.7816C32.5867 93.0949 31.9482 93.2515 31.233 93.2515ZM31.233 92.3227C31.7366 92.3227 32.189 92.2207 32.5904 92.0167C32.9917 91.8127 33.3055 91.4849 33.5317 91.0332C33.7652 90.5742 33.882 89.9732 33.882 89.2301C33.882 88.4797 33.7652 87.8787 33.5317 87.427C33.3055 86.9753 32.9917 86.6475 32.5904 86.4435C32.189 86.2395 31.7366 86.1375 31.233 86.1375C30.7295 86.1375 30.2771 86.2395 29.8757 86.4435C29.4817 86.6475 29.1679 86.9753 28.9343 87.427C28.7008 87.8787 28.5841 88.4797 28.5841 89.2301C28.5841 89.9732 28.7008 90.5742 28.9343 91.0332C29.1679 91.4849 29.4817 91.8127 29.8757 92.0167C30.2771 92.2207 30.7295 92.3227 31.233 92.3227Z" fill="black" fill-opacity="0.25" style="fill:black;fill-opacity:0.25;"/>
<path d="M19.8418 85.307H22.5017C23.3628 85.307 24.0159 85.4527 24.4611 85.7441C24.9135 86.0355 25.1397 86.5273 25.1397 87.2194C25.1397 87.7804 24.9974 88.2065 24.7128 88.4979C24.4282 88.7821 24.0488 88.9751 23.5744 89.0771C24.1801 89.15 24.6398 89.3285 24.9536 89.6126C25.2674 89.8894 25.4243 90.312 25.4243 90.8802C25.4243 91.4193 25.2966 91.8564 25.0412 92.1916C24.7858 92.5267 24.4355 92.7707 23.9904 92.9237C23.5452 93.0694 23.0417 93.1423 22.4798 93.1423H19.8418V85.307ZM22.4251 88.6509C22.9213 88.6509 23.3227 88.5417 23.6292 88.3231C23.9429 88.0973 24.0998 87.7476 24.0998 87.274C24.0998 86.8733 23.9612 86.6038 23.6839 86.4654C23.4066 86.3197 23.0125 86.2468 22.5017 86.2468H20.8707V88.6509H22.4251ZM22.4798 92.2134C23.0344 92.2134 23.4832 92.1187 23.8262 91.9293C24.1692 91.7399 24.3406 91.3975 24.3406 90.9021C24.3406 90.4067 24.1801 90.0643 23.859 89.8749C23.5452 89.6782 23.0454 89.5798 22.3594 89.5798H20.8707V92.2134H22.4798Z" fill="black" fill-opacity="0.25" style="fill:black;fill-opacity:0.25;"/>
<path d="M14.8083 93.2515C14.0348 93.2515 13.3561 93.0913 12.7723 92.7707C12.1958 92.4502 11.7471 91.9912 11.426 91.3938C11.1049 90.7891 10.9443 90.0679 10.9443 89.2301C10.9443 87.9697 11.2764 86.9862 11.9404 86.2796C12.6045 85.5656 13.5532 85.2086 14.7864 85.2086C15.3191 85.2086 15.7862 85.2669 16.1875 85.3835C16.5962 85.4927 16.9246 85.6239 17.1727 85.7769V86.7604C16.8443 86.5491 16.4648 86.3925 16.0343 86.2905C15.611 86.1885 15.1914 86.1375 14.7755 86.1375C13.856 86.1375 13.1737 86.3961 12.7286 86.9134C12.2834 87.4306 12.0608 88.2029 12.0608 89.2301C12.0608 90.2646 12.3017 91.0405 12.7833 91.5577C13.2649 92.0677 13.9691 92.3227 14.8959 92.3227C15.2972 92.3227 15.6877 92.268 16.0671 92.1587C16.4539 92.0495 16.8224 91.8637 17.1727 91.6014V92.5849C16.961 92.7525 16.6509 92.9055 16.2423 93.0439C15.8409 93.1823 15.3629 93.2515 14.8083 93.2515Z" fill="black" fill-opacity="0.25" style="fill:black;fill-opacity:0.25;"/>
<path d="M5.8888 93.1423H4.60811L1.87158 89.7874H1.03968V93.1423H0.0107422V85.307H1.03968V88.8586H1.8059L4.60811 85.307H5.7684L2.67065 89.2192L5.8888 93.1423Z" fill="black" fill-opacity="0.25" style="fill:black;fill-opacity:0.25;"/>
<path d="M188.661 81.2209V73.3856H189.69V76.4236H191.244C192.113 76.4236 192.781 76.6057 193.248 76.97C193.715 77.3342 193.948 77.9243 193.948 78.7403C193.948 79.3377 193.828 79.8185 193.587 80.1828C193.346 80.547 193.01 80.8129 192.58 80.9805C192.149 81.1408 191.653 81.2209 191.091 81.2209H188.661ZM191.091 80.292C191.609 80.292 192.033 80.1828 192.361 79.9642C192.697 79.7456 192.864 79.3522 192.864 78.784C192.864 78.3032 192.722 77.9425 192.438 77.7021C192.153 77.4617 191.744 77.3415 191.212 77.3415H189.69V80.292H191.091Z" fill="black" fill-opacity="0.25" style="fill:black;fill-opacity:0.25;"/>
<path d="M183.846 81.3303C183.073 81.3303 182.394 81.17 181.81 80.8494C181.234 80.5289 180.785 80.0699 180.464 79.4725C180.143 78.8679 179.982 78.1466 179.982 77.3088C179.982 76.0485 180.314 75.065 180.979 74.3583C181.643 73.6443 182.591 73.2874 183.824 73.2874C184.357 73.2874 184.824 73.3456 185.226 73.4622C185.634 73.5715 185.963 73.7026 186.211 73.8556V74.8391C185.882 74.6278 185.503 74.4712 185.072 74.3692C184.649 74.2672 184.23 74.2162 183.814 74.2162C182.894 74.2162 182.212 74.4748 181.767 74.9921C181.321 75.5094 181.099 76.2816 181.099 77.3088C181.099 78.3433 181.34 79.1192 181.821 79.6364C182.303 80.1464 183.007 80.4014 183.934 80.4014C184.335 80.4014 184.726 80.3468 185.105 80.2375C185.492 80.1282 185.86 79.9424 186.211 79.6802V80.6637C185.999 80.8312 185.689 80.9842 185.28 81.1226C184.879 81.2611 184.401 81.3303 183.846 81.3303Z" fill="black" fill-opacity="0.25" style="fill:black;fill-opacity:0.25;"/>
<path d="M173.238 73.3856H178.098V74.3254H174.267V76.6968H177.518V77.6256H174.267V80.292H178.153V81.2209H173.238V73.3856Z" fill="black" fill-opacity="0.25" style="fill:black;fill-opacity:0.25;"/>
<path d="M165.239 74.3363V73.3856H171.117V74.3363H168.698V81.2209H167.658V74.3363H165.239Z" fill="black" fill-opacity="0.25" style="fill:black;fill-opacity:0.25;"/>
<path d="M157.787 81.2209H156.671V73.3856H157.7V79.8549L162.013 73.3856H163.129V81.2209H162.078V74.7844L157.787 81.2209Z" fill="black" fill-opacity="0.25" style="fill:black;fill-opacity:0.25;"/>
<path d="M148.673 74.3363V73.3856H154.551V74.3363H152.132V81.2209H151.092V74.3363H148.673Z" fill="black" fill-opacity="0.25" style="fill:black;fill-opacity:0.25;"/>
<path d="M148.015 81.2209H146.92L146.11 78.9807H142.64L141.841 81.2209H140.878L143.669 73.3856H145.202L148.015 81.2209ZM142.98 78.0518H145.782L144.381 74.1506L142.98 78.0518Z" fill="black" fill-opacity="0.25" style="fill:black;fill-opacity:0.25;"/>
<path d="M134.674 73.3856H137.18C138.071 73.3856 138.76 73.5714 139.249 73.9429C139.746 74.3072 139.994 74.8791 139.994 75.6586C139.994 76.2487 139.87 76.7295 139.621 77.1011C139.381 77.4726 139.041 77.7458 138.603 77.9207C138.173 78.0883 137.669 78.172 137.093 78.172H135.703V81.2209H134.674V73.3856ZM137.093 77.2432C137.648 77.2432 138.096 77.123 138.439 76.8825C138.782 76.6421 138.954 76.2378 138.954 75.6695C138.954 75.196 138.801 74.8536 138.494 74.6423C138.188 74.4311 137.75 74.3254 137.18 74.3254H135.703V77.2432H137.093Z" fill="black" fill-opacity="0.25" style="fill:black;fill-opacity:0.25;"/>
<path d="M127 81.2209V73.3856H131.783V74.3254H128.029V76.5328H129.583C130.452 76.5328 131.119 76.7113 131.586 77.0683C132.053 77.4253 132.287 78.0008 132.287 78.7949C132.287 79.3777 132.167 79.8476 131.926 80.2046C131.685 80.5616 131.349 80.8202 130.919 80.9805C130.488 81.1408 129.992 81.2209 129.43 81.2209H127ZM129.43 80.292C129.948 80.292 130.371 80.1864 130.7 79.9751C131.035 79.7639 131.203 79.385 131.203 78.8386C131.203 78.3724 131.061 78.0263 130.776 77.8005C130.492 77.5746 130.083 77.4617 129.55 77.4617H128.029V80.292H129.43Z" fill="black" fill-opacity="0.25" style="fill:black;fill-opacity:0.25;"/>
<path d="M120.996 81.3303C120.295 81.3303 119.66 81.1736 119.091 80.8604C118.522 80.5471 118.069 80.0918 117.734 79.4944C117.405 78.8897 117.241 78.1503 117.241 77.276C117.241 76.4018 117.405 75.6696 117.734 75.0795C118.069 74.4821 118.522 74.0341 119.091 73.7354C119.66 73.4367 120.295 73.2874 120.996 73.2874C121.711 73.2874 122.349 73.4403 122.911 73.7463C123.481 74.045 123.929 74.4894 124.258 75.0795C124.586 75.6696 124.75 76.4054 124.75 77.287C124.75 78.1539 124.586 78.8897 124.258 79.4944C123.929 80.0918 123.481 80.5471 122.911 80.8604C122.349 81.1736 121.711 81.3303 120.996 81.3303ZM120.996 80.4014C121.499 80.4014 121.952 80.2994 122.353 80.0954C122.754 79.8914 123.068 79.5636 123.294 79.1119C123.528 78.6529 123.645 78.0519 123.645 77.3088C123.645 76.5584 123.528 75.9574 123.294 75.5057C123.068 75.054 122.754 74.7262 122.353 74.5222C121.952 74.3182 121.499 74.2162 120.996 74.2162C120.492 74.2162 120.04 74.3182 119.638 74.5222C119.244 74.7262 118.931 75.054 118.697 75.5057C118.464 75.9574 118.347 76.5584 118.347 77.3088C118.347 78.0519 118.464 78.6529 118.697 79.1119C118.931 79.5636 119.244 79.8914 119.638 80.0954C120.04 80.2994 120.492 80.4014 120.996 80.4014Z" fill="black" fill-opacity="0.25" style="fill:black;fill-opacity:0.25;"/>
<path d="M108.63 81.3303C107.929 81.3303 107.294 81.1736 106.725 80.8604C106.156 80.5471 105.703 80.0918 105.368 79.4944C105.039 78.8897 104.875 78.1503 104.875 77.276C104.875 76.4018 105.039 75.6696 105.368 75.0795C105.703 74.4821 106.156 74.0341 106.725 73.7354C107.294 73.4367 107.929 73.2874 108.63 73.2874C109.345 73.2874 109.983 73.4403 110.545 73.7463C111.114 74.045 111.563 74.4894 111.891 75.0795C112.22 75.6696 112.384 76.4054 112.384 77.287C112.384 78.1539 112.22 78.8897 111.891 79.4944C111.563 80.0918 111.114 80.5471 110.545 80.8604C109.983 81.1736 109.345 81.3303 108.63 81.3303ZM108.63 80.4014C109.133 80.4014 109.585 80.2994 109.987 80.0954C110.388 79.8914 110.702 79.5636 110.928 79.1119C111.162 78.6529 111.278 78.0519 111.278 77.3088C111.278 76.5584 111.162 75.9574 110.928 75.5057C110.702 75.054 110.388 74.7262 109.987 74.5222C109.585 74.3182 109.133 74.2162 108.63 74.2162C108.126 74.2162 107.674 74.3182 107.272 74.5222C106.878 74.7262 106.564 75.054 106.331 75.5057C106.097 75.9574 105.981 76.5584 105.981 77.3088C105.981 78.0519 106.097 78.6529 106.331 79.1119C106.564 79.5636 106.878 79.8914 107.272 80.0954C107.674 80.2994 108.126 80.4014 108.63 80.4014Z" fill="black" fill-opacity="0.25" style="fill:black;fill-opacity:0.25;"/>
<path d="M96.5371 73.3856H97.566V76.8716H101.594V73.3856H102.634V81.2209H101.594V77.8005H97.566V81.2209H96.5371V73.3856Z" fill="black" fill-opacity="0.25" style="fill:black;fill-opacity:0.25;"/>
<path d="M88.8955 81.2209V73.3856H89.9244V76.4236H91.4788C92.3472 76.4236 93.0149 76.6057 93.4819 76.97C93.949 77.3342 94.1825 77.9243 94.1825 78.7403C94.1825 79.3377 94.0621 79.8185 93.8213 80.1828C93.5804 80.547 93.2448 80.8129 92.8142 80.9805C92.3837 81.1408 91.8874 81.2209 91.3255 81.2209H88.8955ZM91.3255 80.292C91.8437 80.292 92.2669 80.1828 92.5953 79.9642C92.931 79.7456 93.0988 79.3522 93.0988 78.784C93.0988 78.3032 92.9565 77.9425 92.6719 77.7021C92.3873 77.4617 91.9787 77.3415 91.4459 77.3415H89.9244V80.292H91.3255Z" fill="black" fill-opacity="0.25" style="fill:black;fill-opacity:0.25;"/>
<path d="M79.8789 80.2265C80.2365 80.2629 80.4992 80.15 80.667 79.8877C80.8422 79.6254 80.9735 79.2794 81.0611 78.8496C81.1705 78.3032 81.2435 77.5746 81.28 76.664C81.3165 75.7533 81.342 74.6605 81.3566 73.3856H86.1948V81.2209H85.1549V74.3254H82.3308C82.3089 75.3818 82.2798 76.3034 82.2433 77.0902C82.2068 77.8697 82.1375 78.529 82.0353 79.0681C81.9477 79.4761 81.8237 79.8513 81.6631 80.1937C81.5026 80.5361 81.28 80.8056 80.9954 81.0023C80.7108 81.1991 80.3386 81.2865 79.8789 81.2646V80.2265Z" fill="black" fill-opacity="0.25" style="fill:black;fill-opacity:0.25;"/>
<path d="M73.1621 73.3856H78.0222V74.3254H74.191V76.6968H77.442V77.6256H74.191V80.292H78.0769V81.2209H73.1621V73.3856Z" fill="black" fill-opacity="0.25" style="fill:black;fill-opacity:0.25;"/>
<path d="M65.1641 74.3363V73.3856H71.0421V74.3363H68.623V81.2209H67.5832V74.3363H65.1641Z" fill="black" fill-opacity="0.25" style="fill:black;fill-opacity:0.25;"/>
<path d="M57.7122 81.2209H56.5957V73.3856H57.6246V79.8549L61.9374 73.3856H63.0539V81.2209H62.0031V74.7844L57.7122 81.2209Z" fill="black" fill-opacity="0.25" style="fill:black;fill-opacity:0.25;"/>
<path d="M49.0391 73.3856H51.5457C52.436 73.3856 53.1256 73.5714 53.6145 73.9429C54.1108 74.3072 54.3589 74.8791 54.3589 75.6586C54.3589 76.2487 54.2348 76.7295 53.9867 77.1011C53.7459 77.4726 53.4066 77.7458 52.9687 77.9207C52.5382 78.0883 52.0346 78.172 51.4582 78.172H50.068V81.2209H49.0391V73.3856ZM51.4582 77.2432C52.0128 77.2432 52.4615 77.123 52.8045 76.8825C53.1475 76.6421 53.319 76.2378 53.319 75.6695C53.319 75.196 53.1657 74.8536 52.8593 74.6423C52.5528 74.4311 52.1149 74.3254 51.5457 74.3254H50.068V77.2432H51.4582Z" fill="black" fill-opacity="0.25" style="fill:black;fill-opacity:0.25;"/>
<path d="M47.0207 81.2209H45.926L45.116 78.9807H41.6461L40.847 81.2209H39.8838L42.675 73.3856H44.2075L47.0207 81.2209ZM41.9854 78.0518H44.7876L43.3865 74.1506L41.9854 78.0518Z" fill="black" fill-opacity="0.25" style="fill:black;fill-opacity:0.25;"/>
<path d="M32.8145 73.3856H35.4744C36.3355 73.3856 36.9886 73.5313 37.4337 73.8227C37.8862 74.1141 38.1124 74.6059 38.1124 75.298C38.1124 75.859 37.9701 76.2851 37.6855 76.5766C37.4009 76.8607 37.0214 77.0537 36.5471 77.1557C37.1528 77.2286 37.6125 77.4071 37.9263 77.6912C38.2401 77.968 38.397 78.3906 38.397 78.9588C38.397 79.4979 38.2693 79.9351 38.0139 80.2702C37.7584 80.6053 37.4082 80.8494 36.963 81.0023C36.5179 81.1481 36.0144 81.2209 35.4525 81.2209H32.8145V73.3856ZM35.3977 76.7295C35.894 76.7295 36.2953 76.6203 36.6018 76.4017C36.9156 76.1759 37.0725 75.8262 37.0725 75.3526C37.0725 74.952 36.9338 74.6824 36.6565 74.544C36.3792 74.3983 35.9852 74.3254 35.4744 74.3254H33.8434V76.7295H35.3977ZM35.4525 80.292C36.0071 80.292 36.4559 80.1973 36.7988 80.0079C37.1418 79.8185 37.3133 79.4761 37.3133 78.9807C37.3133 78.4853 37.1528 78.1429 36.8317 77.9535C36.5179 77.7568 36.018 77.6584 35.3321 77.6584H33.8434V80.292H35.4525Z" fill="black" fill-opacity="0.25" style="fill:black;fill-opacity:0.25;"/>
<path d="M23.7644 83.0787H22.834V80.292H23.3703C23.706 79.9861 23.9541 79.5417 24.1147 78.9588C24.2752 78.376 24.3847 77.6293 24.4431 76.7186C24.5014 75.8007 24.5452 74.6897 24.5744 73.3856H29.5768V80.292H30.5838V83.0787H29.6315L29.5221 81.2209H23.8848L23.7644 83.0787ZM24.5635 80.292H28.5369V74.3254H25.5377C25.5158 75.4328 25.4683 76.3726 25.3954 77.1448C25.3297 77.9171 25.2275 78.5581 25.0889 79.0681C24.9575 79.5708 24.7824 79.9788 24.5635 80.292Z" fill="black" fill-opacity="0.25" style="fill:black;fill-opacity:0.25;"/>
<path d="M16.1709 73.3856H21.031V74.3254H17.1998V76.6968H20.4508V77.6256H17.1998V80.292H21.0857V81.2209H16.1709V73.3856Z" fill="black" fill-opacity="0.25" style="fill:black;fill-opacity:0.25;"/>
<path d="M8.61523 73.3856H11.1219C12.0122 73.3856 12.7018 73.5714 13.1907 73.9429C13.6869 74.3072 13.935 74.8791 13.935 75.6586C13.935 76.2487 13.811 76.7295 13.5629 77.1011C13.3221 77.4726 12.9827 77.7458 12.5449 77.9207C12.1143 78.0883 11.6108 78.172 11.0343 78.172H9.64417V81.2209H8.61523V73.3856ZM11.0343 77.2432C11.5889 77.2432 12.0377 77.123 12.3807 76.8825C12.7237 76.6421 12.8952 76.2378 12.8952 75.6695C12.8952 75.196 12.7419 74.8536 12.4354 74.6423C12.1289 74.4311 11.6911 74.3254 11.1219 74.3254H9.64417V77.2432H11.0343Z" fill="black" fill-opacity="0.25" style="fill:black;fill-opacity:0.25;"/>
<path d="M0.0107422 73.3856H5.9107V81.2209H4.87082V74.3254H1.03968V81.2209H0.0107422V73.3856Z" fill="black" fill-opacity="0.25" style="fill:black;fill-opacity:0.25;"/>
<path d="M195.825 69.3651C195.62 69.3651 195.449 69.2996 195.31 69.1684C195.179 69.03 195.113 68.8661 195.113 68.6767C195.113 68.4727 195.179 68.3051 195.31 68.174C195.449 68.0429 195.62 67.9773 195.825 67.9773C196.029 67.9773 196.197 68.0429 196.328 68.174C196.46 68.3051 196.525 68.4727 196.525 68.6767C196.525 68.8661 196.46 69.03 196.328 69.1684C196.197 69.2996 196.029 69.3651 195.825 69.3651Z" fill="black" fill-opacity="0.25" style="fill:black;fill-opacity:0.25;"/>
<path d="M184.588 62.4151V61.4644H190.466V62.4151H188.047V69.2996H187.007V62.4151H184.588Z" fill="black" fill-opacity="0.25" style="fill:black;fill-opacity:0.25;"/>
<path d="M174.093 61.4644H178.953V62.4042H175.122V64.7755H178.373V65.7044H175.122V68.3708H179.008V69.2996H174.093V61.4644Z" fill="black" fill-opacity="0.25" style="fill:black;fill-opacity:0.25;"/>
<path d="M161.355 68.3052C161.713 68.3416 161.976 68.2287 162.144 67.9664C162.319 67.7042 162.45 67.3581 162.538 66.9283C162.647 66.3819 162.72 65.6534 162.757 64.7427C162.793 63.8321 162.819 62.7393 162.833 61.4644H167.671V69.2996H166.631V62.4042H163.807C163.786 63.4605 163.756 64.3821 163.72 65.1689C163.683 65.9484 163.614 66.6077 163.512 67.1469C163.424 67.5548 163.3 67.93 163.14 68.2724C162.979 68.6148 162.757 68.8844 162.472 69.0811C162.187 69.2778 161.815 69.3652 161.355 69.3434V68.3052Z" fill="black" fill-opacity="0.25" style="fill:black;fill-opacity:0.25;"/>
<path d="M143.502 69.2996H142.386V61.4644H143.415V67.9337L147.727 61.4644H148.844V69.2996H147.793V62.8631L143.502 69.2996Z" fill="black" fill-opacity="0.25" style="fill:black;fill-opacity:0.25;"/>
<path d="M130.665 62.4151V61.4644H136.543V62.4151H134.124V69.2996H133.084V62.4151H130.665Z" fill="black" fill-opacity="0.25" style="fill:black;fill-opacity:0.25;"/>
<path d="M124.826 61.4644V69.2996H123.786V66.1633H122.363L120.195 69.2996H118.937L121.312 65.9776C120.735 65.8537 120.294 65.6133 119.987 65.2563C119.681 64.8994 119.528 64.4149 119.528 63.8029C119.528 63.2492 119.648 62.8012 119.889 62.4588C120.13 62.1164 120.465 61.865 120.896 61.7048C121.326 61.5445 121.823 61.4644 122.385 61.4644H124.826ZM122.275 65.2345H123.786V62.4042H122.385C121.866 62.4042 121.44 62.5098 121.104 62.7211C120.775 62.925 120.611 63.2857 120.611 63.8029C120.611 64.291 120.754 64.6517 121.038 64.8848C121.33 65.1179 121.742 65.2345 122.275 65.2345Z" fill="black" fill-opacity="0.25" style="fill:black;fill-opacity:0.25;"/>
<path d="M107.257 61.4644H113.157V69.2996H112.117V62.4042H108.286V69.2996H107.257V61.4644Z" fill="black" fill-opacity="0.25" style="fill:black;fill-opacity:0.25;"/>
<path d="M89.3291 61.4644H94.1892V62.4042H90.358V64.7755H93.609V65.7044H90.358V68.3708H94.2439V69.2996H89.3291V61.4644Z" fill="black" fill-opacity="0.25" style="fill:black;fill-opacity:0.25;"/>
<path d="M77.5638 69.2996H76.4473V61.4644H77.4762V67.9337L81.789 61.4644H82.9055V69.2996H81.8546V62.8631L77.5638 69.2996Z" fill="black" fill-opacity="0.25" style="fill:black;fill-opacity:0.25;"/>
<path d="M63.9287 61.4644H64.9576V64.9504H68.9858V61.4644H70.0257V69.2996H68.9858V65.8792H64.9576V69.2996H63.9287V61.4644Z" fill="black" fill-opacity="0.25" style="fill:black;fill-opacity:0.25;"/>
<path d="M52.8008 61.4644H57.6609V62.4042H53.8297V64.7755H57.0807V65.7044H53.8297V68.3708H57.7156V69.2996H52.8008V61.4644Z" fill="black" fill-opacity="0.25" style="fill:black;fill-opacity:0.25;"/>
<path d="M40.5664 63.6499V61.4644H41.6063V63.6499C41.6063 64.2619 41.7559 64.7318 42.0551 65.0596C42.3616 65.3875 42.8104 65.5514 43.4014 65.5514C43.759 65.5514 44.102 65.5113 44.4304 65.4312C44.7588 65.3438 45.0616 65.2017 45.3389 65.005V61.4644H46.3788V69.2996H45.3389V65.8792C45.0397 66.0686 44.7259 66.2071 44.3975 66.2945C44.0765 66.3819 43.7408 66.4256 43.3905 66.4256C42.4929 66.4256 41.796 66.1998 41.2998 65.7481C40.8109 65.2964 40.5664 64.597 40.5664 63.6499Z" fill="black" fill-opacity="0.25" style="fill:black;fill-opacity:0.25;"/>
<path d="M29.5811 61.4644H34.4411V62.4042H30.61V64.7755H33.861V65.7044H30.61V68.3708H34.4959V69.2996H29.5811V61.4644Z" fill="black" fill-opacity="0.25" style="fill:black;fill-opacity:0.25;"/>
<path d="M17.8613 62.4151V61.4644H23.7394V62.4151H21.3203V69.2996H20.2804V62.4151H17.8613Z" fill="black" fill-opacity="0.25" style="fill:black;fill-opacity:0.25;"/>
<path d="M0.0107422 61.4644H2.67065C3.53174 61.4644 4.18486 61.6101 4.63 61.9015C5.08244 62.1929 5.30866 62.6846 5.30866 63.3767C5.30866 63.9377 5.16636 64.3639 4.88176 64.6553C4.59716 64.9394 4.2177 65.1325 3.74337 65.2345C4.34905 65.3073 4.80879 65.4858 5.12258 65.7699C5.43636 66.0468 5.59326 66.4693 5.59326 67.0376C5.59326 67.5767 5.46555 68.0138 5.21015 68.3489C4.95474 68.684 4.60446 68.9281 4.15932 69.0811C3.71418 69.2268 3.21066 69.2996 2.64876 69.2996H0.0107422V61.4644ZM2.59402 64.8083C3.09025 64.8083 3.49161 64.699 3.7981 64.4805C4.11189 64.2546 4.26878 63.9049 4.26878 63.4314C4.26878 63.0307 4.13013 62.7611 3.85283 62.6227C3.57553 62.477 3.18147 62.4042 2.67065 62.4042H1.03968V64.8083H2.59402ZM2.64876 68.3708C3.20336 68.3708 3.65215 68.2761 3.99513 68.0866C4.3381 67.8972 4.50959 67.5548 4.50959 67.0594C4.50959 66.564 4.34905 66.2216 4.02797 66.0322C3.71418 65.8355 3.2143 65.7372 2.52835 65.7372H1.03968V68.3708H2.64876Z" fill="black" fill-opacity="0.25" style="fill:black;fill-opacity:0.25;"/>
<path d="M192.505 57.4876C191.804 57.4876 191.169 57.331 190.6 57.0177C190.031 56.7045 189.578 56.2491 189.243 55.6517C188.914 55.0471 188.75 54.3076 188.75 53.4334C188.75 52.5591 188.914 51.827 189.243 51.2369C189.578 50.6395 190.031 50.1914 190.6 49.8927C191.169 49.5941 191.804 49.4447 192.505 49.4447C193.22 49.4447 193.858 49.5977 194.42 49.9037C194.989 50.2024 195.438 50.6468 195.766 51.2369C196.095 51.827 196.259 52.5628 196.259 53.4443C196.259 54.3113 196.095 55.0471 195.766 55.6517C195.438 56.2491 194.989 56.7045 194.42 57.0177C193.858 57.331 193.22 57.4876 192.505 57.4876ZM192.505 56.5587C193.008 56.5587 193.46 56.4568 193.862 56.2528C194.263 56.0488 194.577 55.7209 194.803 55.2693C195.037 54.8103 195.153 54.2093 195.153 53.4662C195.153 52.7158 195.037 52.1147 194.803 51.6631C194.577 51.2114 194.263 50.8835 193.862 50.6796C193.46 50.4756 193.008 50.3736 192.505 50.3736C192.001 50.3736 191.549 50.4756 191.147 50.6796C190.753 50.8835 190.439 51.2114 190.206 51.6631C189.972 52.1147 189.856 52.7158 189.856 53.4662C189.856 54.2093 189.972 54.8103 190.206 55.2693C190.439 55.7209 190.753 56.0488 191.147 56.2528C191.549 56.4568 192.001 56.5587 192.505 56.5587Z" fill="black" fill-opacity="0.25" style="fill:black;fill-opacity:0.25;"/>
<path d="M180.457 49.543H183.117C183.978 49.543 184.631 49.6887 185.076 49.9801C185.529 50.2715 185.755 50.7632 185.755 51.4553C185.755 52.0163 185.613 52.4425 185.328 52.7339C185.043 53.018 184.664 53.2111 184.19 53.3131C184.795 53.3859 185.255 53.5644 185.569 53.8486C185.883 54.1254 186.04 54.5479 186.04 55.1162C186.04 55.6553 185.912 56.0924 185.656 56.4275C185.401 56.7627 185.051 57.0067 184.606 57.1597C184.16 57.3054 183.657 57.3783 183.095 57.3783H180.457V49.543ZM183.04 52.8869C183.537 52.8869 183.938 52.7776 184.244 52.5591C184.558 52.3332 184.715 51.9835 184.715 51.51C184.715 51.1093 184.576 50.8397 184.299 50.7013C184.022 50.5556 183.628 50.4828 183.117 50.4828H181.486V52.8869H183.04ZM183.095 56.4494C183.65 56.4494 184.098 56.3547 184.441 56.1653C184.784 55.9758 184.956 55.6334 184.956 55.138C184.956 54.6426 184.795 54.3002 184.474 54.1108C184.16 53.9141 183.661 53.8158 182.975 53.8158H181.486V56.4494H183.095Z" fill="black" fill-opacity="0.25" style="fill:black;fill-opacity:0.25;"/>
<path d="M171.584 50.4937V49.543H177.462V50.4937H175.043V57.3783H174.003V50.4937H171.584Z" fill="black" fill-opacity="0.25" style="fill:black;fill-opacity:0.25;"/>
<path d="M166.484 57.4876C165.711 57.4876 165.032 57.3273 164.448 57.0068C163.872 56.6862 163.423 56.2273 163.102 55.6299C162.781 55.0252 162.62 54.304 162.62 53.4662C162.62 52.2058 162.952 51.2223 163.616 50.5156C164.28 49.8017 165.229 49.4447 166.462 49.4447C166.995 49.4447 167.462 49.503 167.863 49.6195C168.272 49.7288 168.6 49.86 168.848 50.013V50.9965C168.52 50.7852 168.141 50.6286 167.71 50.5266C167.287 50.4246 166.867 50.3736 166.451 50.3736C165.532 50.3736 164.849 50.6322 164.404 51.1495C163.959 51.6667 163.737 52.4389 163.737 53.4662C163.737 54.5007 163.977 55.2765 164.459 55.7938C164.941 56.3038 165.645 56.5587 166.572 56.5587C166.973 56.5587 167.363 56.5041 167.743 56.3948C168.13 56.2856 168.498 56.0998 168.848 55.8375V56.821C168.637 56.9886 168.327 57.1416 167.918 57.28C167.517 57.4184 167.039 57.4876 166.484 57.4876Z" fill="black" fill-opacity="0.25" style="fill:black;fill-opacity:0.25;"/>
<path d="M154.591 50.4937V49.543H160.469V50.4937H158.05V57.3783H157.01V50.4937H154.591Z" fill="black" fill-opacity="0.25" style="fill:black;fill-opacity:0.25;"/>
<path d="M148.686 57.4876C147.986 57.4876 147.351 57.331 146.782 57.0177C146.212 56.7045 145.76 56.2491 145.424 55.6517C145.096 55.0471 144.932 54.3076 144.932 53.4334C144.932 52.5591 145.096 51.827 145.424 51.2369C145.76 50.6395 146.212 50.1914 146.782 49.8927C147.351 49.5941 147.986 49.4447 148.686 49.4447C149.401 49.4447 150.04 49.5977 150.602 49.9037C151.171 50.2024 151.62 50.6468 151.948 51.2369C152.276 51.827 152.441 52.5628 152.441 53.4443C152.441 54.3113 152.276 55.0471 151.948 55.6517C151.62 56.2491 151.171 56.7045 150.602 57.0177C150.04 57.331 149.401 57.4876 148.686 57.4876ZM148.686 56.5587C149.19 56.5587 149.642 56.4568 150.043 56.2528C150.445 56.0488 150.759 55.7209 150.985 55.2693C151.218 54.8103 151.335 54.2093 151.335 53.4662C151.335 52.7158 151.218 52.1147 150.985 51.6631C150.759 51.2114 150.445 50.8835 150.043 50.6796C149.642 50.4756 149.19 50.3736 148.686 50.3736C148.183 50.3736 147.73 50.4756 147.329 50.6796C146.935 50.8835 146.621 51.2114 146.387 51.6631C146.154 52.1147 146.037 52.7158 146.037 53.4662C146.037 54.2093 146.154 54.8103 146.387 55.2693C146.621 55.7209 146.935 56.0488 147.329 56.2528C147.73 56.4568 148.183 56.5587 148.686 56.5587Z" fill="black" fill-opacity="0.25" style="fill:black;fill-opacity:0.25;"/>
<path d="M136.96 49.543H139.467C140.357 49.543 141.047 49.7287 141.535 50.1003C142.032 50.4646 142.28 51.0364 142.28 51.816C142.28 52.4061 142.156 52.8869 141.908 53.2584C141.667 53.63 141.327 53.9032 140.89 54.078C140.459 54.2456 139.956 54.3294 139.379 54.3294H137.989V57.3783H136.96V49.543ZM139.379 53.4005C139.934 53.4005 140.382 53.2803 140.725 53.0399C141.068 52.7995 141.24 52.3951 141.24 51.8269C141.24 51.3534 141.087 51.0109 140.78 50.7997C140.474 50.5884 140.036 50.4828 139.467 50.4828H137.989V53.4005H139.379Z" fill="black" fill-opacity="0.25" style="fill:black;fill-opacity:0.25;"/>
<path d="M134.074 57.3783H132.794L130.057 54.0234H129.225V57.3783H128.196V49.543H129.225V53.0945H129.991L132.794 49.543H133.954L130.856 53.4551L134.074 57.3783Z" fill="black" fill-opacity="0.25" style="fill:black;fill-opacity:0.25;"/>
<path d="M118.523 49.543H119.552V53.029H123.581V49.543H124.62V57.3783H123.581V53.9578H119.552V57.3783H118.523V49.543Z" fill="black" fill-opacity="0.25" style="fill:black;fill-opacity:0.25;"/>
<path d="M115.64 57.3783H114.545L113.735 55.138H110.265L109.466 57.3783H108.503L111.294 49.543H112.827L115.64 57.3783ZM110.605 54.2092H113.407L112.006 50.3079L110.605 54.2092Z" fill="black" fill-opacity="0.25" style="fill:black;fill-opacity:0.25;"/>
<path d="M100.814 57.3783V49.543H105.598V50.4828H101.843V52.6902H103.398C104.266 52.6902 104.934 52.8687 105.401 53.2257C105.868 53.5826 106.101 54.1582 106.101 54.9523C106.101 55.5351 105.981 56.005 105.74 56.362C105.499 56.7189 105.164 56.9776 104.733 57.1378C104.303 57.2981 103.806 57.3783 103.244 57.3783H100.814ZM103.244 56.4494C103.763 56.4494 104.186 56.3437 104.514 56.1325C104.85 55.9212 105.018 55.5424 105.018 54.996C105.018 54.5297 104.875 54.1837 104.591 53.9578C104.306 53.732 103.898 53.6191 103.365 53.6191H101.843V56.4494H103.244Z" fill="black" fill-opacity="0.25" style="fill:black;fill-opacity:0.25;"/>
<path d="M88.5781 49.543H93.4382V50.4828H89.6071V52.8541H92.858V53.783H89.6071V56.4494H93.4929V57.3783H88.5781V49.543Z" fill="black" fill-opacity="0.25" style="fill:black;fill-opacity:0.25;"/>
<path d="M81.6979 57.4876C80.9973 57.4876 80.3625 57.331 79.7933 57.0177C79.2241 56.7045 78.7716 56.2491 78.4359 55.6517C78.1076 55.0471 77.9434 54.3076 77.9434 53.4334C77.9434 52.5591 78.1076 51.827 78.4359 51.2369C78.7716 50.6395 79.2241 50.1914 79.7933 49.8927C80.3625 49.5941 80.9973 49.4447 81.6979 49.4447C82.413 49.4447 83.0516 49.5977 83.6135 49.9037C84.1826 50.2024 84.6314 50.6468 84.9598 51.2369C85.2882 51.827 85.4524 52.5628 85.4524 53.4443C85.4524 54.3113 85.2882 55.0471 84.9598 55.6517C84.6314 56.2491 84.1826 56.7045 83.6135 57.0177C83.0516 57.331 82.413 57.4876 81.6979 57.4876ZM81.6979 56.5587C82.2014 56.5587 82.6538 56.4568 83.0552 56.2528C83.4566 56.0488 83.7703 55.7209 83.9966 55.2693C84.2301 54.8103 84.3468 54.2093 84.3468 53.4662C84.3468 52.7158 84.2301 52.1147 83.9966 51.6631C83.7703 51.2114 83.4566 50.8835 83.0552 50.6796C82.6538 50.4756 82.2014 50.3736 81.6979 50.3736C81.1944 50.3736 80.7419 50.4756 80.3406 50.6796C79.9465 50.8835 79.6327 51.2114 79.3992 51.6631C79.1657 52.1147 79.0489 52.7158 79.0489 53.4662C79.0489 54.2093 79.1657 54.8103 79.3992 55.2693C79.6327 55.7209 79.9465 56.0488 80.3406 56.2528C80.7419 56.4568 81.1944 56.5587 81.6979 56.5587Z" fill="black" fill-opacity="0.25" style="fill:black;fill-opacity:0.25;"/>
<path d="M68.7314 49.543H69.7604V53.029H73.7885V49.543H74.8284V57.3783H73.7885V53.9578H69.7604V57.3783H68.7314V49.543Z" fill="black" fill-opacity="0.25" style="fill:black;fill-opacity:0.25;"/>
<path d="M60.3096 49.543H62.8162C63.7065 49.543 64.3961 49.7287 64.885 50.1003C65.3813 50.4646 65.6294 51.0364 65.6294 51.816C65.6294 52.4061 65.5053 52.8869 65.2572 53.2584C65.0164 53.63 64.6771 53.9032 64.2392 54.078C63.8087 54.2456 63.3052 54.3294 62.7287 54.3294H61.3385V57.3783H60.3096V49.543ZM62.7287 53.4005C63.2833 53.4005 63.7321 53.2803 64.075 53.0399C64.418 52.7995 64.5895 52.3951 64.5895 51.8269C64.5895 51.3534 64.4363 51.0109 64.1298 50.7997C63.8233 50.5884 63.3854 50.4828 62.8162 50.4828H61.3385V53.4005H62.7287Z" fill="black" fill-opacity="0.25" style="fill:black;fill-opacity:0.25;"/>
<path d="M53.4303 57.4876C52.7297 57.4876 52.0949 57.331 51.5257 57.0177C50.9565 56.7045 50.504 56.2491 50.1684 55.6517C49.84 55.0471 49.6758 54.3076 49.6758 53.4334C49.6758 52.5591 49.84 51.827 50.1684 51.2369C50.504 50.6395 50.9565 50.1914 51.5257 49.8927C52.0949 49.5941 52.7297 49.4447 53.4303 49.4447C54.1454 49.4447 54.784 49.5977 55.3459 49.9037C55.9151 50.2024 56.3639 50.6468 56.6922 51.2369C57.0206 51.827 57.1848 52.5628 57.1848 53.4443C57.1848 54.3113 57.0206 55.0471 56.6922 55.6517C56.3639 56.2491 55.9151 56.7045 55.3459 57.0177C54.784 57.331 54.1454 57.4876 53.4303 57.4876ZM53.4303 56.5587C53.9338 56.5587 54.3863 56.4568 54.7876 56.2528C55.189 56.0488 55.5028 55.7209 55.729 55.2693C55.9625 54.8103 56.0793 54.2093 56.0793 53.4662C56.0793 52.7158 55.9625 52.1147 55.729 51.6631C55.5028 51.2114 55.189 50.8835 54.7876 50.6796C54.3863 50.4756 53.9338 50.3736 53.4303 50.3736C52.9268 50.3736 52.4743 50.4756 52.073 50.6796C51.6789 50.8835 51.3651 51.2114 51.1316 51.6631C50.8981 52.1147 50.7813 52.7158 50.7813 53.4662C50.7813 54.2093 50.8981 54.8103 51.1316 55.2693C51.3651 55.7209 51.6789 56.0488 52.073 56.2528C52.4743 56.4568 52.9268 56.5587 53.4303 56.5587Z" fill="black" fill-opacity="0.25" style="fill:black;fill-opacity:0.25;"/>
<path d="M41.6455 50.4937V49.543H47.5236V50.4937H45.1045V57.3783H44.0646V50.4937H41.6455Z" fill="black" fill-opacity="0.25" style="fill:black;fill-opacity:0.25;"/>
<path d="M33.6436 49.543H36.3035C37.1646 49.543 37.8177 49.6887 38.2628 49.9801C38.7153 50.2715 38.9415 50.7632 38.9415 51.4553C38.9415 52.0163 38.7992 52.4425 38.5146 52.7339C38.23 53.018 37.8505 53.2111 37.3762 53.3131C37.9819 53.3859 38.4416 53.5644 38.7554 53.8486C39.0692 54.1254 39.2261 54.5479 39.2261 55.1162C39.2261 55.6553 39.0984 56.0924 38.843 56.4275C38.5876 56.7627 38.2373 57.0067 37.7921 57.1597C37.347 57.3054 36.8435 57.3783 36.2816 57.3783H33.6436V49.543ZM36.2268 52.8869C36.7231 52.8869 37.1244 52.7776 37.4309 52.5591C37.7447 52.3332 37.9016 51.9835 37.9016 51.51C37.9016 51.1093 37.7629 50.8397 37.4856 50.7013C37.2083 50.5556 36.8143 50.4828 36.3035 50.4828H34.6725V52.8869H36.2268ZM36.2816 56.4494C36.8362 56.4494 37.285 56.3547 37.6279 56.1653C37.9709 55.9758 38.1424 55.6334 38.1424 55.138C38.1424 54.6426 37.9819 54.3002 37.6608 54.1108C37.347 53.9141 36.8471 53.8158 36.1612 53.8158H34.6725V56.4494H36.2816Z" fill="black" fill-opacity="0.25" style="fill:black;fill-opacity:0.25;"/>
<path d="M26.7643 57.4876C26.0637 57.4876 25.4289 57.331 24.8597 57.0177C24.2905 56.7045 23.838 56.2491 23.5023 55.6517C23.174 55.0471 23.0098 54.3076 23.0098 53.4334C23.0098 52.5591 23.174 51.827 23.5023 51.2369C23.838 50.6395 24.2905 50.1914 24.8597 49.8927C25.4289 49.5941 26.0637 49.4447 26.7643 49.4447C27.4794 49.4447 28.118 49.5977 28.6799 49.9037C29.249 50.2024 29.6978 50.6468 30.0262 51.2369C30.3546 51.827 30.5188 52.5628 30.5188 53.4443C30.5188 54.3113 30.3546 55.0471 30.0262 55.6517C29.6978 56.2491 29.249 56.7045 28.6799 57.0177C28.118 57.331 27.4794 57.4876 26.7643 57.4876ZM26.7643 56.5587C27.2678 56.5587 27.7202 56.4568 28.1216 56.2528C28.523 56.0488 28.8367 55.7209 29.063 55.2693C29.2965 54.8103 29.4132 54.2093 29.4132 53.4662C29.4132 52.7158 29.2965 52.1147 29.063 51.6631C28.8367 51.2114 28.523 50.8835 28.1216 50.6796C27.7202 50.4756 27.2678 50.3736 26.7643 50.3736C26.2608 50.3736 25.8083 50.4756 25.407 50.6796C25.0129 50.8835 24.6991 51.2114 24.4656 51.6631C24.2321 52.1147 24.1153 52.7158 24.1153 53.4662C24.1153 54.2093 24.2321 54.8103 24.4656 55.2693C24.6991 55.7209 25.0129 56.0488 25.407 56.2528C25.8083 56.4568 26.2608 56.5587 26.7643 56.5587Z" fill="black" fill-opacity="0.25" style="fill:black;fill-opacity:0.25;"/>
<path d="M13.9893 49.543H19.8892V57.3783H18.8493V50.4828H15.0182V57.3783H13.9893V49.543Z" fill="black" fill-opacity="0.25" style="fill:black;fill-opacity:0.25;"/>
<path d="M1.12725 57.3783H0.0107422V49.543H1.03968V56.0123L5.35245 49.543H6.46895V57.3783H5.41812V50.9417L1.12725 57.3783Z" fill="black" fill-opacity="0.25" style="fill:black;fill-opacity:0.25;"/>
<path d="M196.307 45.457H195.212L194.402 43.2168H190.932L190.133 45.457H189.17L191.961 37.6217H193.494L196.307 45.457ZM191.272 42.2879H194.074L192.673 38.3867L191.272 42.2879Z" fill="black" fill-opacity="0.25" style="fill:black;fill-opacity:0.25;"/>
<path d="M180.344 38.5724V37.6217H186.222V38.5724H183.803V45.457H182.763V38.5724H180.344Z" fill="black" fill-opacity="0.25" style="fill:black;fill-opacity:0.25;"/>
<path d="M170.593 45.457H169.477V37.6217H170.505V44.091L174.818 37.6217H175.935V45.457H174.884V39.0205L170.593 45.457Z" fill="black" fill-opacity="0.25" style="fill:black;fill-opacity:0.25;"/>
<path d="M158.129 47.3147H157.198V44.5281H157.735C158.07 44.2221 158.318 43.7777 158.479 43.1949C158.639 42.6121 158.749 41.8654 158.807 40.9547C158.866 40.0368 158.909 38.9258 158.939 37.6217H163.941V44.5281H164.948V47.3147H163.996L163.886 45.457H158.249L158.129 47.3147ZM158.928 44.5281H162.901V38.5615H159.902C159.88 39.6689 159.833 40.6087 159.76 41.3809C159.694 42.1531 159.592 42.7942 159.453 43.3042C159.322 43.8069 159.147 44.2149 158.928 44.5281Z" fill="black" fill-opacity="0.25" style="fill:black;fill-opacity:0.25;"/>
<path d="M148.237 37.6217H153.097V38.5615H149.266V40.9329H152.517V41.8617H149.266V44.5281H153.152V45.457H148.237V37.6217Z" fill="black" fill-opacity="0.25" style="fill:black;fill-opacity:0.25;"/>
<path d="M138.381 37.6217H140.888C141.778 37.6217 142.467 37.8075 142.956 38.179C143.453 38.5433 143.701 39.1152 143.701 39.8947C143.701 40.4848 143.577 40.9656 143.329 41.3372C143.088 41.7087 142.748 41.9819 142.311 42.1568C141.88 42.3243 141.376 42.4081 140.8 42.4081H139.41V45.457H138.381V37.6217ZM140.8 41.4792C141.355 41.4792 141.803 41.359 142.146 41.1186C142.489 40.8782 142.661 40.4739 142.661 39.9056C142.661 39.4321 142.508 39.0897 142.201 38.8784C141.895 38.6671 141.457 38.5615 140.888 38.5615H139.41V41.4792H140.8Z" fill="black" fill-opacity="0.25" style="fill:black;fill-opacity:0.25;"/>
<path d="M134.072 45.457H132.792L130.055 42.1021H129.223V45.457H128.194V37.6217H129.223V41.1733H129.989L132.792 37.6217H133.952L130.854 41.5339L134.072 45.457Z" fill="black" fill-opacity="0.25" style="fill:black;fill-opacity:0.25;"/>
<path d="M113.112 37.6217H117.972V38.5615H114.141V40.9329H117.392V41.8617H114.141V44.5281H118.027V45.457H113.112V37.6217Z" fill="black" fill-opacity="0.25" style="fill:black;fill-opacity:0.25;"/>
<path d="M102.771 45.457H101.654V37.6217H102.683V44.091L106.996 37.6217H108.113V45.457H107.062V39.0205L102.771 45.457Z" fill="black" fill-opacity="0.25" style="fill:black;fill-opacity:0.25;"/>
<path d="M90.5576 37.6217H91.5865V41.1077H95.6147V37.6217H96.6546V45.457H95.6147V42.0366H91.5865V45.457H90.5576V37.6217Z" fill="black" fill-opacity="0.25" style="fill:black;fill-opacity:0.25;"/>
<path d="M80.8525 37.6217H85.7126V38.5615H81.8815V40.9329H85.1325V41.8617H81.8815V44.5281H85.7673V45.457H80.8525V37.6217Z" fill="black" fill-opacity="0.25" style="fill:black;fill-opacity:0.25;"/>
<path d="M70.042 39.8073V37.6217H71.0819V39.8073C71.0819 40.4192 71.2315 40.8891 71.5307 41.217C71.8372 41.5448 72.286 41.7087 72.877 41.7087C73.2346 41.7087 73.5776 41.6687 73.906 41.5885C74.2344 41.5011 74.5372 41.359 74.8145 41.1623V37.6217H75.8544V45.457H74.8145V42.0366C74.5153 42.226 74.2015 42.3644 73.8731 42.4518C73.5521 42.5392 73.2164 42.583 72.8661 42.583C71.9685 42.583 71.2716 42.3571 70.7754 41.9054C70.2865 41.4537 70.042 40.7544 70.042 39.8073Z" fill="black" fill-opacity="0.25" style="fill:black;fill-opacity:0.25;"/>
<path d="M60.6955 44.4298C61.1479 44.4735 61.5019 44.4079 61.7573 44.2331C62.0127 44.0509 62.2243 43.8142 62.3921 43.5228L59.4805 37.6217H60.6517L62.9175 42.3425L64.8769 37.6217H65.9387L63.4539 43.337C63.2496 43.8178 63.027 44.2221 62.7862 44.55C62.5454 44.8778 62.2571 45.1182 61.9215 45.2712C61.5931 45.4242 61.1844 45.4861 60.6955 45.457V44.4298Z" fill="black" fill-opacity="0.25" style="fill:black;fill-opacity:0.25;"/>
<path d="M48.8008 44.4626C49.1584 44.499 49.4211 44.3861 49.5889 44.1238C49.764 43.8615 49.8954 43.5155 49.983 43.0856C50.0924 42.5392 50.1654 41.8107 50.2019 40.9001C50.2384 39.9894 50.2639 38.8966 50.2785 37.6217H55.1167V45.457H54.0768V38.5615H51.2527C51.2308 39.6179 51.2016 40.5394 51.1651 41.3263C51.1287 42.1058 51.0593 42.7651 50.9572 43.3042C50.8696 43.7122 50.7455 44.0874 50.585 44.4298C50.4245 44.7722 50.2019 45.0417 49.9173 45.2384C49.6327 45.4351 49.2605 45.5226 48.8008 45.5007V44.4626Z" fill="black" fill-opacity="0.25" style="fill:black;fill-opacity:0.25;"/>
<path d="M41.4117 45.5662C40.7112 45.5662 40.0763 45.4096 39.5071 45.0963C38.9379 44.7831 38.4855 44.3277 38.1498 43.7303C37.8214 43.1257 37.6572 42.3862 37.6572 41.512C37.6572 40.6378 37.8214 39.9056 38.1498 39.3155C38.4855 38.7181 38.9379 38.2701 39.5071 37.9714C40.0763 37.6727 40.7112 37.5233 41.4117 37.5233C42.1269 37.5233 42.7654 37.6763 43.3273 37.9823C43.8965 38.281 44.3453 38.7254 44.6737 39.3155C45.0021 39.9056 45.1663 40.6414 45.1663 41.5229C45.1663 42.3899 45.0021 43.1257 44.6737 43.7303C44.3453 44.3277 43.8965 44.7831 43.3273 45.0963C42.7654 45.4096 42.1269 45.5662 41.4117 45.5662ZM41.4117 44.6374C41.9153 44.6374 42.3677 44.5354 42.7691 44.3314C43.1704 44.1274 43.4842 43.7996 43.7104 43.3479C43.9439 42.8889 44.0607 42.2879 44.0607 41.5448C44.0607 40.7944 43.9439 40.1934 43.7104 39.7417C43.4842 39.29 43.1704 38.9622 42.7691 38.7582C42.3677 38.5542 41.9153 38.4522 41.4117 38.4522C40.9082 38.4522 40.4558 38.5542 40.0544 38.7582C39.6604 38.9622 39.3466 39.29 39.1131 39.7417C38.8795 40.1934 38.7628 40.7944 38.7628 41.5448C38.7628 42.2879 38.8795 42.8889 39.1131 43.3479C39.3466 43.7996 39.6604 44.1274 40.0544 44.3314C40.4558 44.5354 40.9082 44.6374 41.4117 44.6374Z" fill="black" fill-opacity="0.25" style="fill:black;fill-opacity:0.25;"/>
<path d="M27.2148 37.6217H33.1148V45.457H32.0749V38.5615H28.2438V45.457H27.2148V37.6217Z" fill="black" fill-opacity="0.25" style="fill:black;fill-opacity:0.25;"/>
<path d="M17.5324 45.457H16.4378L15.6277 43.2168H12.1578L11.3588 45.457H10.3955L13.1868 37.6217H14.7192L17.5324 45.457ZM12.4972 42.2879H15.2994L13.8983 38.3867L12.4972 42.2879Z" fill="black" fill-opacity="0.25" style="fill:black;fill-opacity:0.25;"/>
<path d="M0 37.6217H1.02893V41.1077H5.0571V37.6217H6.09698V45.457H5.0571V42.0366H1.02893V45.457H0V37.6217Z" fill="black" fill-opacity="0.25" style="fill:black;fill-opacity:0.25;"/>
<path d="M195.472 25.7003V33.5356H194.432V30.3993H193.009L190.842 33.5356H189.583L191.958 30.2135C191.382 30.0897 190.94 29.8493 190.634 29.4923C190.327 29.1353 190.174 28.6508 190.174 28.0389C190.174 27.4852 190.295 27.0372 190.535 26.6948C190.776 26.3523 191.112 26.101 191.542 25.9407C191.973 25.7805 192.469 25.7003 193.031 25.7003H195.472ZM192.922 29.4704H194.432V26.6401H193.031C192.513 26.6401 192.086 26.7458 191.75 26.957C191.422 27.161 191.258 27.5216 191.258 28.0389C191.258 28.527 191.4 28.8876 191.685 29.1207C191.977 29.3539 192.389 29.4704 192.922 29.4704Z" fill="black" fill-opacity="0.25" style="fill:black;fill-opacity:0.25;"/>
<path d="M181.2 33.5356H180.084V25.7003H181.113V32.1696L185.426 25.7003H186.542V33.5356H185.491V27.0991L181.2 33.5356Z" fill="black" fill-opacity="0.25" style="fill:black;fill-opacity:0.25;"/>
<path d="M170.301 25.7003H171.33V29.1863H175.358V25.7003H176.398V33.5356H175.358V30.1152H171.33V33.5356H170.301V25.7003Z" fill="black" fill-opacity="0.25" style="fill:black;fill-opacity:0.25;"/>
<path d="M161.91 25.7003H166.77V26.6401H162.939V29.0115H166.19V29.9403H162.939V32.6067H166.825V33.5356H161.91V25.7003Z" fill="black" fill-opacity="0.25" style="fill:black;fill-opacity:0.25;"/>
<path d="M152.413 27.8859V25.7003H153.453V27.8859C153.453 28.4979 153.603 28.9678 153.902 29.2956C154.208 29.6234 154.657 29.7873 155.248 29.7873C155.606 29.7873 155.949 29.7473 156.277 29.6671C156.605 29.5797 156.908 29.4377 157.186 29.241V25.7003H158.225V33.5356H157.186V30.1152C156.886 30.3046 156.573 30.443 156.244 30.5304C155.923 30.6179 155.587 30.6616 155.237 30.6616C154.34 30.6616 153.643 30.4357 153.146 29.984C152.658 29.5324 152.413 28.833 152.413 27.8859Z" fill="black" fill-opacity="0.25" style="fill:black;fill-opacity:0.25;"/>
<path d="M143.537 33.5356H142.421V25.7003H143.45V32.1696L147.763 25.7003H148.879V33.5356H147.828V27.0991L143.537 33.5356Z" fill="black" fill-opacity="0.25" style="fill:black;fill-opacity:0.25;"/>
<path d="M132.639 25.7003H133.668V29.1863H137.696V25.7003H138.736V33.5356H137.696V30.1152H133.668V33.5356H132.639V25.7003Z" fill="black" fill-opacity="0.25" style="fill:black;fill-opacity:0.25;"/>
<path d="M129.646 33.5356H128.551L127.741 31.2954H124.271L123.472 33.5356H122.509L125.3 25.7003H126.833L129.646 33.5356ZM124.61 30.3665H127.413L126.012 26.4653L124.61 30.3665Z" fill="black" fill-opacity="0.25" style="fill:black;fill-opacity:0.25;"/>
<path d="M115.32 25.7003H117.827C118.717 25.7003 119.407 25.8861 119.896 26.2576C120.392 26.6219 120.64 27.1938 120.64 27.9733C120.64 28.5634 120.516 29.0442 120.268 29.4158C120.027 29.7873 119.688 30.0605 119.25 30.2354C118.819 30.4029 118.316 30.4867 117.739 30.4867H116.349V33.5356H115.32V25.7003ZM117.739 29.5579C118.294 29.5579 118.743 29.4377 119.086 29.1972C119.429 28.9568 119.6 28.5525 119.6 27.9842C119.6 27.5107 119.447 27.1683 119.141 26.957C118.834 26.7458 118.396 26.6401 117.827 26.6401H116.349V29.5579H117.739Z" fill="black" fill-opacity="0.25" style="fill:black;fill-opacity:0.25;"/>
<path d="M107.506 25.7003H112.081V26.6401H108.535V33.5356H107.506V25.7003Z" fill="black" fill-opacity="0.25" style="fill:black;fill-opacity:0.25;"/>
<path d="M100.516 33.645C99.8157 33.645 99.1808 33.4883 98.6116 33.1751C98.0424 32.8618 97.59 32.4065 97.2543 31.8091C96.9259 31.2044 96.7617 30.465 96.7617 29.5907C96.7617 28.7165 96.9259 27.9843 97.2543 27.3942C97.59 26.7968 98.0424 26.3488 98.6116 26.0501C99.1808 25.7514 99.8157 25.6021 100.516 25.6021C101.231 25.6021 101.87 25.755 102.432 26.061C103.001 26.3597 103.45 26.8041 103.778 27.3942C104.107 27.9843 104.271 28.7201 104.271 29.6017C104.271 30.4686 104.107 31.2044 103.778 31.8091C103.45 32.4065 103.001 32.8618 102.432 33.1751C101.87 33.4883 101.231 33.645 100.516 33.645ZM100.516 32.7161C101.02 32.7161 101.472 32.6141 101.874 32.4101C102.275 32.2061 102.589 31.8783 102.815 31.4266C103.048 30.9676 103.165 30.3666 103.165 29.6235C103.165 28.8731 103.048 28.2721 102.815 27.8204C102.589 27.3687 102.275 27.0409 101.874 26.8369C101.472 26.6329 101.02 26.5309 100.516 26.5309C100.013 26.5309 99.5603 26.6329 99.1589 26.8369C98.7649 27.0409 98.4511 27.3687 98.2176 27.8204C97.984 28.2721 97.8673 28.8731 97.8673 29.6235C97.8673 30.3666 97.984 30.9676 98.2176 31.4266C98.4511 31.8783 98.7649 32.2061 99.1589 32.4101C99.5603 32.6141 100.013 32.7161 100.516 32.7161Z" fill="black" fill-opacity="0.25" style="fill:black;fill-opacity:0.25;"/>
<path d="M84.7666 25.7003H89.6267V26.6401H85.7955V29.0115H89.0465V29.9403H85.7955V32.6067H89.6814V33.5356H84.7666V25.7003Z" fill="black" fill-opacity="0.25" style="fill:black;fill-opacity:0.25;"/>
<path d="M74.7646 32.5412C75.1222 32.5776 75.3849 32.4647 75.5528 32.2024C75.7279 31.9401 75.8593 31.5941 75.9468 31.1643C76.0563 30.6179 76.1293 29.8893 76.1657 28.9787C76.2022 28.068 76.2278 26.9752 76.2424 25.7003H81.0806V33.5356H80.0407V26.6401H77.2166C77.1947 27.6965 77.1655 28.6181 77.129 29.4049C77.0925 30.1844 77.0232 30.8437 76.921 31.3828C76.8335 31.7908 76.7094 32.166 76.5489 32.5084C76.3883 32.8508 76.1658 33.1203 75.8812 33.317C75.5966 33.5137 75.2244 33.6012 74.7646 33.5793V32.5412Z" fill="black" fill-opacity="0.25" style="fill:black;fill-opacity:0.25;"/>
<path d="M69.6648 33.645C68.8912 33.645 68.2126 33.4847 67.6288 33.1641C67.0523 32.8436 66.6035 32.3846 66.2824 31.7872C65.9613 31.1826 65.8008 30.4613 65.8008 29.6235C65.8008 28.3632 66.1328 27.3797 66.7969 26.673C67.4609 25.959 68.4096 25.6021 69.6429 25.6021C70.1756 25.6021 70.6426 25.6603 71.044 25.7769C71.4526 25.8862 71.781 26.0173 72.0291 26.1703V27.1538C71.7007 26.9425 71.3213 26.7859 70.8907 26.6839C70.4675 26.5819 70.0479 26.5309 69.6319 26.5309C68.7124 26.5309 68.0301 26.7895 67.585 27.3068C67.1399 27.8241 66.9173 28.5963 66.9173 29.6235C66.9173 30.658 67.1581 31.4339 67.6397 31.9511C68.1214 32.4611 68.8256 32.7161 69.7523 32.7161C70.1537 32.7161 70.5441 32.6615 70.9236 32.5522C71.3103 32.4429 71.6788 32.2571 72.0291 31.9949V32.9784C71.8175 33.1459 71.5074 33.2989 71.0987 33.4373C70.6973 33.5758 70.2194 33.645 69.6648 33.645Z" fill="black" fill-opacity="0.25" style="fill:black;fill-opacity:0.25;"/>
<path d="M57.2317 33.5356H56.1152V25.7003H57.1442V32.1696L61.4569 25.7003H62.5734V33.5356H61.5226V27.0991L57.2317 33.5356Z" fill="black" fill-opacity="0.25" style="fill:black;fill-opacity:0.25;"/>
<path d="M46.6191 27.8859V25.7003H47.659V27.8859C47.659 28.4979 47.8086 28.9678 48.1078 29.2956C48.4143 29.6234 48.8631 29.7873 49.4542 29.7873C49.8118 29.7873 50.1547 29.7473 50.4831 29.6671C50.8115 29.5797 51.1143 29.4377 51.3916 29.241V25.7003H52.4315V33.5356H51.3916V30.1152C51.0925 30.3046 50.7787 30.443 50.4503 30.5304C50.1292 30.6179 49.7935 30.6616 49.4432 30.6616C48.5457 30.6616 47.8488 30.4357 47.3525 29.984C46.8636 29.5324 46.6191 28.833 46.6191 27.8859Z" fill="black" fill-opacity="0.25" style="fill:black;fill-opacity:0.25;"/>
<path d="M35.0688 32.3445H34.62H34.6091L34.62 32.3335L32.2447 27.1428V33.5356H31.2705V25.7003H32.7045L35.1454 31.197L37.6959 25.7003H39.0313V33.5356H37.9914V27.2302L35.5833 32.3335L35.0688 32.3445Z" fill="black" fill-opacity="0.25" style="fill:black;fill-opacity:0.25;"/>
<path d="M24.2819 33.645C23.5813 33.645 22.9464 33.4883 22.3772 33.1751C21.808 32.8618 21.3556 32.4065 21.0199 31.8091C20.6915 31.2044 20.5273 30.465 20.5273 29.5907C20.5273 28.7165 20.6915 27.9843 21.0199 27.3942C21.3556 26.7968 21.808 26.3488 22.3772 26.0501C22.9464 25.7514 23.5813 25.6021 24.2819 25.6021C24.997 25.6021 25.6355 25.755 26.1974 26.061C26.7666 26.3597 27.2154 26.8041 27.5438 27.3942C27.8722 27.9843 28.0364 28.7201 28.0364 29.6017C28.0364 30.4686 27.8722 31.2044 27.5438 31.8091C27.2154 32.4065 26.7666 32.8618 26.1974 33.1751C25.6355 33.4883 24.997 33.645 24.2819 33.645ZM24.2819 32.7161C24.7854 32.7161 25.2378 32.6141 25.6392 32.4101C26.0405 32.2061 26.3543 31.8783 26.5805 31.4266C26.8141 30.9676 26.9308 30.3666 26.9308 29.6235C26.9308 28.8731 26.8141 28.2721 26.5805 27.8204C26.3543 27.3687 26.0405 27.0409 25.6392 26.8369C25.2378 26.6329 24.7854 26.5309 24.2819 26.5309C23.7783 26.5309 23.3259 26.6329 22.9245 26.8369C22.5305 27.0409 22.2167 27.3687 21.9832 27.8204C21.7497 28.2721 21.6329 28.8731 21.6329 29.6235C21.6329 30.3666 21.7497 30.9676 21.9832 31.4266C22.2167 31.8783 22.5305 32.2061 22.9245 32.4101C23.3259 32.6141 23.7783 32.7161 24.2819 32.7161Z" fill="black" fill-opacity="0.25" style="fill:black;fill-opacity:0.25;"/>
<path d="M12.3887 26.651V25.7003H18.2667V26.651H15.8476V33.5356H14.8078V26.651H12.3887Z" fill="black" fill-opacity="0.25" style="fill:black;fill-opacity:0.25;"/>
<path d="M0.0107422 25.7003H2.67065C3.53174 25.7003 4.18486 25.846 4.63 26.1374C5.08244 26.4288 5.30866 26.9206 5.30866 27.6127C5.30866 28.1737 5.16636 28.5998 4.88176 28.8913C4.59716 29.1754 4.2177 29.3684 3.74337 29.4704C4.34905 29.5433 4.80879 29.7218 5.12258 30.0059C5.43636 30.2827 5.59326 30.7053 5.59326 31.2735C5.59326 31.8126 5.46555 32.2498 5.21015 32.5849C4.95474 32.92 4.60446 33.1641 4.15932 33.317C3.71418 33.4628 3.21066 33.5356 2.64876 33.5356H0.0107422V25.7003ZM2.59402 29.0442C3.09025 29.0442 3.49161 28.935 3.7981 28.7164C4.11189 28.4906 4.26878 28.1409 4.26878 27.6673C4.26878 27.2666 4.13013 26.9971 3.85283 26.8587C3.57553 26.713 3.18147 26.6401 2.67065 26.6401H1.03968V29.0442H2.59402ZM2.64876 32.6067C3.20336 32.6067 3.65215 32.512 3.99513 32.3226C4.3381 32.1332 4.50959 31.7908 4.50959 31.2954C4.50959 30.8 4.34905 30.4576 4.02797 30.2682C3.71418 30.0715 3.2143 29.9731 2.52835 29.9731H1.03968V32.6067H2.64876Z" fill="black" fill-opacity="0.25" style="fill:black;fill-opacity:0.25;"/>
<path d="M195.004 22.7837H194.281C194.42 22.6307 194.544 22.4376 194.653 22.2045C194.77 21.9714 194.84 21.7856 194.861 21.6472C194.708 21.6107 194.584 21.5342 194.489 21.4177C194.394 21.3011 194.347 21.1627 194.347 21.0024C194.347 20.813 194.405 20.6564 194.522 20.5325C194.646 20.4014 194.81 20.3358 195.015 20.3358C195.219 20.3358 195.383 20.405 195.507 20.5434C195.639 20.6819 195.704 20.8676 195.704 21.1008C195.704 21.3048 195.668 21.516 195.595 21.7346C195.522 21.9531 195.431 22.1535 195.321 22.3356C195.219 22.525 195.113 22.6744 195.004 22.7837Z" fill="black" fill-opacity="0.25" style="fill:black;fill-opacity:0.25;"/>
<path d="M191.025 13.7791V21.6143H189.985V18.478H188.562L186.395 21.6143H185.136L187.511 18.2923C186.935 18.1684 186.493 17.928 186.187 17.571C185.88 17.214 185.727 16.7296 185.727 16.1176C185.727 15.5639 185.847 15.1159 186.088 14.7735C186.329 14.4311 186.665 14.1797 187.095 14.0195C187.526 13.8592 188.022 13.7791 188.584 13.7791H191.025ZM188.474 17.5492H189.985V14.7189H188.584C188.066 14.7189 187.639 14.8245 187.303 15.0358C186.975 15.2397 186.81 15.6004 186.81 16.1176C186.81 16.6057 186.953 16.9663 187.237 17.1995C187.529 17.4326 187.942 17.5492 188.474 17.5492Z" fill="black" fill-opacity="0.25" style="fill:black;fill-opacity:0.25;"/>
<path d="M176.862 21.6143H175.745V13.7791H176.774V20.2484L181.087 13.7791H182.203V21.6143H181.153V15.1778L176.862 21.6143Z" fill="black" fill-opacity="0.25" style="fill:black;fill-opacity:0.25;"/>
<path d="M166.938 13.7791H169.598C170.459 13.7791 171.113 13.9248 171.558 14.2162C172.01 14.5076 172.236 14.9993 172.236 15.6914C172.236 16.2524 172.094 16.6786 171.81 16.97C171.525 17.2541 171.145 17.4472 170.671 17.5492C171.277 17.622 171.737 17.8005 172.05 18.0846C172.364 18.3615 172.521 18.784 172.521 19.3523C172.521 19.8914 172.393 20.3285 172.138 20.6636C171.882 20.9987 171.532 21.2428 171.087 21.3958C170.642 21.5415 170.138 21.6143 169.576 21.6143H166.938V13.7791ZM169.522 17.123C170.018 17.123 170.419 17.0137 170.726 16.7951C171.04 16.5693 171.197 16.2196 171.197 15.7461C171.197 15.3454 171.058 15.0758 170.781 14.9374C170.503 14.7917 170.109 14.7189 169.598 14.7189H167.967V17.123H169.522ZM169.576 20.6855C170.131 20.6855 170.58 20.5908 170.923 20.4013C171.266 20.2119 171.437 19.8695 171.437 19.3741C171.437 18.8787 171.277 18.5363 170.956 18.3469C170.642 18.1502 170.142 18.0519 169.456 18.0519H167.967V20.6855H169.576Z" fill="black" fill-opacity="0.25" style="fill:black;fill-opacity:0.25;"/>
<path d="M158.064 14.7298V13.7791H163.943V14.7298H161.523V21.6143H160.484V14.7298H158.064Z" fill="black" fill-opacity="0.25" style="fill:black;fill-opacity:0.25;"/>
<path d="M152.965 21.7236C152.191 21.7236 151.512 21.5633 150.929 21.2428C150.352 20.9222 149.903 20.4632 149.582 19.8658C149.261 19.2612 149.101 18.5399 149.101 17.7021C149.101 16.4418 149.433 15.4583 150.097 14.7516C150.761 14.0376 151.709 13.6807 152.943 13.6807C153.475 13.6807 153.942 13.7389 154.344 13.8555C154.752 13.9648 155.081 14.0959 155.329 14.2489V15.2324C155.001 15.0211 154.621 14.8645 154.191 14.7625C153.767 14.6605 153.348 14.6095 152.932 14.6095C152.012 14.6095 151.33 14.8682 150.885 15.3854C150.44 15.9027 150.217 16.6749 150.217 17.7021C150.217 18.7366 150.458 19.5125 150.94 20.0298C151.421 20.5397 152.125 20.7947 153.052 20.7947C153.453 20.7947 153.844 20.7401 154.223 20.6308C154.61 20.5215 154.979 20.3357 155.329 20.0735V21.057C155.117 21.2245 154.807 21.3775 154.398 21.516C153.997 21.6544 153.519 21.7236 152.965 21.7236Z" fill="black" fill-opacity="0.25" style="fill:black;fill-opacity:0.25;"/>
<path d="M139.85 23.4721H138.92V20.6855H139.456C139.792 20.3795 140.04 19.9351 140.201 19.3523C140.361 18.7694 140.471 18.0227 140.529 17.1121C140.587 16.1941 140.631 15.0831 140.66 13.7791H145.663V20.6855H146.67V23.4721H145.717L145.608 21.6143H139.971L139.85 23.4721ZM140.649 20.6855H144.623V14.7189H141.624C141.602 15.8262 141.554 16.766 141.481 17.5382C141.416 18.3105 141.313 18.9516 141.175 19.4615C141.043 19.9642 140.868 20.3722 140.649 20.6855Z" fill="black" fill-opacity="0.25" style="fill:black;fill-opacity:0.25;"/>
<path d="M131.382 13.7791H136.242V14.7189H132.411V17.0902H135.662V18.0191H132.411V20.6855H136.297V21.6143H131.382V13.7791Z" fill="black" fill-opacity="0.25" style="fill:black;fill-opacity:0.25;"/>
<path d="M121.49 20.6199C121.848 20.6563 122.111 20.5434 122.278 20.2811C122.453 20.0189 122.585 19.6728 122.672 19.243C122.782 18.6966 122.855 17.9681 122.891 17.0574C122.928 16.1468 122.953 15.054 122.968 13.7791H127.806V21.6143H126.766V14.7189H123.942C123.92 15.7752 123.891 16.6968 123.855 17.4836C123.818 18.2631 123.749 18.9224 123.647 19.4615C123.559 19.8695 123.435 20.2447 123.274 20.5871C123.114 20.9295 122.891 21.1991 122.607 21.3958C122.322 21.5925 121.95 21.6799 121.49 21.6581V20.6199Z" fill="black" fill-opacity="0.25" style="fill:black;fill-opacity:0.25;"/>
<path d="M116.499 21.7236C115.725 21.7236 115.047 21.5633 114.463 21.2428C113.886 20.9222 113.437 20.4632 113.116 19.8658C112.795 19.2612 112.635 18.5399 112.635 17.7021C112.635 16.4418 112.967 15.4583 113.631 14.7516C114.295 14.0376 115.244 13.6807 116.477 13.6807C117.01 13.6807 117.477 13.7389 117.878 13.8555C118.287 13.9648 118.615 14.0959 118.863 14.2489V15.2324C118.535 15.0211 118.155 14.8645 117.725 14.7625C117.301 14.6605 116.882 14.6095 116.466 14.6095C115.546 14.6095 114.864 14.8682 114.419 15.3854C113.974 15.9027 113.751 16.6749 113.751 17.7021C113.751 18.7366 113.992 19.5125 114.474 20.0298C114.955 20.5397 115.66 20.7947 116.586 20.7947C116.988 20.7947 117.378 20.7401 117.758 20.6308C118.144 20.5215 118.513 20.3357 118.863 20.0735V21.057C118.651 21.2245 118.341 21.3775 117.933 21.516C117.531 21.6544 117.053 21.7236 116.499 21.7236Z" fill="black" fill-opacity="0.25" style="fill:black;fill-opacity:0.25;"/>
<path d="M106.214 21.7236C105.514 21.7236 104.879 21.5669 104.31 21.2537C103.741 20.9404 103.288 20.4851 102.953 19.8877C102.624 19.283 102.46 18.5436 102.46 17.6693C102.46 16.7951 102.624 16.0629 102.953 15.4728C103.288 14.8754 103.741 14.4274 104.31 14.1287C104.879 13.83 105.514 13.6807 106.214 13.6807C106.93 13.6807 107.568 13.8337 108.13 14.1396C108.699 14.4383 109.148 14.8827 109.476 15.4728C109.805 16.0629 109.969 16.7988 109.969 17.6803C109.969 18.5472 109.805 19.283 109.476 19.8877C109.148 20.4851 108.699 20.9404 108.13 21.2537C107.568 21.5669 106.93 21.7236 106.214 21.7236ZM106.214 20.7947C106.718 20.7947 107.17 20.6927 107.572 20.4887C107.973 20.2847 108.287 19.9569 108.513 19.5052C108.747 19.0463 108.863 18.4452 108.863 17.7021C108.863 16.9517 108.747 16.3507 108.513 15.899C108.287 15.4473 107.973 15.1195 107.572 14.9155C107.17 14.7115 106.718 14.6095 106.214 14.6095C105.711 14.6095 105.259 14.7115 104.857 14.9155C104.463 15.1195 104.149 15.4473 103.916 15.899C103.682 16.3507 103.566 16.9517 103.566 17.7021C103.566 18.4452 103.682 19.0463 103.916 19.5052C104.149 19.9569 104.463 20.2847 104.857 20.4887C105.259 20.6927 105.711 20.7947 106.214 20.7947Z" fill="black" fill-opacity="0.25" style="fill:black;fill-opacity:0.25;"/>
<path d="M93.4404 13.7791H99.3404V21.6143H98.3005V14.7189H94.4694V21.6143H93.4404V13.7791Z" fill="black" fill-opacity="0.25" style="fill:black;fill-opacity:0.25;"/>
<path d="M81.2041 13.7791H86.0642V14.7189H82.233V17.0902H85.484V18.0191H82.233V20.6855H86.1189V21.6143H81.2041V13.7791Z" fill="black" fill-opacity="0.25" style="fill:black;fill-opacity:0.25;"/>
<path d="M70.249 21.6143V13.7791H71.278V16.817H72.8323C73.7007 16.817 74.3684 16.9991 74.8354 17.3634C75.3025 17.7277 75.536 18.3178 75.536 19.1337C75.536 19.7311 75.4156 20.2119 75.1748 20.5762C74.934 20.9405 74.5983 21.2064 74.1677 21.3739C73.7372 21.5342 73.241 21.6143 72.6791 21.6143H70.249ZM76.5868 13.79H77.6267V21.6143H76.5868V13.79ZM72.6791 20.6855C73.1972 20.6855 73.6204 20.5762 73.9488 20.3576C74.2845 20.1391 74.4523 19.7457 74.4523 19.1774C74.4523 18.6893 74.31 18.3287 74.0254 18.0956C73.7408 17.8552 73.3322 17.7349 72.7995 17.7349H71.278V20.6855H72.6791Z" fill="black" fill-opacity="0.25" style="fill:black;fill-opacity:0.25;"/>
<path d="M60.5771 13.7791H61.6061V17.265H65.6343V13.7791H66.6741V21.6143H65.6343V18.1939H61.6061V21.6143H60.5771V13.7791Z" fill="black" fill-opacity="0.25" style="fill:black;fill-opacity:0.25;"/>
<path d="M51.7812 13.7791H54.4412C55.3022 13.7791 55.9554 13.9248 56.4005 14.2162C56.853 14.5076 57.0792 14.9993 57.0792 15.6914C57.0792 16.2524 56.9369 16.6786 56.6523 16.97C56.3677 17.2541 55.9882 17.4472 55.5139 17.5492C56.1196 17.622 56.5793 17.8005 56.8931 18.0846C57.2069 18.3615 57.3638 18.784 57.3638 19.3523C57.3638 19.8914 57.2361 20.3285 56.9807 20.6636C56.7252 20.9987 56.375 21.2428 55.9298 21.3958C55.4847 21.5415 54.9812 21.6143 54.4193 21.6143H51.7812V13.7791ZM54.3645 17.123C54.8608 17.123 55.2621 17.0137 55.5686 16.7951C55.8824 16.5693 56.0393 16.2196 56.0393 15.7461C56.0393 15.3454 55.9006 15.0758 55.6233 14.9374C55.346 14.7917 54.952 14.7189 54.4412 14.7189H52.8102V17.123H54.3645ZM54.4193 20.6855C54.9739 20.6855 55.4227 20.5908 55.7656 20.4013C56.1086 20.2119 56.2801 19.8695 56.2801 19.3741C56.2801 18.8787 56.1196 18.5363 55.7985 18.3469C55.4847 18.1502 54.9848 18.0519 54.2989 18.0519H52.8102V20.6855H54.4193Z" fill="black" fill-opacity="0.25" style="fill:black;fill-opacity:0.25;"/>
<path d="M42.8616 21.6143H41.7451V13.7791H42.7741V20.2484L47.0868 13.7791H48.2033V21.6143H47.1525V15.1778L42.8616 21.6143Z" fill="black" fill-opacity="0.25" style="fill:black;fill-opacity:0.25;"/>
<path d="M32.8711 14.7298V13.7791H38.7492V14.7298H36.3301V21.6143H35.2902V14.7298H32.8711Z" fill="black" fill-opacity="0.25" style="fill:black;fill-opacity:0.25;"/>
<path d="M31.338 21.6143H30.2434L29.4334 19.3741H25.9635L25.1644 21.6143H24.2012L26.9924 13.7791H28.5249L31.338 21.6143ZM26.3028 18.4453H29.105L27.7039 14.544L26.3028 18.4453Z" fill="black" fill-opacity="0.25" style="fill:black;fill-opacity:0.25;"/>
<path d="M17.9658 13.7791H22.5413V14.7189H18.9948V21.6143H17.9658V13.7791Z" fill="black" fill-opacity="0.25" style="fill:black;fill-opacity:0.25;"/>
<path d="M9.67188 13.7791H14.5319V14.7189H10.7008V17.0902H13.9518V18.0191H10.7008V20.6855H14.5867V21.6143H9.67188V13.7791Z" fill="black" fill-opacity="0.25" style="fill:black;fill-opacity:0.25;"/>
<path d="M0 13.7791H1.02893V17.265H5.0571V13.7791H6.09698V21.6143H5.0571V18.1939H1.02893V21.6143H0V13.7791Z" fill="black" fill-opacity="0.25" style="fill:black;fill-opacity:0.25;"/>
<path d="M188.498 2.80851V1.85779H194.376V2.80851H191.957V9.69308H190.917V2.80851H188.498Z" fill="black" fill-opacity="0.25" style="fill:black;fill-opacity:0.25;"/>
<path d="M181.791 1.25671C181.609 1.25671 181.459 1.19842 181.342 1.08186C181.233 0.95801 181.178 0.80502 181.178 0.622889C181.178 0.448043 181.233 0.302338 181.342 0.185773C181.459 0.0619245 181.609 0 181.791 0C181.981 0 182.13 0.0619245 182.24 0.185773C182.349 0.302338 182.404 0.448043 182.404 0.622889C182.404 0.80502 182.349 0.95801 182.24 1.08186C182.13 1.19842 181.981 1.25671 181.791 1.25671ZM179.722 1.25671C179.532 1.25671 179.383 1.19842 179.273 1.08186C179.164 0.95801 179.109 0.80502 179.109 0.622889C179.109 0.448043 179.164 0.302338 179.273 0.185773C179.383 0.0619245 179.532 0 179.722 0C179.912 0 180.062 0.0619245 180.171 0.185773C180.28 0.302338 180.335 0.448043 180.335 0.622889C180.335 0.80502 180.28 0.95801 180.171 1.08186C180.062 1.19842 179.912 1.25671 179.722 1.25671ZM178.332 1.85774H183.192V2.79754H179.361V5.16889H182.612V6.09776H179.361V8.76416H183.247V9.69303H178.332V1.85774Z" fill="black" fill-opacity="0.25" style="fill:black;fill-opacity:0.25;"/>
<path d="M166.427 4.04336V1.85779H167.467V4.04336C167.467 4.65532 167.616 5.12522 167.915 5.45306C168.222 5.7809 168.671 5.94481 169.262 5.94481C169.619 5.94481 169.962 5.90474 170.291 5.82461C170.619 5.73718 170.922 5.59512 171.199 5.39842V1.85779H172.239V9.69308H171.199V6.27265C170.9 6.46207 170.586 6.60049 170.258 6.68791C169.937 6.77533 169.601 6.81904 169.251 6.81904C168.353 6.81904 167.656 6.5932 167.16 6.14152C166.671 5.68983 166.427 4.99045 166.427 4.04336Z" fill="black" fill-opacity="0.25" style="fill:black;fill-opacity:0.25;"/>
<path d="M155.77 1.85779H160.63V2.79759H156.798V5.16893H160.049V6.0978H156.798V8.76421H160.684V9.69308H155.77V1.85779Z" fill="black" fill-opacity="0.25" style="fill:black;fill-opacity:0.25;"/>
<path d="M143.359 8.69864C143.717 8.73506 143.98 8.62214 144.147 8.35987C144.323 8.09761 144.454 7.75156 144.542 7.32173C144.651 6.77533 144.724 6.04681 144.76 5.13615C144.797 4.22549 144.823 3.13271 144.837 1.85779H149.675V9.69308H148.635V2.79759H145.811C145.789 3.85395 145.76 4.77553 145.724 5.56234C145.687 6.34186 145.618 7.00117 145.516 7.54028C145.428 7.94826 145.304 8.32345 145.144 8.66585C144.983 9.00826 144.76 9.27782 144.476 9.47452C144.191 9.67122 143.819 9.75864 143.359 9.73679V8.69864Z" fill="black" fill-opacity="0.25" style="fill:black;fill-opacity:0.25;"/>
<path d="M132.736 1.85779H135.396C136.257 1.85779 136.91 2.00349 137.356 2.2949C137.808 2.58631 138.034 3.07807 138.034 3.77017C138.034 4.33113 137.892 4.75732 137.607 5.04873C137.323 5.33285 136.943 5.52591 136.469 5.62791C137.075 5.70076 137.534 5.87925 137.848 6.16337C138.162 6.44021 138.319 6.86275 138.319 7.431C138.319 7.97011 138.191 8.40723 137.936 8.74235C137.68 9.07747 137.33 9.32153 136.885 9.47452C136.44 9.62022 135.936 9.69308 135.374 9.69308H132.736V1.85779ZM135.32 5.20172C135.816 5.20172 136.217 5.09244 136.524 4.87388C136.837 4.64804 136.994 4.29835 136.994 3.82481C136.994 3.42412 136.856 3.15456 136.578 3.01614C136.301 2.87044 135.907 2.79759 135.396 2.79759H133.765V5.20172H135.32ZM135.374 8.76421C135.929 8.76421 136.378 8.6695 136.721 8.48008C137.064 8.29066 137.235 7.94826 137.235 7.45286C137.235 6.95746 137.075 6.61506 136.754 6.42564C136.44 6.22894 135.94 6.13059 135.254 6.13059H133.765V8.76421H135.374Z" fill="black" fill-opacity="0.25" style="fill:black;fill-opacity:0.25;"/>
<path d="M116.879 9.80232C116.178 9.80232 115.543 9.64568 114.974 9.33242C114.405 9.01915 113.952 8.56382 113.617 7.96643C113.288 7.36176 113.124 6.6223 113.124 5.74807C113.124 4.87384 113.288 4.14168 113.617 3.55157C113.952 2.95418 114.405 2.50614 114.974 2.20744C115.543 1.90875 116.178 1.7594 116.879 1.7594C117.594 1.7594 118.232 1.91239 118.794 2.21837C119.363 2.51707 119.812 2.96147 120.14 3.55157C120.469 4.14168 120.633 4.87749 120.633 5.759C120.633 6.62595 120.469 7.36176 120.14 7.96643C119.812 8.56382 119.363 9.01915 118.794 9.33242C118.232 9.64568 117.594 9.80232 116.879 9.80232ZM116.879 8.87345C117.382 8.87345 117.835 8.77145 118.236 8.56747C118.637 8.36348 118.951 8.03564 119.177 7.58396C119.411 7.12499 119.528 6.52395 119.528 5.78086C119.528 5.03048 119.411 4.42944 119.177 3.97776C118.951 3.52607 118.637 3.19824 118.236 2.99425C117.835 2.79026 117.382 2.68827 116.879 2.68827C116.375 2.68827 115.923 2.79026 115.521 2.99425C115.127 3.19824 114.813 3.52607 114.58 3.97776C114.346 4.42944 114.23 5.03048 114.23 5.78086C114.23 6.52395 114.346 7.12499 114.58 7.58396C114.813 8.03564 115.127 8.36348 115.521 8.56747C115.923 8.77145 116.375 8.87345 116.879 8.87345Z" fill="black" fill-opacity="0.25" style="fill:black;fill-opacity:0.25;"/>
<path d="M102.312 1.85779H104.972C105.833 1.85779 106.487 2.00349 106.932 2.2949C107.384 2.58631 107.61 3.07807 107.61 3.77017C107.61 4.33113 107.468 4.75732 107.184 5.04873C106.899 5.33285 106.519 5.52591 106.045 5.62791C106.651 5.70076 107.111 5.87925 107.424 6.16337C107.738 6.44021 107.895 6.86275 107.895 7.431C107.895 7.97011 107.767 8.40723 107.512 8.74235C107.256 9.07747 106.906 9.32153 106.461 9.47452C106.016 9.62022 105.512 9.69308 104.951 9.69308H102.312V1.85779ZM104.896 5.20172C105.392 5.20172 105.793 5.09244 106.1 4.87388C106.414 4.64804 106.571 4.29835 106.571 3.82481C106.571 3.42412 106.432 3.15456 106.155 3.01614C105.877 2.87044 105.483 2.79759 104.972 2.79759H103.341V5.20172H104.896ZM104.951 8.76421C105.505 8.76421 105.954 8.6695 106.297 8.48008C106.64 8.29066 106.811 7.94826 106.811 7.45286C106.811 6.95746 106.651 6.61506 106.33 6.42564C106.016 6.22894 105.516 6.13059 104.83 6.13059H103.341V8.76421H104.951Z" fill="black" fill-opacity="0.25" style="fill:black;fill-opacity:0.25;"/>
<path d="M90.9219 2.80851V1.85779H96.7999V2.80851H94.3808V9.69308H93.341V2.80851H90.9219Z" fill="black" fill-opacity="0.25" style="fill:black;fill-opacity:0.25;"/>
<path d="M83.3044 9.80232C82.5309 9.80232 81.8522 9.64204 81.2684 9.32149C80.6919 9.00094 80.2431 8.54197 79.9221 7.94458C79.601 7.3399 79.4404 6.61866 79.4404 5.78086C79.4404 4.52051 79.7725 3.537 80.4365 2.83033C81.1006 2.11638 82.0493 1.7594 83.2825 1.7594C83.8152 1.7594 84.2823 1.81768 84.6836 1.93425C85.0923 2.04352 85.4207 2.17466 85.6688 2.32765V3.31116C85.3404 3.09989 84.9609 2.94325 84.5304 2.84126C84.1071 2.73927 83.6875 2.68827 83.2716 2.68827C82.3521 2.68827 81.6698 2.94689 81.2246 3.46415C80.7795 3.9814 80.5569 4.75364 80.5569 5.78086C80.5569 6.81536 80.7977 7.59124 81.2794 8.1085C81.761 8.61846 82.4652 8.87345 83.392 8.87345C83.7933 8.87345 84.1837 8.81881 84.5632 8.70953C84.95 8.60025 85.3185 8.41448 85.6688 8.15221V9.13572C85.4571 9.30328 85.147 9.45627 84.7384 9.59469C84.337 9.73311 83.859 9.80232 83.3044 9.80232Z" fill="black" fill-opacity="0.25" style="fill:black;fill-opacity:0.25;"/>
<path d="M68.8936 2.80851V1.85779H74.7716V2.80851H72.3525V9.69308H71.3126V2.80851H68.8936Z" fill="black" fill-opacity="0.25" style="fill:black;fill-opacity:0.25;"/>
<path d="M60.4713 9.80232C59.7708 9.80232 59.1359 9.64568 58.5667 9.33242C57.9975 9.01915 57.5451 8.56382 57.2094 7.96643C56.881 7.36176 56.7168 6.6223 56.7168 5.74807C56.7168 4.87384 56.881 4.14168 57.2094 3.55157C57.5451 2.95418 57.9975 2.50614 58.5667 2.20744C59.1359 1.90875 59.7708 1.7594 60.4713 1.7594C61.1865 1.7594 61.825 1.91239 62.3869 2.21837C62.9561 2.51707 63.4049 2.96147 63.7332 3.55157C64.0616 4.14168 64.2258 4.87749 64.2258 5.759C64.2258 6.62595 64.0616 7.36176 63.7332 7.96643C63.4049 8.56382 62.9561 9.01915 62.3869 9.33242C61.825 9.64568 61.1865 9.80232 60.4713 9.80232ZM60.4713 8.87345C60.9748 8.87345 61.4273 8.77145 61.8286 8.56747C62.23 8.36348 62.5438 8.03564 62.77 7.58396C63.0035 7.12499 63.1203 6.52395 63.1203 5.78086C63.1203 5.03048 63.0035 4.42944 62.77 3.97776C62.5438 3.52607 62.23 3.19824 61.8286 2.99425C61.4273 2.79026 60.9748 2.68827 60.4713 2.68827C59.9678 2.68827 59.5153 2.79026 59.114 2.99425C58.7199 3.19824 58.4061 3.52607 58.1726 3.97776C57.9391 4.42944 57.8224 5.03048 57.8224 5.78086C57.8224 6.52395 57.9391 7.12499 58.1726 7.58396C58.4061 8.03564 58.7199 8.36348 59.114 8.56747C59.5153 8.77145 59.9678 8.87345 60.4713 8.87345Z" fill="black" fill-opacity="0.25" style="fill:black;fill-opacity:0.25;"/>
<path d="M46.2266 1.85779H48.7332C49.6235 1.85779 50.3131 2.04356 50.802 2.41511C51.2983 2.77937 51.5464 3.35126 51.5464 4.13079C51.5464 4.72089 51.4223 5.20172 51.1742 5.57327C50.9334 5.94481 50.5941 6.21801 50.1562 6.39286C49.7257 6.56042 49.2221 6.6442 48.6457 6.6442H47.2555V9.69308H46.2266V1.85779ZM48.6457 5.71533C49.2003 5.71533 49.649 5.59512 49.992 5.35471C50.335 5.1143 50.5065 4.70996 50.5065 4.14171C50.5065 3.66817 50.3532 3.32577 50.0468 3.11449C49.7403 2.90322 49.3024 2.79759 48.7332 2.79759H47.2555V5.71533H48.6457Z" fill="black" fill-opacity="0.25" style="fill:black;fill-opacity:0.25;"/>
<path d="M40.8234 9.69308H39.5427L36.8062 6.33822H35.9742V9.69308H34.9453V1.85779H35.9742V5.40935H36.7405L39.5427 1.85779H40.703L37.6052 5.76997L40.8234 9.69308Z" fill="black" fill-opacity="0.25" style="fill:black;fill-opacity:0.25;"/>
<path d="M22.7549 1.85779H23.7838V5.34378H27.812V1.85779H28.8519V9.69308H27.812V6.27265H23.7838V9.69308H22.7549V1.85779Z" fill="black" fill-opacity="0.25" style="fill:black;fill-opacity:0.25;"/>
<path d="M17.3537 9.69308H16.2591L15.449 7.45286H11.9791L11.1801 9.69308H10.2168L13.0081 1.85779H14.5405L17.3537 9.69308ZM12.3184 6.52399H15.1207L13.7196 2.62274L12.3184 6.52399Z" fill="black" fill-opacity="0.25" style="fill:black;fill-opacity:0.25;"/>
<path d="M0.0107422 9.69308V1.85779H4.79419V2.79759H1.03968V5.00502H2.59402C3.46242 5.00502 4.13013 5.1835 4.59716 5.54048C5.0642 5.89746 5.29771 6.47299 5.29771 7.26709C5.29771 7.84991 5.17731 8.31981 4.93649 8.67678C4.69568 9.03376 4.36 9.29239 3.92945 9.45266C3.4989 9.61294 3.00268 9.69308 2.44078 9.69308H0.0107422ZM2.44078 8.76421C2.9589 8.76421 3.38214 8.65857 3.71053 8.4473C4.04621 8.23603 4.21405 7.85719 4.21405 7.3108C4.21405 6.84454 4.07175 6.49849 3.78715 6.27265C3.50255 6.04681 3.0939 5.93389 2.56119 5.93389H1.03968V8.76421H2.44078Z" fill="black" fill-opacity="0.25" style="fill:black;fill-opacity:0.25;"/>
</svg>
