<svg width="1000" height="35" viewBox="0 0 1000 35" fill="none" xmlns="http://www.w3.org/2000/svg">
<path d="M989.765 32V20.528H991.285V30.64H996.944V20.528H998.48V30.64H1000V34.72H998.577L998.399 32H989.765Z" fill="black" fill-opacity="0.25" style="fill:black;fill-opacity:0.25;"/>
<path d="M976.63 26.256C976.63 27.024 976.786 27.6374 977.099 28.096C977.411 28.5547 977.837 28.8907 978.376 29.104C978.926 29.3067 979.535 29.424 980.203 29.456V23.072C979.535 23.104 978.926 23.2267 978.376 23.44C977.837 23.6427 977.411 23.9734 977.099 24.432C976.786 24.88 976.63 25.488 976.63 26.256ZM985.313 26.288C985.313 25.5094 985.156 24.896 984.844 24.448C984.531 23.9894 984.105 23.6534 983.567 23.44C983.028 23.2267 982.419 23.1094 981.739 23.088V29.472C982.419 29.44 983.028 29.3227 983.567 29.12C984.105 28.9067 984.531 28.576 984.844 28.128C985.156 27.6694 985.313 27.056 985.313 26.288ZM980.203 20.4H981.739V21.872C982.72 21.8934 983.599 22.0694 984.375 22.4C985.162 22.7307 985.782 23.216 986.234 23.856C986.687 24.4854 986.913 25.28 986.913 26.24C986.913 27.1894 986.687 27.9894 986.234 28.64C985.782 29.28 985.162 29.7707 984.375 30.112C983.599 30.4427 982.72 30.624 981.739 30.656V32.16H980.203V30.656C979.222 30.6347 978.339 30.464 977.552 30.144C976.776 29.8134 976.161 29.328 975.708 28.688C975.256 28.048 975.029 27.2534 975.029 26.304C975.029 25.344 975.256 24.544 975.708 23.904C976.161 23.2534 976.776 22.7627 977.552 22.432C978.339 22.0907 979.222 21.904 980.203 21.872V20.4Z" fill="black" fill-opacity="0.25" style="fill:black;fill-opacity:0.25;"/>
<path d="M966.347 30.256H965.684H965.668L965.684 30.24L962.175 22.64V32H960.736V20.528H962.854L966.46 28.576L970.228 20.528H972.2V32H970.664V22.768L967.107 30.24L966.347 30.256Z" fill="black" fill-opacity="0.25" style="fill:black;fill-opacity:0.25;"/>
<path d="M945.461 20.528H949.39C950.662 20.528 951.627 20.7413 952.284 21.168C952.953 21.5946 953.287 22.3146 953.287 23.328C953.287 24.1493 953.077 24.7733 952.656 25.2C952.236 25.616 951.675 25.8986 950.975 26.048C951.869 26.1546 952.548 26.416 953.012 26.832C953.475 27.2373 953.707 27.856 953.707 28.688C953.707 29.4773 953.519 30.1173 953.141 30.608C952.764 31.0986 952.247 31.456 951.589 31.68C950.931 31.8933 950.188 32 949.358 32H945.461V20.528ZM949.277 25.424C950.01 25.424 950.603 25.264 951.055 24.944C951.519 24.6133 951.751 24.1013 951.751 23.408C951.751 22.8213 951.546 22.4266 951.136 22.224C950.727 22.0106 950.145 21.904 949.39 21.904H946.981V25.424H949.277ZM949.358 30.64C950.177 30.64 950.84 30.5013 951.346 30.224C951.853 29.9466 952.106 29.4453 952.106 28.72C952.106 27.9946 951.869 27.4933 951.395 27.216C950.931 26.928 950.193 26.784 949.18 26.784H946.981V30.64H949.358Z" fill="black" fill-opacity="0.25" style="fill:black;fill-opacity:0.25;"/>
<path d="M930.019 32H928.37V20.528H929.89V30L936.261 20.528H937.91V32H936.358V22.576L930.019 32Z" fill="black" fill-opacity="0.25" style="fill:black;fill-opacity:0.25;"/>
<path d="M914.173 30.496C914.841 30.56 915.364 30.464 915.741 30.208C916.118 29.9413 916.431 29.5946 916.679 29.168L912.378 20.528H914.108L917.455 27.44L920.349 20.528H921.918L918.247 28.896C917.945 29.6 917.617 30.192 917.261 30.672C916.905 31.152 916.479 31.504 915.984 31.728C915.499 31.952 914.895 32.0426 914.173 32V30.496Z" fill="black" fill-opacity="0.25" style="fill:black;fill-opacity:0.25;"/>
<path d="M902.639 20.528H906.341C907.656 20.528 908.675 20.8 909.397 21.344C910.13 21.8773 910.497 22.7146 910.497 23.856C910.497 24.72 910.314 25.424 909.947 25.968C909.591 26.512 909.09 26.912 908.443 27.168C907.807 27.4133 907.064 27.536 906.212 27.536H904.159V32H902.639V20.528ZM906.212 26.176C907.031 26.176 907.694 26 908.201 25.648C908.707 25.296 908.961 24.704 908.961 23.872C908.961 23.1786 908.734 22.6773 908.282 22.368C907.829 22.0586 907.182 21.904 906.341 21.904H904.159V26.176H906.212Z" fill="black" fill-opacity="0.25" style="fill:black;fill-opacity:0.25;"/>
<path d="M894.254 32.16C893.219 32.16 892.281 31.9307 891.441 31.472C890.6 31.0134 889.931 30.3467 889.436 29.472C888.951 28.5867 888.708 27.504 888.708 26.224C888.708 24.944 888.951 23.872 889.436 23.008C889.931 22.1334 890.6 21.4774 891.441 21.04C892.281 20.6027 893.219 20.384 894.254 20.384C895.31 20.384 896.254 20.608 897.084 21.056C897.924 21.4934 898.587 22.144 899.072 23.008C899.557 23.872 899.8 24.9494 899.8 26.24C899.8 27.5094 899.557 28.5867 899.072 29.472C898.587 30.3467 897.924 31.0134 897.084 31.472C896.254 31.9307 895.31 32.16 894.254 32.16ZM894.254 30.8C894.998 30.8 895.666 30.6507 896.259 30.352C896.852 30.0534 897.315 29.5734 897.649 28.912C897.994 28.24 898.167 27.36 898.167 26.272C898.167 25.1734 897.994 24.2934 897.649 23.632C897.315 22.9707 896.852 22.4907 896.259 22.192C895.666 21.8934 894.998 21.744 894.254 21.744C893.51 21.744 892.842 21.8934 892.249 22.192C891.667 22.4907 891.203 22.9707 890.858 23.632C890.514 24.2934 890.341 25.1734 890.341 26.272C890.341 27.36 890.514 28.24 890.858 28.912C891.203 29.5734 891.667 30.0534 892.249 30.352C892.842 30.6507 893.51 30.8 894.254 30.8Z" fill="black" fill-opacity="0.25" style="fill:black;fill-opacity:0.25;"/>
<path d="M878.627 21.92V20.528H887.31V21.92H883.736V32H882.2V21.92H878.627Z" fill="black" fill-opacity="0.25" style="fill:black;fill-opacity:0.25;"/>
<path d="M868.104 32H866.455V20.528H867.975V30L874.346 20.528H875.995V32H874.443V22.576L868.104 32Z" fill="black" fill-opacity="0.25" style="fill:black;fill-opacity:0.25;"/>
<path d="M853.573 34.72H852.198V30.64H852.991C853.486 30.192 853.853 29.5413 854.09 28.688C854.327 27.8346 854.489 26.7413 854.575 25.408C854.661 24.064 854.726 22.4373 854.769 20.528H862.158V30.64H863.646V34.72H862.239L862.077 32H853.75L853.573 34.72ZM854.753 30.64H860.622V21.904H856.192C856.16 23.5253 856.09 24.9013 855.982 26.032C855.885 27.1626 855.734 28.1013 855.529 28.848C855.335 29.584 855.076 30.1813 854.753 30.64Z" fill="black" fill-opacity="0.25" style="fill:black;fill-opacity:0.25;"/>
<path d="M842.841 20.528H850.02V21.904H844.361V25.376H849.163V26.736H844.361V30.64H850.101V32H842.841V20.528Z" fill="black" fill-opacity="0.25" style="fill:black;fill-opacity:0.25;"/>
<path d="M832.165 20.528H835.868C837.183 20.528 838.201 20.8 838.924 21.344C839.657 21.8773 840.023 22.7146 840.023 23.856C840.023 24.72 839.84 25.424 839.473 25.968C839.118 26.512 838.616 26.912 837.97 27.168C837.334 27.4133 836.59 27.536 835.738 27.536H833.685V32H832.165V20.528ZM835.738 26.176C836.558 26.176 837.221 26 837.727 25.648C838.234 25.296 838.487 24.704 838.487 23.872C838.487 23.1786 838.261 22.6773 837.808 22.368C837.355 22.0586 836.709 21.904 835.868 21.904H833.685V26.176H835.738Z" fill="black" fill-opacity="0.25" style="fill:black;fill-opacity:0.25;"/>
<path d="M829.681 32H827.789L823.747 27.088H822.518V32H820.998V20.528H822.518V25.728H823.65L827.789 20.528H829.503L824.927 26.256L829.681 32Z" fill="black" fill-opacity="0.25" style="fill:black;fill-opacity:0.25;"/>
<path d="M806.801 30.496C807.469 30.56 807.992 30.464 808.369 30.208C808.746 29.9413 809.059 29.5946 809.307 29.168L805.006 20.528H806.736L810.083 27.44L812.977 20.528H814.546L810.875 28.896C810.573 29.6 810.245 30.192 809.889 30.672C809.533 31.152 809.107 31.504 808.612 31.728C808.126 31.952 807.523 32.0426 806.801 32V30.496Z" fill="black" fill-opacity="0.25" style="fill:black;fill-opacity:0.25;"/>
<path d="M796.582 30.256H795.919H795.903L795.919 30.24L792.411 22.64V32H790.972V20.528H793.09L796.695 28.576L800.463 20.528H802.435V32H800.899V22.768L797.342 30.24L796.582 30.256Z" fill="black" fill-opacity="0.25" style="fill:black;fill-opacity:0.25;"/>
<path d="M780.5 20.528H787.679V21.904H782.02V25.376H786.822V26.736H782.02V30.64H787.76V32H780.5V20.528Z" fill="black" fill-opacity="0.25" style="fill:black;fill-opacity:0.25;"/>
<path d="M772.115 32.16C771.08 32.16 770.143 31.9307 769.302 31.472C768.461 31.0134 767.793 30.3467 767.297 29.472C766.812 28.5867 766.569 27.504 766.569 26.224C766.569 24.944 766.812 23.872 767.297 23.008C767.793 22.1334 768.461 21.4774 769.302 21.04C770.143 20.6027 771.08 20.384 772.115 20.384C773.172 20.384 774.115 20.608 774.945 21.056C775.786 21.4934 776.449 22.144 776.934 23.008C777.419 23.872 777.661 24.9494 777.661 26.24C777.661 27.5094 777.419 28.5867 776.934 29.472C776.449 30.3467 775.786 31.0134 774.945 31.472C774.115 31.9307 773.172 32.16 772.115 32.16ZM772.115 30.8C772.859 30.8 773.527 30.6507 774.12 30.352C774.713 30.0534 775.177 29.5734 775.511 28.912C775.856 28.24 776.028 27.36 776.028 26.272C776.028 25.1734 775.856 24.2934 775.511 23.632C775.177 22.9707 774.713 22.4907 774.12 22.192C773.527 21.8934 772.859 21.744 772.115 21.744C771.371 21.744 770.703 21.8934 770.11 22.192C769.528 22.4907 769.065 22.9707 768.72 23.632C768.375 24.2934 768.202 25.1734 768.202 26.272C768.202 27.36 768.375 28.24 768.72 28.912C769.065 29.5734 769.528 30.0534 770.11 30.352C770.703 30.6507 771.371 30.8 772.115 30.8Z" fill="black" fill-opacity="0.25" style="fill:black;fill-opacity:0.25;"/>
<path d="M756.099 20.528H760.028C761.3 20.528 762.264 20.7413 762.922 21.168C763.59 21.5946 763.924 22.3146 763.924 23.328C763.924 24.1493 763.714 24.7733 763.294 25.2C762.873 25.616 762.313 25.8986 761.612 26.048C762.507 26.1546 763.186 26.416 763.65 26.832C764.113 27.2373 764.345 27.856 764.345 28.688C764.345 29.4773 764.156 30.1173 763.779 30.608C763.402 31.0986 762.884 31.456 762.227 31.68C761.569 31.8933 760.825 32 759.995 32H756.099V20.528ZM759.915 25.424C760.648 25.424 761.24 25.264 761.693 24.944C762.157 24.6133 762.388 24.1013 762.388 23.408C762.388 22.8213 762.184 22.4266 761.774 22.224C761.364 22.0106 760.782 21.904 760.028 21.904H757.619V25.424H759.915ZM759.995 30.64C760.815 30.64 761.478 30.5013 761.984 30.224C762.491 29.9466 762.744 29.4453 762.744 28.72C762.744 27.9946 762.507 27.4933 762.033 27.216C761.569 26.928 760.831 26.784 759.817 26.784H757.619V30.64H759.995Z" fill="black" fill-opacity="0.25" style="fill:black;fill-opacity:0.25;"/>
<path d="M749.47 32.16C748.328 32.16 747.325 31.9254 746.463 31.456C745.611 30.9867 744.948 30.3147 744.474 29.44C744 28.5547 743.763 27.4987 743.763 26.272C743.763 24.4267 744.253 22.9867 745.234 21.952C746.215 20.9067 747.616 20.384 749.438 20.384C750.225 20.384 750.915 20.4694 751.508 20.64C752.111 20.8 752.596 20.992 752.963 21.216V22.656C752.478 22.3467 751.917 22.1174 751.281 21.968C750.656 21.8187 750.036 21.744 749.422 21.744C748.064 21.744 747.056 22.1227 746.398 22.88C745.741 23.6374 745.412 24.768 745.412 26.272C745.412 27.7867 745.768 28.9227 746.479 29.68C747.191 30.4267 748.231 30.8 749.6 30.8C750.193 30.8 750.769 30.72 751.33 30.56C751.901 30.4 752.445 30.128 752.963 29.744V31.184C752.65 31.4294 752.192 31.6534 751.588 31.856C750.996 32.0587 750.29 32.16 749.47 32.16Z" fill="black" fill-opacity="0.25" style="fill:black;fill-opacity:0.25;"/>
<path d="M737.912 32H736.02L731.978 27.088H730.749V32H729.229V20.528H730.749V25.728H731.881L736.02 20.528H737.734L733.159 26.256L737.912 32Z" fill="black" fill-opacity="0.25" style="fill:black;fill-opacity:0.25;"/>
<path d="M714.365 32V20.528H715.885V24.976H718.181C719.464 24.976 720.45 25.2426 721.14 25.776C721.83 26.3093 722.175 27.1733 722.175 28.368C722.175 29.2426 721.997 29.9466 721.641 30.48C721.286 31.0133 720.79 31.4026 720.154 31.648C719.518 31.8826 718.785 32 717.955 32H714.365ZM717.955 30.64C718.72 30.64 719.345 30.48 719.83 30.16C720.326 29.84 720.574 29.264 720.574 28.432C720.574 27.728 720.364 27.2 719.944 26.848C719.523 26.496 718.92 26.32 718.133 26.32H715.885V30.64H717.955Z" fill="black" fill-opacity="0.25" style="fill:black;fill-opacity:0.25;"/>
<path d="M707.737 32.16C706.594 32.16 705.592 31.9254 704.73 31.456C703.878 30.9867 703.215 30.3147 702.741 29.44C702.266 28.5547 702.029 27.4987 702.029 26.272C702.029 24.4267 702.52 22.9867 703.501 21.952C704.482 20.9067 705.883 20.384 707.705 20.384C708.492 20.384 709.181 20.4694 709.774 20.64C710.378 20.8 710.863 20.992 711.229 21.216V22.656C710.744 22.3467 710.184 22.1174 709.548 21.968C708.923 21.8187 708.303 21.744 707.688 21.744C706.33 21.744 705.322 22.1227 704.665 22.88C704.007 23.6374 703.679 24.768 703.679 26.272C703.679 27.7867 704.034 28.9227 704.746 29.68C705.457 30.4267 706.497 30.8 707.866 30.8C708.459 30.8 709.036 30.72 709.596 30.56C710.168 30.4 710.712 30.128 711.229 29.744V31.184C710.917 31.4294 710.459 31.6534 709.855 31.856C709.262 32.0587 708.556 32.16 707.737 32.16Z" fill="black" fill-opacity="0.25" style="fill:black;fill-opacity:0.25;"/>
<path d="M692.553 20.528H699.732V21.904H694.073V25.376H698.875V26.736H694.073V30.64H699.813V32H692.553V20.528Z" fill="black" fill-opacity="0.25" style="fill:black;fill-opacity:0.25;"/>
<path d="M681.224 21.92V20.528H689.906V21.92H686.333V32H684.797V21.92H681.224Z" fill="black" fill-opacity="0.25" style="fill:black;fill-opacity:0.25;"/>
<path d="M670.7 32H669.051V20.528H670.571V30L676.941 20.528H678.59V32H677.038V22.576L670.7 32Z" fill="black" fill-opacity="0.25" style="fill:black;fill-opacity:0.25;"/>
<path d="M657.722 21.92V20.528H666.404V21.92H662.831V32H661.295V21.92H657.722Z" fill="black" fill-opacity="0.25" style="fill:black;fill-opacity:0.25;"/>
<path d="M657.236 32H655.619L654.422 28.72H649.297L648.116 32H646.693L650.816 20.528H653.08L657.236 32ZM649.798 27.36H653.937L651.867 21.648L649.798 27.36Z" fill="black" fill-opacity="0.25" style="fill:black;fill-opacity:0.25;"/>
<path d="M638.014 20.528H641.716C643.031 20.528 644.05 20.8 644.772 21.344C645.505 21.8773 645.872 22.7146 645.872 23.856C645.872 24.72 645.689 25.424 645.322 25.968C644.966 26.512 644.465 26.912 643.818 27.168C643.182 27.4133 642.439 27.536 641.587 27.536H639.534V32H638.014V20.528ZM641.587 26.176C642.406 26.176 643.069 26 643.576 25.648C644.082 25.296 644.336 24.704 644.336 23.872C644.336 23.1786 644.109 22.6773 643.657 22.368C643.204 22.0586 642.557 21.904 641.716 21.904H639.534V26.176H641.587Z" fill="black" fill-opacity="0.25" style="fill:black;fill-opacity:0.25;"/>
<path d="M627.163 32V20.528H634.229V21.904H628.683V25.136H630.979C632.262 25.136 633.248 25.3973 633.938 25.92C634.628 26.4426 634.973 27.2853 634.973 28.448C634.973 29.3013 634.795 29.9893 634.439 30.512C634.083 31.0346 633.588 31.4133 632.952 31.648C632.316 31.8826 631.583 32 630.753 32H627.163ZM630.753 30.64C631.518 30.64 632.143 30.4853 632.628 30.176C633.124 29.8666 633.372 29.312 633.372 28.512C633.372 27.8293 633.162 27.3226 632.741 26.992C632.321 26.6613 631.717 26.496 630.93 26.496H628.683V30.64H630.753Z" fill="black" fill-opacity="0.25" style="fill:black;fill-opacity:0.25;"/>
<path d="M618.778 32.16C617.744 32.16 616.806 31.9307 615.965 31.472C615.124 31.0134 614.456 30.3467 613.96 29.472C613.475 28.5867 613.232 27.504 613.232 26.224C613.232 24.944 613.475 23.872 613.96 23.008C614.456 22.1334 615.124 21.4774 615.965 21.04C616.806 20.6027 617.744 20.384 618.778 20.384C619.835 20.384 620.778 20.608 621.608 21.056C622.449 21.4934 623.112 22.144 623.597 23.008C624.082 23.872 624.324 24.9494 624.324 26.24C624.324 27.5094 624.082 28.5867 623.597 29.472C623.112 30.3467 622.449 31.0134 621.608 31.472C620.778 31.9307 619.835 32.16 618.778 32.16ZM618.778 30.8C619.522 30.8 620.19 30.6507 620.783 30.352C621.376 30.0534 621.84 29.5734 622.174 28.912C622.519 28.24 622.691 27.36 622.691 26.272C622.691 25.1734 622.519 24.2934 622.174 23.632C621.84 22.9707 621.376 22.4907 620.783 22.192C620.19 21.8934 619.522 21.744 618.778 21.744C618.035 21.744 617.366 21.8934 616.773 22.192C616.191 22.4907 615.728 22.9707 615.383 23.632C615.038 24.2934 614.866 25.1734 614.866 26.272C614.866 27.36 615.038 28.24 615.383 28.912C615.728 29.5734 616.191 30.0534 616.773 30.352C617.366 30.6507 618.035 30.8 618.778 30.8Z" fill="black" fill-opacity="0.25" style="fill:black;fill-opacity:0.25;"/>
<path d="M601.482 32.16C600.448 32.16 599.51 31.9307 598.669 31.472C597.828 31.0134 597.16 30.3467 596.664 29.472C596.179 28.5867 595.937 27.504 595.937 26.224C595.937 24.944 596.179 23.872 596.664 23.008C597.16 22.1334 597.828 21.4774 598.669 21.04C599.51 20.6027 600.448 20.384 601.482 20.384C602.539 20.384 603.482 20.608 604.312 21.056C605.153 21.4934 605.816 22.144 606.301 23.008C606.786 23.872 607.028 24.9494 607.028 26.24C607.028 27.5094 606.786 28.5867 606.301 29.472C605.816 30.3467 605.153 31.0134 604.312 31.472C603.482 31.9307 602.539 32.16 601.482 32.16ZM601.482 30.8C602.226 30.8 602.895 30.6507 603.487 30.352C604.08 30.0534 604.544 29.5734 604.878 28.912C605.223 28.24 605.395 27.36 605.395 26.272C605.395 25.1734 605.223 24.2934 604.878 23.632C604.544 22.9707 604.08 22.4907 603.487 22.192C602.895 21.8934 602.226 21.744 601.482 21.744C600.739 21.744 600.07 21.8934 599.478 22.192C598.895 22.4907 598.432 22.9707 598.087 23.632C597.742 24.2934 597.57 25.1734 597.57 26.272C597.57 27.36 597.742 28.24 598.087 28.912C598.432 29.5734 598.895 30.0534 599.478 30.352C600.07 30.6507 600.739 30.8 601.482 30.8Z" fill="black" fill-opacity="0.25" style="fill:black;fill-opacity:0.25;"/>
<path d="M584.106 20.528H585.626V25.632H591.576V20.528H593.113V32H591.576V26.992H585.626V32H584.106V20.528Z" fill="black" fill-opacity="0.25" style="fill:black;fill-opacity:0.25;"/>
<path d="M573.304 32V20.528H574.824V24.976H577.12C578.402 24.976 579.389 25.2426 580.078 25.776C580.768 26.3093 581.113 27.1733 581.113 28.368C581.113 29.2426 580.935 29.9466 580.58 30.48C580.224 31.0133 579.728 31.4026 579.092 31.648C578.456 31.8826 577.723 32 576.893 32H573.304ZM576.893 30.64C577.659 30.64 578.284 30.48 578.769 30.16C579.265 29.84 579.513 29.264 579.513 28.432C579.513 27.728 579.302 27.2 578.882 26.848C578.462 26.496 577.858 26.32 577.071 26.32H574.824V30.64H576.893Z" fill="black" fill-opacity="0.25" style="fill:black;fill-opacity:0.25;"/>
<path d="M560.47 30.544C560.998 30.5973 561.386 30.432 561.634 30.048C561.893 29.664 562.087 29.1573 562.216 28.528C562.378 27.728 562.485 26.6613 562.539 25.328C562.593 23.9946 562.631 22.3946 562.653 20.528H569.799V32H568.263V21.904H564.092C564.059 23.4506 564.016 24.8 563.962 25.952C563.908 27.0933 563.806 28.0586 563.655 28.848C563.526 29.4453 563.342 29.9946 563.105 30.496C562.868 30.9973 562.539 31.392 562.119 31.68C561.699 31.968 561.149 32.096 560.47 32.064V30.544Z" fill="black" fill-opacity="0.25" style="fill:black;fill-opacity:0.25;"/>
<path d="M551.033 20.528H558.212V21.904H552.553V25.376H557.355V26.736H552.553V30.64H558.293V32H551.033V20.528Z" fill="black" fill-opacity="0.25" style="fill:black;fill-opacity:0.25;"/>
<path d="M539.704 21.92V20.528H548.387V21.92H544.814V32H543.277V21.92H539.704Z" fill="black" fill-opacity="0.25" style="fill:black;fill-opacity:0.25;"/>
<path d="M529.181 32H527.531V20.528H529.051V30L535.422 20.528H537.071V32H535.519V22.576L529.181 32Z" fill="black" fill-opacity="0.25" style="fill:black;fill-opacity:0.25;"/>
<path d="M516.854 20.528H520.557C521.872 20.528 522.891 20.8 523.613 21.344C524.346 21.8773 524.713 22.7146 524.713 23.856C524.713 24.72 524.529 25.424 524.163 25.968C523.807 26.512 523.306 26.912 522.659 27.168C522.023 27.4133 521.279 27.536 520.428 27.536H518.374V32H516.854V20.528ZM520.428 26.176C521.247 26.176 521.91 26 522.417 25.648C522.923 25.296 523.177 24.704 523.177 23.872C523.177 23.1786 522.95 22.6773 522.497 22.368C522.045 22.0586 521.398 21.904 520.557 21.904H518.374V26.176H520.428Z" fill="black" fill-opacity="0.25" style="fill:black;fill-opacity:0.25;"/>
<path d="M514.358 32H512.741L511.544 28.72H506.419L505.238 32H503.815L507.939 20.528H510.202L514.358 32ZM506.92 27.36H511.059L508.989 21.648L506.92 27.36Z" fill="black" fill-opacity="0.25" style="fill:black;fill-opacity:0.25;"/>
<path d="M493.857 20.528H497.786C499.058 20.528 500.023 20.7413 500.681 21.168C501.349 21.5946 501.683 22.3146 501.683 23.328C501.683 24.1493 501.473 24.7733 501.053 25.2C500.632 25.616 500.072 25.8986 499.371 26.048C500.266 26.1546 500.945 26.416 501.408 26.832C501.872 27.2373 502.104 27.856 502.104 28.688C502.104 29.4773 501.915 30.1173 501.538 30.608C501.16 31.0986 500.643 31.456 499.985 31.68C499.328 31.8933 498.584 32 497.754 32H493.857V20.528ZM497.673 25.424C498.406 25.424 498.999 25.264 499.452 24.944C499.915 24.6133 500.147 24.1013 500.147 23.408C500.147 22.8213 499.942 22.4266 499.533 22.224C499.123 22.0106 498.541 21.904 497.786 21.904H495.377V25.424H497.673ZM497.754 30.64C498.573 30.64 499.236 30.5013 499.743 30.224C500.25 29.9466 500.503 29.4453 500.503 28.72C500.503 27.9946 500.266 27.4933 499.791 27.216C499.328 26.928 498.59 26.784 497.576 26.784H495.377V30.64H497.754Z" fill="black" fill-opacity="0.25" style="fill:black;fill-opacity:0.25;"/>
<path d="M480.976 34.72H479.602V30.64H480.394C480.89 30.192 481.256 29.5413 481.493 28.688C481.73 27.8346 481.892 26.7413 481.978 25.408C482.065 24.064 482.129 22.4373 482.172 20.528H489.562V30.64H491.049V34.72H489.642L489.481 32H481.154L480.976 34.72ZM482.156 30.64H488.026V21.904H483.595C483.563 23.5253 483.493 24.9013 483.385 26.032C483.288 27.1626 483.137 28.1013 482.932 28.848C482.738 29.584 482.48 30.1813 482.156 30.64Z" fill="black" fill-opacity="0.25" style="fill:black;fill-opacity:0.25;"/>
<path d="M470.245 20.528H477.424V21.904H471.765V25.376H476.567V26.736H471.765V30.64H477.505V32H470.245V20.528Z" fill="black" fill-opacity="0.25" style="fill:black;fill-opacity:0.25;"/>
<path d="M459.567 20.528H463.27C464.585 20.528 465.604 20.8 466.326 21.344C467.059 21.8773 467.425 22.7146 467.425 23.856C467.425 24.72 467.242 25.424 466.876 25.968C466.52 26.512 466.019 26.912 465.372 27.168C464.736 27.4133 463.992 27.536 463.141 27.536H461.087V32H459.567V20.528ZM463.141 26.176C463.96 26.176 464.623 26 465.13 25.648C465.636 25.296 465.889 24.704 465.889 23.872C465.889 23.1786 465.663 22.6773 465.21 22.368C464.758 22.0586 464.111 21.904 463.27 21.904H461.087V26.176H463.141Z" fill="black" fill-opacity="0.25" style="fill:black;fill-opacity:0.25;"/>
<path d="M447.343 20.528H456.058V32H454.522V21.904H448.863V32H447.343V20.528Z" fill="black" fill-opacity="0.25" style="fill:black;fill-opacity:0.25;"/>
<path d="M439.204 32.096C438.902 32.096 438.649 32 438.444 31.808C438.25 31.6053 438.153 31.3653 438.153 31.088C438.153 30.7893 438.25 30.544 438.444 30.352C438.649 30.16 438.902 30.064 439.204 30.064C439.506 30.064 439.754 30.16 439.948 30.352C440.142 30.544 440.239 30.7893 440.239 31.088C440.239 31.3653 440.142 31.6053 439.948 31.808C439.754 32 439.506 32.096 439.204 32.096Z" fill="black" fill-opacity="0.25" style="fill:black;fill-opacity:0.25;"/>
<path d="M428.588 21.92V20.528H437.271V21.92H433.697V32H432.161V21.92H428.588Z" fill="black" fill-opacity="0.25" style="fill:black;fill-opacity:0.25;"/>
<path d="M419.066 20.528H426.245V21.904H420.586V25.376H425.388V26.736H420.586V30.64H426.326V32H419.066V20.528Z" fill="black" fill-opacity="0.25" style="fill:black;fill-opacity:0.25;"/>
<path d="M406.233 30.544C406.762 30.5973 407.15 30.432 407.398 30.048C407.656 29.664 407.85 29.1573 407.98 28.528C408.141 27.728 408.249 26.6613 408.303 25.328C408.357 23.9946 408.395 22.3946 408.416 20.528H415.563V32H414.027V21.904H409.855C409.823 23.4506 409.78 24.8 409.726 25.952C409.672 27.0933 409.57 28.0586 409.419 28.848C409.289 29.4453 409.106 29.9946 408.869 30.496C408.632 30.9973 408.303 31.392 407.883 31.68C407.462 31.968 406.912 32.096 406.233 32.064V30.544Z" fill="black" fill-opacity="0.25" style="fill:black;fill-opacity:0.25;"/>
<path d="M391.827 32H390.178V20.528H391.698V30L398.068 20.528H399.717V32H398.165V22.576L391.827 32Z" fill="black" fill-opacity="0.25" style="fill:black;fill-opacity:0.25;"/>
<path d="M378.849 21.92V20.528H387.531V21.92H383.958V32H382.422V21.92H378.849Z" fill="black" fill-opacity="0.25" style="fill:black;fill-opacity:0.25;"/>
<path d="M376.205 20.528V32H374.669V27.408H372.567L369.365 32H367.506L371.015 27.136C370.163 26.9546 369.511 26.6026 369.058 26.08C368.605 25.5573 368.379 24.848 368.379 23.952C368.379 23.1413 368.557 22.4853 368.913 21.984C369.268 21.4826 369.764 21.1146 370.4 20.88C371.036 20.6453 371.769 20.528 372.599 20.528H376.205ZM372.437 26.048H374.669V21.904H372.599C371.834 21.904 371.203 22.0586 370.707 22.368C370.222 22.6666 369.98 23.1946 369.98 23.952C369.98 24.6666 370.19 25.1946 370.61 25.536C371.041 25.8773 371.651 26.048 372.437 26.048Z" fill="black" fill-opacity="0.25" style="fill:black;fill-opacity:0.25;"/>
<path d="M356.235 20.528H364.95V32H363.414V21.904H357.755V32H356.235V20.528Z" fill="black" fill-opacity="0.25" style="fill:black;fill-opacity:0.25;"/>
<path d="M341.719 20.528H348.898V21.904H343.239V25.376H348.041V26.736H343.239V30.64H348.979V32H341.719V20.528Z" fill="black" fill-opacity="0.25" style="fill:black;fill-opacity:0.25;"/>
<path d="M330.321 32H328.672V20.528H330.192V30L336.562 20.528H338.212V32H336.659V22.576L330.321 32Z" fill="black" fill-opacity="0.25" style="fill:black;fill-opacity:0.25;"/>
<path d="M316.163 20.528H317.683V25.632H323.633V20.528H325.169V32H323.633V26.992H317.683V32H316.163V20.528Z" fill="black" fill-opacity="0.25" style="fill:black;fill-opacity:0.25;"/>
<path d="M305.707 20.528H312.886V21.904H307.227V25.376H312.029V26.736H307.227V30.64H312.967V32H305.707V20.528Z" fill="black" fill-opacity="0.25" style="fill:black;fill-opacity:0.25;"/>
<path d="M293.619 23.728V20.528H295.155V23.728C295.155 24.624 295.376 25.312 295.818 25.792C296.271 26.272 296.934 26.512 297.807 26.512C298.335 26.512 298.842 26.4533 299.327 26.336C299.812 26.208 300.259 26 300.669 25.712V20.528H302.205V32H300.669V26.992C300.227 27.2693 299.763 27.472 299.278 27.6C298.804 27.728 298.308 27.792 297.791 27.792C296.465 27.792 295.435 27.4613 294.702 26.8C293.98 26.1386 293.619 25.1146 293.619 23.728Z" fill="black" fill-opacity="0.25" style="fill:black;fill-opacity:0.25;"/>
<path d="M283.374 20.528H290.553V21.904H284.894V25.376H289.696V26.736H284.894V30.64H290.634V32H283.374V20.528Z" fill="black" fill-opacity="0.25" style="fill:black;fill-opacity:0.25;"/>
<path d="M272.045 21.92V20.528H280.728V21.92H277.154V32H275.618V21.92H272.045Z" fill="black" fill-opacity="0.25" style="fill:black;fill-opacity:0.25;"/>
<path d="M257.643 20.528H261.572C262.844 20.528 263.808 20.7413 264.466 21.168C265.134 21.5946 265.468 22.3146 265.468 23.328C265.468 24.1493 265.258 24.7733 264.838 25.2C264.417 25.616 263.857 25.8986 263.156 26.048C264.051 26.1546 264.73 26.416 265.193 26.832C265.657 27.2373 265.889 27.856 265.889 28.688C265.889 29.4773 265.7 30.1173 265.323 30.608C264.946 31.0986 264.428 31.456 263.771 31.68C263.113 31.8933 262.369 32 261.539 32H257.643V20.528ZM261.458 25.424C262.191 25.424 262.784 25.264 263.237 24.944C263.701 24.6133 263.932 24.1013 263.932 23.408C263.932 22.8213 263.727 22.4266 263.318 22.224C262.908 22.0106 262.326 21.904 261.572 21.904H259.162V25.424H261.458ZM261.539 30.64C262.359 30.64 263.021 30.5013 263.528 30.224C264.035 29.9466 264.288 29.4453 264.288 28.72C264.288 27.9946 264.051 27.4933 263.577 27.216C263.113 26.928 262.375 26.784 261.361 26.784H259.162V30.64H261.539Z" fill="black" fill-opacity="0.25" style="fill:black;fill-opacity:0.25;"/>
<path d="M245.214 32.16C244.179 32.16 243.241 31.9307 242.401 31.472C241.56 31.0134 240.891 30.3467 240.396 29.472C239.911 28.5867 239.668 27.504 239.668 26.224C239.668 24.944 239.911 23.872 240.396 23.008C240.891 22.1334 241.56 21.4774 242.401 21.04C243.241 20.6027 244.179 20.384 245.214 20.384C246.27 20.384 247.213 20.608 248.044 21.056C248.884 21.4934 249.547 22.144 250.032 23.008C250.517 23.872 250.76 24.9494 250.76 26.24C250.76 27.5094 250.517 28.5867 250.032 29.472C249.547 30.3467 248.884 31.0134 248.044 31.472C247.213 31.9307 246.27 32.16 245.214 32.16ZM245.214 30.8C245.958 30.8 246.626 30.6507 247.219 30.352C247.812 30.0534 248.275 29.5734 248.609 28.912C248.954 28.24 249.127 27.36 249.127 26.272C249.127 25.1734 248.954 24.2934 248.609 23.632C248.275 22.9707 247.812 22.4907 247.219 22.192C246.626 21.8934 245.958 21.744 245.214 21.744C244.47 21.744 243.802 21.8934 243.209 22.192C242.627 22.4907 242.163 22.9707 241.818 23.632C241.474 24.2934 241.301 25.1734 241.301 26.272C241.301 27.36 241.474 28.24 241.818 28.912C242.163 29.5734 242.627 30.0534 243.209 30.352C243.802 30.6507 244.47 30.8 245.214 30.8Z" fill="black" fill-opacity="0.25" style="fill:black;fill-opacity:0.25;"/>
<path d="M229.194 20.528H233.123C234.395 20.528 235.36 20.7413 236.018 21.168C236.686 21.5946 237.02 22.3146 237.02 23.328C237.02 24.1493 236.81 24.7733 236.39 25.2C235.969 25.616 235.409 25.8986 234.708 26.048C235.603 26.1546 236.282 26.416 236.745 26.832C237.209 27.2373 237.441 27.856 237.441 28.688C237.441 29.4773 237.252 30.1173 236.875 30.608C236.497 31.0986 235.98 31.456 235.322 31.68C234.665 31.8933 233.921 32 233.091 32H229.194V20.528ZM233.01 25.424C233.743 25.424 234.336 25.264 234.789 24.944C235.252 24.6133 235.484 24.1013 235.484 23.408C235.484 22.8213 235.279 22.4266 234.87 22.224C234.46 22.0106 233.878 21.904 233.123 21.904H230.714V25.424H233.01ZM233.091 30.64C233.91 30.64 234.573 30.5013 235.08 30.224C235.586 29.9466 235.84 29.4453 235.84 28.72C235.84 27.9946 235.603 27.4933 235.128 27.216C234.665 26.928 233.926 26.784 232.913 26.784H230.714V30.64H233.091Z" fill="black" fill-opacity="0.25" style="fill:black;fill-opacity:0.25;"/>
<path d="M217.867 21.92V20.528H226.55V21.92H222.977V32H221.441V21.92H217.867Z" fill="black" fill-opacity="0.25" style="fill:black;fill-opacity:0.25;"/>
<path d="M212.112 32.16C210.969 32.16 209.967 31.9254 209.105 31.456C208.253 30.9867 207.59 30.3147 207.116 29.44C206.641 28.5547 206.404 27.4987 206.404 26.272C206.404 24.4267 206.895 22.9867 207.876 21.952C208.857 20.9067 210.258 20.384 212.08 20.384C212.866 20.384 213.556 20.4694 214.149 20.64C214.753 20.8 215.238 20.992 215.604 21.216V22.656C215.119 22.3467 214.559 22.1174 213.923 21.968C213.298 21.8187 212.678 21.744 212.063 21.744C210.705 21.744 209.697 22.1227 209.04 22.88C208.382 23.6374 208.054 24.768 208.054 26.272C208.054 27.7867 208.409 28.9227 209.121 29.68C209.832 30.4267 210.872 30.8 212.241 30.8C212.834 30.8 213.411 30.72 213.971 30.56C214.543 30.4 215.087 30.128 215.604 29.744V31.184C215.292 31.4294 214.834 31.6534 214.23 31.856C213.637 32.0587 212.931 32.16 212.112 32.16Z" fill="black" fill-opacity="0.25" style="fill:black;fill-opacity:0.25;"/>
<path d="M196.322 21.92V20.528H205.005V21.92H201.432V32H199.896V21.92H196.322Z" fill="black" fill-opacity="0.25" style="fill:black;fill-opacity:0.25;"/>
<path d="M189.38 32.16C188.345 32.16 187.407 31.9307 186.567 31.472C185.726 31.0134 185.057 30.3467 184.562 29.472C184.077 28.5867 183.834 27.504 183.834 26.224C183.834 24.944 184.077 23.872 184.562 23.008C185.057 22.1334 185.726 21.4774 186.567 21.04C187.407 20.6027 188.345 20.384 189.38 20.384C190.436 20.384 191.38 20.608 192.21 21.056C193.05 21.4934 193.713 22.144 194.198 23.008C194.683 23.872 194.926 24.9494 194.926 26.24C194.926 27.5094 194.683 28.5867 194.198 29.472C193.713 30.3467 193.05 31.0134 192.21 31.472C191.38 31.9307 190.436 32.16 189.38 32.16ZM189.38 30.8C190.124 30.8 190.792 30.6507 191.385 30.352C191.978 30.0534 192.441 29.5734 192.775 28.912C193.12 28.24 193.293 27.36 193.293 26.272C193.293 25.1734 193.12 24.2934 192.775 23.632C192.441 22.9707 191.978 22.4907 191.385 22.192C190.792 21.8934 190.124 21.744 189.38 21.744C188.636 21.744 187.968 21.8934 187.375 22.192C186.793 22.4907 186.329 22.9707 185.984 23.632C185.64 24.2934 185.467 25.1734 185.467 26.272C185.467 27.36 185.64 28.24 185.984 28.912C186.329 29.5734 186.793 30.0534 187.375 30.352C187.968 30.6507 188.636 30.8 189.38 30.8Z" fill="black" fill-opacity="0.25" style="fill:black;fill-opacity:0.25;"/>
<path d="M173.835 20.528H177.538C178.853 20.528 179.871 20.8 180.594 21.344C181.327 21.8773 181.693 22.7146 181.693 23.856C181.693 24.72 181.51 25.424 181.143 25.968C180.788 26.512 180.286 26.912 179.64 27.168C179.004 27.4133 178.26 27.536 177.408 27.536H175.355V32H173.835V20.528ZM177.408 26.176C178.228 26.176 178.89 26 179.397 25.648C179.904 25.296 180.157 24.704 180.157 23.872C180.157 23.1786 179.931 22.6773 179.478 22.368C179.025 22.0586 178.378 21.904 177.538 21.904H175.355V26.176H177.408Z" fill="black" fill-opacity="0.25" style="fill:black;fill-opacity:0.25;"/>
<path d="M171.352 32H169.46L165.418 27.088H164.189V32H162.669V20.528H164.189V25.728H165.321L169.46 20.528H171.174L166.598 26.256L171.352 32Z" fill="black" fill-opacity="0.25" style="fill:black;fill-opacity:0.25;"/>
<path d="M150.16 20.528H151.68V25.632H157.63V20.528H159.166V32H157.63V26.992H151.68V32H150.16V20.528Z" fill="black" fill-opacity="0.25" style="fill:black;fill-opacity:0.25;"/>
<path d="M147.68 32H146.063L144.866 28.72H139.741L138.561 32H137.138L141.261 20.528H143.524L147.68 32ZM140.242 27.36H144.381L142.312 21.648L140.242 27.36Z" fill="black" fill-opacity="0.25" style="fill:black;fill-opacity:0.25;"/>
<path d="M127.558 32V20.528H134.623V21.904H129.077V25.136H131.373C132.656 25.136 133.643 25.3973 134.332 25.92C135.022 26.4426 135.367 27.2853 135.367 28.448C135.367 29.3013 135.189 29.9893 134.834 30.512C134.478 31.0346 133.982 31.4133 133.346 31.648C132.71 31.8826 131.977 32 131.147 32H127.558ZM131.147 30.64C131.912 30.64 132.538 30.4853 133.023 30.176C133.519 29.8666 133.766 29.312 133.766 28.512C133.766 27.8293 133.556 27.3226 133.136 26.992C132.716 26.6613 132.112 26.496 131.325 26.496H129.077V30.64H131.147Z" fill="black" fill-opacity="0.25" style="fill:black;fill-opacity:0.25;"/>
<path d="M113.04 20.528H120.219V21.904H114.56V25.376H119.362V26.736H114.56V30.64H120.3V32H113.04V20.528Z" fill="black" fill-opacity="0.25" style="fill:black;fill-opacity:0.25;"/>
<path d="M104.656 32.16C103.621 32.16 102.684 31.9307 101.843 31.472C101.002 31.0134 100.334 30.3467 99.838 29.472C99.3529 28.5867 99.1104 27.504 99.1104 26.224C99.1104 24.944 99.3529 23.872 99.838 23.008C100.334 22.1334 101.002 21.4774 101.843 21.04C102.684 20.6027 103.621 20.384 104.656 20.384C105.713 20.384 106.656 20.608 107.486 21.056C108.327 21.4934 108.99 22.144 109.475 23.008C109.96 23.872 110.202 24.9494 110.202 26.24C110.202 27.5094 109.96 28.5867 109.475 29.472C108.99 30.3467 108.327 31.0134 107.486 31.472C106.656 31.9307 105.713 32.16 104.656 32.16ZM104.656 30.8C105.4 30.8 106.068 30.6507 106.661 30.352C107.254 30.0534 107.718 29.5734 108.052 28.912C108.397 28.24 108.569 27.36 108.569 26.272C108.569 25.1734 108.397 24.2934 108.052 23.632C107.718 22.9707 107.254 22.4907 106.661 22.192C106.068 21.8934 105.4 21.744 104.656 21.744C103.913 21.744 103.244 21.8934 102.651 22.192C102.069 22.4907 101.606 22.9707 101.261 23.632C100.916 24.2934 100.743 25.1734 100.743 26.272C100.743 27.36 100.916 28.24 101.261 28.912C101.606 29.5734 102.069 30.0534 102.651 30.352C103.244 30.6507 103.913 30.8 104.656 30.8Z" fill="black" fill-opacity="0.25" style="fill:black;fill-opacity:0.25;"/>
<path d="M87.2803 20.528H88.8002V25.632H94.7503V20.528H96.2864V32H94.7503V26.992H88.8002V32H87.2803V20.528Z" fill="black" fill-opacity="0.25" style="fill:black;fill-opacity:0.25;"/>
<path d="M76.6191 20.528H80.3218C81.6369 20.528 82.6555 20.8 83.3778 21.344C84.1108 21.8773 84.4773 22.7146 84.4773 23.856C84.4773 24.72 84.294 25.424 83.9275 25.968C83.5718 26.512 83.0706 26.912 82.4238 27.168C81.7878 27.4133 81.044 27.536 80.1925 27.536H78.139V32H76.6191V20.528ZM80.1925 26.176C81.0117 26.176 81.6746 26 82.1813 25.648C82.6879 25.296 82.9412 24.704 82.9412 23.872C82.9412 23.1786 82.7148 22.6773 82.2621 22.368C81.8094 22.0586 81.1626 21.904 80.3218 21.904H78.139V26.176H80.1925Z" fill="black" fill-opacity="0.25" style="fill:black;fill-opacity:0.25;"/>
<path d="M68.2354 32.16C67.2006 32.16 66.2628 31.9307 65.422 31.472C64.5812 31.0134 63.9129 30.3467 63.4171 29.472C62.932 28.5867 62.6895 27.504 62.6895 26.224C62.6895 24.944 62.932 23.872 63.4171 23.008C63.9129 22.1334 64.5812 21.4774 65.422 21.04C66.2628 20.6027 67.2006 20.384 68.2354 20.384C69.2918 20.384 70.235 20.608 71.065 21.056C71.9058 21.4934 72.5687 22.144 73.0538 23.008C73.5388 23.872 73.7814 24.9494 73.7814 26.24C73.7814 27.5094 73.5388 28.5867 73.0538 29.472C72.5687 30.3467 71.9058 31.0134 71.065 31.472C70.235 31.9307 69.2918 32.16 68.2354 32.16ZM68.2354 30.8C68.9792 30.8 69.6475 30.6507 70.2404 30.352C70.8332 30.0534 71.2967 29.5734 71.6309 28.912C71.9758 28.24 72.1483 27.36 72.1483 26.272C72.1483 25.1734 71.9758 24.2934 71.6309 23.632C71.2967 22.9707 70.8332 22.4907 70.2404 22.192C69.6475 21.8934 68.9792 21.744 68.2354 21.744C67.4916 21.744 66.8233 21.8934 66.2305 22.192C65.6484 22.4907 65.1849 22.9707 64.8399 23.632C64.495 24.2934 64.3225 25.1734 64.3225 26.272C64.3225 27.36 64.495 28.24 64.8399 28.912C65.1849 29.5734 65.6484 30.0534 66.2305 30.352C66.8233 30.6507 67.4916 30.8 68.2354 30.8Z" fill="black" fill-opacity="0.25" style="fill:black;fill-opacity:0.25;"/>
<path d="M52.6084 21.92V20.528H61.2911V21.92H57.7178V32H56.1817V21.92H52.6084Z" fill="black" fill-opacity="0.25" style="fill:black;fill-opacity:0.25;"/>
<path d="M42.5674 20.528H46.4964C47.7684 20.528 48.7331 20.7413 49.3907 21.168C50.059 21.5946 50.3932 22.3146 50.3932 23.328C50.3932 24.1493 50.183 24.7733 49.7626 25.2C49.3422 25.616 48.7817 25.8986 48.081 26.048C48.9757 26.1546 49.6548 26.416 50.1183 26.832C50.5818 27.2373 50.8136 27.856 50.8136 28.688C50.8136 29.4773 50.6249 30.1173 50.2476 30.608C49.8704 31.0986 49.353 31.456 48.6954 31.68C48.0379 31.8933 47.2941 32 46.4641 32H42.5674V20.528ZM46.3833 25.424C47.1162 25.424 47.7091 25.264 48.1618 24.944C48.6254 24.6133 48.8571 24.1013 48.8571 23.408C48.8571 22.8213 48.6523 22.4266 48.2427 22.224C47.8331 22.0106 47.251 21.904 46.4964 21.904H44.0873V25.424H46.3833ZM46.4641 30.64C47.2833 30.64 47.9463 30.5013 48.4529 30.224C48.9595 29.9466 49.2128 29.4453 49.2128 28.72C49.2128 27.9946 48.9757 27.4933 48.5014 27.216C48.0379 26.928 47.2995 26.784 46.2862 26.784H44.0873V30.64H46.4641Z" fill="black" fill-opacity="0.25" style="fill:black;fill-opacity:0.25;"/>
<path d="M34.1827 32.16C33.1479 32.16 32.2101 31.9307 31.3693 31.472C30.5285 31.0134 29.8602 30.3467 29.3643 29.472C28.8793 28.5867 28.6367 27.504 28.6367 26.224C28.6367 24.944 28.8793 23.872 29.3643 23.008C29.8602 22.1334 30.5285 21.4774 31.3693 21.04C32.2101 20.6027 33.1479 20.384 34.1827 20.384C35.239 20.384 36.1822 20.608 37.0122 21.056C37.853 21.4934 38.516 22.144 39.001 23.008C39.4861 23.872 39.7286 24.9494 39.7286 26.24C39.7286 27.5094 39.4861 28.5867 39.001 29.472C38.516 30.3467 37.853 31.0134 37.0122 31.472C36.1822 31.9307 35.239 32.16 34.1827 32.16ZM34.1827 30.8C34.9264 30.8 35.5948 30.6507 36.1876 30.352C36.7805 30.0534 37.244 29.5734 37.5782 28.912C37.9231 28.24 38.0956 27.36 38.0956 26.272C38.0956 25.1734 37.9231 24.2934 37.5782 23.632C37.244 22.9707 36.7805 22.4907 36.1876 22.192C35.5948 21.8934 34.9264 21.744 34.1827 21.744C33.4389 21.744 32.7706 21.8934 32.1777 22.192C31.5956 22.4907 31.1321 22.9707 30.7872 23.632C30.4423 24.2934 30.2698 25.1734 30.2698 26.272C30.2698 27.36 30.4423 28.24 30.7872 28.912C31.1321 29.5734 31.5956 30.0534 32.1777 30.352C32.7706 30.6507 33.4389 30.8 34.1827 30.8Z" fill="black" fill-opacity="0.25" style="fill:black;fill-opacity:0.25;"/>
<path d="M17.0918 20.528H25.8069V32H24.2708V21.904H18.6117V32H17.0918V20.528Z" fill="black" fill-opacity="0.25" style="fill:black;fill-opacity:0.25;"/>
<path d="M1.64923 32H0V20.528H1.51988V30L7.89045 20.528H9.53969V32H7.98747V22.576L1.64923 32Z" fill="black" fill-opacity="0.25" style="fill:black;fill-opacity:0.25;"/>
<path d="M996.736 14H995.119L993.922 10.72H988.797L987.616 14H986.193L990.316 2.52795H992.58L996.736 14ZM989.298 9.35995H993.437L991.367 3.64795L989.298 9.35995Z" fill="black" fill-opacity="0.25" style="fill:black;fill-opacity:0.25;"/>
<path d="M976.229 3.91995V2.52795H984.911V3.91995H981.338V14H979.802V3.91995H976.229Z" fill="black" fill-opacity="0.25" style="fill:black;fill-opacity:0.25;"/>
<path d="M964.896 14H963.247V2.52795H964.767V12L971.138 2.52795H972.787V14H971.235V4.57595L964.896 14Z" fill="black" fill-opacity="0.25" style="fill:black;fill-opacity:0.25;"/>
<path d="M949.557 16.72H948.183V12.64H948.975C949.471 12.192 949.837 11.5413 950.074 10.688C950.312 9.83462 950.473 8.74129 950.559 7.40795C950.646 6.06395 950.71 4.43729 950.753 2.52795H958.143V12.64H959.63V16.72H958.224L958.062 14H949.735L949.557 16.72ZM950.737 12.64H956.607V3.90395H952.176C952.144 5.52529 952.074 6.90129 951.966 8.03195C951.869 9.16262 951.718 10.1013 951.513 10.848C951.319 11.584 951.061 12.1813 950.737 12.64Z" fill="black" fill-opacity="0.25" style="fill:black;fill-opacity:0.25;"/>
<path d="M938.018 2.52795H945.197V3.90395H939.537V7.37595H944.34V8.73595H939.537V12.64H945.277V14H938.018V2.52795Z" fill="black" fill-opacity="0.25" style="fill:black;fill-opacity:0.25;"/>
<path d="M926.532 2.52795H930.235C931.55 2.52795 932.569 2.79995 933.291 3.34395C934.024 3.87729 934.39 4.71462 934.39 5.85595C934.39 6.71995 934.207 7.42395 933.841 7.96795C933.485 8.51195 932.984 8.91195 932.337 9.16795C931.701 9.41329 930.957 9.53595 930.106 9.53595H928.052V14H926.532V2.52795ZM930.106 8.17595C930.925 8.17595 931.588 7.99995 932.094 7.64795C932.601 7.29595 932.854 6.70395 932.854 5.87195C932.854 5.17862 932.628 4.67729 932.175 4.36795C931.722 4.05862 931.076 3.90395 930.235 3.90395H928.052V8.17595H930.106Z" fill="black" fill-opacity="0.25" style="fill:black;fill-opacity:0.25;"/>
<path d="M923.239 14H921.348L917.305 9.08795H916.077V14H914.557V2.52795H916.077V7.72795H917.208L921.348 2.52795H923.062L918.486 8.25595L923.239 14Z" fill="black" fill-opacity="0.25" style="fill:black;fill-opacity:0.25;"/>
<path d="M898.423 2.52795H905.602V3.90395H899.943V7.37595H904.745V8.73595H899.943V12.64H905.683V14H898.423V2.52795Z" fill="black" fill-opacity="0.25" style="fill:black;fill-opacity:0.25;"/>
<path d="M886.219 14H884.569V2.52795H886.089V12L892.46 2.52795H894.109V14H892.557V4.57595L886.219 14Z" fill="black" fill-opacity="0.25" style="fill:black;fill-opacity:0.25;"/>
<path d="M871.25 2.52795H872.77V7.63195H878.72V2.52795H880.256V14H878.72V8.99195H872.77V14H871.25V2.52795Z" fill="black" fill-opacity="0.25" style="fill:black;fill-opacity:0.25;"/>
<path d="M859.986 2.52795H867.165V3.90395H861.506V7.37595H866.308V8.73595H861.506V12.64H867.246V14H859.986V2.52795Z" fill="black" fill-opacity="0.25" style="fill:black;fill-opacity:0.25;"/>
<path d="M847.09 5.72795V2.52795H848.626V5.72795C848.626 6.62395 848.847 7.31195 849.289 7.79195C849.742 8.27195 850.404 8.51195 851.278 8.51195C851.806 8.51195 852.312 8.45329 852.797 8.33595C853.283 8.20795 853.73 7.99995 854.14 7.71195V2.52795H855.676V14H854.14V8.99195C853.698 9.26929 853.234 9.47195 852.749 9.59995C852.275 9.72795 851.779 9.79195 851.261 9.79195C849.936 9.79195 848.906 9.46129 848.173 8.79995C847.451 8.13862 847.09 7.11462 847.09 5.72795Z" fill="black" fill-opacity="0.25" style="fill:black;fill-opacity:0.25;"/>
<path d="M836.356 12.496C837.025 12.56 837.547 12.464 837.925 12.208C838.302 11.9413 838.615 11.5946 838.862 11.168L834.562 2.52795H836.292L839.639 9.43995L842.533 2.52795H844.101L840.431 10.896C840.129 11.6 839.8 12.192 839.445 12.672C839.089 13.152 838.663 13.504 838.167 13.728C837.682 13.952 837.078 14.0426 836.356 14V12.496Z" fill="black" fill-opacity="0.25" style="fill:black;fill-opacity:0.25;"/>
<path d="M821.857 12.544C822.386 12.5973 822.774 12.432 823.022 12.048C823.28 11.664 823.474 11.1573 823.604 10.528C823.765 9.72795 823.873 8.66129 823.927 7.32795C823.981 5.99462 824.019 4.39462 824.04 2.52795H831.187V14H829.651V3.90395H825.479C825.447 5.45062 825.404 6.79995 825.35 7.95195C825.296 9.09329 825.194 10.0586 825.043 10.848C824.913 11.4453 824.73 11.9946 824.493 12.496C824.256 12.9973 823.927 13.392 823.507 13.68C823.086 13.968 822.537 14.096 821.857 14.064V12.544Z" fill="black" fill-opacity="0.25" style="fill:black;fill-opacity:0.25;"/>
<path d="M814.016 14.16C812.981 14.16 812.043 13.9307 811.202 13.472C810.361 13.0134 809.693 12.3467 809.197 11.472C808.712 10.5867 808.47 9.50403 808.47 8.22403C808.47 6.94403 808.712 5.87203 809.197 5.00803C809.693 4.13337 810.361 3.47737 811.202 3.04003C812.043 2.6027 812.981 2.38403 814.016 2.38403C815.072 2.38403 816.015 2.60803 816.845 3.05603C817.686 3.49337 818.349 4.14403 818.834 5.00803C819.319 5.87203 819.562 6.94937 819.562 8.24003C819.562 9.50937 819.319 10.5867 818.834 11.472C818.349 12.3467 817.686 13.0134 816.845 13.472C816.015 13.9307 815.072 14.16 814.016 14.16ZM814.016 12.8C814.759 12.8 815.428 12.6507 816.021 12.352C816.613 12.0534 817.077 11.5734 817.411 10.912C817.756 10.24 817.929 9.36003 817.929 8.27203C817.929 7.17337 817.756 6.29337 817.411 5.63203C817.077 4.9707 816.613 4.4907 816.021 4.19203C815.428 3.89337 814.759 3.74403 814.016 3.74403C813.272 3.74403 812.604 3.89337 812.011 4.19203C811.429 4.4907 810.965 4.9707 810.62 5.63203C810.275 6.29337 810.103 7.17337 810.103 8.27203C810.103 9.36003 810.275 10.24 810.62 10.912C810.965 11.5734 811.429 12.0534 812.011 12.352C812.604 12.6507 813.272 12.8 814.016 12.8Z" fill="black" fill-opacity="0.25" style="fill:black;fill-opacity:0.25;"/>
<path d="M796.116 2.52795H804.831V14H803.295V3.90395H797.636V14H796.116V2.52795Z" fill="black" fill-opacity="0.25" style="fill:black;fill-opacity:0.25;"/>
<path d="M787.957 14H786.34L785.144 10.72H780.018L778.838 14H777.415L781.538 2.52795H783.802L787.957 14ZM780.52 9.35995H784.659L782.589 3.64795L780.52 9.35995Z" fill="black" fill-opacity="0.25" style="fill:black;fill-opacity:0.25;"/>
<path d="M765.133 2.52795H766.653V7.63195H772.603V2.52795H774.139V14H772.603V8.99195H766.653V14H765.133V2.52795Z" fill="black" fill-opacity="0.25" style="fill:black;fill-opacity:0.25;"/>
<path d="M755.97 2.52795V14H754.434V9.40795H752.332L749.131 14H747.271L750.78 9.13595C749.929 8.95462 749.276 8.60262 748.824 8.07995C748.371 7.55729 748.145 6.84795 748.145 5.95195C748.145 5.14129 748.322 4.48529 748.678 3.98395C749.034 3.48262 749.53 3.11462 750.166 2.87995C750.802 2.64529 751.535 2.52795 752.365 2.52795H755.97ZM752.203 8.04795H754.434V3.90395H752.365C751.599 3.90395 750.969 4.05862 750.473 4.36795C749.988 4.66662 749.745 5.19462 749.745 5.95195C749.745 6.66662 749.955 7.19462 750.376 7.53595C750.807 7.87729 751.416 8.04795 752.203 8.04795Z" fill="black" fill-opacity="0.25" style="fill:black;fill-opacity:0.25;"/>
<path d="M736.02 14H734.371V2.52795H735.891V12L742.262 2.52795H743.911V14H742.359V4.57595L736.02 14Z" fill="black" fill-opacity="0.25" style="fill:black;fill-opacity:0.25;"/>
<path d="M721.054 2.52795H722.574V7.63195H728.524V2.52795H730.06V14H728.524V8.99195H722.574V14H721.054V2.52795Z" fill="black" fill-opacity="0.25" style="fill:black;fill-opacity:0.25;"/>
<path d="M709.789 2.52795H716.968V3.90395H711.309V7.37595H716.111V8.73595H711.309V12.64H717.049V14H709.789V2.52795Z" fill="black" fill-opacity="0.25" style="fill:black;fill-opacity:0.25;"/>
<path d="M696.894 5.72795V2.52795H698.43V5.72795C698.43 6.62395 698.651 7.31195 699.093 7.79195C699.545 8.27195 700.208 8.51195 701.081 8.51195C701.609 8.51195 702.116 8.45329 702.601 8.33595C703.086 8.20795 703.534 7.99995 703.943 7.71195V2.52795H705.479V14H703.943V8.99195C703.501 9.26929 703.038 9.47195 702.553 9.59995C702.078 9.72795 701.583 9.79195 701.065 9.79195C699.739 9.79195 698.71 9.46129 697.977 8.79995C697.255 8.13862 696.894 7.11462 696.894 5.72795Z" fill="black" fill-opacity="0.25" style="fill:black;fill-opacity:0.25;"/>
<path d="M684.914 14H683.265V2.52795H684.785V12L691.155 2.52795H692.804V14H691.252V4.57595L684.914 14Z" fill="black" fill-opacity="0.25" style="fill:black;fill-opacity:0.25;"/>
<path d="M669.947 2.52795H671.467V7.63195H677.417V2.52795H678.953V14H677.417V8.99195H671.467V14H669.947V2.52795Z" fill="black" fill-opacity="0.25" style="fill:black;fill-opacity:0.25;"/>
<path d="M666.659 14H665.042L663.846 10.72H658.72L657.54 14H656.117L660.24 2.52795H662.504L666.659 14ZM659.222 9.35995H663.361L661.291 3.64795L659.222 9.35995Z" fill="black" fill-opacity="0.25" style="fill:black;fill-opacity:0.25;"/>
<path d="M646.629 2.52795H650.332C651.647 2.52795 652.665 2.79995 653.388 3.34395C654.121 3.87729 654.487 4.71462 654.487 5.85595C654.487 6.71995 654.304 7.42395 653.937 7.96795C653.582 8.51195 653.08 8.91195 652.434 9.16795C651.798 9.41329 651.054 9.53595 650.202 9.53595H648.149V14H646.629V2.52795ZM650.202 8.17595C651.021 8.17595 651.684 7.99995 652.191 7.64795C652.698 7.29595 652.951 6.70395 652.951 5.87195C652.951 5.17862 652.725 4.67729 652.272 4.36795C651.819 4.05862 651.172 3.90395 650.332 3.90395H648.149V8.17595H650.202Z" fill="black" fill-opacity="0.25" style="fill:black;fill-opacity:0.25;"/>
<path d="M636.218 2.52795H642.976V3.90395H637.738V14H636.218V2.52795Z" fill="black" fill-opacity="0.25" style="fill:black;fill-opacity:0.25;"/>
<path d="M627.024 14.16C625.99 14.16 625.052 13.9307 624.211 13.472C623.37 13.0134 622.702 12.3467 622.206 11.472C621.721 10.5867 621.479 9.50403 621.479 8.22403C621.479 6.94403 621.721 5.87203 622.206 5.00803C622.702 4.13337 623.37 3.47737 624.211 3.04003C625.052 2.6027 625.99 2.38403 627.024 2.38403C628.081 2.38403 629.024 2.60803 629.854 3.05603C630.695 3.49337 631.358 4.14403 631.843 5.00803C632.328 5.87203 632.57 6.94937 632.57 8.24003C632.57 9.50937 632.328 10.5867 631.843 11.472C631.358 12.3467 630.695 13.0134 629.854 13.472C629.024 13.9307 628.081 14.16 627.024 14.16ZM627.024 12.8C627.768 12.8 628.437 12.6507 629.029 12.352C629.622 12.0534 630.086 11.5734 630.42 10.912C630.765 10.24 630.937 9.36003 630.937 8.27203C630.937 7.17337 630.765 6.29337 630.42 5.63203C630.086 4.9707 629.622 4.4907 629.029 4.19203C628.437 3.89337 627.768 3.74403 627.024 3.74403C626.281 3.74403 625.612 3.89337 625.02 4.19203C624.437 4.4907 623.974 4.9707 623.629 5.63203C623.284 6.29337 623.112 7.17337 623.112 8.27203C623.112 9.36003 623.284 10.24 623.629 10.912C623.974 11.5734 624.437 12.0534 625.02 12.352C625.612 12.6507 626.281 12.8 627.024 12.8Z" fill="black" fill-opacity="0.25" style="fill:black;fill-opacity:0.25;"/>
<path d="M606.023 2.52795H613.202V3.90395H607.543V7.37595H612.345V8.73595H607.543V12.64H613.283V14H606.023V2.52795Z" fill="black" fill-opacity="0.25" style="fill:black;fill-opacity:0.25;"/>
<path d="M592.382 12.544C592.91 12.5973 593.298 12.432 593.546 12.048C593.805 11.664 593.999 11.1573 594.128 10.528C594.29 9.72795 594.398 8.66129 594.451 7.32795C594.505 5.99462 594.543 4.39462 594.565 2.52795H601.711V14H600.175V3.90395H596.004C595.971 5.45062 595.928 6.79995 595.874 7.95195C595.82 9.09329 595.718 10.0586 595.567 10.848C595.438 11.4453 595.254 11.9946 595.017 12.496C594.78 12.9973 594.451 13.392 594.031 13.68C593.611 13.968 593.061 14.096 592.382 14.064V12.544Z" fill="black" fill-opacity="0.25" style="fill:black;fill-opacity:0.25;"/>
<path d="M585.98 14.16C584.838 14.16 583.835 13.9254 582.973 13.456C582.121 12.9867 581.458 12.3147 580.984 11.44C580.51 10.5547 580.272 9.4987 580.272 8.27203C580.272 6.4267 580.763 4.9867 581.744 3.95203C582.725 2.9067 584.126 2.38403 585.948 2.38403C586.735 2.38403 587.425 2.46937 588.017 2.64003C588.621 2.80003 589.106 2.99203 589.473 3.21603V4.65603C588.988 4.3467 588.427 4.11737 587.791 3.96803C587.166 3.8187 586.546 3.74403 585.932 3.74403C584.573 3.74403 583.566 4.1227 582.908 4.88003C582.25 5.63737 581.922 6.76803 581.922 8.27203C581.922 9.7867 582.277 10.9227 582.989 11.68C583.7 12.4267 584.74 12.8 586.109 12.8C586.702 12.8 587.279 12.72 587.84 12.56C588.411 12.4 588.955 12.128 589.473 11.744V13.184C589.16 13.4294 588.702 13.6534 588.098 13.856C587.505 14.0587 586.799 14.16 585.98 14.16Z" fill="black" fill-opacity="0.25" style="fill:black;fill-opacity:0.25;"/>
<path d="M568.747 14H567.098V2.52795H568.618V12L574.988 2.52795H576.637V14H575.085V4.57595L568.747 14Z" fill="black" fill-opacity="0.25" style="fill:black;fill-opacity:0.25;"/>
<path d="M554.201 5.72795V2.52795H555.737V5.72795C555.737 6.62395 555.958 7.31195 556.4 7.79195C556.853 8.27195 557.516 8.51195 558.389 8.51195C558.917 8.51195 559.424 8.45329 559.909 8.33595C560.394 8.20795 560.841 7.99995 561.251 7.71195V2.52795H562.787V14H561.251V8.99195C560.809 9.26929 560.345 9.47195 559.86 9.59995C559.386 9.72795 558.89 9.79195 558.373 9.79195C557.047 9.79195 556.018 9.46129 555.285 8.79995C554.562 8.13862 554.201 7.11462 554.201 5.72795Z" fill="black" fill-opacity="0.25" style="fill:black;fill-opacity:0.25;"/>
<path d="M539.405 12.256H538.742H538.725L538.742 12.24L535.233 4.63995V14H533.794V2.52795H535.912L539.518 10.576L543.285 2.52795H545.258V14H543.722V4.76795L540.165 12.24L539.405 12.256Z" fill="black" fill-opacity="0.25" style="fill:black;fill-opacity:0.25;"/>
<path d="M524.601 14.16C523.566 14.16 522.628 13.9307 521.787 13.472C520.946 13.0134 520.278 12.3467 519.782 11.472C519.297 10.5867 519.055 9.50403 519.055 8.22403C519.055 6.94403 519.297 5.87203 519.782 5.00803C520.278 4.13337 520.946 3.47737 521.787 3.04003C522.628 2.6027 523.566 2.38403 524.601 2.38403C525.657 2.38403 526.6 2.60803 527.43 3.05603C528.271 3.49337 528.934 4.14403 529.419 5.00803C529.904 5.87203 530.147 6.94937 530.147 8.24003C530.147 9.50937 529.904 10.5867 529.419 11.472C528.934 12.3467 528.271 13.0134 527.43 13.472C526.6 13.9307 525.657 14.16 524.601 14.16ZM524.601 12.8C525.344 12.8 526.013 12.6507 526.606 12.352C527.198 12.0534 527.662 11.5734 527.996 10.912C528.341 10.24 528.514 9.36003 528.514 8.27203C528.514 7.17337 528.341 6.29337 527.996 5.63203C527.662 4.9707 527.198 4.4907 526.606 4.19203C526.013 3.89337 525.344 3.74403 524.601 3.74403C523.857 3.74403 523.189 3.89337 522.596 4.19203C522.014 4.4907 521.55 4.9707 521.205 5.63203C520.86 6.29337 520.688 7.17337 520.688 8.27203C520.688 9.36003 520.86 10.24 521.205 10.912C521.55 11.5734 522.014 12.0534 522.596 12.352C523.189 12.6507 523.857 12.8 524.601 12.8Z" fill="black" fill-opacity="0.25" style="fill:black;fill-opacity:0.25;"/>
<path d="M508.166 3.91995V2.52795H516.849V3.91995H513.275V14H511.739V3.91995H508.166Z" fill="black" fill-opacity="0.25" style="fill:black;fill-opacity:0.25;"/>
<path d="M492.146 2.52795H496.075C497.347 2.52795 498.311 2.74129 498.969 3.16795C499.637 3.59462 499.971 4.31462 499.971 5.32795C499.971 6.14929 499.761 6.77329 499.341 7.19995C498.92 7.61595 498.36 7.89862 497.659 8.04795C498.554 8.15462 499.233 8.41595 499.696 8.83195C500.16 9.23729 500.392 9.85595 500.392 10.688C500.392 11.4773 500.203 12.1173 499.826 12.608C499.448 13.0986 498.931 13.456 498.274 13.68C497.616 13.8933 496.872 14 496.042 14H492.146V2.52795ZM495.961 7.42395C496.694 7.42395 497.287 7.26395 497.74 6.94395C498.203 6.61329 498.435 6.10129 498.435 5.40795C498.435 4.82129 498.23 4.42662 497.821 4.22395C497.411 4.01062 496.829 3.90395 496.075 3.90395H493.665V7.42395H495.961ZM496.042 12.64C496.861 12.64 497.524 12.5013 498.031 12.224C498.538 11.9466 498.791 11.4453 498.791 10.72C498.791 9.99462 498.554 9.49329 498.08 9.21595C497.616 8.92795 496.878 8.78395 495.864 8.78395H493.665V12.64H496.042Z" fill="black" fill-opacity="0.25" style="fill:black;fill-opacity:0.25;"/>
<path d="M482.388 15.7121H481.321C481.526 15.4881 481.709 15.2054 481.871 14.8641C482.043 14.5227 482.146 14.2507 482.178 14.0481C481.952 13.9947 481.769 13.8827 481.628 13.7121C481.488 13.5414 481.418 13.3387 481.418 13.1041C481.418 12.8267 481.505 12.5974 481.677 12.4161C481.86 12.2241 482.103 12.1281 482.405 12.1281C482.706 12.1281 482.949 12.2294 483.132 12.4321C483.326 12.6347 483.423 12.9067 483.423 13.2481C483.423 13.5467 483.369 13.8561 483.262 14.1761C483.154 14.4961 483.019 14.7894 482.857 15.0561C482.706 15.3334 482.55 15.5521 482.388 15.7121Z" fill="black" fill-opacity="0.25" style="fill:black;fill-opacity:0.25;"/>
<path d="M477.482 2.52795V14H475.946V9.40795H473.844L470.643 14H468.783L472.292 9.13595C471.44 8.95462 470.788 8.60262 470.335 8.07995C469.883 7.55729 469.656 6.84795 469.656 5.95195C469.656 5.14129 469.834 4.48529 470.19 3.98395C470.546 3.48262 471.041 3.11462 471.677 2.87995C472.313 2.64529 473.046 2.52795 473.876 2.52795H477.482ZM473.715 8.04795H475.946V3.90395H473.876C473.111 3.90395 472.481 4.05862 471.985 4.36795C471.5 4.66662 471.257 5.19462 471.257 5.95195C471.257 6.66662 471.467 7.19462 471.888 7.53595C472.319 7.87729 472.928 8.04795 473.715 8.04795Z" fill="black" fill-opacity="0.25" style="fill:black;fill-opacity:0.25;"/>
<path d="M457.532 14H455.883V2.52795H457.403V12L463.773 2.52795H465.423V14H463.87V4.57595L457.532 14Z" fill="black" fill-opacity="0.25" style="fill:black;fill-opacity:0.25;"/>
<path d="M443.844 2.52795H447.773C449.045 2.52795 450.01 2.74129 450.667 3.16795C451.335 3.59462 451.67 4.31462 451.67 5.32795C451.67 6.14929 451.459 6.77329 451.039 7.19995C450.619 7.61595 450.058 7.89862 449.357 8.04795C450.252 8.15462 450.931 8.41595 451.395 8.83195C451.858 9.23729 452.09 9.85595 452.09 10.688C452.09 11.4773 451.901 12.1173 451.524 12.608C451.147 13.0986 450.629 13.456 449.972 13.68C449.314 13.8933 448.57 14 447.74 14H443.844V2.52795ZM447.66 7.42395C448.393 7.42395 448.985 7.26395 449.438 6.94395C449.902 6.61329 450.133 6.10129 450.133 5.40795C450.133 4.82129 449.929 4.42662 449.519 4.22395C449.109 4.01062 448.527 3.90395 447.773 3.90395H445.364V7.42395H447.66ZM447.74 12.64C448.56 12.64 449.223 12.5013 449.729 12.224C450.236 11.9466 450.489 11.4453 450.489 10.72C450.489 9.99462 450.252 9.49329 449.778 9.21595C449.314 8.92795 448.576 8.78395 447.563 8.78395H445.364V12.64H447.74Z" fill="black" fill-opacity="0.25" style="fill:black;fill-opacity:0.25;"/>
<path d="M431.707 3.91995V2.52795H440.39V3.91995H436.816V14H435.28V3.91995H431.707Z" fill="black" fill-opacity="0.25" style="fill:black;fill-opacity:0.25;"/>
<path d="M425.144 14.16C424.002 14.16 422.999 13.9254 422.137 13.456C421.285 12.9867 420.622 12.3147 420.148 11.44C419.674 10.5547 419.437 9.4987 419.437 8.27203C419.437 6.4267 419.927 4.9867 420.908 3.95203C421.889 2.9067 423.29 2.38403 425.112 2.38403C425.899 2.38403 426.589 2.46937 427.181 2.64003C427.785 2.80003 428.27 2.99203 428.637 3.21603V4.65603C428.152 4.3467 427.591 4.11737 426.955 3.96803C426.33 3.8187 425.71 3.74403 425.096 3.74403C423.737 3.74403 422.73 4.1227 422.072 4.88003C421.415 5.63737 421.086 6.76803 421.086 8.27203C421.086 9.7867 421.441 10.9227 422.153 11.68C422.864 12.4267 423.905 12.8 425.274 12.8C425.866 12.8 426.443 12.72 427.004 12.56C427.575 12.4 428.119 12.128 428.637 11.744V13.184C428.324 13.4294 427.866 13.6534 427.262 13.856C426.669 14.0587 425.963 14.16 425.144 14.16Z" fill="black" fill-opacity="0.25" style="fill:black;fill-opacity:0.25;"/>
<path d="M406.742 16.72H405.367V12.64H406.159C406.655 12.192 407.022 11.5413 407.259 10.688C407.496 9.83462 407.658 8.74129 407.744 7.40795C407.83 6.06395 407.895 4.43729 407.938 2.52795H415.327V12.64H416.815V16.72H415.408L415.246 14H406.919L406.742 16.72ZM407.922 12.64H413.791V3.90395H409.361C409.329 5.52529 409.259 6.90129 409.151 8.03195C409.054 9.16262 408.903 10.1013 408.698 10.848C408.504 11.584 408.245 12.1813 407.922 12.64Z" fill="black" fill-opacity="0.25" style="fill:black;fill-opacity:0.25;"/>
<path d="M395.202 2.52795H402.381V3.90395H396.722V7.37595H401.524V8.73595H396.722V12.64H402.462V14H395.202V2.52795Z" fill="black" fill-opacity="0.25" style="fill:black;fill-opacity:0.25;"/>
<path d="M381.561 12.544C382.089 12.5973 382.477 12.432 382.725 12.048C382.983 11.664 383.177 11.1573 383.307 10.528C383.468 9.72795 383.576 8.66129 383.63 7.32795C383.684 5.99462 383.722 4.39462 383.743 2.52795H390.89V14H389.354V3.90395H385.182C385.15 5.45062 385.107 6.79995 385.053 7.95195C384.999 9.09329 384.897 10.0586 384.746 10.848C384.616 11.4453 384.433 11.9946 384.196 12.496C383.959 12.9973 383.63 13.392 383.21 13.68C382.789 13.968 382.24 14.096 381.561 14.064V12.544Z" fill="black" fill-opacity="0.25" style="fill:black;fill-opacity:0.25;"/>
<path d="M375.159 14.16C374.016 14.16 373.014 13.9254 372.151 13.456C371.3 12.9867 370.637 12.3147 370.163 11.44C369.688 10.5547 369.451 9.4987 369.451 8.27203C369.451 6.4267 369.942 4.9867 370.923 3.95203C371.903 2.9067 373.305 2.38403 375.126 2.38403C375.913 2.38403 376.603 2.46937 377.196 2.64003C377.8 2.80003 378.285 2.99203 378.651 3.21603V4.65603C378.166 4.3467 377.606 4.11737 376.97 3.96803C376.345 3.8187 375.725 3.74403 375.11 3.74403C373.752 3.74403 372.744 4.1227 372.087 4.88003C371.429 5.63737 371.1 6.76803 371.1 8.27203C371.1 9.7867 371.456 10.9227 372.168 11.68C372.879 12.4267 373.919 12.8 375.288 12.8C375.881 12.8 376.458 12.72 377.018 12.56C377.59 12.4 378.134 12.128 378.651 11.744V13.184C378.339 13.4294 377.881 13.6534 377.277 13.856C376.684 14.0587 375.978 14.16 375.159 14.16Z" fill="black" fill-opacity="0.25" style="fill:black;fill-opacity:0.25;"/>
<path d="M360.939 14.16C359.904 14.16 358.966 13.9307 358.125 13.472C357.284 13.0134 356.616 12.3467 356.12 11.472C355.635 10.5867 355.393 9.50403 355.393 8.22403C355.393 6.94403 355.635 5.87203 356.12 5.00803C356.616 4.13337 357.284 3.47737 358.125 3.04003C358.966 2.6027 359.904 2.38403 360.939 2.38403C361.995 2.38403 362.938 2.60803 363.768 3.05603C364.609 3.49337 365.272 4.14403 365.757 5.00803C366.242 5.87203 366.484 6.94937 366.484 8.24003C366.484 9.50937 366.242 10.5867 365.757 11.472C365.272 12.3467 364.609 13.0134 363.768 13.472C362.938 13.9307 361.995 14.16 360.939 14.16ZM360.939 12.8C361.682 12.8 362.351 12.6507 362.943 12.352C363.536 12.0534 364 11.5734 364.334 10.912C364.679 10.24 364.851 9.36003 364.851 8.27203C364.851 7.17337 364.679 6.29337 364.334 5.63203C364 4.9707 363.536 4.4907 362.943 4.19203C362.351 3.89337 361.682 3.74403 360.939 3.74403C360.195 3.74403 359.526 3.89337 358.934 4.19203C358.351 4.4907 357.888 4.9707 357.543 5.63203C357.198 6.29337 357.026 7.17337 357.026 8.27203C357.026 9.36003 357.198 10.24 357.543 10.912C357.888 11.5734 358.351 12.0534 358.934 12.352C359.526 12.6507 360.195 12.8 360.939 12.8Z" fill="black" fill-opacity="0.25" style="fill:black;fill-opacity:0.25;"/>
<path d="M343.038 2.52795H351.753V14H350.217V3.90395H344.558V14H343.038V2.52795Z" fill="black" fill-opacity="0.25" style="fill:black;fill-opacity:0.25;"/>
<path d="M326.903 2.52795H334.082V3.90395H328.423V7.37595H333.225V8.73595H328.423V12.64H334.163V14H326.903V2.52795Z" fill="black" fill-opacity="0.25" style="fill:black;fill-opacity:0.25;"/>
<path d="M311.692 14V2.52795H313.212V6.97595H315.508C316.791 6.97595 317.777 7.24262 318.467 7.77595C319.157 8.30929 319.502 9.17329 319.502 10.368C319.502 11.2426 319.324 11.9466 318.968 12.48C318.613 13.0133 318.117 13.4026 317.481 13.648C316.845 13.8826 316.112 14 315.282 14H311.692ZM321.054 2.54395H322.59V14H321.054V2.54395ZM315.282 12.64C316.047 12.64 316.672 12.48 317.158 12.16C317.653 11.84 317.901 11.264 317.901 10.432C317.901 9.71729 317.691 9.18929 317.271 8.84795C316.85 8.49595 316.247 8.31995 315.46 8.31995H313.212V12.64H315.282Z" fill="black" fill-opacity="0.25" style="fill:black;fill-opacity:0.25;"/>
<path d="M298.373 2.52795H299.893V7.63195H305.843V2.52795H307.379V14H305.843V8.99195H299.893V14H298.373V2.52795Z" fill="black" fill-opacity="0.25" style="fill:black;fill-opacity:0.25;"/>
<path d="M286.352 2.52795H290.281C291.553 2.52795 292.517 2.74129 293.175 3.16795C293.843 3.59462 294.177 4.31462 294.177 5.32795C294.177 6.14929 293.967 6.77329 293.547 7.19995C293.126 7.61595 292.566 7.89862 291.865 8.04795C292.76 8.15462 293.439 8.41595 293.902 8.83195C294.366 9.23729 294.598 9.85595 294.598 10.688C294.598 11.4773 294.409 12.1173 294.032 12.608C293.655 13.0986 293.137 13.456 292.48 13.68C291.822 13.8933 291.078 14 290.248 14H286.352V2.52795ZM290.167 7.42395C290.9 7.42395 291.493 7.26395 291.946 6.94395C292.41 6.61329 292.641 6.10129 292.641 5.40795C292.641 4.82129 292.436 4.42662 292.027 4.22395C291.617 4.01062 291.035 3.90395 290.281 3.90395H287.871V7.42395H290.167ZM290.248 12.64C291.068 12.64 291.73 12.5013 292.237 12.224C292.744 11.9466 292.997 11.4453 292.997 10.72C292.997 9.99462 292.76 9.49329 292.286 9.21595C291.822 8.92795 291.084 8.78395 290.07 8.78395H287.871V12.64H290.248Z" fill="black" fill-opacity="0.25" style="fill:black;fill-opacity:0.25;"/>
<path d="M274.147 14H272.498V2.52795H274.018V12L280.389 2.52795H282.038V14H280.486V4.57595L274.147 14Z" fill="black" fill-opacity="0.25" style="fill:black;fill-opacity:0.25;"/>
<path d="M260.36 3.91995V2.52795H269.043V3.91995H265.47V14H263.934V3.91995H260.36Z" fill="black" fill-opacity="0.25" style="fill:black;fill-opacity:0.25;"/>
<path d="M259.065 14H257.448L256.251 10.72H251.126L249.945 14H248.522L252.646 2.52795H254.909L259.065 14ZM251.627 9.35995H255.766L253.697 3.64795L251.627 9.35995Z" fill="black" fill-opacity="0.25" style="fill:black;fill-opacity:0.25;"/>
<path d="M240.284 2.52795H247.043V3.90395H241.804V14H240.284V2.52795Z" fill="black" fill-opacity="0.25" style="fill:black;fill-opacity:0.25;"/>
<path d="M229.002 2.52795H236.181V3.90395H230.522V7.37595H235.324V8.73595H230.522V12.64H236.262V14H229.002V2.52795Z" fill="black" fill-opacity="0.25" style="fill:black;fill-opacity:0.25;"/>
<path d="M215.685 2.52795H217.204V7.63195H223.155V2.52795H224.691V14H223.155V8.99195H217.204V14H215.685V2.52795Z" fill="black" fill-opacity="0.25" style="fill:black;fill-opacity:0.25;"/>
<path d="M198.709 3.91995V2.52795H207.392V3.91995H203.818V14H202.282V3.91995H198.709Z" fill="black" fill-opacity="0.25" style="fill:black;fill-opacity:0.25;"/>
<path d="M193.491 1.64798C193.222 1.64798 193.001 1.56265 192.828 1.39198C192.667 1.21065 192.586 0.98665 192.586 0.719983C192.586 0.463983 192.667 0.25065 192.828 0.0799828C193.001 -0.10135 193.222 -0.192017 193.491 -0.192017C193.771 -0.192017 193.992 -0.10135 194.154 0.0799828C194.316 0.25065 194.397 0.463983 194.397 0.719983C194.397 0.98665 194.316 1.21065 194.154 1.39198C193.992 1.56265 193.771 1.64798 193.491 1.64798ZM190.435 1.64798C190.155 1.64798 189.934 1.56265 189.772 1.39198C189.611 1.21065 189.53 0.98665 189.53 0.719983C189.53 0.463983 189.611 0.25065 189.772 0.0799828C189.934 -0.10135 190.155 -0.192017 190.435 -0.192017C190.716 -0.192017 190.937 -0.10135 191.098 0.0799828C191.26 0.25065 191.341 0.463983 191.341 0.719983C191.341 0.98665 191.26 1.21065 191.098 1.39198C190.937 1.56265 190.716 1.64798 190.435 1.64798ZM188.382 2.52798H195.561V3.90398H189.902V7.37598H194.704V8.73598H189.902V12.64H195.642V14H188.382V2.52798Z" fill="black" fill-opacity="0.25" style="fill:black;fill-opacity:0.25;"/>
<path d="M175.484 5.72795V2.52795H177.02V5.72795C177.02 6.62395 177.241 7.31195 177.683 7.79195C178.136 8.27195 178.799 8.51195 179.672 8.51195C180.2 8.51195 180.707 8.45329 181.192 8.33595C181.677 8.20795 182.124 7.99995 182.534 7.71195V2.52795H184.07V14H182.534V8.99195C182.092 9.26929 181.629 9.47195 181.144 9.59995C180.669 9.72795 180.173 9.79195 179.656 9.79195C178.33 9.79195 177.301 9.46129 176.568 8.79995C175.845 8.13862 175.484 7.11462 175.484 5.72795Z" fill="black" fill-opacity="0.25" style="fill:black;fill-opacity:0.25;"/>
<path d="M164.431 2.52795H171.61V3.90395H165.951V7.37595H170.753V8.73595H165.951V12.64H171.691V14H164.431V2.52795Z" fill="black" fill-opacity="0.25" style="fill:black;fill-opacity:0.25;"/>
<path d="M150.789 12.544C151.317 12.5973 151.705 12.432 151.953 12.048C152.212 11.664 152.406 11.1573 152.535 10.528C152.697 9.72795 152.805 8.66129 152.859 7.32795C152.913 5.99462 152.95 4.39462 152.972 2.52795H160.119V14H158.582V3.90395H154.411C154.379 5.45062 154.335 6.79995 154.282 7.95195C154.228 9.09329 154.125 10.0586 153.974 10.848C153.845 11.4453 153.662 11.9946 153.425 12.496C153.187 12.9973 152.859 13.392 152.438 13.68C152.018 13.968 151.468 14.096 150.789 14.064V12.544Z" fill="black" fill-opacity="0.25" style="fill:black;fill-opacity:0.25;"/>
<path d="M139.785 2.52795H143.714C144.986 2.52795 145.951 2.74129 146.608 3.16795C147.277 3.59462 147.611 4.31462 147.611 5.32795C147.611 6.14929 147.401 6.77329 146.98 7.19995C146.56 7.61595 145.999 7.89862 145.299 8.04795C146.193 8.15462 146.873 8.41595 147.336 8.83195C147.8 9.23729 148.031 9.85595 148.031 10.688C148.031 11.4773 147.843 12.1173 147.465 12.608C147.088 13.0986 146.571 13.456 145.913 13.68C145.256 13.8933 144.512 14 143.682 14H139.785V2.52795ZM143.601 7.42395C144.334 7.42395 144.927 7.26395 145.38 6.94395C145.843 6.61329 146.075 6.10129 146.075 5.40795C146.075 4.82129 145.87 4.42662 145.46 4.22395C145.051 4.01062 144.469 3.90395 143.714 3.90395H141.305V7.42395H143.601ZM143.682 12.64C144.501 12.64 145.164 12.5013 145.671 12.224C146.177 11.9466 146.431 11.4453 146.431 10.72C146.431 9.99462 146.193 9.49329 145.719 9.21595C145.256 8.92795 144.517 8.78395 143.504 8.78395H141.305V12.64H143.682Z" fill="black" fill-opacity="0.25" style="fill:black;fill-opacity:0.25;"/>
<path d="M125.739 14.16C124.705 14.16 123.767 13.9307 122.926 13.472C122.085 13.0134 121.417 12.3467 120.921 11.472C120.436 10.5867 120.193 9.50403 120.193 8.22403C120.193 6.94403 120.436 5.87203 120.921 5.00803C121.417 4.13337 122.085 3.47737 122.926 3.04003C123.767 2.6027 124.705 2.38403 125.739 2.38403C126.796 2.38403 127.739 2.60803 128.569 3.05603C129.41 3.49337 130.073 4.14403 130.558 5.00803C131.043 5.87203 131.285 6.94937 131.285 8.24003C131.285 9.50937 131.043 10.5867 130.558 11.472C130.073 12.3467 129.41 13.0134 128.569 13.472C127.739 13.9307 126.796 14.16 125.739 14.16ZM125.739 12.8C126.483 12.8 127.151 12.6507 127.744 12.352C128.337 12.0534 128.801 11.5734 129.135 10.912C129.48 10.24 129.652 9.36003 129.652 8.27203C129.652 7.17337 129.48 6.29337 129.135 5.63203C128.801 4.9707 128.337 4.4907 127.744 4.19203C127.151 3.89337 126.483 3.74403 125.739 3.74403C124.996 3.74403 124.327 3.89337 123.734 4.19203C123.152 4.4907 122.689 4.9707 122.344 5.63203C121.999 6.29337 121.826 7.17337 121.826 8.27203C121.826 9.36003 121.999 10.24 122.344 10.912C122.689 11.5734 123.152 12.0534 123.734 12.352C124.327 12.6507 124.996 12.8 125.739 12.8Z" fill="black" fill-opacity="0.25" style="fill:black;fill-opacity:0.25;"/>
<path d="M108.914 2.52795H112.843C114.115 2.52795 115.08 2.74129 115.737 3.16795C116.406 3.59462 116.74 4.31462 116.74 5.32795C116.74 6.14929 116.53 6.77329 116.109 7.19995C115.689 7.61595 115.128 7.89862 114.428 8.04795C115.322 8.15462 116.001 8.41595 116.465 8.83195C116.928 9.23729 117.16 9.85595 117.16 10.688C117.16 11.4773 116.972 12.1173 116.594 12.608C116.217 13.0986 115.7 13.456 115.042 13.68C114.385 13.8933 113.641 14 112.811 14H108.914V2.52795ZM112.73 7.42395C113.463 7.42395 114.056 7.26395 114.509 6.94395C114.972 6.61329 115.204 6.10129 115.204 5.40795C115.204 4.82129 114.999 4.42662 114.589 4.22395C114.18 4.01062 113.598 3.90395 112.843 3.90395H110.434V7.42395H112.73ZM112.811 12.64C113.63 12.64 114.293 12.5013 114.8 12.224C115.306 11.9466 115.56 11.4453 115.56 10.72C115.56 9.99462 115.322 9.49329 114.848 9.21595C114.385 8.92795 113.646 8.78395 112.633 8.78395H110.434V12.64H112.811Z" fill="black" fill-opacity="0.25" style="fill:black;fill-opacity:0.25;"/>
<path d="M96.7754 3.91995V2.52795H105.458V3.91995H101.885V14H100.349V3.91995H96.7754Z" fill="black" fill-opacity="0.25" style="fill:black;fill-opacity:0.25;"/>
<path d="M90.2125 14.16C89.0699 14.16 88.0674 13.9254 87.2051 13.456C86.3535 12.9867 85.6906 12.3147 85.2163 11.44C84.742 10.5547 84.5049 9.4987 84.5049 8.27203C84.5049 6.4267 84.9953 4.9867 85.9763 3.95203C86.9572 2.9067 88.3585 2.38403 90.1802 2.38403C90.9671 2.38403 91.657 2.46937 92.2498 2.64003C92.8535 2.80003 93.3385 2.99203 93.705 3.21603V4.65603C93.22 4.3467 92.6594 4.11737 92.0235 3.96803C91.3983 3.8187 90.7784 3.74403 90.164 3.74403C88.8058 3.74403 87.798 4.1227 87.1404 4.88003C86.4829 5.63737 86.1541 6.76803 86.1541 8.27203C86.1541 9.7867 86.5098 10.9227 87.2213 11.68C87.9327 12.4267 88.9729 12.8 90.3419 12.8C90.9347 12.8 91.5114 12.72 92.072 12.56C92.6433 12.4 93.1876 12.128 93.705 11.744V13.184C93.3924 13.4294 92.9343 13.6534 92.3307 13.856C91.7378 14.0587 91.0318 14.16 90.2125 14.16Z" fill="black" fill-opacity="0.25" style="fill:black;fill-opacity:0.25;"/>
<path d="M73.6143 3.91995V2.52795H82.297V3.91995H78.7236V14H77.1876V3.91995H73.6143Z" fill="black" fill-opacity="0.25" style="fill:black;fill-opacity:0.25;"/>
<path d="M65.8633 14.16C64.8285 14.16 63.8907 13.9307 63.0499 13.472C62.2091 13.0134 61.5408 12.3467 61.045 11.472C60.5599 10.5867 60.3174 9.50403 60.3174 8.22403C60.3174 6.94403 60.5599 5.87203 61.045 5.00803C61.5408 4.13337 62.2091 3.47737 63.0499 3.04003C63.8907 2.6027 64.8285 2.38403 65.8633 2.38403C66.9197 2.38403 67.8629 2.60803 68.6929 3.05603C69.5337 3.49337 70.1966 4.14403 70.6817 5.00803C71.1668 5.87203 71.4093 6.94937 71.4093 8.24003C71.4093 9.50937 71.1668 10.5867 70.6817 11.472C70.1966 12.3467 69.5337 13.0134 68.6929 13.472C67.8629 13.9307 66.9197 14.16 65.8633 14.16ZM65.8633 12.8C66.6071 12.8 67.2754 12.6507 67.8683 12.352C68.4611 12.0534 68.9247 11.5734 69.2588 10.912C69.6038 10.24 69.7762 9.36003 69.7762 8.27203C69.7762 7.17337 69.6038 6.29337 69.2588 5.63203C68.9247 4.9707 68.4611 4.4907 67.8683 4.19203C67.2754 3.89337 66.6071 3.74403 65.8633 3.74403C65.1196 3.74403 64.4512 3.89337 63.8584 4.19203C63.2763 4.4907 62.8128 4.9707 62.4679 5.63203C62.1229 6.29337 61.9504 7.17337 61.9504 8.27203C61.9504 9.36003 62.1229 10.24 62.4679 10.912C62.8128 11.5734 63.2763 12.0534 63.8584 12.352C64.4512 12.6507 65.1196 12.8 65.8633 12.8Z" fill="black" fill-opacity="0.25" style="fill:black;fill-opacity:0.25;"/>
<path d="M49.5117 2.52795H53.2144C54.5295 2.52795 55.5481 2.79995 56.2703 3.34395C57.0033 3.87729 57.3698 4.71462 57.3698 5.85595C57.3698 6.71995 57.1866 7.42395 56.8201 7.96795C56.4644 8.51195 55.9631 8.91195 55.3164 9.16795C54.6804 9.41329 53.9366 9.53595 53.0851 9.53595H51.0316V14H49.5117V2.52795ZM53.0851 8.17595C53.9043 8.17595 54.5672 7.99995 55.0738 7.64795C55.5805 7.29595 55.8338 6.70395 55.8338 5.87195C55.8338 5.17862 55.6074 4.67729 55.1547 4.36795C54.702 4.05862 54.0552 3.90395 53.2144 3.90395H51.0316V8.17595H53.0851Z" fill="black" fill-opacity="0.25" style="fill:black;fill-opacity:0.25;"/>
<path d="M46.2189 14H44.3271L40.2849 9.08795H39.056V14H37.5361V2.52795H39.056V7.72795H40.1878L44.3271 2.52795H46.041L41.4652 8.25595L46.2189 14Z" fill="black" fill-opacity="0.25" style="fill:black;fill-opacity:0.25;"/>
<path d="M24.2188 2.52795H25.7386V7.63195H31.6888V2.52795H33.2249V14H31.6888V8.99195H25.7386V14H24.2188V2.52795Z" fill="black" fill-opacity="0.25" style="fill:black;fill-opacity:0.25;"/>
<path d="M20.9299 14H19.313L18.1165 10.72H12.9909L11.8106 14H10.3877L14.5108 2.52795H16.7744L20.9299 14ZM13.4921 9.35995H17.6314L15.5618 3.64795L13.4921 9.35995Z" fill="black" fill-opacity="0.25" style="fill:black;fill-opacity:0.25;"/>
<path d="M0 14V2.52795H7.06584V3.90395H1.51988V7.13595H3.81587C5.09861 7.13595 6.08492 7.39729 6.77479 7.91995C7.46467 8.44262 7.80961 9.28529 7.80961 10.448C7.80961 11.3013 7.63175 11.9893 7.27603 12.512C6.92032 13.0346 6.42447 13.4133 5.78849 13.648C5.15251 13.8826 4.41952 14 3.58951 14H0ZM3.58951 12.64C4.35484 12.64 4.98004 12.4853 5.46511 12.176C5.96096 11.8666 6.20888 11.312 6.20888 10.512C6.20888 9.82929 5.99868 9.32262 5.57829 8.99195C5.1579 8.66129 4.55426 8.49595 3.76737 8.49595H1.51988V12.64H3.58951Z" fill="black" fill-opacity="0.25" style="fill:black;fill-opacity:0.25;"/>
</svg>
