<svg width="198" height="68" viewBox="0 0 198 68" fill="none" xmlns="http://www.w3.org/2000/svg">
<path d="M191.601 67.8815H190.38V59.3815H191.505V66.3996L196.223 59.3815H197.445V67.8815H196.295V60.8989L191.601 67.8815Z" fill="black" fill-opacity="0.25" style="fill:black;fill-opacity:0.25;"/>
<path d="M186.504 67.8815H185.103L182.11 64.242H181.2V67.8815H180.074V59.3815H181.2V63.2343H182.038L185.103 59.3815H186.373L182.984 63.6255L186.504 67.8815Z" fill="black" fill-opacity="0.25" style="fill:black;fill-opacity:0.25;"/>
<path d="M173.131 68C172.285 68 171.543 67.8262 170.904 67.4784C170.273 67.1307 169.782 66.6328 169.431 65.9847C169.08 65.3287 168.904 64.5463 168.904 63.6374C168.904 62.2701 169.268 61.2032 169.994 60.4366C170.72 59.662 171.758 59.2748 173.107 59.2748C173.69 59.2748 174.201 59.338 174.64 59.4645C175.087 59.583 175.446 59.7253 175.717 59.8912V60.9582C175.358 60.729 174.943 60.5591 174.472 60.4484C174.009 60.3378 173.55 60.2825 173.095 60.2825C172.089 60.2825 171.343 60.563 170.856 61.1242C170.369 61.6853 170.126 62.523 170.126 63.6374C170.126 64.7597 170.389 65.6014 170.916 66.1625C171.443 66.7157 172.213 66.9924 173.227 66.9924C173.666 66.9924 174.093 66.9331 174.508 66.8145C174.931 66.696 175.334 66.4944 175.717 66.2099V67.2769C175.486 67.4587 175.147 67.6246 174.7 67.7748C174.261 67.9249 173.738 68 173.131 68Z" fill="black" fill-opacity="0.25" style="fill:black;fill-opacity:0.25;"/>
<path d="M158.932 67.8815H157.711V59.3815H158.836V66.3996L163.554 59.3815H164.776V67.8815H163.626V60.8989L158.932 67.8815Z" fill="black" fill-opacity="0.25" style="fill:black;fill-opacity:0.25;"/>
<path d="M147.768 59.3815H150.51C151.483 59.3815 152.238 59.583 152.773 59.9861C153.316 60.3812 153.587 61.0016 153.587 61.8473C153.587 62.4875 153.451 63.0091 153.18 63.4122C152.916 63.8152 152.545 64.1116 152.066 64.3013C151.595 64.483 151.044 64.5739 150.414 64.5739H148.893V67.8815H147.768V59.3815ZM150.414 63.5663C151.021 63.5663 151.511 63.4359 151.887 63.1751C152.262 62.9142 152.449 62.4756 152.449 61.8592C152.449 61.3454 152.282 60.974 151.946 60.7448C151.611 60.5156 151.132 60.401 150.51 60.401H148.893V63.5663H150.414Z" fill="black" fill-opacity="0.25" style="fill:black;fill-opacity:0.25;"/>
<path d="M132.261 67.8815H131.04V59.3815H132.166V66.3996L136.883 59.3815H138.105V67.8815H136.955V60.8989L132.261 67.8815Z" fill="black" fill-opacity="0.25" style="fill:black;fill-opacity:0.25;"/>
<path d="M115.533 67.8815H114.312V59.3815H115.437V66.3996L120.155 59.3815H121.376V67.8815H120.227V60.8989L115.533 67.8815Z" fill="black" fill-opacity="0.25" style="fill:black;fill-opacity:0.25;"/>
<path d="M103.887 60.4128V59.3815H110.317V60.4128H107.67V67.8815H106.533V60.4128H103.887Z" fill="black" fill-opacity="0.25" style="fill:black;fill-opacity:0.25;"/>
<path d="M97.5891 68C96.7429 68 96.0006 67.8262 95.362 67.4784C94.7313 67.1307 94.2404 66.6328 93.8892 65.9847C93.5379 65.3287 93.3623 64.5463 93.3623 63.6374C93.3623 62.2701 93.7255 61.2032 94.4519 60.4366C95.1784 59.662 96.2161 59.2748 97.5652 59.2748C98.1479 59.2748 98.6588 59.338 99.0978 59.4645C99.5449 59.583 99.9041 59.7253 100.175 59.8912V60.9582C99.8163 60.729 99.4012 60.5591 98.9302 60.4484C98.4672 60.3378 98.0082 60.2825 97.5532 60.2825C96.5474 60.2825 95.801 60.563 95.3141 61.1242C94.8271 61.6853 94.5836 62.523 94.5836 63.6374C94.5836 64.7597 94.8471 65.6014 95.3739 66.1625C95.9008 66.7157 96.6711 66.9924 97.6849 66.9924C98.1239 66.9924 98.551 66.9331 98.9661 66.8145C99.3892 66.696 99.7923 66.4944 100.175 66.2099V67.2769C99.944 67.4587 99.6047 67.6246 99.1577 67.7748C98.7187 67.9249 98.1958 68 97.5891 68Z" fill="black" fill-opacity="0.25" style="fill:black;fill-opacity:0.25;"/>
<path d="M85.6207 68C84.8544 68 84.1599 67.8301 83.5373 67.4903C82.9146 67.1504 82.4197 66.6565 82.0525 66.0084C81.6933 65.3524 81.5137 64.5502 81.5137 63.6018C81.5137 62.6534 81.6933 61.8592 82.0525 61.219C82.4197 60.5709 82.9146 60.0849 83.5373 59.7608C84.1599 59.4368 84.8544 59.2748 85.6207 59.2748C86.403 59.2748 87.1015 59.4408 87.7162 59.7727C88.3388 60.0967 88.8298 60.5788 89.189 61.219C89.5482 61.8592 89.7278 62.6574 89.7278 63.6137C89.7278 64.5542 89.5482 65.3524 89.189 66.0084C88.8298 66.6565 88.3388 67.1504 87.7162 67.4903C87.1015 67.8301 86.403 68 85.6207 68ZM85.6207 66.9924C86.1715 66.9924 86.6665 66.8817 87.1055 66.6604C87.5446 66.4391 87.8878 66.0835 88.1353 65.5935C88.3907 65.0956 88.5184 64.4435 88.5184 63.6374C88.5184 62.8234 88.3907 62.1713 88.1353 61.6813C87.8878 61.1913 87.5446 60.8357 87.1055 60.6144C86.6665 60.3931 86.1715 60.2825 85.6207 60.2825C85.0699 60.2825 84.575 60.3931 84.136 60.6144C83.7049 60.8357 83.3617 61.1913 83.1062 61.6813C82.8508 62.1713 82.723 62.8234 82.723 63.6374C82.723 64.4435 82.8508 65.0956 83.1062 65.5935C83.3617 66.0835 83.7049 66.4391 84.136 66.6604C84.575 66.8817 85.0699 66.9924 85.6207 66.9924Z" fill="black" fill-opacity="0.25" style="fill:black;fill-opacity:0.25;"/>
<path d="M70.7168 59.3815H71.8423V63.1632H76.2488V59.3815H77.3863V67.8815H76.2488V64.1709H71.8423V67.8815H70.7168V59.3815Z" fill="black" fill-opacity="0.25" style="fill:black;fill-opacity:0.25;"/>
<path d="M55.9385 67.8815L59.4229 63.5544L56.0941 59.3815H57.3155L60.309 63.2106H60.7879V59.3815H61.9254V63.2106H62.4284L65.4218 59.3815H66.6552L63.3025 63.5781L66.8108 67.8815H65.4338L62.4164 64.1472H61.9254V67.8815H60.7879V64.1472H60.273L57.2796 67.8815H55.9385Z" fill="black" fill-opacity="0.25" style="fill:black;fill-opacity:0.25;"/>
<path d="M49.0231 68C48.2567 68 47.5623 67.8301 46.9396 67.4903C46.317 67.1504 45.822 66.6565 45.4548 66.0084C45.0956 65.3524 44.916 64.5502 44.916 63.6018C44.916 62.6534 45.0956 61.8592 45.4548 61.219C45.822 60.5709 46.317 60.0849 46.9396 59.7608C47.5623 59.4368 48.2567 59.2748 49.0231 59.2748C49.8054 59.2748 50.5039 59.4408 51.1185 59.7727C51.7412 60.0967 52.2321 60.5788 52.5913 61.219C52.9505 61.8592 53.1301 62.6574 53.1301 63.6137C53.1301 64.5542 52.9505 65.3524 52.5913 66.0084C52.2321 66.6565 51.7412 67.1504 51.1185 67.4903C50.5039 67.8301 49.8054 68 49.0231 68ZM49.0231 66.9924C49.5739 66.9924 50.0688 66.8817 50.5078 66.6604C50.9469 66.4391 51.2901 66.0835 51.5376 65.5935C51.793 65.0956 51.9208 64.4435 51.9208 63.6374C51.9208 62.8234 51.793 62.1713 51.5376 61.6813C51.2901 61.1913 50.9469 60.8357 50.5078 60.6144C50.0688 60.3931 49.5739 60.2825 49.0231 60.2825C48.4723 60.2825 47.9774 60.3931 47.5383 60.6144C47.1072 60.8357 46.764 61.1913 46.5085 61.6813C46.2531 62.1713 46.1254 62.8234 46.1254 63.6374C46.1254 64.4435 46.2531 65.0956 46.5085 65.5935C46.764 66.0835 47.1072 66.4391 47.5383 66.6604C47.9774 66.8817 48.4723 66.9924 49.0231 66.9924Z" fill="black" fill-opacity="0.25" style="fill:black;fill-opacity:0.25;"/>
<path d="M36.4499 66.5893H35.9589H35.947L35.9589 66.5774L33.3606 60.9463V67.8815H32.2949V59.3815H33.8635L36.5337 65.3445L39.3236 59.3815H40.7844V67.8815H39.6469V61.0412L37.0127 66.5774L36.4499 66.5893Z" fill="black" fill-opacity="0.25" style="fill:black;fill-opacity:0.25;"/>
<path d="M24.7105 68C24.0719 68 23.5171 67.921 23.0461 67.7629C22.5831 67.6049 22.2439 67.4389 22.0283 67.265V66.1981C22.7707 66.7276 23.6528 66.9924 24.6746 66.9924C25.0737 66.9924 25.4369 66.9449 25.7642 66.8501C26.0915 66.7553 26.3549 66.5972 26.5545 66.3759C26.754 66.1467 26.8538 65.8385 26.8538 65.4512C26.8538 64.9138 26.6782 64.5384 26.327 64.325C25.9837 64.1037 25.4688 63.9931 24.7823 63.9931H23.549V63.0447H24.7584C25.3571 63.0447 25.8121 62.9182 26.1234 62.6653C26.4347 62.4045 26.5904 62.0488 26.5904 61.5984C26.5904 61.1083 26.4267 60.7646 26.0995 60.567C25.7722 60.3694 25.3411 60.2706 24.8063 60.2706C24.2635 60.2706 23.7685 60.3299 23.3215 60.4484C22.8825 60.567 22.4953 60.7132 22.16 60.8871V59.832C22.4235 59.6976 22.7667 59.5712 23.1898 59.4526C23.6209 59.3341 24.1637 59.2748 24.8182 59.2748C25.7123 59.2748 26.4228 59.4566 26.9496 59.8201C27.4765 60.1837 27.7399 60.7527 27.7399 61.5272C27.7399 62.0251 27.5882 62.4401 27.2849 62.772C26.9895 63.096 26.5545 63.3213 25.9797 63.4477C26.6503 63.5347 27.1612 63.7401 27.5124 64.0642C27.8636 64.3882 28.0392 64.8427 28.0392 65.4275C28.0392 66.0282 27.8876 66.5182 27.5842 66.8975C27.2889 67.2769 26.8897 67.5574 26.3868 67.7392C25.8839 67.9131 25.3251 68 24.7105 68Z" fill="black" fill-opacity="0.25" style="fill:black;fill-opacity:0.25;"/>
<path d="M14.4 68C13.6337 68 12.9392 67.8301 12.3166 67.4903C11.6939 67.1504 11.199 66.6565 10.8318 66.0084C10.4726 65.3524 10.293 64.5502 10.293 63.6018C10.293 62.6534 10.4726 61.8592 10.8318 61.219C11.199 60.5709 11.6939 60.0849 12.3166 59.7608C12.9392 59.4368 13.6337 59.2748 14.4 59.2748C15.1823 59.2748 15.8808 59.4408 16.4955 59.7727C17.1181 60.0967 17.609 60.5788 17.9683 61.219C18.3275 61.8592 18.5071 62.6574 18.5071 63.6137C18.5071 64.5542 18.3275 65.3524 17.9683 66.0084C17.609 66.6565 17.1181 67.1504 16.4955 67.4903C15.8808 67.8301 15.1823 68 14.4 68ZM14.4 66.9924C14.9508 66.9924 15.4458 66.8817 15.8848 66.6604C16.3238 66.4391 16.6671 66.0835 16.9146 65.5935C17.17 65.0956 17.2977 64.4435 17.2977 63.6374C17.2977 62.8234 17.17 62.1713 16.9146 61.6813C16.6671 61.1913 16.3238 60.8357 15.8848 60.6144C15.4458 60.3931 14.9508 60.2825 14.4 60.2825C13.8492 60.2825 13.3543 60.3931 12.9153 60.6144C12.4842 60.8357 12.1409 61.1913 11.8855 61.6813C11.6301 62.1713 11.5023 62.8234 11.5023 63.6374C11.5023 64.4435 11.6301 65.0956 11.8855 65.5935C12.1409 66.0835 12.4842 66.4391 12.9153 66.6604C13.3543 66.8817 13.8492 66.9924 14.4 66.9924Z" fill="black" fill-opacity="0.25" style="fill:black;fill-opacity:0.25;"/>
<path d="M0.50293 59.3815H3.4126C4.35455 59.3815 5.06899 59.5395 5.55593 59.8557C6.05086 60.1718 6.29832 60.7053 6.29832 61.4561C6.29832 62.0646 6.14266 62.527 5.83133 62.8431C5.52001 63.1513 5.10492 63.3608 4.58604 63.4714C5.2486 63.5505 5.75151 63.7441 6.09476 64.0523C6.43802 64.3526 6.60964 64.811 6.60964 65.4275C6.60964 66.0123 6.46995 66.4865 6.19055 66.8501C5.91116 67.2136 5.528 67.4784 5.04105 67.6444C4.55411 67.8024 4.00331 67.8815 3.38865 67.8815H0.50293V59.3815ZM3.32878 63.0091C3.8716 63.0091 4.31064 62.8905 4.64591 62.6534C4.98917 62.4084 5.16079 62.0291 5.16079 61.5154C5.16079 61.0807 5.00912 60.7883 4.70578 60.6381C4.40244 60.48 3.97138 60.401 3.4126 60.401H1.62848V63.0091H3.32878ZM3.38865 66.8738C3.99533 66.8738 4.48626 66.7711 4.86145 66.5656C5.23663 66.3601 5.42422 65.9886 5.42422 65.4512C5.42422 64.9138 5.2486 64.5423 4.89737 64.3368C4.55411 64.1235 4.0073 64.0168 3.25694 64.0168H1.62848V66.8738H3.38865Z" fill="black" fill-opacity="0.25" style="fill:black;fill-opacity:0.25;"/>
<path d="M190.829 47.5265H196.146V48.546H191.955V51.1185H195.511V52.1262H191.955V55.0188H196.205V56.0265H190.829V47.5265Z" fill="black" fill-opacity="0.25" style="fill:black;fill-opacity:0.25;"/>
<path d="M168.428 56.0265V47.5265H169.553V50.8222H171.254C172.204 50.8222 172.934 51.0197 173.445 51.4149C173.956 51.8101 174.211 52.4502 174.211 53.3354C174.211 53.9835 174.079 54.5051 173.816 54.9003C173.553 55.2954 173.185 55.5839 172.714 55.7657C172.243 55.9396 171.701 56.0265 171.086 56.0265H168.428ZM175.361 47.5383H176.498V56.0265H175.361V47.5383ZM171.086 55.0188C171.653 55.0188 172.116 54.9003 172.475 54.6632C172.842 54.4261 173.026 53.9993 173.026 53.3828C173.026 52.8533 172.87 52.4621 172.559 52.2092C172.247 51.9484 171.8 51.818 171.218 51.818H169.553V55.0188H171.086Z" fill="black" fill-opacity="0.25" style="fill:black;fill-opacity:0.25;"/>
<path d="M148.377 47.5265H151.287C152.229 47.5265 152.943 47.6846 153.43 48.0007C153.925 48.3168 154.172 48.8503 154.172 49.6011C154.172 50.2097 154.017 50.672 153.705 50.9881C153.394 51.2964 152.979 51.5058 152.46 51.6164C153.123 51.6955 153.626 51.8891 153.969 52.1973C154.312 52.4977 154.484 52.9561 154.484 53.5725C154.484 54.1574 154.344 54.6316 154.065 54.9951C153.785 55.3587 153.402 55.6234 152.915 55.7894C152.428 55.9475 151.877 56.0265 151.263 56.0265H148.377V47.5265ZM151.203 51.1541C151.746 51.1541 152.185 51.0356 152.52 50.7985C152.863 50.5535 153.035 50.1741 153.035 49.6604C153.035 49.2257 152.883 48.9333 152.58 48.7831C152.276 48.625 151.845 48.546 151.287 48.546H149.503V51.1541H151.203ZM151.263 55.0188C151.869 55.0188 152.36 54.9161 152.735 54.7106C153.111 54.5051 153.298 54.1336 153.298 53.5962C153.298 53.0588 153.123 52.6873 152.771 52.4819C152.428 52.2685 151.881 52.1618 151.131 52.1618H149.503V55.0188H151.263Z" fill="black" fill-opacity="0.25" style="fill:black;fill-opacity:0.25;"/>
<path d="M130.434 56.145C129.668 56.145 128.973 55.9751 128.351 55.6353C127.728 55.2954 127.233 54.8015 126.866 54.1534C126.507 53.4974 126.327 52.6953 126.327 51.7469C126.327 50.7985 126.507 50.0042 126.866 49.364C127.233 48.7159 127.728 48.2299 128.351 47.9059C128.973 47.5818 129.668 47.4198 130.434 47.4198C131.217 47.4198 131.915 47.5858 132.53 47.9177C133.152 48.2417 133.643 48.7238 134.002 49.364C134.362 50.0042 134.541 50.8024 134.541 51.7587C134.541 52.6992 134.362 53.4974 134.002 54.1534C133.643 54.8015 133.152 55.2954 132.53 55.6353C131.915 55.9751 131.217 56.145 130.434 56.145ZM130.434 55.1374C130.985 55.1374 131.48 55.0267 131.919 54.8054C132.358 54.5841 132.701 54.2285 132.949 53.7385C133.204 53.2406 133.332 52.5886 133.332 51.7824C133.332 50.9684 133.204 50.3164 132.949 49.8264C132.701 49.3364 132.358 48.9807 131.919 48.7594C131.48 48.5381 130.985 48.4275 130.434 48.4275C129.883 48.4275 129.388 48.5381 128.949 48.7594C128.518 48.9807 128.175 49.3364 127.92 49.8264C127.664 50.3164 127.537 50.9684 127.537 51.7824C127.537 52.5886 127.664 53.2406 127.92 53.7385C128.175 54.2285 128.518 54.5841 128.949 54.8054C129.388 55.0267 129.883 55.1374 130.434 55.1374Z" fill="black" fill-opacity="0.25" style="fill:black;fill-opacity:0.25;"/>
<path d="M110.362 56.145C109.515 56.145 108.773 55.9712 108.134 55.6234C107.504 55.2757 107.013 54.7778 106.662 54.1297C106.31 53.4737 106.135 52.6913 106.135 51.7824C106.135 50.4152 106.498 49.3482 107.224 48.5816C107.951 47.8071 108.989 47.4198 110.338 47.4198C110.92 47.4198 111.431 47.483 111.87 47.6095C112.317 47.728 112.677 47.8703 112.948 48.0363V49.1032C112.589 48.874 112.174 48.7041 111.703 48.5934C111.24 48.4828 110.781 48.4275 110.326 48.4275C109.32 48.4275 108.573 48.708 108.087 49.2692C107.6 49.8303 107.356 50.6681 107.356 51.7824C107.356 52.9047 107.62 53.7464 108.146 54.3075C108.673 54.8608 109.444 55.1374 110.457 55.1374C110.896 55.1374 111.323 55.0781 111.739 54.9595C112.162 54.841 112.565 54.6395 112.948 54.3549V55.4219C112.716 55.6037 112.377 55.7696 111.93 55.9198C111.491 56.07 110.968 56.145 110.362 56.145Z" fill="black" fill-opacity="0.25" style="fill:black;fill-opacity:0.25;"/>
<path d="M85.6396 47.5265H86.7652V51.3082H91.1716V47.5265H92.3091V56.0265H91.1716V52.3159H86.7652V56.0265H85.6396V47.5265Z" fill="black" fill-opacity="0.25" style="fill:black;fill-opacity:0.25;"/>
<path d="M72.0697 56.0265H70.8723L69.9862 53.5962H66.1905L65.3164 56.0265H64.2627L67.3161 47.5265H68.9924L72.0697 56.0265ZM66.5617 52.5886H69.627L68.0944 48.3563L66.5617 52.5886Z" fill="black" fill-opacity="0.25" style="fill:black;fill-opacity:0.25;"/>
<path d="M44.0303 47.5265H45.1558V51.3082H49.5622V47.5265H50.6998V56.0265H49.5622V52.3159H45.1558V56.0265H44.0303V47.5265Z" fill="black" fill-opacity="0.25" style="fill:black;fill-opacity:0.25;"/>
<path d="M23.8688 56.0265H22.6475V47.5265H23.773V54.5446L28.4907 47.5265H29.7121V56.0265H28.5626V49.0439L23.8688 56.0265Z" fill="black" fill-opacity="0.25" style="fill:black;fill-opacity:0.25;"/>
<path d="M1.18542 51.7707C1.18542 52.3397 1.30117 52.7942 1.53266 53.134C1.76416 53.4738 2.07948 53.7228 2.47861 53.8809C2.88572 54.031 3.33674 54.118 3.83166 54.1417V49.4115C3.33674 49.4353 2.88572 49.5261 2.47861 49.6842C2.07948 49.8344 1.76416 50.0794 1.53266 50.4192C1.30117 50.7512 1.18542 51.2016 1.18542 51.7707ZM7.61543 51.7944C7.61543 51.2174 7.49968 50.763 7.26818 50.4311C7.03669 50.0912 6.72137 49.8423 6.32224 49.6842C5.92311 49.5261 5.47209 49.4392 4.96919 49.4234V54.1535C5.47209 54.1298 5.92311 54.0429 6.32224 53.8927C6.72137 53.7346 7.03669 53.4896 7.26818 53.1577C7.49968 52.8179 7.61543 52.3634 7.61543 51.7944ZM3.83166 47.4318H4.96919V48.5224C5.69561 48.5382 6.34619 48.6686 6.92094 48.9136C7.50367 49.1586 7.96267 49.5182 8.29794 49.9924C8.63321 50.4587 8.80085 51.0475 8.80085 51.7588C8.80085 52.4622 8.63321 53.055 8.29794 53.5371C7.96267 54.0113 7.50367 54.3748 6.92094 54.6277C6.34619 54.8727 5.69561 55.0071 4.96919 55.0308V56.1452H3.83166V55.0308C3.10524 55.015 2.45067 54.8885 1.86794 54.6514C1.29319 54.4064 0.838176 54.0468 0.502906 53.5726C0.167635 53.0984 0 52.5096 0 51.8062C0 51.0949 0.167635 50.5022 0.502906 50.028C0.838176 49.5459 1.29319 49.1823 1.86794 48.9373C2.45067 48.6844 3.10524 48.5461 3.83166 48.5224V47.4318Z" fill="black" fill-opacity="0.25" style="fill:black;fill-opacity:0.25;"/>
<path d="M186.75 44.1716H185.528V35.6716H186.654V42.6898L191.372 35.6716H192.593V44.1716H191.443V37.1891L186.75 44.1716Z" fill="black" fill-opacity="0.25" style="fill:black;fill-opacity:0.25;"/>
<path d="M179.199 44.2901C178.433 44.2901 177.738 44.1201 177.115 43.7803C176.493 43.4405 175.998 42.9465 175.631 42.2984C175.271 41.6425 175.092 40.8403 175.092 39.8919C175.092 38.9435 175.271 38.1492 175.631 37.509C175.998 36.861 176.493 36.3749 177.115 36.0509C177.738 35.7268 178.433 35.5648 179.199 35.5648C179.981 35.5648 180.68 35.7308 181.294 36.0627C181.917 36.3868 182.408 36.8689 182.767 37.509C183.126 38.1492 183.306 38.9474 183.306 39.9037C183.306 40.8442 183.126 41.6425 182.767 42.2984C182.408 42.9465 181.917 43.4405 181.294 43.7803C180.68 44.1201 179.981 44.2901 179.199 44.2901ZM179.199 43.2824C179.75 43.2824 180.245 43.1717 180.684 42.9505C181.123 42.7292 181.466 42.3735 181.713 41.8835C181.969 41.3856 182.097 40.7336 182.097 39.9274C182.097 39.1134 181.969 38.4614 181.713 37.9714C181.466 37.4814 181.123 37.1257 180.684 36.9044C180.245 36.6831 179.75 36.5725 179.199 36.5725C178.648 36.5725 178.153 36.6831 177.714 36.9044C177.283 37.1257 176.94 37.4814 176.684 37.9714C176.429 38.4614 176.301 39.1134 176.301 39.9274C176.301 40.7336 176.429 41.3856 176.684 41.8835C176.94 42.3735 177.283 42.7292 177.714 42.9505C178.153 43.1717 178.648 43.2824 179.199 43.2824Z" fill="black" fill-opacity="0.25" style="fill:black;fill-opacity:0.25;"/>
<path d="M167.217 35.6716H170.126C171.068 35.6716 171.783 35.8297 172.27 36.1458C172.765 36.462 173.012 36.9954 173.012 37.7462C173.012 38.3548 172.857 38.8171 172.545 39.1333C172.234 39.4415 171.819 39.6509 171.3 39.7616C171.962 39.8406 172.465 40.0343 172.809 40.3425C173.152 40.6428 173.324 41.1012 173.324 41.7177C173.324 42.3025 173.184 42.7767 172.904 43.1403C172.625 43.5038 172.242 43.7686 171.755 43.9345C171.268 44.0926 170.717 44.1716 170.103 44.1716H167.217V35.6716ZM170.043 39.2992C170.585 39.2992 171.025 39.1807 171.36 38.9436C171.703 38.6986 171.875 38.3192 171.875 37.8055C171.875 37.3708 171.723 37.0784 171.42 36.9283C171.116 36.7702 170.685 36.6912 170.126 36.6912H168.342V39.2992H170.043ZM170.103 43.164C170.709 43.164 171.2 43.0612 171.575 42.8557C171.951 42.6502 172.138 42.2788 172.138 41.7414C172.138 41.2039 171.962 40.8325 171.611 40.627C171.268 40.4136 170.721 40.3069 169.971 40.3069H168.342V43.164H170.103Z" fill="black" fill-opacity="0.25" style="fill:black;fill-opacity:0.25;"/>
<path d="M162.19 44.2901C161.344 44.2901 160.601 44.1162 159.963 43.7684C159.332 43.4207 158.841 42.9228 158.49 42.2747C158.139 41.6187 157.963 40.8363 157.963 39.9274C157.963 38.5602 158.326 37.4932 159.053 36.7266C159.779 35.9521 160.817 35.5648 162.166 35.5648C162.748 35.5648 163.259 35.628 163.698 35.7545C164.145 35.873 164.505 36.0153 164.776 36.1813V37.2482C164.417 37.019 164.002 36.8491 163.531 36.7385C163.068 36.6278 162.609 36.5725 162.154 36.5725C161.148 36.5725 160.402 36.8531 159.915 37.4142C159.428 37.9753 159.184 38.8131 159.184 39.9274C159.184 41.0497 159.448 41.8914 159.975 42.4525C160.501 43.0058 161.272 43.2824 162.285 43.2824C162.725 43.2824 163.152 43.2231 163.567 43.1046C163.99 42.986 164.393 42.7845 164.776 42.5V43.5669C164.545 43.7487 164.205 43.9147 163.758 44.0648C163.319 44.215 162.796 44.2901 162.19 44.2901Z" fill="black" fill-opacity="0.25" style="fill:black;fill-opacity:0.25;"/>
<path d="M147.475 35.6716H152.791V36.6912H148.6V39.2637H152.156V40.2714H148.6V43.164H152.851V44.1716H147.475V35.6716Z" fill="black" fill-opacity="0.25" style="fill:black;fill-opacity:0.25;"/>
<path d="M138.965 36.703V35.6716H145.395V36.703H142.749V44.1716H141.611V36.703H138.965Z" fill="black" fill-opacity="0.25" style="fill:black;fill-opacity:0.25;"/>
<path d="M133.257 35.2092C132.578 35.2092 132.075 35.0432 131.748 34.7113C131.421 34.3715 131.257 33.9605 131.257 33.4784H132.311C132.311 33.8182 132.394 34.0632 132.562 34.2134C132.73 34.3636 132.961 34.4386 133.257 34.4386C133.552 34.4386 133.779 34.3636 133.939 34.2134C134.107 34.0632 134.191 33.8182 134.191 33.4784H135.244C135.244 33.9605 135.081 34.3715 134.753 34.7113C134.434 35.0432 133.935 35.2092 133.257 35.2092ZM131.053 44.1716H129.832V35.6716H130.958V42.6897L135.675 35.6716H136.897V44.1716H135.747V37.189L131.053 44.1716Z" fill="black" fill-opacity="0.25" style="fill:black;fill-opacity:0.25;"/>
<path d="M127.863 44.1716H126.665L125.779 41.7414H121.983L121.109 44.1716H120.056L123.109 35.6716H124.785L127.863 44.1716ZM122.355 40.7337H125.42L123.887 36.5015L122.355 40.7337Z" fill="black" fill-opacity="0.25" style="fill:black;fill-opacity:0.25;"/>
<path d="M112.562 35.6716H115.471C116.413 35.6716 117.128 35.8297 117.615 36.1458C118.109 36.462 118.357 36.9954 118.357 37.7462C118.357 38.3548 118.201 38.8171 117.89 39.1333C117.579 39.4415 117.164 39.6509 116.645 39.7616C117.307 39.8406 117.81 40.0343 118.153 40.3425C118.497 40.6428 118.668 41.1012 118.668 41.7177C118.668 42.3025 118.529 42.7767 118.249 43.1403C117.97 43.5038 117.587 43.7686 117.1 43.9345C116.613 44.0926 116.062 44.1716 115.447 44.1716H112.562V35.6716ZM115.387 39.2992C115.93 39.2992 116.369 39.1807 116.705 38.9436C117.048 38.6986 117.219 38.3192 117.219 37.8055C117.219 37.3708 117.068 37.0784 116.764 36.9283C116.461 36.7702 116.03 36.6912 115.471 36.6912H113.687V39.2992H115.387ZM115.447 43.164C116.054 43.164 116.545 43.0612 116.92 42.8557C117.295 42.6502 117.483 42.2788 117.483 41.7414C117.483 41.2039 117.307 40.8325 116.956 40.627C116.613 40.4136 116.066 40.3069 115.316 40.3069H113.687V43.164H115.447Z" fill="black" fill-opacity="0.25" style="fill:black;fill-opacity:0.25;"/>
<path d="M104.003 44.1716H102.781V35.6716H103.907V42.6898L108.625 35.6716H109.846V44.1716H108.696V37.1891L104.003 44.1716Z" fill="black" fill-opacity="0.25" style="fill:black;fill-opacity:0.25;"/>
<path d="M93.3975 35.6716H94.523V39.4534H98.9294V35.6716H100.067V44.1716H98.9294V40.461H94.523V44.1716H93.3975V35.6716Z" fill="black" fill-opacity="0.25" style="fill:black;fill-opacity:0.25;"/>
<path d="M85.5342 35.6716H90.8506V36.6912H86.6597V39.2637H90.216V40.2714H86.6597V43.164H90.9105V44.1716H85.5342V35.6716Z" fill="black" fill-opacity="0.25" style="fill:black;fill-opacity:0.25;"/>
<path d="M75.7656 44.1716V35.6716H76.8912V43.164H81.0821V35.6716H82.2196V43.164H83.3451V46.187H82.2914L82.1597 44.1716H75.7656Z" fill="black" fill-opacity="0.25" style="fill:black;fill-opacity:0.25;"/>
<path d="M69.4371 44.2901C68.6708 44.2901 67.9763 44.1201 67.3537 43.7803C66.731 43.4405 66.2361 42.9465 65.8689 42.2984C65.5097 41.6425 65.3301 40.8403 65.3301 39.8919C65.3301 38.9435 65.5097 38.1492 65.8689 37.509C66.2361 36.861 66.731 36.3749 67.3537 36.0509C67.9763 35.7268 68.6708 35.5648 69.4371 35.5648C70.2194 35.5648 70.9179 35.7308 71.5326 36.0627C72.1552 36.3868 72.6462 36.8689 73.0054 37.509C73.3646 38.1492 73.5442 38.9474 73.5442 39.9037C73.5442 40.8442 73.3646 41.6425 73.0054 42.2984C72.6462 42.9465 72.1552 43.4405 71.5326 43.7803C70.9179 44.1201 70.2194 44.2901 69.4371 44.2901ZM69.4371 43.2824C69.9879 43.2824 70.4829 43.1717 70.9219 42.9505C71.361 42.7292 71.7042 42.3735 71.9517 41.8835C72.2071 41.3856 72.3348 40.7336 72.3348 39.9274C72.3348 39.1134 72.2071 38.4614 71.9517 37.9714C71.7042 37.4814 71.361 37.1257 70.9219 36.9044C70.4829 36.6831 69.9879 36.5725 69.4371 36.5725C68.8863 36.5725 68.3914 36.6831 67.9524 36.9044C67.5213 37.1257 67.1781 37.4814 66.9226 37.9714C66.6672 38.4614 66.5395 39.1134 66.5395 39.9274C66.5395 40.7336 66.6672 41.3856 66.9226 41.8835C67.1781 42.3735 67.5213 42.7292 67.9524 42.9505C68.3914 43.1717 68.8863 43.2824 69.4371 43.2824Z" fill="black" fill-opacity="0.25" style="fill:black;fill-opacity:0.25;"/>
<path d="M59.5654 44.2426C59.3419 44.2426 59.1543 44.1715 59.0026 44.0292C58.859 43.8791 58.7871 43.7013 58.7871 43.4958C58.7871 43.2745 58.859 43.0927 59.0026 42.9504C59.1543 42.8082 59.3419 42.7371 59.5654 42.7371C59.7889 42.7371 59.9725 42.8082 60.1162 42.9504C60.2599 43.0927 60.3317 43.2745 60.3317 43.4958C60.3317 43.7013 60.2599 43.8791 60.1162 44.0292C59.9725 44.1715 59.7889 44.2426 59.5654 44.2426Z" fill="black" fill-opacity="0.25" style="fill:black;fill-opacity:0.25;"/>
<path d="M51.2598 35.6716H56.5762V36.6912H52.3853V39.2637H55.9416V40.2714H52.3853V43.164H56.6361V44.1716H51.2598V35.6716Z" fill="black" fill-opacity="0.25" style="fill:black;fill-opacity:0.25;"/>
<path d="M41.6357 43.0928C42.0269 43.1323 42.3143 43.0098 42.4979 42.7253C42.6894 42.4408 42.8331 42.0654 42.9289 41.5991C43.0487 41.0064 43.1285 40.216 43.1684 39.2281C43.2083 38.2402 43.2363 37.0547 43.2522 35.6716H48.5447V44.1716H47.4072V36.6912H44.3179C44.294 37.8371 44.262 38.8369 44.2221 39.6905C44.1822 40.5361 44.1064 41.2514 43.9946 41.8362C43.8988 42.2788 43.7631 42.6858 43.5875 43.0573C43.4119 43.4287 43.1684 43.7211 42.8571 43.9345C42.5458 44.1479 42.1386 44.2428 41.6357 44.2191V43.0928Z" fill="black" fill-opacity="0.25" style="fill:black;fill-opacity:0.25;"/>
<path d="M34.5273 35.6716H39.8438V36.6912H35.6529V39.2637H39.2092V40.2714H35.6529V43.164H39.9036V44.1716H34.5273V35.6716Z" fill="black" fill-opacity="0.25" style="fill:black;fill-opacity:0.25;"/>
<path d="M24.8684 46.187H23.8506V43.164H24.4373C24.8045 42.832 25.0759 42.3499 25.2515 41.7177C25.4272 41.0854 25.5469 40.2753 25.6108 39.2874C25.6746 38.2916 25.7225 37.0863 25.7544 35.6716H31.2265V43.164H32.3281V46.187H31.2864L31.1667 44.1716H25.0001L24.8684 46.187ZM25.7425 43.164H30.089V36.6912H26.8082C26.7842 37.8925 26.7323 38.912 26.6525 39.7497C26.5806 40.5875 26.4689 41.283 26.3172 41.8362C26.1735 42.3815 25.9819 42.8241 25.7425 43.164Z" fill="black" fill-opacity="0.25" style="fill:black;fill-opacity:0.25;"/>
<path d="M19.066 44.2901C18.4273 44.2901 17.8725 44.211 17.4016 44.053C16.9386 43.8949 16.5993 43.7289 16.3838 43.5551V42.4881C17.1262 43.0176 18.0083 43.2824 19.03 43.2824C19.4292 43.2824 19.7924 43.235 20.1197 43.1401C20.4469 43.0453 20.7104 42.8872 20.9099 42.6659C21.1095 42.4367 21.2093 42.1285 21.2093 41.7413C21.2093 41.2038 21.0337 40.8284 20.6824 40.615C20.3392 40.3937 19.8243 40.2831 19.1378 40.2831H17.9045V39.3347H19.1138C19.7125 39.3347 20.1676 39.2082 20.4789 38.9553C20.7902 38.6945 20.9459 38.3389 20.9459 37.8884C20.9459 37.3984 20.7822 37.0546 20.4549 36.857C20.1276 36.6594 19.6966 36.5606 19.1617 36.5606C18.6189 36.5606 18.124 36.6199 17.677 36.7385C17.2379 36.857 16.8508 37.0032 16.5155 37.1771V36.122C16.7789 35.9876 17.1222 35.8612 17.5453 35.7426C17.9763 35.6241 18.5191 35.5648 19.1737 35.5648C20.0678 35.5648 20.7782 35.7466 21.3051 36.1101C21.8319 36.4737 22.0954 37.0427 22.0954 37.8173C22.0954 38.3152 21.9437 38.7301 21.6404 39.062C21.345 39.3861 20.9099 39.6113 20.3352 39.7378C21.0057 39.8247 21.5166 40.0302 21.8679 40.3542C22.2191 40.6783 22.3947 41.1327 22.3947 41.7175C22.3947 42.3182 22.243 42.8082 21.9397 43.1876C21.6443 43.5669 21.2452 43.8475 20.7423 44.0293C20.2394 44.2031 19.6806 44.2901 19.066 44.2901Z" fill="black" fill-opacity="0.25" style="fill:black;fill-opacity:0.25;"/>
<path d="M14.8568 44.1716H13.6594L12.7734 41.7414H8.97761L8.10351 44.1716H7.0498L10.1032 35.6716H11.7795L14.8568 44.1716ZM9.3488 40.7337H12.4141L10.8815 36.5015L9.3488 40.7337Z" fill="black" fill-opacity="0.25" style="fill:black;fill-opacity:0.25;"/>
<path d="M0.50293 35.6716H3.24496C4.21884 35.6716 4.9732 35.8732 5.50804 36.2762C6.05086 36.6714 6.32227 37.2918 6.32227 38.1375C6.32227 38.7776 6.18656 39.2992 5.91515 39.7023C5.65173 40.1054 5.28053 40.4018 4.80158 40.5914C4.3306 40.7732 3.7798 40.8641 3.14917 40.8641H1.62848V44.1716H0.50293V35.6716ZM3.14917 39.8564C3.75585 39.8564 4.24678 39.726 4.62197 39.4652C4.99715 39.2044 5.18474 38.7658 5.18474 38.1493C5.18474 37.6356 5.01711 37.2641 4.68184 37.035C4.34657 36.8058 3.86761 36.6912 3.24496 36.6912H1.62848V39.8564H3.14917Z" fill="black" fill-opacity="0.25" style="fill:black;fill-opacity:0.25;"/>
<path d="M193.666 31.0245H193.175H193.163L193.175 31.0126L190.576 25.3815V32.3167H189.511V23.8167H191.079L193.75 29.7797L196.539 23.8167H198V32.3167H196.863V25.4763L194.228 31.0126L193.666 31.0245Z" fill="black" fill-opacity="0.25" style="fill:black;fill-opacity:0.25;"/>
<path d="M178.402 23.8167H183.719V24.8362H179.528V27.4087H183.084V28.4164H179.528V31.309H183.779V32.3167H178.402V23.8167Z" fill="black" fill-opacity="0.25" style="fill:black;fill-opacity:0.25;"/>
<path d="M162.489 32.3167V23.8167H163.615V31.309H166.584V23.8167H167.746V31.309H170.727V23.8167H171.865V31.309H172.943V34.332H171.913L171.781 32.3167H162.489Z" fill="black" fill-opacity="0.25" style="fill:black;fill-opacity:0.25;"/>
<path d="M153.165 32.4352C152.479 32.4352 151.856 32.2929 151.297 32.0084C150.738 31.716 150.283 31.2853 149.932 30.7162C149.581 30.1472 149.373 29.4438 149.31 28.6061H148.052V32.3167H146.927V23.8167H148.052V27.5984H149.322C149.377 26.7606 149.581 26.0533 149.932 25.4763C150.283 24.8994 150.738 24.4608 151.297 24.1604C151.856 23.8601 152.479 23.71 153.165 23.71C153.892 23.71 154.546 23.872 155.129 24.196C155.712 24.52 156.175 25.0061 156.518 25.6542C156.861 26.2943 157.033 27.0886 157.033 28.037C157.033 28.9854 156.861 29.7876 156.518 30.4436C156.175 31.0916 155.712 31.5856 155.129 31.9254C154.546 32.2653 153.892 32.4352 153.165 32.4352ZM153.165 31.4275C153.676 31.4275 154.131 31.3169 154.53 31.0956C154.929 30.8743 155.245 30.5187 155.476 30.0286C155.708 29.5307 155.823 28.8787 155.823 28.0726C155.823 27.2585 155.708 26.6065 155.476 26.1165C155.245 25.6265 154.929 25.2709 154.53 25.0496C154.131 24.8283 153.676 24.7176 153.165 24.7176C152.662 24.7176 152.211 24.8283 151.812 25.0496C151.413 25.2709 151.098 25.6265 150.866 26.1165C150.635 26.6065 150.519 27.2585 150.519 28.0726C150.519 28.8787 150.635 29.5307 150.866 30.0286C151.098 30.5187 151.413 30.8743 151.812 31.0956C152.211 31.3169 152.662 31.4275 153.165 31.4275Z" fill="black" fill-opacity="0.25" style="fill:black;fill-opacity:0.25;"/>
<path d="M136.056 31.2023C136.551 31.2497 136.938 31.1786 137.217 30.9889C137.497 30.7913 137.728 30.5345 137.912 30.2183L134.727 23.8167H136.008L138.486 28.938L140.63 23.8167H141.791L139.073 30.0168C138.85 30.5384 138.606 30.977 138.343 31.3327C138.079 31.6883 137.764 31.9491 137.397 32.1151C137.038 32.2811 136.591 32.3483 136.056 32.3167V31.2023Z" fill="black" fill-opacity="0.25" style="fill:black;fill-opacity:0.25;"/>
<path d="M123.811 23.8167H126.72C127.662 23.8167 128.377 23.9747 128.864 24.2908C129.358 24.607 129.606 25.1405 129.606 25.8913C129.606 26.4998 129.45 26.9622 129.139 27.2783C128.828 27.5865 128.413 27.796 127.894 27.9066C128.556 27.9856 129.059 28.1793 129.402 28.4875C129.746 28.7878 129.917 29.2462 129.917 29.8627C129.917 30.4475 129.778 30.9217 129.498 31.2853C129.219 31.6488 128.836 31.9136 128.349 32.0795C127.862 32.2376 127.311 32.3167 126.696 32.3167H123.811V23.8167ZM126.636 27.4443C127.179 27.4443 127.618 27.3257 127.954 27.0886C128.297 26.8436 128.468 26.4643 128.468 25.9505C128.468 25.5159 128.317 25.2234 128.013 25.0733C127.71 24.9152 127.279 24.8362 126.72 24.8362H124.936V27.4443H126.636ZM126.696 31.309C127.303 31.309 127.794 31.2062 128.169 31.0008C128.544 30.7953 128.732 30.4238 128.732 29.8864C128.732 29.349 128.556 28.9775 128.205 28.772C127.862 28.5586 127.315 28.4519 126.565 28.4519H124.936V31.309H126.696Z" fill="black" fill-opacity="0.25" style="fill:black;fill-opacity:0.25;"/>
<path d="M112.067 24.848V23.8167H118.497V24.848H115.851V32.3167H114.714V24.848H112.067Z" fill="black" fill-opacity="0.25" style="fill:black;fill-opacity:0.25;"/>
<path d="M104.453 32.4352C103.607 32.4352 102.865 32.2613 102.226 31.9136C101.596 31.5658 101.105 31.0679 100.753 30.4199C100.402 29.7639 100.227 28.9815 100.227 28.0726C100.227 26.7053 100.59 25.6384 101.316 24.8717C102.043 24.0972 103.08 23.71 104.429 23.71C105.012 23.71 105.523 23.7732 105.962 23.8996C106.409 24.0182 106.768 24.1604 107.04 24.3264V25.3934C106.681 25.1642 106.265 24.9942 105.794 24.8836C105.331 24.773 104.872 24.7176 104.417 24.7176C103.412 24.7176 102.665 24.9982 102.178 25.5593C101.691 26.1205 101.448 26.9582 101.448 28.0726C101.448 29.1949 101.711 30.0366 102.238 30.5977C102.765 31.1509 103.535 31.4275 104.549 31.4275C104.988 31.4275 105.415 31.3683 105.83 31.2497C106.253 31.1312 106.657 30.9296 107.04 30.6451V31.7121C106.808 31.8938 106.469 32.0598 106.022 32.21C105.583 32.3601 105.06 32.4352 104.453 32.4352Z" fill="black" fill-opacity="0.25" style="fill:black;fill-opacity:0.25;"/>
<path d="M89.4082 24.848V23.8167H95.8382V24.848H93.192V32.3167H92.0544V24.848H89.4082Z" fill="black" fill-opacity="0.25" style="fill:black;fill-opacity:0.25;"/>
<path d="M79.0049 23.8167H84.3213V24.8362H80.1304V27.4087H83.6867V28.4164H80.1304V31.309H84.3812V32.3167H79.0049V23.8167Z" fill="black" fill-opacity="0.25" style="fill:black;fill-opacity:0.25;"/>
<path d="M67.3359 23.8167H70.2456C71.1876 23.8167 71.902 23.9747 72.3889 24.2908C72.8839 24.607 73.1313 25.1405 73.1313 25.8913C73.1313 26.4998 72.9757 26.9622 72.6643 27.2783C72.353 27.5865 71.9379 27.796 71.419 27.9066C72.0816 27.9856 72.5845 28.1793 72.9278 28.4875C73.271 28.7878 73.4426 29.2462 73.4426 29.8627C73.4426 30.4475 73.303 30.9217 73.0236 31.2853C72.7442 31.6488 72.361 31.9136 71.8741 32.0795C71.3871 32.2376 70.8363 32.3167 70.2217 32.3167H67.3359V23.8167ZM70.1618 27.4443C70.7046 27.4443 71.1437 27.3257 71.4789 27.0886C71.8222 26.8436 71.9938 26.4643 71.9938 25.9505C71.9938 25.5159 71.8421 25.2234 71.5388 25.0733C71.2354 24.9152 70.8044 24.8362 70.2456 24.8362H68.4615V27.4443H70.1618ZM70.2217 31.309C70.8283 31.309 71.3193 31.2062 71.6944 31.0008C72.0696 30.7953 72.2572 30.4238 72.2572 29.8864C72.2572 29.349 72.0816 28.9775 71.7304 28.772C71.3871 28.5586 70.8403 28.4519 70.0899 28.4519H68.4615V31.309H70.2217Z" fill="black" fill-opacity="0.25" style="fill:black;fill-opacity:0.25;"/>
<path d="M55.5938 24.848V23.8167H62.0238V24.848H59.3775V32.3167H58.24V24.848H55.5938Z" fill="black" fill-opacity="0.25" style="fill:black;fill-opacity:0.25;"/>
<path d="M47.0992 32.4352C46.3329 32.4352 45.6384 32.2653 45.0158 31.9254C44.3931 31.5856 43.8982 31.0916 43.531 30.4436C43.1718 29.7876 42.9922 28.9854 42.9922 28.037C42.9922 27.0886 43.1718 26.2943 43.531 25.6542C43.8982 25.0061 44.3931 24.52 45.0158 24.196C45.6384 23.872 46.3329 23.71 47.0992 23.71C47.8815 23.71 48.58 23.8759 49.1947 24.2079C49.8173 24.5319 50.3083 25.014 50.6675 25.6542C51.0267 26.2943 51.2063 27.0926 51.2063 28.0489C51.2063 28.9894 51.0267 29.7876 50.6675 30.4436C50.3083 31.0916 49.8173 31.5856 49.1947 31.9254C48.58 32.2653 47.8815 32.4352 47.0992 32.4352ZM47.0992 31.4275C47.65 31.4275 48.145 31.3169 48.584 31.0956C49.0231 30.8743 49.3663 30.5187 49.6138 30.0286C49.8692 29.5307 49.9969 28.8787 49.9969 28.0726C49.9969 27.2585 49.8692 26.6065 49.6138 26.1165C49.3663 25.6265 49.0231 25.2709 48.584 25.0496C48.145 24.8283 47.65 24.7176 47.0992 24.7176C46.5484 24.7176 46.0535 24.8283 45.6145 25.0496C45.1834 25.2709 44.8402 25.6265 44.5847 26.1165C44.3293 26.6065 44.2016 27.2585 44.2016 28.0726C44.2016 28.8787 44.3293 29.5307 44.5847 30.0286C44.8402 30.5187 45.1834 30.8743 45.6145 31.0956C46.0535 31.3169 46.5484 31.4275 47.0992 31.4275Z" fill="black" fill-opacity="0.25" style="fill:black;fill-opacity:0.25;"/>
<path d="M33.9342 32.4352C33.1679 32.4352 32.4734 32.2653 31.8507 31.9254C31.2281 31.5856 30.7332 31.0916 30.366 30.4436C30.0068 29.7876 29.8271 28.9854 29.8271 28.037C29.8271 27.0886 30.0068 26.2943 30.366 25.6542C30.7332 25.0061 31.2281 24.52 31.8507 24.196C32.4734 23.872 33.1679 23.71 33.9342 23.71C34.7165 23.71 35.415 23.8759 36.0297 24.2079C36.6523 24.5319 37.1432 25.014 37.5024 25.6542C37.8617 26.2943 38.0413 27.0926 38.0413 28.0489C38.0413 28.9894 37.8617 29.7876 37.5024 30.4436C37.1432 31.0916 36.6523 31.5856 36.0297 31.9254C35.415 32.2653 34.7165 32.4352 33.9342 32.4352ZM33.9342 31.4275C34.485 31.4275 34.9799 31.3169 35.419 31.0956C35.858 30.8743 36.2013 30.5187 36.4487 30.0286C36.7042 29.5307 36.8319 28.8787 36.8319 28.0726C36.8319 27.2585 36.7042 26.6065 36.4487 26.1165C36.2013 25.6265 35.858 25.2709 35.419 25.0496C34.9799 24.8283 34.485 24.7176 33.9342 24.7176C33.3834 24.7176 32.8885 24.8283 32.4494 25.0496C32.0184 25.2709 31.6751 25.6265 31.4197 26.1165C31.1642 26.6065 31.0365 27.2585 31.0365 28.0726C31.0365 28.8787 31.1642 29.5307 31.4197 30.0286C31.6751 30.5187 32.0184 30.8743 32.4494 31.0956C32.8885 31.3169 33.3834 31.4275 33.9342 31.4275Z" fill="black" fill-opacity="0.25" style="fill:black;fill-opacity:0.25;"/>
<path d="M22.2444 32.4352C21.3982 32.4352 20.6558 32.2613 20.0172 31.9136C19.3866 31.5658 18.8957 31.0679 18.5444 30.4199C18.1932 29.7639 18.0176 28.9815 18.0176 28.0726C18.0176 26.7053 18.3808 25.6384 19.1072 24.8717C19.8336 24.0972 20.8714 23.71 22.2204 23.71C22.8032 23.71 23.3141 23.7732 23.7531 23.8996C24.2001 24.0182 24.5593 24.1604 24.8308 24.3264V25.3934C24.4715 25.1642 24.0564 24.9942 23.5855 24.8836C23.1225 24.773 22.6635 24.7176 22.2085 24.7176C21.2026 24.7176 20.4563 24.9982 19.9693 25.5593C19.4824 26.1205 19.2389 26.9582 19.2389 28.0726C19.2389 29.1949 19.5023 30.0366 20.0292 30.5977C20.5561 31.1509 21.3264 31.4275 22.3402 31.4275C22.7792 31.4275 23.2063 31.3683 23.6214 31.2497C24.0445 31.1312 24.4476 30.9296 24.8308 30.6451V31.7121C24.5993 31.8938 24.26 32.0598 23.813 32.21C23.3739 32.3601 22.8511 32.4352 22.2444 32.4352Z" fill="black" fill-opacity="0.25" style="fill:black;fill-opacity:0.25;"/>
<path d="M0.50293 23.8167H3.4126C4.35455 23.8167 5.06899 23.9747 5.55593 24.2908C6.05086 24.607 6.29832 25.1405 6.29832 25.8913C6.29832 26.4998 6.14266 26.9622 5.83133 27.2783C5.52001 27.5865 5.10492 27.796 4.58604 27.9066C5.2486 27.9856 5.75151 28.1793 6.09476 28.4875C6.43802 28.7878 6.60964 29.2462 6.60964 29.8627C6.60964 30.4475 6.46995 30.9217 6.19055 31.2853C5.91116 31.6488 5.528 31.9136 5.04105 32.0795C4.55411 32.2376 4.00331 32.3167 3.38865 32.3167H0.50293V23.8167ZM3.32878 27.4443C3.8716 27.4443 4.31064 27.3257 4.64591 27.0886C4.98917 26.8436 5.16079 26.4643 5.16079 25.9505C5.16079 25.5159 5.00912 25.2234 4.70578 25.0733C4.40244 24.9152 3.97138 24.8362 3.4126 24.8362H1.62848V27.4443H3.32878ZM3.38865 31.309C3.99533 31.309 4.48626 31.2062 4.86145 31.0008C5.23663 30.7953 5.42422 30.4238 5.42422 29.8864C5.42422 29.349 5.2486 28.9775 4.89737 28.772C4.55411 28.5586 4.0073 28.4519 3.25694 28.4519H1.62848V31.309H3.38865Z" fill="black" fill-opacity="0.25" style="fill:black;fill-opacity:0.25;"/>
<path d="M191.188 11.9617H196.505V12.9812H192.314V15.5537H195.87V16.5614H192.314V19.454H196.565V20.4617H191.188V11.9617Z" fill="black" fill-opacity="0.25" style="fill:black;fill-opacity:0.25;"/>
<path d="M182.199 12.9931V11.9617H188.629V12.9931H185.983V20.4617H184.845V12.9931H182.199Z" fill="black" fill-opacity="0.25" style="fill:black;fill-opacity:0.25;"/>
<path d="M176.01 11.4994C175.332 11.4994 174.829 11.3334 174.502 11.0015C174.174 10.6616 174.011 10.2507 174.011 9.76855H175.065C175.065 10.1084 175.148 10.3534 175.316 10.5036C175.484 10.6537 175.715 10.7288 176.01 10.7288C176.306 10.7288 176.533 10.6537 176.693 10.5036C176.861 10.3534 176.944 10.1084 176.944 9.76855H177.998C177.998 10.2507 177.835 10.6616 177.507 11.0015C177.188 11.3334 176.689 11.4994 176.01 11.4994ZM173.807 20.4617H172.586V11.9617H173.711V18.9799L178.429 11.9617H179.651V20.4617H178.501V13.4792L173.807 20.4617Z" fill="black" fill-opacity="0.25" style="fill:black;fill-opacity:0.25;"/>
<path d="M170.139 20.4617H168.942L168.056 18.0314H164.26L163.386 20.4617H162.332L165.385 11.9617H167.062L170.139 20.4617ZM164.631 17.0237H167.696L166.164 12.7915L164.631 17.0237Z" fill="black" fill-opacity="0.25" style="fill:black;fill-opacity:0.25;"/>
<path d="M157.708 20.5802C156.862 20.5802 156.12 20.4064 155.481 20.0586C154.85 19.7109 154.36 19.213 154.008 18.5649C153.657 17.9089 153.481 17.1265 153.481 16.2176C153.481 14.8503 153.845 13.7834 154.571 13.0168C155.297 12.2422 156.335 11.855 157.684 11.855C158.267 11.855 158.778 11.9182 159.217 12.0447C159.664 12.1632 160.023 12.3055 160.295 12.4714V13.5384C159.935 13.3092 159.52 13.1393 159.049 13.0286C158.586 12.918 158.127 12.8627 157.672 12.8627C156.667 12.8627 155.92 13.1432 155.433 13.7044C154.946 14.2655 154.703 15.1032 154.703 16.2176C154.703 17.3399 154.966 18.1816 155.493 18.7427C156.02 19.2959 156.79 19.5726 157.804 19.5726C158.243 19.5726 158.67 19.5133 159.085 19.3947C159.508 19.2762 159.911 19.0746 160.295 18.7901V19.8571C160.063 20.0388 159.724 20.2048 159.277 20.355C158.838 20.5051 158.315 20.5802 157.708 20.5802Z" fill="black" fill-opacity="0.25" style="fill:black;fill-opacity:0.25;"/>
<path d="M147.943 20.4617H146.745L145.859 18.0314H142.064L141.189 20.4617H140.136L143.189 11.9617H144.865L147.943 20.4617ZM142.435 17.0237H145.5L143.967 12.7915L142.435 17.0237Z" fill="black" fill-opacity="0.25" style="fill:black;fill-opacity:0.25;"/>
<path d="M131.04 11.9617H132.166V15.7434H136.572V11.9617H137.71V20.4617H136.572V16.7511H132.166V20.4617H131.04V11.9617Z" fill="black" fill-opacity="0.25" style="fill:black;fill-opacity:0.25;"/>
<path d="M121.416 22.1094C122.063 21.3982 122.534 20.5841 122.829 19.6673C123.132 18.7505 123.284 17.7903 123.284 16.7866C123.284 16.1148 123.216 15.4549 123.08 14.8068C122.953 14.1508 122.749 13.5383 122.47 12.9693C122.198 12.4002 121.847 11.9102 121.416 11.4993H122.458C122.865 11.926 123.204 12.4279 123.476 13.0048C123.755 13.5739 123.962 14.1864 124.098 14.8424C124.234 15.4904 124.302 16.1504 124.302 16.8221C124.302 17.8259 124.146 18.7822 123.835 19.691C123.531 20.5999 123.072 21.4061 122.458 22.1094H121.416Z" fill="black" fill-opacity="0.25" style="fill:black;fill-opacity:0.25;"/>
<path d="M119.579 20.4617H118.382L117.496 18.0314H113.7L112.826 20.4617H111.772L114.826 11.9617H116.502L119.579 20.4617ZM114.071 17.0237H117.137L115.604 12.7915L114.071 17.0237Z" fill="black" fill-opacity="0.25" style="fill:black;fill-opacity:0.25;"/>
<path d="M105.007 19.1695H104.517H104.505L104.517 19.1576L101.918 13.5265V20.4617H100.853V11.9617H102.421L105.091 17.9247L107.881 11.9617H109.342V20.4617H108.205V13.6214L105.57 19.1576L105.007 19.1695Z" fill="black" fill-opacity="0.25" style="fill:black;fill-opacity:0.25;"/>
<path d="M94.0173 11.4994C93.3388 11.4994 92.8359 11.3334 92.5086 11.0015C92.1813 10.6616 92.0177 10.2507 92.0177 9.76855H93.0714C93.0714 10.1084 93.1552 10.3534 93.3228 10.5036C93.4905 10.6537 93.722 10.7288 94.0173 10.7288C94.3127 10.7288 94.5402 10.6537 94.6998 10.5036C94.8675 10.3534 94.9513 10.1084 94.9513 9.76855H96.005C96.005 10.2507 95.8414 10.6616 95.5141 11.0015C95.1948 11.3334 94.6958 11.4994 94.0173 11.4994ZM91.8141 20.4617H90.5928V11.9617H91.7183V18.9799L96.4361 11.9617H97.6574V20.4617H96.5079V13.4792L91.8141 20.4617Z" fill="black" fill-opacity="0.25" style="fill:black;fill-opacity:0.25;"/>
<path d="M88.1459 20.4617H86.9485L86.0624 18.0314H82.2667L81.3926 20.4617H80.3389L83.3922 11.9617H85.0686L88.1459 20.4617ZM82.6379 17.0237H85.7032L84.1705 12.7915L82.6379 17.0237Z" fill="black" fill-opacity="0.25" style="fill:black;fill-opacity:0.25;"/>
<path d="M75.1324 20.5802C74.4937 20.5802 73.939 20.5012 73.468 20.3431C73.005 20.1851 72.6657 20.0191 72.4502 19.8452V18.7783C73.1926 19.3078 74.0747 19.5726 75.0964 19.5726C75.4956 19.5726 75.8588 19.5251 76.1861 19.4303C76.5134 19.3355 76.7768 19.1774 76.9763 18.9561C77.1759 18.7269 77.2757 18.4187 77.2757 18.0314C77.2757 17.494 77.1001 17.1186 76.7488 16.9052C76.4056 16.6839 75.8907 16.5733 75.2042 16.5733H73.9709V15.6249H75.1803C75.779 15.6249 76.234 15.4984 76.5453 15.2455C76.8566 14.9847 77.0123 14.629 77.0123 14.1786C77.0123 13.6885 76.8486 13.3448 76.5213 13.1472C76.1941 12.9496 75.763 12.8508 75.2281 12.8508C74.6853 12.8508 74.1904 12.9101 73.7434 13.0286C73.3043 13.1472 72.9172 13.2934 72.5819 13.4673V12.4122C72.8453 12.2778 73.1886 12.1514 73.6117 12.0328C74.0427 11.9143 74.5855 11.855 75.2401 11.855C76.1342 11.855 76.8446 12.0368 77.3715 12.4003C77.8983 12.7639 78.1618 13.3329 78.1618 14.1074C78.1618 14.6053 78.0101 15.0203 77.7068 15.3522C77.4114 15.6762 76.9763 15.9015 76.4016 16.0279C77.0721 16.1149 77.583 16.3203 77.9343 16.6444C78.2855 16.9684 78.4611 17.4229 78.4611 18.0077C78.4611 18.6083 78.3094 19.0984 78.0061 19.4777C77.7107 19.8571 77.3116 20.1376 76.8087 20.3194C76.3058 20.4933 75.747 20.5802 75.1324 20.5802Z" fill="black" fill-opacity="0.25" style="fill:black;fill-opacity:0.25;"/>
<path d="M70.2402 22.1094H69.1985C68.5838 21.4061 68.1208 20.5999 67.8095 19.691C67.5062 18.7822 67.3545 17.8259 67.3545 16.8221C67.3545 16.1504 67.4223 15.4904 67.5581 14.8424C67.6938 14.1864 67.8973 13.5739 68.1687 13.0048C68.4481 12.4279 68.7914 11.926 69.1985 11.4993H70.2402C69.8091 11.9102 69.4539 12.4002 69.1745 12.9693C68.9031 13.5383 68.6996 14.1508 68.5639 14.8068C68.4361 15.4549 68.3723 16.1148 68.3723 16.7866C68.3723 17.7903 68.52 18.7505 68.8153 19.6673C69.1187 20.5841 69.5936 21.3982 70.2402 22.1094Z" fill="black" fill-opacity="0.25" style="fill:black;fill-opacity:0.25;"/>
<path d="M61.3617 20.4617H60.1643L59.2782 18.0314H55.4825L54.6084 20.4617H53.5547L56.608 11.9617H58.2844L61.3617 20.4617ZM55.8537 17.0237H58.919L57.3863 12.7915L55.8537 17.0237Z" fill="black" fill-opacity="0.25" style="fill:black;fill-opacity:0.25;"/>
<path d="M46.1738 12.9931V11.9617H52.6038V12.9931H49.9576V20.4617H48.8201V12.9931H46.1738Z" fill="black" fill-opacity="0.25" style="fill:black;fill-opacity:0.25;"/>
<path d="M37.7819 20.4617H36.5605V11.9617H37.6861V18.9798L42.4038 11.9617H43.6252V20.4617H42.4757V13.4791L37.7819 20.4617Z" fill="black" fill-opacity="0.25" style="fill:black;fill-opacity:0.25;"/>
<path d="M26.4221 22.477H25.4043V19.454H25.991C26.3582 19.1221 26.6296 18.64 26.8052 18.0077C26.9809 17.3754 27.1006 16.5653 27.1645 15.5774C27.2283 14.5816 27.2762 13.3764 27.3082 11.9617H32.7802V19.454H33.8818V22.477H32.8401L32.7204 20.4617H26.5538L26.4221 22.477ZM27.2962 19.454H31.6427V12.9812H28.3619C28.3379 14.1825 28.286 15.202 28.2062 16.0398C28.1344 16.8775 28.0226 17.573 27.8709 18.1262C27.7272 18.6716 27.5357 19.1142 27.2962 19.454Z" fill="black" fill-opacity="0.25" style="fill:black;fill-opacity:0.25;"/>
<path d="M17.877 11.9617H23.1934V12.9812H19.0025V15.5537H22.5588V16.5614H19.0025V19.454H23.2533V20.4617H17.877V11.9617Z" fill="black" fill-opacity="0.25" style="fill:black;fill-opacity:0.25;"/>
<path d="M9.37109 11.9617H12.1131C13.087 11.9617 13.8414 12.1632 14.3762 12.5663C14.919 12.9614 15.1904 13.5818 15.1904 14.4275C15.1904 15.0677 15.0547 15.5893 14.7833 15.9924C14.5199 16.3954 14.1487 16.6918 13.6697 16.8815C13.1988 17.0633 12.648 17.1541 12.0173 17.1541H10.4966V20.4617H9.37109V11.9617ZM12.0173 16.1465C12.624 16.1465 13.1149 16.0161 13.4901 15.7553C13.8653 15.4944 14.0529 15.0558 14.0529 14.4394C14.0529 13.9256 13.8853 13.5542 13.55 13.325C13.2147 13.0958 12.7358 12.9812 12.1131 12.9812H10.4966V16.1465H12.0173Z" fill="black" fill-opacity="0.25" style="fill:black;fill-opacity:0.25;"/>
<path d="M6.93294 20.4617H5.53199L2.5385 16.8222H1.62848V20.4617H0.50293V11.9617H1.62848V15.8145H2.46666L5.53199 11.9617H6.80122L3.4126 16.2057L6.93294 20.4617Z" fill="black" fill-opacity="0.25" style="fill:black;fill-opacity:0.25;"/>
<path d="M196.789 0.106689V8.60669H195.651V5.20432H194.095L191.724 8.60669H190.347L192.945 5.00278C192.314 4.86843 191.831 4.60762 191.496 4.22036C191.161 3.8331 190.993 3.30753 190.993 2.64365C190.993 2.043 191.125 1.55694 191.388 1.18549C191.652 0.814034 192.019 0.541371 192.49 0.367498C192.961 0.193626 193.504 0.106689 194.118 0.106689H196.789ZM193.999 4.19665H195.651V1.12621H194.118C193.552 1.12621 193.085 1.24081 192.718 1.47001C192.358 1.6913 192.179 2.08251 192.179 2.64365C192.179 3.17317 192.334 3.56438 192.646 3.81729C192.965 4.07019 193.416 4.19665 193.999 4.19665Z" fill="black" fill-opacity="0.25" style="fill:black;fill-opacity:0.25;"/>
<path d="M179.979 8.60669H178.758V0.106689H179.883V7.12482L184.601 0.106689H185.822V8.60669H184.673V1.62412L179.979 8.60669Z" fill="black" fill-opacity="0.25" style="fill:black;fill-opacity:0.25;"/>
<path d="M167.807 0.106689H170.716C171.658 0.106689 172.373 0.264755 172.86 0.580887C173.355 0.897019 173.602 1.43049 173.602 2.18131C173.602 2.78986 173.446 3.2522 173.135 3.56833C172.824 3.87656 172.409 4.086 171.89 4.19665C172.552 4.27568 173.055 4.46931 173.398 4.77754C173.742 5.07787 173.913 5.53626 173.913 6.15271C173.913 6.73756 173.774 7.21176 173.494 7.57531C173.215 7.93886 172.832 8.20362 172.345 8.36959C171.858 8.52766 171.307 8.60669 170.692 8.60669H167.807V0.106689ZM170.632 3.7343C171.175 3.7343 171.614 3.61575 171.95 3.37866C172.293 3.13365 172.465 2.7543 172.465 2.24058C172.465 1.8059 172.313 1.51348 172.01 1.36331C171.706 1.20525 171.275 1.12621 170.716 1.12621H168.932V3.7343H170.632ZM170.692 7.59902C171.299 7.59902 171.79 7.49628 172.165 7.29079C172.54 7.0853 172.728 6.71385 172.728 6.17642C172.728 5.639 172.552 5.26754 172.201 5.06206C171.858 4.84867 171.311 4.74198 170.561 4.74198H168.932V7.59902H170.692Z" fill="black" fill-opacity="0.25" style="fill:black;fill-opacity:0.25;"/>
<path d="M158.964 8.72524C158.197 8.72524 157.503 8.55532 156.88 8.21548C156.257 7.87564 155.762 7.38168 155.395 6.73361C155.036 6.07764 154.856 5.27545 154.856 4.32706C154.856 3.37866 155.036 2.58438 155.395 1.94421C155.762 1.29614 156.257 0.810088 156.88 0.486052C157.503 0.162017 158.197 0 158.964 0C159.746 0 160.444 0.165969 161.059 0.497908C161.682 0.821943 162.173 1.30404 162.532 1.94421C162.891 2.58438 163.071 3.38261 163.071 4.33891C163.071 5.27941 162.891 6.07764 162.532 6.73361C162.173 7.38168 161.682 7.87564 161.059 8.21548C160.444 8.55532 159.746 8.72524 158.964 8.72524ZM158.964 7.71757C159.514 7.71757 160.009 7.60693 160.448 7.38563C160.887 7.16434 161.231 6.80869 161.478 6.31869C161.733 5.82078 161.861 5.16876 161.861 4.36262C161.861 3.54858 161.733 2.89656 161.478 2.40656C161.231 1.91655 160.887 1.5609 160.448 1.33961C160.009 1.11832 159.514 1.00767 158.964 1.00767C158.413 1.00767 157.918 1.11832 157.479 1.33961C157.048 1.5609 156.704 1.91655 156.449 2.40656C156.194 2.89656 156.066 3.54858 156.066 4.36262C156.066 5.16876 156.194 5.82078 156.449 6.31869C156.704 6.80869 157.048 7.16434 157.479 7.38563C157.918 7.60693 158.413 7.71757 158.964 7.71757Z" fill="black" fill-opacity="0.25" style="fill:black;fill-opacity:0.25;"/>
<path d="M143.222 7.52789C143.613 7.56741 143.9 7.4449 144.084 7.16039C144.275 6.87587 144.419 6.50046 144.515 6.03417C144.635 5.44142 144.714 4.65109 144.754 3.66317C144.794 2.67526 144.822 1.48977 144.838 0.106689H150.131V8.60669H148.993V1.12621H145.904C145.88 2.27219 145.848 3.27196 145.808 4.12552C145.768 4.97117 145.692 5.68642 145.581 6.27126C145.485 6.71385 145.349 7.12087 145.173 7.49232C144.998 7.86378 144.754 8.1562 144.443 8.36959C144.132 8.58298 143.725 8.67782 143.222 8.65411V7.52789Z" fill="black" fill-opacity="0.25" style="fill:black;fill-opacity:0.25;"/>
<path d="M136.446 8.72524C135.599 8.72524 134.857 8.55137 134.218 8.20363C133.588 7.85588 133.097 7.35797 132.746 6.7099C132.394 6.05393 132.219 5.2715 132.219 4.36262C132.219 2.99535 132.582 1.92841 133.308 1.16179C134.035 0.387262 135.073 0 136.422 0C137.004 0 137.515 0.0632263 137.954 0.189679C138.401 0.308228 138.761 0.450488 139.032 0.616457V1.6834C138.673 1.45421 138.258 1.28429 137.787 1.17364C137.324 1.06299 136.865 1.00767 136.41 1.00767C135.404 1.00767 134.657 1.28824 134.171 1.84937C133.684 2.41051 133.44 3.24826 133.44 4.36262C133.44 5.48489 133.704 6.32659 134.23 6.88773C134.757 7.44096 135.528 7.71757 136.541 7.71757C136.98 7.71757 137.407 7.6583 137.823 7.53975C138.246 7.4212 138.649 7.21966 139.032 6.93515V8.00209C138.8 8.18387 138.461 8.34984 138.014 8.5C137.575 8.65016 137.052 8.72524 136.446 8.72524Z" fill="black" fill-opacity="0.25" style="fill:black;fill-opacity:0.25;"/>
<path d="M122.933 7.49232C123.428 7.53974 123.815 7.46861 124.094 7.27894C124.373 7.08135 124.605 6.8245 124.789 6.50836L121.604 0.106689H122.885L125.363 5.22803L127.507 0.106689H128.668L125.95 6.30683C125.727 6.82845 125.483 7.26708 125.22 7.62273C124.956 7.97838 124.641 8.23919 124.274 8.40516C123.914 8.57112 123.467 8.6383 122.933 8.60669V7.49232Z" fill="black" fill-opacity="0.25" style="fill:black;fill-opacity:0.25;"/>
<path d="M106.278 0.106689H111.595V1.12621H107.404V3.69874H110.96V4.70641H107.404V7.59902H111.655V8.60669H106.278V0.106689Z" fill="black" fill-opacity="0.25" style="fill:black;fill-opacity:0.25;"/>
<path d="M98.7356 8.72524C97.8894 8.72524 97.1471 8.55137 96.5084 8.20363C95.8778 7.85588 95.3869 7.35797 95.0356 6.7099C94.6844 6.05393 94.5088 5.2715 94.5088 4.36262C94.5088 2.99535 94.872 1.92841 95.5984 1.16179C96.3248 0.387262 97.3626 0 98.7116 0C99.2944 0 99.8053 0.0632263 100.244 0.189679C100.691 0.308228 101.051 0.450488 101.322 0.616457V1.6834C100.963 1.45421 100.548 1.28429 100.077 1.17364C99.6137 1.06299 99.1547 1.00767 98.6997 1.00767C97.6939 1.00767 96.9475 1.28824 96.4605 1.84937C95.9736 2.41051 95.7301 3.24826 95.7301 4.36262C95.7301 5.48489 95.9936 6.32659 96.5204 6.88773C97.0473 7.44096 97.8176 7.71757 98.8314 7.71757C99.2704 7.71757 99.6975 7.6583 100.113 7.53975C100.536 7.4212 100.939 7.21966 101.322 6.93515V8.00209C101.09 8.18387 100.751 8.34984 100.304 8.5C99.8651 8.65016 99.3423 8.72524 98.7356 8.72524Z" fill="black" fill-opacity="0.25" style="fill:black;fill-opacity:0.25;"/>
<path d="M84.1201 0.106689H87.0298C87.9717 0.106689 88.6862 0.264755 89.1731 0.580887C89.668 0.897019 89.9155 1.43049 89.9155 2.18131C89.9155 2.78986 89.7598 3.2522 89.4485 3.56833C89.1372 3.87656 88.7221 4.086 88.2032 4.19665C88.8658 4.27568 89.3687 4.46931 89.7119 4.77754C90.0552 5.07787 90.2268 5.53626 90.2268 6.15271C90.2268 6.73756 90.0871 7.21176 89.8077 7.57531C89.5283 7.93886 89.1452 8.20362 88.6582 8.36959C88.1713 8.52766 87.6205 8.60669 87.0058 8.60669H84.1201V0.106689ZM86.946 3.7343C87.4888 3.7343 87.9278 3.61575 88.2631 3.37866C88.6064 3.13365 88.778 2.7543 88.778 2.24058C88.778 1.8059 88.6263 1.51348 88.323 1.36331C88.0196 1.20525 87.5886 1.12621 87.0298 1.12621H85.2457V3.7343H86.946ZM87.0058 7.59902C87.6125 7.59902 88.1034 7.49628 88.4786 7.29079C88.8538 7.0853 89.0414 6.71385 89.0414 6.17642C89.0414 5.639 88.8658 5.26754 88.5146 5.06206C88.1713 4.84867 87.6245 4.74198 86.8741 4.74198H85.2457V7.59902H87.0058Z" fill="black" fill-opacity="0.25" style="fill:black;fill-opacity:0.25;"/>
<path d="M68.1006 0.106689H73.417V1.12621H69.2261V3.69874H72.7824V4.70641H69.2261V7.59902H73.4769V8.60669H68.1006V0.106689Z" fill="black" fill-opacity="0.25" style="fill:black;fill-opacity:0.25;"/>
<path d="M57.0762 1.13807V0.106689H63.5062V1.13807H60.8599V8.60669H59.7224V1.13807H57.0762Z" fill="black" fill-opacity="0.25" style="fill:black;fill-opacity:0.25;"/>
<path d="M46.6491 8.60669H45.4277V0.106689H46.5533V7.12482L51.271 0.106689H52.4924V8.60669H51.3429V1.62412L46.6491 8.60669Z" fill="black" fill-opacity="0.25" style="fill:black;fill-opacity:0.25;"/>
<path d="M33.8418 2.47768V0.106689H34.9793V2.47768C34.9793 3.14156 35.143 3.65132 35.4703 4.00697C35.8055 4.36262 36.2965 4.54044 36.9431 4.54044C37.3342 4.54044 37.7094 4.49697 38.0686 4.41004C38.4278 4.3152 38.7591 4.16108 39.0624 3.94769V0.106689H40.2V8.60669H39.0624V4.89609C38.7351 5.10158 38.3919 5.25174 38.0327 5.34658C37.6814 5.44142 37.3142 5.48884 36.9311 5.48884C35.9492 5.48884 35.1869 5.24383 34.6441 4.75383C34.1092 4.26383 33.8418 3.50511 33.8418 2.47768Z" fill="black" fill-opacity="0.25" style="fill:black;fill-opacity:0.25;"/>
<path d="M23.8574 7.49232C24.3524 7.53974 24.7395 7.46861 25.0189 7.27894C25.2983 7.08135 25.5298 6.8245 25.7134 6.50836L22.5283 0.106689H23.8095L26.2881 5.22803L28.4315 0.106689H29.5929L26.8749 6.30683C26.6513 6.82845 26.4079 7.26708 26.1445 7.62273C25.881 7.97838 25.5657 8.23919 25.1985 8.40516C24.8393 8.57112 24.3923 8.6383 23.8574 8.60669V7.49232Z" fill="black" fill-opacity="0.25" style="fill:black;fill-opacity:0.25;"/>
<path d="M15.0972 8.72524C14.4586 8.72524 13.9038 8.64621 13.4328 8.48815C12.9698 8.33008 12.6306 8.16411 12.415 7.99024V6.92329C13.1574 7.45281 14.0395 7.71757 15.0613 7.71757C15.4604 7.71757 15.8236 7.67015 16.1509 7.57531C16.4782 7.48047 16.7416 7.32241 16.9412 7.10112C17.1408 6.87192 17.2405 6.56369 17.2405 6.17643C17.2405 5.63901 17.0649 5.2636 16.7137 5.05021C16.3704 4.82892 15.8556 4.71827 15.169 4.71827H13.9357V3.76987H15.1451C15.7438 3.76987 16.1988 3.64342 16.5101 3.39052C16.8215 3.12971 16.9771 2.77406 16.9771 2.32357C16.9771 1.83357 16.8135 1.48977 16.4862 1.29219C16.1589 1.09461 15.7278 0.995816 15.193 0.995816C14.6502 0.995816 14.1553 1.05509 13.7082 1.17364C13.2692 1.29219 12.882 1.4384 12.5468 1.61227V0.557183C12.8102 0.422826 13.1534 0.296373 13.5765 0.177824C14.0076 0.0592747 14.5504 0 15.205 0C16.099 0 16.8095 0.181776 17.3363 0.545328C17.8632 0.90888 18.1266 1.47792 18.1266 2.25244C18.1266 2.75035 17.9749 3.16527 17.6716 3.49721C17.3762 3.82125 16.9412 4.04649 16.3664 4.17294C17.037 4.25988 17.5479 4.46536 17.8991 4.7894C18.2503 5.11344 18.426 5.56788 18.426 6.15272C18.426 6.75337 18.2743 7.24337 17.9709 7.62273C17.6756 8.00209 17.2765 8.28266 16.7736 8.46443C16.2707 8.63831 15.7119 8.72524 15.0972 8.72524Z" fill="black" fill-opacity="0.25" style="fill:black;fill-opacity:0.25;"/>
<path d="M1.72427 8.60669H0.50293V0.106689H1.62848V7.12482L6.34621 0.106689H7.56756V8.60669H6.41806V1.62412L1.72427 8.60669Z" fill="black" fill-opacity="0.25" style="fill:black;fill-opacity:0.25;"/>
</svg>
