<svg width="1000" height="46" viewBox="0 0 1000 46" fill="none" xmlns="http://www.w3.org/2000/svg">
<path d="M985.815 42.0401H983.765V27.7001H985.655V39.5401L993.576 27.7001H995.627V42.0401H993.697V30.2601L985.815 42.0401Z" fill="black" fill-opacity="0.25" style="fill:black;fill-opacity:0.25;"/>
<path d="M976.253 42.0401H973.9L968.874 35.9001H967.346V42.0401H965.456V27.7001H967.346V34.2001H968.753L973.9 27.7001H976.032L970.342 34.8601L976.253 42.0401Z" fill="black" fill-opacity="0.25" style="fill:black;fill-opacity:0.25;"/>
<path d="M952.792 42.24C951.371 42.24 950.124 41.9467 949.052 41.36C947.993 40.7734 947.169 39.9334 946.579 38.84C945.989 37.7334 945.694 36.4134 945.694 34.88C945.694 32.5734 946.304 30.7734 947.524 29.48C948.744 28.1734 950.486 27.52 952.751 27.52C953.73 27.52 954.588 27.6267 955.325 27.84C956.076 28.04 956.679 28.28 957.134 28.56V30.36C956.531 29.9734 955.834 29.6867 955.043 29.5C954.266 29.3134 953.495 29.22 952.731 29.22C951.042 29.22 949.789 29.6934 948.972 30.64C948.154 31.5867 947.745 33 947.745 34.88C947.745 36.7734 948.187 38.1934 949.072 39.14C949.957 40.0734 951.25 40.54 952.952 40.54C953.69 40.54 954.407 40.44 955.104 40.24C955.814 40.04 956.491 39.7 957.134 39.22V41.02C956.746 41.3267 956.176 41.6067 955.425 41.86C954.688 42.1134 953.81 42.24 952.792 42.24Z" fill="black" fill-opacity="0.25" style="fill:black;fill-opacity:0.25;"/>
<path d="M927.944 42.0401H925.894V27.7001H927.783V39.5401L935.705 27.7001H937.756V42.0401H935.826V30.2601L927.944 42.0401Z" fill="black" fill-opacity="0.25" style="fill:black;fill-opacity:0.25;"/>
<path d="M908.192 27.7001H912.797C914.432 27.7001 915.698 28.0401 916.597 28.7201C917.508 29.3867 917.964 30.4334 917.964 31.8601C917.964 32.9401 917.736 33.8201 917.28 34.5001C916.838 35.1801 916.215 35.6801 915.41 36.0001C914.619 36.3067 913.695 36.4601 912.636 36.4601H910.082V42.0401H908.192V27.7001ZM912.636 34.7601C913.654 34.7601 914.479 34.5401 915.109 34.1001C915.739 33.6601 916.054 32.9201 916.054 31.8801C916.054 31.0134 915.772 30.3867 915.209 30.0001C914.646 29.6134 913.842 29.4201 912.797 29.4201H910.082V34.7601H912.636Z" fill="black" fill-opacity="0.25" style="fill:black;fill-opacity:0.25;"/>
<path d="M880.145 42.0401H878.094V27.7001H879.984V39.5401L887.905 27.7001H889.956V42.0401H888.026V30.2601L880.145 42.0401Z" fill="black" fill-opacity="0.25" style="fill:black;fill-opacity:0.25;"/>
<path d="M850.047 42.0401H847.996V27.7001H849.886V39.5401L857.808 27.7001H859.858V42.0401H857.928V30.2601L850.047 42.0401Z" fill="black" fill-opacity="0.25" style="fill:black;fill-opacity:0.25;"/>
<path d="M829.484 29.4401V27.7001H840.281V29.4401H835.838V42.0401H833.928V29.4401H829.484Z" fill="black" fill-opacity="0.25" style="fill:black;fill-opacity:0.25;"/>
<path d="M817.907 42.24C816.486 42.24 815.239 41.9467 814.167 41.36C813.108 40.7734 812.284 39.9334 811.694 38.84C811.104 37.7334 810.81 36.4134 810.81 34.88C810.81 32.5734 811.419 30.7734 812.639 29.48C813.859 28.1734 815.601 27.52 817.867 27.52C818.845 27.52 819.703 27.6267 820.44 27.84C821.191 28.04 821.794 28.28 822.25 28.56V30.36C821.646 29.9734 820.95 29.6867 820.159 29.5C819.381 29.3134 818.611 29.22 817.847 29.22C816.158 29.22 814.904 29.6934 814.087 30.64C813.269 31.5867 812.86 33 812.86 34.88C812.86 36.7734 813.303 38.1934 814.187 39.14C815.072 40.0734 816.365 40.54 818.068 40.54C818.805 40.54 819.522 40.44 820.219 40.24C820.929 40.04 821.606 39.7 822.25 39.22V41.02C821.861 41.3267 821.291 41.6067 820.541 41.86C819.804 42.1134 818.926 42.24 817.907 42.24Z" fill="black" fill-opacity="0.25" style="fill:black;fill-opacity:0.25;"/>
<path d="M796.804 42.24C795.518 42.24 794.352 41.9534 793.306 41.38C792.261 40.8067 791.429 39.9734 790.813 38.88C790.21 37.7734 789.908 36.42 789.908 34.82C789.908 33.22 790.21 31.88 790.813 30.8C791.429 29.7067 792.261 28.8867 793.306 28.34C794.352 27.7934 795.518 27.52 796.804 27.52C798.118 27.52 799.291 27.8 800.323 28.36C801.368 28.9067 802.193 29.72 802.796 30.8C803.399 31.88 803.701 33.2267 803.701 34.84C803.701 36.4267 803.399 37.7734 802.796 38.88C802.193 39.9734 801.368 40.8067 800.323 41.38C799.291 41.9534 798.118 42.24 796.804 42.24ZM796.804 40.54C797.729 40.54 798.56 40.3534 799.298 39.98C800.035 39.6067 800.611 39.0067 801.027 38.18C801.456 37.34 801.67 36.24 801.67 34.88C801.67 33.5067 801.456 32.4067 801.027 31.58C800.611 30.7534 800.035 30.1534 799.298 29.78C798.56 29.4067 797.729 29.22 796.804 29.22C795.88 29.22 795.049 29.4067 794.311 29.78C793.587 30.1534 793.011 30.7534 792.582 31.58C792.153 32.4067 791.939 33.5067 791.939 34.88C791.939 36.24 792.153 37.34 792.582 38.18C793.011 39.0067 793.587 39.6067 794.311 39.98C795.049 40.3534 795.88 40.54 796.804 40.54Z" fill="black" fill-opacity="0.25" style="fill:black;fill-opacity:0.25;"/>
<path d="M770.774 27.7001H772.664V34.0801H780.063V27.7001H781.973V42.0401H780.063V35.7801H772.664V42.0401H770.774V27.7001Z" fill="black" fill-opacity="0.25" style="fill:black;fill-opacity:0.25;"/>
<path d="M744.953 42.0401L750.804 34.7401L745.215 27.7001H747.265L752.292 34.1601H753.096V27.7001H755.006V34.1601H755.85L760.877 27.7001H762.948L757.318 34.7801L763.209 42.0401H760.897L755.83 35.7401H755.006V42.0401H753.096V35.7401H752.231L747.205 42.0401H744.953Z" fill="black" fill-opacity="0.25" style="fill:black;fill-opacity:0.25;"/>
<path d="M732.336 42.24C731.049 42.24 729.883 41.9534 728.837 41.38C727.792 40.8067 726.961 39.9734 726.344 38.88C725.741 37.7734 725.439 36.42 725.439 34.82C725.439 33.22 725.741 31.88 726.344 30.8C726.961 29.7067 727.792 28.8867 728.837 28.34C729.883 27.7934 731.049 27.52 732.336 27.52C733.649 27.52 734.822 27.8 735.854 28.36C736.9 28.9067 737.724 29.72 738.327 30.8C738.93 31.88 739.232 33.2267 739.232 34.84C739.232 36.4267 738.93 37.7734 738.327 38.88C737.724 39.9734 736.9 40.8067 735.854 41.38C734.822 41.9534 733.649 42.24 732.336 42.24ZM732.336 40.54C733.261 40.54 734.092 40.3534 734.829 39.98C735.566 39.6067 736.142 39.0067 736.558 38.18C736.987 37.34 737.201 36.24 737.201 34.88C737.201 33.5067 736.987 32.4067 736.558 31.58C736.142 30.7534 735.566 30.1534 734.829 29.78C734.092 29.4067 733.261 29.22 732.336 29.22C731.411 29.22 730.58 29.4067 729.843 29.78C729.119 30.1534 728.542 30.7534 728.113 31.58C727.685 32.4067 727.47 33.5067 727.47 34.88C727.47 36.24 727.685 37.34 728.113 38.18C728.542 39.0067 729.119 39.6067 729.843 39.98C730.58 40.3534 731.411 40.54 732.336 40.54Z" fill="black" fill-opacity="0.25" style="fill:black;fill-opacity:0.25;"/>
<path d="M710.22 39.8601H709.396H709.375L709.396 39.8401L705.033 30.3401V42.0401H703.243V27.7001H705.877L710.361 37.7601L715.045 27.7001H717.498V42.0401H715.588V30.5001L711.165 39.8401L710.22 39.8601Z" fill="black" fill-opacity="0.25" style="fill:black;fill-opacity:0.25;"/>
<path d="M689.502 42.24C688.429 42.24 687.498 42.1067 686.707 41.84C685.93 41.5734 685.36 41.2934 684.998 41V39.2C686.245 40.0934 687.726 40.54 689.441 40.54C690.112 40.54 690.722 40.46 691.271 40.3C691.821 40.14 692.263 39.8734 692.598 39.5C692.933 39.1134 693.101 38.5934 693.101 37.94C693.101 37.0334 692.806 36.4 692.216 36.04C691.64 35.6667 690.775 35.48 689.622 35.48H687.552V33.88H689.582C690.587 33.88 691.351 33.6667 691.874 33.24C692.397 32.8 692.658 32.2 692.658 31.44C692.658 30.6134 692.384 30.0334 691.834 29.7C691.284 29.3667 690.561 29.2 689.663 29.2C688.751 29.2 687.92 29.3 687.169 29.5C686.432 29.7 685.782 29.9467 685.219 30.24V28.46C685.662 28.2334 686.238 28.02 686.948 27.82C687.672 27.62 688.584 27.52 689.683 27.52C691.184 27.52 692.377 27.8267 693.262 28.44C694.146 29.0534 694.589 30.0134 694.589 31.32C694.589 32.16 694.334 32.86 693.824 33.42C693.329 33.9667 692.598 34.3467 691.633 34.56C692.759 34.7067 693.617 35.0534 694.206 35.6C694.796 36.1467 695.091 36.9134 695.091 37.9C695.091 38.9134 694.836 39.74 694.327 40.38C693.831 41.02 693.161 41.4934 692.317 41.8C691.472 42.0934 690.534 42.24 689.502 42.24Z" fill="black" fill-opacity="0.25" style="fill:black;fill-opacity:0.25;"/>
<path d="M671.185 42.24C669.899 42.24 668.732 41.9534 667.687 41.38C666.641 40.8067 665.81 39.9734 665.194 38.88C664.591 37.7734 664.289 36.42 664.289 34.82C664.289 33.22 664.591 31.88 665.194 30.8C665.81 29.7067 666.641 28.8867 667.687 28.34C668.732 27.7934 669.899 27.52 671.185 27.52C672.499 27.52 673.672 27.8 674.704 28.36C675.749 28.9067 676.574 29.72 677.177 30.8C677.78 31.88 678.082 33.2267 678.082 34.84C678.082 36.4267 677.78 37.7734 677.177 38.88C676.574 39.9734 675.749 40.8067 674.704 41.38C673.672 41.9534 672.499 42.24 671.185 42.24ZM671.185 40.54C672.11 40.54 672.941 40.3534 673.678 39.98C674.416 39.6067 674.992 39.0067 675.408 38.18C675.836 37.34 676.051 36.24 676.051 34.88C676.051 33.5067 675.836 32.4067 675.408 31.58C674.992 30.7534 674.416 30.1534 673.678 29.78C672.941 29.4067 672.11 29.22 671.185 29.22C670.26 29.22 669.429 29.4067 668.692 29.78C667.968 30.1534 667.392 30.7534 666.963 31.58C666.534 32.4067 666.32 33.5067 666.32 34.88C666.32 36.24 666.534 37.34 666.963 38.18C667.392 39.0067 667.968 39.6067 668.692 39.98C669.429 40.3534 670.26 40.54 671.185 40.54Z" fill="black" fill-opacity="0.25" style="fill:black;fill-opacity:0.25;"/>
<path d="M646.845 27.7001H651.73C653.312 27.7001 654.512 27.9667 655.329 28.5001C656.16 29.0334 656.576 29.9334 656.576 31.2001C656.576 32.2267 656.315 33.0067 655.792 33.5401C655.269 34.0601 654.572 34.4134 653.701 34.6001C654.813 34.7334 655.658 35.0601 656.234 35.5801C656.81 36.0867 657.099 36.8601 657.099 37.9001C657.099 38.8867 656.864 39.6867 656.395 40.3001C655.926 40.9134 655.282 41.3601 654.465 41.6401C653.647 41.9067 652.722 42.0401 651.69 42.0401H646.845V27.7001ZM651.59 33.8201C652.501 33.8201 653.238 33.6201 653.801 33.2201C654.378 32.8067 654.666 32.1667 654.666 31.3001C654.666 30.5667 654.411 30.0734 653.902 29.8201C653.393 29.5534 652.669 29.4201 651.73 29.4201H648.735V33.8201H651.59ZM651.69 40.3401C652.709 40.3401 653.533 40.1667 654.163 39.8201C654.793 39.4734 655.108 38.8467 655.108 37.9401C655.108 37.0334 654.813 36.4067 654.224 36.0601C653.647 35.7001 652.729 35.5201 651.469 35.5201H648.735V40.3401H651.69Z" fill="black" fill-opacity="0.25" style="fill:black;fill-opacity:0.25;"/>
<path d="M619.945 27.7001H628.872V29.4201H621.835V33.7601H627.807V35.4601H621.835V40.3401H628.973V42.0401H619.945V27.7001Z" fill="black" fill-opacity="0.25" style="fill:black;fill-opacity:0.25;"/>
<path d="M597.611 42.0401V27.7001H599.501V33.2601H602.356C603.951 33.2601 605.178 33.5934 606.036 34.2601C606.893 34.9267 607.322 36.0067 607.322 37.5001C607.322 38.5934 607.101 39.4734 606.659 40.1401C606.217 40.8067 605.6 41.2934 604.809 41.6001C604.018 41.8934 603.107 42.0401 602.075 42.0401H597.611ZM609.253 27.7201H611.163V42.0401H609.253V27.7201ZM602.075 40.3401C603.026 40.3401 603.804 40.1401 604.407 39.7401C605.024 39.3401 605.332 38.6201 605.332 37.5801C605.332 36.6867 605.071 36.0267 604.548 35.6001C604.025 35.1601 603.274 34.9401 602.296 34.9401H599.501V40.3401H602.075Z" fill="black" fill-opacity="0.25" style="fill:black;fill-opacity:0.25;"/>
<path d="M579.225 27.7001H584.11C585.692 27.7001 586.892 27.9667 587.709 28.5001C588.54 29.0334 588.956 29.9334 588.956 31.2001C588.956 32.2267 588.694 33.0067 588.172 33.5401C587.649 34.0601 586.952 34.4134 586.081 34.6001C587.193 34.7334 588.038 35.0601 588.614 35.5801C589.19 36.0867 589.479 36.8601 589.479 37.9001C589.479 38.8867 589.244 39.6867 588.775 40.3001C588.306 40.9134 587.662 41.3601 586.845 41.6401C586.027 41.9067 585.102 42.0401 584.07 42.0401H579.225V27.7001ZM583.97 33.8201C584.881 33.8201 585.618 33.6201 586.181 33.2201C586.758 32.8067 587.046 32.1667 587.046 31.3001C587.046 30.5667 586.791 30.0734 586.282 29.8201C585.772 29.5534 585.049 29.4201 584.11 29.4201H581.115V33.8201H583.97ZM584.07 40.3401C585.089 40.3401 585.913 40.1667 586.543 39.8201C587.173 39.4734 587.488 38.8467 587.488 37.9401C587.488 37.0334 587.193 36.4067 586.603 36.0601C586.027 35.7001 585.109 35.5201 583.849 35.5201H581.115V40.3401H584.07Z" fill="black" fill-opacity="0.25" style="fill:black;fill-opacity:0.25;"/>
<path d="M564.376 42.24C563.089 42.24 561.923 41.9534 560.877 41.38C559.832 40.8067 559.001 39.9734 558.384 38.88C557.781 37.7734 557.479 36.42 557.479 34.82C557.479 33.22 557.781 31.88 558.384 30.8C559.001 29.7067 559.832 28.8867 560.877 28.34C561.923 27.7934 563.089 27.52 564.376 27.52C565.689 27.52 566.862 27.8 567.894 28.36C568.94 28.9067 569.764 29.72 570.367 30.8C570.97 31.88 571.272 33.2267 571.272 34.84C571.272 36.4267 570.97 37.7734 570.367 38.88C569.764 39.9734 568.94 40.8067 567.894 41.38C566.862 41.9534 565.689 42.24 564.376 42.24ZM564.376 40.54C565.301 40.54 566.132 40.3534 566.869 39.98C567.606 39.6067 568.182 39.0067 568.598 38.18C569.027 37.34 569.241 36.24 569.241 34.88C569.241 33.5067 569.027 32.4067 568.598 31.58C568.182 30.7534 567.606 30.1534 566.869 29.78C566.132 29.4067 565.301 29.22 564.376 29.22C563.451 29.22 562.62 29.4067 561.883 29.78C561.159 30.1534 560.582 30.7534 560.154 31.58C559.725 32.4067 559.51 33.5067 559.51 34.88C559.51 36.24 559.725 37.34 560.154 38.18C560.582 39.0067 561.159 39.6067 561.883 39.98C562.62 40.3534 563.451 40.54 564.376 40.54Z" fill="black" fill-opacity="0.25" style="fill:black;fill-opacity:0.25;"/>
<path d="M545.954 42.24C544.533 42.24 543.286 41.9467 542.214 41.36C541.155 40.7734 540.331 39.9334 539.741 38.84C539.151 37.7334 538.856 36.4134 538.856 34.88C538.856 32.5734 539.466 30.7734 540.686 29.48C541.906 28.1734 543.648 27.52 545.914 27.52C546.892 27.52 547.75 27.6267 548.487 27.84C549.238 28.04 549.841 28.28 550.297 28.56V30.36C549.693 29.9734 548.996 29.6867 548.206 29.5C547.428 29.3134 546.657 29.22 545.893 29.22C544.205 29.22 542.951 29.6934 542.134 30.64C541.316 31.5867 540.907 33 540.907 34.88C540.907 36.7734 541.35 38.1934 542.234 39.14C543.119 40.0734 544.412 40.54 546.115 40.54C546.852 40.54 547.569 40.44 548.266 40.24C548.976 40.04 549.653 39.7 550.297 39.22V41.02C549.908 41.3267 549.338 41.6067 548.588 41.86C547.85 42.1134 546.972 42.24 545.954 42.24Z" fill="black" fill-opacity="0.25" style="fill:black;fill-opacity:0.25;"/>
<path d="M519.723 27.7001H521.613V34.0801H529.012V27.7001H530.922V42.0401H529.012V35.7801H521.613V42.0401H519.723V27.7001Z" fill="black" fill-opacity="0.25" style="fill:black;fill-opacity:0.25;"/>
<path d="M512.215 42.0401H510.205L508.717 37.9401H502.343L500.876 42.0401H499.106L504.233 27.7001H507.048L512.215 42.0401ZM502.967 36.2401H508.114L505.54 29.1001L502.967 36.2401Z" fill="black" fill-opacity="0.25" style="fill:black;fill-opacity:0.25;"/>
<path d="M480.415 27.7001H482.305V34.0801H489.704V27.7001H491.614V42.0401H489.704V35.7801H482.305V42.0401H480.415V27.7001Z" fill="black" fill-opacity="0.25" style="fill:black;fill-opacity:0.25;"/>
<path d="M461.842 42.0401H459.791V27.7001H461.681V39.5401L469.603 27.7001H471.653V42.0401H469.723V30.2601L461.842 42.0401Z" fill="black" fill-opacity="0.25" style="fill:black;fill-opacity:0.25;"/>
<path d="M439.034 34.86C439.034 35.82 439.229 36.5867 439.617 37.16C440.006 37.7334 440.536 38.1534 441.206 38.42C441.889 38.6734 442.647 38.82 443.478 38.86V30.88C442.647 30.92 441.889 31.0734 441.206 31.34C440.536 31.5934 440.006 32.0067 439.617 32.58C439.229 33.14 439.034 33.9 439.034 34.86ZM449.831 34.9C449.831 33.9267 449.637 33.16 449.248 32.6C448.859 32.0267 448.33 31.6067 447.66 31.34C446.99 31.0734 446.232 30.9267 445.388 30.9V38.88C446.232 38.84 446.99 38.6934 447.66 38.44C448.33 38.1734 448.859 37.76 449.248 37.2C449.637 36.6267 449.831 35.86 449.831 34.9ZM443.478 27.54H445.388V29.38C446.608 29.4067 447.7 29.6267 448.665 30.04C449.644 30.4534 450.414 31.06 450.977 31.86C451.54 32.6467 451.822 33.64 451.822 34.84C451.822 36.0267 451.54 37.0267 450.977 37.84C450.414 38.64 449.644 39.2534 448.665 39.68C447.7 40.0934 446.608 40.32 445.388 40.36V42.24H443.478V40.36C442.258 40.3334 441.159 40.12 440.18 39.72C439.215 39.3067 438.451 38.7 437.888 37.9C437.325 37.1 437.044 36.1067 437.044 34.92C437.044 33.72 437.325 32.72 437.888 31.92C438.451 31.1067 439.215 30.4934 440.18 30.08C441.159 29.6534 442.258 29.42 443.478 29.38V27.54Z" fill="black" fill-opacity="0.25" style="fill:black;fill-opacity:0.25;"/>
<path d="M409.84 42.0401H407.789V27.7001H409.679V39.5401L417.601 27.7001H419.651V42.0401H417.721V30.2601L409.84 42.0401Z" fill="black" fill-opacity="0.25" style="fill:black;fill-opacity:0.25;"/>
<path d="M392.94 42.24C391.653 42.24 390.487 41.9534 389.442 41.38C388.396 40.8067 387.565 39.9734 386.949 38.88C386.346 37.7734 386.044 36.42 386.044 34.82C386.044 33.22 386.346 31.88 386.949 30.8C387.565 29.7067 388.396 28.8867 389.442 28.34C390.487 27.7934 391.653 27.52 392.94 27.52C394.254 27.52 395.427 27.8 396.459 28.36C397.504 28.9067 398.329 29.72 398.932 30.8C399.535 31.88 399.836 33.2267 399.836 34.84C399.836 36.4267 399.535 37.7734 398.932 38.88C398.329 39.9734 397.504 40.8067 396.459 41.38C395.427 41.9534 394.254 42.24 392.94 42.24ZM392.94 40.54C393.865 40.54 394.696 40.3534 395.433 39.98C396.171 39.6067 396.747 39.0067 397.162 38.18C397.591 37.34 397.806 36.24 397.806 34.88C397.806 33.5067 397.591 32.4067 397.162 31.58C396.747 30.7534 396.171 30.1534 395.433 29.78C394.696 29.4067 393.865 29.22 392.94 29.22C392.015 29.22 391.184 29.4067 390.447 29.78C389.723 30.1534 389.147 30.7534 388.718 31.58C388.289 32.4067 388.075 33.5067 388.075 34.88C388.075 36.24 388.289 37.34 388.718 38.18C389.147 39.0067 389.723 39.6067 390.447 39.98C391.184 40.3534 392.015 40.54 392.94 40.54Z" fill="black" fill-opacity="0.25" style="fill:black;fill-opacity:0.25;"/>
<path d="M368.6 27.7001H373.485C375.067 27.7001 376.267 27.9667 377.084 28.5001C377.915 29.0334 378.331 29.9334 378.331 31.2001C378.331 32.2267 378.069 33.0067 377.547 33.5401C377.024 34.0601 376.327 34.4134 375.456 34.6001C376.568 34.7334 377.413 35.0601 377.989 35.5801C378.565 36.0867 378.854 36.8601 378.854 37.9001C378.854 38.8867 378.619 39.6867 378.15 40.3001C377.681 40.9134 377.037 41.3601 376.22 41.6401C375.402 41.9067 374.477 42.0401 373.445 42.0401H368.6V27.7001ZM373.345 33.8201C374.256 33.8201 374.993 33.6201 375.556 33.2201C376.133 32.8067 376.421 32.1667 376.421 31.3001C376.421 30.5667 376.166 30.0734 375.657 29.8201C375.147 29.5534 374.424 29.4201 373.485 29.4201H370.49V33.8201H373.345ZM373.445 40.3401C374.464 40.3401 375.288 40.1667 375.918 39.8201C376.548 39.4734 376.863 38.8467 376.863 37.9401C376.863 37.0334 376.568 36.4067 375.978 36.0601C375.402 35.7001 374.484 35.5201 373.224 35.5201H370.49V40.3401H373.445Z" fill="black" fill-opacity="0.25" style="fill:black;fill-opacity:0.25;"/>
<path d="M355.935 42.24C354.514 42.24 353.268 41.9467 352.196 41.36C351.137 40.7734 350.312 39.9334 349.723 38.84C349.133 37.7334 348.838 36.4134 348.838 34.88C348.838 32.5734 349.448 30.7734 350.668 29.48C351.887 28.1734 353.63 27.52 355.895 27.52C356.873 27.52 357.731 27.6267 358.469 27.84C359.219 28.04 359.822 28.28 360.278 28.56V30.36C359.675 29.9734 358.978 29.6867 358.187 29.5C357.41 29.3134 356.639 29.22 355.875 29.22C354.186 29.22 352.933 29.6934 352.115 30.64C351.297 31.5867 350.889 33 350.889 34.88C350.889 36.7734 351.331 38.1934 352.216 39.14C353.1 40.0734 354.394 40.54 356.096 40.54C356.833 40.54 357.55 40.44 358.247 40.24C358.958 40.04 359.635 39.7 360.278 39.22V41.02C359.889 41.3267 359.32 41.6067 358.569 41.86C357.832 42.1134 356.954 42.24 355.935 42.24Z" fill="black" fill-opacity="0.25" style="fill:black;fill-opacity:0.25;"/>
<path d="M322.784 27.7001H331.711V29.4201H324.674V33.7601H330.646V35.4601H324.674V40.3401H331.812V42.0401H322.784V27.7001Z" fill="black" fill-opacity="0.25" style="fill:black;fill-opacity:0.25;"/>
<path d="M304.273 29.4401V27.7001H315.07V29.4401H310.627V42.0401H308.717V29.4401H304.273Z" fill="black" fill-opacity="0.25" style="fill:black;fill-opacity:0.25;"/>
<path d="M290.464 26.92C289.325 26.92 288.48 26.64 287.931 26.08C287.381 25.5067 287.106 24.8133 287.106 24H288.876C288.876 24.5733 289.016 24.9867 289.298 25.24C289.579 25.4933 289.968 25.62 290.464 25.62C290.96 25.62 291.342 25.4933 291.61 25.24C291.892 24.9867 292.032 24.5733 292.032 24H293.802C293.802 24.8133 293.527 25.5067 292.977 26.08C292.441 26.64 291.603 26.92 290.464 26.92ZM286.765 42.04H284.714V27.7H286.604V39.54L294.525 27.7H296.576V42.04H294.646V30.26L286.765 42.04Z" fill="black" fill-opacity="0.25" style="fill:black;fill-opacity:0.25;"/>
<path d="M277.187 42.0401H275.176L273.689 37.9401H267.315L265.847 42.0401H264.078L269.205 27.7001H272.02L277.187 42.0401ZM267.938 36.2401H273.085L270.512 29.1001L267.938 36.2401Z" fill="black" fill-opacity="0.25" style="fill:black;fill-opacity:0.25;"/>
<path d="M247.271 27.7001H252.157C253.739 27.7001 254.938 27.9667 255.756 28.5001C256.587 29.0334 257.003 29.9334 257.003 31.2001C257.003 32.2267 256.741 33.0067 256.219 33.5401C255.696 34.0601 254.999 34.4134 254.128 34.6001C255.24 34.7334 256.084 35.0601 256.661 35.5801C257.237 36.0867 257.525 36.8601 257.525 37.9001C257.525 38.8867 257.291 39.6867 256.822 40.3001C256.353 40.9134 255.709 41.3601 254.892 41.6401C254.074 41.9067 253.149 42.0401 252.117 42.0401H247.271V27.7001ZM252.016 33.8201C252.928 33.8201 253.665 33.6201 254.228 33.2201C254.804 32.8067 255.093 32.1667 255.093 31.3001C255.093 30.5667 254.838 30.0734 254.329 29.8201C253.819 29.5534 253.095 29.4201 252.157 29.4201H249.161V33.8201H252.016ZM252.117 40.3401C253.136 40.3401 253.96 40.1667 254.59 39.8201C255.22 39.4734 255.535 38.8467 255.535 37.9401C255.535 37.0334 255.24 36.4067 254.65 36.0601C254.074 35.7001 253.156 35.5201 251.896 35.5201H249.161V40.3401H252.117Z" fill="black" fill-opacity="0.25" style="fill:black;fill-opacity:0.25;"/>
<path d="M228.677 42.0401H226.626V27.7001H228.516V39.5401L236.438 27.7001H238.488V42.0401H236.558V30.2601L228.677 42.0401Z" fill="black" fill-opacity="0.25" style="fill:black;fill-opacity:0.25;"/>
<path d="M206.647 27.7001H208.537V34.0801H215.936V27.7001H217.846V42.0401H215.936V35.7801H208.537V42.0401H206.647V27.7001Z" fill="black" fill-opacity="0.25" style="fill:black;fill-opacity:0.25;"/>
<path d="M189.223 27.7001H198.15V29.4201H191.113V33.7601H197.084V35.4601H191.113V40.3401H198.25V42.0401H189.223V27.7001Z" fill="black" fill-opacity="0.25" style="fill:black;fill-opacity:0.25;"/>
<path d="M168.598 42.0401V27.7001H170.488V40.3401H177.525V27.7001H179.435V40.3401H181.325V45.4401H179.555L179.334 42.0401H168.598Z" fill="black" fill-opacity="0.25" style="fill:black;fill-opacity:0.25;"/>
<path d="M153.75 42.24C152.463 42.24 151.297 41.9534 150.251 41.38C149.206 40.8067 148.375 39.9734 147.758 38.88C147.155 37.7734 146.854 36.42 146.854 34.82C146.854 33.22 147.155 31.88 147.758 30.8C148.375 29.7067 149.206 28.8867 150.251 28.34C151.297 27.7934 152.463 27.52 153.75 27.52C155.063 27.52 156.236 27.8 157.268 28.36C158.314 28.9067 159.138 29.72 159.741 30.8C160.344 31.88 160.646 33.2267 160.646 34.84C160.646 36.4267 160.344 37.7734 159.741 38.88C159.138 39.9734 158.314 40.8067 157.268 41.38C156.236 41.9534 155.063 42.24 153.75 42.24ZM153.75 40.54C154.675 40.54 155.506 40.3534 156.243 39.98C156.98 39.6067 157.556 39.0067 157.972 38.18C158.401 37.34 158.615 36.24 158.615 34.88C158.615 33.5067 158.401 32.4067 157.972 31.58C157.556 30.7534 156.98 30.1534 156.243 29.78C155.506 29.4067 154.675 29.22 153.75 29.22C152.825 29.22 151.994 29.4067 151.257 29.78C150.533 30.1534 149.956 30.7534 149.528 31.58C149.099 32.4067 148.884 33.5067 148.884 34.88C148.884 36.24 149.099 37.34 149.528 38.18C149.956 39.0067 150.533 39.6067 151.257 39.98C151.994 40.3534 152.825 40.54 153.75 40.54Z" fill="black" fill-opacity="0.25" style="fill:black;fill-opacity:0.25;"/>
<path d="M128.729 42.16C128.353 42.16 128.038 42.04 127.784 41.8C127.543 41.5467 127.422 41.2467 127.422 40.9C127.422 40.5267 127.543 40.22 127.784 39.98C128.038 39.74 128.353 39.62 128.729 39.62C129.104 39.62 129.412 39.74 129.654 39.98C129.895 40.22 130.016 40.5267 130.016 40.9C130.016 41.2467 129.895 41.5467 129.654 41.8C129.412 42.04 129.104 42.16 128.729 42.16Z" fill="black" fill-opacity="0.25" style="fill:black;fill-opacity:0.25;"/>
<path d="M110.56 27.7001H119.487V29.4201H112.45V33.7601H118.421V35.4601H112.45V40.3401H119.587V42.0401H110.56V27.7001Z" fill="black" fill-opacity="0.25" style="fill:black;fill-opacity:0.25;"/>
<path d="M90.1787 40.2201C90.8355 40.2867 91.318 40.0801 91.6263 39.6001C91.948 39.1201 92.1893 38.4867 92.3501 37.7001C92.5512 36.7001 92.6852 35.3667 92.7522 33.7001C92.8193 32.0334 92.8662 30.0334 92.893 27.7001H101.78V42.0401H99.8697V29.4201H94.6824C94.6422 31.3534 94.5886 33.0401 94.5215 34.4801C94.4545 35.9067 94.3272 37.1134 94.1395 38.1001C93.9787 38.8467 93.7508 39.5334 93.4559 40.1601C93.1611 40.7867 92.7522 41.2801 92.2295 41.6401C91.7067 42.0001 91.0232 42.1601 90.1787 42.1201V40.2201Z" fill="black" fill-opacity="0.25" style="fill:black;fill-opacity:0.25;"/>
<path d="M74.0205 27.7001H82.9474V29.4201H75.9104V33.7601H81.8818V35.4601H75.9104V40.3401H83.048V42.0401H74.0205V27.7001Z" fill="black" fill-opacity="0.25" style="fill:black;fill-opacity:0.25;"/>
<path d="M53.5791 45.4401H51.8701V40.3401H52.8553C53.4719 39.7801 53.9276 38.9667 54.2225 37.9001C54.5174 36.8334 54.7184 35.4667 54.8257 33.8001C54.9329 32.1201 55.0133 30.0867 55.0669 27.7001H64.2552V40.3401H66.105V45.4401H64.3558L64.1547 42.0401H53.8003L53.5791 45.4401ZM55.0468 40.3401H62.3452V29.4201H56.8362C56.796 31.4467 56.7089 33.1667 56.5749 34.5801C56.4542 35.9934 56.2666 37.1667 56.0119 38.1001C55.7706 39.0201 55.4489 39.7667 55.0468 40.3401Z" fill="black" fill-opacity="0.25" style="fill:black;fill-opacity:0.25;"/>
<path d="M39.614 42.24C38.5417 42.24 37.6102 42.1067 36.8193 41.84C36.0419 41.5734 35.4723 41.2934 35.1104 41V39.2C36.3569 40.0934 37.838 40.54 39.5537 40.54C40.2239 40.54 40.8338 40.46 41.3833 40.3C41.9329 40.14 42.3752 39.8734 42.7103 39.5C43.0454 39.1134 43.2129 38.5934 43.2129 37.94C43.2129 37.0334 42.9181 36.4 42.3283 36.04C41.7519 35.6667 40.8874 35.48 39.7347 35.48H37.6638V33.88H39.6944C40.6997 33.88 41.4638 33.6667 41.9865 33.24C42.5093 32.8 42.7706 32.2 42.7706 31.44C42.7706 30.6134 42.4958 30.0334 41.9463 29.7C41.3967 29.3667 40.6729 29.2 39.7749 29.2C38.8634 29.2 38.0324 29.3 37.2818 29.5C36.5446 29.7 35.8945 29.9467 35.3315 30.24V28.46C35.7738 28.2334 36.3502 28.02 37.0606 27.82C37.7844 27.62 38.6959 27.52 39.795 27.52C41.2962 27.52 42.4891 27.8267 43.3738 28.44C44.2584 29.0534 44.7008 30.0134 44.7008 31.32C44.7008 32.16 44.4461 32.86 43.9368 33.42C43.4408 33.9667 42.7103 34.3467 41.7452 34.56C42.8712 34.7067 43.729 35.0534 44.3188 35.6C44.9085 36.1467 45.2034 36.9134 45.2034 37.9C45.2034 38.9134 44.9487 39.74 44.4394 40.38C43.9435 41.02 43.2733 41.4934 42.4288 41.8C41.5844 42.0934 40.6461 42.24 39.614 42.24Z" fill="black" fill-opacity="0.25" style="fill:black;fill-opacity:0.25;"/>
<path d="M28.3247 42.0401H26.3142L24.8263 37.9401H18.4528L16.9851 42.0401H15.2158L20.3428 27.7001H23.1576L28.3247 42.0401ZM19.0761 36.2401H24.2232L21.6496 29.1001L19.0761 36.2401Z" fill="black" fill-opacity="0.25" style="fill:black;fill-opacity:0.25;"/>
<path d="M0 27.7001H4.60421C6.23947 27.7001 7.50613 28.0401 8.40419 28.7201C9.31564 29.3867 9.77137 30.4334 9.77137 31.8601C9.77137 32.9401 9.54351 33.8201 9.08778 34.5001C8.64545 35.1801 8.02218 35.6801 7.21795 36.0001C6.42712 36.3067 5.50226 36.4601 4.44336 36.4601H1.88994V42.0401H0V27.7001ZM4.44336 34.7601C5.46205 34.7601 6.28638 34.5401 6.91636 34.1001C7.54634 33.6601 7.86133 32.9201 7.86133 31.8801C7.86133 31.0134 7.57985 30.3867 7.01689 30.0001C6.45393 29.6134 5.6497 29.4201 4.60421 29.4201H1.88994V34.7601H4.44336Z" fill="black" fill-opacity="0.25" style="fill:black;fill-opacity:0.25;"/>
<path d="M992.721 15.8601H991.896H991.876L991.896 15.8401L987.534 6.34007V18.0401H985.744V3.70007H988.378L992.862 13.7601L997.546 3.70007H999.999V18.0401H998.089V6.50007L993.666 15.8401L992.721 15.8601Z" fill="black" fill-opacity="0.25" style="fill:black;fill-opacity:0.25;"/>
<path d="M969.708 3.70007H978.635V5.42007H971.598V9.76007H977.569V11.4601H971.598V16.3401H978.735V18.0401H969.708V3.70007Z" fill="black" fill-opacity="0.25" style="fill:black;fill-opacity:0.25;"/>
<path d="M945.6 18.0401V3.70007H947.49V16.3401H952.476V3.70007H954.426V16.3401H959.432V3.70007H961.342V16.3401H963.152V21.4401H961.423L961.202 18.0401H945.6Z" fill="black" fill-opacity="0.25" style="fill:black;fill-opacity:0.25;"/>
<path d="M932.557 18.24C931.404 18.24 930.359 18 929.421 17.52C928.482 17.0267 927.718 16.3 927.129 15.34C926.539 14.38 926.19 13.1934 926.083 11.78H923.972V18.04H922.082V3.70002H923.972V10.08H926.103C926.197 8.66669 926.539 7.47335 927.129 6.50002C927.718 5.52669 928.482 4.78669 929.421 4.28002C930.359 3.77335 931.404 3.52002 932.557 3.52002C933.777 3.52002 934.876 3.79335 935.854 4.34002C936.833 4.88669 937.61 5.70669 938.187 6.80002C938.763 7.88002 939.051 9.22002 939.051 10.82C939.051 12.42 938.763 13.7734 938.187 14.88C937.61 15.9734 936.833 16.8067 935.854 17.38C934.876 17.9534 933.777 18.24 932.557 18.24ZM932.557 16.54C933.415 16.54 934.179 16.3534 934.849 15.98C935.519 15.6067 936.049 15.0067 936.438 14.18C936.826 13.34 937.021 12.24 937.021 10.88C937.021 9.50669 936.826 8.40669 936.438 7.58002C936.049 6.75335 935.519 6.15335 934.849 5.78002C934.179 5.40669 933.415 5.22002 932.557 5.22002C931.713 5.22002 930.955 5.40669 930.285 5.78002C929.615 6.15335 929.086 6.75335 928.697 7.58002C928.308 8.40669 928.114 9.50669 928.114 10.88C928.114 12.24 928.308 13.34 928.697 14.18C929.086 15.0067 929.615 15.6067 930.285 15.98C930.955 16.3534 931.713 16.54 932.557 16.54Z" fill="black" fill-opacity="0.25" style="fill:black;fill-opacity:0.25;"/>
<path d="M906.443 16.1601C907.274 16.2401 907.924 16.1201 908.393 15.8001C908.862 15.4667 909.251 15.0334 909.559 14.5001L904.211 3.70007H906.362L910.524 12.3401L914.123 3.70007H916.073L911.509 14.1601C911.134 15.0401 910.725 15.7801 910.283 16.3801C909.841 16.9801 909.311 17.4201 908.694 17.7001C908.091 17.9801 907.341 18.0934 906.443 18.0401V16.1601Z" fill="black" fill-opacity="0.25" style="fill:black;fill-opacity:0.25;"/>
<path d="M888.495 3.70007H893.381C894.962 3.70007 896.162 3.96674 896.98 4.50007C897.811 5.03341 898.226 5.93341 898.226 7.20007C898.226 8.22674 897.965 9.00674 897.442 9.54007C896.919 10.0601 896.222 10.4134 895.351 10.6001C896.464 10.7334 897.308 11.0601 897.885 11.5801C898.461 12.0867 898.749 12.8601 898.749 13.9001C898.749 14.8867 898.514 15.6867 898.045 16.3001C897.576 16.9134 896.933 17.3601 896.115 17.6401C895.298 17.9067 894.373 18.0401 893.341 18.0401H888.495V3.70007ZM893.24 9.82007C894.152 9.82007 894.889 9.62007 895.452 9.22007C896.028 8.80674 896.316 8.16674 896.316 7.30007C896.316 6.56674 896.062 6.07341 895.552 5.82007C895.043 5.55341 894.319 5.42007 893.381 5.42007H890.385V9.82007H893.24ZM893.341 16.3401C894.359 16.3401 895.184 16.1667 895.814 15.8201C896.444 15.4734 896.759 14.8467 896.759 13.9401C896.759 13.0334 896.464 12.4067 895.874 12.0601C895.298 11.7001 894.379 11.5201 893.119 11.5201H890.385V16.3401H893.341Z" fill="black" fill-opacity="0.25" style="fill:black;fill-opacity:0.25;"/>
<path d="M871.392 5.44007V3.70007H882.188V5.44007H877.745V18.0401H875.835V5.44007H871.392Z" fill="black" fill-opacity="0.25" style="fill:black;fill-opacity:0.25;"/>
<path d="M861.22 18.24C859.8 18.24 858.553 17.9467 857.481 17.36C856.422 16.7734 855.597 15.9334 855.008 14.84C854.418 13.7334 854.123 12.4134 854.123 10.88C854.123 8.57335 854.733 6.77335 855.953 5.48002C857.172 4.17335 858.915 3.52002 861.18 3.52002C862.159 3.52002 863.016 3.62669 863.754 3.84002C864.504 4.04002 865.107 4.28002 865.563 4.56002V6.36002C864.96 5.97335 864.263 5.68669 863.472 5.50002C862.695 5.31335 861.924 5.22002 861.16 5.22002C859.471 5.22002 858.218 5.69335 857.4 6.64002C856.583 7.58669 856.174 9.00002 856.174 10.88C856.174 12.7734 856.616 14.1934 857.501 15.14C858.385 16.0734 859.679 16.54 861.381 16.54C862.118 16.54 862.836 16.44 863.533 16.24C864.243 16.04 864.92 15.7 865.563 15.22V17.02C865.174 17.3267 864.605 17.6067 863.854 17.86C863.117 18.1134 862.239 18.24 861.22 18.24Z" fill="black" fill-opacity="0.25" style="fill:black;fill-opacity:0.25;"/>
<path d="M838.57 5.44007V3.70007H849.367V5.44007H844.924V18.0401H843.014V5.44007H838.57Z" fill="black" fill-opacity="0.25" style="fill:black;fill-opacity:0.25;"/>
<path d="M823.718 3.70007H832.645V5.42007H825.608V9.76007H831.579V11.4601H825.608V16.3401H832.745V18.0401H823.718V3.70007Z" fill="black" fill-opacity="0.25" style="fill:black;fill-opacity:0.25;"/>
<path d="M806.738 3.70007H811.624C813.206 3.70007 814.405 3.96674 815.223 4.50007C816.054 5.03341 816.469 5.93341 816.469 7.20007C816.469 8.22674 816.208 9.00674 815.685 9.54007C815.163 10.0601 814.466 10.4134 813.594 10.6001C814.707 10.7334 815.551 11.0601 816.128 11.5801C816.704 12.0867 816.992 12.8601 816.992 13.9001C816.992 14.8867 816.758 15.6867 816.288 16.3001C815.819 16.9134 815.176 17.3601 814.358 17.6401C813.541 17.9067 812.616 18.0401 811.584 18.0401H806.738V3.70007ZM811.483 9.82007C812.395 9.82007 813.132 9.62007 813.695 9.22007C814.271 8.80674 814.559 8.16674 814.559 7.30007C814.559 6.56674 814.305 6.07341 813.795 5.82007C813.286 5.55341 812.562 5.42007 811.624 5.42007H808.628V9.82007H811.483ZM811.584 16.3401C812.602 16.3401 813.427 16.1667 814.057 15.8201C814.687 15.4734 815.002 14.8467 815.002 13.9401C815.002 13.0334 814.707 12.4067 814.117 12.0601C813.541 11.7001 812.623 11.5201 811.363 11.5201H808.628V16.3401H811.584Z" fill="black" fill-opacity="0.25" style="fill:black;fill-opacity:0.25;"/>
<path d="M789.634 5.44007V3.70007H800.431V5.44007H795.987V18.0401H794.077V5.44007H789.634Z" fill="black" fill-opacity="0.25" style="fill:black;fill-opacity:0.25;"/>
<path d="M777.985 18.24C776.698 18.24 775.532 17.9534 774.487 17.38C773.441 16.8067 772.61 15.9734 771.994 14.88C771.39 13.7734 771.089 12.42 771.089 10.82C771.089 9.22002 771.39 7.88002 771.994 6.80002C772.61 5.70669 773.441 4.88669 774.487 4.34002C775.532 3.79335 776.698 3.52002 777.985 3.52002C779.299 3.52002 780.472 3.80002 781.504 4.36002C782.549 4.90669 783.373 5.72002 783.977 6.80002C784.58 7.88002 784.881 9.22669 784.881 10.84C784.881 12.4267 784.58 13.7734 783.977 14.88C783.373 15.9734 782.549 16.8067 781.504 17.38C780.472 17.9534 779.299 18.24 777.985 18.24ZM777.985 16.54C778.91 16.54 779.741 16.3534 780.478 15.98C781.215 15.6067 781.792 15.0067 782.207 14.18C782.636 13.34 782.851 12.24 782.851 10.88C782.851 9.50669 782.636 8.40669 782.207 7.58002C781.792 6.75335 781.215 6.15335 780.478 5.78002C779.741 5.40669 778.91 5.22002 777.985 5.22002C777.06 5.22002 776.229 5.40669 775.492 5.78002C774.768 6.15335 774.192 6.75335 773.763 7.58002C773.334 8.40669 773.12 9.50669 773.12 10.88C773.12 12.24 773.334 13.34 773.763 14.18C774.192 15.0067 774.768 15.6067 775.492 15.98C776.229 16.3534 777.06 16.54 777.985 16.54Z" fill="black" fill-opacity="0.25" style="fill:black;fill-opacity:0.25;"/>
<path d="M758.493 18.24C757.206 18.24 756.04 17.9534 754.994 17.38C753.949 16.8067 753.118 15.9734 752.501 14.88C751.898 13.7734 751.597 12.42 751.597 10.82C751.597 9.22002 751.898 7.88002 752.501 6.80002C753.118 5.70669 753.949 4.88669 754.994 4.34002C756.04 3.79335 757.206 3.52002 758.493 3.52002C759.806 3.52002 760.979 3.80002 762.011 4.36002C763.057 4.90669 763.881 5.72002 764.484 6.80002C765.088 7.88002 765.389 9.22669 765.389 10.84C765.389 12.4267 765.088 13.7734 764.484 14.88C763.881 15.9734 763.057 16.8067 762.011 17.38C760.979 17.9534 759.806 18.24 758.493 18.24ZM758.493 16.54C759.418 16.54 760.249 16.3534 760.986 15.98C761.723 15.6067 762.3 15.0067 762.715 14.18C763.144 13.34 763.358 12.24 763.358 10.88C763.358 9.50669 763.144 8.40669 762.715 7.58002C762.3 6.75335 761.723 6.15335 760.986 5.78002C760.249 5.40669 759.418 5.22002 758.493 5.22002C757.568 5.22002 756.737 5.40669 756 5.78002C755.276 6.15335 754.7 6.75335 754.271 7.58002C753.842 8.40669 753.627 9.50669 753.627 10.88C753.627 12.24 753.842 13.34 754.271 14.18C754.7 15.0067 755.276 15.6067 756 15.98C756.737 16.3534 757.568 16.54 758.493 16.54Z" fill="black" fill-opacity="0.25" style="fill:black;fill-opacity:0.25;"/>
<path d="M741.478 18.24C740.057 18.24 738.811 17.9467 737.738 17.36C736.68 16.7734 735.855 15.9334 735.265 14.84C734.676 13.7334 734.381 12.4134 734.381 10.88C734.381 8.57335 734.991 6.77335 736.21 5.48002C737.43 4.17335 739.173 3.52002 741.438 3.52002C742.416 3.52002 743.274 3.62669 744.011 3.84002C744.762 4.04002 745.365 4.28002 745.821 4.56002V6.36002C745.218 5.97335 744.521 5.68669 743.73 5.50002C742.953 5.31335 742.182 5.22002 741.418 5.22002C739.729 5.22002 738.476 5.69335 737.658 6.64002C736.84 7.58669 736.432 9.00002 736.432 10.88C736.432 12.7734 736.874 14.1934 737.759 15.14C738.643 16.0734 739.937 16.54 741.639 16.54C742.376 16.54 743.093 16.44 743.79 16.24C744.501 16.04 745.178 15.7 745.821 15.22V17.02C745.432 17.3267 744.863 17.6067 744.112 17.86C743.375 18.1134 742.497 18.24 741.478 18.24Z" fill="black" fill-opacity="0.25" style="fill:black;fill-opacity:0.25;"/>
<path d="M710.199 3.70007H715.085C716.667 3.70007 717.866 3.96674 718.684 4.50007C719.515 5.03341 719.93 5.93341 719.93 7.20007C719.93 8.22674 719.669 9.00674 719.146 9.54007C718.624 10.0601 717.927 10.4134 717.055 10.6001C718.168 10.7334 719.012 11.0601 719.589 11.5801C720.165 12.0867 720.453 12.8601 720.453 13.9001C720.453 14.8867 720.219 15.6867 719.749 16.3001C719.28 16.9134 718.637 17.3601 717.819 17.6401C717.002 17.9067 716.077 18.0401 715.045 18.0401H710.199V3.70007ZM714.944 9.82007C715.856 9.82007 716.593 9.62007 717.156 9.22007C717.732 8.80674 718.02 8.16674 718.02 7.30007C718.02 6.56674 717.766 6.07341 717.256 5.82007C716.747 5.55341 716.023 5.42007 715.085 5.42007H712.089V9.82007H714.944ZM715.045 16.3401C716.063 16.3401 716.888 16.1667 717.518 15.8201C718.148 15.4734 718.463 14.8467 718.463 13.9401C718.463 13.0334 718.168 12.4067 717.578 12.0601C717.002 11.7001 716.084 11.5201 714.824 11.5201H712.089V16.3401H715.045Z" fill="black" fill-opacity="0.25" style="fill:black;fill-opacity:0.25;"/>
<path d="M686.115 3.70007H695.042V5.42007H688.005V9.76007H693.977V11.4601H688.005V16.3401H695.143V18.0401H686.115V3.70007Z" fill="black" fill-opacity="0.25" style="fill:black;fill-opacity:0.25;"/>
<path d="M669.012 5.44007V3.70007H679.809V5.44007H675.365V18.0401H673.455V5.44007H669.012Z" fill="black" fill-opacity="0.25" style="fill:black;fill-opacity:0.25;"/>
<path d="M656.61 2.92C655.47 2.92 654.626 2.64 654.076 2.08C653.527 1.50667 653.252 0.813334 653.252 0H655.021C655.021 0.573334 655.162 0.986667 655.443 1.24C655.725 1.49333 656.114 1.62 656.61 1.62C657.106 1.62 657.488 1.49333 657.756 1.24C658.037 0.986667 658.178 0.573334 658.178 0H659.947C659.947 0.813334 659.672 1.50667 659.123 2.08C658.587 2.64 657.749 2.92 656.61 2.92ZM652.91 18.04H650.859V3.7H652.749V15.54L660.671 3.7H662.722V18.04H660.792V6.26L652.91 18.04Z" fill="black" fill-opacity="0.25" style="fill:black;fill-opacity:0.25;"/>
<path d="M644.74 18.0401H642.729L641.241 13.9401H634.868L633.4 18.0401H631.631L636.758 3.70007H639.573L644.74 18.0401ZM635.491 12.2401H640.638L638.065 5.10007L635.491 12.2401Z" fill="black" fill-opacity="0.25" style="fill:black;fill-opacity:0.25;"/>
<path d="M621.856 18.24C620.435 18.24 619.189 17.9467 618.116 17.36C617.058 16.7734 616.233 15.9334 615.643 14.84C615.054 13.7334 614.759 12.4134 614.759 10.88C614.759 8.57335 615.369 6.77335 616.588 5.48002C617.808 4.17335 619.551 3.52002 621.816 3.52002C622.794 3.52002 623.652 3.62669 624.389 3.84002C625.14 4.04002 625.743 4.28002 626.199 4.56002V6.36002C625.596 5.97335 624.899 5.68669 624.108 5.50002C623.331 5.31335 622.56 5.22002 621.796 5.22002C620.107 5.22002 618.854 5.69335 618.036 6.64002C617.218 7.58669 616.81 9.00002 616.81 10.88C616.81 12.7734 617.252 14.1934 618.137 15.14C619.021 16.0734 620.315 16.54 622.017 16.54C622.754 16.54 623.471 16.44 624.168 16.24C624.879 16.04 625.555 15.7 626.199 15.22V17.02C625.81 17.3267 625.241 17.6067 624.49 17.86C623.753 18.1134 622.875 18.24 621.856 18.24Z" fill="black" fill-opacity="0.25" style="fill:black;fill-opacity:0.25;"/>
<path d="M601.438 18.0401H599.427L597.94 13.9401H591.566L590.098 18.0401H588.329L593.456 3.70007H596.271L601.438 18.0401ZM592.189 12.2401H597.336L594.763 5.10007L592.189 12.2401Z" fill="black" fill-opacity="0.25" style="fill:black;fill-opacity:0.25;"/>
<path d="M571.045 3.70007H572.935V10.0801H580.334V3.70007H582.244V18.0401H580.334V11.7801H572.935V18.0401H571.045V3.70007Z" fill="black" fill-opacity="0.25" style="fill:black;fill-opacity:0.25;"/>
<path d="M550.865 20.82C551.951 19.62 552.742 18.2467 553.238 16.7C553.747 15.1534 554.002 13.5334 554.002 11.84C554.002 10.7067 553.888 9.59338 553.66 8.50004C553.445 7.39338 553.104 6.36004 552.635 5.40004C552.179 4.44004 551.589 3.61338 550.865 2.92004H552.614C553.298 3.64004 553.868 4.48671 554.323 5.46004C554.793 6.42004 555.141 7.45338 555.369 8.56004C555.597 9.65338 555.711 10.7667 555.711 11.9C555.711 13.5934 555.449 15.2067 554.927 16.74C554.417 18.2734 553.647 19.6334 552.614 20.82H550.865Z" fill="black" fill-opacity="0.25" style="fill:black;fill-opacity:0.25;"/>
<path d="M545.771 18.0401H543.76L542.273 13.9401H535.899L534.431 18.0401H532.662L537.789 3.70007H540.604L545.771 18.0401ZM536.522 12.2401H541.669L539.096 5.10007L536.522 12.2401Z" fill="black" fill-opacity="0.25" style="fill:black;fill-opacity:0.25;"/>
<path d="M519.291 15.8601H518.467H518.447L518.467 15.8401L514.104 6.34007V18.0401H512.314V3.70007H514.948L519.432 13.7601L524.116 3.70007H526.569V18.0401H524.659V6.50007L520.236 15.8401L519.291 15.8601Z" fill="black" fill-opacity="0.25" style="fill:black;fill-opacity:0.25;"/>
<path d="M498.826 2.92C497.687 2.92 496.843 2.64 496.293 2.08C495.744 1.50667 495.469 0.813334 495.469 0H497.238C497.238 0.573334 497.379 0.986667 497.66 1.24C497.942 1.49333 498.33 1.62 498.826 1.62C499.322 1.62 499.704 1.49333 499.972 1.24C500.254 0.986667 500.395 0.573334 500.395 0H502.164C502.164 0.813334 501.889 1.50667 501.34 2.08C500.803 2.64 499.966 2.92 498.826 2.92ZM495.127 18.04H493.076V3.7H494.966V15.54L502.888 3.7H504.939V18.04H503.008V6.26L495.127 18.04Z" fill="black" fill-opacity="0.25" style="fill:black;fill-opacity:0.25;"/>
<path d="M486.958 18.0401H484.947L483.459 13.9401H477.086L475.618 18.0401H473.849L478.976 3.70007H481.79L486.958 18.0401ZM477.709 12.2401H482.856L480.282 5.10007L477.709 12.2401Z" fill="black" fill-opacity="0.25" style="fill:black;fill-opacity:0.25;"/>
<path d="M463.095 18.24C462.023 18.24 461.092 18.1067 460.301 17.84C459.523 17.5734 458.954 17.2934 458.592 17V15.2C459.838 16.0934 461.319 16.54 463.035 16.54C463.705 16.54 464.315 16.46 464.865 16.3C465.414 16.14 465.857 15.8734 466.192 15.5C466.527 15.1134 466.694 14.5934 466.694 13.94C466.694 13.0334 466.4 12.4 465.81 12.04C465.233 11.6667 464.369 11.48 463.216 11.48H461.145V9.88002H463.176C464.181 9.88002 464.945 9.66669 465.468 9.24002C465.991 8.80002 466.252 8.20002 466.252 7.44002C466.252 6.61335 465.977 6.03335 465.428 5.70002C464.878 5.36669 464.154 5.20002 463.256 5.20002C462.345 5.20002 461.514 5.30002 460.763 5.50002C460.026 5.70002 459.376 5.94669 458.813 6.24002V4.46002C459.255 4.23335 459.832 4.02002 460.542 3.82002C461.266 3.62002 462.177 3.52002 463.276 3.52002C464.778 3.52002 465.971 3.82669 466.855 4.44002C467.74 5.05335 468.182 6.01335 468.182 7.32002C468.182 8.16002 467.928 8.86002 467.418 9.42002C466.922 9.96669 466.192 10.3467 465.227 10.56C466.353 10.7067 467.21 11.0534 467.8 11.6C468.39 12.1467 468.685 12.9134 468.685 13.9C468.685 14.9134 468.43 15.74 467.921 16.38C467.425 17.02 466.755 17.4934 465.91 17.8C465.066 18.0934 464.128 18.24 463.095 18.24Z" fill="black" fill-opacity="0.25" style="fill:black;fill-opacity:0.25;"/>
<path d="M452.871 20.82H451.122C450.09 19.6334 449.312 18.2734 448.789 16.74C448.28 15.2067 448.025 13.5934 448.025 11.9C448.025 10.7667 448.139 9.65338 448.367 8.56004C448.595 7.45338 448.937 6.42004 449.393 5.46004C449.862 4.48671 450.438 3.64004 451.122 2.92004H452.871C452.147 3.61338 451.551 4.44004 451.081 5.40004C450.626 6.36004 450.284 7.39338 450.056 8.50004C449.842 9.59338 449.734 10.7067 449.734 11.84C449.734 13.5334 449.982 15.1534 450.478 16.7C450.988 18.2467 451.785 19.62 452.871 20.82Z" fill="black" fill-opacity="0.25" style="fill:black;fill-opacity:0.25;"/>
<path d="M433.941 18.0401H431.93L430.443 13.9401H424.069L422.601 18.0401H420.832L425.959 3.70007H428.774L433.941 18.0401ZM424.692 12.2401H429.839L427.266 5.10007L424.692 12.2401Z" fill="black" fill-opacity="0.25" style="fill:black;fill-opacity:0.25;"/>
<path d="M406.428 5.44007V3.70007H417.224V5.44007H412.781V18.0401H410.871V5.44007H406.428Z" fill="black" fill-opacity="0.25" style="fill:black;fill-opacity:0.25;"/>
<path d="M390.327 18.0401H388.276V3.70007H390.166V15.5401L398.088 3.70007H400.139V18.0401H398.209V6.26007L390.327 18.0401Z" fill="black" fill-opacity="0.25" style="fill:black;fill-opacity:0.25;"/>
<path d="M369.242 21.4401H367.533V16.3401H368.518C369.135 15.7801 369.591 14.9667 369.886 13.9001C370.18 12.8334 370.382 11.4667 370.489 9.80007C370.596 8.12007 370.676 6.08674 370.73 3.70007H379.918V16.3401H381.768V21.4401H380.019L379.818 18.0401H369.463L369.242 21.4401ZM370.71 16.3401H378.008V5.42007H372.499C372.459 7.44674 372.372 9.16674 372.238 10.5801C372.117 11.9934 371.93 13.1667 371.675 14.1001C371.434 15.0201 371.112 15.7667 370.71 16.3401Z" fill="black" fill-opacity="0.25" style="fill:black;fill-opacity:0.25;"/>
<path d="M352.883 3.70007H361.81V5.42007H354.773V9.76007H360.744V11.4601H354.773V16.3401H361.91V18.0401H352.883V3.70007Z" fill="black" fill-opacity="0.25" style="fill:black;fill-opacity:0.25;"/>
<path d="M336.59 3.70007H341.194C342.829 3.70007 344.096 4.04007 344.994 4.72007C345.906 5.38674 346.361 6.43341 346.361 7.86007C346.361 8.94007 346.133 9.82007 345.678 10.5001C345.235 11.1801 344.612 11.6801 343.808 12.0001C343.017 12.3067 342.092 12.4601 341.033 12.4601H338.48V18.0401H336.59V3.70007ZM341.033 10.7601C342.052 10.7601 342.876 10.5401 343.506 10.1001C344.136 9.66007 344.451 8.92007 344.451 7.88007C344.451 7.01341 344.17 6.38674 343.607 6.00007C343.044 5.61341 342.24 5.42007 341.194 5.42007H338.48V10.7601H341.033Z" fill="black" fill-opacity="0.25" style="fill:black;fill-opacity:0.25;"/>
<path d="M330.485 18.0401H328.133L323.106 11.9001H321.578V18.0401H319.688V3.70007H321.578V10.2001H322.986L328.133 3.70007H330.264L324.574 10.8601L330.485 18.0401Z" fill="black" fill-opacity="0.25" style="fill:black;fill-opacity:0.25;"/>
<path d="M304.254 3.70007V18.0401H302.344V12.3001H299.731L295.75 18.0401H293.438L297.8 11.9601C296.742 11.7334 295.931 11.2934 295.368 10.6401C294.805 9.98674 294.523 9.10007 294.523 7.98007C294.523 6.96674 294.744 6.14674 295.187 5.52007C295.629 4.89341 296.246 4.43341 297.036 4.14007C297.827 3.84674 298.739 3.70007 299.771 3.70007H304.254ZM299.57 10.6001H302.344V5.42007H299.771C298.819 5.42007 298.035 5.61341 297.418 6.00007C296.815 6.37341 296.514 7.03341 296.514 7.98007C296.514 8.87341 296.775 9.53341 297.298 9.96007C297.834 10.3867 298.591 10.6001 299.57 10.6001Z" fill="black" fill-opacity="0.25" style="fill:black;fill-opacity:0.25;"/>
<path d="M277.437 18.0401H275.386V3.70007H277.276V15.5401L285.197 3.70007H287.248V18.0401H285.318V6.26007L277.437 18.0401Z" fill="black" fill-opacity="0.25" style="fill:black;fill-opacity:0.25;"/>
<path d="M258.405 3.70007H263.291C264.873 3.70007 266.072 3.96674 266.89 4.50007C267.721 5.03341 268.136 5.93341 268.136 7.20007C268.136 8.22674 267.875 9.00674 267.352 9.54007C266.83 10.0601 266.133 10.4134 265.261 10.6001C266.374 10.7334 267.218 11.0601 267.795 11.5801C268.371 12.0867 268.659 12.8601 268.659 13.9001C268.659 14.8867 268.425 15.6867 267.955 16.3001C267.486 16.9134 266.843 17.3601 266.025 17.6401C265.208 17.9067 264.283 18.0401 263.251 18.0401H258.405V3.70007ZM263.15 9.82007C264.062 9.82007 264.799 9.62007 265.362 9.22007C265.938 8.80674 266.226 8.16674 266.226 7.30007C266.226 6.56674 265.972 6.07341 265.462 5.82007C264.953 5.55341 264.229 5.42007 263.291 5.42007H260.295V9.82007H263.15ZM263.251 16.3401C264.269 16.3401 265.094 16.1667 265.724 15.8201C266.354 15.4734 266.669 14.8467 266.669 13.9401C266.669 13.0334 266.374 12.4067 265.784 12.0601C265.208 11.7001 264.29 11.5201 263.03 11.5201H260.295V16.3401H263.251Z" fill="black" fill-opacity="0.25" style="fill:black;fill-opacity:0.25;"/>
<path d="M244.964 18.24C243.677 18.24 242.511 17.9534 241.465 17.38C240.42 16.8067 239.589 15.9734 238.972 14.88C238.369 13.7734 238.067 12.42 238.067 10.82C238.067 9.22002 238.369 7.88002 238.972 6.80002C239.589 5.70669 240.42 4.88669 241.465 4.34002C242.511 3.79335 243.677 3.52002 244.964 3.52002C246.277 3.52002 247.45 3.80002 248.482 4.36002C249.528 4.90669 250.352 5.72002 250.955 6.80002C251.558 7.88002 251.86 9.22669 251.86 10.84C251.86 12.4267 251.558 13.7734 250.955 14.88C250.352 15.9734 249.528 16.8067 248.482 17.38C247.45 17.9534 246.277 18.24 244.964 18.24ZM244.964 16.54C245.889 16.54 246.72 16.3534 247.457 15.98C248.194 15.6067 248.77 15.0067 249.186 14.18C249.615 13.34 249.829 12.24 249.829 10.88C249.829 9.50669 249.615 8.40669 249.186 7.58002C248.77 6.75335 248.194 6.15335 247.457 5.78002C246.72 5.40669 245.889 5.22002 244.964 5.22002C244.039 5.22002 243.208 5.40669 242.471 5.78002C241.747 6.15335 241.17 6.75335 240.741 7.58002C240.313 8.40669 240.098 9.50669 240.098 10.88C240.098 12.24 240.313 13.34 240.741 14.18C241.17 15.0067 241.747 15.6067 242.471 15.98C243.208 16.3534 244.039 16.54 244.964 16.54Z" fill="black" fill-opacity="0.25" style="fill:black;fill-opacity:0.25;"/>
<path d="M219.939 16.2201C220.596 16.2867 221.079 16.0801 221.387 15.6001C221.709 15.1201 221.95 14.4867 222.111 13.7001C222.312 12.7001 222.446 11.3667 222.513 9.70007C222.58 8.03341 222.627 6.03341 222.654 3.70007H231.54V18.0401H229.63V5.42007H224.443C224.403 7.35341 224.349 9.04007 224.282 10.4801C224.215 11.9067 224.088 13.1134 223.9 14.1001C223.739 14.8467 223.512 15.5334 223.217 16.1601C222.922 16.7867 222.513 17.2801 221.99 17.6401C221.467 18.0001 220.784 18.1601 219.939 18.1201V16.2201Z" fill="black" fill-opacity="0.25" style="fill:black;fill-opacity:0.25;"/>
<path d="M209.968 18.24C208.548 18.24 207.301 17.9467 206.229 17.36C205.17 16.7734 204.346 15.9334 203.756 14.84C203.166 13.7334 202.871 12.4134 202.871 10.88C202.871 8.57335 203.481 6.77335 204.701 5.48002C205.92 4.17335 207.663 3.52002 209.928 3.52002C210.907 3.52002 211.765 3.62669 212.502 3.84002C213.252 4.04002 213.856 4.28002 214.311 4.56002V6.36002C213.708 5.97335 213.011 5.68669 212.22 5.50002C211.443 5.31335 210.672 5.22002 209.908 5.22002C208.219 5.22002 206.966 5.69335 206.148 6.64002C205.331 7.58669 204.922 9.00002 204.922 10.88C204.922 12.7734 205.364 14.1934 206.249 15.14C207.134 16.0734 208.427 16.54 210.129 16.54C210.866 16.54 211.584 16.44 212.281 16.24C212.991 16.04 213.668 15.7 214.311 15.22V17.02C213.923 17.3267 213.353 17.6067 212.602 17.86C211.865 18.1134 210.987 18.24 209.968 18.24Z" fill="black" fill-opacity="0.25" style="fill:black;fill-opacity:0.25;"/>
<path d="M188.685 16.1601C189.516 16.2401 190.166 16.1201 190.635 15.8001C191.104 15.4667 191.493 15.0334 191.801 14.5001L186.453 3.70007H188.604L192.766 12.3401L196.365 3.70007H198.315L193.751 14.1601C193.376 15.0401 192.967 15.7801 192.525 16.3801C192.083 16.9801 191.553 17.4201 190.937 17.7001C190.334 17.9801 189.583 18.0934 188.685 18.0401V16.1601Z" fill="black" fill-opacity="0.25" style="fill:black;fill-opacity:0.25;"/>
<path d="M163.535 3.70007H172.462V5.42007H165.425V9.76007H171.396V11.4601H165.425V16.3401H172.563V18.0401H163.535V3.70007Z" fill="black" fill-opacity="0.25" style="fill:black;fill-opacity:0.25;"/>
<path d="M152.279 18.24C150.858 18.24 149.612 17.9467 148.539 17.36C147.48 16.7734 146.656 15.9334 146.066 14.84C145.477 13.7334 145.182 12.4134 145.182 10.88C145.182 8.57335 145.792 6.77335 147.011 5.48002C148.231 4.17335 149.974 3.52002 152.239 3.52002C153.217 3.52002 154.075 3.62669 154.812 3.84002C155.563 4.04002 156.166 4.28002 156.622 4.56002V6.36002C156.019 5.97335 155.322 5.68669 154.531 5.50002C153.753 5.31335 152.983 5.22002 152.219 5.22002C150.53 5.22002 149.277 5.69335 148.459 6.64002C147.641 7.58669 147.232 9.00002 147.232 10.88C147.232 12.7734 147.675 14.1934 148.559 15.14C149.444 16.0734 150.738 16.54 152.44 16.54C153.177 16.54 153.894 16.44 154.591 16.24C155.302 16.04 155.978 15.7 156.622 15.22V17.02C156.233 17.3267 155.663 17.6067 154.913 17.86C154.176 18.1134 153.298 18.24 152.279 18.24Z" fill="black" fill-opacity="0.25" style="fill:black;fill-opacity:0.25;"/>
<path d="M129.144 3.70007H134.029C135.611 3.70007 136.811 3.96674 137.628 4.50007C138.459 5.03341 138.875 5.93341 138.875 7.20007C138.875 8.22674 138.613 9.00674 138.091 9.54007C137.568 10.0601 136.871 10.4134 136 10.6001C137.112 10.7334 137.957 11.0601 138.533 11.5801C139.109 12.0867 139.397 12.8601 139.397 13.9001C139.397 14.8867 139.163 15.6867 138.694 16.3001C138.225 16.9134 137.581 17.3601 136.764 17.6401C135.946 17.9067 135.021 18.0401 133.989 18.0401H129.144V3.70007ZM133.889 9.82007C134.8 9.82007 135.537 9.62007 136.1 9.22007C136.677 8.80674 136.965 8.16674 136.965 7.30007C136.965 6.56674 136.71 6.07341 136.201 5.82007C135.691 5.55341 134.968 5.42007 134.029 5.42007H131.033V9.82007H133.889ZM133.989 16.3401C135.008 16.3401 135.832 16.1667 136.462 15.8201C137.092 15.4734 137.407 14.8467 137.407 13.9401C137.407 13.0334 137.112 12.4067 136.522 12.0601C135.946 11.7001 135.028 11.5201 133.768 11.5201H131.033V16.3401H133.989Z" fill="black" fill-opacity="0.25" style="fill:black;fill-opacity:0.25;"/>
<path d="M105.061 3.70007H113.987V5.42007H106.95V9.76007H112.922V11.4601H106.95V16.3401H114.088V18.0401H105.061V3.70007Z" fill="black" fill-opacity="0.25" style="fill:black;fill-opacity:0.25;"/>
<path d="M87.9561 5.44007V3.70007H98.7528V5.44007H94.3095V18.0401H92.3994V5.44007H87.9561Z" fill="black" fill-opacity="0.25" style="fill:black;fill-opacity:0.25;"/>
<path d="M71.8555 18.0401H69.8047V3.70007H71.6946V15.5401L79.6163 3.70007H81.6671V18.0401H79.7369V6.26007L71.8555 18.0401Z" fill="black" fill-opacity="0.25" style="fill:black;fill-opacity:0.25;"/>
<path d="M51.7588 7.70007V3.70007H53.6688V7.70007C53.6688 8.82007 53.9436 9.68007 54.4932 10.2801C55.0561 10.8801 55.8805 11.1801 56.9662 11.1801C57.623 11.1801 58.2529 11.1067 58.8561 10.9601C59.4593 10.8001 60.0155 10.5401 60.5249 10.1801V3.70007H62.4349V18.0401H60.5249V11.7801C59.9753 12.1267 59.399 12.3801 58.7958 12.5401C58.206 12.7001 57.5894 12.7801 56.9461 12.7801C55.2974 12.7801 54.0173 12.3667 53.1059 11.5401C52.2078 10.7134 51.7588 9.43341 51.7588 7.70007Z" fill="black" fill-opacity="0.25" style="fill:black;fill-opacity:0.25;"/>
<path d="M36.3997 16.1601C37.2307 16.2401 37.8808 16.1201 38.35 15.8001C38.8191 15.4667 39.2078 15.0334 39.5161 14.5001L34.168 3.70007H36.3193L40.4812 12.3401L44.0801 3.70007H46.0303L41.4663 14.1601C41.091 15.0401 40.6822 15.7801 40.2399 16.3801C39.7976 16.9801 39.2681 17.4201 38.6515 17.7001C38.0484 17.9801 37.2978 18.0934 36.3997 18.0401V16.1601Z" fill="black" fill-opacity="0.25" style="fill:black;fill-opacity:0.25;"/>
<path d="M23.0984 18.24C22.0261 18.24 21.0945 18.1067 20.3037 17.84C19.5263 17.5734 18.9566 17.2934 18.5947 17V15.2C19.8413 16.0934 21.3224 16.54 23.0381 16.54C23.7083 16.54 24.3182 16.46 24.8677 16.3C25.4173 16.14 25.8596 15.8734 26.1947 15.5C26.5298 15.1134 26.6973 14.5934 26.6973 13.94C26.6973 13.0334 26.4024 12.4 25.8127 12.04C25.2363 11.6667 24.3718 11.48 23.219 11.48H21.1482V9.88002H23.1788C24.1841 9.88002 24.9481 9.66669 25.4709 9.24002C25.9936 8.80002 26.255 8.20002 26.255 7.44002C26.255 6.61335 25.9802 6.03335 25.4307 5.70002C24.8811 5.36669 24.1573 5.20002 23.2592 5.20002C22.3478 5.20002 21.5168 5.30002 20.7661 5.50002C20.0289 5.70002 19.3788 5.94669 18.8159 6.24002V4.46002C19.2582 4.23335 19.8346 4.02002 20.545 3.82002C21.2688 3.62002 22.1802 3.52002 23.2794 3.52002C24.7806 3.52002 25.9735 3.82669 26.8582 4.44002C27.7428 5.05335 28.1851 6.01335 28.1851 7.32002C28.1851 8.16002 27.9305 8.86002 27.4211 9.42002C26.9252 9.96669 26.1947 10.3467 25.2296 10.56C26.3555 10.7067 27.2134 11.0534 27.8031 11.6C28.3929 12.1467 28.6878 12.9134 28.6878 13.9C28.6878 14.9134 28.4331 15.74 27.9238 16.38C27.4278 17.02 26.7576 17.4934 25.9132 17.8C25.0688 18.0934 24.1305 18.24 23.0984 18.24Z" fill="black" fill-opacity="0.25" style="fill:black;fill-opacity:0.25;"/>
<path d="M2.05078 18.0401H0V3.70007H1.88994V15.5401L9.81158 3.70007H11.8624V18.0401H9.93222V6.26007L2.05078 18.0401Z" fill="black" fill-opacity="0.25" style="fill:black;fill-opacity:0.25;"/>
</svg>
