<svg width="265" height="70" viewBox="0 0 265 70" fill="none" xmlns="http://www.w3.org/2000/svg">
<path d="M256.496 69.8607H255.069V59.8661H256.384V68.1183L261.894 59.8661H263.32V69.8607H261.978V61.6503L256.496 69.8607Z" fill="black" fill-opacity="0.25" style="fill:black;fill-opacity:0.25;"/>
<path d="M248.725 69.8607H247.089L243.593 65.5813H242.53V69.8607H241.216V59.8661H242.53V64.3964H243.509L247.089 59.8661H248.572L244.614 64.8564L248.725 69.8607Z" fill="black" fill-opacity="0.25" style="fill:black;fill-opacity:0.25;"/>
<path d="M231.289 69.9999C230.301 69.9999 229.434 69.7955 228.688 69.3866C227.951 68.9777 227.378 68.3923 226.968 67.6302C226.558 66.8589 226.353 65.9389 226.353 64.8702C226.353 63.2625 226.777 62.008 227.625 61.1065C228.474 60.1958 229.686 59.7405 231.261 59.7405C231.942 59.7405 232.538 59.8148 233.051 59.9635C233.573 60.1029 233.993 60.2702 234.31 60.4653V61.7199C233.89 61.4504 233.405 61.2506 232.855 61.1205C232.315 60.9904 231.779 60.9253 231.247 60.9253C230.072 60.9253 229.201 61.2552 228.632 61.915C228.063 62.5748 227.779 63.5599 227.779 64.8702C227.779 66.1898 228.087 67.1795 228.702 67.8393C229.317 68.4898 230.217 68.8151 231.401 68.8151C231.914 68.8151 232.412 68.7454 232.897 68.606C233.391 68.4666 233.862 68.2296 234.31 67.8951V69.1496C234.039 69.3634 233.643 69.5585 233.121 69.7351C232.608 69.9117 231.998 69.9999 231.289 69.9999Z" fill="black" fill-opacity="0.25" style="fill:black;fill-opacity:0.25;"/>
<path d="M212.887 69.8607H211.461V59.8661H212.775V68.1183L218.285 59.8661H219.712V69.8607H218.369V61.6503L212.887 69.8607Z" fill="black" fill-opacity="0.25" style="fill:black;fill-opacity:0.25;"/>
<path d="M198.031 59.8661H201.234C202.371 59.8661 203.252 60.1031 203.877 60.577C204.511 61.0417 204.828 61.7712 204.828 62.7655C204.828 63.5182 204.669 64.1316 204.352 64.6055C204.045 65.0795 203.611 65.4279 203.052 65.651C202.502 65.8647 201.858 65.9716 201.122 65.9716H199.346V69.8607H198.031V59.8661ZM201.122 64.7867C201.83 64.7867 202.404 64.6334 202.842 64.3267C203.28 64.0201 203.499 63.5043 203.499 62.7794C203.499 62.1754 203.303 61.7386 202.912 61.4691C202.52 61.1996 201.961 61.0649 201.234 61.0649H199.346V64.7867H201.122Z" fill="black" fill-opacity="0.25" style="fill:black;fill-opacity:0.25;"/>
<path d="M176.284 69.8607H174.857V59.8661H176.172V68.1183L181.682 59.8661H183.108V69.8607H181.766V61.6503L176.284 69.8607Z" fill="black" fill-opacity="0.25" style="fill:black;fill-opacity:0.25;"/>
<path d="M153.112 69.8607H151.686V59.8661H153V68.1183L158.51 59.8661H159.936V69.8607H158.594V61.6503L153.112 69.8607Z" fill="black" fill-opacity="0.25" style="fill:black;fill-opacity:0.25;"/>
<path d="M137.69 61.0788V59.8661H145.2V61.0788H142.11V69.8607H140.781V61.0788H137.69Z" fill="black" fill-opacity="0.25" style="fill:black;fill-opacity:0.25;"/>
<path d="M128.519 69.9999C127.53 69.9999 126.663 69.7955 125.917 69.3866C125.181 68.9777 124.608 68.3923 124.197 67.6302C123.787 66.8589 123.582 65.9389 123.582 64.8702C123.582 63.2625 124.006 62.008 124.855 61.1065C125.703 60.1958 126.915 59.7405 128.491 59.7405C129.171 59.7405 129.768 59.8148 130.281 59.9635C130.803 60.1029 131.222 60.2702 131.539 60.4653V61.7199C131.12 61.4504 130.635 61.2506 130.085 61.1205C129.544 60.9904 129.008 60.9253 128.477 60.9253C127.302 60.9253 126.43 61.2552 125.862 61.915C125.293 62.5748 125.008 63.5599 125.008 64.8702C125.008 66.1898 125.316 67.1795 125.931 67.8393C126.547 68.4898 127.446 68.8151 128.63 68.8151C129.143 68.8151 129.642 68.7454 130.127 68.606C130.621 68.4666 131.092 68.2296 131.539 67.8951V69.1496C131.269 69.3634 130.873 69.5585 130.351 69.7351C129.838 69.9117 129.227 69.9999 128.519 69.9999Z" fill="black" fill-opacity="0.25" style="fill:black;fill-opacity:0.25;"/>
<path d="M112.722 69.9999C111.827 69.9999 111.016 69.8001 110.289 69.4005C109.562 69.0009 108.984 68.4201 108.555 67.6581C108.136 66.8868 107.926 65.9436 107.926 64.8284C107.926 63.7132 108.136 62.7793 108.555 62.0266C108.984 61.2645 109.562 60.693 110.289 60.312C111.016 59.931 111.827 59.7405 112.722 59.7405C113.636 59.7405 114.452 59.9356 115.17 60.3259C115.897 60.707 116.47 61.2738 116.89 62.0266C117.309 62.7793 117.519 63.7179 117.519 64.8423C117.519 65.9482 117.309 66.8868 116.89 67.6581C116.47 68.4201 115.897 69.0009 115.17 69.4005C114.452 69.8001 113.636 69.9999 112.722 69.9999ZM112.722 68.8151C113.366 68.8151 113.944 68.685 114.457 68.4248C114.969 68.1646 115.37 67.7464 115.659 67.1702C115.958 66.5848 116.107 65.8181 116.107 64.8702C116.107 63.913 115.958 63.1464 115.659 62.5702C115.37 61.994 114.969 61.5758 114.457 61.3156C113.944 61.0554 113.366 60.9253 112.722 60.9253C112.079 60.9253 111.501 61.0554 110.988 61.3156C110.485 61.5758 110.084 61.994 109.786 62.5702C109.487 63.1464 109.338 63.913 109.338 64.8702C109.338 65.8181 109.487 66.5848 109.786 67.1702C110.084 67.7464 110.485 68.1646 110.988 68.4248C111.501 68.685 112.079 68.8151 112.722 68.8151Z" fill="black" fill-opacity="0.25" style="fill:black;fill-opacity:0.25;"/>
<path d="M93.499 59.8661H94.8136V64.3128H99.9598V59.8661H101.288V69.8607H99.9598V65.4976H94.8136V69.8607H93.499V59.8661Z" fill="black" fill-opacity="0.25" style="fill:black;fill-opacity:0.25;"/>
<path d="M74.4209 69.8607L78.4904 64.7728L74.6027 59.8661H76.0291L79.5252 64.3685H80.0846V59.8661H81.4131V64.3685H82.0005L85.4966 59.8661H86.937L83.0213 64.8007L87.1188 69.8607H85.5106L81.9865 65.4698H81.4131V69.8607H80.0846V65.4698H79.4833L75.9872 69.8607H74.4209Z" fill="black" fill-opacity="0.25" style="fill:black;fill-opacity:0.25;"/>
<path d="M64.5262 69.9999C63.6312 69.9999 62.8201 69.8001 62.0929 69.4005C61.3657 69.0009 60.7876 68.4201 60.3588 67.6581C59.9393 66.8868 59.7295 65.9436 59.7295 64.8284C59.7295 63.7132 59.9393 62.7793 60.3588 62.0266C60.7876 61.2645 61.3657 60.693 62.0929 60.312C62.8201 59.931 63.6312 59.7405 64.5262 59.7405C65.4398 59.7405 66.2556 59.9356 66.9734 60.3259C67.7006 60.707 68.274 61.2738 68.6935 62.0266C69.1131 62.7793 69.3228 63.7179 69.3228 64.8423C69.3228 65.9482 69.1131 66.8868 68.6935 67.6581C68.274 68.4201 67.7006 69.0009 66.9734 69.4005C66.2556 69.8001 65.4398 69.9999 64.5262 69.9999ZM64.5262 68.8151C65.1694 68.8151 65.7475 68.685 66.2602 68.4248C66.773 68.1646 67.1739 67.7464 67.4629 67.1702C67.7612 66.5848 67.9104 65.8181 67.9104 64.8702C67.9104 63.913 67.7612 63.1464 67.4629 62.5702C67.1739 61.994 66.773 61.5758 66.2602 61.3156C65.7475 61.0554 65.1694 60.9253 64.5262 60.9253C63.8829 60.9253 63.3049 61.0554 62.7921 61.3156C62.2886 61.5758 61.8878 61.994 61.5894 62.5702C61.2911 63.1464 61.1419 63.913 61.1419 64.8702C61.1419 65.8181 61.2911 66.5848 61.5894 67.1702C61.8878 67.7464 62.2886 68.1646 62.7921 68.4248C63.3049 68.685 63.8829 68.8151 64.5262 68.8151Z" fill="black" fill-opacity="0.25" style="fill:black;fill-opacity:0.25;"/>
<path d="M48.0245 68.3413H47.4511H47.4371L47.4511 68.3274L44.4165 61.7061V69.8607H43.1719V59.8661H45.0038L48.1224 66.8777L51.3808 59.8661H53.0869V69.8607H51.7583V61.8176L48.6818 68.3274L48.0245 68.3413Z" fill="black" fill-opacity="0.25" style="fill:black;fill-opacity:0.25;"/>
<path d="M32.4958 69.9999C31.75 69.9999 31.102 69.907 30.552 69.7212C30.0112 69.5353 29.615 69.3401 29.3633 69.1357V67.8811C30.2303 68.5038 31.2605 68.8151 32.4538 68.8151C32.92 68.8151 33.3442 68.7593 33.7264 68.6478C34.1087 68.5363 34.4163 68.3504 34.6494 68.0902C34.8825 67.8207 34.999 67.4583 34.999 67.003C34.999 66.371 34.7939 65.9296 34.3837 65.6787C33.9828 65.4185 33.3815 65.2884 32.5797 65.2884H31.1393V64.1732H32.5517C33.251 64.1732 33.7824 64.0245 34.146 63.7272C34.5096 63.4205 34.6914 63.0023 34.6914 62.4726C34.6914 61.8965 34.5002 61.4922 34.118 61.2599C33.7358 61.0276 33.2323 60.9114 32.6077 60.9114C31.9737 60.9114 31.3957 60.9811 30.8736 61.1205C30.3608 61.2599 29.9087 61.4318 29.5171 61.6362V60.3956C29.8248 60.2377 30.2257 60.089 30.7198 59.9496C31.2232 59.8102 31.8572 59.7405 32.6217 59.7405C33.6658 59.7405 34.4956 59.9542 35.1109 60.3817C35.7262 60.8092 36.0339 61.4783 36.0339 62.389C36.0339 62.9744 35.8567 63.4623 35.5025 63.8526C35.1575 64.2336 34.6494 64.4985 33.9782 64.6472C34.7613 64.7494 35.358 64.991 35.7682 65.372C36.1784 65.753 36.3835 66.2874 36.3835 66.9751C36.3835 67.6813 36.2063 68.2575 35.8521 68.7036C35.5071 69.1496 35.041 69.4795 34.4536 69.6933C33.8663 69.8977 33.2137 69.9999 32.4958 69.9999Z" fill="black" fill-opacity="0.25" style="fill:black;fill-opacity:0.25;"/>
<path d="M18.6365 69.9999C17.7415 69.9999 16.9304 69.8001 16.2032 69.4005C15.476 69.0009 14.898 68.4201 14.4691 67.6581C14.0496 66.8868 13.8398 65.9436 13.8398 64.8284C13.8398 63.7132 14.0496 62.7793 14.4691 62.0266C14.898 61.2645 15.476 60.693 16.2032 60.312C16.9304 59.931 17.7415 59.7405 18.6365 59.7405C19.5502 59.7405 20.3659 59.9356 21.0838 60.3259C21.811 60.707 22.3844 61.2738 22.8039 62.0266C23.2234 62.7793 23.4332 63.7179 23.4332 64.8423C23.4332 65.9482 23.2234 66.8868 22.8039 67.6581C22.3844 68.4201 21.811 69.0009 21.0838 69.4005C20.3659 69.8001 19.5502 69.9999 18.6365 69.9999ZM18.6365 68.8151C19.2798 68.8151 19.8578 68.685 20.3706 68.4248C20.8834 68.1646 21.2842 67.7464 21.5733 67.1702C21.8716 66.5848 22.0208 65.8181 22.0208 64.8702C22.0208 63.913 21.8716 63.1464 21.5733 62.5702C21.2842 61.994 20.8834 61.5758 20.3706 61.3156C19.8578 61.0554 19.2798 60.9253 18.6365 60.9253C17.9932 60.9253 17.4152 61.0554 16.9024 61.3156C16.399 61.5758 15.9981 61.994 15.6998 62.5702C15.4014 63.1464 15.2523 63.913 15.2523 64.8702C15.2523 65.8181 15.4014 66.5848 15.6998 67.1702C15.9981 67.7464 16.399 68.1646 16.9024 68.4248C17.4152 68.685 17.9932 68.8151 18.6365 68.8151Z" fill="black" fill-opacity="0.25" style="fill:black;fill-opacity:0.25;"/>
<path d="M0.586914 59.8661H3.98514C5.08525 59.8661 5.91966 60.052 6.48836 60.4237C7.06639 60.7954 7.3554 61.4227 7.3554 62.3055C7.3554 63.0211 7.1736 63.5647 6.81 63.9364C6.44641 64.2989 5.96161 64.5451 5.35562 64.6752C6.12943 64.7681 6.71677 64.9958 7.11766 65.3582C7.51855 65.7114 7.71899 66.2504 7.71899 66.9752C7.71899 67.6629 7.55584 68.2205 7.22954 68.648C6.90323 69.0754 6.45573 69.3868 5.88703 69.5819C5.31833 69.7678 4.67504 69.8607 3.95717 69.8607H0.586914V59.8661ZM3.88725 64.1316C4.52121 64.1316 5.03398 63.9922 5.42554 63.7134C5.82643 63.4253 6.02687 62.9792 6.02687 62.3752C6.02687 61.8641 5.84974 61.5202 5.49546 61.3437C5.14119 61.1578 4.63775 61.0649 3.98514 61.0649H1.90145V64.1316H3.88725ZM3.95717 68.6758C4.66572 68.6758 5.23908 68.555 5.67726 68.3134C6.11544 68.0718 6.33453 67.635 6.33453 67.0031C6.33453 66.3712 6.12943 65.9344 5.71921 65.6928C5.31833 65.4419 4.6797 65.3164 3.80334 65.3164H1.90145V68.6758H3.95717Z" fill="black" fill-opacity="0.25" style="fill:black;fill-opacity:0.25;"/>
<path d="M255.64 44.9309H261.849V46.1297H256.954V49.1546H261.108V50.3394H256.954V53.7407H261.919V54.9255H255.64V44.9309Z" fill="black" fill-opacity="0.25" style="fill:black;fill-opacity:0.25;"/>
<path d="M243.043 54.9255V44.9309H244.358V48.8061H246.343C247.453 48.8061 248.306 49.0384 248.902 49.5031C249.499 49.9677 249.797 50.7204 249.797 51.7613C249.797 52.5233 249.644 53.1366 249.336 53.6013C249.028 54.0659 248.599 54.4051 248.049 54.6189C247.499 54.8233 246.865 54.9255 246.148 54.9255H243.043ZM251.14 44.9448H252.469V54.9255H251.14V44.9448ZM246.148 53.7407C246.809 53.7407 247.35 53.6013 247.77 53.3225C248.199 53.0437 248.413 52.5419 248.413 51.817C248.413 51.1944 248.231 50.7344 247.868 50.437C247.504 50.1303 246.982 49.977 246.301 49.977H244.358V53.7407H246.148Z" fill="black" fill-opacity="0.25" style="fill:black;fill-opacity:0.25;"/>
<path d="M233.19 44.9309H236.589C237.689 44.9309 238.523 45.1168 239.092 45.4885C239.67 45.8602 239.959 46.4875 239.959 47.3703C239.959 48.0859 239.777 48.6295 239.414 49.0012C239.05 49.3637 238.565 49.6099 237.959 49.74C238.733 49.833 239.32 50.0606 239.721 50.4231C240.122 50.7762 240.323 51.3152 240.323 52.0401C240.323 52.7277 240.159 53.2853 239.833 53.7128C239.507 54.1403 239.059 54.4516 238.491 54.6467C237.922 54.8326 237.279 54.9255 236.561 54.9255H233.19V44.9309ZM236.491 49.1964C237.125 49.1964 237.638 49.057 238.029 48.7782C238.43 48.4901 238.63 48.0441 238.63 47.44C238.63 46.9289 238.453 46.5851 238.099 46.4085C237.745 46.2226 237.241 46.1297 236.589 46.1297H234.505V49.1964H236.491ZM236.561 53.7407C237.269 53.7407 237.843 53.6199 238.281 53.3782C238.719 53.1366 238.938 52.6999 238.938 52.0679C238.938 51.436 238.733 50.9992 238.323 50.7576C237.922 50.5067 237.283 50.3813 236.407 50.3813H234.505V53.7407H236.561Z" fill="black" fill-opacity="0.25" style="fill:black;fill-opacity:0.25;"/>
<path d="M225.8 55.0649C224.905 55.0649 224.093 54.8651 223.366 54.4655C222.639 54.0659 222.061 53.4851 221.632 52.723C221.213 51.9517 221.003 51.0085 221.003 49.8933C221.003 48.7782 221.213 47.8442 221.632 47.0915C222.061 46.3295 222.639 45.758 223.366 45.3769C224.093 44.9959 224.905 44.8054 225.8 44.8054C226.713 44.8054 227.529 45.0006 228.247 45.3909C228.974 45.7719 229.547 46.3388 229.967 47.0915C230.387 47.8442 230.596 48.7828 230.596 49.9073C230.596 51.0131 230.387 51.9517 229.967 52.723C229.547 53.4851 228.974 54.0659 228.247 54.4655C227.529 54.8651 226.713 55.0649 225.8 55.0649ZM225.8 53.88C226.443 53.88 227.021 53.7499 227.534 53.4897C228.046 53.2295 228.447 52.8113 228.736 52.2352C229.035 51.6497 229.184 50.883 229.184 49.9352C229.184 48.978 229.035 48.2113 228.736 47.6351C228.447 47.059 228.046 46.6408 227.534 46.3806C227.021 46.1204 226.443 45.9903 225.8 45.9903C225.156 45.9903 224.578 46.1204 224.066 46.3806C223.562 46.6408 223.161 47.059 222.863 47.6351C222.565 48.2113 222.415 48.978 222.415 49.9352C222.415 50.883 222.565 51.6497 222.863 52.2352C223.161 52.8113 223.562 53.2295 224.066 53.4897C224.578 53.7499 225.156 53.88 225.8 53.88Z" fill="black" fill-opacity="0.25" style="fill:black;fill-opacity:0.25;"/>
<path d="M215.922 55.0649C214.934 55.0649 214.067 54.8604 213.321 54.4515C212.584 54.0427 212.011 53.4572 211.601 52.6952C211.19 51.9239 210.985 51.0038 210.985 49.9352C210.985 48.3275 211.41 47.0729 212.258 46.1715C213.106 45.2608 214.318 44.8054 215.894 44.8054C216.574 44.8054 217.171 44.8798 217.684 45.0285C218.206 45.1678 218.626 45.3351 218.943 45.5303V46.7848C218.523 46.5153 218.038 46.3155 217.488 46.1854C216.947 46.0553 216.411 45.9903 215.88 45.9903C214.705 45.9903 213.834 46.3202 213.265 46.98C212.696 47.6398 212.412 48.6248 212.412 49.9352C212.412 51.2548 212.719 52.2445 213.335 52.9043C213.95 53.5548 214.85 53.88 216.034 53.88C216.547 53.88 217.045 53.8103 217.53 53.6709C218.024 53.5315 218.495 53.2946 218.943 52.96V54.2146C218.672 54.4283 218.276 54.6235 217.754 54.8C217.241 54.9766 216.63 55.0649 215.922 55.0649Z" fill="black" fill-opacity="0.25" style="fill:black;fill-opacity:0.25;"/>
<path d="M200.614 44.9309H201.929V49.3776H207.075V44.9309H208.404V54.9255H207.075V50.5625H201.929V54.9255H200.614V44.9309Z" fill="black" fill-opacity="0.25" style="fill:black;fill-opacity:0.25;"/>
<path d="M198.33 54.9255H196.931L195.896 52.0679H191.463L190.443 54.9255H189.212L192.778 44.9309H194.736L198.33 54.9255ZM191.897 50.8831H195.477L193.687 45.9067L191.897 50.8831Z" fill="black" fill-opacity="0.25" style="fill:black;fill-opacity:0.25;"/>
<path d="M179.147 44.9309H180.462V49.3776H185.608V44.9309H186.937V54.9255H185.608V50.5625H180.462V54.9255H179.147V44.9309Z" fill="black" fill-opacity="0.25" style="fill:black;fill-opacity:0.25;"/>
<path d="M169.165 54.9255H167.738V44.9309H169.053V53.1831L174.563 44.9309H175.989V54.9255H174.647V46.7152L169.165 54.9255Z" fill="black" fill-opacity="0.25" style="fill:black;fill-opacity:0.25;"/>
<path d="M156.239 49.9212C156.239 50.5903 156.374 51.1246 156.645 51.5242C156.915 51.9238 157.283 52.2166 157.749 52.4024C158.225 52.579 158.751 52.6812 159.33 52.7091V47.1472C158.751 47.1751 158.225 47.282 157.749 47.4678C157.283 47.6444 156.915 47.9325 156.645 48.3321C156.374 48.7224 156.239 49.2521 156.239 49.9212ZM163.749 49.9491C163.749 49.2707 163.613 48.7363 163.343 48.346C163.073 47.9464 162.704 47.6537 162.238 47.4678C161.772 47.282 161.245 47.1798 160.658 47.1612V52.723C161.245 52.6951 161.772 52.5929 162.238 52.4164C162.704 52.2305 163.073 51.9424 163.343 51.5521C163.613 51.1525 163.749 50.6182 163.749 49.9491ZM159.33 44.8193H160.658V46.1018C161.506 46.1204 162.266 46.2737 162.938 46.5618C163.618 46.8499 164.154 47.2727 164.546 47.8303C164.937 48.3786 165.133 49.0709 165.133 49.9072C165.133 50.7343 164.937 51.4313 164.546 51.9982C164.154 52.5558 163.618 52.9832 162.938 53.2806C162.266 53.5687 161.506 53.7267 160.658 53.7545V55.0649H159.33V53.7545C158.481 53.736 157.717 53.5873 157.036 53.3085C156.365 53.0204 155.833 52.5976 155.442 52.04C155.05 51.4824 154.854 50.7901 154.854 49.963C154.854 49.1266 155.05 48.4297 155.442 47.8721C155.833 47.3052 156.365 46.8777 157.036 46.5897C157.717 46.2923 158.481 46.1296 159.33 46.1018V44.8193Z" fill="black" fill-opacity="0.25" style="fill:black;fill-opacity:0.25;"/>
<path d="M141.805 54.9255H140.379V44.9309H141.693V53.1831L147.203 44.9309H148.63V54.9255H147.287V46.7152L141.805 54.9255Z" fill="black" fill-opacity="0.25" style="fill:black;fill-opacity:0.25;"/>
<path d="M132.988 55.0649C132.093 55.0649 131.282 54.8651 130.555 54.4655C129.828 54.0659 129.25 53.4851 128.821 52.723C128.401 51.9517 128.191 51.0085 128.191 49.8933C128.191 48.7782 128.401 47.8442 128.821 47.0915C129.25 46.3295 129.828 45.758 130.555 45.3769C131.282 44.9959 132.093 44.8054 132.988 44.8054C133.902 44.8054 134.717 45.0006 135.435 45.3909C136.163 45.7719 136.736 46.3388 137.155 47.0915C137.575 47.8442 137.785 48.7828 137.785 49.9073C137.785 51.0131 137.575 51.9517 137.155 52.723C136.736 53.4851 136.163 54.0659 135.435 54.4655C134.717 54.8651 133.902 55.0649 132.988 55.0649ZM132.988 53.88C133.631 53.88 134.209 53.7499 134.722 53.4897C135.235 53.2295 135.636 52.8113 135.925 52.2352C136.223 51.6497 136.372 50.883 136.372 49.9352C136.372 48.978 136.223 48.2113 135.925 47.6351C135.636 47.059 135.235 46.6408 134.722 46.3806C134.209 46.1204 133.631 45.9903 132.988 45.9903C132.345 45.9903 131.767 46.1204 131.254 46.3806C130.751 46.6408 130.35 47.059 130.051 47.6351C129.753 48.2113 129.604 48.978 129.604 49.9352C129.604 50.883 129.753 51.6497 130.051 52.2352C130.35 52.8113 130.751 53.2295 131.254 53.4897C131.767 53.7499 132.345 53.88 132.988 53.88Z" fill="black" fill-opacity="0.25" style="fill:black;fill-opacity:0.25;"/>
<path d="M118.995 44.9309H122.393C123.493 44.9309 124.328 45.1168 124.897 45.4885C125.475 45.8602 125.764 46.4875 125.764 47.3703C125.764 48.0859 125.582 48.6295 125.218 49.0012C124.855 49.3637 124.37 49.6099 123.764 49.74C124.538 49.833 125.125 50.0606 125.526 50.4231C125.927 50.7762 126.127 51.3152 126.127 52.0401C126.127 52.7277 125.964 53.2853 125.638 53.7128C125.311 54.1403 124.864 54.4516 124.295 54.6467C123.727 54.8326 123.083 54.9255 122.365 54.9255H118.995V44.9309ZM122.295 49.1964C122.929 49.1964 123.442 49.057 123.834 48.7782C124.235 48.4901 124.435 48.0441 124.435 47.44C124.435 46.9289 124.258 46.5851 123.904 46.4085C123.549 46.2226 123.046 46.1297 122.393 46.1297H120.31V49.1964H122.295ZM122.365 53.7407C123.074 53.7407 123.647 53.6199 124.085 53.3782C124.524 53.1366 124.743 52.6999 124.743 52.0679C124.743 51.436 124.538 50.9992 124.127 50.7576C123.727 50.5067 123.088 50.3813 122.212 50.3813H120.31V53.7407H122.365Z" fill="black" fill-opacity="0.25" style="fill:black;fill-opacity:0.25;"/>
<path d="M113.123 55.0649C112.135 55.0649 111.268 54.8604 110.522 54.4515C109.785 54.0427 109.212 53.4572 108.802 52.6952C108.392 51.9239 108.187 51.0038 108.187 49.9352C108.187 48.3275 108.611 47.0729 109.459 46.1715C110.308 45.2608 111.519 44.8054 113.095 44.8054C113.776 44.8054 114.372 44.8798 114.885 45.0285C115.407 45.1678 115.827 45.3351 116.144 45.5303V46.7848C115.724 46.5153 115.239 46.3155 114.689 46.1854C114.149 46.0553 113.612 45.9903 113.081 45.9903C111.906 45.9903 111.035 46.3202 110.466 46.98C109.897 47.6398 109.613 48.6248 109.613 49.9352C109.613 51.2548 109.921 52.2445 110.536 52.9043C111.151 53.5548 112.051 53.88 113.235 53.88C113.748 53.88 114.246 53.8103 114.731 53.6709C115.225 53.5315 115.696 53.2946 116.144 52.96V54.2146C115.873 54.4283 115.477 54.6235 114.955 54.8C114.442 54.9766 113.832 55.0649 113.123 55.0649Z" fill="black" fill-opacity="0.25" style="fill:black;fill-opacity:0.25;"/>
<path d="M95.9385 44.9309H102.148V46.1297H97.253V49.1546H101.406V50.3394H97.253V53.7407H102.217V54.9255H95.9385V44.9309Z" fill="black" fill-opacity="0.25" style="fill:black;fill-opacity:0.25;"/>
<path d="M85.999 46.1436V44.9309H93.5087V46.1436H90.4181V54.9255H89.0896V46.1436H85.999Z" fill="black" fill-opacity="0.25" style="fill:black;fill-opacity:0.25;"/>
<path d="M79.3306 44.3872C78.5382 44.3872 77.9508 44.1921 77.5686 43.8018C77.1863 43.4022 76.9952 42.9189 76.9952 42.3521H78.2258C78.2258 42.7516 78.3237 43.0397 78.5195 43.2163C78.7153 43.3929 78.9857 43.4812 79.3306 43.4812C79.6756 43.4812 79.9413 43.3929 80.1277 43.2163C80.3235 43.0397 80.4214 42.7516 80.4214 42.3521H81.652C81.652 42.9189 81.4609 43.4022 81.0787 43.8018C80.7058 44.1921 80.1231 44.3872 79.3306 44.3872ZM76.7575 54.9255H75.3311V44.9309H76.6456V53.183L82.1555 44.9309H83.5819V54.9255H82.2394V46.7151L76.7575 54.9255Z" fill="black" fill-opacity="0.25" style="fill:black;fill-opacity:0.25;"/>
<path d="M73.0329 54.9255H71.6345L70.5996 52.0679H66.1665L65.1457 54.9255H63.915L67.4811 44.9309H69.4389L73.0329 54.9255ZM66.6001 50.8831H70.1801L68.3901 45.9067L66.6001 50.8831Z" fill="black" fill-opacity="0.25" style="fill:black;fill-opacity:0.25;"/>
<path d="M55.1621 44.9309H58.5603C59.6604 44.9309 60.4949 45.1168 61.0636 45.4885C61.6416 45.8602 61.9306 46.4875 61.9306 47.3703C61.9306 48.0859 61.7488 48.6295 61.3852 49.0012C61.0216 49.3637 60.5368 49.6099 59.9308 49.74C60.7046 49.833 61.292 50.0606 61.6929 50.4231C62.0937 50.7762 62.2942 51.3152 62.2942 52.0401C62.2942 52.7277 62.131 53.2853 61.8047 53.7128C61.4784 54.1403 61.0309 54.4516 60.4622 54.6467C59.8935 54.8326 59.2502 54.9255 58.5324 54.9255H55.1621V44.9309ZM58.4624 49.1964C59.0964 49.1964 59.6092 49.057 60.0007 48.7782C60.4016 48.4901 60.6021 48.0441 60.6021 47.44C60.6021 46.9289 60.4249 46.5851 60.0707 46.4085C59.7164 46.2226 59.2129 46.1297 58.5603 46.1297H56.4767V49.1964H58.4624ZM58.5324 53.7407C59.2409 53.7407 59.8143 53.6199 60.2525 53.3782C60.6906 53.1366 60.9097 52.6999 60.9097 52.0679C60.9097 51.436 60.7046 50.9992 60.2944 50.7576C59.8935 50.5067 59.2549 50.3813 58.3785 50.3813H56.4767V53.7407H58.5324Z" fill="black" fill-opacity="0.25" style="fill:black;fill-opacity:0.25;"/>
<path d="M45.1657 54.9255H43.7393V44.9309H45.0538V53.1831L50.5637 44.9309H51.9901V54.9255H50.6476V46.7152L45.1657 54.9255Z" fill="black" fill-opacity="0.25" style="fill:black;fill-opacity:0.25;"/>
<path d="M32.7803 44.9309H34.0948V49.3776H39.2411V44.9309H40.5696V54.9255H39.2411V50.5625H34.0948V54.9255H32.7803V44.9309Z" fill="black" fill-opacity="0.25" style="fill:black;fill-opacity:0.25;"/>
<path d="M23.5977 44.9309H29.8068V46.1297H24.9122V49.1546H29.0656V50.3394H24.9122V53.7407H29.8767V54.9255H23.5977V44.9309Z" fill="black" fill-opacity="0.25" style="fill:black;fill-opacity:0.25;"/>
<path d="M12.1875 54.9255V44.9309H13.502V53.7407H18.3966V44.9309H19.7251V53.7407H21.0397V57.2952H19.809L19.6552 54.9255H12.1875Z" fill="black" fill-opacity="0.25" style="fill:black;fill-opacity:0.25;"/>
<path d="M4.79667 55.0649C3.90167 55.0649 3.09057 54.8651 2.36338 54.4655C1.63618 54.0659 1.05816 53.4851 0.629301 52.723C0.209767 51.9517 0 51.0085 0 49.8933C0 48.7782 0.209767 47.8442 0.629301 47.0915C1.05816 46.3295 1.63618 45.758 2.36338 45.3769C3.09057 44.9959 3.90167 44.8054 4.79667 44.8054C5.71033 44.8054 6.52609 45.0006 7.24396 45.3909C7.97115 45.7719 8.54451 46.3388 8.96405 47.0915C9.38358 47.8442 9.59335 48.7828 9.59335 49.9073C9.59335 51.0131 9.38358 51.9517 8.96405 52.723C8.54451 53.4851 7.97115 54.0659 7.24396 54.4655C6.52609 54.8651 5.71033 55.0649 4.79667 55.0649ZM4.79667 53.88C5.43996 53.88 6.01798 53.7499 6.53075 53.4897C7.04351 53.2295 7.4444 52.8113 7.73341 52.2352C8.03175 51.6497 8.18092 50.883 8.18092 49.9352C8.18092 48.978 8.03175 48.2113 7.73341 47.6351C7.4444 47.059 7.04351 46.6408 6.53075 46.3806C6.01798 46.1204 5.43996 45.9903 4.79667 45.9903C4.15339 45.9903 3.57536 46.1204 3.0626 46.3806C2.55916 46.6408 2.15827 47.059 1.85993 47.6351C1.5616 48.2113 1.41243 48.978 1.41243 49.9352C1.41243 50.883 1.5616 51.6497 1.85993 52.2352C2.15827 52.8113 2.55916 53.2295 3.0626 53.4897C3.57536 53.7499 4.15339 53.88 4.79667 53.88Z" fill="black" fill-opacity="0.25" style="fill:black;fill-opacity:0.25;"/>
<path d="M264.105 40.074C263.844 40.074 263.625 39.9904 263.448 39.8231C263.28 39.6465 263.196 39.4375 263.196 39.1958C263.196 38.9356 263.28 38.7219 263.448 38.5546C263.625 38.3873 263.844 38.3037 264.105 38.3037C264.366 38.3037 264.581 38.3873 264.749 38.5546C264.916 38.7219 265 38.9356 265 39.1958C265 39.4375 264.916 39.6465 264.749 39.8231C264.581 39.9904 264.366 40.074 264.105 40.074Z" fill="black" fill-opacity="0.25" style="fill:black;fill-opacity:0.25;"/>
<path d="M253.705 29.9957H259.914V31.1945H255.02V34.2194H259.173V35.4042H255.02V38.8055H259.984V39.9903H253.705V29.9957Z" fill="black" fill-opacity="0.25" style="fill:black;fill-opacity:0.25;"/>
<path d="M241.768 38.7218C242.224 38.7683 242.56 38.6243 242.774 38.2897C242.998 37.9552 243.166 37.5138 243.278 36.9655C243.418 36.2685 243.511 35.3392 243.558 34.1776C243.604 33.0159 243.637 31.622 243.655 29.9957H249.837V39.9903H248.508V31.1945H244.9C244.872 32.542 244.835 33.7176 244.788 34.7212C244.742 35.7156 244.653 36.5566 244.523 37.2443C244.411 37.7647 244.252 38.2433 244.047 38.68C243.842 39.1168 243.558 39.4606 243.194 39.7116C242.83 39.9625 242.355 40.074 241.768 40.0461V38.7218Z" fill="black" fill-opacity="0.25" style="fill:black;fill-opacity:0.25;"/>
<path d="M232.766 29.9957H238.975V31.1945H234.08V34.2194H238.234V35.4042H234.08V38.8055H239.045V39.9903H232.766V29.9957Z" fill="black" fill-opacity="0.25" style="fill:black;fill-opacity:0.25;"/>
<path d="M220.785 42.3601H219.597V38.8055H220.282C220.711 38.4152 221.028 37.8483 221.233 37.1049C221.438 36.3614 221.578 35.4089 221.652 34.2473C221.727 33.0764 221.783 31.6592 221.82 29.9957H228.211V38.8055H229.498V42.3601H228.281L228.141 39.9903H220.939L220.785 42.3601ZM221.806 38.8055H226.883V31.1945H223.051C223.023 32.6071 222.962 33.8059 222.869 34.7909C222.785 35.776 222.655 36.5938 222.477 37.2443C222.31 37.8855 222.086 38.4059 221.806 38.8055Z" fill="black" fill-opacity="0.25" style="fill:black;fill-opacity:0.25;"/>
<path d="M213.31 40.1298C212.564 40.1298 211.916 40.0369 211.366 39.851C210.826 39.6652 210.429 39.47 210.178 39.2656V38.011C211.045 38.6337 212.075 38.945 213.268 38.945C213.734 38.945 214.159 38.8892 214.541 38.7777C214.923 38.6662 215.231 38.4803 215.464 38.2201C215.697 37.9506 215.813 37.5882 215.813 37.1328C215.813 36.5009 215.608 36.0595 215.198 35.8086C214.797 35.5484 214.196 35.4183 213.394 35.4183H211.954V34.3031H213.366C214.065 34.3031 214.597 34.1544 214.96 33.8571C215.324 33.5504 215.506 33.1322 215.506 32.6025C215.506 32.0263 215.315 31.6221 214.932 31.3898C214.55 31.1574 214.047 31.0413 213.422 31.0413C212.788 31.0413 212.21 31.111 211.688 31.2504C211.175 31.3898 210.723 31.5617 210.332 31.7661V30.5255C210.639 30.3675 211.04 30.2188 211.534 30.0795C212.038 29.9401 212.672 29.8704 213.436 29.8704C214.48 29.8704 215.31 30.0841 215.925 30.5116C216.541 30.9391 216.848 31.6081 216.848 32.5189C216.848 33.1043 216.671 33.5922 216.317 33.9825C215.972 34.3635 215.464 34.6284 214.793 34.7771C215.576 34.8793 216.172 35.1209 216.583 35.5019C216.993 35.8829 217.198 36.4173 217.198 37.105C217.198 37.8112 217.021 38.3874 216.667 38.8335C216.322 39.2795 215.855 39.6094 215.268 39.8232C214.681 40.0276 214.028 40.1298 213.31 40.1298Z" fill="black" fill-opacity="0.25" style="fill:black;fill-opacity:0.25;"/>
<path d="M207.695 39.9903H206.297L205.262 37.1327H200.829L199.808 39.9903H198.577L202.143 29.9957H204.101L207.695 39.9903ZM201.262 35.9479H204.842L203.052 30.9715L201.262 35.9479Z" fill="black" fill-opacity="0.25" style="fill:black;fill-opacity:0.25;"/>
<path d="M190.232 29.9957H193.435C194.572 29.9957 195.453 30.2327 196.078 30.7066C196.712 31.1713 197.029 31.9008 197.029 32.8951C197.029 33.6479 196.87 34.2612 196.553 34.7352C196.246 35.2091 195.812 35.5576 195.253 35.7806C194.703 35.9944 194.06 36.1012 193.323 36.1012H191.547V39.9903H190.232V29.9957ZM193.323 34.9164C194.032 34.9164 194.605 34.763 195.043 34.4564C195.481 34.1497 195.7 33.6339 195.7 32.9091C195.7 32.305 195.505 31.8683 195.113 31.5988C194.721 31.3293 194.162 31.1945 193.435 31.1945H191.547V34.9164H193.323Z" fill="black" fill-opacity="0.25" style="fill:black;fill-opacity:0.25;"/>
<path d="M176.958 38.4709H176.385H176.371L176.385 38.457L173.35 31.8357V39.9903H172.105V29.9957H173.937L177.056 37.0073L180.314 29.9957H182.02V39.9903H180.692V31.9473L177.615 38.457L176.958 38.4709Z" fill="black" fill-opacity="0.25" style="fill:black;fill-opacity:0.25;"/>
<path d="M162.21 29.9957H168.419V31.1945H163.525V34.2194H167.678V35.4042H163.525V38.8055H168.489V39.9903H162.21V29.9957Z" fill="black" fill-opacity="0.25" style="fill:black;fill-opacity:0.25;"/>
<path d="M146.7 39.9903V29.9957H148.015V38.8055H151.483V29.9957H152.839V38.8055H156.322V29.9957H157.65V38.8055H158.909V42.3601H157.706L157.552 39.9903H146.7Z" fill="black" fill-opacity="0.25" style="fill:black;fill-opacity:0.25;"/>
<path d="M138.887 40.1298C138.085 40.1298 137.358 39.9626 136.705 39.628C136.052 39.2842 135.521 38.7777 135.111 38.1086C134.7 37.4395 134.458 36.6124 134.384 35.6274H132.915V39.9904H131.601V29.9958H132.915V34.4425H134.397C134.463 33.4575 134.7 32.6257 135.111 31.9473C135.521 31.269 136.052 30.7532 136.705 30.4001C137.358 30.0469 138.085 29.8704 138.887 29.8704C139.735 29.8704 140.499 30.0609 141.18 30.4419C141.861 30.8229 142.401 31.3944 142.802 32.1564C143.203 32.9092 143.403 33.8431 143.403 34.9583C143.403 36.0734 143.203 37.0167 142.802 37.788C142.401 38.55 141.861 39.1308 141.18 39.5304C140.499 39.93 139.735 40.1298 138.887 40.1298ZM138.887 38.945C139.483 38.945 140.015 38.8149 140.481 38.5547C140.947 38.2945 141.315 37.8763 141.585 37.3001C141.856 36.7146 141.991 35.948 141.991 35.0001C141.991 34.0429 141.856 33.2762 141.585 32.7001C141.315 32.1239 140.947 31.7057 140.481 31.4455C140.015 31.1853 139.483 31.0552 138.887 31.0552C138.299 31.0552 137.772 31.1853 137.306 31.4455C136.84 31.7057 136.472 32.1239 136.201 32.7001C135.931 33.2762 135.796 34.0429 135.796 35.0001C135.796 35.948 135.931 36.7146 136.201 37.3001C136.472 37.8763 136.84 38.2945 137.306 38.5547C137.772 38.8149 138.299 38.945 138.887 38.945Z" fill="black" fill-opacity="0.25" style="fill:black;fill-opacity:0.25;"/>
<path d="M121.981 38.68C122.559 38.7358 123.011 38.6521 123.337 38.4291C123.664 38.1968 123.934 37.8948 124.149 37.5231L120.429 29.9957H121.925L124.82 36.0176L127.323 29.9957H128.68L125.505 37.2861C125.244 37.8994 124.96 38.4152 124.652 38.8334C124.344 39.2515 123.976 39.5582 123.547 39.7534C123.128 39.9485 122.606 40.0275 121.981 39.9903V38.68Z" fill="black" fill-opacity="0.25" style="fill:black;fill-opacity:0.25;"/>
<path d="M110.757 29.9957H114.155C115.255 29.9957 116.09 30.1816 116.658 30.5533C117.236 30.925 117.525 31.5523 117.525 32.4351C117.525 33.1507 117.344 33.6943 116.98 34.0661C116.616 34.4285 116.132 34.6747 115.526 34.8049C116.299 34.8978 116.887 35.1255 117.288 35.4879C117.688 35.841 117.889 36.38 117.889 37.1049C117.889 37.7925 117.726 38.3501 117.399 38.7776C117.073 39.2051 116.626 39.5164 116.057 39.7116C115.488 39.8974 114.845 39.9903 114.127 39.9903H110.757V29.9957ZM114.057 34.2612C114.691 34.2612 115.204 34.1218 115.595 33.843C115.996 33.5549 116.197 33.1089 116.197 32.5048C116.197 31.9937 116.02 31.6499 115.665 31.4733C115.311 31.2875 114.808 31.1945 114.155 31.1945H112.071V34.2612H114.057ZM114.127 38.8055C114.836 38.8055 115.409 38.6847 115.847 38.4431C116.285 38.2014 116.504 37.7647 116.504 37.1327C116.504 36.5008 116.299 36.0641 115.889 35.8224C115.488 35.5715 114.85 35.4461 113.973 35.4461H112.071V38.8055H114.127Z" fill="black" fill-opacity="0.25" style="fill:black;fill-opacity:0.25;"/>
<path d="M100.119 31.2085V29.9957H107.629V31.2085H104.538V39.9903H103.21V31.2085H100.119Z" fill="black" fill-opacity="0.25" style="fill:black;fill-opacity:0.25;"/>
<path d="M94.3027 40.1298C93.3145 40.1298 92.4475 39.9254 91.7016 39.5165C90.9651 39.1076 90.3917 38.5221 89.9815 37.7601C89.5713 36.9888 89.3662 36.0688 89.3662 35.0001C89.3662 33.3924 89.7904 32.1379 90.6388 31.2364C91.4872 30.3257 92.6992 29.8704 94.2748 29.8704C94.9553 29.8704 95.552 29.9447 96.0648 30.0934C96.5869 30.2328 97.0064 30.4001 97.3234 30.5952V31.8498C96.9038 31.5803 96.419 31.3805 95.869 31.2504C95.3283 31.1203 94.7922 31.0552 94.2608 31.0552C93.0861 31.0552 92.2144 31.3851 91.6457 32.0449C91.077 32.7047 90.7926 33.6898 90.7926 35.0001C90.7926 36.3197 91.1003 37.3094 91.7156 37.9692C92.3309 38.6197 93.2306 38.945 94.4146 38.945C94.9274 38.945 95.4262 38.8753 95.9109 38.7359C96.4051 38.5965 96.8759 38.3595 97.3234 38.025V39.2795C97.053 39.4933 96.6568 39.6884 96.1347 39.865C95.6219 40.0415 95.0113 40.1298 94.3027 40.1298Z" fill="black" fill-opacity="0.25" style="fill:black;fill-opacity:0.25;"/>
<path d="M79.8076 31.2085V29.9957H87.3173V31.2085H84.2267V39.9903H82.8982V31.2085H79.8076Z" fill="black" fill-opacity="0.25" style="fill:black;fill-opacity:0.25;"/>
<path d="M70.7354 29.9957H76.9445V31.1945H72.0499V34.2194H76.2033V35.4042H72.0499V38.8055H77.0144V39.9903H70.7354V29.9957Z" fill="black" fill-opacity="0.25" style="fill:black;fill-opacity:0.25;"/>
<path d="M60.1836 29.9957H63.5818C64.6819 29.9957 65.5163 30.1816 66.085 30.5533C66.6631 30.925 66.9521 31.5523 66.9521 32.4351C66.9521 33.1507 66.7703 33.6943 66.4067 34.0661C66.0431 34.4285 65.5583 34.6747 64.9523 34.8049C65.7261 34.8978 66.3135 35.1255 66.7143 35.4879C67.1152 35.841 67.3157 36.38 67.3157 37.1049C67.3157 37.7925 67.1525 38.3501 66.8262 38.7776C66.4999 39.2051 66.0524 39.5164 65.4837 39.7116C64.915 39.8974 64.2717 39.9903 63.5539 39.9903H60.1836V29.9957ZM63.4839 34.2612C64.1179 34.2612 64.6307 34.1218 65.0222 33.843C65.4231 33.5549 65.6236 33.1089 65.6236 32.5048C65.6236 31.9937 65.4464 31.6499 65.0921 31.4733C64.7379 31.2875 64.2344 31.1945 63.5818 31.1945H61.4981V34.2612H63.4839ZM63.5539 38.8055C64.2624 38.8055 64.8358 38.6847 65.2739 38.4431C65.7121 38.2014 65.9312 37.7647 65.9312 37.1327C65.9312 36.5008 65.7261 36.0641 65.3159 35.8224C64.915 35.5715 64.2764 35.4461 63.4 35.4461H61.4981V38.8055H63.5539Z" fill="black" fill-opacity="0.25" style="fill:black;fill-opacity:0.25;"/>
<path d="M49.5459 31.2085V29.9957H57.0556V31.2085H53.965V39.9903H52.6365V31.2085H49.5459Z" fill="black" fill-opacity="0.25" style="fill:black;fill-opacity:0.25;"/>
<path d="M42.7019 40.1298C41.8069 40.1298 40.9958 39.93 40.2686 39.5304C39.5415 39.1308 38.9634 38.55 38.5346 37.788C38.115 37.0167 37.9053 36.0734 37.9053 34.9583C37.9053 33.8431 38.115 32.9092 38.5346 32.1564C38.9634 31.3944 39.5415 30.8229 40.2686 30.4419C40.9958 30.0609 41.8069 29.8704 42.7019 29.8704C43.6156 29.8704 44.4314 30.0655 45.1492 30.4558C45.8764 30.8368 46.4498 31.4037 46.8693 32.1564C47.2889 32.9092 47.4986 33.8478 47.4986 34.9722C47.4986 36.0781 47.2889 37.0167 46.8693 37.788C46.4498 38.55 45.8764 39.1308 45.1492 39.5304C44.4314 39.93 43.6156 40.1298 42.7019 40.1298ZM42.7019 38.945C43.3452 38.945 43.9233 38.8149 44.436 38.5547C44.9488 38.2945 45.3497 37.8763 45.6387 37.3001C45.937 36.7146 46.0862 35.948 46.0862 35.0001C46.0862 34.0429 45.937 33.2762 45.6387 32.7001C45.3497 32.1239 44.9488 31.7057 44.436 31.4455C43.9233 31.1853 43.3452 31.0552 42.7019 31.0552C42.0587 31.0552 41.4806 31.1853 40.9679 31.4455C40.4644 31.7057 40.0635 32.1239 39.7652 32.7001C39.4669 33.2762 39.3177 34.0429 39.3177 35.0001C39.3177 35.948 39.4669 36.7146 39.7652 37.3001C40.0635 37.8763 40.4644 38.2945 40.9679 38.5547C41.4806 38.8149 42.0587 38.945 42.7019 38.945Z" fill="black" fill-opacity="0.25" style="fill:black;fill-opacity:0.25;"/>
<path d="M30.4021 40.1298C29.5071 40.1298 28.696 39.93 27.9688 39.5304C27.2417 39.1308 26.6636 38.55 26.2348 37.788C25.8152 37.0167 25.6055 36.0734 25.6055 34.9583C25.6055 33.8431 25.8152 32.9092 26.2348 32.1564C26.6636 31.3944 27.2417 30.8229 27.9688 30.4419C28.696 30.0609 29.5071 29.8704 30.4021 29.8704C31.3158 29.8704 32.1316 30.0655 32.8494 30.4558C33.5766 30.8368 34.15 31.4037 34.5695 32.1564C34.989 32.9092 35.1988 33.8478 35.1988 34.9722C35.1988 36.0781 34.989 37.0167 34.5695 37.788C34.15 38.55 33.5766 39.1308 32.8494 39.5304C32.1316 39.93 31.3158 40.1298 30.4021 40.1298ZM30.4021 38.945C31.0454 38.945 31.6235 38.8149 32.1362 38.5547C32.649 38.2945 33.0499 37.8763 33.3389 37.3001C33.6372 36.7146 33.7864 35.948 33.7864 35.0001C33.7864 34.0429 33.6372 33.2762 33.3389 32.7001C33.0499 32.1239 32.649 31.7057 32.1362 31.4455C31.6235 31.1853 31.0454 31.0552 30.4021 31.0552C29.7589 31.0552 29.1808 31.1853 28.6681 31.4455C28.1646 31.7057 27.7637 32.1239 27.4654 32.7001C27.1671 33.2762 27.0179 34.0429 27.0179 35.0001C27.0179 35.948 27.1671 36.7146 27.4654 37.3001C27.7637 37.8763 28.1646 38.2945 28.6681 38.5547C29.1808 38.8149 29.7589 38.945 30.4021 38.945Z" fill="black" fill-opacity="0.25" style="fill:black;fill-opacity:0.25;"/>
<path d="M19.8262 40.1298C18.8379 40.1298 17.9709 39.9254 17.2251 39.5165C16.4885 39.1076 15.9152 38.5221 15.505 37.7601C15.0948 36.9888 14.8896 36.0688 14.8896 35.0001C14.8896 33.3924 15.3138 32.1379 16.1622 31.2364C17.0106 30.3257 18.2226 29.8704 19.7982 29.8704C20.4788 29.8704 21.0754 29.9447 21.5882 30.0934C22.1103 30.2328 22.5298 30.4001 22.8468 30.5952V31.8498C22.4273 31.5803 21.9425 31.3805 21.3924 31.2504C20.8517 31.1203 20.3156 31.0552 19.7842 31.0552C18.6095 31.0552 17.7378 31.3851 17.1691 32.0449C16.6004 32.7047 16.3161 33.6898 16.3161 35.0001C16.3161 36.3197 16.6237 37.3094 17.239 37.9692C17.8544 38.6197 18.754 38.945 19.938 38.945C20.4508 38.945 20.9496 38.8753 21.4344 38.7359C21.9285 38.5965 22.3993 38.3595 22.8468 38.025V39.2795C22.5764 39.4933 22.1802 39.6884 21.6581 39.865C21.1454 40.0415 20.5347 40.1298 19.8262 40.1298Z" fill="black" fill-opacity="0.25" style="fill:black;fill-opacity:0.25;"/>
<path d="M0.586914 29.9957H3.98514C5.08525 29.9957 5.91966 30.1816 6.48836 30.5533C7.06639 30.925 7.3554 31.5523 7.3554 32.4351C7.3554 33.1507 7.1736 33.6943 6.81 34.0661C6.44641 34.4285 5.96161 34.6747 5.35562 34.8049C6.12943 34.8978 6.71677 35.1255 7.11766 35.4879C7.51855 35.841 7.71899 36.38 7.71899 37.1049C7.71899 37.7925 7.55584 38.3501 7.22954 38.7776C6.90323 39.2051 6.45573 39.5164 5.88703 39.7116C5.31833 39.8974 4.67504 39.9903 3.95717 39.9903H0.586914V29.9957ZM3.88725 34.2612C4.52121 34.2612 5.03398 34.1218 5.42554 33.843C5.82643 33.5549 6.02687 33.1089 6.02687 32.5048C6.02687 31.9937 5.84974 31.6499 5.49546 31.4733C5.14119 31.2875 4.63775 31.1945 3.98514 31.1945H1.90145V34.2612H3.88725ZM3.95717 38.8055C4.66572 38.8055 5.23908 38.6847 5.67726 38.4431C6.11544 38.2014 6.33453 37.7647 6.33453 37.1327C6.33453 36.5008 6.12943 36.0641 5.71921 35.8224C5.31833 35.5715 4.6797 35.4461 3.80334 35.4461H1.90145V38.8055H3.95717Z" fill="black" fill-opacity="0.25" style="fill:black;fill-opacity:0.25;"/>
<path d="M255.455 15.0605H261.664V16.2593H256.77V19.2842H260.923V20.4691H256.77V23.8703H261.734V25.0552H255.455V15.0605Z" fill="black" fill-opacity="0.25" style="fill:black;fill-opacity:0.25;"/>
<path d="M243.558 16.2733V15.0605H251.067V16.2733H247.977V25.0552H246.648V16.2733H243.558Z" fill="black" fill-opacity="0.25" style="fill:black;fill-opacity:0.25;"/>
<path d="M234.931 14.5169C234.139 14.5169 233.551 14.3217 233.169 13.9314C232.787 13.5318 232.596 13.0486 232.596 12.4817H233.826C233.826 12.8813 233.924 13.1694 234.12 13.3459C234.316 13.5225 234.586 13.6108 234.931 13.6108C235.276 13.6108 235.542 13.5225 235.728 13.3459C235.924 13.1694 236.022 12.8813 236.022 12.4817H237.253C237.253 13.0486 237.062 13.5318 236.679 13.9314C236.306 14.3217 235.724 14.5169 234.931 14.5169ZM232.358 25.0551H230.932V15.0605H232.246V23.3127L237.756 15.0605H239.182V25.0551H237.84V16.8447L232.358 25.0551Z" fill="black" fill-opacity="0.25" style="fill:black;fill-opacity:0.25;"/>
<path d="M226.676 25.0552H225.278L224.243 22.1976H219.81L218.789 25.0552H217.559L221.125 15.0605H223.082L226.676 25.0552ZM220.244 21.0127H223.824L222.034 16.0363L220.244 21.0127Z" fill="black" fill-opacity="0.25" style="fill:black;fill-opacity:0.25;"/>
<path d="M210.76 25.1946C209.772 25.1946 208.904 24.9902 208.159 24.5813C207.422 24.1724 206.849 23.587 206.439 22.8249C206.028 22.0536 205.823 21.1336 205.823 20.0649C205.823 18.4572 206.247 17.2027 207.096 16.3013C207.944 15.3905 209.156 14.9352 210.732 14.9352C211.412 14.9352 212.009 15.0095 212.522 15.1582C213.044 15.2976 213.463 15.4649 213.78 15.66V16.9146C213.361 16.6451 212.876 16.4453 212.326 16.3152C211.785 16.1851 211.249 16.12 210.718 16.12C209.543 16.12 208.671 16.4499 208.103 17.1097C207.534 17.7695 207.25 18.7546 207.25 20.0649C207.25 21.3845 207.557 22.3742 208.173 23.034C208.788 23.6845 209.688 24.0098 210.872 24.0098C211.384 24.0098 211.883 23.9401 212.368 23.8007C212.862 23.6613 213.333 23.4243 213.78 23.0898V24.3443C213.51 24.5581 213.114 24.7532 212.592 24.9298C212.079 25.1064 211.468 25.1946 210.76 25.1946Z" fill="black" fill-opacity="0.25" style="fill:black;fill-opacity:0.25;"/>
<path d="M196.557 25.0552H195.159L194.124 22.1976H189.691L188.67 25.0552H187.439L191.006 15.0605H192.963L196.557 25.0552ZM190.124 21.0127H193.704L191.914 16.0363L190.124 21.0127Z" fill="black" fill-opacity="0.25" style="fill:black;fill-opacity:0.25;"/>
<path d="M175.418 15.0605H176.733V19.5072H181.879V15.0605H183.207V25.0552H181.879V20.6921H176.733V25.0552H175.418V15.0605Z" fill="black" fill-opacity="0.25" style="fill:black;fill-opacity:0.25;"/>
<path d="M161.381 26.9928C162.136 26.1564 162.686 25.1993 163.031 24.1213C163.385 23.0433 163.562 21.9142 163.562 20.734C163.562 19.9441 163.483 19.1681 163.325 18.4061C163.176 17.6348 162.938 16.9146 162.611 16.2455C162.295 15.5764 161.884 15.0002 161.381 14.517H162.597C163.073 15.0188 163.469 15.6089 163.786 16.2873C164.112 16.9564 164.355 17.6766 164.513 18.4479C164.672 19.2099 164.751 19.9859 164.751 20.7758C164.751 21.956 164.569 23.0805 164.206 24.1492C163.851 25.2178 163.315 26.1657 162.597 26.9928H161.381Z" fill="black" fill-opacity="0.25" style="fill:black;fill-opacity:0.25;"/>
<path d="M157.838 25.0552H156.439L155.404 22.1976H150.971L149.95 25.0552H148.72L152.286 15.0605H154.244L157.838 25.0552ZM151.405 21.0127H154.985L153.195 16.0363L151.405 21.0127Z" fill="black" fill-opacity="0.25" style="fill:black;fill-opacity:0.25;"/>
<path d="M139.421 23.5358H138.848H138.834L138.848 23.5218L135.813 16.9006V25.0552H134.568V15.0605H136.4L139.519 22.0721L142.777 15.0605H144.483V25.0552H143.155V17.0121L140.078 23.5218L139.421 23.5358Z" fill="black" fill-opacity="0.25" style="fill:black;fill-opacity:0.25;"/>
<path d="M125.186 14.5169C124.394 14.5169 123.806 14.3217 123.424 13.9314C123.042 13.5318 122.851 13.0486 122.851 12.4817H124.081C124.081 12.8813 124.179 13.1694 124.375 13.3459C124.571 13.5225 124.841 13.6108 125.186 13.6108C125.531 13.6108 125.797 13.5225 125.983 13.3459C126.179 13.1694 126.277 12.8813 126.277 12.4817H127.507C127.507 13.0486 127.316 13.5318 126.934 13.9314C126.561 14.3217 125.979 14.5169 125.186 14.5169ZM122.613 25.0551H121.187V15.0605H122.501V23.3127L128.011 15.0605H129.437V25.0551H128.095V16.8447L122.613 25.0551Z" fill="black" fill-opacity="0.25" style="fill:black;fill-opacity:0.25;"/>
<path d="M116.93 25.0552H115.532L114.497 22.1976H110.064L109.043 25.0552H107.812L111.379 15.0605H113.336L116.93 25.0552ZM110.498 21.0127H114.078L112.288 16.0363L110.498 21.0127Z" fill="black" fill-opacity="0.25" style="fill:black;fill-opacity:0.25;"/>
<path d="M100.333 25.1946C99.5869 25.1946 98.9389 25.1017 98.3889 24.9159C97.8481 24.73 97.4519 24.5348 97.2002 24.3304V23.0758C98.0672 23.6985 99.0974 24.0098 100.291 24.0098C100.757 24.0098 101.181 23.954 101.563 23.8425C101.946 23.731 102.253 23.5451 102.486 23.2849C102.719 23.0154 102.836 22.653 102.836 22.1977C102.836 21.5657 102.631 21.1243 102.221 20.8734C101.82 20.6132 101.218 20.4831 100.417 20.4831H98.9762V19.3679H100.389C101.088 19.3679 101.619 19.2192 101.983 18.9219C102.346 18.6152 102.528 18.197 102.528 17.6673C102.528 17.0912 102.337 16.6869 101.955 16.4546C101.573 16.2223 101.069 16.1061 100.445 16.1061C99.8106 16.1061 99.2326 16.1758 98.7105 16.3152C98.1978 16.4546 97.7456 16.6265 97.354 16.831V15.5903C97.6617 15.4324 98.0626 15.2837 98.5567 15.1443C99.0601 15.0049 99.6941 14.9352 100.459 14.9352C101.503 14.9352 102.333 15.1489 102.948 15.5764C103.563 16.0039 103.871 16.673 103.871 17.5837C103.871 18.1691 103.694 18.657 103.339 19.0473C102.994 19.4283 102.486 19.6932 101.815 19.8419C102.598 19.9441 103.195 20.1857 103.605 20.5667C104.015 20.9477 104.22 21.4821 104.22 22.1698C104.22 22.876 104.043 23.4522 103.689 23.8983C103.344 24.3443 102.878 24.6742 102.291 24.888C101.703 25.0924 101.051 25.1946 100.333 25.1946Z" fill="black" fill-opacity="0.25" style="fill:black;fill-opacity:0.25;"/>
<path d="M93.2218 26.9928H92.0052C91.2873 26.1657 90.7466 25.2178 90.383 24.1492C90.0287 23.0805 89.8516 21.956 89.8516 20.7758C89.8516 19.9859 89.9308 19.2099 90.0893 18.4479C90.2478 17.6766 90.4855 16.9564 90.8025 16.2873C91.1288 15.6089 91.5297 15.0188 92.0052 14.517H93.2218C92.7184 15.0002 92.3035 15.5764 91.9772 16.2455C91.6602 16.9146 91.4225 17.6348 91.264 18.4061C91.1148 19.1681 91.0402 19.9441 91.0402 20.734C91.0402 21.9142 91.2127 23.0433 91.5577 24.1213C91.9119 25.1993 92.4667 26.1564 93.2218 26.9928Z" fill="black" fill-opacity="0.25" style="fill:black;fill-opacity:0.25;"/>
<path d="M80.0544 25.0552H78.656L77.6211 22.1976H73.188L72.1672 25.0552H70.9365L74.5026 15.0605H76.4604L80.0544 25.0552ZM73.6215 21.0127H77.2016L75.4116 16.0363L73.6215 21.0127Z" fill="black" fill-opacity="0.25" style="fill:black;fill-opacity:0.25;"/>
<path d="M60.9189 16.2733V15.0605H68.4286V16.2733H65.338V25.0552H64.0095V16.2733H60.9189Z" fill="black" fill-opacity="0.25" style="fill:black;fill-opacity:0.25;"/>
<path d="M49.7194 25.0552H48.293V15.0605H49.6075V23.3127L55.1174 15.0605H56.5438V25.0552H55.2013V16.8448L49.7194 25.0552Z" fill="black" fill-opacity="0.25" style="fill:black;fill-opacity:0.25;"/>
<path d="M35.0539 27.4249H33.8652V23.8703H34.5505C34.9793 23.48 35.2963 22.9131 35.5014 22.1697C35.7065 21.4262 35.8464 20.4737 35.921 19.3121C35.9955 18.1412 36.0515 16.724 36.0888 15.0605H42.4797V23.8703H43.7662V27.4249H42.5496L42.4097 25.0552H35.2077L35.0539 27.4249ZM36.0748 23.8703H41.1511V16.2593H37.3194C37.2914 17.6719 37.2308 18.8707 37.1376 19.8557C37.0537 20.8408 36.9232 21.6586 36.746 22.3091C36.5782 22.9503 36.3545 23.4707 36.0748 23.8703Z" fill="black" fill-opacity="0.25" style="fill:black;fill-opacity:0.25;"/>
<path d="M23.6758 15.0605H29.8849V16.2593H24.9903V19.2842H29.1437V20.4691H24.9903V23.8703H29.9548V25.0552H23.6758V15.0605Z" fill="black" fill-opacity="0.25" style="fill:black;fill-opacity:0.25;"/>
<path d="M12.3428 15.0605H15.5452C16.6826 15.0605 17.5636 15.2975 18.1883 15.7715C18.8222 16.2361 19.1392 16.9656 19.1392 17.96C19.1392 18.7127 18.9807 19.326 18.6638 19.8C18.3561 20.2739 17.9226 20.6224 17.3632 20.8454C16.8131 21.0592 16.1699 21.166 15.4333 21.166H13.6573V25.0552H12.3428V15.0605ZM15.4333 19.9812C16.1419 19.9812 16.7153 19.8279 17.1534 19.5212C17.5916 19.2145 17.8107 18.6988 17.8107 17.9739C17.8107 17.3699 17.6149 16.9331 17.2234 16.6636C16.8318 16.3941 16.2724 16.2593 15.5452 16.2593H13.6573V19.9812H15.4333Z" fill="black" fill-opacity="0.25" style="fill:black;fill-opacity:0.25;"/>
<path d="M8.09657 25.0552H6.46039L2.96427 20.7757H1.90145V25.0552H0.586914V15.0605H1.90145V19.5909H2.88037L6.46039 15.0605H7.94275L3.98514 20.0509L8.09657 25.0552Z" fill="black" fill-opacity="0.25" style="fill:black;fill-opacity:0.25;"/>
<path d="M262.555 0.125488V10.1201H261.226V6.11947H259.408L256.639 10.1201H255.031L258.066 5.8825C257.329 5.72452 256.765 5.41785 256.374 4.96249C255.982 4.50713 255.786 3.88915 255.786 3.10854C255.786 2.40227 255.94 1.83075 256.248 1.39398C256.556 0.957211 256.984 0.636602 257.534 0.432156C258.085 0.227711 258.718 0.125488 259.436 0.125488H262.555ZM259.297 4.93461H261.226V1.32428H259.436C258.774 1.32428 258.229 1.45903 257.8 1.72853C257.381 1.98873 257.171 2.44874 257.171 3.10854C257.171 3.73117 257.353 4.19117 257.716 4.48855C258.089 4.78592 258.616 4.93461 259.297 4.93461Z" fill="black" fill-opacity="0.25" style="fill:black;fill-opacity:0.25;"/>
<path d="M241.104 10.1201H239.678V0.125488H240.992V8.37767L246.502 0.125488H247.929V10.1201H246.586V1.90974L241.104 10.1201Z" fill="black" fill-opacity="0.25" style="fill:black;fill-opacity:0.25;"/>
<path d="M225.071 0.125488H228.47C229.57 0.125488 230.404 0.311348 230.973 0.683067C231.551 1.05479 231.84 1.68206 231.84 2.5649C231.84 3.28046 231.658 3.8241 231.294 4.19582C230.931 4.55825 230.446 4.80451 229.84 4.93461C230.614 5.02754 231.201 5.25522 231.602 5.61765C232.003 5.97078 232.203 6.50977 232.203 7.23463C232.203 7.92231 232.04 8.47989 231.714 8.90737C231.388 9.33484 230.94 9.64616 230.371 9.84131C229.803 10.0272 229.159 10.1201 228.442 10.1201H225.071V0.125488ZM228.372 4.39097C229.006 4.39097 229.518 4.25158 229.91 3.97279C230.311 3.6847 230.511 3.23864 230.511 2.6346C230.511 2.12348 230.334 1.77964 229.98 1.60307C229.626 1.41721 229.122 1.32428 228.47 1.32428H226.386V4.39097H228.372ZM228.442 8.93525C229.15 8.93525 229.723 8.81444 230.162 8.57282C230.6 8.3312 230.819 7.89443 230.819 7.26251C230.819 6.63058 230.614 6.19381 230.204 5.95219C229.803 5.70128 229.164 5.57583 228.288 5.57583H226.386V8.93525H228.442Z" fill="black" fill-opacity="0.25" style="fill:black;fill-opacity:0.25;"/>
<path d="M212.925 10.2595C212.03 10.2595 211.218 10.0597 210.491 9.66007C209.764 9.26047 209.186 8.67965 208.757 7.91763C208.338 7.14631 208.128 6.20307 208.128 5.08791C208.128 3.97275 208.338 3.03881 208.757 2.28608C209.186 1.52405 209.764 0.952531 210.491 0.571518C211.218 0.190506 212.03 0 212.925 0C213.838 0 214.654 0.195153 215.372 0.585458C216.099 0.966471 216.672 1.53334 217.092 2.28608C217.512 3.03881 217.721 3.9774 217.721 5.10185C217.721 6.20772 217.512 7.14631 217.092 7.91763C216.672 8.67965 216.099 9.26047 215.372 9.66007C214.654 10.0597 213.838 10.2595 212.925 10.2595ZM212.925 9.07461C213.568 9.07461 214.146 8.9445 214.659 8.6843C215.171 8.4241 215.572 8.00591 215.861 7.42975C216.16 6.84429 216.309 6.07762 216.309 5.12973C216.309 4.17255 216.16 3.40588 215.861 2.82972C215.572 2.25355 215.171 1.83537 214.659 1.57516C214.146 1.31496 213.568 1.18486 212.925 1.18486C212.281 1.18486 211.703 1.31496 211.191 1.57516C210.687 1.83537 210.286 2.25355 209.988 2.82972C209.69 3.40588 209.54 4.17255 209.54 5.12973C209.54 6.07762 209.69 6.84429 209.988 7.42975C210.286 8.00591 210.687 8.4241 211.191 8.6843C211.703 8.9445 212.281 9.07461 212.925 9.07461Z" fill="black" fill-opacity="0.25" style="fill:black;fill-opacity:0.25;"/>
<path d="M192.722 8.85161C193.179 8.89807 193.514 8.75403 193.729 8.41948C193.952 8.08494 194.12 7.64352 194.232 7.09523C194.372 6.39826 194.465 5.46896 194.512 4.30733C194.558 3.14571 194.591 1.75176 194.61 0.125488H200.791V10.1201H199.462V1.32428H195.854C195.826 2.67177 195.789 3.84733 195.742 4.85097C195.696 5.84532 195.607 6.68634 195.477 7.37402C195.365 7.89443 195.206 8.37302 195.001 8.80979C194.796 9.24656 194.512 9.5904 194.148 9.84131C193.784 10.0922 193.309 10.2037 192.722 10.1759V8.85161Z" fill="black" fill-opacity="0.25" style="fill:black;fill-opacity:0.25;"/>
<path d="M182.99 10.2595C182.002 10.2595 181.135 10.055 180.389 9.64613C179.653 9.23723 179.079 8.65178 178.669 7.88975C178.259 7.11843 178.054 6.19843 178.054 5.12973C178.054 3.52204 178.478 2.26749 179.326 1.36607C180.175 0.455357 181.387 0 182.962 0C183.643 0 184.24 0.0743438 184.752 0.223031C185.274 0.362426 185.694 0.5297 186.011 0.724853V1.97941C185.591 1.70991 185.107 1.51011 184.556 1.38001C184.016 1.24991 183.48 1.18486 182.948 1.18486C181.774 1.18486 180.902 1.51476 180.333 2.17456C179.764 2.83436 179.48 3.81942 179.48 5.12973C179.48 6.44934 179.788 7.43904 180.403 8.09884C181.018 8.74935 181.918 9.07461 183.102 9.07461C183.615 9.07461 184.114 9.00491 184.598 8.86551C185.093 8.72612 185.563 8.48915 186.011 8.1546V9.40915C185.741 9.62289 185.344 9.81805 184.822 9.99461C184.309 10.1712 183.699 10.2595 182.99 10.2595Z" fill="black" fill-opacity="0.25" style="fill:black;fill-opacity:0.25;"/>
<path d="M165.39 8.80979C165.968 8.86555 166.42 8.78191 166.747 8.55888C167.073 8.32655 167.343 8.02453 167.558 7.65281L163.838 0.125488H165.334L168.229 6.14735L170.732 0.125488H172.089L168.914 7.41584C168.653 8.02918 168.369 8.54494 168.061 8.96312C167.754 9.38131 167.385 9.68798 166.956 9.88313C166.537 10.0783 166.015 10.1573 165.39 10.1201V8.80979Z" fill="black" fill-opacity="0.25" style="fill:black;fill-opacity:0.25;"/>
<path d="M142.303 0.125488H148.512V1.32428H143.617V4.34915H147.771V5.53401H143.617V8.93525H148.582V10.1201H142.303V0.125488Z" fill="black" fill-opacity="0.25" style="fill:black;fill-opacity:0.25;"/>
<path d="M131.677 10.2595C130.689 10.2595 129.821 10.055 129.076 9.64613C128.339 9.23723 127.766 8.65178 127.356 7.88975C126.945 7.11843 126.74 6.19843 126.74 5.12973C126.74 3.52204 127.164 2.26749 128.013 1.36607C128.861 0.455357 130.073 0 131.649 0C132.329 0 132.926 0.0743438 133.439 0.223031C133.961 0.362426 134.38 0.5297 134.697 0.724853V1.97941C134.278 1.70991 133.793 1.51011 133.243 1.38001C132.702 1.24991 132.166 1.18486 131.635 1.18486C130.46 1.18486 129.588 1.51476 129.02 2.17456C128.451 2.83436 128.167 3.81942 128.167 5.12973C128.167 6.44934 128.474 7.43904 129.09 8.09884C129.705 8.74935 130.605 9.07461 131.789 9.07461C132.301 9.07461 132.8 9.00491 133.285 8.86551C133.779 8.72612 134.25 8.48915 134.697 8.1546V9.40915C134.427 9.62289 134.031 9.81805 133.509 9.99461C132.996 10.1712 132.385 10.2595 131.677 10.2595Z" fill="black" fill-opacity="0.25" style="fill:black;fill-opacity:0.25;"/>
<path d="M112.788 0.125488H116.186C117.286 0.125488 118.121 0.311348 118.69 0.683067C119.268 1.05479 119.557 1.68206 119.557 2.5649C119.557 3.28046 119.375 3.8241 119.011 4.19582C118.648 4.55825 118.163 4.80451 117.557 4.93461C118.331 5.02754 118.918 5.25522 119.319 5.61765C119.72 5.97078 119.92 6.50977 119.92 7.23463C119.92 7.92231 119.757 8.47989 119.431 8.90737C119.104 9.33484 118.657 9.64616 118.088 9.84131C117.519 10.0272 116.876 10.1201 116.158 10.1201H112.788V0.125488ZM116.088 4.39097C116.722 4.39097 117.235 4.25158 117.627 3.97279C118.028 3.6847 118.228 3.23864 118.228 2.6346C118.228 2.12348 118.051 1.77964 117.697 1.60307C117.342 1.41721 116.839 1.32428 116.186 1.32428H114.103V4.39097H116.088ZM116.158 8.93525C116.867 8.93525 117.44 8.81444 117.878 8.57282C118.317 8.3312 118.536 7.89443 118.536 7.26251C118.536 6.63058 118.331 6.19381 117.92 5.95219C117.519 5.70128 116.881 5.57583 116.005 5.57583H114.103V8.93525H116.158Z" fill="black" fill-opacity="0.25" style="fill:black;fill-opacity:0.25;"/>
<path d="M90.4434 0.125488H96.6525V1.32428H91.7579V4.34915H95.9113V5.53401H91.7579V8.93525H96.7224V10.1201H90.4434V0.125488Z" fill="black" fill-opacity="0.25" style="fill:black;fill-opacity:0.25;"/>
<path d="M75.75 1.33822V0.125488H83.2597V1.33822H80.1691V10.1201H78.8406V1.33822H75.75Z" fill="black" fill-opacity="0.25" style="fill:black;fill-opacity:0.25;"/>
<path d="M61.7536 10.1201H60.3271V0.125488H61.6417V8.37767L67.1516 0.125488H68.578V10.1201H67.2355V1.90974L61.7536 10.1201Z" fill="black" fill-opacity="0.25" style="fill:black;fill-opacity:0.25;"/>
<path d="M44.9785 2.91339V0.125488H46.307V2.91339C46.307 3.694 46.4982 4.29339 46.8804 4.71158C47.272 5.12976 47.8453 5.33886 48.6005 5.33886C49.0573 5.33886 49.4955 5.28775 49.915 5.18552C50.3346 5.07401 50.7215 4.89279 51.0757 4.64188V0.125488H52.4043V10.1201H51.0757V5.75704C50.6935 5.99866 50.2926 6.17523 49.8731 6.28674C49.4629 6.39826 49.034 6.45402 48.5865 6.45402C47.4398 6.45402 46.5494 6.16593 45.9155 5.58977C45.2908 5.0136 44.9785 4.12147 44.9785 2.91339Z" fill="black" fill-opacity="0.25" style="fill:black;fill-opacity:0.25;"/>
<path d="M31.4995 8.80979C32.0776 8.86555 32.5297 8.78191 32.856 8.55888C33.1823 8.32655 33.4527 8.02453 33.6671 7.65281L29.9473 0.125488H31.4436L34.3384 6.14735L36.8416 0.125488H38.1981L35.0236 7.41584C34.7626 8.02918 34.4782 8.54494 34.1706 8.96312C33.8629 9.38131 33.4947 9.68798 33.0658 9.88313C32.6463 10.0783 32.1242 10.1573 31.4995 10.1201V8.80979Z" fill="black" fill-opacity="0.25" style="fill:black;fill-opacity:0.25;"/>
<path d="M19.4499 10.2595C18.7041 10.2595 18.0561 10.1665 17.5061 9.98067C16.9653 9.79481 16.5691 9.59966 16.3174 9.39522V8.14066C17.1844 8.76329 18.2146 9.07461 19.408 9.07461C19.8741 9.07461 20.2983 9.01885 20.6805 8.90733C21.0628 8.79582 21.3704 8.60996 21.6035 8.34975C21.8366 8.08026 21.9531 7.71783 21.9531 7.26247C21.9531 6.63055 21.748 6.18913 21.3378 5.93822C20.9369 5.67802 20.3356 5.54792 19.5338 5.54792H18.0934V4.43276H19.5058C20.2051 4.43276 20.7365 4.28407 21.1001 3.98669C21.4637 3.68002 21.6455 3.26184 21.6455 2.73214C21.6455 2.15597 21.4543 1.75173 21.0721 1.5194C20.6899 1.28708 20.1864 1.17092 19.5618 1.17092C18.9278 1.17092 18.3498 1.24061 17.8277 1.38001C17.3149 1.5194 16.8628 1.69132 16.4712 1.89577V0.655156C16.7789 0.497175 17.1798 0.348487 17.6739 0.209092C18.1773 0.0696973 18.8113 0 19.5758 0C20.6199 0 21.4497 0.213739 22.065 0.641217C22.6803 1.06869 22.988 1.73779 22.988 2.6485C22.988 3.23396 22.8108 3.72184 22.4566 4.11215C22.1116 4.49316 21.6035 4.75801 20.9323 4.9067C21.7154 5.00892 22.3121 5.25054 22.7223 5.63155C23.1325 6.01257 23.3376 6.54691 23.3376 7.23459C23.3376 7.94086 23.1605 8.51703 22.8062 8.96309C22.4612 9.40915 21.9951 9.73906 21.4077 9.95279C20.8204 10.1572 20.1678 10.2595 19.4499 10.2595Z" fill="black" fill-opacity="0.25" style="fill:black;fill-opacity:0.25;"/>
<path d="M2.01333 10.1201H0.586914V0.125488H1.90145V8.37767L7.41134 0.125488H8.83775V10.1201H7.49524V1.90974L2.01333 10.1201Z" fill="black" fill-opacity="0.25" style="fill:black;fill-opacity:0.25;"/>
</svg>
