<svg width="575" height="66" viewBox="0 0 575 66" fill="none" xmlns="http://www.w3.org/2000/svg">
<path d="M563.378 65.8007H561.338V51.5127H563.218V63.3098L571.099 51.5127H573.14V65.8007H571.22V54.0634L563.378 65.8007Z" fill="black" fill-opacity="0.25" style="fill:black;fill-opacity:0.25;"/>
<path d="M553.263 65.8007H550.923L545.922 59.683H544.402V65.8007H542.521V51.5127H544.402V57.9891H545.802L550.923 51.5127H553.043L547.382 58.6467L553.263 65.8007Z" fill="black" fill-opacity="0.25" style="fill:black;fill-opacity:0.25;"/>
<path d="M529.322 66C527.908 66 526.668 65.7078 525.601 65.1232C524.548 64.5387 523.728 63.7017 523.141 62.6124C522.554 61.5097 522.261 60.1945 522.261 58.6667C522.261 56.3684 522.867 54.5749 524.081 53.2863C525.295 51.9843 527.028 51.3334 529.282 51.3334C530.255 51.3334 531.109 51.4397 531.842 51.6522C532.589 51.8515 533.189 52.0906 533.643 52.3696V54.1631C533.042 53.7778 532.349 53.4922 531.562 53.3062C530.789 53.1202 530.022 53.0272 529.262 53.0272C527.582 53.0272 526.335 53.4988 525.521 54.4421C524.708 55.3853 524.301 56.7935 524.301 58.6667C524.301 60.5532 524.741 61.968 525.621 62.9113C526.501 63.8412 527.788 64.3062 529.482 64.3062C530.215 64.3062 530.929 64.2066 531.622 64.0073C532.329 63.808 533.002 63.4692 533.643 62.991V64.7845C533.256 65.09 532.689 65.369 531.942 65.6214C531.209 65.8738 530.335 66 529.322 66Z" fill="black" fill-opacity="0.25" style="fill:black;fill-opacity:0.25;"/>
<path d="M504.001 65.8007H501.961V51.5127H503.841V63.3098L511.723 51.5127H513.763V65.8007H511.843V54.0634L504.001 65.8007Z" fill="black" fill-opacity="0.25" style="fill:black;fill-opacity:0.25;"/>
<path d="M483.751 51.5127H488.332C489.959 51.5127 491.219 51.8515 492.112 52.529C493.019 53.1932 493.473 54.2361 493.473 55.6576C493.473 56.7337 493.246 57.6105 492.792 58.2881C492.352 58.9656 491.732 59.4638 490.932 59.7826C490.145 60.0882 489.225 60.2409 488.172 60.2409H485.631V65.8007H483.751V51.5127ZM488.172 58.5471C489.185 58.5471 490.005 58.3279 490.632 57.8895C491.259 57.4511 491.572 56.7138 491.572 55.6775C491.572 54.814 491.292 54.1896 490.732 53.8044C490.172 53.4191 489.372 53.2265 488.332 53.2265H485.631V58.5471H488.172Z" fill="black" fill-opacity="0.25" style="fill:black;fill-opacity:0.25;"/>
<path d="M454.645 65.8007H452.604V51.5127H454.485V63.3098L462.366 51.5127H464.406V65.8007H462.486V54.0634L454.645 65.8007Z" fill="black" fill-opacity="0.25" style="fill:black;fill-opacity:0.25;"/>
<path d="M423.499 65.8007H421.459V51.5127H423.339V63.3098L431.221 51.5127H433.261V65.8007H431.341V54.0634L423.499 65.8007Z" fill="black" fill-opacity="0.25" style="fill:black;fill-opacity:0.25;"/>
<path d="M402.442 53.2464V51.5127H413.184V53.2464H408.763V65.8007H406.863V53.2464H402.442Z" fill="black" fill-opacity="0.25" style="fill:black;fill-opacity:0.25;"/>
<path d="M390.323 66C388.909 66 387.669 65.7078 386.602 65.1232C385.549 64.5387 384.729 63.7017 384.142 62.6124C383.555 61.5097 383.262 60.1945 383.262 58.6667C383.262 56.3684 383.868 54.5749 385.082 53.2863C386.296 51.9843 388.029 51.3334 390.283 51.3334C391.256 51.3334 392.11 51.4397 392.843 51.6522C393.59 51.8515 394.19 52.0906 394.644 52.3696V54.1631C394.043 53.7778 393.35 53.4922 392.563 53.3062C391.79 53.1202 391.023 53.0272 390.263 53.0272C388.583 53.0272 387.336 53.4988 386.522 54.4421C385.709 55.3853 385.302 56.7935 385.302 58.6667C385.302 60.5532 385.742 61.968 386.622 62.9113C387.502 63.8412 388.789 64.3062 390.483 64.3062C391.216 64.3062 391.93 64.2066 392.623 64.0073C393.33 63.808 394.003 63.4692 394.644 62.991V64.7845C394.257 65.09 393.69 65.369 392.943 65.6214C392.21 65.8738 391.336 66 390.323 66Z" fill="black" fill-opacity="0.25" style="fill:black;fill-opacity:0.25;"/>
<path d="M368.728 66C367.448 66 366.288 65.7144 365.248 65.1431C364.208 64.5719 363.381 63.7416 362.767 62.6522C362.167 61.5496 361.867 60.2011 361.867 58.6069C361.867 57.0127 362.167 55.6776 362.767 54.6015C363.381 53.5121 364.208 52.6951 365.248 52.1504C366.288 51.6057 367.448 51.3334 368.728 51.3334C370.035 51.3334 371.202 51.6124 372.229 52.1703C373.269 52.715 374.089 53.5254 374.689 54.6015C375.289 55.6776 375.589 57.0194 375.589 58.6268C375.589 60.2078 375.289 61.5496 374.689 62.6522C374.089 63.7416 373.269 64.5719 372.229 65.1431C371.202 65.7144 370.035 66 368.728 66ZM368.728 64.3062C369.648 64.3062 370.475 64.1202 371.209 63.7482C371.942 63.3762 372.516 62.7784 372.929 61.9547C373.356 61.1178 373.569 60.0218 373.569 58.6667C373.569 57.2983 373.356 56.2023 372.929 55.3787C372.516 54.555 371.942 53.9572 371.209 53.5852C370.475 53.2132 369.648 53.0272 368.728 53.0272C367.808 53.0272 366.981 53.2132 366.248 53.5852C365.528 53.9572 364.954 54.555 364.528 55.3787C364.101 56.2023 363.888 57.2983 363.888 58.6667C363.888 60.0218 364.101 61.1178 364.528 61.9547C364.954 62.7784 365.528 63.3762 366.248 63.7482C366.981 64.1202 367.808 64.3062 368.728 64.3062Z" fill="black" fill-opacity="0.25" style="fill:black;fill-opacity:0.25;"/>
<path d="M342.231 51.5127H344.112V57.8696H351.473V51.5127H353.373V65.8007H351.473V59.5634H344.112V65.8007H342.231V51.5127Z" fill="black" fill-opacity="0.25" style="fill:black;fill-opacity:0.25;"/>
<path d="M315.943 65.8007L321.764 58.5272L316.203 51.5127H318.244L323.245 57.9493H324.045V51.5127H325.945V57.9493H326.785L331.786 51.5127H333.846L328.245 58.567L334.106 65.8007H331.806L326.765 59.5236H325.945V65.8007H324.045V59.5236H323.185L318.184 65.8007H315.943Z" fill="black" fill-opacity="0.25" style="fill:black;fill-opacity:0.25;"/>
<path d="M302.788 66C301.508 66 300.347 65.7144 299.307 65.1431C298.267 64.5719 297.44 63.7416 296.827 62.6522C296.227 61.5496 295.927 60.2011 295.927 58.6069C295.927 57.0127 296.227 55.6776 296.827 54.6015C297.44 53.5121 298.267 52.6951 299.307 52.1504C300.347 51.6057 301.508 51.3334 302.788 51.3334C304.095 51.3334 305.262 51.6124 306.288 52.1703C307.329 52.715 308.149 53.5254 308.749 54.6015C309.349 55.6776 309.649 57.0194 309.649 58.6268C309.649 60.2078 309.349 61.5496 308.749 62.6522C308.149 63.7416 307.329 64.5719 306.288 65.1431C305.262 65.7144 304.095 66 302.788 66ZM302.788 64.3062C303.708 64.3062 304.535 64.1202 305.268 63.7482C306.002 63.3762 306.575 62.7784 306.989 61.9547C307.415 61.1178 307.629 60.0218 307.629 58.6667C307.629 57.2983 307.415 56.2023 306.989 55.3787C306.575 54.555 306.002 53.9572 305.268 53.5852C304.535 53.2132 303.708 53.0272 302.788 53.0272C301.868 53.0272 301.041 53.2132 300.307 53.5852C299.587 53.9572 299.014 54.555 298.587 55.3787C298.16 56.2023 297.947 57.2983 297.947 58.6667C297.947 60.0218 298.16 61.1178 298.587 61.9547C299.014 62.7784 299.587 63.3762 300.307 63.7482C301.041 64.1202 301.868 64.3062 302.788 64.3062Z" fill="black" fill-opacity="0.25" style="fill:black;fill-opacity:0.25;"/>
<path d="M280.185 63.6286H279.365H279.345L279.365 63.6087L275.024 54.1431V65.8007H273.244V51.5127H275.865L280.325 61.5362L284.986 51.5127H287.426V65.8007H285.526V54.3025L281.125 63.6087L280.185 63.6286Z" fill="black" fill-opacity="0.25" style="fill:black;fill-opacity:0.25;"/>
<path d="M258.972 66C257.905 66 256.978 65.8672 256.191 65.6015C255.418 65.3358 254.851 65.0568 254.491 64.7645V62.9711C255.731 63.8611 257.205 64.3062 258.912 64.3062C259.579 64.3062 260.185 64.2265 260.732 64.0671C261.279 63.9076 261.719 63.6419 262.052 63.27C262.386 62.8847 262.553 62.3666 262.553 61.7156C262.553 60.8122 262.259 60.1812 261.672 59.8225C261.099 59.4505 260.239 59.2645 259.092 59.2645H257.032V57.6703H259.052C260.052 57.6703 260.812 57.4578 261.332 57.0326C261.852 56.5942 262.112 55.9964 262.112 55.2392C262.112 54.4155 261.839 53.8376 261.292 53.5055C260.746 53.1733 260.025 53.0073 259.132 53.0073C258.225 53.0073 257.398 53.1069 256.652 53.3062C255.918 53.5055 255.271 53.7512 254.711 54.0435V52.27C255.151 52.0441 255.725 51.8316 256.432 51.6323C257.152 51.433 258.058 51.3334 259.152 51.3334C260.646 51.3334 261.832 51.6389 262.713 52.25C263.593 52.8612 264.033 53.8177 264.033 55.1196C264.033 55.9566 263.779 56.654 263.273 57.212C262.779 57.7567 262.052 58.1353 261.092 58.3479C262.212 58.494 263.066 58.8394 263.653 59.3841C264.239 59.9288 264.533 60.6927 264.533 61.6758C264.533 62.6854 264.279 63.5091 263.773 64.1468C263.279 64.7845 262.613 65.2561 261.772 65.5616C260.932 65.8539 259.999 66 258.972 66Z" fill="black" fill-opacity="0.25" style="fill:black;fill-opacity:0.25;"/>
<path d="M240.149 66C238.869 66 237.709 65.7144 236.669 65.1431C235.628 64.5719 234.802 63.7416 234.188 62.6522C233.588 61.5496 233.288 60.2011 233.288 58.6069C233.288 57.0127 233.588 55.6776 234.188 54.6015C234.802 53.5121 235.628 52.6951 236.669 52.1504C237.709 51.6057 238.869 51.3334 240.149 51.3334C241.456 51.3334 242.623 51.6124 243.65 52.1703C244.69 52.715 245.51 53.5254 246.11 54.6015C246.71 55.6776 247.01 57.0194 247.01 58.6268C247.01 60.2078 246.71 61.5496 246.11 62.6522C245.51 63.7416 244.69 64.5719 243.65 65.1431C242.623 65.7144 241.456 66 240.149 66ZM240.149 64.3062C241.069 64.3062 241.896 64.1202 242.63 63.7482C243.363 63.3762 243.936 62.7784 244.35 61.9547C244.777 61.1178 244.99 60.0218 244.99 58.6667C244.99 57.2983 244.777 56.2023 244.35 55.3787C243.936 54.555 243.363 53.9572 242.63 53.5852C241.896 53.2132 241.069 53.0272 240.149 53.0272C239.229 53.0272 238.402 53.2132 237.669 53.5852C236.949 53.9572 236.375 54.555 235.949 55.3787C235.522 56.2023 235.308 57.2983 235.308 58.6667C235.308 60.0218 235.522 61.1178 235.949 61.9547C236.375 62.7784 236.949 63.3762 237.669 63.7482C238.402 64.1202 239.229 64.3062 240.149 64.3062Z" fill="black" fill-opacity="0.25" style="fill:black;fill-opacity:0.25;"/>
<path d="M215.332 51.5127H220.193C221.766 51.5127 222.96 51.7784 223.773 52.3098C224.6 52.8412 225.014 53.7379 225.014 55C225.014 56.023 224.754 56.8001 224.233 57.3315C223.713 57.8496 223.02 58.2017 222.153 58.3877C223.26 58.5205 224.1 58.846 224.674 59.3641C225.247 59.869 225.534 60.6395 225.534 61.6757C225.534 62.6588 225.3 63.4559 224.834 64.067C224.367 64.6781 223.727 65.1232 222.913 65.4022C222.1 65.6679 221.18 65.8007 220.153 65.8007H215.332V51.5127ZM220.053 57.6105C220.96 57.6105 221.693 57.4112 222.253 57.0127C222.827 56.6009 223.113 55.9632 223.113 55.0996C223.113 54.369 222.86 53.8774 222.353 53.625C221.846 53.3593 221.126 53.2265 220.193 53.2265H217.212V57.6105H220.053ZM220.153 64.1069C221.166 64.1069 221.986 63.9342 222.613 63.5888C223.24 63.2434 223.553 62.619 223.553 61.7156C223.553 60.8122 223.26 60.1878 222.673 59.8424C222.1 59.4837 221.186 59.3044 219.933 59.3044H217.212V64.1069H220.153Z" fill="black" fill-opacity="0.25" style="fill:black;fill-opacity:0.25;"/>
<path d="M187.37 51.5127H196.252V53.2265H189.25V57.5507H195.191V59.2446H189.25V64.1069H196.352V65.8007H187.37V51.5127Z" fill="black" fill-opacity="0.25" style="fill:black;fill-opacity:0.25;"/>
<path d="M164.55 65.8007V51.5127H166.43V57.0525H169.271C170.857 57.0525 172.078 57.3847 172.931 58.0489C173.785 58.7132 174.211 59.7893 174.211 61.2772C174.211 62.3666 173.991 63.2434 173.551 63.9076C173.111 64.5719 172.498 65.0568 171.711 65.3623C170.924 65.6546 170.017 65.8007 168.991 65.8007H164.55ZM176.132 51.5326H178.032V65.8007H176.132V51.5326ZM168.991 64.1069C169.937 64.1069 170.711 63.9076 171.311 63.5091C171.924 63.1105 172.231 62.3931 172.231 61.3569C172.231 60.4668 171.971 59.8092 171.451 59.3841C170.931 58.9457 170.184 58.7265 169.211 58.7265H166.43V64.1069H168.991Z" fill="black" fill-opacity="0.25" style="fill:black;fill-opacity:0.25;"/>
<path d="M145.656 51.5127H150.517C152.091 51.5127 153.284 51.7784 154.098 52.3098C154.924 52.8412 155.338 53.7379 155.338 55C155.338 56.023 155.078 56.8001 154.558 57.3315C154.038 57.8496 153.344 58.2017 152.477 58.3877C153.584 58.5205 154.424 58.846 154.998 59.3641C155.571 59.869 155.858 60.6395 155.858 61.6757C155.858 62.6588 155.625 63.4559 155.158 64.067C154.691 64.6781 154.051 65.1232 153.237 65.4022C152.424 65.6679 151.504 65.8007 150.477 65.8007H145.656V51.5127ZM150.377 57.6105C151.284 57.6105 152.017 57.4112 152.577 57.0127C153.151 56.6009 153.438 55.9632 153.438 55.0996C153.438 54.369 153.184 53.8774 152.677 53.625C152.171 53.3593 151.451 53.2265 150.517 53.2265H147.537V57.6105H150.377ZM150.477 64.1069C151.491 64.1069 152.311 63.9342 152.937 63.5888C153.564 63.2434 153.878 62.619 153.878 61.7156C153.878 60.8122 153.584 60.1878 152.997 59.8424C152.424 59.4837 151.511 59.3044 150.257 59.3044H147.537V64.1069H150.477Z" fill="black" fill-opacity="0.25" style="fill:black;fill-opacity:0.25;"/>
<path d="M130.284 66C129.004 66 127.844 65.7144 126.803 65.1431C125.763 64.5719 124.936 63.7416 124.323 62.6522C123.723 61.5496 123.423 60.2011 123.423 58.6069C123.423 57.0127 123.723 55.6776 124.323 54.6015C124.936 53.5121 125.763 52.6951 126.803 52.1504C127.844 51.6057 129.004 51.3334 130.284 51.3334C131.591 51.3334 132.758 51.6124 133.785 52.1703C134.825 52.715 135.645 53.5254 136.245 54.6015C136.845 55.6776 137.145 57.0194 137.145 58.6268C137.145 60.2078 136.845 61.5496 136.245 62.6522C135.645 63.7416 134.825 64.5719 133.785 65.1431C132.758 65.7144 131.591 66 130.284 66ZM130.284 64.3062C131.204 64.3062 132.031 64.1202 132.764 63.7482C133.498 63.3762 134.071 62.7784 134.485 61.9547C134.911 61.1178 135.125 60.0218 135.125 58.6667C135.125 57.2983 134.911 56.2023 134.485 55.3787C134.071 54.555 133.498 53.9572 132.764 53.5852C132.031 53.2132 131.204 53.0272 130.284 53.0272C129.364 53.0272 128.537 53.2132 127.804 53.5852C127.083 53.9572 126.51 54.555 126.083 55.3787C125.657 56.2023 125.443 57.2983 125.443 58.6667C125.443 60.0218 125.657 61.1178 126.083 61.9547C126.51 62.7784 127.083 63.3762 127.804 63.7482C128.537 64.1202 129.364 64.3062 130.284 64.3062Z" fill="black" fill-opacity="0.25" style="fill:black;fill-opacity:0.25;"/>
<path d="M111.355 66C109.942 66 108.701 65.7078 107.634 65.1232C106.581 64.5387 105.761 63.7017 105.174 62.6124C104.587 61.5097 104.294 60.1945 104.294 58.6667C104.294 56.3684 104.901 54.5749 106.114 53.2863C107.328 51.9843 109.061 51.3334 111.315 51.3334C112.289 51.3334 113.142 51.4397 113.876 51.6522C114.622 51.8515 115.222 52.0906 115.676 52.3696V54.1631C115.076 53.7778 114.382 53.4922 113.595 53.3062C112.822 53.1202 112.055 53.0272 111.295 53.0272C109.615 53.0272 108.368 53.4988 107.554 54.4421C106.741 55.3853 106.334 56.7935 106.334 58.6667C106.334 60.5532 106.774 61.968 107.654 62.9113C108.535 63.8412 109.822 64.3062 111.515 64.3062C112.249 64.3062 112.962 64.2066 113.655 64.0073C114.362 63.808 115.036 63.4692 115.676 62.991V64.7845C115.289 65.09 114.722 65.369 113.976 65.6214C113.242 65.8738 112.369 66 111.355 66Z" fill="black" fill-opacity="0.25" style="fill:black;fill-opacity:0.25;"/>
<path d="M84.6582 51.5127H86.5385V57.8696H93.8997V51.5127H95.8V65.8007H93.8997V59.5634H86.5385V65.8007H84.6582V51.5127Z" fill="black" fill-opacity="0.25" style="fill:black;fill-opacity:0.25;"/>
<path d="M76.59 65.8007H74.5896L73.1094 61.7156H66.7684L65.3081 65.8007H63.5479L68.6487 51.5127H71.4491L76.59 65.8007ZM67.3885 60.0217H72.5093L69.9489 52.9076L67.3885 60.0217Z" fill="black" fill-opacity="0.25" style="fill:black;fill-opacity:0.25;"/>
<path d="M44.3506 51.5127H46.2309V57.8696H53.5921V51.5127H55.4924V65.8007H53.5921V59.5634H46.2309V65.8007H44.3506V51.5127Z" fill="black" fill-opacity="0.25" style="fill:black;fill-opacity:0.25;"/>
<path d="M25.2708 65.8007H23.2305V51.5127H25.1108V63.3098L32.9921 51.5127H35.0324V65.8007H33.1121V54.0634L25.2708 65.8007Z" fill="black" fill-opacity="0.25" style="fill:black;fill-opacity:0.25;"/>
<path d="M1.98032 58.6467C1.98032 59.6033 2.17369 60.3672 2.56042 60.9384C2.94715 61.5097 3.4739 61.9281 4.14067 62.1938C4.82078 62.4463 5.57424 62.5924 6.40104 62.6323V54.6812C5.57424 54.721 4.82078 54.8738 4.14067 55.1395C3.4739 55.3919 2.94715 55.8038 2.56042 56.375C2.17369 56.933 1.98032 57.6902 1.98032 58.6467ZM12.7221 58.6866C12.7221 57.7168 12.5287 56.9529 12.142 56.3949C11.7552 55.8237 11.2285 55.4052 10.5617 55.1395C9.89494 54.8738 9.14149 54.7277 8.30135 54.7011V62.6522C9.14149 62.6123 9.89494 62.4662 10.5617 62.2138C11.2285 61.9481 11.7552 61.5362 12.142 60.9783C12.5287 60.407 12.7221 59.6431 12.7221 58.6866ZM6.40104 51.3533H8.30135V53.1866C9.51488 53.2132 10.6017 53.4324 11.5619 53.8442C12.5354 54.256 13.3022 54.8605 13.8623 55.6576C14.4223 56.4414 14.7024 57.4312 14.7024 58.6268C14.7024 59.8092 14.4223 60.8056 13.8623 61.6159C13.3022 62.413 12.5354 63.0242 11.5619 63.4493C10.6017 63.8611 9.51488 64.087 8.30135 64.1268V66H6.40104V64.1268C5.18751 64.1002 4.094 63.8877 3.12051 63.4891C2.16035 63.0773 1.40023 62.4728 0.840137 61.6757C0.280046 60.8786 0 59.8889 0 58.7065C0 57.5109 0.280046 56.5145 0.840137 55.7174C1.40023 54.907 2.16035 54.2959 3.12051 53.8841C4.094 53.4589 5.18751 53.2265 6.40104 53.1866V51.3533Z" fill="black" fill-opacity="0.25" style="fill:black;fill-opacity:0.25;"/>
<path d="M565.239 41.8878H563.198V27.5997H565.079V39.3968L572.96 27.5997H575V41.8878H573.08V30.1505L565.239 41.8878Z" fill="black" fill-opacity="0.25" style="fill:black;fill-opacity:0.25;"/>
<path d="M552.626 42.0869C551.346 42.0869 550.185 41.8013 549.145 41.2301C548.105 40.6588 547.278 39.8285 546.665 38.7391C546.065 37.6365 545.765 36.288 545.765 34.6938C545.765 33.0996 546.065 31.7645 546.665 30.6884C547.278 29.599 548.105 28.782 549.145 28.2373C550.185 27.6926 551.346 27.4203 552.626 27.4203C553.933 27.4203 555.099 27.6993 556.126 28.2572C557.166 28.8019 557.987 29.6123 558.587 30.6884C559.187 31.7645 559.487 33.1063 559.487 34.7138C559.487 36.2947 559.187 37.6365 558.587 38.7391C557.987 39.8285 557.166 40.6588 556.126 41.2301C555.099 41.8013 553.933 42.0869 552.626 42.0869ZM552.626 40.3931C553.546 40.3931 554.373 40.2071 555.106 39.8351C555.84 39.4632 556.413 38.8653 556.826 38.0417C557.253 37.2047 557.467 36.1087 557.467 34.7536C557.467 33.3853 557.253 32.2892 556.826 31.4656C556.413 30.6419 555.84 30.0441 555.106 29.6721C554.373 29.3001 553.546 29.1141 552.626 29.1141C551.706 29.1141 550.879 29.3001 550.145 29.6721C549.425 30.0441 548.852 30.6419 548.425 31.4656C547.998 32.2892 547.785 33.3853 547.785 34.7536C547.785 36.1087 547.998 37.2047 548.425 38.0417C548.852 38.8653 549.425 39.4632 550.145 39.8351C550.879 40.2071 551.706 40.3931 552.626 40.3931Z" fill="black" fill-opacity="0.25" style="fill:black;fill-opacity:0.25;"/>
<path d="M532.61 27.5997H537.471C539.045 27.5997 540.238 27.8654 541.052 28.3968C541.879 28.9282 542.292 29.825 542.292 31.087C542.292 32.11 542.032 32.8872 541.512 33.4186C540.992 33.9367 540.298 34.2887 539.431 34.4747C540.538 34.6076 541.378 34.9331 541.952 35.4512C542.525 35.956 542.812 36.7265 542.812 37.7628C542.812 38.7459 542.579 39.543 542.112 40.1541C541.645 40.7652 541.005 41.2102 540.192 41.4892C539.378 41.7549 538.458 41.8878 537.431 41.8878H532.61V27.5997ZM537.331 33.6976C538.238 33.6976 538.971 33.4983 539.531 33.0997C540.105 32.6879 540.392 32.0502 540.392 31.1867C540.392 30.456 540.138 29.9645 539.632 29.712C539.125 29.4463 538.405 29.3135 537.471 29.3135H534.491V33.6976H537.331ZM537.431 40.1939C538.445 40.1939 539.265 40.0212 539.892 39.6758C540.518 39.3304 540.832 38.706 540.832 37.8026C540.832 36.8992 540.538 36.2748 539.952 35.9294C539.378 35.5707 538.465 35.3914 537.211 35.3914H534.491V40.1939H537.431Z" fill="black" fill-opacity="0.25" style="fill:black;fill-opacity:0.25;"/>
<path d="M524.211 42.0869C522.797 42.0869 521.557 41.7947 520.49 41.2101C519.436 40.6256 518.616 39.7886 518.03 38.6993C517.443 37.5966 517.149 36.2814 517.149 34.7536C517.149 32.4553 517.756 30.6618 518.97 29.3732C520.183 28.0713 521.917 27.4203 524.171 27.4203C525.144 27.4203 525.997 27.5266 526.731 27.7391C527.478 27.9384 528.078 28.1775 528.531 28.4565V30.25C527.931 29.8647 527.238 29.5791 526.451 29.3931C525.677 29.2071 524.911 29.1141 524.151 29.1141C522.47 29.1141 521.223 29.5857 520.41 30.529C519.596 31.4722 519.19 32.8804 519.19 34.7536C519.19 36.6401 519.63 38.0549 520.51 38.9982C521.39 39.9281 522.677 40.3931 524.371 40.3931C525.104 40.3931 525.817 40.2935 526.511 40.0942C527.218 39.8949 527.891 39.5562 528.531 39.0779V40.8714C528.144 41.1769 527.578 41.4559 526.831 41.7083C526.098 41.9607 525.224 42.0869 524.211 42.0869Z" fill="black" fill-opacity="0.25" style="fill:black;fill-opacity:0.25;"/>
<path d="M499.629 27.5997H508.51V29.3135H501.509V33.6378H507.45V35.3316H501.509V40.1939H508.61V41.8878H499.629V27.5997Z" fill="black" fill-opacity="0.25" style="fill:black;fill-opacity:0.25;"/>
<path d="M485.413 29.3334V27.5997H496.155V29.3334H491.734V41.8878H489.834V29.3334H485.413Z" fill="black" fill-opacity="0.25" style="fill:black;fill-opacity:0.25;"/>
<path d="M475.875 26.8225C474.742 26.8225 473.902 26.5435 473.355 25.9855C472.808 25.4143 472.535 24.7235 472.535 23.9131H474.295C474.295 24.4843 474.435 24.8962 474.715 25.1486C474.995 25.401 475.382 25.5272 475.875 25.5272C476.369 25.5272 476.749 25.401 477.015 25.1486C477.295 24.8962 477.435 24.4843 477.435 23.9131H479.196C479.196 24.7235 478.922 25.4143 478.376 25.9855C477.842 26.5435 477.009 26.8225 475.875 26.8225ZM472.195 41.8877H470.154V27.5997H472.035V39.3968L479.916 27.5997H481.956V41.8877H480.036V30.1504L472.195 41.8877Z" fill="black" fill-opacity="0.25" style="fill:black;fill-opacity:0.25;"/>
<path d="M466.866 41.8878H464.866L463.386 37.8026H457.045L455.585 41.8878H453.824L458.925 27.5997H461.725L466.866 41.8878ZM457.665 36.1088H462.786L460.225 28.9947L457.665 36.1088Z" fill="black" fill-opacity="0.25" style="fill:black;fill-opacity:0.25;"/>
<path d="M441.305 27.5997H446.165C447.739 27.5997 448.933 27.8654 449.746 28.3968C450.573 28.9282 450.986 29.825 450.986 31.087C450.986 32.11 450.726 32.8872 450.206 33.4186C449.686 33.9367 448.993 34.2887 448.126 34.4747C449.233 34.6076 450.073 34.9331 450.646 35.4512C451.22 35.956 451.506 36.7265 451.506 37.7628C451.506 38.7459 451.273 39.543 450.806 40.1541C450.339 40.7652 449.699 41.2102 448.886 41.4892C448.072 41.7549 447.152 41.8878 446.125 41.8878H441.305V27.5997ZM446.025 33.6976C446.932 33.6976 447.666 33.4983 448.226 33.0997C448.799 32.6879 449.086 32.0502 449.086 31.1867C449.086 30.456 448.833 29.9645 448.326 29.712C447.819 29.4463 447.099 29.3135 446.165 29.3135H443.185V33.6976H446.025ZM446.125 40.1939C447.139 40.1939 447.959 40.0212 448.586 39.6758C449.213 39.3304 449.526 38.706 449.526 37.8026C449.526 36.8992 449.233 36.2748 448.646 35.9294C448.072 35.5707 447.159 35.3914 445.905 35.3914H443.185V40.1939H446.125Z" fill="black" fill-opacity="0.25" style="fill:black;fill-opacity:0.25;"/>
<path d="M427.005 41.8878H424.965V27.5997H426.845V39.3968L434.726 27.5997H436.767V41.8878H434.846V30.1505L427.005 41.8878Z" fill="black" fill-opacity="0.25" style="fill:black;fill-opacity:0.25;"/>
<path d="M409.289 27.5997H411.169V33.9566H418.531V27.5997H420.431V41.8878H418.531V35.6504H411.169V41.8878H409.289V27.5997Z" fill="black" fill-opacity="0.25" style="fill:black;fill-opacity:0.25;"/>
<path d="M396.154 27.5997H405.036V29.3135H398.035V33.6378H403.976V35.3316H398.035V40.1939H405.136V41.8878H396.154V27.5997Z" fill="black" fill-opacity="0.25" style="fill:black;fill-opacity:0.25;"/>
<path d="M379.834 41.8878V27.5997H381.714V40.1939H388.715V27.5997H390.616V40.1939H392.496V45.2754H390.736L390.516 41.8878H379.834Z" fill="black" fill-opacity="0.25" style="fill:black;fill-opacity:0.25;"/>
<path d="M369.262 42.0869C367.981 42.0869 366.821 41.8013 365.781 41.2301C364.741 40.6588 363.914 39.8285 363.301 38.7391C362.7 37.6365 362.4 36.288 362.4 34.6938C362.4 33.0996 362.7 31.7645 363.301 30.6884C363.914 29.599 364.741 28.782 365.781 28.2373C366.821 27.6926 367.981 27.4203 369.262 27.4203C370.568 27.4203 371.735 27.6993 372.762 28.2572C373.802 28.8019 374.622 29.6123 375.222 30.6884C375.823 31.7645 376.123 33.1063 376.123 34.7138C376.123 36.2947 375.823 37.6365 375.222 38.7391C374.622 39.8285 373.802 40.6588 372.762 41.2301C371.735 41.8013 370.568 42.0869 369.262 42.0869ZM369.262 40.3931C370.182 40.3931 371.008 40.2071 371.742 39.8351C372.475 39.4632 373.049 38.8653 373.462 38.0417C373.889 37.2047 374.102 36.1087 374.102 34.7536C374.102 33.3853 373.889 32.2892 373.462 31.4656C373.049 30.6419 372.475 30.0441 371.742 29.6721C371.008 29.3001 370.182 29.1141 369.262 29.1141C368.341 29.1141 367.515 29.3001 366.781 29.6721C366.061 30.0441 365.488 30.6419 365.061 31.4656C364.634 32.2892 364.421 33.3853 364.421 34.7536C364.421 36.1087 364.634 37.2047 365.061 38.0417C365.488 38.8653 366.061 39.4632 366.781 39.8351C367.515 40.2071 368.341 40.3931 369.262 40.3931Z" fill="black" fill-opacity="0.25" style="fill:black;fill-opacity:0.25;"/>
<path d="M352.77 42.0072C352.396 42.0072 352.083 41.8877 351.83 41.6485C351.59 41.3961 351.47 41.0972 351.47 40.7518C351.47 40.3798 351.59 40.0743 351.83 39.8351C352.083 39.596 352.396 39.4764 352.77 39.4764C353.143 39.4764 353.45 39.596 353.69 39.8351C353.93 40.0743 354.05 40.3798 354.05 40.7518C354.05 41.0972 353.93 41.3961 353.69 41.6485C353.45 41.8877 353.143 42.0072 352.77 42.0072Z" fill="black" fill-opacity="0.25" style="fill:black;fill-opacity:0.25;"/>
<path d="M338.895 27.5997H347.776V29.3135H340.775V33.6378H346.716V35.3316H340.775V40.1939H347.876V41.8878H338.895V27.5997Z" fill="black" fill-opacity="0.25" style="fill:black;fill-opacity:0.25;"/>
<path d="M322.818 40.0744C323.472 40.1408 323.952 39.9349 324.259 39.4566C324.579 38.9784 324.819 38.3473 324.979 37.5635C325.179 36.5671 325.312 35.2386 325.379 33.578C325.445 31.9174 325.492 29.9246 325.519 27.5997H334.36V41.8878H332.46V29.3135H327.299C327.259 31.2398 327.206 32.9204 327.139 34.3552C327.072 35.7767 326.946 36.979 326.759 37.962C326.599 38.706 326.372 39.3902 326.079 40.0146C325.786 40.639 325.379 41.1305 324.859 41.4892C324.339 41.8479 323.658 42.0073 322.818 41.9675V40.0744Z" fill="black" fill-opacity="0.25" style="fill:black;fill-opacity:0.25;"/>
<path d="M310.943 27.5997H319.825V29.3135H312.824V33.6378H318.765V35.3316H312.824V40.1939H319.925V41.8878H310.943V27.5997Z" fill="black" fill-opacity="0.25" style="fill:black;fill-opacity:0.25;"/>
<path d="M294.807 45.2754H293.106V40.1939H294.087C294.7 39.636 295.153 38.8256 295.447 37.7628C295.74 36.7 295.94 35.3383 296.047 33.6776C296.154 32.0037 296.234 29.9777 296.287 27.5997H305.428V40.1939H307.269V45.2754H305.528L305.328 41.8878H295.027L294.807 45.2754ZM296.267 40.1939H303.528V29.3135H298.047C298.007 31.3328 297.921 33.0466 297.787 34.4548C297.667 35.863 297.481 37.0321 297.227 37.962C296.987 38.8787 296.667 39.6227 296.267 40.1939Z" fill="black" fill-opacity="0.25" style="fill:black;fill-opacity:0.25;"/>
<path d="M285.114 42.0869C284.047 42.0869 283.12 41.9541 282.333 41.6884C281.56 41.4227 280.993 41.1437 280.633 40.8514V39.058C281.873 39.9481 283.347 40.3931 285.054 40.3931C285.72 40.3931 286.327 40.3134 286.874 40.154C287.421 39.9946 287.861 39.7289 288.194 39.3569C288.527 38.9716 288.694 38.4535 288.694 37.8025C288.694 36.8991 288.401 36.2681 287.814 35.9094C287.241 35.5374 286.38 35.3514 285.234 35.3514H283.173V33.7572H285.194C286.194 33.7572 286.954 33.5447 287.474 33.1196C287.994 32.6812 288.254 32.0833 288.254 31.3261C288.254 30.5024 287.981 29.9245 287.434 29.5924C286.887 29.2603 286.167 29.0942 285.274 29.0942C284.367 29.0942 283.54 29.1938 282.793 29.3931C282.06 29.5924 281.413 29.8382 280.853 30.1304V28.3569C281.293 28.131 281.866 27.9185 282.573 27.7192C283.293 27.5199 284.2 27.4203 285.294 27.4203C286.787 27.4203 287.974 27.7258 288.854 28.337C289.734 28.9481 290.174 29.9046 290.174 31.2065C290.174 32.0435 289.921 32.7409 289.414 33.2989C288.921 33.8436 288.194 34.2222 287.234 34.4348C288.354 34.5809 289.208 34.9263 289.794 35.471C290.381 36.0157 290.674 36.7796 290.674 37.7627C290.674 38.7723 290.421 39.596 289.914 40.2337C289.421 40.8714 288.754 41.343 287.914 41.6485C287.074 41.9408 286.14 42.0869 285.114 42.0869Z" fill="black" fill-opacity="0.25" style="fill:black;fill-opacity:0.25;"/>
<path d="M278.082 41.8878H276.082L274.602 37.8026H268.261L266.8 41.8878H265.04L270.141 27.5997H272.941L278.082 41.8878ZM268.881 36.1088H274.001L271.441 28.9947L268.881 36.1088Z" fill="black" fill-opacity="0.25" style="fill:black;fill-opacity:0.25;"/>
<path d="M254.103 27.5997H258.683C260.31 27.5997 261.57 27.9385 262.464 28.616C263.371 29.2803 263.824 30.3232 263.824 31.7447C263.824 32.8207 263.597 33.6976 263.144 34.3751C262.704 35.0526 262.084 35.5508 261.284 35.8697C260.497 36.1752 259.577 36.328 258.523 36.328H255.983V41.8878H254.103V27.5997ZM258.523 34.6341C259.537 34.6341 260.357 34.4149 260.984 33.9765C261.61 33.5381 261.924 32.8008 261.924 31.7646C261.924 30.9011 261.644 30.2767 261.084 29.8914C260.524 29.5061 259.723 29.3135 258.683 29.3135H255.983V34.6341H258.523Z" fill="black" fill-opacity="0.25" style="fill:black;fill-opacity:0.25;"/>
<path d="M237.116 39.7157H236.296H236.276L236.296 39.6957L231.955 30.2302V41.8878H230.175V27.5997H232.795L237.256 37.6233L241.917 27.5997H244.357V41.8878H242.457V30.3896L238.056 39.6957L237.116 39.7157Z" fill="black" fill-opacity="0.25" style="fill:black;fill-opacity:0.25;"/>
<path d="M217.02 27.5997H225.901V29.3135H218.9V33.6378H224.841V35.3316H218.9V40.1939H226.001V41.8878H217.02V27.5997Z" fill="black" fill-opacity="0.25" style="fill:black;fill-opacity:0.25;"/>
<path d="M195.837 41.8878V27.5997H197.717V40.1939H202.678V27.5997H204.618V40.1939H209.599V27.5997H211.499V40.1939H213.3V45.2754H211.579L211.359 41.8878H195.837Z" fill="black" fill-opacity="0.25" style="fill:black;fill-opacity:0.25;"/>
<path d="M185.66 42.0869C184.513 42.0869 183.473 41.8478 182.539 41.3696C181.606 40.878 180.846 40.154 180.259 39.1975C179.672 38.2409 179.326 37.0586 179.219 35.6504H177.119V41.8877H175.238V27.5996H177.119V33.9565H179.239C179.332 32.5483 179.672 31.3593 180.259 30.3895C180.846 29.4197 181.606 28.6824 182.539 28.1775C183.473 27.6727 184.513 27.4203 185.66 27.4203C186.874 27.4203 187.967 27.6926 188.941 28.2373C189.914 28.782 190.687 29.599 191.261 30.6884C191.834 31.7645 192.121 33.0996 192.121 34.6938C192.121 36.288 191.834 37.6365 191.261 38.7391C190.687 39.8285 189.914 40.6588 188.941 41.2301C187.967 41.8013 186.874 42.0869 185.66 42.0869ZM185.66 40.3931C186.513 40.3931 187.274 40.2071 187.94 39.8351C188.607 39.4632 189.134 38.8653 189.521 38.0417C189.907 37.2047 190.101 36.1087 190.101 34.7536C190.101 33.3853 189.907 32.2892 189.521 31.4656C189.134 30.6419 188.607 30.0441 187.94 29.6721C187.274 29.3001 186.513 29.1141 185.66 29.1141C184.82 29.1141 184.066 29.3001 183.4 29.6721C182.733 30.0441 182.206 30.6419 181.819 31.4656C181.433 32.2892 181.239 33.3853 181.239 34.7536C181.239 36.1087 181.433 37.2047 181.819 38.0417C182.206 38.8653 182.733 39.4632 183.4 39.8351C184.066 40.2071 184.82 40.3931 185.66 40.3931Z" fill="black" fill-opacity="0.25" style="fill:black;fill-opacity:0.25;"/>
<path d="M162.479 40.0146C163.306 40.0943 163.953 39.9747 164.419 39.6559C164.886 39.3238 165.273 38.892 165.58 38.3606L160.259 27.5997H162.399L166.54 36.2084L170.12 27.5997H172.061L167.52 38.0218C167.147 38.8986 166.74 39.636 166.3 40.2338C165.86 40.8316 165.333 41.27 164.72 41.549C164.119 41.828 163.373 41.9409 162.479 41.8878V40.0146Z" fill="black" fill-opacity="0.25" style="fill:black;fill-opacity:0.25;"/>
<path d="M147.424 27.5997H152.285C153.858 27.5997 155.052 27.8654 155.865 28.3968C156.692 28.9282 157.105 29.825 157.105 31.087C157.105 32.11 156.845 32.8872 156.325 33.4186C155.805 33.9367 155.112 34.2887 154.245 34.4747C155.352 34.6076 156.192 34.9331 156.765 35.4512C157.339 35.956 157.626 36.7265 157.626 37.7628C157.626 38.7459 157.392 39.543 156.925 40.1541C156.459 40.7652 155.819 41.2102 155.005 41.4892C154.192 41.7549 153.271 41.8878 152.245 41.8878H147.424V27.5997ZM152.145 33.6976C153.051 33.6976 153.785 33.4983 154.345 33.0997C154.918 32.6879 155.205 32.0502 155.205 31.1867C155.205 30.456 154.952 29.9645 154.445 29.712C153.938 29.4463 153.218 29.3135 152.285 29.3135H149.304V33.6976H152.145ZM152.245 40.1939C153.258 40.1939 154.078 40.0212 154.705 39.6758C155.332 39.3304 155.645 38.706 155.645 37.8026C155.645 36.8992 155.352 36.2748 154.765 35.9294C154.192 35.5707 153.278 35.3914 152.025 35.3914H149.304V40.1939H152.245Z" fill="black" fill-opacity="0.25" style="fill:black;fill-opacity:0.25;"/>
<path d="M133.207 29.3334V27.5997H143.949V29.3334H139.528V41.8878H137.628V29.3334H133.207Z" fill="black" fill-opacity="0.25" style="fill:black;fill-opacity:0.25;"/>
<path d="M125.888 42.0869C124.475 42.0869 123.235 41.7947 122.168 41.2101C121.114 40.6256 120.294 39.7886 119.707 38.6993C119.121 37.5966 118.827 36.2814 118.827 34.7536C118.827 32.4553 119.434 30.6618 120.647 29.3732C121.861 28.0713 123.595 27.4203 125.848 27.4203C126.822 27.4203 127.675 27.5266 128.409 27.7391C129.155 27.9384 129.756 28.1775 130.209 28.4565V30.25C129.609 29.8647 128.915 29.5791 128.129 29.3931C127.355 29.2071 126.588 29.1141 125.828 29.1141C124.148 29.1141 122.901 29.5857 122.088 30.529C121.274 31.4722 120.867 32.8804 120.867 34.7536C120.867 36.6401 121.308 38.0549 122.188 38.9982C123.068 39.9281 124.355 40.3931 126.048 40.3931C126.782 40.3931 127.495 40.2935 128.189 40.0942C128.895 39.8949 129.569 39.5562 130.209 39.0779V40.8714C129.822 41.1769 129.256 41.4559 128.509 41.7083C127.775 41.9607 126.902 42.0869 125.888 42.0869Z" fill="black" fill-opacity="0.25" style="fill:black;fill-opacity:0.25;"/>
<path d="M106.155 29.3334V27.5997H116.897V29.3334H112.476V41.8878H110.576V29.3334H106.155Z" fill="black" fill-opacity="0.25" style="fill:black;fill-opacity:0.25;"/>
<path d="M94.1777 27.5997H103.059V29.3135H96.058V33.6378H101.999V35.3316H96.058V40.1939H103.159V41.8878H94.1777V27.5997Z" fill="black" fill-opacity="0.25" style="fill:black;fill-opacity:0.25;"/>
<path d="M80.084 27.5997H84.9448C86.5184 27.5997 87.7119 27.8654 88.5254 28.3968C89.3522 28.9282 89.7656 29.825 89.7656 31.087C89.7656 32.11 89.5055 32.8872 88.9854 33.4186C88.4653 33.9367 87.7719 34.2887 86.9051 34.4747C88.0119 34.6076 88.8521 34.9331 89.4255 35.4512C89.9989 35.956 90.2856 36.7265 90.2856 37.7628C90.2856 38.7459 90.0523 39.543 89.5855 40.1541C89.1188 40.7652 88.4787 41.2102 87.6652 41.4892C86.8518 41.7549 85.9316 41.8878 84.9048 41.8878H80.084V27.5997ZM84.8048 33.6976C85.7116 33.6976 86.445 33.4983 87.0051 33.0997C87.5785 32.6879 87.8652 32.0502 87.8652 31.1867C87.8652 30.456 87.6119 29.9645 87.1051 29.712C86.5984 29.4463 85.8783 29.3135 84.9448 29.3135H81.9643V33.6976H84.8048ZM84.9048 40.1939C85.9183 40.1939 86.7384 40.0212 87.3652 39.6758C87.9919 39.3304 88.3053 38.706 88.3053 37.8026C88.3053 36.8992 88.0119 36.2748 87.4252 35.9294C86.8518 35.5707 85.9383 35.3914 84.6847 35.3914H81.9643V40.1939H84.9048Z" fill="black" fill-opacity="0.25" style="fill:black;fill-opacity:0.25;"/>
<path d="M65.8682 29.3334V27.5997H76.6099V29.3334H72.1892V41.8878H70.2889V29.3334H65.8682Z" fill="black" fill-opacity="0.25" style="fill:black;fill-opacity:0.25;"/>
<path d="M57.0789 42.0869C55.7987 42.0869 54.6385 41.8013 53.5983 41.2301C52.5582 40.6588 51.7314 39.8285 51.1179 38.7391C50.5178 37.6365 50.2178 36.288 50.2178 34.6938C50.2178 33.0996 50.5178 31.7645 51.1179 30.6884C51.7314 29.599 52.5582 28.782 53.5983 28.2373C54.6385 27.6926 55.7987 27.4203 57.0789 27.4203C58.3858 27.4203 59.5526 27.6993 60.5795 28.2572C61.6196 28.8019 62.4398 29.6123 63.0399 30.6884C63.64 31.7645 63.94 33.1063 63.94 34.7138C63.94 36.2947 63.64 37.6365 63.0399 38.7391C62.4398 39.8285 61.6196 40.6588 60.5795 41.2301C59.5526 41.8013 58.3858 42.0869 57.0789 42.0869ZM57.0789 40.3931C57.999 40.3931 58.8258 40.2071 59.5593 39.8351C60.2927 39.4632 60.8662 38.8653 61.2796 38.0417C61.7063 37.2047 61.9197 36.1087 61.9197 34.7536C61.9197 33.3853 61.7063 32.2892 61.2796 31.4656C60.8662 30.6419 60.2927 30.0441 59.5593 29.6721C58.8258 29.3001 57.999 29.1141 57.0789 29.1141C56.1587 29.1141 55.3319 29.3001 54.5985 29.6721C53.8784 30.0441 53.3049 30.6419 52.8782 31.4656C52.4515 32.2892 52.2381 33.3853 52.2381 34.7536C52.2381 36.1087 52.4515 37.2047 52.8782 38.0417C53.3049 38.8653 53.8784 39.4632 54.5985 39.8351C55.3319 40.2071 56.1587 40.3931 57.0789 40.3931Z" fill="black" fill-opacity="0.25" style="fill:black;fill-opacity:0.25;"/>
<path d="M40.4871 42.0869C39.2069 42.0869 38.0467 41.8013 37.0065 41.2301C35.9664 40.6588 35.1396 39.8285 34.5261 38.7391C33.926 37.6365 33.626 36.288 33.626 34.6938C33.626 33.0996 33.926 31.7645 34.5261 30.6884C35.1396 29.599 35.9664 28.782 37.0065 28.2373C38.0467 27.6926 39.2069 27.4203 40.4871 27.4203C41.794 27.4203 42.9608 27.6993 43.9877 28.2572C45.0278 28.8019 45.848 29.6123 46.4481 30.6884C47.0482 31.7645 47.3482 33.1063 47.3482 34.7138C47.3482 36.2947 47.0482 37.6365 46.4481 38.7391C45.848 39.8285 45.0278 40.6588 43.9877 41.2301C42.9608 41.8013 41.794 42.0869 40.4871 42.0869ZM40.4871 40.3931C41.4072 40.3931 42.234 40.2071 42.9675 39.8351C43.7009 39.4632 44.2744 38.8653 44.6878 38.0417C45.1145 37.2047 45.3279 36.1087 45.3279 34.7536C45.3279 33.3853 45.1145 32.2892 44.6878 31.4656C44.2744 30.6419 43.7009 30.0441 42.9675 29.6721C42.234 29.3001 41.4072 29.1141 40.4871 29.1141C39.5669 29.1141 38.7401 29.3001 38.0067 29.6721C37.2866 30.0441 36.7131 30.6419 36.2864 31.4656C35.8597 32.2892 35.6463 33.3853 35.6463 34.7536C35.6463 36.1087 35.8597 37.2047 36.2864 38.0417C36.7131 38.8653 37.2866 39.4632 38.0067 39.8351C38.7401 40.2071 39.5669 40.3931 40.4871 40.3931Z" fill="black" fill-opacity="0.25" style="fill:black;fill-opacity:0.25;"/>
<path d="M26.359 42.0869C24.9454 42.0869 23.7052 41.7947 22.6384 41.2101C21.5849 40.6256 20.7648 39.7886 20.178 38.6993C19.5912 37.5966 19.2979 36.2814 19.2979 34.7536C19.2979 32.4553 19.9046 30.6618 21.1181 29.3732C22.3317 28.0713 24.0653 27.4203 26.319 27.4203C27.2925 27.4203 28.146 27.5266 28.8794 27.7391C29.6262 27.9384 30.2263 28.1775 30.6797 28.4565V30.25C30.0796 29.8647 29.3862 29.5791 28.5994 29.3931C27.8259 29.2071 27.0591 29.1141 26.299 29.1141C24.6187 29.1141 23.3718 29.5857 22.5584 30.529C21.7449 31.4722 21.3382 32.8804 21.3382 34.7536C21.3382 36.6401 21.7783 38.0549 22.6584 38.9982C23.5385 39.9281 24.8254 40.3931 26.519 40.3931C27.2525 40.3931 27.9659 40.2935 28.6594 40.0942C29.3662 39.8949 30.0396 39.5562 30.6797 39.0779V40.8714C30.293 41.1769 29.7262 41.4559 28.9794 41.7083C28.246 41.9607 27.3725 42.0869 26.359 42.0869Z" fill="black" fill-opacity="0.25" style="fill:black;fill-opacity:0.25;"/>
<path d="M0.839844 27.5997H5.70064C7.27422 27.5997 8.46775 27.8654 9.28122 28.3968C10.108 28.9282 10.5214 29.825 10.5214 31.087C10.5214 32.11 10.2614 32.8872 9.74129 33.4186C9.22121 33.9367 8.52776 34.2887 7.66095 34.4747C8.7678 34.6076 9.60794 34.9331 10.1814 35.4512C10.7548 35.956 11.0415 36.7265 11.0415 37.7628C11.0415 38.7459 10.8081 39.543 10.3414 40.1541C9.87465 40.7652 9.23454 41.2102 8.42108 41.4892C7.60761 41.7549 6.68746 41.8878 5.66063 41.8878H0.839844V27.5997ZM5.56061 33.6976C6.46743 33.6976 7.20088 33.4983 7.76097 33.0997C8.3344 32.6879 8.62111 32.0502 8.62111 31.1867C8.62111 30.456 8.36774 29.9645 7.86099 29.712C7.35424 29.4463 6.63412 29.3135 5.70064 29.3135H2.72015V33.6976H5.56061ZM5.66063 40.1939C6.67413 40.1939 7.49426 40.0212 8.12103 39.6758C8.7478 39.3304 9.06118 38.706 9.06118 37.8026C9.06118 36.8992 8.7678 36.2748 8.18104 35.9294C7.60761 35.5707 6.69413 35.3914 5.44059 35.3914H2.72015V40.1939H5.66063Z" fill="black" fill-opacity="0.25" style="fill:black;fill-opacity:0.25;"/>
<path d="M563.04 3.68665H571.921V5.40041H564.92V9.72468H570.861V11.4185H564.92V16.2808H572.021V17.9747H563.04V3.68665Z" fill="black" fill-opacity="0.25" style="fill:black;fill-opacity:0.25;"/>
<path d="M548.823 5.42034V3.68665H559.565V5.42034H555.144V17.9747H553.244V5.42034H548.823Z" fill="black" fill-opacity="0.25" style="fill:black;fill-opacity:0.25;"/>
<path d="M539.285 2.90942C538.152 2.90942 537.312 2.63043 536.765 2.07246C536.218 1.50121 535.945 0.810387 535.945 0H537.705C537.705 0.571256 537.845 0.983092 538.125 1.23551C538.405 1.48792 538.792 1.61413 539.285 1.61413C539.779 1.61413 540.159 1.48792 540.426 1.23551C540.706 0.983092 540.846 0.571256 540.846 0H542.606C542.606 0.810387 542.333 1.50121 541.786 2.07246C541.252 2.63043 540.419 2.90942 539.285 2.90942ZM535.605 17.9746H533.564V3.68659H535.445V15.4837L543.326 3.68659H545.366V17.9746H543.446V6.23732L535.605 17.9746Z" fill="black" fill-opacity="0.25" style="fill:black;fill-opacity:0.25;"/>
<path d="M530.276 17.9747H528.276L526.796 13.8895H520.455L518.995 17.9747H517.234L522.335 3.68665H525.136L530.276 17.9747ZM521.075 12.1957H526.196L523.635 5.08157L521.075 12.1957Z" fill="black" fill-opacity="0.25" style="fill:black;fill-opacity:0.25;"/>
<path d="M510.31 18.174C508.897 18.174 507.656 17.8817 506.59 17.2972C505.536 16.7126 504.716 15.8757 504.129 14.7863C503.542 13.6836 503.249 12.3684 503.249 10.8407C503.249 8.54235 503.856 6.74887 505.069 5.46022C506.283 4.15829 508.016 3.50732 510.27 3.50732C511.244 3.50732 512.097 3.6136 512.831 3.82616C513.577 4.02544 514.177 4.26457 514.631 4.54356V6.33703C514.031 5.95177 513.337 5.66614 512.551 5.48015C511.777 5.29416 511.01 5.20116 510.25 5.20116C508.57 5.20116 507.323 5.67278 506.51 6.61602C505.696 7.55925 505.289 8.96747 505.289 10.8407C505.289 12.7271 505.729 14.142 506.61 15.0852C507.49 16.0152 508.777 16.4801 510.47 16.4801C511.204 16.4801 511.917 16.3805 512.611 16.1812C513.317 15.982 513.991 15.6432 514.631 15.1649V16.9584C514.244 17.264 513.677 17.5429 512.931 17.7954C512.197 18.0478 511.324 18.174 510.31 18.174Z" fill="black" fill-opacity="0.25" style="fill:black;fill-opacity:0.25;"/>
<path d="M495.596 17.9747H493.596L492.115 13.8895H485.774L484.314 17.9747H482.554L487.655 3.68665H490.455L495.596 17.9747ZM486.394 12.1957H491.515L488.955 5.08157L486.394 12.1957Z" fill="black" fill-opacity="0.25" style="fill:black;fill-opacity:0.25;"/>
<path d="M468.159 3.68665H470.039V10.0435H477.401V3.68665H479.301V17.9747H477.401V11.7374H470.039V17.9747H468.159V3.68665Z" fill="black" fill-opacity="0.25" style="fill:black;fill-opacity:0.25;"/>
<path d="M453.683 20.7446C454.763 19.5489 455.549 18.1806 456.043 16.6395C456.549 15.0984 456.803 13.4843 456.803 11.7971C456.803 10.6679 456.689 9.55858 456.463 8.4692C456.249 7.36655 455.909 6.33696 455.443 5.38044C454.989 4.42392 454.403 3.60024 453.683 2.90942H455.423C456.103 3.62682 456.669 4.47041 457.123 5.44022C457.589 6.39674 457.936 7.42633 458.163 8.52899C458.389 9.61836 458.503 10.7277 458.503 11.8569C458.503 13.5441 458.243 15.1516 457.723 16.6793C457.216 18.2071 456.449 19.5622 455.423 20.7446H453.683Z" fill="black" fill-opacity="0.25" style="fill:black;fill-opacity:0.25;"/>
<path d="M451.414 17.9747H449.414L447.934 13.8895H441.593L440.132 17.9747H438.372L443.473 3.68665H446.273L451.414 17.9747ZM442.213 12.1957H447.334L444.773 5.08157L442.213 12.1957Z" fill="black" fill-opacity="0.25" style="fill:black;fill-opacity:0.25;"/>
<path d="M427.871 15.8026H427.051H427.031L427.051 15.7827L422.71 6.31708V17.9747H420.93V3.68665H423.55L428.011 13.7102L432.672 3.68665H435.112V17.9747H433.212V6.4765L428.811 15.7827L427.871 15.8026Z" fill="black" fill-opacity="0.25" style="fill:black;fill-opacity:0.25;"/>
<path d="M410.311 2.90942C409.177 2.90942 408.337 2.63043 407.79 2.07246C407.244 1.50121 406.97 0.810387 406.97 0H408.731C408.731 0.571256 408.871 0.983092 409.151 1.23551C409.431 1.48792 409.817 1.61413 410.311 1.61413C410.804 1.61413 411.184 1.48792 411.451 1.23551C411.731 0.983092 411.871 0.571256 411.871 0H413.631C413.631 0.810387 413.358 1.50121 412.811 2.07246C412.278 2.63043 411.444 2.90942 410.311 2.90942ZM406.63 17.9746H404.59V3.68659H406.47V15.4837L414.351 3.68659H416.392V17.9746H414.471V6.23732L406.63 17.9746Z" fill="black" fill-opacity="0.25" style="fill:black;fill-opacity:0.25;"/>
<path d="M401.303 17.9747H399.303L397.822 13.8895H391.481L390.021 17.9747H388.261L393.362 3.68665H396.162L401.303 17.9747ZM392.101 12.1957H397.222L394.662 5.08157L392.101 12.1957Z" fill="black" fill-opacity="0.25" style="fill:black;fill-opacity:0.25;"/>
<path d="M380.363 18.174C379.296 18.174 378.369 18.0411 377.582 17.7754C376.809 17.5097 376.242 17.2307 375.882 16.9385V15.145C377.122 16.0351 378.596 16.4801 380.303 16.4801C380.969 16.4801 381.576 16.4004 382.123 16.241C382.67 16.0816 383.11 15.8159 383.443 15.4439C383.776 15.0586 383.943 14.5405 383.943 13.8896C383.943 12.9862 383.65 12.3551 383.063 11.9965C382.49 11.6245 381.629 11.4385 380.483 11.4385H378.422V9.84428H380.443C381.443 9.84428 382.203 9.63172 382.723 9.2066C383.243 8.76819 383.503 8.17037 383.503 7.41312C383.503 6.58945 383.23 6.01155 382.683 5.67942C382.136 5.3473 381.416 5.18124 380.523 5.18124C379.616 5.18124 378.789 5.28087 378.042 5.48015C377.309 5.67942 376.662 5.9252 376.102 6.21747V4.44392C376.542 4.21807 377.115 4.00551 377.822 3.80624C378.542 3.60696 379.449 3.50732 380.543 3.50732C382.036 3.50732 383.223 3.81288 384.103 4.42399C384.983 5.0351 385.423 5.99162 385.423 7.29355C385.423 8.13051 385.17 8.82797 384.663 9.38594C384.17 9.93063 383.443 10.3093 382.483 10.5218C383.603 10.6679 384.457 11.0134 385.043 11.558C385.63 12.1027 385.923 12.8666 385.923 13.8497C385.923 14.8594 385.67 15.683 385.163 16.3207C384.67 16.9584 384.003 17.43 383.163 17.7356C382.323 18.0278 381.389 18.174 380.363 18.174Z" fill="black" fill-opacity="0.25" style="fill:black;fill-opacity:0.25;"/>
<path d="M372.99 20.7446H371.25C370.223 19.5622 369.45 18.2071 368.93 16.6793C368.423 15.1516 368.17 13.5441 368.17 11.8569C368.17 10.7277 368.283 9.61836 368.51 8.52899C368.737 7.42633 369.077 6.39674 369.53 5.44022C369.997 4.47041 370.57 3.62682 371.25 2.90942H372.99C372.27 3.60024 371.677 4.42392 371.21 5.38044C370.757 6.33696 370.417 7.36655 370.19 8.4692C369.977 9.55858 369.87 10.6679 369.87 11.7971C369.87 13.4843 370.117 15.0984 370.61 16.6395C371.117 18.1806 371.91 19.5489 372.99 20.7446Z" fill="black" fill-opacity="0.25" style="fill:black;fill-opacity:0.25;"/>
<path d="M359.757 17.9747H357.757L356.276 13.8895H349.935L348.475 17.9747H346.715L351.816 3.68665H354.616L359.757 17.9747ZM350.555 12.1957H355.676L353.116 5.08157L350.555 12.1957Z" fill="black" fill-opacity="0.25" style="fill:black;fill-opacity:0.25;"/>
<path d="M335.186 5.42034V3.68665H345.927V5.42034H341.507V17.9747H339.606V5.42034H335.186Z" fill="black" fill-opacity="0.25" style="fill:black;fill-opacity:0.25;"/>
<path d="M321.967 17.9747H319.927V3.68665H321.807V15.4837L329.688 3.68665H331.729V17.9747H329.808V6.23737L321.967 17.9747Z" fill="black" fill-opacity="0.25" style="fill:black;fill-opacity:0.25;"/>
<path d="M303.79 21.3624H302.09V16.2808H303.07C303.683 15.7229 304.137 14.9125 304.43 13.8497C304.724 12.7869 304.924 11.4252 305.03 9.76454C305.137 8.09063 305.217 6.06466 305.27 3.68665H314.412V16.2808H316.252V21.3624H314.512L314.312 17.9747H304.01L303.79 21.3624ZM305.25 16.2808H312.512V5.40041H307.031C306.991 7.41973 306.904 9.1335 306.771 10.5417C306.651 11.9499 306.464 13.119 306.211 14.049C305.971 14.9656 305.65 15.7096 305.25 16.2808Z" fill="black" fill-opacity="0.25" style="fill:black;fill-opacity:0.25;"/>
<path d="M290.314 3.68665H299.196V5.40041H292.195V9.72468H298.136V11.4185H292.195V16.2808H299.296V17.9747H290.314V3.68665Z" fill="black" fill-opacity="0.25" style="fill:black;fill-opacity:0.25;"/>
<path d="M276.905 3.68665H281.486C283.113 3.68665 284.373 4.02541 285.267 4.70295C286.173 5.3672 286.627 6.41007 286.627 7.83157C286.627 8.90766 286.4 9.78447 285.947 10.462C285.507 11.1395 284.887 11.6377 284.086 11.9566C283.3 12.2621 282.38 12.4149 281.326 12.4149H278.786V17.9747H276.905V3.68665ZM281.326 10.7211C282.34 10.7211 283.16 10.5019 283.786 10.0635C284.413 9.62505 284.727 8.88773 284.727 7.8515C284.727 6.98797 284.447 6.36358 283.886 5.97831C283.326 5.59304 282.526 5.40041 281.486 5.40041H278.786V10.7211H281.326Z" fill="black" fill-opacity="0.25" style="fill:black;fill-opacity:0.25;"/>
<path d="M273.632 17.9747H271.292L266.291 11.8569H264.771V17.9747H262.891V3.68665H264.771V10.1631H266.171L271.292 3.68665H273.412L267.751 10.8207L273.632 17.9747Z" fill="black" fill-opacity="0.25" style="fill:black;fill-opacity:0.25;"/>
<path d="M253.135 3.68665V17.9747H251.234V12.2555H248.634L244.673 17.9747H242.373L246.714 11.9167C245.66 11.6909 244.853 11.2525 244.293 10.6015C243.733 9.95053 243.453 9.06708 243.453 7.95114C243.453 6.94147 243.673 6.12445 244.113 5.50005C244.553 4.87565 245.167 4.41732 245.954 4.12505C246.74 3.83278 247.647 3.68665 248.674 3.68665H253.135ZM248.474 10.5616H251.234V5.40041H248.674C247.727 5.40041 246.947 5.59304 246.334 5.97831C245.734 6.35029 245.434 7.0079 245.434 7.95114C245.434 8.84123 245.694 9.49884 246.214 9.92396C246.747 10.3491 247.501 10.5616 248.474 10.5616Z" fill="black" fill-opacity="0.25" style="fill:black;fill-opacity:0.25;"/>
<path d="M229.255 17.9747H227.215V3.68665H229.095V15.4837L236.976 3.68665H239.017V17.9747H237.096V6.23737L229.255 17.9747Z" fill="black" fill-opacity="0.25" style="fill:black;fill-opacity:0.25;"/>
<path d="M213.122 3.68665H217.983C219.556 3.68665 220.75 3.95235 221.563 4.48375C222.39 5.01515 222.804 5.91189 222.804 7.17396C222.804 8.19691 222.544 8.97408 222.024 9.50548C221.503 10.0236 220.81 10.3757 219.943 10.5616C221.05 10.6945 221.89 11.02 222.464 11.5381C223.037 12.0429 223.324 12.8135 223.324 13.8497C223.324 14.8328 223.09 15.6299 222.624 16.241C222.157 16.8521 221.517 17.2971 220.703 17.5761C219.89 17.8418 218.97 17.9747 217.943 17.9747H213.122V3.68665ZM217.843 9.78447C218.75 9.78447 219.483 9.58519 220.043 9.18664C220.617 8.77481 220.903 8.13713 220.903 7.2736C220.903 6.54292 220.65 6.05138 220.143 5.79896C219.636 5.53326 218.916 5.40041 217.983 5.40041H215.002V9.78447H217.843ZM217.943 16.2808C218.956 16.2808 219.777 16.1081 220.403 15.7627C221.03 15.4173 221.343 14.7929 221.343 13.8895C221.343 12.9862 221.05 12.3618 220.463 12.0164C219.89 11.6577 218.976 11.4783 217.723 11.4783H215.002V16.2808H217.943Z" fill="black" fill-opacity="0.25" style="fill:black;fill-opacity:0.25;"/>
<path d="M202.55 18.174C201.269 18.174 200.109 17.8884 199.069 17.3171C198.029 16.7458 197.202 15.9155 196.589 14.8262C195.989 13.7235 195.688 12.3751 195.688 10.7809C195.688 9.18667 195.989 7.85152 196.589 6.77544C197.202 5.68607 198.029 4.86904 199.069 4.32435C200.109 3.77967 201.269 3.50732 202.55 3.50732C203.856 3.50732 205.023 3.78631 206.05 4.34428C207.09 4.88897 207.91 5.69935 208.511 6.77544C209.111 7.85152 209.411 9.19331 209.411 10.8008C209.411 12.3817 209.111 13.7235 208.511 14.8262C207.91 15.9155 207.09 16.7458 206.05 17.3171C205.023 17.8884 203.856 18.174 202.55 18.174ZM202.55 16.4801C203.47 16.4801 204.297 16.2942 205.03 15.9222C205.763 15.5502 206.337 14.9524 206.75 14.1287C207.177 13.2917 207.39 12.1957 207.39 10.8407C207.39 9.4723 207.177 8.37628 206.75 7.55261C206.337 6.72894 205.763 6.13111 205.03 5.75913C204.297 5.38715 203.47 5.20116 202.55 5.20116C201.629 5.20116 200.803 5.38715 200.069 5.75913C199.349 6.13111 198.776 6.72894 198.349 7.55261C197.922 8.37628 197.709 9.4723 197.709 10.8407C197.709 12.1957 197.922 13.2917 198.349 14.1287C198.776 14.9524 199.349 15.5502 200.069 15.9222C200.803 16.2942 201.629 16.4801 202.55 16.4801Z" fill="black" fill-opacity="0.25" style="fill:black;fill-opacity:0.25;"/>
<path d="M180.452 16.1613C181.106 16.2277 181.586 16.0218 181.892 15.5435C182.212 15.0653 182.452 14.4342 182.613 13.6504C182.813 12.654 182.946 11.3255 183.013 9.6649C183.079 8.00428 183.126 6.01152 183.153 3.68665H191.994V17.9747H190.094V5.40041H184.933C184.893 7.32674 184.84 9.00729 184.773 10.4421C184.706 11.8636 184.579 13.0659 184.393 14.049C184.233 14.7929 184.006 15.4771 183.713 16.1015C183.419 16.7259 183.013 17.2174 182.492 17.5761C181.972 17.9348 181.292 18.0942 180.452 18.0544V16.1613Z" fill="black" fill-opacity="0.25" style="fill:black;fill-opacity:0.25;"/>
<path d="M173.334 18.174C171.92 18.174 170.68 17.8817 169.613 17.2972C168.559 16.7126 167.739 15.8757 167.153 14.7863C166.566 13.6836 166.272 12.3684 166.272 10.8407C166.272 8.54235 166.879 6.74887 168.093 5.46022C169.306 4.15829 171.04 3.50732 173.294 3.50732C174.267 3.50732 175.121 3.6136 175.854 3.82616C176.601 4.02544 177.201 4.26457 177.654 4.54356V6.33703C177.054 5.95177 176.361 5.66614 175.574 5.48015C174.801 5.29416 174.034 5.20116 173.274 5.20116C171.593 5.20116 170.346 5.67278 169.533 6.61602C168.72 7.55925 168.313 8.96747 168.313 10.8407C168.313 12.7271 168.753 14.142 169.633 15.0852C170.513 16.0152 171.8 16.4801 173.494 16.4801C174.227 16.4801 174.941 16.3805 175.634 16.1812C176.341 15.982 177.014 15.6432 177.654 15.1649V16.9584C177.268 17.264 176.701 17.5429 175.954 17.7954C175.221 18.0478 174.347 18.174 173.334 18.174Z" fill="black" fill-opacity="0.25" style="fill:black;fill-opacity:0.25;"/>
<path d="M154.958 16.1015C155.784 16.1812 156.431 16.0616 156.898 15.7428C157.365 15.4107 157.751 14.9789 158.058 14.4475L152.737 3.68665H154.878L159.018 12.2953L162.599 3.68665H164.539L159.998 14.1087C159.625 14.9856 159.218 15.7229 158.778 16.3207C158.338 16.9185 157.811 17.3569 157.198 17.6359C156.598 17.9149 155.851 18.0278 154.958 17.9747V16.1015Z" fill="black" fill-opacity="0.25" style="fill:black;fill-opacity:0.25;"/>
<path d="M135.538 3.68665H144.42V5.40041H137.418V9.72468H143.359V11.4185H137.418V16.2808H144.52V17.9747H135.538V3.68665Z" fill="black" fill-opacity="0.25" style="fill:black;fill-opacity:0.25;"/>
<path d="M127.138 18.174C125.725 18.174 124.485 17.8817 123.418 17.2972C122.364 16.7126 121.544 15.8757 120.957 14.7863C120.371 13.6836 120.077 12.3684 120.077 10.8407C120.077 8.54235 120.684 6.74887 121.897 5.46022C123.111 4.15829 124.845 3.50732 127.098 3.50732C128.072 3.50732 128.925 3.6136 129.659 3.82616C130.405 4.02544 131.006 4.26457 131.459 4.54356V6.33703C130.859 5.95177 130.165 5.66614 129.379 5.48015C128.605 5.29416 127.838 5.20116 127.078 5.20116C125.398 5.20116 124.151 5.67278 123.338 6.61602C122.524 7.55925 122.117 8.96747 122.117 10.8407C122.117 12.7271 122.558 14.142 123.438 15.0852C124.318 16.0152 125.605 16.4801 127.298 16.4801C128.032 16.4801 128.745 16.3805 129.439 16.1812C130.145 15.982 130.819 15.6432 131.459 15.1649V16.9584C131.072 17.264 130.506 17.5429 129.759 17.7954C129.025 18.0478 128.152 18.174 127.138 18.174Z" fill="black" fill-opacity="0.25" style="fill:black;fill-opacity:0.25;"/>
<path d="M106.923 3.68665H111.784C113.357 3.68665 114.551 3.95235 115.364 4.48375C116.191 5.01515 116.604 5.91189 116.604 7.17396C116.604 8.19691 116.344 8.97408 115.824 9.50548C115.304 10.0236 114.611 10.3757 113.744 10.5616C114.851 10.6945 115.691 11.02 116.264 11.5381C116.838 12.0429 117.125 12.8135 117.125 13.8497C117.125 14.8328 116.891 15.6299 116.424 16.241C115.958 16.8521 115.318 17.2971 114.504 17.5761C113.691 17.8418 112.77 17.9747 111.744 17.9747H106.923V3.68665ZM111.644 9.78447C112.55 9.78447 113.284 9.58519 113.844 9.18664C114.417 8.77481 114.704 8.13713 114.704 7.2736C114.704 6.54292 114.451 6.05138 113.944 5.79896C113.437 5.53326 112.717 5.40041 111.784 5.40041H108.803V9.78447H111.644ZM111.744 16.2808C112.757 16.2808 113.577 16.1081 114.204 15.7627C114.831 15.4173 115.144 14.7929 115.144 13.8895C115.144 12.9862 114.851 12.3618 114.264 12.0164C113.691 11.6577 112.777 11.4783 111.524 11.4783H108.803V16.2808H111.744Z" fill="black" fill-opacity="0.25" style="fill:black;fill-opacity:0.25;"/>
<path d="M88.5625 3.68665H97.4439V5.40041H90.4428V9.72468H96.3838V11.4185H90.4428V16.2808H97.544V17.9747H88.5625V3.68665Z" fill="black" fill-opacity="0.25" style="fill:black;fill-opacity:0.25;"/>
<path d="M74.3457 5.42034V3.68665H85.0875V5.42034H80.6667V17.9747H78.7664V5.42034H74.3457Z" fill="black" fill-opacity="0.25" style="fill:black;fill-opacity:0.25;"/>
<path d="M61.1282 17.9747H59.0879V3.68665H60.9682V15.4837L68.8495 3.68665H70.8898V17.9747H68.9695V6.23737L61.1282 17.9747Z" fill="black" fill-opacity="0.25" style="fill:black;fill-opacity:0.25;"/>
<path d="M43.9326 7.67215V3.68665H45.8329V7.67215C45.8329 8.78809 46.1063 9.64498 46.6531 10.2428C47.2131 10.8406 48.0333 11.1395 49.1135 11.1395C49.7669 11.1395 50.3937 11.0665 50.9938 10.9203C51.5939 10.7609 52.1473 10.5019 52.654 10.1432V3.68665H54.5543V17.9747H52.654V11.7374C52.1073 12.0828 51.5339 12.3352 50.9338 12.4946C50.347 12.654 49.7336 12.7337 49.0935 12.7337C47.4532 12.7337 46.1796 12.3219 45.2728 11.4982C44.3794 10.6746 43.9326 9.3992 43.9326 7.67215Z" fill="black" fill-opacity="0.25" style="fill:black;fill-opacity:0.25;"/>
<path d="M31.4538 16.1015C32.2806 16.1812 32.9273 16.0616 33.3941 15.7428C33.8608 15.4107 34.2475 14.9789 34.5543 14.4475L29.2334 3.68665H31.3737L35.5144 12.2953L39.095 3.68665H41.0353L36.4946 14.1087C36.1212 14.9856 35.7145 15.7229 35.2744 16.3207C34.8343 16.9185 34.3076 17.3569 33.6941 17.6359C33.094 17.9149 32.3472 18.0278 31.4538 17.9747V16.1015Z" fill="black" fill-opacity="0.25" style="fill:black;fill-opacity:0.25;"/>
<path d="M21.0208 18.174C19.9539 18.174 19.0271 18.0411 18.2403 17.7754C17.4669 17.5097 16.9001 17.2307 16.54 16.9385V15.145C17.7802 16.0351 19.2538 16.4801 20.9608 16.4801C21.6275 16.4801 22.2343 16.4004 22.7811 16.241C23.3278 16.0816 23.7679 15.8159 24.1013 15.4439C24.4347 15.0586 24.6014 14.5405 24.6014 13.8896C24.6014 12.9862 24.308 12.3551 23.7212 11.9965C23.1478 11.6245 22.2876 11.4385 21.1408 11.4385H19.0805V9.84428H21.1008C22.1009 9.84428 22.8611 9.63172 23.3812 9.2066C23.9012 8.76819 24.1613 8.17037 24.1613 7.41312C24.1613 6.58945 23.8879 6.01155 23.3411 5.67942C22.7944 5.3473 22.0743 5.18124 21.1808 5.18124C20.274 5.18124 19.4472 5.28087 18.7004 5.48015C17.9669 5.67942 17.3202 5.9252 16.7601 6.21747V4.44392C17.2001 4.21807 17.7736 4.00551 18.4804 3.80624C19.2005 3.60696 20.1073 3.50732 21.2008 3.50732C22.6944 3.50732 23.8812 3.81288 24.7614 4.42399C25.6415 5.0351 26.0816 5.99162 26.0816 7.29355C26.0816 8.13051 25.8282 8.82797 25.3215 9.38594C24.8281 9.93063 24.1013 10.3093 23.1411 10.5218C24.2613 10.6679 25.1148 11.0134 25.7015 11.558C26.2883 12.1027 26.5817 12.8666 26.5817 13.8497C26.5817 14.8594 26.3283 15.683 25.8215 16.3207C25.3281 16.9584 24.6614 17.43 23.8212 17.7356C22.9811 18.0278 22.0476 18.174 21.0208 18.174Z" fill="black" fill-opacity="0.25" style="fill:black;fill-opacity:0.25;"/>
<path d="M2.88018 17.9747H0.839844V3.68665H2.72015V15.4837L10.6014 3.68665H12.6418V17.9747H10.7215V6.23737L2.88018 17.9747Z" fill="black" fill-opacity="0.25" style="fill:black;fill-opacity:0.25;"/>
</svg>
