<svg width="197" height="72" viewBox="0 0 197 72" fill="none" xmlns="http://www.w3.org/2000/svg">
<path d="M194.072 69.7212C193.812 69.7212 193.593 69.6378 193.417 69.4711C193.25 69.2951 193.166 69.0867 193.166 68.8458C193.166 68.5865 193.25 68.3734 193.417 68.2067C193.593 68.0399 193.812 67.9565 194.072 67.9565C194.332 67.9565 194.546 68.0399 194.713 68.2067C194.88 68.3734 194.964 68.5865 194.964 68.8458C194.964 69.0867 194.88 69.2951 194.713 69.4711C194.546 69.6378 194.332 69.7212 194.072 69.7212Z" fill="black" fill-opacity="0.25" style="fill:black;fill-opacity:0.25;"/>
<path d="M176.601 59.6752H182.788V60.8701H177.911V63.8854H182.05V65.0664H177.911V68.4568H182.858V69.6379H176.601V59.6752Z" fill="black" fill-opacity="0.25" style="fill:black;fill-opacity:0.25;"/>
<path d="M158.834 69.6379H157.412V59.6752H158.722V67.901L164.213 59.6752H165.635V69.6379H164.297V61.4537L158.834 69.6379Z" fill="black" fill-opacity="0.25" style="fill:black;fill-opacity:0.25;"/>
<path d="M138.365 72.0001H137.181V68.4568H137.864C138.291 68.0678 138.607 67.5027 138.811 66.7616C139.016 66.0206 139.155 65.0711 139.229 63.9132C139.304 62.746 139.359 61.3333 139.397 59.6752H145.766V68.4568H147.048V72.0001H145.835L145.696 69.6379H138.519L138.365 72.0001ZM139.383 68.4568H144.442V60.8701H140.623C140.595 62.2782 140.535 63.4731 140.442 64.4551C140.358 65.437 140.228 66.2521 140.052 66.9006C139.884 67.5398 139.661 68.0585 139.383 68.4568Z" fill="black" fill-opacity="0.25" style="fill:black;fill-opacity:0.25;"/>
<path d="M123.394 69.7767C122.502 69.7767 121.693 69.5775 120.969 69.1792C120.244 68.7809 119.668 68.2019 119.24 67.4423C118.822 66.6734 118.613 65.7332 118.613 64.6216C118.613 63.51 118.822 62.579 119.24 61.8287C119.668 61.0691 120.244 60.4994 120.969 60.1196C121.693 59.7398 122.502 59.5499 123.394 59.5499C124.304 59.5499 125.117 59.7445 125.832 60.1335C126.557 60.5133 127.129 61.0784 127.547 61.8287C127.965 62.579 128.174 63.5146 128.174 64.6355C128.174 65.7378 127.965 66.6734 127.547 67.4423C127.129 68.2019 126.557 68.7809 125.832 69.1792C125.117 69.5775 124.304 69.7767 123.394 69.7767ZM123.394 68.5956C124.035 68.5956 124.611 68.4659 125.122 68.2065C125.633 67.9472 126.032 67.5303 126.32 66.956C126.618 66.3724 126.766 65.6082 126.766 64.6633C126.766 63.7092 126.618 62.9449 126.32 62.3706C126.032 61.7963 125.633 61.3794 125.122 61.1201C124.611 60.8607 124.035 60.731 123.394 60.731C122.752 60.731 122.176 60.8607 121.665 61.1201C121.164 61.3794 120.764 61.7963 120.467 62.3706C120.17 62.9449 120.021 63.7092 120.021 64.6633C120.021 65.6082 120.17 66.3724 120.467 66.956C120.764 67.5303 121.164 67.9472 121.665 68.2065C122.176 68.4659 122.752 68.5956 123.394 68.5956Z" fill="black" fill-opacity="0.25" style="fill:black;fill-opacity:0.25;"/>
<path d="M100.193 68.3735C100.649 68.4198 100.983 68.2762 101.197 67.9427C101.42 67.6092 101.587 67.1692 101.699 66.6227C101.838 65.9279 101.931 65.0016 101.977 63.8437C102.024 62.6858 102.056 61.2963 102.075 59.6752H108.235V69.6379H106.911V60.8701H103.315C103.287 62.2133 103.25 63.3851 103.204 64.3856C103.157 65.3768 103.069 66.2151 102.939 66.9006C102.827 67.4193 102.669 67.8964 102.465 68.3318C102.261 68.7671 101.977 69.1099 101.615 69.36C101.253 69.6101 100.779 69.7213 100.193 69.6935V68.3735Z" fill="black" fill-opacity="0.25" style="fill:black;fill-opacity:0.25;"/>
<path d="M82.6045 59.6752H90.1163V69.6379H88.7923V60.8701H83.9145V69.6379H82.6045V59.6752Z" fill="black" fill-opacity="0.25" style="fill:black;fill-opacity:0.25;"/>
<path d="M68.9479 69.7767C67.9631 69.7767 67.099 69.5729 66.3557 69.1653C65.6217 68.7577 65.0503 68.1741 64.6415 67.4145C64.2327 66.6457 64.0283 65.7286 64.0283 64.6633C64.0283 63.0607 64.4511 61.8102 65.2966 60.9116C66.142 60.0038 67.3499 59.5499 68.9201 59.5499C69.5983 59.5499 70.193 59.624 70.704 59.7722C71.2243 59.9112 71.6424 60.0779 71.9583 60.2725V61.523C71.5402 61.2544 71.057 61.0552 70.5089 60.9255C69.97 60.7958 69.4357 60.731 68.9061 60.731C67.7355 60.731 66.8668 61.0599 66.3 61.7175C65.7332 62.3752 65.4499 63.3572 65.4499 64.6633C65.4499 65.9787 65.7565 66.9652 66.3697 67.6229C66.9829 68.2714 67.8795 68.5956 69.0594 68.5956C69.5705 68.5956 70.0675 68.5261 70.5507 68.3872C71.0431 68.2482 71.5123 68.012 71.9583 67.6785V68.9291C71.6888 69.1421 71.2939 69.3367 70.7736 69.5127C70.2626 69.6887 69.6541 69.7767 68.9479 69.7767Z" fill="black" fill-opacity="0.25" style="fill:black;fill-opacity:0.25;"/>
<path d="M47.916 59.6752H54.1039V60.8701H49.2261V63.8854H53.3652V65.0664H49.2261V68.4568H54.1736V69.6379H47.916V59.6752Z" fill="black" fill-opacity="0.25" style="fill:black;fill-opacity:0.25;"/>
<path d="M30.6191 69.6379V59.6752H36.7094V60.8701H31.9292V63.6769H33.9082C35.0138 63.6769 35.864 63.9039 36.4586 64.3578C37.0532 64.8117 37.3505 65.5435 37.3505 66.5532C37.3505 67.2943 37.1972 67.8918 36.8906 68.3457C36.584 68.7996 36.1566 69.1284 35.6085 69.3322C35.0603 69.536 34.4285 69.6379 33.7131 69.6379H30.6191ZM33.7131 68.4568C34.3727 68.4568 34.9116 68.3225 35.3297 68.0539C35.7571 67.7852 35.9708 67.3035 35.9708 66.6088C35.9708 66.0159 35.7896 65.5759 35.4273 65.2888C35.0649 65.0016 34.5446 64.858 33.8664 64.858H31.9292V68.4568H33.7131Z" fill="black" fill-opacity="0.25" style="fill:black;fill-opacity:0.25;"/>
<path d="M1.42154 69.6379H0V59.6752H1.31004V67.901L6.80107 59.6752H8.22261V69.6379H6.88469V61.4537L1.42154 69.6379Z" fill="black" fill-opacity="0.25" style="fill:black;fill-opacity:0.25;"/>
<path d="M191.396 54.8892C190.597 54.8892 189.872 54.7225 189.222 54.389C188.571 54.0462 188.042 53.5414 187.633 52.8744C187.224 52.2075 186.982 51.383 186.908 50.4011H185.445V54.7503H184.135V44.7875H185.445V49.22H186.922C186.987 48.2381 187.224 47.4091 187.633 46.7328C188.042 46.0566 188.571 45.5425 189.222 45.1905C189.872 44.8385 190.597 44.6625 191.396 44.6625C192.241 44.6625 193.003 44.8524 193.681 45.2322C194.36 45.612 194.898 46.1817 195.298 46.9413C195.698 47.6916 195.897 48.6226 195.897 49.7342C195.897 50.8458 195.698 51.786 195.298 52.5548C194.898 53.3144 194.36 53.8934 193.681 54.2917C193.003 54.69 192.241 54.8892 191.396 54.8892ZM191.396 53.7081C191.99 53.7081 192.52 53.5784 192.985 53.3191C193.449 53.0597 193.816 52.6429 194.086 52.0685C194.355 51.4849 194.49 50.7207 194.49 49.7758C194.49 48.8217 194.355 48.0575 194.086 47.4832C193.816 46.9088 193.449 46.492 192.985 46.2326C192.52 45.9732 191.99 45.8436 191.396 45.8436C190.81 45.8436 190.285 45.9732 189.821 46.2326C189.356 46.492 188.989 46.9088 188.72 47.4832C188.45 48.0575 188.316 48.8217 188.316 49.7758C188.316 50.7207 188.45 51.4849 188.72 52.0685C188.989 52.6429 189.356 53.0597 189.821 53.3191C190.285 53.5784 190.81 53.7081 191.396 53.7081Z" fill="black" fill-opacity="0.25" style="fill:black;fill-opacity:0.25;"/>
<path d="M168.955 54.7503V44.7876H170.265V48.6504H172.244C173.35 48.6504 174.2 48.882 174.795 49.3452C175.389 49.8083 175.686 50.5587 175.686 51.5962C175.686 52.3558 175.533 52.9671 175.227 53.4303C174.92 53.8935 174.493 54.2316 173.944 54.4446C173.396 54.6484 172.764 54.7503 172.049 54.7503H168.955ZM172.049 53.5693C172.709 53.5693 173.248 53.4303 173.666 53.1524C174.093 52.8745 174.307 52.3743 174.307 51.6517C174.307 51.0404 174.126 50.5818 173.763 50.2761C173.401 49.9704 172.881 49.8176 172.202 49.8176H170.265V53.5693H172.049Z" fill="black" fill-opacity="0.25" style="fill:black;fill-opacity:0.25;"/>
<path d="M153.423 44.7876H156.809C157.906 44.7876 158.737 44.9729 159.304 45.3434C159.88 45.7139 160.168 46.3392 160.168 47.2192C160.168 47.9325 159.987 48.4744 159.625 48.8449C159.262 49.2062 158.779 49.4517 158.175 49.5814C158.946 49.674 159.532 49.901 159.931 50.2622C160.331 50.6142 160.531 51.1515 160.531 51.8741C160.531 52.5595 160.368 53.1153 160.043 53.5415C159.718 53.9676 159.272 54.2779 158.705 54.4724C158.138 54.6577 157.497 54.7503 156.782 54.7503H153.423V44.7876ZM156.712 49.0395C157.344 49.0395 157.855 48.9005 158.245 48.6226C158.644 48.3355 158.844 47.8908 158.844 47.2887C158.844 46.7792 158.668 46.4365 158.315 46.2605C157.962 46.0752 157.46 45.9826 156.809 45.9826H154.733V49.0395H156.712ZM156.782 53.5693C157.488 53.5693 158.059 53.4488 158.496 53.208C158.932 52.9671 159.151 52.5318 159.151 51.9019C159.151 51.2719 158.946 50.8366 158.538 50.5957C158.138 50.3456 157.502 50.2206 156.628 50.2206H154.733V53.5693H156.782Z" fill="black" fill-opacity="0.25" style="fill:black;fill-opacity:0.25;"/>
<path d="M140.343 54.8892C139.451 54.8892 138.642 54.69 137.918 54.2917C137.193 53.8934 136.617 53.3144 136.19 52.5548C135.772 51.786 135.562 50.8458 135.562 49.7342C135.562 48.6226 135.772 47.6916 136.19 46.9413C136.617 46.1817 137.193 45.612 137.918 45.2322C138.642 44.8524 139.451 44.6625 140.343 44.6625C141.253 44.6625 142.066 44.857 142.782 45.2461C143.506 45.6259 144.078 46.1909 144.496 46.9413C144.914 47.6916 145.123 48.6272 145.123 49.7481C145.123 50.8504 144.914 51.786 144.496 52.5548C144.078 53.3144 143.506 53.8934 142.782 54.2917C142.066 54.69 141.253 54.8892 140.343 54.8892ZM140.343 53.7081C140.984 53.7081 141.56 53.5784 142.071 53.3191C142.582 53.0597 142.981 52.6429 143.269 52.0685C143.567 51.4849 143.715 50.7207 143.715 49.7758C143.715 48.8217 143.567 48.0575 143.269 47.4832C142.981 46.9088 142.582 46.492 142.071 46.2326C141.56 45.9732 140.984 45.8436 140.343 45.8436C139.702 45.8436 139.126 45.9732 138.615 46.2326C138.113 46.492 137.713 46.9088 137.416 47.4832C137.119 48.0575 136.97 48.8217 136.97 49.7758C136.97 50.7207 137.119 51.4849 137.416 52.0685C137.713 52.6429 138.113 53.0597 138.615 53.3191C139.126 53.5784 139.702 53.7081 140.343 53.7081Z" fill="black" fill-opacity="0.25" style="fill:black;fill-opacity:0.25;"/>
<path d="M121.092 44.7876H124.283C125.417 44.7876 126.295 45.0238 126.917 45.4962C127.549 45.9594 127.865 46.6866 127.865 47.6778C127.865 48.4281 127.707 49.0395 127.391 49.5119C127.085 49.9843 126.653 50.3317 126.095 50.554C125.547 50.7671 124.906 50.8736 124.172 50.8736H122.402V54.7503H121.092V44.7876ZM124.172 49.6925C124.878 49.6925 125.449 49.5397 125.886 49.234C126.323 48.9283 126.541 48.4142 126.541 47.6917C126.541 47.0895 126.346 46.6542 125.956 46.3855C125.565 46.1169 125.008 45.9826 124.283 45.9826H122.402V49.6925H124.172Z" fill="black" fill-opacity="0.25" style="fill:black;fill-opacity:0.25;"/>
<path d="M108.012 54.8892C107.12 54.8892 106.311 54.69 105.587 54.2917C104.862 53.8934 104.286 53.3144 103.859 52.5548C103.44 51.786 103.231 50.8458 103.231 49.7342C103.231 48.6226 103.44 47.6916 103.859 46.9413C104.286 46.1817 104.862 45.612 105.587 45.2322C106.311 44.8524 107.12 44.6625 108.012 44.6625C108.922 44.6625 109.735 44.857 110.451 45.2461C111.175 45.6259 111.747 46.1909 112.165 46.9413C112.583 47.6916 112.792 48.6272 112.792 49.7481C112.792 50.8504 112.583 51.786 112.165 52.5548C111.747 53.3144 111.175 53.8934 110.451 54.2917C109.735 54.69 108.922 54.8892 108.012 54.8892ZM108.012 53.7081C108.653 53.7081 109.229 53.5784 109.74 53.3191C110.251 53.0597 110.65 52.6429 110.938 52.0685C111.236 51.4849 111.384 50.7207 111.384 49.7758C111.384 48.8217 111.236 48.0575 110.938 47.4832C110.65 46.9088 110.251 46.492 109.74 46.2326C109.229 45.9732 108.653 45.8436 108.012 45.8436C107.371 45.8436 106.795 45.9732 106.284 46.2326C105.782 46.492 105.382 46.9088 105.085 47.4832C104.788 48.0575 104.639 48.8217 104.639 49.7758C104.639 50.7207 104.788 51.4849 105.085 52.0685C105.382 52.6429 105.782 53.0597 106.284 53.3191C106.795 53.5784 107.371 53.7081 108.012 53.7081Z" fill="black" fill-opacity="0.25" style="fill:black;fill-opacity:0.25;"/>
<path d="M87.1329 57.1125H85.9482V53.5693H86.6311C87.0585 53.1802 87.3744 52.6151 87.5788 51.8741C87.7832 51.133 87.9226 50.1835 87.9969 49.0256C88.0713 47.8584 88.127 46.4457 88.1642 44.7876H94.5332V53.5693H95.8154V57.1125H94.6029L94.4635 54.7503H87.2862L87.1329 57.1125ZM88.1502 53.5693H93.2092V45.9826H89.3906C89.3627 47.3906 89.3023 48.5856 89.2094 49.5675C89.1258 50.5494 88.9957 51.3646 88.8192 52.013C88.6519 52.6522 88.429 53.1709 88.1502 53.5693Z" fill="black" fill-opacity="0.25" style="fill:black;fill-opacity:0.25;"/>
<path d="M74.6648 54.8892C73.9215 54.8892 73.2758 54.7966 72.7276 54.6113C72.1887 54.426 71.7938 54.2315 71.543 54.0277V52.7772C72.407 53.3978 73.4337 53.7081 74.623 53.7081C75.0875 53.7081 75.5103 53.6526 75.8912 53.5414C76.2721 53.4302 76.5787 53.245 76.811 52.9856C77.0433 52.717 77.1594 52.3557 77.1594 51.9018C77.1594 51.2719 76.955 50.8319 76.5462 50.5818C76.1467 50.3224 75.5474 50.1927 74.7484 50.1927H73.3129V49.0811H74.7205C75.4174 49.0811 75.9469 48.9329 76.3093 48.6365C76.6716 48.3308 76.8528 47.9139 76.8528 47.3859C76.8528 46.8116 76.6624 46.4086 76.2814 46.177C75.9005 45.9455 75.3988 45.8297 74.7763 45.8297C74.1445 45.8297 73.5684 45.8991 73.0481 46.0381C72.5371 46.177 72.0865 46.3484 71.6963 46.5522V45.3155C72.0029 45.1581 72.4024 45.0099 72.8948 44.8709C73.3965 44.732 74.0283 44.6625 74.7902 44.6625C75.8308 44.6625 76.6577 44.8755 77.2709 45.3016C77.8841 45.7278 78.1907 46.3947 78.1907 47.3025C78.1907 47.8861 78.0142 48.3724 77.6612 48.7615C77.3174 49.1413 76.811 49.4053 76.1421 49.5535C76.9225 49.6554 77.5171 49.8963 77.9259 50.2761C78.3348 50.6559 78.5392 51.1885 78.5392 51.874C78.5392 52.578 78.3626 53.1523 78.0096 53.597C77.6658 54.0416 77.2012 54.3705 76.6159 54.5835C76.0306 54.7873 75.3802 54.8892 74.6648 54.8892Z" fill="black" fill-opacity="0.25" style="fill:black;fill-opacity:0.25;"/>
<path d="M45.6924 57.1125H44.5078V53.5693H45.1907C45.6181 53.1802 45.934 52.6151 46.1384 51.8741C46.3428 51.133 46.4822 50.1835 46.5565 49.0256C46.6308 47.8584 46.6866 46.4457 46.7237 44.7876H53.0928V53.5693H54.3749V57.1125H53.1625L53.0231 54.7503H45.8457L45.6924 57.1125ZM46.7098 53.5693H51.7688V45.9826H47.9502C47.9223 47.3906 47.8619 48.5856 47.769 49.5675C47.6854 50.5494 47.5553 51.3646 47.3788 52.013C47.2115 52.6522 46.9885 53.1709 46.7098 53.5693Z" fill="black" fill-opacity="0.25" style="fill:black;fill-opacity:0.25;"/>
<path d="M30.5898 44.7876H36.7777V45.9826H31.8999V48.9978H36.0391V50.1789H31.8999V53.5693H36.8474V54.7503H30.5898V44.7876Z" fill="black" fill-opacity="0.25" style="fill:black;fill-opacity:0.25;"/>
<path d="M15.5332 44.7876H18.7247C19.8582 44.7876 20.7362 45.0238 21.3587 45.4962C21.9905 45.9594 22.3064 46.6866 22.3064 47.6778C22.3064 48.4281 22.1485 49.0395 21.8326 49.5119C21.526 49.9843 21.0939 50.3317 20.5365 50.554C19.9883 50.7671 19.3472 50.8736 18.6132 50.8736H16.8432V54.7503H15.5332V44.7876ZM18.6132 49.6925C19.3193 49.6925 19.8907 49.5397 20.3274 49.234C20.7641 48.9283 20.9824 48.4142 20.9824 47.6917C20.9824 47.0895 20.7873 46.6542 20.3971 46.3855C20.0069 46.1169 19.4494 45.9826 18.7247 45.9826H16.8432V49.6925H18.6132Z" fill="black" fill-opacity="0.25" style="fill:black;fill-opacity:0.25;"/>
<path d="M0 44.7876H3.3866C4.48295 44.7876 5.3145 44.9729 5.88126 45.3434C6.4573 45.7139 6.74533 46.3392 6.74533 47.2192C6.74533 47.9325 6.56415 48.4744 6.2018 48.8449C5.83945 49.2062 5.35631 49.4517 4.75239 49.5814C5.52355 49.674 6.10889 49.901 6.5084 50.2622C6.90792 50.6142 7.10768 51.1515 7.10768 51.8741C7.10768 52.5595 6.94509 53.1153 6.6199 53.5415C6.29471 53.9676 5.84874 54.2779 5.28198 54.4724C4.71522 54.6577 4.07414 54.7503 3.35873 54.7503H0V44.7876ZM3.28904 49.0395C3.92084 49.0395 4.43185 48.9005 4.82207 48.6226C5.22159 48.3355 5.42135 47.8908 5.42135 47.2887C5.42135 46.7792 5.24482 46.4365 4.89176 46.2605C4.53869 46.0752 4.03698 45.9826 3.3866 45.9826H1.31004V49.0395H3.28904ZM3.35873 53.5693C4.06485 53.5693 4.63625 53.4488 5.07293 53.208C5.50961 52.9671 5.72795 52.5318 5.72795 51.9019C5.72795 51.2719 5.52355 50.8366 5.11474 50.5957C4.71523 50.3456 4.07879 50.2206 3.20542 50.2206H1.31004V53.5693H3.35873Z" fill="black" fill-opacity="0.25" style="fill:black;fill-opacity:0.25;"/>
<path d="M172.139 29.9H173.449V34.3325H178.577V29.9H179.901V39.8628H178.577V35.5136H173.449V39.8628H172.139V29.9Z" fill="black" fill-opacity="0.25" style="fill:black;fill-opacity:0.25;"/>
<path d="M149.47 29.9H155.658V31.095H150.78V34.1102H154.919V35.2913H150.78V38.6817H155.727V39.8628H149.47V29.9Z" fill="black" fill-opacity="0.25" style="fill:black;fill-opacity:0.25;"/>
<path d="M120.966 39.8628L125.021 34.7911L121.147 29.9H122.569L126.053 34.3881H126.61V29.9H127.934V34.3881H128.519L132.004 29.9H133.439L129.537 34.8189L133.62 39.8628H132.018L128.506 35.4858H127.934V39.8628H126.61V35.4858H126.011L122.527 39.8628H120.966Z" fill="black" fill-opacity="0.25" style="fill:black;fill-opacity:0.25;"/>
<path d="M101.627 40.0018C100.735 40.0018 99.9267 39.8026 99.202 39.4043C98.4773 39.0059 97.9012 38.427 97.4738 37.6674C97.0557 36.8985 96.8467 35.9583 96.8467 34.8467C96.8467 33.7351 97.0557 32.8041 97.4738 32.0538C97.9012 31.2942 98.4773 30.7245 99.202 30.3447C99.9267 29.9649 100.735 29.775 101.627 29.775C102.537 29.775 103.35 29.9696 104.066 30.3586C104.791 30.7384 105.362 31.3035 105.78 32.0538C106.198 32.8041 106.407 33.7397 106.407 34.8606C106.407 35.9629 106.198 36.8985 105.78 37.6674C105.362 38.427 104.791 39.0059 104.066 39.4043C103.35 39.8026 102.537 40.0018 101.627 40.0018ZM101.627 38.8207C102.268 38.8207 102.844 38.691 103.355 38.4316C103.866 38.1722 104.266 37.7554 104.554 37.1811C104.851 36.5975 105 35.8333 105 34.8884C105 33.9343 104.851 33.17 104.554 32.5957C104.266 32.0214 103.866 31.6045 103.355 31.3452C102.844 31.0858 102.268 30.9561 101.627 30.9561C100.986 30.9561 100.41 31.0858 99.8988 31.3452C99.3971 31.6045 98.9976 32.0214 98.7003 32.5957C98.4029 33.17 98.2543 33.9343 98.2543 34.8884C98.2543 35.8333 98.4029 36.5975 98.7003 37.1811C98.9976 37.7554 99.3971 38.1722 99.8988 38.4316C100.41 38.691 100.986 38.8207 101.627 38.8207Z" fill="black" fill-opacity="0.25" style="fill:black;fill-opacity:0.25;"/>
<path d="M75.7051 38.3482H75.1337H75.1198L75.1337 38.3343L72.1095 31.7342V39.8628H70.8691V29.9H72.6948L75.8027 36.8892L79.0499 29.9H80.7502V39.8628H79.4262V31.8453L76.3602 38.3343L75.7051 38.3482Z" fill="black" fill-opacity="0.25" style="fill:black;fill-opacity:0.25;"/>
<path d="M50.7527 40.0018C50.0094 40.0018 49.3636 39.9091 48.8155 39.7239C48.2766 39.5386 47.8817 39.3441 47.6309 39.1403V37.8897C48.4949 38.5104 49.5216 38.8207 50.7109 38.8207C51.1754 38.8207 51.5982 38.7651 51.9791 38.6539C52.36 38.5428 52.6666 38.3575 52.8989 38.0981C53.1312 37.8295 53.2473 37.4682 53.2473 37.0143C53.2473 36.3844 53.0429 35.9444 52.6341 35.6943C52.2346 35.4349 51.6353 35.3052 50.8363 35.3052H49.4008V34.1936H50.8084C51.5052 34.1936 52.0348 34.0454 52.3972 33.749C52.7595 33.4433 52.9407 33.0265 52.9407 32.4984C52.9407 31.9241 52.7502 31.5212 52.3693 31.2896C51.9884 31.058 51.4867 30.9422 50.8642 30.9422C50.2324 30.9422 49.6563 31.0117 49.136 31.1506C48.625 31.2896 48.1744 31.461 47.7842 31.6647V30.4281C48.0908 30.2706 48.4903 30.1224 48.9827 29.9835C49.4844 29.8445 50.1162 29.775 50.8781 29.775C51.9187 29.775 52.7456 29.9881 53.3588 30.4142C53.972 30.8403 54.2786 31.5073 54.2786 32.4151C54.2786 32.9987 54.1021 33.485 53.749 33.8741C53.4053 34.2539 52.8989 34.5179 52.2299 34.6661C53.0104 34.768 53.605 35.0088 54.0138 35.3886C54.4226 35.7684 54.627 36.3011 54.627 36.9865C54.627 37.6906 54.4505 38.2649 54.0975 38.7095C53.7537 39.1542 53.2891 39.483 52.7038 39.6961C52.1185 39.8999 51.4681 40.0018 50.7527 40.0018Z" fill="black" fill-opacity="0.25" style="fill:black;fill-opacity:0.25;"/>
<path d="M27.4639 40.0018C26.5719 40.0018 25.7636 39.8026 25.0389 39.4043C24.3142 39.0059 23.7381 38.427 23.3107 37.6674C22.8926 36.8985 22.6836 35.9583 22.6836 34.8467C22.6836 33.7351 22.8926 32.8041 23.3107 32.0538C23.7381 31.2942 24.3142 30.7245 25.0389 30.3447C25.7636 29.9649 26.5719 29.775 27.4639 29.775C28.3744 29.775 29.1874 29.9696 29.9028 30.3586C30.6275 30.7384 31.1989 31.3035 31.617 32.0538C32.0351 32.8041 32.2441 33.7397 32.2441 34.8606C32.2441 35.9629 32.0351 36.8985 31.617 37.6674C31.1989 38.427 30.6275 39.0059 29.9028 39.4043C29.1874 39.8026 28.3744 40.0018 27.4639 40.0018ZM27.4639 38.8207C28.1049 38.8207 28.681 38.691 29.192 38.4316C29.703 38.1722 30.1025 37.7554 30.3905 37.1811C30.6879 36.5975 30.8365 35.8333 30.8365 34.8884C30.8365 33.9343 30.6879 33.17 30.3905 32.5957C30.1025 32.0214 29.703 31.6045 29.192 31.3452C28.681 31.0858 28.1049 30.9561 27.4639 30.9561C26.8228 30.9561 26.2467 31.0858 25.7357 31.3452C25.234 31.6045 24.8345 32.0214 24.5372 32.5957C24.2399 33.17 24.0912 33.9343 24.0912 34.8884C24.0912 35.8333 24.2399 36.5975 24.5372 37.1811C24.8345 37.7554 25.234 38.1722 25.7357 38.4316C26.2467 38.691 26.8228 38.8207 27.4639 38.8207Z" fill="black" fill-opacity="0.25" style="fill:black;fill-opacity:0.25;"/>
<path d="M0 29.9H3.3866C4.48295 29.9 5.3145 30.0853 5.88126 30.4558C6.4573 30.8264 6.74533 31.4516 6.74533 32.3317C6.74533 33.0449 6.56415 33.5868 6.2018 33.9574C5.83945 34.3186 5.35631 34.5641 4.75239 34.6938C5.52355 34.7864 6.10889 35.0134 6.5084 35.3747C6.90792 35.7267 7.10768 36.2639 7.10768 36.9865C7.10768 37.672 6.94509 38.2278 6.6199 38.6539C6.29471 39.08 5.84874 39.3903 5.28198 39.5849C4.71522 39.7701 4.07414 39.8628 3.35873 39.8628H0V29.9ZM3.28904 34.1519C3.92084 34.1519 4.43185 34.013 4.82207 33.7351C5.22159 33.4479 5.42135 33.0032 5.42135 32.4011C5.42135 31.8916 5.24482 31.5489 4.89176 31.3729C4.53869 31.1876 4.03698 31.095 3.3866 31.095H1.31004V34.1519H3.28904ZM3.35873 38.6817C4.06485 38.6817 4.63625 38.5613 5.07293 38.3204C5.50961 38.0796 5.72795 37.6442 5.72795 37.0143C5.72795 36.3844 5.52355 35.949 5.11474 35.7081C4.71523 35.458 4.07879 35.333 3.20542 35.333H1.31004V38.6817H3.35873Z" fill="black" fill-opacity="0.25" style="fill:black;fill-opacity:0.25;"/>
<path d="M196.108 25.0586C195.848 25.0586 195.63 24.9752 195.453 24.8085C195.286 24.6325 195.202 24.4241 195.202 24.1832C195.202 23.9239 195.286 23.7108 195.453 23.5441C195.63 23.3773 195.848 23.2939 196.108 23.2939C196.368 23.2939 196.582 23.3773 196.749 23.5441C196.916 23.7108 197 23.9239 197 24.1832C197 24.4241 196.916 24.6325 196.749 24.8085C196.582 24.9752 196.368 25.0586 196.108 25.0586Z" fill="black" fill-opacity="0.25" style="fill:black;fill-opacity:0.25;"/>
<path d="M188.096 23.4607H187.524H187.51L187.524 23.4468L184.5 16.8467V24.9753H183.26V15.0126H185.085L188.193 22.0018L191.441 15.0126H193.141V24.9753H191.817V16.9579L188.751 23.4468L188.096 23.4607Z" fill="black" fill-opacity="0.25" style="fill:black;fill-opacity:0.25;"/>
<path d="M176.59 25.1143C175.698 25.1143 174.89 24.9151 174.165 24.5168C173.44 24.1185 172.864 23.5395 172.437 22.7799C172.019 22.0111 171.81 21.0709 171.81 19.9593C171.81 18.8477 172.019 17.9167 172.437 17.1664C172.864 16.4068 173.44 15.8371 174.165 15.4573C174.89 15.0775 175.698 14.8876 176.59 14.8876C177.5 14.8876 178.313 15.0821 179.029 15.4712C179.753 15.851 180.325 16.416 180.743 17.1664C181.161 17.9167 181.37 18.8523 181.37 19.9731C181.37 21.0755 181.161 22.0111 180.743 22.7799C180.325 23.5395 179.753 24.1185 179.029 24.5168C178.313 24.9151 177.5 25.1143 176.59 25.1143ZM176.59 23.9332C177.231 23.9332 177.807 23.8035 178.318 23.5442C178.829 23.2848 179.229 22.8679 179.517 22.2936C179.814 21.71 179.962 20.9458 179.962 20.0009C179.962 19.0468 179.814 18.2826 179.517 17.7083C179.229 17.1339 178.829 16.7171 178.318 16.4577C177.807 16.1983 177.231 16.0686 176.59 16.0686C175.949 16.0686 175.373 16.1983 174.862 16.4577C174.36 16.7171 173.96 17.1339 173.663 17.7083C173.366 18.2826 173.217 19.0468 173.217 20.0009C173.217 20.9458 173.366 21.71 173.663 22.2936C173.96 22.8679 174.36 23.2848 174.862 23.5442C175.373 23.8035 175.949 23.9332 176.59 23.9332Z" fill="black" fill-opacity="0.25" style="fill:black;fill-opacity:0.25;"/>
<path d="M162.533 17.7916V15.0126H163.857V17.7916C163.857 18.5697 164.048 19.1672 164.429 19.584C164.819 20.0009 165.39 20.2093 166.143 20.2093C166.598 20.2093 167.035 20.1584 167.453 20.0565C167.871 19.9453 168.257 19.7647 168.61 19.5146V15.0126H169.934V24.9753H168.61V20.6262C168.229 20.867 167.829 21.043 167.411 21.1542C167.002 21.2653 166.575 21.3209 166.129 21.3209C164.986 21.3209 164.099 21.0337 163.467 20.4594C162.844 19.8851 162.533 18.9958 162.533 17.7916Z" fill="black" fill-opacity="0.25" style="fill:black;fill-opacity:0.25;"/>
<path d="M162.114 24.9753H160.72L159.689 22.1268H155.271L154.254 24.9753H153.027L156.581 15.0126H158.532L162.114 24.9753ZM155.703 20.9457H159.271L157.487 15.9852L155.703 20.9457Z" fill="black" fill-opacity="0.25" style="fill:black;fill-opacity:0.25;"/>
<path d="M146.104 15.0126H149.296C150.43 15.0126 151.308 15.2488 151.93 15.7212C152.562 16.1844 152.878 16.9116 152.878 17.9027C152.878 18.6531 152.72 19.2644 152.404 19.7369C152.097 20.2093 151.665 20.5567 151.108 20.779C150.56 20.9921 149.918 21.0986 149.184 21.0986H147.415V24.9753H146.104V15.0126ZM149.184 19.9175C149.891 19.9175 150.462 19.7647 150.899 19.459C151.335 19.1533 151.554 18.6392 151.554 17.9166C151.554 17.3145 151.359 16.8791 150.968 16.6105C150.578 16.3419 150.021 16.2075 149.296 16.2075H147.415V19.9175H149.184Z" fill="black" fill-opacity="0.25" style="fill:black;fill-opacity:0.25;"/>
<path d="M136.982 15.0126H140.369C141.465 15.0126 142.297 15.1978 142.864 15.5684C143.44 15.9389 143.728 16.5642 143.728 17.4442C143.728 18.1575 143.547 18.6994 143.184 19.0699C142.822 19.4312 142.339 19.6767 141.735 19.8064C142.506 19.899 143.091 20.1259 143.491 20.4872C143.89 20.8392 144.09 21.3765 144.09 22.099C144.09 22.7845 143.928 23.3403 143.602 23.7664C143.277 24.1925 142.831 24.5029 142.264 24.6974C141.698 24.8827 141.057 24.9753 140.341 24.9753H136.982V15.0126ZM140.271 19.2644C140.903 19.2644 141.414 19.1255 141.805 18.8476C142.204 18.5604 142.404 18.1158 142.404 17.5137C142.404 17.0042 142.227 16.6614 141.874 16.4854C141.521 16.3002 141.019 16.2075 140.369 16.2075H138.292V19.2644H140.271ZM140.341 23.7942C141.047 23.7942 141.619 23.6738 142.055 23.433C142.492 23.1921 142.71 22.7567 142.71 22.1268C142.71 21.4969 142.506 21.0615 142.097 20.8207C141.698 20.5706 141.061 20.4455 140.188 20.4455H138.292V23.7942H140.341Z" fill="black" fill-opacity="0.25" style="fill:black;fill-opacity:0.25;"/>
<path d="M128.898 25.1143C127.913 25.1143 127.049 24.9105 126.306 24.5029C125.572 24.0953 125.001 23.5117 124.592 22.7522C124.183 21.9833 123.979 21.0662 123.979 20.0009C123.979 18.3984 124.401 17.1478 125.247 16.2493C126.092 15.3415 127.3 14.8876 128.87 14.8876C129.549 14.8876 130.143 14.9617 130.654 15.1099C131.174 15.2488 131.593 15.4156 131.908 15.6101V16.8607C131.49 16.592 131.007 16.3929 130.459 16.2632C129.92 16.1335 129.386 16.0686 128.856 16.0686C127.686 16.0686 126.817 16.3975 126.25 17.0552C125.683 17.7129 125.4 18.6948 125.4 20.0009C125.4 21.3163 125.707 22.3029 126.32 22.9606C126.933 23.609 127.83 23.9332 129.01 23.9332C129.521 23.9332 130.018 23.8638 130.501 23.7248C130.993 23.5859 131.462 23.3496 131.908 23.0162V24.2667C131.639 24.4798 131.244 24.6743 130.724 24.8503C130.213 25.0263 129.604 25.1143 128.898 25.1143Z" fill="black" fill-opacity="0.25" style="fill:black;fill-opacity:0.25;"/>
<path d="M112.866 24.9753V15.0126H114.176V18.8754H116.155C117.261 18.8754 118.111 19.107 118.706 19.5701C119.3 20.0333 119.598 20.7836 119.598 21.8211C119.598 22.5807 119.444 23.1921 119.138 23.6553C118.831 24.1184 118.404 24.4566 117.856 24.6696C117.307 24.8734 116.676 24.9753 115.96 24.9753H112.866ZM115.96 23.7942C116.62 23.7942 117.159 23.6553 117.577 23.3774C118.004 23.0995 118.218 22.5993 118.218 21.8767C118.218 21.2653 118.037 20.8068 117.674 20.5011C117.312 20.1954 116.792 20.0426 116.113 20.0426H114.176V23.7942H115.96Z" fill="black" fill-opacity="0.25" style="fill:black;fill-opacity:0.25;"/>
<path d="M107.711 25.1143C106.726 25.1143 105.862 24.9105 105.118 24.5029C104.384 24.0953 103.813 23.5117 103.404 22.7522C102.995 21.9833 102.791 21.0662 102.791 20.0009C102.791 18.3984 103.214 17.1478 104.059 16.2493C104.905 15.3415 106.113 14.8876 107.683 14.8876C108.361 14.8876 108.956 14.9617 109.467 15.1099C109.987 15.2488 110.405 15.4156 110.721 15.6101V16.8607C110.303 16.592 109.82 16.3929 109.272 16.2632C108.733 16.1335 108.198 16.0686 107.669 16.0686C106.498 16.0686 105.629 16.3975 105.063 17.0552C104.496 17.7129 104.213 18.6948 104.213 20.0009C104.213 21.3163 104.519 22.3029 105.132 22.9606C105.746 23.609 106.642 23.9332 107.822 23.9332C108.333 23.9332 108.83 23.8638 109.313 23.7248C109.806 23.5859 110.275 23.3496 110.721 23.0162V24.2667C110.452 24.4798 110.057 24.6743 109.536 24.8503C109.025 25.0263 108.417 25.1143 107.711 25.1143Z" fill="black" fill-opacity="0.25" style="fill:black;fill-opacity:0.25;"/>
<path d="M95.1807 15.0126H101.369V16.2075H96.4907V19.2228H100.63V20.4038H96.4907V23.7942H101.438V24.9753H95.1807V15.0126Z" fill="black" fill-opacity="0.25" style="fill:black;fill-opacity:0.25;"/>
<path d="M85.9727 16.2214V15.0126H93.4566V16.2214H90.3766V24.9753H89.0527V16.2214H85.9727Z" fill="black" fill-opacity="0.25" style="fill:black;fill-opacity:0.25;"/>
<path d="M80.024 14.4706C79.2342 14.4706 78.6489 14.276 78.2679 13.887C77.887 13.4887 77.6965 13.007 77.6965 12.4419H78.923C78.923 12.8402 79.0205 13.1274 79.2156 13.3034C79.4108 13.4794 79.6802 13.5674 80.024 13.5674C80.3677 13.5674 80.6325 13.4794 80.8183 13.3034C81.0135 13.1274 81.111 12.8402 81.111 12.4419H82.3374C82.3374 13.007 82.147 13.4887 81.766 13.887C81.3944 14.276 80.8137 14.4706 80.024 14.4706ZM77.4596 24.9752H76.0381V15.0125H77.3481V23.2383L82.8392 15.0125H84.2607V24.9752H82.9228V16.791L77.4596 24.9752Z" fill="black" fill-opacity="0.25" style="fill:black;fill-opacity:0.25;"/>
<path d="M67.8448 23.6692C68.4209 23.7248 68.8715 23.6414 69.1967 23.4191C69.5219 23.1875 69.7913 22.8864 70.005 22.5159L66.2979 15.0126H67.7891L70.674 21.0152L73.1686 15.0126H74.5205L71.3568 22.2797C71.0967 22.8911 70.8133 23.4052 70.5067 23.822C70.2001 24.2389 69.8331 24.5446 69.4057 24.7391C68.9876 24.9336 68.4673 25.0124 67.8448 24.9753V23.6692Z" fill="black" fill-opacity="0.25" style="fill:black;fill-opacity:0.25;"/>
<path d="M57.7627 16.2214V15.0126H65.2467V16.2214H62.1667V24.9753H60.8427V16.2214H57.7627Z" fill="black" fill-opacity="0.25" style="fill:black;fill-opacity:0.25;"/>
<path d="M50.1152 15.0126H56.3031V16.2075H51.4253V19.2228H55.5645V20.4038H51.4253V23.7942H56.3728V24.9753H50.1152V15.0126Z" fill="black" fill-opacity="0.25" style="fill:black;fill-opacity:0.25;"/>
<path d="M40.9932 15.0126H44.3798C45.4761 15.0126 46.3077 15.1978 46.8744 15.5684C47.4505 15.9389 47.7385 16.5642 47.7385 17.4442C47.7385 18.1575 47.5573 18.6994 47.195 19.0699C46.8326 19.4312 46.3495 19.6767 45.7456 19.8064C46.5167 19.899 47.1021 20.1259 47.5016 20.4872C47.9011 20.8392 48.1008 21.3765 48.1008 22.099C48.1008 22.7845 47.9383 23.3403 47.6131 23.7664C47.2879 24.1925 46.8419 24.5029 46.2751 24.6974C45.7084 24.8827 45.0673 24.9753 44.3519 24.9753H40.9932V15.0126ZM44.2822 19.2644C44.914 19.2644 45.425 19.1255 45.8152 18.8476C46.2148 18.5604 46.4145 18.1158 46.4145 17.5137C46.4145 17.0042 46.238 16.6614 45.8849 16.4854C45.5319 16.3002 45.0301 16.2075 44.3798 16.2075H42.3032V19.2644H44.2822ZM44.3519 23.7942C45.058 23.7942 45.6294 23.6738 46.0661 23.433C46.5028 23.1921 46.7211 22.7567 46.7211 22.1268C46.7211 21.4969 46.5167 21.0615 46.1079 20.8207C45.7084 20.5706 45.072 20.4455 44.1986 20.4455H42.3032V23.7942H44.3519Z" fill="black" fill-opacity="0.25" style="fill:black;fill-opacity:0.25;"/>
<path d="M34.3232 25.1143C33.4313 25.1143 32.623 24.9151 31.8983 24.5168C31.1736 24.1185 30.5975 23.5395 30.1701 22.7799C29.752 22.0111 29.543 21.0709 29.543 19.9593C29.543 18.8477 29.752 17.9167 30.1701 17.1664C30.5975 16.4068 31.1736 15.8371 31.8983 15.4573C32.623 15.0775 33.4313 14.8876 34.3232 14.8876C35.2338 14.8876 36.0467 15.0821 36.7621 15.4712C37.4868 15.851 38.0582 16.416 38.4763 17.1664C38.8944 17.9167 39.1035 18.8523 39.1035 19.9731C39.1035 21.0755 38.8944 22.0111 38.4763 22.7799C38.0582 23.5395 37.4868 24.1185 36.7621 24.5168C36.0467 24.9151 35.2338 25.1143 34.3232 25.1143ZM34.3232 23.9332C34.9643 23.9332 35.5404 23.8035 36.0514 23.5442C36.5624 23.2848 36.9619 22.8679 37.2499 22.2936C37.5472 21.71 37.6959 20.9458 37.6959 20.0009C37.6959 19.0468 37.5472 18.2826 37.2499 17.7083C36.9619 17.1339 36.5624 16.7171 36.0514 16.4577C35.5404 16.1983 34.9643 16.0686 34.3232 16.0686C33.6821 16.0686 33.1061 16.1983 32.5951 16.4577C32.0934 16.7171 31.6939 17.1339 31.3965 17.7083C31.0992 18.2826 30.9506 19.0468 30.9506 20.0009C30.9506 20.9458 31.0992 21.71 31.3965 22.2936C31.6939 22.8679 32.0934 23.2848 32.5951 23.5442C33.1061 23.8035 33.6821 23.9332 34.3232 23.9332Z" fill="black" fill-opacity="0.25" style="fill:black;fill-opacity:0.25;"/>
<path d="M25.1784 25.1143C24.1936 25.1143 23.3295 24.9105 22.5862 24.5029C21.8522 24.0953 21.2808 23.5117 20.872 22.7522C20.4632 21.9833 20.2588 21.0662 20.2588 20.0009C20.2588 18.3984 20.6815 17.1478 21.527 16.2493C22.3725 15.3415 23.5804 14.8876 25.1505 14.8876C25.8288 14.8876 26.4234 14.9617 26.9344 15.1099C27.4547 15.2488 27.8728 15.4156 28.1887 15.6101V16.8607C27.7706 16.592 27.2875 16.3929 26.7393 16.2632C26.2004 16.1335 25.6662 16.0686 25.1366 16.0686C23.9659 16.0686 23.0972 16.3975 22.5305 17.0552C21.9637 17.7129 21.6803 18.6948 21.6803 20.0009C21.6803 21.3163 21.9869 22.3029 22.6001 22.9606C23.2134 23.609 24.1099 23.9332 25.2899 23.9332C25.8009 23.9332 26.298 23.8638 26.7811 23.7248C27.2736 23.5859 27.7428 23.3496 28.1887 23.0162V24.2667C27.9193 24.4798 27.5244 24.6743 27.0041 24.8503C26.4931 25.0263 25.8845 25.1143 25.1784 25.1143Z" fill="black" fill-opacity="0.25" style="fill:black;fill-opacity:0.25;"/>
<path d="M14.1738 25.1143C13.2819 25.1143 12.4735 24.9151 11.7488 24.5168C11.0241 24.1185 10.4481 23.5395 10.0207 22.7799C9.6026 22.0111 9.39355 21.0709 9.39355 19.9593C9.39355 18.8477 9.6026 17.9167 10.0207 17.1664C10.4481 16.4068 11.0241 15.8371 11.7488 15.4573C12.4735 15.0775 13.2819 14.8876 14.1738 14.8876C15.0843 14.8876 15.8973 15.0821 16.6127 15.4712C17.3374 15.851 17.9088 16.416 18.3269 17.1664C18.745 17.9167 18.9541 18.8523 18.9541 19.9731C18.9541 21.0755 18.745 22.0111 18.3269 22.7799C17.9088 23.5395 17.3374 24.1185 16.6127 24.5168C15.8973 24.9151 15.0843 25.1143 14.1738 25.1143ZM14.1738 23.9332C14.8149 23.9332 15.3909 23.8035 15.902 23.5442C16.413 23.2848 16.8125 22.8679 17.1005 22.2936C17.3978 21.71 17.5465 20.9458 17.5465 20.0009C17.5465 19.0468 17.3978 18.2826 17.1005 17.7083C16.8125 17.1339 16.413 16.7171 15.902 16.4577C15.3909 16.1983 14.8149 16.0686 14.1738 16.0686C13.5327 16.0686 12.9567 16.1983 12.4457 16.4577C11.944 16.7171 11.5444 17.1339 11.2471 17.7083C10.9498 18.2826 10.8012 19.0468 10.8012 20.0009C10.8012 20.9458 10.9498 21.71 11.2471 22.2936C11.5444 22.8679 11.944 23.2848 12.4457 23.5442C12.9567 23.8035 13.5327 23.9332 14.1738 23.9332Z" fill="black" fill-opacity="0.25" style="fill:black;fill-opacity:0.25;"/>
<path d="M0 15.0126H7.51184V24.9753H6.18786V16.2075H1.31004V24.9753H0V15.0126Z" fill="black" fill-opacity="0.25" style="fill:black;fill-opacity:0.25;"/>
<path d="M194.241 10.1712C193.981 10.1712 193.762 10.0878 193.586 9.92105C193.419 9.74505 193.335 9.53662 193.335 9.29578C193.335 9.0364 193.419 8.82334 193.586 8.6566C193.762 8.48986 193.981 8.40649 194.241 8.40649C194.501 8.40649 194.715 8.48986 194.882 8.6566C195.049 8.82334 195.133 9.0364 195.133 9.29578C195.133 9.53662 195.049 9.74505 194.882 9.92105C194.715 10.0878 194.501 10.1712 194.241 10.1712Z" fill="black" fill-opacity="0.25" style="fill:black;fill-opacity:0.25;"/>
<path d="M191.265 0.125V10.0877H189.941V6.09986H188.13L185.37 10.0877H183.768L186.792 5.86364C186.058 5.70617 185.496 5.40048 185.105 4.94657C184.715 4.49267 184.52 3.87666 184.52 3.09853C184.52 2.39452 184.673 1.82482 184.98 1.38945C185.287 0.954069 185.714 0.634484 186.262 0.43069C186.81 0.226897 187.442 0.125 188.158 0.125H191.265ZM188.018 4.91878H189.941V1.31997H188.158C187.498 1.31997 186.954 1.45429 186.527 1.72293C186.109 1.9823 185.9 2.44084 185.9 3.09853C185.9 3.71918 186.081 4.17771 186.443 4.47414C186.815 4.77057 187.34 4.91878 188.018 4.91878Z" fill="black" fill-opacity="0.25" style="fill:black;fill-opacity:0.25;"/>
<path d="M175.324 10.0877H173.902V0.125H175.212V8.35085L180.703 0.125H182.125V10.0877H180.787V1.90356L175.324 10.0877Z" fill="black" fill-opacity="0.25" style="fill:black;fill-opacity:0.25;"/>
<path d="M163.678 0.125H164.988V4.55751H170.116V0.125H171.44V10.0877H170.116V5.73859H164.988V10.0877H163.678V0.125Z" fill="black" fill-opacity="0.25" style="fill:black;fill-opacity:0.25;"/>
<path d="M162.098 10.0877H160.705L159.673 7.23925H155.256L154.238 10.0877H153.012L156.566 0.125H158.517L162.098 10.0877ZM155.688 6.05817H159.255L157.471 1.09765L155.688 6.05817Z" fill="black" fill-opacity="0.25" style="fill:black;fill-opacity:0.25;"/>
<path d="M148.205 10.2267C147.462 10.2267 146.816 10.1341 146.268 9.94884C145.729 9.76357 145.334 9.56904 145.083 9.36524V8.11469C145.947 8.73534 146.974 9.04566 148.163 9.04566C148.628 9.04566 149.05 8.99008 149.431 8.87892C149.812 8.76776 150.119 8.58249 150.351 8.32312C150.583 8.05448 150.699 7.69321 150.699 7.23931C150.699 6.6094 150.495 6.16939 150.086 5.91928C149.687 5.6599 149.087 5.53022 148.288 5.53022H146.853V4.41862H148.261C148.957 4.41862 149.487 4.2704 149.849 3.97398C150.212 3.66829 150.393 3.25143 150.393 2.72342C150.393 2.1491 150.202 1.74614 149.821 1.51456C149.441 1.28297 148.939 1.16718 148.316 1.16718C147.685 1.16718 147.108 1.23666 146.588 1.37561C146.077 1.51456 145.627 1.68593 145.236 1.88972V0.653066C145.543 0.495589 145.942 0.347375 146.435 0.208425C146.937 0.0694749 147.568 0 148.33 0C149.371 0 150.198 0.213057 150.811 0.639171C151.424 1.06529 151.731 1.73225 151.731 2.64005C151.731 3.22364 151.554 3.70997 151.201 4.09903C150.857 4.47883 150.351 4.74283 149.682 4.89105C150.463 4.99294 151.057 5.23379 151.466 5.61359C151.875 5.99339 152.079 6.52603 152.079 7.21152C152.079 7.91553 151.903 8.48986 151.55 8.9345C151.206 9.37914 150.741 9.70799 150.156 9.92105C149.571 10.1248 148.92 10.2267 148.205 10.2267Z" fill="black" fill-opacity="0.25" style="fill:black;fill-opacity:0.25;"/>
<path d="M144.004 10.0877H142.61L141.579 7.23925H137.161L136.143 10.0877H134.917L138.471 0.125H140.422L144.004 10.0877ZM137.593 6.05817H141.161L139.377 1.09765L137.593 6.05817Z" fill="black" fill-opacity="0.25" style="fill:black;fill-opacity:0.25;"/>
<path d="M134.225 10.0877H132.595L129.11 5.82196H128.051V10.0877H126.741V0.125H128.051V4.64088H129.027L132.595 0.125H134.072L130.128 5.09942L134.225 10.0877Z" fill="black" fill-opacity="0.25" style="fill:black;fill-opacity:0.25;"/>
<path d="M120.072 10.2267C119.18 10.2267 118.372 10.0276 117.647 9.62925C116.923 9.23093 116.347 8.65197 115.919 7.89237C115.501 7.12351 115.292 6.18328 115.292 5.07168C115.292 3.96008 115.501 3.02911 115.919 2.27878C116.347 1.51919 116.923 0.949492 117.647 0.569695C118.372 0.189898 119.18 0 120.072 0C120.983 0 121.796 0.19453 122.511 0.583591C123.236 0.963388 123.807 1.52845 124.225 2.27878C124.643 3.02911 124.853 3.96471 124.853 5.08558C124.853 6.18792 124.643 7.12351 124.225 7.89237C123.807 8.65197 123.236 9.23093 122.511 9.62925C121.796 10.0276 120.983 10.2267 120.072 10.2267ZM120.072 9.04566C120.713 9.04566 121.289 8.91597 121.8 8.6566C122.311 8.39722 122.711 7.98037 122.999 7.40605C123.296 6.82246 123.445 6.05823 123.445 5.11337C123.445 4.15924 123.296 3.39502 122.999 2.82069C122.711 2.24636 122.311 1.82951 121.8 1.57014C121.289 1.31076 120.713 1.18108 120.072 1.18108C119.431 1.18108 118.855 1.31076 118.344 1.57014C117.842 1.82951 117.443 2.24636 117.146 2.82069C116.848 3.39502 116.7 4.15924 116.7 5.11337C116.7 6.05823 116.848 6.82246 117.146 7.40605C117.443 7.98037 117.842 8.39722 118.344 8.6566C118.855 8.91597 119.431 9.04566 120.072 9.04566Z" fill="black" fill-opacity="0.25" style="fill:black;fill-opacity:0.25;"/>
<path d="M105.898 0.125H113.41V10.0877H112.086V1.31997H107.208V10.0877H105.898V0.125Z" fill="black" fill-opacity="0.25" style="fill:black;fill-opacity:0.25;"/>
<path d="M99.2285 10.2267C98.3366 10.2267 97.5282 10.0276 96.8035 9.62925C96.0788 9.23093 95.5028 8.65197 95.0754 7.89237C94.6573 7.12351 94.4482 6.18328 94.4482 5.07168C94.4482 3.96008 94.6573 3.02911 95.0754 2.27878C95.5028 1.51919 96.0788 0.949492 96.8035 0.569695C97.5282 0.189898 98.3366 0 99.2285 0C100.139 0 100.952 0.19453 101.667 0.583591C102.392 0.963388 102.964 1.52845 103.382 2.27878C103.8 3.02911 104.009 3.96471 104.009 5.08558C104.009 6.18792 103.8 7.12351 103.382 7.89237C102.964 8.65197 102.392 9.23093 101.667 9.62925C100.952 10.0276 100.139 10.2267 99.2285 10.2267ZM99.2285 9.04566C99.8696 9.04566 100.446 8.91597 100.957 8.6566C101.468 8.39722 101.867 7.98037 102.155 7.40605C102.453 6.82246 102.601 6.05823 102.601 5.11337C102.601 4.15924 102.453 3.39502 102.155 2.82069C101.867 2.24636 101.468 1.82951 100.957 1.57014C100.446 1.31076 99.8696 1.18108 99.2285 1.18108C98.5874 1.18108 98.0114 1.31076 97.5004 1.57014C96.9986 1.82951 96.5991 2.24636 96.3018 2.82069C96.0045 3.39502 95.8558 4.15924 95.8558 5.11337C95.8558 6.05823 96.0045 6.82246 96.3018 7.40605C96.5991 7.98037 96.9986 8.39722 97.5004 8.6566C98.0114 8.91597 98.5874 9.04566 99.2285 9.04566Z" fill="black" fill-opacity="0.25" style="fill:black;fill-opacity:0.25;"/>
<path d="M85.9805 0.125H89.3671C90.4634 0.125 91.295 0.310267 91.8617 0.6808C92.4378 1.05133 92.7258 1.67661 92.7258 2.55663C92.7258 3.26991 92.5446 3.81181 92.1823 4.18235C91.8199 4.54362 91.3368 4.7891 90.7329 4.91878C91.504 5.01142 92.0894 5.23837 92.4889 5.59964C92.8884 5.95164 93.0881 6.48892 93.0881 7.21146C93.0881 7.89695 92.9255 8.45275 92.6004 8.87886C92.2752 9.30498 91.8292 9.6153 91.2624 9.80983C90.6957 9.9951 90.0546 10.0877 89.3392 10.0877H85.9805V0.125ZM89.2695 4.37688C89.9013 4.37688 90.4123 4.23793 90.8025 3.96003C91.2021 3.67286 91.4018 3.22822 91.4018 2.6261C91.4018 2.11662 91.2253 1.77388 90.8722 1.59787C90.5192 1.41261 90.0174 1.31997 89.3671 1.31997H87.2905V4.37688H89.2695ZM89.3392 8.90665C90.0453 8.90665 90.6167 8.78623 91.0534 8.54538C91.4901 8.30454 91.7084 7.86916 91.7084 7.23925C91.7084 6.60934 91.504 6.17397 91.0952 5.93312C90.6957 5.68301 90.0593 5.55795 89.1859 5.55795H87.2905V8.90665H89.3392Z" fill="black" fill-opacity="0.25" style="fill:black;fill-opacity:0.25;"/>
<path d="M76.7135 10.0877H75.292V0.125H76.602V8.35085L82.0931 0.125H83.5146V10.0877H82.1767V1.90356L76.7135 10.0877Z" fill="black" fill-opacity="0.25" style="fill:black;fill-opacity:0.25;"/>
<path d="M66.085 1.33387V0.125H73.5689V1.33387H70.4889V10.0877H69.165V1.33387H66.085Z" fill="black" fill-opacity="0.25" style="fill:black;fill-opacity:0.25;"/>
<path d="M60.6592 10.2267C59.7672 10.2267 58.9589 10.0276 58.2342 9.62925C57.5095 9.23093 56.9334 8.65197 56.5061 7.89237C56.088 7.12351 55.8789 6.18328 55.8789 5.07168C55.8789 3.96008 56.088 3.02911 56.5061 2.27878C56.9334 1.51919 57.5095 0.949492 58.2342 0.569695C58.9589 0.189898 59.7672 0 60.6592 0C61.5697 0 62.3827 0.19453 63.0981 0.583591C63.8228 0.963388 64.3942 1.52845 64.8123 2.27878C65.2304 3.02911 65.4394 3.96471 65.4394 5.08558C65.4394 6.18792 65.2304 7.12351 64.8123 7.89237C64.3942 8.65197 63.8228 9.23093 63.0981 9.62925C62.3827 10.0276 61.5697 10.2267 60.6592 10.2267ZM60.6592 9.04566C61.3003 9.04566 61.8763 8.91597 62.3873 8.6566C62.8983 8.39722 63.2978 7.98037 63.5859 7.40605C63.8832 6.82246 64.0318 6.05823 64.0318 5.11337C64.0318 4.15924 63.8832 3.39502 63.5859 2.82069C63.2978 2.24636 62.8983 1.82951 62.3873 1.57014C61.8763 1.31076 61.3003 1.18108 60.6592 1.18108C60.0181 1.18108 59.442 1.31076 58.931 1.57014C58.4293 1.82951 58.0298 2.24636 57.7325 2.82069C57.4352 3.39502 57.2865 4.15924 57.2865 5.11337C57.2865 6.05823 57.4352 6.82246 57.7325 7.40605C58.0298 7.98037 58.4293 8.39722 58.931 8.6566C59.442 8.91597 60.0181 9.04566 60.6592 9.04566Z" fill="black" fill-opacity="0.25" style="fill:black;fill-opacity:0.25;"/>
<path d="M47.8174 0.125H51.0089C52.1424 0.125 53.0204 0.361215 53.6429 0.833646C54.2747 1.29681 54.5906 2.02399 54.5906 3.01516C54.5906 3.7655 54.4326 4.37688 54.1167 4.84931C53.8101 5.32174 53.3781 5.66911 52.8206 5.89143C52.2725 6.10449 51.6314 6.21102 50.8974 6.21102H49.1274V10.0877H47.8174V0.125ZM50.8974 5.02994C51.6035 5.02994 52.1749 4.8771 52.6116 4.57141C53.0483 4.26572 53.2666 3.7516 53.2666 3.02906C53.2666 2.42694 53.0715 1.99156 52.6813 1.72293C52.291 1.45429 51.7336 1.31997 51.0089 1.31997H49.1274V5.02994H50.8974Z" fill="black" fill-opacity="0.25" style="fill:black;fill-opacity:0.25;"/>
<path d="M37.8389 0.125H45.3507V10.0877H44.0267V1.31997H39.1489V10.0877H37.8389V0.125Z" fill="black" fill-opacity="0.25" style="fill:black;fill-opacity:0.25;"/>
<path d="M26.1406 10.0877V0.125H27.4507V3.98782H29.4297C30.5353 3.98782 31.3854 4.2194 31.9801 4.68257C32.5747 5.14573 32.872 5.89606 32.872 6.93356C32.872 7.69315 32.7187 8.30454 32.4121 8.7677C32.1055 9.23087 31.6781 9.56898 31.1299 9.78204C30.5818 9.98583 29.95 10.0877 29.2346 10.0877H26.1406ZM29.2346 8.90665C29.8942 8.90665 30.4331 8.7677 30.8512 8.4898C31.2786 8.2119 31.4923 7.71168 31.4923 6.98914C31.4923 6.37776 31.3111 5.91922 30.9488 5.61353C30.5864 5.30784 30.0661 5.155 29.3879 5.155H27.4507V8.90665H29.2346Z" fill="black" fill-opacity="0.25" style="fill:black;fill-opacity:0.25;"/>
<path d="M16.9336 1.33387V0.125H24.4176V1.33387H21.3376V10.0877H20.0136V1.33387H16.9336Z" fill="black" fill-opacity="0.25" style="fill:black;fill-opacity:0.25;"/>
<path d="M12.531 10.2267C11.5461 10.2267 10.682 10.0229 9.93874 9.61536C9.20475 9.20777 8.63335 8.62418 8.22454 7.86458C7.81573 7.09572 7.61133 6.17865 7.61133 5.11337C7.61133 3.51081 8.03407 2.26026 8.87956 1.36171C9.72505 0.453904 10.9329 0 12.5031 0C13.1813 0 13.776 0.0741067 14.287 0.22232C14.8073 0.36127 15.2254 0.52801 15.5413 0.722541V1.97309C15.1232 1.70446 14.64 1.50529 14.0919 1.37561C13.553 1.24592 13.0187 1.18108 12.4891 1.18108C11.3185 1.18108 10.4498 1.50993 9.883 2.16762C9.31624 2.82532 9.03286 3.80724 9.03286 5.11337C9.03286 6.42876 9.33947 7.41531 9.95268 8.07301C10.5659 8.72144 11.4625 9.04566 12.6424 9.04566C13.1535 9.04566 13.6505 8.97618 14.1337 8.83723C14.6261 8.69828 15.0953 8.46207 15.5413 8.12859V9.37914C15.2718 9.5922 14.877 9.78673 14.3567 9.96273C13.8456 10.1387 13.2371 10.2267 12.531 10.2267Z" fill="black" fill-opacity="0.25" style="fill:black;fill-opacity:0.25;"/>
<path d="M0 0.125H6.18786V1.31997H1.31004V4.33519H5.44922V5.51627H1.31004V8.90665H6.25754V10.0877H0V0.125Z" fill="black" fill-opacity="0.25" style="fill:black;fill-opacity:0.25;"/>
</svg>
