<svg width="999" height="57" viewBox="0 0 999 57" fill="none" xmlns="http://www.w3.org/2000/svg">
<path d="M998.317 52.156C997.827 52.156 997.415 52 997.082 51.688C996.766 51.3587 996.608 50.9687 996.608 50.518C996.608 50.0327 996.766 49.634 997.082 49.322C997.415 49.01 997.827 48.854 998.317 48.854C998.808 48.854 999.211 49.01 999.527 49.322C999.842 49.634 1000 50.0327 1000 50.518C1000 50.9687 999.842 51.3587 999.527 51.688C999.211 52 998.808 52.156 998.317 52.156Z" fill="black" fill-opacity="0.25" style="fill:black;fill-opacity:0.25;"/>
<path d="M975.348 33.358H987.021V35.594H977.819V41.236H985.627V43.446H977.819V49.79H987.152V52H975.348V33.358Z" fill="black" fill-opacity="0.25" style="fill:black;fill-opacity:0.25;"/>
<path d="M951.821 52H949.14V33.358H951.611V48.75L961.97 33.358H964.651V52H962.127V36.686L951.821 52Z" fill="black" fill-opacity="0.25" style="fill:black;fill-opacity:0.25;"/>
<path d="M923.2 56.42H920.965V49.79H922.253C923.059 49.062 923.655 48.0047 924.041 46.618C924.426 45.2314 924.689 43.4547 924.83 41.288C924.97 39.104 925.075 36.4607 925.145 33.358H937.16V49.79H939.579V56.42H937.291L937.029 52H923.489L923.2 56.42ZM925.119 49.79H934.662V35.594H927.459C927.406 38.2287 927.292 40.4647 927.117 42.302C926.959 44.1394 926.714 45.6647 926.381 46.878C926.065 48.074 925.645 49.0447 925.119 49.79Z" fill="black" fill-opacity="0.25" style="fill:black;fill-opacity:0.25;"/>
<path d="M904.947 52.26C903.265 52.26 901.74 51.8874 900.373 51.142C899.006 50.3967 897.919 49.3134 897.113 47.892C896.324 46.4534 895.93 44.694 895.93 42.614C895.93 40.534 896.324 38.792 897.113 37.388C897.919 35.9667 899.006 34.9007 900.373 34.19C901.74 33.4794 903.265 33.124 904.947 33.124C906.665 33.124 908.199 33.488 909.548 34.216C910.916 34.9267 911.993 35.984 912.782 37.388C913.571 38.792 913.965 40.5427 913.965 42.64C913.965 44.7027 913.571 46.4534 912.782 47.892C911.993 49.3134 910.916 50.3967 909.548 51.142C908.199 51.8874 906.665 52.26 904.947 52.26ZM904.947 50.05C906.157 50.05 907.244 49.8074 908.208 49.322C909.172 48.8367 909.925 48.0567 910.469 46.982C911.029 45.89 911.31 44.46 911.31 42.692C911.31 40.9067 911.029 39.4767 910.469 38.402C909.925 37.3274 909.172 36.5474 908.208 36.062C907.244 35.5767 906.157 35.334 904.947 35.334C903.738 35.334 902.651 35.5767 901.687 36.062C900.741 36.5474 899.987 37.3274 899.426 38.402C898.866 39.4767 898.585 40.9067 898.585 42.692C898.585 44.46 898.866 45.89 899.426 46.982C899.987 48.0567 900.741 48.8367 901.687 49.322C902.651 49.8074 903.738 50.05 904.947 50.05Z" fill="black" fill-opacity="0.25" style="fill:black;fill-opacity:0.25;"/>
<path d="M871.171 49.634C872.03 49.7207 872.661 49.452 873.064 48.828C873.485 48.204 873.8 47.3807 874.01 46.358C874.273 45.058 874.448 43.3247 874.536 41.158C874.624 38.9914 874.685 36.3914 874.72 33.358H886.341V52H883.843V35.594H877.06C877.007 38.1074 876.937 40.3 876.85 42.172C876.762 44.0267 876.596 45.5954 876.35 46.878C876.14 47.8487 875.842 48.7414 875.456 49.556C875.071 50.3707 874.536 51.012 873.853 51.48C873.169 51.948 872.275 52.156 871.171 52.104V49.634Z" fill="black" fill-opacity="0.25" style="fill:black;fill-opacity:0.25;"/>
<path d="M847.98 33.358H862.151V52H859.654V35.594H850.452V52H847.98V33.358Z" fill="black" fill-opacity="0.25" style="fill:black;fill-opacity:0.25;"/>
<path d="M832.208 52.26C830.351 52.26 828.721 51.8787 827.318 51.116C825.934 50.3534 824.856 49.2614 824.085 47.84C823.313 46.4014 822.928 44.6854 822.928 42.692C822.928 39.6934 823.725 37.3534 825.32 35.672C826.915 33.9734 829.194 33.124 832.156 33.124C833.435 33.124 834.557 33.2627 835.521 33.54C836.503 33.8 837.291 34.112 837.887 34.476V36.816C837.099 36.3134 836.187 35.9407 835.153 35.698C834.136 35.4554 833.129 35.334 832.13 35.334C829.921 35.334 828.282 35.9494 827.213 37.18C826.144 38.4107 825.609 40.248 825.609 42.692C825.609 45.1534 826.188 46.9994 827.345 48.23C828.501 49.4434 830.193 50.05 832.419 50.05C833.383 50.05 834.32 49.92 835.232 49.66C836.161 49.4 837.046 48.958 837.887 48.334V50.674C837.379 51.0727 836.634 51.4367 835.653 51.766C834.689 52.0954 833.541 52.26 832.208 52.26Z" fill="black" fill-opacity="0.25" style="fill:black;fill-opacity:0.25;"/>
<path d="M802.523 33.358H814.197V35.594H804.995V41.236H812.803V43.446H804.995V49.79H814.328V52H802.523V33.358Z" fill="black" fill-opacity="0.25" style="fill:black;fill-opacity:0.25;"/>
<path d="M779.885 52V33.358H791.374V35.594H782.356V40.846H786.089C788.175 40.846 789.779 41.2707 790.901 42.12C792.022 42.9694 792.583 44.3387 792.583 46.228C792.583 47.6147 792.294 48.7327 791.716 49.582C791.137 50.4314 790.331 51.0467 789.297 51.428C788.263 51.8094 787.071 52 785.721 52H779.885ZM785.721 49.79C786.966 49.79 787.982 49.5387 788.771 49.036C789.577 48.5334 789.98 47.632 789.98 46.332C789.98 45.2227 789.639 44.3994 788.955 43.862C788.272 43.3247 787.29 43.056 786.011 43.056H782.356V49.79H785.721Z" fill="black" fill-opacity="0.25" style="fill:black;fill-opacity:0.25;"/>
<path d="M744.785 52H742.104V33.358H744.575V48.75L754.933 33.358H757.615V52H755.091V36.686L744.785 52Z" fill="black" fill-opacity="0.25" style="fill:black;fill-opacity:0.25;"/>
<path d="M712.423 52.26C710.916 52.26 709.549 51.948 708.322 51.324C707.095 50.6827 706.096 49.738 705.325 48.49C704.553 47.242 704.098 45.6994 703.957 43.862H701.197V52H698.726V33.358H701.197V41.652H703.984C704.106 39.8147 704.553 38.2634 705.325 36.998C706.096 35.7327 707.095 34.7707 708.322 34.112C709.549 33.4534 710.916 33.124 712.423 33.124C714.018 33.124 715.455 33.4794 716.735 34.19C718.014 34.9007 719.031 35.9667 719.785 37.388C720.538 38.792 720.915 40.534 720.915 42.614C720.915 44.694 720.538 46.4534 719.785 47.892C719.031 49.3134 718.014 50.3967 716.735 51.142C715.455 51.8874 714.018 52.26 712.423 52.26ZM712.423 50.05C713.545 50.05 714.544 49.8074 715.42 49.322C716.297 48.8367 716.989 48.0567 717.497 46.982C718.006 45.89 718.26 44.46 718.26 42.692C718.26 40.9067 718.006 39.4767 717.497 38.402C716.989 37.3274 716.297 36.5474 715.42 36.062C714.544 35.5767 713.545 35.334 712.423 35.334C711.319 35.334 710.329 35.5767 709.452 36.062C708.576 36.5474 707.884 37.3274 707.375 38.402C706.867 39.4767 706.613 40.9067 706.613 42.692C706.613 44.46 706.867 45.89 707.375 46.982C707.884 48.0567 708.576 48.8367 709.452 49.322C710.329 49.8074 711.319 50.05 712.423 50.05Z" fill="black" fill-opacity="0.25" style="fill:black;fill-opacity:0.25;"/>
<path d="M676.138 52V33.358H678.609V40.586H682.342C684.428 40.586 686.032 41.0194 687.154 41.886C688.275 42.7527 688.836 44.1567 688.836 46.098C688.836 47.5194 688.547 48.6634 687.969 49.53C687.39 50.3967 686.584 51.0294 685.55 51.428C684.516 51.8094 683.324 52 681.974 52H676.138ZM681.974 49.79C683.219 49.79 684.235 49.53 685.024 49.01C685.83 48.49 686.233 47.554 686.233 46.202C686.233 45.058 685.892 44.2 685.208 43.628C684.524 43.056 683.543 42.77 682.263 42.77H678.609V49.79H681.974Z" fill="black" fill-opacity="0.25" style="fill:black;fill-opacity:0.25;"/>
<path d="M652.884 33.358H659.272C661.341 33.358 662.909 33.7047 663.979 34.398C665.065 35.0914 665.609 36.2614 665.609 37.908C665.609 39.2427 665.267 40.2567 664.583 40.95C663.9 41.626 662.988 42.0854 661.849 42.328C663.304 42.5014 664.408 42.926 665.162 43.602C665.915 44.2607 666.292 45.266 666.292 46.618C666.292 47.9007 665.985 48.9407 665.372 49.738C664.758 50.5354 663.917 51.116 662.848 51.48C661.779 51.8267 660.569 52 659.22 52H652.884V33.358ZM659.088 41.314C660.28 41.314 661.244 41.054 661.98 40.534C662.734 39.9967 663.111 39.1647 663.111 38.038C663.111 37.0847 662.778 36.4434 662.112 36.114C661.446 35.7674 660.499 35.594 659.272 35.594H655.355V41.314H659.088ZM659.22 49.79C660.552 49.79 661.63 49.5647 662.454 49.114C663.277 48.6634 663.689 47.8487 663.689 46.67C663.689 45.4914 663.304 44.6767 662.533 44.226C661.779 43.758 660.578 43.524 658.931 43.524H655.355V49.79H659.22Z" fill="black" fill-opacity="0.25" style="fill:black;fill-opacity:0.25;"/>
<path d="M634.255 52.26C632.572 52.26 631.048 51.8874 629.681 51.142C628.313 50.3967 627.227 49.3134 626.42 47.892C625.632 46.4534 625.237 44.694 625.237 42.614C625.237 40.534 625.632 38.792 626.42 37.388C627.227 35.9667 628.313 34.9007 629.681 34.19C631.048 33.4794 632.572 33.124 634.255 33.124C635.973 33.124 637.506 33.488 638.856 34.216C640.223 34.9267 641.301 35.984 642.09 37.388C642.879 38.792 643.273 40.5427 643.273 42.64C643.273 44.7027 642.879 46.4534 642.09 47.892C641.301 49.3134 640.223 50.3967 638.856 51.142C637.506 51.8874 635.973 52.26 634.255 52.26ZM634.255 50.05C635.464 50.05 636.551 49.8074 637.515 49.322C638.479 48.8367 639.233 48.0567 639.776 46.982C640.337 45.89 640.617 44.46 640.617 42.692C640.617 40.9067 640.337 39.4767 639.776 38.402C639.233 37.3274 638.479 36.5474 637.515 36.062C636.551 35.5767 635.464 35.334 634.255 35.334C633.046 35.334 631.959 35.5767 630.995 36.062C630.049 36.5474 629.295 37.3274 628.734 38.402C628.173 39.4767 627.893 40.9067 627.893 42.692C627.893 44.46 628.173 45.89 628.734 46.982C629.295 48.0567 630.049 48.8367 630.995 49.322C631.959 49.8074 633.046 50.05 634.255 50.05Z" fill="black" fill-opacity="0.25" style="fill:black;fill-opacity:0.25;"/>
<path d="M603.985 33.358H610.006C612.144 33.358 613.801 33.8 614.975 34.684C616.167 35.5507 616.763 36.9114 616.763 38.766C616.763 40.17 616.465 41.314 615.869 42.198C615.29 43.082 614.475 43.732 613.424 44.148C612.39 44.5467 611.18 44.746 609.796 44.746H606.457V52H603.985V33.358ZM609.796 42.536C611.128 42.536 612.206 42.25 613.029 41.678C613.853 41.106 614.265 40.144 614.265 38.792C614.265 37.6654 613.897 36.8507 613.161 36.348C612.425 35.8454 611.373 35.594 610.006 35.594H606.457V42.536H609.796Z" fill="black" fill-opacity="0.25" style="fill:black;fill-opacity:0.25;"/>
<path d="M585.357 52.26C583.674 52.26 582.149 51.8874 580.782 51.142C579.415 50.3967 578.328 49.3134 577.522 47.892C576.733 46.4534 576.339 44.694 576.339 42.614C576.339 40.534 576.733 38.792 577.522 37.388C578.328 35.9667 579.415 34.9007 580.782 34.19C582.149 33.4794 583.674 33.124 585.357 33.124C587.074 33.124 588.608 33.488 589.958 34.216C591.325 34.9267 592.403 35.984 593.191 37.388C593.98 38.792 594.374 40.5427 594.374 42.64C594.374 44.7027 593.98 46.4534 593.191 47.892C592.403 49.3134 591.325 50.3967 589.958 51.142C588.608 51.8874 587.074 52.26 585.357 52.26ZM585.357 50.05C586.566 50.05 587.653 49.8074 588.617 49.322C589.581 48.8367 590.334 48.0567 590.878 46.982C591.439 45.89 591.719 44.46 591.719 42.692C591.719 40.9067 591.439 39.4767 590.878 38.402C590.334 37.3274 589.581 36.5474 588.617 36.062C587.653 35.5767 586.566 35.334 585.357 35.334C584.147 35.334 583.061 35.5767 582.097 36.062C581.15 36.5474 580.396 37.3274 579.836 38.402C579.275 39.4767 578.994 40.9067 578.994 42.692C578.994 44.46 579.275 45.89 579.836 46.982C580.396 48.0567 581.15 48.8367 582.097 49.322C583.061 49.8074 584.147 50.05 585.357 50.05Z" fill="black" fill-opacity="0.25" style="fill:black;fill-opacity:0.25;"/>
<path d="M552.016 56.42H549.781V49.79H551.069C551.876 49.062 552.472 48.0047 552.857 46.618C553.243 45.2314 553.506 43.4547 553.646 41.288C553.786 39.104 553.891 36.4607 553.961 33.358H565.976V49.79H568.395V56.42H566.108L565.845 52H552.305L552.016 56.42ZM553.935 49.79H563.479V35.594H556.275C556.223 38.2287 556.109 40.4647 555.933 42.302C555.776 44.1394 555.53 45.6647 555.197 46.878C554.882 48.074 554.461 49.0447 553.935 49.79Z" fill="black" fill-opacity="0.25" style="fill:black;fill-opacity:0.25;"/>
<path d="M534.543 52.26C533.141 52.26 531.923 52.0867 530.889 51.74C529.872 51.3934 529.128 51.0294 528.654 50.648V48.308C530.284 49.4694 532.221 50.05 534.465 50.05C535.341 50.05 536.138 49.946 536.857 49.738C537.576 49.53 538.154 49.1834 538.592 48.698C539.03 48.1954 539.25 47.5194 539.25 46.67C539.25 45.4914 538.864 44.668 538.093 44.2C537.339 43.7147 536.209 43.472 534.701 43.472H531.993V41.392H534.649C535.963 41.392 536.962 41.1147 537.646 40.56C538.329 39.988 538.671 39.208 538.671 38.22C538.671 37.1454 538.312 36.3914 537.593 35.958C536.875 35.5247 535.928 35.308 534.754 35.308C533.562 35.308 532.475 35.438 531.494 35.698C530.53 35.958 529.68 36.2787 528.944 36.66V34.346C529.522 34.0514 530.276 33.774 531.205 33.514C532.151 33.254 533.343 33.124 534.78 33.124C536.743 33.124 538.303 33.5227 539.46 34.32C540.617 35.1174 541.195 36.3654 541.195 38.064C541.195 39.156 540.862 40.066 540.196 40.794C539.547 41.5047 538.592 41.9987 537.33 42.276C538.803 42.4667 539.924 42.9174 540.696 43.628C541.467 44.3387 541.852 45.3354 541.852 46.618C541.852 47.9354 541.519 49.01 540.853 49.842C540.205 50.674 539.328 51.2894 538.224 51.688C537.12 52.0694 535.893 52.26 534.543 52.26Z" fill="black" fill-opacity="0.25" style="fill:black;fill-opacity:0.25;"/>
<path d="M491.981 56.42H489.746V49.79H491.034C491.841 49.062 492.437 48.0047 492.822 46.618C493.208 45.2314 493.471 43.4547 493.611 41.288C493.751 39.104 493.856 36.4607 493.926 33.358H505.941V49.79H508.36V56.42H506.073L505.81 52H492.27L491.981 56.42ZM493.9 49.79H503.444V35.594H496.24C496.187 38.2287 496.073 40.4647 495.898 42.302C495.74 44.1394 495.495 45.6647 495.162 46.878C494.847 48.074 494.426 49.0447 493.9 49.79Z" fill="black" fill-opacity="0.25" style="fill:black;fill-opacity:0.25;"/>
<path d="M469.538 33.358H481.211V35.594H472.009V41.236H479.818V43.446H472.009V49.79H481.343V52H469.538V33.358Z" fill="black" fill-opacity="0.25" style="fill:black;fill-opacity:0.25;"/>
<path d="M447.182 33.358H453.202C455.341 33.358 456.997 33.8 458.171 34.684C459.363 35.5507 459.959 36.9114 459.959 38.766C459.959 40.17 459.661 41.314 459.065 42.198C458.487 43.082 457.672 43.732 456.62 44.148C455.586 44.5467 454.377 44.746 452.992 44.746H449.653V52H447.182V33.358ZM452.992 42.536C454.324 42.536 455.402 42.25 456.226 41.678C457.049 41.106 457.461 40.144 457.461 38.792C457.461 37.6654 457.093 36.8507 456.357 36.348C455.621 35.8454 454.569 35.594 453.202 35.594H449.653V42.536H452.992Z" fill="black" fill-opacity="0.25" style="fill:black;fill-opacity:0.25;"/>
<path d="M423.927 33.358H430.315C432.384 33.358 433.952 33.7047 435.022 34.398C436.108 35.0914 436.652 36.2614 436.652 37.908C436.652 39.2427 436.31 40.2567 435.626 40.95C434.943 41.626 434.031 42.0854 432.892 42.328C434.347 42.5014 435.451 42.926 436.205 43.602C436.958 44.2607 437.335 45.266 437.335 46.618C437.335 47.9007 437.028 48.9407 436.415 49.738C435.801 50.5354 434.96 51.116 433.891 51.48C432.822 51.8267 431.612 52 430.263 52H423.927V33.358ZM430.131 41.314C431.323 41.314 432.287 41.054 433.023 40.534C433.777 39.9967 434.154 39.1647 434.154 38.038C434.154 37.0847 433.821 36.4434 433.155 36.114C432.489 35.7674 431.542 35.594 430.315 35.594H426.398V41.314H430.131ZM430.263 49.79C431.595 49.79 432.673 49.5647 433.497 49.114C434.32 48.6634 434.732 47.8487 434.732 46.67C434.732 45.4914 434.347 44.6767 433.576 44.226C432.822 43.758 431.621 43.524 429.974 43.524H426.398V49.79H430.263Z" fill="black" fill-opacity="0.25" style="fill:black;fill-opacity:0.25;"/>
<path d="M387.019 33.358H389.49V41.652H399.165V33.358H401.663V52H399.165V43.862H389.49V52H387.019V33.358Z" fill="black" fill-opacity="0.25" style="fill:black;fill-opacity:0.25;"/>
<path d="M365.021 33.358H376.695V35.594H367.493V41.236H375.301V43.446H367.493V49.79H376.826V52H365.021V33.358Z" fill="black" fill-opacity="0.25" style="fill:black;fill-opacity:0.25;"/>
<path d="M332.021 52L339.671 42.51L332.362 33.358H335.044L341.617 41.756H342.668V33.358H345.166V41.756H346.27L352.843 33.358H355.551L348.189 42.562L355.893 52H352.869L346.244 43.81H345.166V52H342.668V43.81H341.538L334.965 52H332.021Z" fill="black" fill-opacity="0.25" style="fill:black;fill-opacity:0.25;"/>
<path d="M316.309 52.26C314.626 52.26 313.101 51.8874 311.734 51.142C310.367 50.3967 309.28 49.3134 308.474 47.892C307.685 46.4534 307.291 44.694 307.291 42.614C307.291 40.534 307.685 38.792 308.474 37.388C309.28 35.9667 310.367 34.9007 311.734 34.19C313.101 33.4794 314.626 33.124 316.309 33.124C318.026 33.124 319.56 33.488 320.91 34.216C322.277 34.9267 323.355 35.984 324.143 37.388C324.932 38.792 325.327 40.5427 325.327 42.64C325.327 44.7027 324.932 46.4534 324.143 47.892C323.355 49.3134 322.277 50.3967 320.91 51.142C319.56 51.8874 318.026 52.26 316.309 52.26ZM316.309 50.05C317.518 50.05 318.605 49.8074 319.569 49.322C320.533 48.8367 321.287 48.0567 321.83 46.982C322.391 45.89 322.671 44.46 322.671 42.692C322.671 40.9067 322.391 39.4767 321.83 38.402C321.287 37.3274 320.533 36.5474 319.569 36.062C318.605 35.5767 317.518 35.334 316.309 35.334C315.099 35.334 314.013 35.5767 313.049 36.062C312.102 36.5474 311.349 37.3274 310.788 38.402C310.227 39.4767 309.946 40.9067 309.946 42.692C309.946 44.46 310.227 45.89 310.788 46.982C311.349 48.0567 312.102 48.8367 313.049 49.322C314.013 49.8074 315.099 50.05 316.309 50.05Z" fill="black" fill-opacity="0.25" style="fill:black;fill-opacity:0.25;"/>
<path d="M288.179 49.166H287.101H287.074L287.101 49.14L281.396 36.79V52H279.056V33.358H282.5L288.363 46.436L294.488 33.358H297.696V52H295.198V36.998L289.414 49.14L288.179 49.166Z" fill="black" fill-opacity="0.25" style="fill:black;fill-opacity:0.25;"/>
<path d="M261.875 52.26C260.473 52.26 259.255 52.0867 258.221 51.74C257.204 51.3934 256.46 51.0294 255.986 50.648V48.308C257.616 49.4694 259.553 50.05 261.797 50.05C262.673 50.05 263.47 49.946 264.189 49.738C264.908 49.53 265.486 49.1834 265.924 48.698C266.362 48.1954 266.582 47.5194 266.582 46.67C266.582 45.4914 266.196 44.668 265.425 44.2C264.671 43.7147 263.541 43.472 262.033 43.472H259.325V41.392H261.981C263.295 41.392 264.294 41.1147 264.978 40.56C265.661 39.988 266.003 39.208 266.003 38.22C266.003 37.1454 265.644 36.3914 264.925 35.958C264.207 35.5247 263.26 35.308 262.086 35.308C260.894 35.308 259.807 35.438 258.826 35.698C257.862 35.958 257.012 36.2787 256.276 36.66V34.346C256.854 34.0514 257.608 33.774 258.537 33.514C259.483 33.254 260.675 33.124 262.112 33.124C264.075 33.124 265.635 33.5227 266.792 34.32C267.949 35.1174 268.527 36.3654 268.527 38.064C268.527 39.156 268.194 40.066 267.528 40.794C266.88 41.5047 265.924 41.9987 264.662 42.276C266.135 42.4667 267.256 42.9174 268.028 43.628C268.799 44.3387 269.184 45.3354 269.184 46.618C269.184 47.9354 268.851 49.01 268.185 49.842C267.537 50.674 266.66 51.2894 265.556 51.688C264.452 52.0694 263.225 52.26 261.875 52.26Z" fill="black" fill-opacity="0.25" style="fill:black;fill-opacity:0.25;"/>
<path d="M238.714 52.26C237.031 52.26 235.507 51.8874 234.139 51.142C232.772 50.3967 231.686 49.3134 230.879 47.892C230.091 46.4534 229.696 44.694 229.696 42.614C229.696 40.534 230.091 38.792 230.879 37.388C231.686 35.9667 232.772 34.9007 234.139 34.19C235.507 33.4794 237.031 33.124 238.714 33.124C240.432 33.124 241.965 33.488 243.315 34.216C244.682 34.9267 245.76 35.984 246.549 37.388C247.337 38.792 247.732 40.5427 247.732 42.64C247.732 44.7027 247.337 46.4534 246.549 47.892C245.76 49.3134 244.682 50.3967 243.315 51.142C241.965 51.8874 240.432 52.26 238.714 52.26ZM238.714 50.05C239.923 50.05 241.01 49.8074 241.974 49.322C242.938 48.8367 243.692 48.0567 244.235 46.982C244.796 45.89 245.076 44.46 245.076 42.692C245.076 40.9067 244.796 39.4767 244.235 38.402C243.692 37.3274 242.938 36.5474 241.974 36.062C241.01 35.5767 239.923 35.334 238.714 35.334C237.505 35.334 236.418 35.5767 235.454 36.062C234.508 36.5474 233.754 37.3274 233.193 38.402C232.632 39.4767 232.352 40.9067 232.352 42.692C232.352 44.46 232.632 45.89 233.193 46.982C233.754 48.0567 234.508 48.8367 235.454 49.322C236.418 49.8074 237.505 50.05 238.714 50.05Z" fill="black" fill-opacity="0.25" style="fill:black;fill-opacity:0.25;"/>
<path d="M207.673 33.358H214.062C216.13 33.358 217.698 33.7047 218.768 34.398C219.854 35.0914 220.398 36.2614 220.398 37.908C220.398 39.2427 220.056 40.2567 219.372 40.95C218.689 41.626 217.777 42.0854 216.638 42.328C218.093 42.5014 219.197 42.926 219.951 43.602C220.704 44.2607 221.081 45.266 221.081 46.618C221.081 47.9007 220.774 48.9407 220.161 49.738C219.548 50.5354 218.706 51.116 217.637 51.48C216.568 51.8267 215.359 52 214.009 52H207.673V33.358ZM213.878 41.314C215.069 41.314 216.033 41.054 216.769 40.534C217.523 39.9967 217.9 39.1647 217.9 38.038C217.9 37.0847 217.567 36.4434 216.901 36.114C216.235 35.7674 215.288 35.594 214.062 35.594H210.144V41.314H213.878ZM214.009 49.79C215.341 49.79 216.419 49.5647 217.243 49.114C218.067 48.6634 218.478 47.8487 218.478 46.67C218.478 45.4914 218.093 44.6767 217.322 44.226C216.568 43.758 215.367 43.524 213.72 43.524H210.144V49.79H214.009Z" fill="black" fill-opacity="0.25" style="fill:black;fill-opacity:0.25;"/>
<path d="M184.445 52.156C183.954 52.156 183.543 52 183.21 51.688C182.894 51.3587 182.736 50.9687 182.736 50.518C182.736 50.0327 182.894 49.634 183.21 49.322C183.543 49.01 183.954 48.854 184.445 48.854C184.936 48.854 185.339 49.01 185.655 49.322C185.97 49.634 186.128 50.0327 186.128 50.518C186.128 50.9687 185.97 51.3587 185.655 51.688C185.339 52 184.936 52.156 184.445 52.156Z" fill="black" fill-opacity="0.25" style="fill:black;fill-opacity:0.25;"/>
<path d="M163.282 49.166H162.204H162.178L162.204 49.14L156.499 36.79V52H154.159V33.358H157.603L163.466 46.436L169.592 33.358H172.799V52H170.302V36.998L164.518 49.14L163.282 49.166Z" fill="black" fill-opacity="0.25" style="fill:black;fill-opacity:0.25;"/>
<path d="M135.531 52.26C133.849 52.26 132.324 51.8874 130.957 51.142C129.59 50.3967 128.503 49.3134 127.697 47.892C126.908 46.4534 126.514 44.694 126.514 42.614C126.514 40.534 126.908 38.792 127.697 37.388C128.503 35.9667 129.59 34.9007 130.957 34.19C132.324 33.4794 133.849 33.124 135.531 33.124C137.249 33.124 138.783 33.488 140.132 34.216C141.499 34.9267 142.577 35.984 143.366 37.388C144.155 38.792 144.549 40.5427 144.549 42.64C144.549 44.7027 144.155 46.4534 143.366 47.892C142.577 49.3134 141.499 50.3967 140.132 51.142C138.783 51.8874 137.249 52.26 135.531 52.26ZM135.531 50.05C136.741 50.05 137.828 49.8074 138.792 49.322C139.756 48.8367 140.509 48.0567 141.053 46.982C141.613 45.89 141.894 44.46 141.894 42.692C141.894 40.9067 141.613 39.4767 141.053 38.402C140.509 37.3274 139.756 36.5474 138.792 36.062C137.828 35.5767 136.741 35.334 135.531 35.334C134.322 35.334 133.235 35.5767 132.271 36.062C131.325 36.5474 130.571 37.3274 130.01 38.402C129.449 39.4767 129.169 40.9067 129.169 42.692C129.169 44.46 129.449 45.89 130.01 46.982C130.571 48.0567 131.325 48.8367 132.271 49.322C133.235 49.8074 134.322 50.05 135.531 50.05Z" fill="black" fill-opacity="0.25" style="fill:black;fill-opacity:0.25;"/>
<path d="M102.967 38.558V33.358H105.464V38.558C105.464 40.014 105.824 41.132 106.542 41.912C107.279 42.692 108.356 43.082 109.776 43.082C110.635 43.082 111.459 42.9867 112.247 42.796C113.036 42.588 113.764 42.25 114.43 41.782V33.358H116.927V52H114.43V43.862C113.711 44.3127 112.957 44.642 112.169 44.85C111.397 45.058 110.591 45.162 109.75 45.162C107.594 45.162 105.92 44.6247 104.728 43.55C103.554 42.4754 102.967 40.8114 102.967 38.558Z" fill="black" fill-opacity="0.25" style="fill:black;fill-opacity:0.25;"/>
<path d="M96.1309 52H93.5018L91.5563 46.67H83.2221L81.3029 52H78.9893L85.6934 33.358H89.3742L96.1309 52ZM84.0371 44.46H90.7676L87.4023 35.178L84.0371 44.46Z" fill="black" fill-opacity="0.25" style="fill:black;fill-opacity:0.25;"/>
<path d="M59.8809 33.358H65.9015C68.0398 33.358 69.6961 33.8 70.8704 34.684C72.0623 35.5507 72.6582 36.9114 72.6582 38.766C72.6582 40.17 72.3603 41.314 71.7643 42.198C71.1859 43.082 70.3709 43.732 69.3193 44.148C68.2852 44.5467 67.0758 44.746 65.6911 44.746H62.3522V52H59.8809V33.358ZM65.6911 42.536C67.0232 42.536 68.1011 42.25 68.9249 41.678C69.7487 41.106 70.1606 40.144 70.1606 38.792C70.1606 37.6654 69.7925 36.8507 69.0564 36.348C68.3202 35.8454 67.2686 35.594 65.9015 35.594H62.3522V42.536H65.6911Z" fill="black" fill-opacity="0.25" style="fill:black;fill-opacity:0.25;"/>
<path d="M36.626 33.358H43.0147C45.0829 33.358 46.6516 33.7047 47.7207 34.398C48.8074 35.0914 49.3508 36.2614 49.3508 37.908C49.3508 39.2427 49.009 40.2567 48.3254 40.95C47.6419 41.626 46.7304 42.0854 45.5912 42.328C47.0459 42.5014 48.1501 42.926 48.9038 43.602C49.6575 44.2607 50.0343 45.266 50.0343 46.618C50.0343 47.9007 49.7276 48.9407 49.1141 49.738C48.5007 50.5354 47.6594 51.116 46.5902 51.48C45.5211 51.8267 44.3117 52 42.9621 52H36.626V33.358ZM42.8306 41.314C44.0225 41.314 44.9865 41.054 45.7226 40.534C46.4763 39.9967 46.8531 39.1647 46.8531 38.038C46.8531 37.0847 46.5201 36.4434 45.8541 36.114C45.188 35.7674 44.2416 35.594 43.0147 35.594H39.0973V41.314H42.8306ZM42.9621 49.79C44.2941 49.79 45.3721 49.5647 46.1959 49.114C47.0196 48.6634 47.4315 47.8487 47.4315 46.67C47.4315 45.4914 47.0459 44.6767 46.2747 44.226C45.5211 43.758 44.3204 43.524 42.6729 43.524H39.0973V49.79H42.9621Z" fill="black" fill-opacity="0.25" style="fill:black;fill-opacity:0.25;"/>
<path d="M9.28068 52.26C7.42279 52.26 5.79276 51.8787 4.39058 51.116C3.00592 50.3534 1.928 49.2614 1.1568 47.84C0.385599 46.4014 0 44.6854 0 42.692C0 39.6934 0.79749 37.3534 2.39247 35.672C3.98745 33.9734 6.26599 33.124 9.2281 33.124C10.5076 33.124 11.6293 33.2627 12.5933 33.54C13.5749 33.8 14.3636 34.112 14.9595 34.476V36.816C14.1708 36.3134 13.2594 35.9407 12.2253 35.698C11.2087 35.4554 10.2009 35.334 9.20181 35.334C6.99337 35.334 5.35458 35.9494 4.28541 37.18C3.21625 38.4107 2.68167 40.248 2.68167 42.692C2.68167 45.1534 3.26007 46.9994 4.41687 48.23C5.57367 49.4434 7.26505 50.05 9.49101 50.05C10.455 50.05 11.3927 49.92 12.3041 49.66C13.2331 49.4 14.1182 48.958 14.9595 48.334V50.674C14.4512 51.0727 13.7063 51.4367 12.7248 51.766C11.7608 52.0954 10.6128 52.26 9.28068 52.26Z" fill="black" fill-opacity="0.25" style="fill:black;fill-opacity:0.25;"/>
<path d="M987.259 23V4.35803H989.73V11.586H993.463C995.549 11.586 997.153 12.0194 998.275 12.886C999.396 13.7527 999.957 15.1567 999.957 17.098C999.957 18.5194 999.668 19.6634 999.09 20.53C998.511 21.3967 997.705 22.0294 996.671 22.428C995.637 22.8094 994.445 23 993.095 23H987.259ZM993.095 20.79C994.34 20.79 995.356 20.53 996.145 20.01C996.951 19.49 997.354 18.554 997.354 17.202C997.354 16.058 997.013 15.2 996.329 14.628C995.646 14.056 994.664 13.77 993.385 13.77H989.73V20.79H993.095Z" fill="black" fill-opacity="0.25" style="fill:black;fill-opacity:0.25;"/>
<path d="M966.229 23.26C964.371 23.26 962.741 22.8787 961.339 22.116C959.954 21.3534 958.876 20.2614 958.105 18.84C957.334 17.4014 956.948 15.6854 956.948 13.692C956.948 10.6934 957.746 8.35336 959.341 6.67202C960.936 4.97336 963.214 4.12402 966.176 4.12402C967.456 4.12402 968.578 4.26269 969.542 4.54002C970.523 4.80002 971.312 5.11202 971.908 5.47602V7.81602C971.119 7.31336 970.208 6.94069 969.174 6.69802C968.157 6.45536 967.149 6.33402 966.15 6.33402C963.942 6.33402 962.303 6.94936 961.234 8.18002C960.165 9.41069 959.63 11.248 959.63 13.692C959.63 16.1534 960.208 17.9994 961.365 19.23C962.522 20.4434 964.213 21.05 966.439 21.05C967.403 21.05 968.341 20.92 969.252 20.66C970.181 20.4 971.066 19.958 971.908 19.334V21.674C971.399 22.0727 970.655 22.4367 969.673 22.766C968.709 23.0954 967.561 23.26 966.229 23.26Z" fill="black" fill-opacity="0.25" style="fill:black;fill-opacity:0.25;"/>
<path d="M931.285 4.35803H942.958V6.59403H933.756V12.236H941.565V14.446H933.756V20.79H943.09V23H931.285V4.35803Z" fill="black" fill-opacity="0.25" style="fill:black;fill-opacity:0.25;"/>
<path d="M902.61 6.62003V4.35803H916.729V6.62003H910.918V23H908.421V6.62003H902.61Z" fill="black" fill-opacity="0.25" style="fill:black;fill-opacity:0.25;"/>
<path d="M880.083 3.34397C878.593 3.34397 877.489 2.97997 876.77 2.25197C876.051 1.50664 875.692 0.605308 875.692 -0.452026H878.006C878.006 0.293308 878.19 0.830641 878.558 1.15997C878.926 1.48931 879.434 1.65397 880.083 1.65397C880.731 1.65397 881.231 1.48931 881.581 1.15997C881.949 0.830641 882.133 0.293308 882.133 -0.452026H884.447C884.447 0.605308 884.088 1.50664 883.369 2.25197C882.668 2.97997 881.572 3.34397 880.083 3.34397ZM875.245 23H872.563V4.35798H875.035V19.75L885.393 4.35798H888.075V23H885.551V7.68597L875.245 23Z" fill="black" fill-opacity="0.25" style="fill:black;fill-opacity:0.25;"/>
<path d="M845.803 20.556C846.89 20.66 847.74 20.504 848.353 20.088C848.967 19.6547 849.475 19.0914 849.878 18.398L842.885 4.35803H845.698L851.14 15.59L855.846 4.35803H858.396L852.428 17.956C851.938 19.1 851.403 20.062 850.825 20.842C850.246 21.622 849.554 22.194 848.748 22.558C847.959 22.922 846.977 23.0694 845.803 23V20.556Z" fill="black" fill-opacity="0.25" style="fill:black;fill-opacity:0.25;"/>
<path d="M815.479 6.62003V4.35803H829.597V6.62003H823.786V23H821.289V6.62003H815.479Z" fill="black" fill-opacity="0.25" style="fill:black;fill-opacity:0.25;"/>
<path d="M789.745 4.35803H801.418V6.59403H792.216V12.236H800.025V14.446H792.216V20.79H801.55V23H789.745V4.35803Z" fill="black" fill-opacity="0.25" style="fill:black;fill-opacity:0.25;"/>
<path d="M761.232 4.35803H767.621C769.689 4.35803 771.258 4.7047 772.327 5.39803C773.414 6.09136 773.957 7.26137 773.957 8.90803C773.957 10.2427 773.615 11.2567 772.932 11.95C772.248 12.626 771.337 13.0854 770.198 13.328C771.652 13.5014 772.757 13.926 773.51 14.602C774.264 15.2607 774.641 16.266 774.641 17.618C774.641 18.9007 774.334 19.9407 773.721 20.738C773.107 21.5354 772.266 22.116 771.197 22.48C770.128 22.8267 768.918 23 767.569 23H761.232V4.35803ZM767.437 12.314C768.629 12.314 769.593 12.054 770.329 11.534C771.083 10.9967 771.46 10.1647 771.46 9.03803C771.46 8.0847 771.127 7.44337 770.46 7.11403C769.794 6.76736 768.848 6.59403 767.621 6.59403H763.704V12.314H767.437ZM767.569 20.79C768.901 20.79 769.979 20.5647 770.802 20.114C771.626 19.6634 772.038 18.8487 772.038 17.67C772.038 16.4914 771.652 15.6767 770.881 15.226C770.127 14.758 768.927 14.524 767.279 14.524H763.704V20.79H767.569Z" fill="black" fill-opacity="0.25" style="fill:black;fill-opacity:0.25;"/>
<path d="M737.346 23.26C735.663 23.26 734.138 22.8874 732.771 22.142C731.404 21.3967 730.318 20.3134 729.511 18.892C728.723 17.4534 728.328 15.694 728.328 13.614C728.328 11.534 728.723 9.79202 729.511 8.38802C730.318 6.96669 731.404 5.90069 732.771 5.19002C734.138 4.47936 735.663 4.12402 737.346 4.12402C739.064 4.12402 740.597 4.48802 741.947 5.21602C743.314 5.92669 744.392 6.98402 745.181 8.38802C745.969 9.79202 746.364 11.5427 746.364 13.64C746.364 15.7027 745.969 17.4534 745.181 18.892C744.392 20.3134 743.314 21.3967 741.947 22.142C740.597 22.8874 739.064 23.26 737.346 23.26ZM737.346 21.05C738.555 21.05 739.642 20.8074 740.606 20.322C741.57 19.8367 742.324 19.0567 742.867 17.982C743.428 16.89 743.708 15.46 743.708 13.692C743.708 11.9067 743.428 10.4767 742.867 9.40202C742.324 8.32736 741.57 7.54736 740.606 7.06202C739.642 6.57669 738.555 6.33402 737.346 6.33402C736.137 6.33402 735.05 6.57669 734.086 7.06202C733.139 7.54736 732.386 8.32736 731.825 9.40202C731.264 10.4767 730.984 11.9067 730.984 13.692C730.984 15.46 731.264 16.89 731.825 17.982C732.386 19.0567 733.139 19.8367 734.086 20.322C735.05 20.8074 736.137 21.05 737.346 21.05Z" fill="black" fill-opacity="0.25" style="fill:black;fill-opacity:0.25;"/>
<path d="M708.788 23.26C706.93 23.26 705.3 22.8787 703.897 22.116C702.513 21.3534 701.435 20.2614 700.664 18.84C699.892 17.4014 699.507 15.6854 699.507 13.692C699.507 10.6934 700.304 8.35336 701.899 6.67202C703.494 4.97336 705.773 4.12402 708.735 4.12402C710.014 4.12402 711.136 4.26269 712.1 4.54002C713.082 4.80002 713.87 5.11202 714.466 5.47602V7.81602C713.678 7.31336 712.766 6.94069 711.732 6.69802C710.716 6.45536 709.708 6.33402 708.709 6.33402C706.5 6.33402 704.861 6.94936 703.792 8.18002C702.723 9.41069 702.189 11.248 702.189 13.692C702.189 16.1534 702.767 17.9994 703.924 19.23C705.081 20.4434 706.772 21.05 708.998 21.05C709.962 21.05 710.9 20.92 711.811 20.66C712.74 20.4 713.625 19.958 714.466 19.334V21.674C713.958 22.0727 713.213 22.4367 712.232 22.766C711.268 23.0954 710.12 23.26 708.788 23.26Z" fill="black" fill-opacity="0.25" style="fill:black;fill-opacity:0.25;"/>
<path d="M676.725 23.26C675.042 23.26 673.517 22.8874 672.15 22.142C670.783 21.3967 669.696 20.3134 668.89 18.892C668.101 17.4534 667.707 15.694 667.707 13.614C667.707 11.534 668.101 9.79202 668.89 8.38802C669.696 6.96669 670.783 5.90069 672.15 5.19002C673.517 4.47936 675.042 4.12402 676.725 4.12402C678.443 4.12402 679.976 4.48802 681.326 5.21602C682.693 5.92669 683.771 6.98402 684.56 8.38802C685.348 9.79202 685.743 11.5427 685.743 13.64C685.743 15.7027 685.348 17.4534 684.56 18.892C683.771 20.3134 682.693 21.3967 681.326 22.142C679.976 22.8874 678.443 23.26 676.725 23.26ZM676.725 21.05C677.934 21.05 679.021 20.8074 679.985 20.322C680.949 19.8367 681.703 19.0567 682.246 17.982C682.807 16.89 683.087 15.46 683.087 13.692C683.087 11.9067 682.807 10.4767 682.246 9.40202C681.703 8.32736 680.949 7.54736 679.985 7.06202C679.021 6.57669 677.934 6.33402 676.725 6.33402C675.515 6.33402 674.429 6.57669 673.465 7.06202C672.518 7.54736 671.765 8.32736 671.204 9.40202C670.643 10.4767 670.362 11.9067 670.362 13.692C670.362 15.46 670.643 16.89 671.204 17.982C671.765 19.0567 672.518 19.8367 673.465 20.322C674.429 20.8074 675.515 21.05 676.725 21.05Z" fill="black" fill-opacity="0.25" style="fill:black;fill-opacity:0.25;"/>
<path d="M638.681 4.35803H652.851V23H650.354V6.59403H641.152V23H638.681V4.35803Z" fill="black" fill-opacity="0.25" style="fill:black;fill-opacity:0.25;"/>
<path d="M604.937 23.156C604.447 23.156 604.035 23 603.702 22.688C603.386 22.3587 603.229 21.9687 603.229 21.518C603.229 21.0327 603.386 20.634 603.702 20.322C604.035 20.01 604.447 19.854 604.937 19.854C605.428 19.854 605.831 20.01 606.147 20.322C606.462 20.634 606.62 21.0327 606.62 21.518C606.62 21.9687 606.462 22.3587 606.147 22.688C605.831 23 605.428 23.156 604.937 23.156Z" fill="black" fill-opacity="0.25" style="fill:black;fill-opacity:0.25;"/>
<path d="M588.019 4.35803V23H585.522V15.538H582.104L576.898 23H573.875L579.58 15.096C578.195 14.8014 577.135 14.2294 576.399 13.38C575.663 12.5307 575.295 11.378 575.295 9.92203C575.295 8.6047 575.584 7.5387 576.162 6.72403C576.741 5.90936 577.547 5.31136 578.581 4.93003C579.615 4.5487 580.807 4.35803 582.157 4.35803H588.019ZM581.894 13.328H585.522V6.59403H582.157C580.912 6.59403 579.887 6.84536 579.081 7.34803C578.292 7.83337 577.897 8.69137 577.897 9.92203C577.897 11.0834 578.239 11.9414 578.923 12.496C579.624 13.0507 580.614 13.328 581.894 13.328Z" fill="black" fill-opacity="0.25" style="fill:black;fill-opacity:0.25;"/>
<path d="M546.643 23H543.961V4.35803H546.432V19.75L556.791 4.35803H559.473V23H556.949V7.68603L546.643 23Z" fill="black" fill-opacity="0.25" style="fill:black;fill-opacity:0.25;"/>
<path d="M513.367 4.35803H515.839V12.652H525.514V4.35803H528.011V23H525.514V14.862H515.839V23H513.367V4.35803Z" fill="black" fill-opacity="0.25" style="fill:black;fill-opacity:0.25;"/>
<path d="M499.081 23H496.452L494.507 17.67H486.172L484.253 23H481.939L488.644 4.35803H492.324L499.081 23ZM486.987 15.46H493.718L490.353 6.17803L486.987 15.46Z" fill="black" fill-opacity="0.25" style="fill:black;fill-opacity:0.25;"/>
<path d="M461.568 23.26C460.166 23.26 458.948 23.0867 457.913 22.74C456.897 22.3934 456.152 22.0294 455.679 21.648V19.308C457.309 20.4694 459.246 21.05 461.489 21.05C462.365 21.05 463.163 20.946 463.881 20.738C464.6 20.53 465.178 20.1834 465.617 19.698C466.055 19.1954 466.274 18.5194 466.274 17.67C466.274 16.4914 465.888 15.668 465.117 15.2C464.363 14.7147 463.233 14.472 461.726 14.472H459.018V12.392H461.673C462.988 12.392 463.987 12.1147 464.67 11.56C465.354 10.988 465.696 10.208 465.696 9.22002C465.696 8.14536 465.336 7.39136 464.618 6.95802C463.899 6.52469 462.953 6.30802 461.778 6.30802C460.586 6.30802 459.5 6.43802 458.518 6.69802C457.554 6.95802 456.704 7.27869 455.968 7.66002V5.34602C456.546 5.05136 457.3 4.77402 458.229 4.51402C459.175 4.25402 460.367 4.12402 461.804 4.12402C463.768 4.12402 465.327 4.52269 466.484 5.32002C467.641 6.11736 468.219 7.36536 468.219 9.06402C468.219 10.156 467.886 11.066 467.22 11.794C466.572 12.5047 465.617 12.9987 464.355 13.276C465.827 13.4667 466.949 13.9174 467.72 14.628C468.491 15.3387 468.877 16.3354 468.877 17.618C468.877 18.9354 468.544 20.01 467.878 20.842C467.229 21.674 466.353 22.2894 465.249 22.688C464.144 23.0694 462.917 23.26 461.568 23.26Z" fill="black" fill-opacity="0.25" style="fill:black;fill-opacity:0.25;"/>
<path d="M442.337 23H439.708L437.762 17.67H429.428L427.509 23H425.195L431.899 4.35803H435.58L442.337 23ZM430.243 15.46H436.974L433.608 6.17803L430.243 15.46Z" fill="black" fill-opacity="0.25" style="fill:black;fill-opacity:0.25;"/>
<path d="M412.585 23H409.509L402.936 15.018H400.938V23H398.467V4.35803H400.938V12.808H402.779L409.509 4.35803H412.296L404.856 13.666L412.585 23Z" fill="black" fill-opacity="0.25" style="fill:black;fill-opacity:0.25;"/>
<path d="M374.582 23.26C372.9 23.26 371.375 22.8874 370.008 22.142C368.64 21.3967 367.554 20.3134 366.748 18.892C365.959 17.4534 365.564 15.694 365.564 13.614C365.564 11.534 365.959 9.79202 366.748 8.38802C367.554 6.96669 368.64 5.90069 370.008 5.19002C371.375 4.47936 372.9 4.12402 374.582 4.12402C376.3 4.12402 377.834 4.48802 379.183 5.21602C380.55 5.92669 381.628 6.98402 382.417 8.38802C383.206 9.79202 383.6 11.5427 383.6 13.64C383.6 15.7027 383.206 17.4534 382.417 18.892C381.628 20.3134 380.55 21.3967 379.183 22.142C377.834 22.8874 376.3 23.26 374.582 23.26ZM374.582 21.05C375.792 21.05 376.878 20.8074 377.842 20.322C378.806 19.8367 379.56 19.0567 380.103 17.982C380.664 16.89 380.945 15.46 380.945 13.692C380.945 11.9067 380.664 10.4767 380.103 9.40202C379.56 8.32736 378.806 7.54736 377.842 7.06202C376.878 6.57669 375.792 6.33402 374.582 6.33402C373.373 6.33402 372.286 6.57669 371.322 7.06202C370.376 7.54736 369.622 8.32736 369.061 9.40202C368.5 10.4767 368.22 11.9067 368.22 13.692C368.22 15.46 368.5 16.89 369.061 17.982C369.622 19.0567 370.376 19.8367 371.322 20.322C372.286 20.8074 373.373 21.05 374.582 21.05Z" fill="black" fill-opacity="0.25" style="fill:black;fill-opacity:0.25;"/>
<path d="M336.537 4.35803H350.708V23H348.21V6.59403H339.008V23H336.537V4.35803Z" fill="black" fill-opacity="0.25" style="fill:black;fill-opacity:0.25;"/>
<path d="M312.651 23.26C310.968 23.26 309.443 22.8874 308.076 22.142C306.709 21.3967 305.622 20.3134 304.816 18.892C304.027 17.4534 303.633 15.694 303.633 13.614C303.633 11.534 304.027 9.79202 304.816 8.38802C305.622 6.96669 306.709 5.90069 308.076 5.19002C309.443 4.47936 310.968 4.12402 312.651 4.12402C314.368 4.12402 315.902 4.48802 317.251 5.21602C318.619 5.92669 319.697 6.98402 320.485 8.38802C321.274 9.79202 321.668 11.5427 321.668 13.64C321.668 15.7027 321.274 17.4534 320.485 18.892C319.697 20.3134 318.619 21.3967 317.251 22.142C315.902 22.8874 314.368 23.26 312.651 23.26ZM312.651 21.05C313.86 21.05 314.947 20.8074 315.911 20.322C316.875 19.8367 317.628 19.0567 318.172 17.982C318.733 16.89 319.013 15.46 319.013 13.692C319.013 11.9067 318.733 10.4767 318.172 9.40202C317.628 8.32736 316.875 7.54736 315.911 7.06202C314.947 6.57669 313.86 6.33402 312.651 6.33402C311.441 6.33402 310.355 6.57669 309.391 7.06202C308.444 7.54736 307.69 8.32736 307.129 9.40202C306.569 10.4767 306.288 11.9067 306.288 13.692C306.288 15.46 306.569 16.89 307.129 17.982C307.69 19.0567 308.444 19.8367 309.391 20.322C310.355 20.8074 311.441 21.05 312.651 21.05Z" fill="black" fill-opacity="0.25" style="fill:black;fill-opacity:0.25;"/>
<path d="M276.353 4.35803H282.741C284.809 4.35803 286.378 4.7047 287.447 5.39803C288.534 6.09136 289.077 7.26137 289.077 8.90803C289.077 10.2427 288.736 11.2567 288.052 11.95C287.368 12.626 286.457 13.0854 285.318 13.328C286.772 13.5014 287.877 13.926 288.63 14.602C289.384 15.2607 289.761 16.266 289.761 17.618C289.761 18.9007 289.454 19.9407 288.841 20.738C288.227 21.5354 287.386 22.116 286.317 22.48C285.248 22.8267 284.038 23 282.689 23H276.353V4.35803ZM282.557 12.314C283.749 12.314 284.713 12.054 285.449 11.534C286.203 10.9967 286.58 10.1647 286.58 9.03803C286.58 8.0847 286.247 7.44337 285.581 7.11403C284.915 6.76736 283.968 6.59403 282.741 6.59403H278.824V12.314H282.557ZM282.689 20.79C284.021 20.79 285.099 20.5647 285.922 20.114C286.746 19.6634 287.158 18.8487 287.158 17.67C287.158 16.4914 286.773 15.6767 286.001 15.226C285.248 14.758 284.047 14.524 282.399 14.524H278.824V20.79H282.689Z" fill="black" fill-opacity="0.25" style="fill:black;fill-opacity:0.25;"/>
<path d="M247.568 23H244.887V4.35803H247.358V19.75L257.717 4.35803H260.398V23H257.874V7.68603L247.568 23Z" fill="black" fill-opacity="0.25" style="fill:black;fill-opacity:0.25;"/>
<path d="M216.212 6.62003V4.35803H230.33V6.62003H224.52V23H222.022V6.62003H216.212Z" fill="black" fill-opacity="0.25" style="fill:black;fill-opacity:0.25;"/>
<path d="M194.67 23.26C192.987 23.26 191.463 22.8874 190.096 22.142C188.728 21.3967 187.642 20.3134 186.835 18.892C186.047 17.4534 185.652 15.694 185.652 13.614C185.652 11.534 186.047 9.79202 186.835 8.38802C187.642 6.96669 188.728 5.90069 190.096 5.19002C191.463 4.47936 192.987 4.12402 194.67 4.12402C196.388 4.12402 197.921 4.48802 199.271 5.21602C200.638 5.92669 201.716 6.98402 202.505 8.38802C203.294 9.79202 203.688 11.5427 203.688 13.64C203.688 15.7027 203.294 17.4534 202.505 18.892C201.716 20.3134 200.638 21.3967 199.271 22.142C197.921 22.8874 196.388 23.26 194.67 23.26ZM194.67 21.05C195.879 21.05 196.966 20.8074 197.93 20.322C198.894 19.8367 199.648 19.0567 200.191 17.982C200.752 16.89 201.033 15.46 201.033 13.692C201.033 11.9067 200.752 10.4767 200.191 9.40202C199.648 8.32736 198.894 7.54736 197.93 7.06202C196.966 6.57669 195.879 6.33402 194.67 6.33402C193.461 6.33402 192.374 6.57669 191.41 7.06202C190.464 7.54736 189.71 8.32736 189.149 9.40202C188.588 10.4767 188.308 11.9067 188.308 13.692C188.308 15.46 188.588 16.89 189.149 17.982C189.71 19.0567 190.464 19.8367 191.41 20.322C192.374 20.8074 193.461 21.05 194.67 21.05Z" fill="black" fill-opacity="0.25" style="fill:black;fill-opacity:0.25;"/>
<path d="M159.142 4.35803H165.162C167.301 4.35803 168.957 4.80003 170.131 5.68403C171.323 6.5507 171.919 7.91136 171.919 9.76603C171.919 11.17 171.621 12.314 171.025 13.198C170.447 14.082 169.632 14.732 168.58 15.148C167.546 15.5467 166.337 15.746 164.952 15.746H161.613V23H159.142V4.35803ZM164.952 13.536C166.284 13.536 167.362 13.25 168.186 12.678C169.009 12.106 169.421 11.144 169.421 9.79203C169.421 8.66537 169.053 7.8507 168.317 7.34803C167.581 6.84536 166.529 6.59403 165.162 6.59403H161.613V13.536H164.952Z" fill="black" fill-opacity="0.25" style="fill:black;fill-opacity:0.25;"/>
<path d="M129.01 4.35803H143.181V23H140.683V6.59403H131.481V23H129.01V4.35803Z" fill="black" fill-opacity="0.25" style="fill:black;fill-opacity:0.25;"/>
<path d="M84.333 23V4.35803H86.8044V11.586H90.5377C92.6234 11.586 94.2271 12.0194 95.3489 12.886C96.4706 13.7527 97.0315 15.1567 97.0315 17.098C97.0315 18.5194 96.7423 19.6634 96.1639 20.53C95.5855 21.3967 94.7793 22.0294 93.7451 22.428C92.711 22.8094 91.5192 23 90.1696 23H84.333ZM90.1696 20.79C91.414 20.79 92.4306 20.53 93.2193 20.01C94.0256 19.49 94.4287 18.554 94.4287 17.202C94.4287 16.058 94.0869 15.2 93.4034 14.628C92.7198 14.056 91.7383 13.77 90.4588 13.77H86.8044V20.79H90.1696Z" fill="black" fill-opacity="0.25" style="fill:black;fill-opacity:0.25;"/>
<path d="M55.6582 6.62003V4.35803H69.7764V6.62003H63.9661V23H61.4685V6.62003H55.6582Z" fill="black" fill-opacity="0.25" style="fill:black;fill-opacity:0.25;"/>
<path d="M36.0483 23.26C34.1904 23.26 32.5603 22.8787 31.1582 22.116C29.7735 21.3534 28.6956 20.2614 27.9244 18.84C27.1532 17.4014 26.7676 15.6854 26.7676 13.692C26.7676 10.6934 27.5651 8.35336 29.16 6.67202C30.755 4.97336 33.0336 4.12402 35.9957 4.12402C37.2752 4.12402 38.3969 4.26269 39.3609 4.54002C40.3424 4.80002 41.1312 5.11202 41.7271 5.47602V7.81602C40.9384 7.31336 40.0269 6.94069 38.9928 6.69802C37.9763 6.45536 36.9684 6.33402 35.9694 6.33402C33.761 6.33402 32.1222 6.94936 31.053 8.18002C29.9838 9.41069 29.4492 11.248 29.4492 13.692C29.4492 16.1534 30.0276 17.9994 31.1844 19.23C32.3412 20.4434 34.0326 21.05 36.2586 21.05C37.2226 21.05 38.1603 20.92 39.0717 20.66C40.0007 20.4 40.8858 19.958 41.7271 19.334V21.674C41.2188 22.0727 40.4739 22.4367 39.4924 22.766C38.5284 23.0954 37.3803 23.26 36.0483 23.26Z" fill="black" fill-opacity="0.25" style="fill:black;fill-opacity:0.25;"/>
<path d="M1.10352 4.35803H12.7767V6.59403H3.57486V12.236H11.3832V14.446H3.57486V20.79H12.9081V23H1.10352V4.35803Z" fill="black" fill-opacity="0.25" style="fill:black;fill-opacity:0.25;"/>
</svg>
