<svg width="267" height="81" viewBox="0 0 267 81" fill="none" xmlns="http://www.w3.org/2000/svg">
<path d="M265.914 78.22C265.597 78.22 265.331 78.1183 265.116 77.9148C264.912 77.7001 264.811 77.4459 264.811 77.152C264.811 76.8356 264.912 76.5757 265.116 76.3723C265.331 76.1688 265.597 76.0671 265.914 76.0671C266.231 76.0671 266.491 76.1688 266.695 76.3723C266.899 76.5757 267 76.8356 267 77.152C267 77.4459 266.899 77.7001 266.695 77.9148C266.491 78.1183 266.231 78.22 265.914 78.22Z" fill="black" fill-opacity="0.25" style="fill:black;fill-opacity:0.25;"/>
<path d="M252.95 65.9641H260.488V67.4219H254.546V71.1004H259.588V72.5413H254.546V76.6774H260.572V78.1183H252.95V65.9641Z" fill="black" fill-opacity="0.25" style="fill:black;fill-opacity:0.25;"/>
<path d="M239.627 78.1183H237.896V65.9641H239.491V75.9994L246.18 65.9641H247.911V78.1183H246.282V68.1339L239.627 78.1183Z" fill="black" fill-opacity="0.25" style="fill:black;fill-opacity:0.25;"/>
<path d="M223.012 81H221.569V76.6774H222.401C222.922 76.2028 223.307 75.5134 223.556 74.6093C223.805 73.7053 223.974 72.5469 224.065 71.1343C224.155 69.7104 224.223 67.987 224.269 65.9641H232.027V76.6774H233.588V81H232.111L231.942 78.1183H223.199L223.012 81ZM224.252 76.6774H230.414V67.4219H225.762C225.728 69.1397 225.655 70.5975 225.542 71.7954C225.44 72.9933 225.281 73.9878 225.066 74.7789C224.863 75.5586 224.591 76.1915 224.252 76.6774Z" fill="black" fill-opacity="0.25" style="fill:black;fill-opacity:0.25;"/>
<path d="M213.094 78.2878C212.008 78.2878 211.023 78.0448 210.14 77.5589C209.258 77.0729 208.556 76.3666 208.035 75.4399C207.526 74.502 207.271 73.3549 207.271 71.9988C207.271 70.6427 207.526 69.5069 208.035 68.5916C208.556 67.6649 209.258 66.9699 210.14 66.5065C211.023 66.0432 212.008 65.8115 213.094 65.8115C214.203 65.8115 215.194 66.0488 216.065 66.5235C216.948 66.9868 217.644 67.6762 218.153 68.5916C218.662 69.5069 218.917 70.6483 218.917 72.0157C218.917 73.3606 218.662 74.502 218.153 75.4399C217.644 76.3666 216.948 77.0729 216.065 77.5589C215.194 78.0448 214.203 78.2878 213.094 78.2878ZM213.094 76.8469C213.875 76.8469 214.577 76.6887 215.199 76.3723C215.822 76.0558 216.308 75.5473 216.659 74.8466C217.021 74.1347 217.202 73.2024 217.202 72.0497C217.202 70.8857 217.021 69.9533 216.659 69.2527C216.308 68.552 215.822 68.0435 215.199 67.727C214.577 67.4106 213.875 67.2524 213.094 67.2524C212.313 67.2524 211.612 67.4106 210.989 67.727C210.378 68.0435 209.891 68.552 209.529 69.2527C209.167 69.9533 208.986 70.8857 208.986 72.0497C208.986 73.2024 209.167 74.1347 209.529 74.8466C209.891 75.5473 210.378 76.0558 210.989 76.3723C211.612 76.6887 212.313 76.8469 213.094 76.8469Z" fill="black" fill-opacity="0.25" style="fill:black;fill-opacity:0.25;"/>
<path d="M193.152 76.5757C193.707 76.6322 194.114 76.4571 194.375 76.0502C194.646 75.6434 194.85 75.1066 194.986 74.4398C195.156 73.5923 195.269 72.4622 195.325 71.0495C195.382 69.6369 195.421 67.9418 195.444 65.9641H202.947V78.1183H201.335V67.4219H196.955C196.921 69.0606 196.876 70.4901 196.819 71.7106C196.763 72.9198 196.655 73.9426 196.497 74.7789C196.361 75.4117 196.168 75.9937 195.919 76.5249C195.67 77.056 195.325 77.4741 194.884 77.7793C194.443 78.0844 193.865 78.22 193.152 78.1861V76.5757Z" fill="black" fill-opacity="0.25" style="fill:black;fill-opacity:0.25;"/>
<path d="M180.046 65.9641H189.196V78.1183H187.583V67.4219H181.642V78.1183H180.046V65.9641Z" fill="black" fill-opacity="0.25" style="fill:black;fill-opacity:0.25;"/>
<path d="M171.73 78.2878C170.53 78.2878 169.478 78.0392 168.572 77.5419C167.678 77.0447 166.982 76.3327 166.484 75.406C165.986 74.4681 165.737 73.3493 165.737 72.0497C165.737 70.0946 166.252 68.569 167.282 67.4728C168.312 66.3653 169.783 65.8115 171.696 65.8115C172.522 65.8115 173.246 65.9019 173.869 66.0827C174.503 66.2523 175.012 66.4557 175.397 66.693V68.2186C174.887 67.8909 174.299 67.6479 173.631 67.4897C172.975 67.3315 172.324 67.2524 171.679 67.2524C170.253 67.2524 169.195 67.6536 168.504 68.4559C167.814 69.2583 167.469 70.4562 167.469 72.0497C167.469 73.6544 167.842 74.8579 168.589 75.6603C169.336 76.4514 170.428 76.8469 171.866 76.8469C172.488 76.8469 173.094 76.7622 173.682 76.5926C174.282 76.4231 174.853 76.1349 175.397 75.7281V77.2537C175.068 77.5137 174.587 77.751 173.954 77.9657C173.331 78.1804 172.59 78.2878 171.73 78.2878Z" fill="black" fill-opacity="0.25" style="fill:black;fill-opacity:0.25;"/>
<path d="M154.429 65.9641H161.966V67.4219H156.024V71.1004H161.066V72.5413H156.024V76.6774H162.051V78.1183H154.429V65.9641Z" fill="black" fill-opacity="0.25" style="fill:black;fill-opacity:0.25;"/>
<path d="M141.679 78.1183V65.9641H149.097V67.4219H143.274V70.8461H145.685C147.032 70.8461 148.067 71.123 148.792 71.6767C149.516 72.2305 149.878 73.1233 149.878 74.3551C149.878 75.2591 149.691 75.9881 149.318 76.5418C148.944 77.0956 148.424 77.4967 147.756 77.7454C147.088 77.994 146.319 78.1183 145.447 78.1183H141.679ZM145.447 76.6774C146.251 76.6774 146.907 76.5136 147.417 76.1858C147.937 75.8581 148.197 75.2704 148.197 74.4229C148.197 73.6996 147.977 73.1628 147.535 72.8125C147.094 72.4622 146.46 72.287 145.634 72.287H143.274V76.6774H145.447Z" fill="black" fill-opacity="0.25" style="fill:black;fill-opacity:0.25;"/>
<path d="M122.75 78.1183H121.019V65.9641H122.614V75.9994L129.303 65.9641H131.034V78.1183H129.405V68.1339L122.75 78.1183Z" fill="black" fill-opacity="0.25" style="fill:black;fill-opacity:0.25;"/>
<path d="M105.589 78.2878C104.615 78.2878 103.733 78.0844 102.94 77.6775C102.148 77.2594 101.503 76.6435 101.005 75.8298C100.507 75.0162 100.213 74.0104 100.122 72.8125H98.3399V78.1183H96.7441V65.9641H98.3399V71.3716H100.139C100.219 70.1737 100.507 69.1623 101.005 68.3373C101.503 67.5123 102.148 66.8851 102.94 66.4557C103.733 66.0262 104.615 65.8115 105.589 65.8115C106.619 65.8115 107.547 66.0432 108.373 66.5065C109.199 66.9699 109.855 67.6649 110.342 68.5916C110.829 69.5069 111.072 70.6427 111.072 71.9988C111.072 73.3549 110.829 74.502 110.342 75.4399C109.855 76.3666 109.199 77.0729 108.373 77.5589C107.547 78.0448 106.619 78.2878 105.589 78.2878ZM105.589 76.8469C106.313 76.8469 106.958 76.6887 107.524 76.3723C108.09 76.0558 108.537 75.5473 108.865 74.8466C109.193 74.1347 109.357 73.2024 109.357 72.0497C109.357 70.8857 109.193 69.9533 108.865 69.2527C108.537 68.552 108.09 68.0435 107.524 67.727C106.958 67.4106 106.313 67.2524 105.589 67.2524C104.876 67.2524 104.236 67.4106 103.67 67.727C103.104 68.0435 102.657 68.552 102.329 69.2527C102.001 69.9533 101.837 70.8857 101.837 72.0497C101.837 73.2024 102.001 74.1347 102.329 74.8466C102.657 75.5473 103.104 76.0558 103.67 76.3723C104.236 76.6887 104.876 76.8469 105.589 76.8469Z" fill="black" fill-opacity="0.25" style="fill:black;fill-opacity:0.25;"/>
<path d="M84.0264 78.1183V65.9641H85.6221V70.6766H88.0327C89.3795 70.6766 90.415 70.9591 91.1393 71.5242C91.8636 72.0892 92.2258 73.0046 92.2258 74.2703C92.2258 75.197 92.039 75.9429 91.6656 76.5079C91.2921 77.073 90.7715 77.4854 90.1038 77.7454C89.436 77.994 88.6665 78.1183 87.795 78.1183H84.0264ZM87.795 76.6774C88.5986 76.6774 89.255 76.5079 89.7643 76.1689C90.2849 75.8298 90.5451 75.2196 90.5451 74.3381C90.5451 73.5923 90.3245 73.0329 89.8831 72.6599C89.4417 72.287 88.8079 72.1005 87.9818 72.1005H85.6221V76.6774H87.795Z" fill="black" fill-opacity="0.25" style="fill:black;fill-opacity:0.25;"/>
<path d="M70.877 65.9641H75.0021C76.3376 65.9641 77.3505 66.1901 78.0408 66.6422C78.7425 67.0942 79.0933 67.857 79.0933 68.9306C79.0933 69.8008 78.8726 70.4619 78.4313 70.9139C77.9899 71.3547 77.4014 71.6541 76.6658 71.8124C77.6051 71.9254 78.3181 72.2022 78.8047 72.643C79.2914 73.0724 79.5347 73.7279 79.5347 74.6093C79.5347 75.4456 79.3367 76.1237 78.9405 76.6435C78.5444 77.1634 78.0012 77.5419 77.3109 77.7793C76.6205 78.0053 75.8396 78.1183 74.9682 78.1183H70.877V65.9641ZM74.8833 71.1513C75.6529 71.1513 76.2753 70.9817 76.7506 70.6427C77.2373 70.2924 77.4806 69.7499 77.4806 69.0154C77.4806 68.3938 77.2656 67.9757 76.8355 67.761C76.4055 67.5349 75.7943 67.4219 75.0021 67.4219H72.4727V71.1513H74.8833ZM74.9682 76.6774C75.8283 76.6774 76.5243 76.5305 77.0562 76.2367C77.5881 75.9429 77.8541 75.4117 77.8541 74.6432C77.8541 73.8748 77.6051 73.3436 77.1071 73.0498C76.6205 72.7447 75.8453 72.5921 74.7814 72.5921H72.4727V76.6774H74.9682Z" fill="black" fill-opacity="0.25" style="fill:black;fill-opacity:0.25;"/>
<path d="M60.7173 78.2878C59.6308 78.2878 58.6462 78.0448 57.7635 77.5589C56.8807 77.0729 56.179 76.3666 55.6585 75.4399C55.1492 74.502 54.8945 73.3549 54.8945 71.9988C54.8945 70.6427 55.1492 69.5069 55.6585 68.5916C56.179 67.6649 56.8807 66.9699 57.7635 66.5065C58.6462 66.0432 59.6308 65.8115 60.7173 65.8115C61.8264 65.8115 62.8167 66.0488 63.6881 66.5235C64.5708 66.9868 65.2669 67.6762 65.7761 68.5916C66.2854 69.5069 66.5401 70.6483 66.5401 72.0157C66.5401 73.3606 66.2854 74.502 65.7761 75.4399C65.2669 76.3666 64.5708 77.0729 63.6881 77.5589C62.8167 78.0448 61.8264 78.2878 60.7173 78.2878ZM60.7173 76.8469C61.4982 76.8469 62.1999 76.6887 62.8223 76.3723C63.4448 76.0558 63.9314 75.5473 64.2823 74.8466C64.6444 74.1347 64.8255 73.2024 64.8255 72.0497C64.8255 70.8857 64.6444 69.9533 64.2823 69.2527C63.9314 68.552 63.4448 68.0435 62.8223 67.727C62.1999 67.4106 61.4982 67.2524 60.7173 67.2524C59.9364 67.2524 59.2347 67.4106 58.6123 67.727C58.0011 68.0435 57.5145 68.552 57.1523 69.2527C56.7902 69.9533 56.6091 70.8857 56.6091 72.0497C56.6091 73.2024 56.7902 74.1347 57.1523 74.8466C57.5145 75.5473 58.0011 76.0558 58.6123 76.3723C59.2347 76.6887 59.9364 76.8469 60.7173 76.8469Z" fill="black" fill-opacity="0.25" style="fill:black;fill-opacity:0.25;"/>
<path d="M43.0391 65.9641H46.9266C48.3073 65.9641 49.3768 66.2523 50.135 66.8286C50.9046 67.3937 51.2894 68.2808 51.2894 69.49C51.2894 70.4054 51.097 71.1513 50.7122 71.7276C50.3387 72.304 49.8125 72.7277 49.1334 72.999C48.4657 73.2589 47.6848 73.3888 46.7908 73.3888H44.6348V78.1183H43.0391V65.9641ZM46.7908 71.948C47.6509 71.948 48.3469 71.7615 48.8788 71.3886C49.4107 71.0156 49.6767 70.3884 49.6767 69.507C49.6767 68.7724 49.439 68.2413 48.9637 67.9135C48.4884 67.5858 47.8093 67.4219 46.9266 67.4219H44.6348V71.948H46.7908Z" fill="black" fill-opacity="0.25" style="fill:black;fill-opacity:0.25;"/>
<path d="M32.8784 78.2878C31.792 78.2878 30.8074 78.0448 29.9246 77.5589C29.0419 77.0729 28.3402 76.3666 27.8196 75.4399C27.3103 74.502 27.0557 73.3549 27.0557 71.9988C27.0557 70.6427 27.3103 69.5069 27.8196 68.5916C28.3402 67.6649 29.0419 66.9699 29.9246 66.5065C30.8074 66.0432 31.792 65.8115 32.8784 65.8115C33.9875 65.8115 34.9778 66.0488 35.8492 66.5235C36.732 66.9868 37.428 67.6762 37.9373 68.5916C38.4466 69.5069 38.7012 70.6483 38.7012 72.0157C38.7012 73.3606 38.4466 74.502 37.9373 75.4399C37.428 76.3666 36.732 77.0729 35.8492 77.5589C34.9778 78.0448 33.9875 78.2878 32.8784 78.2878ZM32.8784 76.8469C33.6593 76.8469 34.361 76.6887 34.9835 76.3723C35.6059 76.0558 36.0926 75.5473 36.4434 74.8466C36.8055 74.1347 36.9866 73.2024 36.9866 72.0497C36.9866 70.8857 36.8055 69.9533 36.4434 69.2527C36.0926 68.552 35.6059 68.0435 34.9835 67.727C34.361 67.4106 33.6593 67.2524 32.8784 67.2524C32.0975 67.2524 31.3959 67.4106 30.7734 67.727C30.1623 68.0435 29.6756 68.552 29.3135 69.2527C28.9513 69.9533 28.7702 70.8857 28.7702 72.0497C28.7702 73.2024 28.9513 74.1347 29.3135 74.8466C29.6756 75.5473 30.1623 76.0558 30.7734 76.3723C31.3959 76.6887 32.0975 76.8469 32.8784 76.8469Z" fill="black" fill-opacity="0.25" style="fill:black;fill-opacity:0.25;"/>
<path d="M13.2174 81H11.7744V76.6774H12.6062C13.1268 76.2028 13.5116 75.5134 13.7606 74.6093C14.0096 73.7053 14.1793 72.5469 14.2699 71.1343C14.3604 69.7104 14.4283 67.987 14.4736 65.9641H22.2316V76.6774H23.7934V81H22.3165L22.1467 78.1183H13.4041L13.2174 81ZM14.4566 76.6774H20.6189V67.4219H15.9675C15.9335 69.1397 15.86 70.5975 15.7468 71.7954C15.6449 72.9933 15.4865 73.9878 15.2715 74.7789C15.0678 75.5586 14.7961 76.1915 14.4566 76.6774Z" fill="black" fill-opacity="0.25" style="fill:black;fill-opacity:0.25;"/>
<path d="M3.80262 78.2878C2.89724 78.2878 2.11068 78.1748 1.44296 77.9488C0.786555 77.7227 0.305568 77.4854 0 77.2368V75.7112C1.05251 76.4683 2.30308 76.8469 3.75169 76.8469C4.31756 76.8469 4.8325 76.7791 5.29651 76.6435C5.76052 76.5079 6.13399 76.2819 6.41693 75.9654C6.69986 75.6377 6.84133 75.197 6.84133 74.6432C6.84133 73.8748 6.59235 73.338 6.09438 73.0328C5.60774 72.7164 4.87777 72.5582 3.90448 72.5582H2.15595V71.2021H3.87053C4.71933 71.2021 5.36441 71.0213 5.80579 70.6596C6.24717 70.2867 6.46785 69.7782 6.46785 69.134C6.46785 68.4333 6.23585 67.9418 5.77184 67.6592C5.30783 67.3767 4.69669 67.2354 3.93843 67.2354C3.16885 67.2354 2.46718 67.3202 1.83341 67.4897C1.21095 67.6592 0.662064 67.8683 0.186736 68.1169V66.6082C0.560208 66.4161 1.04685 66.2353 1.64667 66.0658C2.25781 65.8963 3.02739 65.8115 3.95541 65.8115C5.22295 65.8115 6.23019 66.0715 6.97713 66.5913C7.72408 67.1111 8.09755 67.9248 8.09755 69.0323C8.09755 69.7443 7.88252 70.3376 7.45246 70.8122C7.03372 71.2755 6.41693 71.5976 5.60208 71.7784C6.55273 71.9027 7.27704 72.1966 7.77501 72.6599C8.27297 73.1232 8.52195 73.7731 8.52195 74.6093C8.52195 75.4682 8.30692 76.1688 7.87686 76.7113C7.45812 77.2537 6.89225 77.6549 6.17926 77.9148C5.46627 78.1635 4.67406 78.2878 3.80262 78.2878Z" fill="black" fill-opacity="0.25" style="fill:black;fill-opacity:0.25;"/>
<path d="M253.383 59.0629H251.94V54.7403H252.772C253.293 54.2656 253.678 53.5763 253.927 52.6722C254.176 51.7681 254.345 50.6098 254.436 49.1972C254.526 47.7732 254.594 46.0498 254.64 44.027H262.398V54.7403H263.959V59.0629H262.483L262.313 56.1812H253.57L253.383 59.0629ZM254.623 54.7403H260.785V45.4848H256.133C256.1 47.2025 256.026 48.6604 255.913 49.8583C255.811 51.0562 255.653 52.0507 255.437 52.8417C255.234 53.6215 254.962 54.2543 254.623 54.7403Z" fill="black" fill-opacity="0.25" style="fill:black;fill-opacity:0.25;"/>
<path d="M233.119 44.027H240.656V45.4848H234.715V49.1633H239.757V50.6041H234.715V54.7403H240.741V56.1812H233.119V44.027Z" fill="black" fill-opacity="0.25" style="fill:black;fill-opacity:0.25;"/>
<path d="M212.913 44.027H216.801C218.181 44.027 219.251 44.3152 220.009 44.8915C220.779 45.4565 221.163 46.3437 221.163 47.5529C221.163 48.4683 220.971 49.2141 220.586 49.7905C220.213 50.3668 219.687 50.7906 219.007 51.0618C218.34 51.3217 217.559 51.4517 216.665 51.4517H214.509V56.1812H212.913V44.027ZM216.665 50.0108C217.525 50.0108 218.221 49.8244 218.753 49.4514C219.285 49.0785 219.551 48.4513 219.551 47.5698C219.551 46.8353 219.313 46.3041 218.838 45.9764C218.362 45.6487 217.683 45.4848 216.801 45.4848H214.509V50.0108H216.665Z" fill="black" fill-opacity="0.25" style="fill:black;fill-opacity:0.25;"/>
<path d="M192.125 44.027H196.25C197.586 44.027 198.599 44.253 199.289 44.705C199.991 45.1571 200.341 45.9199 200.341 46.9935C200.341 47.8637 200.121 48.5248 199.679 48.9768C199.238 49.4175 198.649 49.717 197.914 49.8752C198.853 49.9882 199.566 50.2651 200.053 50.7058C200.539 51.1353 200.783 51.7907 200.783 52.6722C200.783 53.5085 200.585 54.1865 200.189 54.7064C199.793 55.2262 199.249 55.6048 198.559 55.8421C197.869 56.0681 197.088 56.1812 196.216 56.1812H192.125V44.027ZM196.131 49.2141C196.901 49.2141 197.523 49.0446 197.999 48.7056C198.485 48.3552 198.729 47.8128 198.729 47.0782C198.729 46.4567 198.514 46.0385 198.084 45.8238C197.654 45.5978 197.042 45.4848 196.25 45.4848H193.721V49.2141H196.131ZM196.216 54.7403C197.076 54.7403 197.772 54.5934 198.304 54.2995C198.836 54.0057 199.102 53.4746 199.102 52.7061C199.102 51.9376 198.853 51.4065 198.355 51.1127C197.869 50.8075 197.093 50.655 196.029 50.655H193.721V54.7403H196.216Z" fill="black" fill-opacity="0.25" style="fill:black;fill-opacity:0.25;"/>
<path d="M156.749 44.027H158.345V49.4345H164.592V44.027H166.205V56.1812H164.592V50.8754H158.345V56.1812H156.749V44.027Z" fill="black" fill-opacity="0.25" style="fill:black;fill-opacity:0.25;"/>
<path d="M136.774 44.027H144.312V45.4848H138.37V49.1633H143.412V50.6041H138.37V54.7403H144.397V56.1812H136.774V44.027Z" fill="black" fill-opacity="0.25" style="fill:black;fill-opacity:0.25;"/>
<path d="M109.694 56.1812L114.634 49.9939L109.915 44.027H111.647L115.891 49.5023H116.57V44.027H118.182V49.5023H118.895L123.139 44.027H124.888L120.135 50.0278L125.109 56.1812H123.156L118.878 50.8415H118.182V56.1812H116.57V50.8415H115.84L111.596 56.1812H109.694Z" fill="black" fill-opacity="0.25" style="fill:black;fill-opacity:0.25;"/>
<path d="M93.7778 56.3505C92.6914 56.3505 91.7068 56.1075 90.824 55.6216C89.9413 55.1357 89.2396 54.4294 88.719 53.5027C88.2097 52.5647 87.9551 51.4177 87.9551 50.0615C87.9551 48.7054 88.2097 47.5697 88.719 46.6543C89.2396 45.7276 89.9413 45.0326 90.824 44.5693C91.7068 44.1059 92.6914 43.8743 93.7778 43.8743C94.8869 43.8743 95.8772 44.1116 96.7486 44.5862C97.6314 45.0496 98.3274 45.7389 98.8367 46.6543C99.346 47.5697 99.6006 48.7111 99.6006 50.0785C99.6006 51.4233 99.346 52.5647 98.8367 53.5027C98.3274 54.4294 97.6314 55.1357 96.7486 55.6216C95.8772 56.1075 94.8869 56.3505 93.7778 56.3505ZM93.7778 54.9096C94.5587 54.9096 95.2604 54.7514 95.8829 54.435C96.5053 54.1186 96.992 53.61 97.3428 52.9094C97.705 52.1974 97.886 51.2651 97.886 50.1124C97.886 48.9484 97.705 48.0161 97.3428 47.3154C96.992 46.6147 96.5053 46.1062 95.8829 45.7898C95.2604 45.4734 94.5587 45.3151 93.7778 45.3151C92.9969 45.3151 92.2953 45.4734 91.6728 45.7898C91.0617 46.1062 90.575 46.6147 90.2129 47.3154C89.8507 48.0161 89.6697 48.9484 89.6697 50.1124C89.6697 51.2651 89.8507 52.1974 90.2129 52.9094C90.575 53.61 91.0617 54.1186 91.6728 54.435C92.2953 54.7514 92.9969 54.9096 93.7778 54.9096Z" fill="black" fill-opacity="0.25" style="fill:black;fill-opacity:0.25;"/>
<path d="M69.8409 54.3334H69.1449H69.1279L69.1449 54.3165L65.4611 46.2646V56.1812H63.9502V44.027H66.1741L69.9597 52.5535L73.9151 44.027H75.9862V56.1812H74.3735V46.4002L70.6387 54.3165L69.8409 54.3334Z" fill="black" fill-opacity="0.25" style="fill:black;fill-opacity:0.25;"/>
<path d="M47.0849 56.3505C46.1795 56.3505 45.3929 56.2375 44.7252 56.0115C44.0688 55.7855 43.5878 55.5482 43.2822 55.2995V53.7739C44.3347 54.5311 45.5853 54.9096 47.0339 54.9096C47.5998 54.9096 48.1147 54.8418 48.5787 54.7062C49.0427 54.5706 49.4162 54.3446 49.6992 54.0282C49.9821 53.7004 50.1236 53.2597 50.1236 52.706C50.1236 51.9375 49.8746 51.4007 49.3766 51.0956C48.89 50.7792 48.16 50.6209 47.1867 50.6209H45.4382V49.2648H47.1528C48.0016 49.2648 48.6466 49.084 49.088 48.7224C49.5294 48.3494 49.7501 47.8409 49.7501 47.1967C49.7501 46.4961 49.5181 46.0045 49.0541 45.722C48.5901 45.4394 47.9789 45.2982 47.2207 45.2982C46.4511 45.2982 45.7494 45.3829 45.1156 45.5525C44.4932 45.722 43.9443 45.931 43.469 46.1797V44.671C43.8424 44.4789 44.3291 44.2981 44.9289 44.1285C45.54 43.959 46.3096 43.8743 47.2376 43.8743C48.5052 43.8743 49.5124 44.1342 50.2594 44.654C51.0063 45.1739 51.3798 45.9875 51.3798 47.095C51.3798 47.807 51.1647 48.4003 50.7347 48.8749C50.3159 49.3383 49.6992 49.6604 48.8843 49.8412C49.835 49.9655 50.5593 50.2593 51.0572 50.7226C51.5552 51.186 51.8042 51.8358 51.8042 52.6721C51.8042 53.5309 51.5891 54.2316 51.1591 54.774C50.7403 55.3165 50.1745 55.7177 49.4615 55.9776C48.7485 56.2262 47.9563 56.3505 47.0849 56.3505Z" fill="black" fill-opacity="0.25" style="fill:black;fill-opacity:0.25;"/>
<path d="M26.3579 56.3505C25.2715 56.3505 24.2869 56.1075 23.4041 55.6216C22.5213 55.1357 21.8197 54.4294 21.2991 53.5027C20.7898 52.5647 20.5352 51.4177 20.5352 50.0615C20.5352 48.7054 20.7898 47.5697 21.2991 46.6543C21.8197 45.7276 22.5213 45.0326 23.4041 44.5693C24.2869 44.1059 25.2715 43.8743 26.3579 43.8743C27.467 43.8743 28.4573 44.1116 29.3287 44.5862C30.2115 45.0496 30.9075 45.7389 31.4168 46.6543C31.926 47.5697 32.1807 48.7111 32.1807 50.0785C32.1807 51.4233 31.926 52.5647 31.4168 53.5027C30.9075 54.4294 30.2115 55.1357 29.3287 55.6216C28.4573 56.1075 27.467 56.3505 26.3579 56.3505ZM26.3579 54.9096C27.1388 54.9096 27.8405 54.7514 28.4629 54.435C29.0854 54.1186 29.572 53.61 29.9229 52.9094C30.285 52.1974 30.4661 51.2651 30.4661 50.1124C30.4661 48.9484 30.285 48.0161 29.9229 47.3154C29.572 46.6147 29.0854 46.1062 28.4629 45.7898C27.8405 45.4734 27.1388 45.3151 26.3579 45.3151C25.577 45.3151 24.8754 45.4734 24.2529 45.7898C23.6418 46.1062 23.1551 46.6147 22.793 47.3154C22.4308 48.0161 22.2497 48.9484 22.2497 50.1124C22.2497 51.2651 22.4308 52.1974 22.793 52.9094C23.1551 53.61 23.6418 54.1186 24.2529 54.435C24.8754 54.7514 25.577 54.9096 26.3579 54.9096Z" fill="black" fill-opacity="0.25" style="fill:black;fill-opacity:0.25;"/>
<path d="M0.542969 44.027H4.66814C6.00358 44.027 7.01648 44.253 7.70684 44.705C8.40851 45.1571 8.75935 45.9199 8.75935 46.9935C8.75935 47.8637 8.53866 48.5248 8.09729 48.9768C7.65591 49.4175 7.06741 49.717 6.33178 49.8752C7.27112 49.9882 7.98411 50.2651 8.47076 50.7058C8.9574 51.1353 9.20073 51.7907 9.20073 52.6722C9.20073 53.5085 9.00267 54.1865 8.60657 54.7064C8.21046 55.2262 7.66723 55.6048 6.97687 55.8421C6.28651 56.0681 5.50562 56.1812 4.63418 56.1812H0.542969V44.027ZM4.5493 49.2141C5.31888 49.2141 5.94133 49.0446 6.41666 48.7056C6.90331 48.3552 7.14663 47.8128 7.14663 47.0782C7.14663 46.4567 6.9316 46.0385 6.50154 45.8238C6.07148 45.5978 5.46035 45.4848 4.66814 45.4848H2.13871V49.2141H4.5493ZM4.63418 54.7403C5.4943 54.7403 6.19032 54.5934 6.72223 54.2995C7.25415 54.0057 7.5201 53.4746 7.5201 52.7061C7.5201 51.9376 7.27112 51.4065 6.77316 51.1127C6.28651 50.8075 5.51128 50.655 4.44745 50.655H2.13871V54.7403H4.63418Z" fill="black" fill-opacity="0.25" style="fill:black;fill-opacity:0.25;"/>
<path d="M265.563 34.3456C265.247 34.3456 264.981 34.2439 264.766 34.0405C264.562 33.8257 264.46 33.5715 264.46 33.2776C264.46 32.9612 264.562 32.7013 264.766 32.4979C264.981 32.2945 265.247 32.1927 265.563 32.1927C265.88 32.1927 266.141 32.2945 266.344 32.4979C266.548 32.7013 266.65 32.9612 266.65 33.2776C266.65 33.5715 266.548 33.8257 266.344 34.0405C266.141 34.2439 265.88 34.3456 265.563 34.3456Z" fill="black" fill-opacity="0.25" style="fill:black;fill-opacity:0.25;"/>
<path d="M254.614 32.3963H253.918H253.901L253.918 32.3794L250.234 24.3274V34.244H248.724V22.0898H250.947L254.733 30.6164L258.689 22.0898H260.76V34.244H259.147V24.463L255.412 32.3794L254.614 32.3963Z" fill="black" fill-opacity="0.25" style="fill:black;fill-opacity:0.25;"/>
<path d="M239.412 34.4134C238.325 34.4134 237.341 34.1704 236.458 33.6845C235.575 33.1985 234.873 32.4922 234.353 31.5655C233.844 30.6276 233.589 29.4805 233.589 28.1244C233.589 26.7683 233.844 25.6325 234.353 24.7172C234.873 23.7905 235.575 23.0955 236.458 22.6321C237.341 22.1688 238.325 21.9371 239.412 21.9371C240.521 21.9371 241.511 22.1745 242.382 22.6491C243.265 23.1124 243.961 23.8018 244.47 24.7172C244.98 25.6325 245.234 26.7739 245.234 28.1414C245.234 29.4862 244.98 30.6276 244.47 31.5655C243.961 32.4922 243.265 33.1985 242.382 33.6845C241.511 34.1704 240.521 34.4134 239.412 34.4134ZM239.412 32.9725C240.193 32.9725 240.894 32.8143 241.517 32.4979C242.139 32.1815 242.626 31.6729 242.977 30.9722C243.339 30.2603 243.52 29.328 243.52 28.1753C243.52 27.0113 243.339 26.0789 242.977 25.3783C242.626 24.6776 242.139 24.1691 241.517 23.8526C240.894 23.5362 240.193 23.378 239.412 23.378C238.631 23.378 237.929 23.5362 237.307 23.8526C236.695 24.1691 236.209 24.6776 235.847 25.3783C235.485 26.0789 235.303 27.0113 235.303 28.1753C235.303 29.328 235.485 30.2603 235.847 30.9722C236.209 31.6729 236.695 32.1815 237.307 32.4979C237.929 32.8143 238.631 32.9725 239.412 32.9725Z" fill="black" fill-opacity="0.25" style="fill:black;fill-opacity:0.25;"/>
<path d="M221.102 25.4801V22.0898H222.714V25.4801C222.714 26.4294 222.946 27.1583 223.41 27.6669C223.886 28.1754 224.582 28.4297 225.498 28.4297C226.053 28.4297 226.585 28.3675 227.094 28.2432C227.603 28.1076 228.073 27.8872 228.503 27.5821V22.0898H230.116V34.244H228.503V28.9382C228.039 29.232 227.552 29.4468 227.043 29.5824C226.545 29.718 226.025 29.7858 225.481 29.7858C224.089 29.7858 223.009 29.4355 222.239 28.7348C221.481 28.0341 221.102 26.9493 221.102 25.4801Z" fill="black" fill-opacity="0.25" style="fill:black;fill-opacity:0.25;"/>
<path d="M219.402 34.244H217.705L216.449 30.769H211.067L209.828 34.244H208.334L212.663 22.0898H215.04L219.402 34.244ZM211.593 29.3281H215.939L213.766 23.2764L211.593 29.3281Z" fill="black" fill-opacity="0.25" style="fill:black;fill-opacity:0.25;"/>
<path d="M198.712 22.0898H202.599C203.98 22.0898 205.05 22.378 205.808 22.9544C206.577 23.5194 206.962 24.4065 206.962 25.6157C206.962 26.5311 206.77 27.277 206.385 27.8533C206.012 28.4297 205.485 28.8535 204.806 29.1247C204.139 29.3846 203.358 29.5146 202.464 29.5146H200.308V34.244H198.712V22.0898ZM202.464 28.0737C203.324 28.0737 204.02 27.8872 204.552 27.5143C205.084 27.1414 205.35 26.5142 205.35 25.6327C205.35 24.8981 205.112 24.367 204.637 24.0393C204.161 23.7115 203.482 23.5477 202.599 23.5477H200.308V28.0737H202.464Z" fill="black" fill-opacity="0.25" style="fill:black;fill-opacity:0.25;"/>
<path d="M186.413 22.0898H190.538C191.874 22.0898 192.887 22.3159 193.577 22.7679C194.279 23.2199 194.629 23.9828 194.629 25.0563C194.629 25.9265 194.409 26.5876 193.967 27.0397C193.526 27.4804 192.938 27.7799 192.202 27.9381C193.141 28.0511 193.854 28.328 194.341 28.7687C194.828 29.1981 195.071 29.8536 195.071 30.7351C195.071 31.5713 194.873 32.2494 194.477 32.7692C194.081 33.2891 193.537 33.6677 192.847 33.905C192.157 34.131 191.376 34.244 190.504 34.244H186.413V22.0898ZM190.419 27.277C191.189 27.277 191.811 27.1075 192.287 26.7684C192.773 26.4181 193.017 25.8757 193.017 25.1411C193.017 24.5195 192.802 24.1014 192.372 23.8867C191.942 23.6607 191.33 23.5477 190.538 23.5477H188.009V27.277H190.419ZM190.504 32.8031C191.364 32.8031 192.06 32.6562 192.592 32.3624C193.124 32.0686 193.39 31.5374 193.39 30.769C193.39 30.0005 193.141 29.4694 192.643 29.1755C192.157 28.8704 191.381 28.7179 190.318 28.7179H188.009V32.8031H190.504Z" fill="black" fill-opacity="0.25" style="fill:black;fill-opacity:0.25;"/>
<path d="M174.188 34.4134C172.988 34.4134 171.936 34.1648 171.03 33.6675C170.136 33.1703 169.44 32.4583 168.942 31.5316C168.444 30.5937 168.195 29.4749 168.195 28.1753C168.195 26.2202 168.71 24.6946 169.74 23.5984C170.77 22.4909 172.241 21.9371 174.154 21.9371C174.98 21.9371 175.704 22.0275 176.327 22.2084C176.961 22.3779 177.47 22.5813 177.855 22.8186V24.3442C177.345 24.0165 176.757 23.7735 176.089 23.6153C175.433 23.4571 174.782 23.378 174.137 23.378C172.711 23.378 171.653 23.7792 170.962 24.5816C170.272 25.3839 169.927 26.5818 169.927 28.1753C169.927 29.78 170.3 30.9835 171.047 31.7859C171.794 32.577 172.886 32.9725 174.324 32.9725C174.946 32.9725 175.552 32.8878 176.14 32.7182C176.74 32.5487 177.311 32.2606 177.855 31.8537V33.3794C177.526 33.6393 177.045 33.8766 176.412 34.0913C175.789 34.306 175.048 34.4134 174.188 34.4134Z" fill="black" fill-opacity="0.25" style="fill:black;fill-opacity:0.25;"/>
<path d="M152.283 34.244V22.0898H153.879V26.8023H156.29C157.636 26.8023 158.672 27.0849 159.396 27.6499C160.12 28.215 160.483 29.1303 160.483 30.396C160.483 31.3227 160.296 32.0686 159.922 32.6336C159.549 33.1987 159.028 33.6112 158.361 33.8711C157.693 34.1197 156.923 34.244 156.052 34.244H152.283ZM156.052 32.8031C156.855 32.8031 157.512 32.6336 158.021 32.2946C158.542 31.9556 158.802 31.3453 158.802 30.4638C158.802 29.718 158.581 29.1586 158.14 28.7857C157.699 28.4127 157.065 28.2263 156.239 28.2263H153.879V32.8031H156.052Z" fill="black" fill-opacity="0.25" style="fill:black;fill-opacity:0.25;"/>
<path d="M144.816 34.4134C143.616 34.4134 142.564 34.1648 141.658 33.6675C140.764 33.1703 140.068 32.4583 139.57 31.5316C139.072 30.5937 138.823 29.4749 138.823 28.1753C138.823 26.2202 139.338 24.6946 140.368 23.5984C141.398 22.4909 142.869 21.9371 144.782 21.9371C145.608 21.9371 146.332 22.0275 146.955 22.2084C147.589 22.3779 148.098 22.5813 148.483 22.8186V24.3442C147.973 24.0165 147.385 23.7735 146.717 23.6153C146.061 23.4571 145.41 23.378 144.765 23.378C143.339 23.378 142.281 23.7792 141.59 24.5816C140.9 25.3839 140.555 26.5818 140.555 28.1753C140.555 29.78 140.928 30.9835 141.675 31.7859C142.422 32.577 143.514 32.9725 144.952 32.9725C145.574 32.9725 146.179 32.8878 146.768 32.7182C147.368 32.5487 147.939 32.2606 148.483 31.8537V33.3794C148.154 33.6393 147.673 33.8766 147.04 34.0913C146.417 34.306 145.676 34.4134 144.816 34.4134Z" fill="black" fill-opacity="0.25" style="fill:black;fill-opacity:0.25;"/>
<path d="M128.364 22.0898H135.902V23.5477H129.96V27.2261H135.002V28.667H129.96V32.8031H135.986V34.244H128.364V22.0898Z" fill="black" fill-opacity="0.25" style="fill:black;fill-opacity:0.25;"/>
<path d="M115.96 23.5646V22.0898H125.076V23.5646H121.324V34.244H119.712V23.5646H115.96Z" fill="black" fill-opacity="0.25" style="fill:black;fill-opacity:0.25;"/>
<path d="M107.525 21.4286C106.563 21.4286 105.85 21.1913 105.386 20.7167C104.922 20.2307 104.69 19.6431 104.69 18.9537H106.184C106.184 19.4397 106.303 19.79 106.54 20.0047C106.778 20.2194 107.106 20.3268 107.525 20.3268C107.944 20.3268 108.266 20.2194 108.493 20.0047C108.73 19.79 108.849 19.4397 108.849 18.9537H110.343C110.343 19.6431 110.111 20.2307 109.647 20.7167C109.194 21.1913 108.487 21.4286 107.525 21.4286ZM104.401 34.2439H102.67V22.0898H104.266V32.125L110.954 22.0898H112.686V34.2439H111.056V24.2595L104.401 34.2439Z" fill="black" fill-opacity="0.25" style="fill:black;fill-opacity:0.25;"/>
<path d="M91.5025 32.6506C92.2042 32.7184 92.7531 32.6167 93.1492 32.3455C93.5453 32.0629 93.8735 31.6957 94.1338 31.2436L89.6182 22.0898H91.4346L94.9486 29.4129L97.9873 22.0898H99.634L95.7804 30.9554C95.4636 31.7013 95.1184 32.3285 94.7449 32.8371C94.3714 33.3456 93.9244 33.7185 93.4038 33.9558C92.8945 34.1932 92.2608 34.2892 91.5025 34.244V32.6506Z" fill="black" fill-opacity="0.25" style="fill:black;fill-opacity:0.25;"/>
<path d="M78.0332 23.5646V22.0898H87.1493V23.5646H83.3976V34.244H81.7849V23.5646H78.0332Z" fill="black" fill-opacity="0.25" style="fill:black;fill-opacity:0.25;"/>
<path d="M67.5283 22.0898H75.0657V23.5477H69.1241V27.2261H74.1659V28.667H69.1241V32.8031H75.1505V34.244H67.5283V22.0898Z" fill="black" fill-opacity="0.25" style="fill:black;fill-opacity:0.25;"/>
<path d="M55.2295 22.0898H59.3547C60.6901 22.0898 61.703 22.3159 62.3934 22.7679C63.095 23.2199 63.4459 23.9828 63.4459 25.0563C63.4459 25.9265 63.2252 26.5876 62.7838 27.0397C62.3424 27.4804 61.7539 27.7799 61.0183 27.9381C61.9576 28.0511 62.6706 28.328 63.1573 28.7687C63.6439 29.1981 63.8873 29.8536 63.8873 30.7351C63.8873 31.5713 63.6892 32.2494 63.2931 32.7692C62.897 33.2891 62.3538 33.6677 61.6634 33.905C60.973 34.131 60.1921 34.244 59.3207 34.244H55.2295V22.0898ZM59.2358 27.277C60.0054 27.277 60.6279 27.1075 61.1032 26.7684C61.5898 26.4181 61.8332 25.8757 61.8332 25.1411C61.8332 24.5195 61.6181 24.1014 61.1881 23.8867C60.758 23.6607 60.1469 23.5477 59.3547 23.5477H56.8252V27.277H59.2358ZM59.3207 32.8031C60.1808 32.8031 60.8768 32.6562 61.4088 32.3624C61.9407 32.0686 62.2066 31.5374 62.2066 30.769C62.2066 30.0005 61.9576 29.4694 61.4597 29.1755C60.973 28.8704 60.1978 28.7179 59.134 28.7179H56.8252V32.8031H59.3207Z" fill="black" fill-opacity="0.25" style="fill:black;fill-opacity:0.25;"/>
<path d="M45.9175 34.4134C44.831 34.4134 43.8464 34.1704 42.9637 33.6845C42.0809 33.1985 41.3792 32.4922 40.8586 31.5655C40.3494 30.6276 40.0947 29.4805 40.0947 28.1244C40.0947 26.7683 40.3494 25.6325 40.8586 24.7172C41.3792 23.7905 42.0809 23.0955 42.9637 22.6321C43.8464 22.1688 44.831 21.9371 45.9175 21.9371C47.0266 21.9371 48.0169 22.1745 48.8883 22.6491C49.771 23.1124 50.4671 23.8018 50.9763 24.7172C51.4856 25.6325 51.7403 26.7739 51.7403 28.1414C51.7403 29.4862 51.4856 30.6276 50.9763 31.5655C50.4671 32.4922 49.771 33.1985 48.8883 33.6845C48.0169 34.1704 47.0266 34.4134 45.9175 34.4134ZM45.9175 32.9725C46.6984 32.9725 47.4001 32.8143 48.0225 32.4979C48.645 32.1815 49.1316 31.6729 49.4825 30.9722C49.8446 30.2603 50.0257 29.328 50.0257 28.1753C50.0257 27.0113 49.8446 26.0789 49.4825 25.3783C49.1316 24.6776 48.645 24.1691 48.0225 23.8526C47.4001 23.5362 46.6984 23.378 45.9175 23.378C45.1366 23.378 44.4349 23.5362 43.8125 23.8526C43.2013 24.1691 42.7147 24.6776 42.3525 25.3783C41.9904 26.0789 41.8093 27.0113 41.8093 28.1753C41.8093 29.328 41.9904 30.2603 42.3525 30.9722C42.7147 31.6729 43.2013 32.1815 43.8125 32.4979C44.4349 32.8143 45.1366 32.9725 45.9175 32.9725Z" fill="black" fill-opacity="0.25" style="fill:black;fill-opacity:0.25;"/>
<path d="M33.5882 34.4134C32.3886 34.4134 31.3361 34.1648 30.4307 33.6675C29.5366 33.1703 28.8406 32.4583 28.3426 31.5316C27.8447 30.5937 27.5957 29.4749 27.5957 28.1753C27.5957 26.2202 28.1106 24.6946 29.1405 23.5984C30.1704 22.4909 31.6416 21.9371 33.5543 21.9371C34.3804 21.9371 35.1048 22.0275 35.7272 22.2084C36.361 22.3779 36.8703 22.5813 37.255 22.8186V24.3442C36.7458 24.0165 36.1573 23.7735 35.4895 23.6153C34.8331 23.4571 34.1824 23.378 33.5373 23.378C32.1113 23.378 31.0531 23.7792 30.3628 24.5816C29.6724 25.3839 29.3273 26.5818 29.3273 28.1753C29.3273 29.78 29.7007 30.9835 30.4477 31.7859C31.1946 32.577 32.2867 32.9725 33.724 32.9725C34.3465 32.9725 34.952 32.8878 35.5405 32.7182C36.1403 32.5487 36.7118 32.2606 37.255 31.8537V33.3794C36.9268 33.6393 36.4459 33.8766 35.8121 34.0913C35.1896 34.306 34.4483 34.4134 33.5882 34.4134Z" fill="black" fill-opacity="0.25" style="fill:black;fill-opacity:0.25;"/>
<path d="M18.9976 34.4134C17.9111 34.4134 16.9265 34.1704 16.0437 33.6845C15.161 33.1985 14.4593 32.4922 13.9387 31.5655C13.4294 30.6276 13.1748 29.4805 13.1748 28.1244C13.1748 26.7683 13.4294 25.6325 13.9387 24.7172C14.4593 23.7905 15.161 23.0955 16.0437 22.6321C16.9265 22.1688 17.9111 21.9371 18.9976 21.9371C20.1067 21.9371 21.0969 22.1745 21.9684 22.6491C22.8511 23.1124 23.5471 23.8018 24.0564 24.7172C24.5657 25.6325 24.8203 26.7739 24.8203 28.1414C24.8203 29.4862 24.5657 30.6276 24.0564 31.5655C23.5471 32.4922 22.8511 33.1985 21.9684 33.6845C21.0969 34.1704 20.1067 34.4134 18.9976 34.4134ZM18.9976 32.9725C19.7785 32.9725 20.4801 32.8143 21.1026 32.4979C21.725 32.1815 22.2117 31.6729 22.5625 30.9722C22.9247 30.2603 23.1058 29.328 23.1058 28.1753C23.1058 27.0113 22.9247 26.0789 22.5625 25.3783C22.2117 24.6776 21.725 24.1691 21.1026 23.8526C20.4801 23.5362 19.7785 23.378 18.9976 23.378C18.2167 23.378 17.515 23.5362 16.8925 23.8526C16.2814 24.1691 15.7948 24.6776 15.4326 25.3783C15.0705 26.0789 14.8894 27.0113 14.8894 28.1753C14.8894 29.328 15.0705 30.2603 15.4326 30.9722C15.7948 31.6729 16.2814 32.1815 16.8925 32.4979C17.515 32.8143 18.2167 32.9725 18.9976 32.9725Z" fill="black" fill-opacity="0.25" style="fill:black;fill-opacity:0.25;"/>
<path d="M0.542969 22.0898H9.69303V34.244H8.08031V23.5477H2.13871V34.244H0.542969V22.0898Z" fill="black" fill-opacity="0.25" style="fill:black;fill-opacity:0.25;"/>
<path d="M262.1 12.4084C261.783 12.4084 261.517 12.3067 261.302 12.1033C261.098 11.8886 260.996 11.6343 260.996 11.3405C260.996 11.0241 261.098 10.7642 261.302 10.5607C261.517 10.3573 261.783 10.2556 262.1 10.2556C262.416 10.2556 262.677 10.3573 262.88 10.5607C263.084 10.7642 263.186 11.0241 263.186 11.3405C263.186 11.6343 263.084 11.8886 262.88 12.1033C262.677 12.3067 262.416 12.4084 262.1 12.4084Z" fill="black" fill-opacity="0.25" style="fill:black;fill-opacity:0.25;"/>
<path d="M257.287 0.152588V12.3068H255.675V7.4417H253.468L250.107 12.3068H248.154L251.838 7.15353C250.944 6.96141 250.259 6.58848 249.784 6.03473C249.309 5.48099 249.071 4.72947 249.071 3.78019C249.071 2.92132 249.258 2.22631 249.631 1.69517C250.005 1.16402 250.525 0.77414 251.193 0.525519C251.861 0.276898 252.63 0.152588 253.502 0.152588H257.287ZM253.332 6.00083H255.675V1.61041H253.502C252.698 1.61041 252.036 1.77427 251.516 2.102C251.006 2.41843 250.752 2.97783 250.752 3.78019C250.752 4.53736 250.972 5.09676 251.414 5.45839C251.866 5.82002 252.506 6.00083 253.332 6.00083Z" fill="black" fill-opacity="0.25" style="fill:black;fill-opacity:0.25;"/>
<path d="M236.681 12.3068H234.949V0.152588H236.545V10.1878L243.234 0.152588H244.965V12.3068H243.335V2.32237L236.681 12.3068Z" fill="black" fill-opacity="0.25" style="fill:black;fill-opacity:0.25;"/>
<path d="M221.307 0.152588H222.902V5.56009H229.15V0.152588H230.762V12.3068H229.15V7.00097H222.902V12.3068H221.307V0.152588Z" fill="black" fill-opacity="0.25" style="fill:black;fill-opacity:0.25;"/>
<path d="M218.193 12.3068H216.496L215.24 8.83172H209.858L208.619 12.3068H207.125L211.454 0.152588H213.831L218.193 12.3068ZM210.384 7.39085H214.73L212.557 1.33919L210.384 7.39085Z" fill="black" fill-opacity="0.25" style="fill:black;fill-opacity:0.25;"/>
<path d="M200.083 12.4763C199.178 12.4763 198.391 12.3632 197.723 12.1372C197.067 11.9112 196.586 11.6739 196.28 11.4253V9.89964C197.333 10.6568 198.583 11.0354 200.032 11.0354C200.598 11.0354 201.113 10.9676 201.577 10.832C202.041 10.6964 202.414 10.4703 202.697 10.1539C202.98 9.82618 203.122 9.38544 203.122 8.8317C203.122 8.06323 202.873 7.52644 202.375 7.22131C201.888 6.90488 201.158 6.74667 200.185 6.74667H198.436V5.39055H200.151C201 5.39055 201.645 5.20974 202.086 4.84811C202.527 4.47518 202.748 3.96663 202.748 3.32248C202.748 2.62182 202.516 2.13023 202.052 1.84771C201.588 1.56518 200.977 1.42392 200.219 1.42392C199.449 1.42392 198.747 1.50868 198.114 1.67819C197.491 1.84771 196.942 2.05677 196.467 2.30539V0.796717C196.84 0.604601 197.327 0.423785 197.927 0.254271C198.538 0.084757 199.308 0 200.236 0C201.503 0 202.51 0.259922 203.257 0.779766C204.004 1.29961 204.378 2.11328 204.378 3.22077C204.378 3.93273 204.163 4.52603 203.733 5.00067C203.314 5.46401 202.697 5.78609 201.882 5.9669C202.833 6.09121 203.557 6.38504 204.055 6.84838C204.553 7.31172 204.802 7.96152 204.802 8.79779C204.802 9.65667 204.587 10.3573 204.157 10.8998C203.738 11.4422 203.173 11.8434 202.46 12.1033C201.747 12.3519 200.954 12.4763 200.083 12.4763Z" fill="black" fill-opacity="0.25" style="fill:black;fill-opacity:0.25;"/>
<path d="M193.776 12.3068H192.079L190.823 8.83172H185.441L184.202 12.3068H182.708L187.037 0.152588H189.414L193.776 12.3068ZM185.967 7.39085H190.313L188.14 1.33919L185.967 7.39085Z" fill="black" fill-opacity="0.25" style="fill:black;fill-opacity:0.25;"/>
<path d="M180.678 12.3068H178.691L174.447 7.10268H173.157V12.3068H171.562V0.152588H173.157V5.6618H174.346L178.691 0.152588H180.491L175.687 6.2212L180.678 12.3068Z" fill="black" fill-opacity="0.25" style="fill:black;fill-opacity:0.25;"/>
<path d="M162.249 12.4763C161.162 12.4763 160.177 12.2333 159.295 11.7473C158.412 11.2614 157.71 10.5551 157.19 9.62841C156.68 8.69043 156.426 7.54339 156.426 6.18727C156.426 4.83116 156.68 3.69541 157.19 2.78003C157.71 1.85336 158.412 1.15835 159.295 0.695008C160.177 0.231669 161.162 0 162.249 0C163.358 0 164.348 0.23732 165.219 0.71196C166.102 1.1753 166.798 1.86466 167.307 2.78003C167.817 3.69541 168.071 4.83681 168.071 6.20422C168.071 7.54904 167.817 8.69043 167.307 9.62841C166.798 10.5551 166.102 11.2614 165.219 11.7473C164.348 12.2333 163.358 12.4763 162.249 12.4763ZM162.249 11.0354C163.029 11.0354 163.731 10.8772 164.354 10.5607C164.976 10.2443 165.463 9.73577 165.814 9.03511C166.176 8.32315 166.357 7.39082 166.357 6.23813C166.357 5.07413 166.176 4.1418 165.814 3.44114C165.463 2.74048 164.976 2.23194 164.354 1.91551C163.731 1.59908 163.029 1.44087 162.249 1.44087C161.468 1.44087 160.766 1.59908 160.144 1.91551C159.532 2.23194 159.046 2.74048 158.684 3.44114C158.321 4.1418 158.14 5.07413 158.14 6.23813C158.14 7.39082 158.321 8.32315 158.684 9.03511C159.046 9.73577 159.532 10.2443 160.144 10.5607C160.766 10.8772 161.468 11.0354 162.249 11.0354Z" fill="black" fill-opacity="0.25" style="fill:black;fill-opacity:0.25;"/>
<path d="M143.796 0.152588H152.946V12.3068H151.333V1.61041H145.392V12.3068H143.796V0.152588Z" fill="black" fill-opacity="0.25" style="fill:black;fill-opacity:0.25;"/>
<path d="M134.484 12.4763C133.397 12.4763 132.413 12.2333 131.53 11.7473C130.647 11.2614 129.946 10.5551 129.425 9.62841C128.916 8.69043 128.661 7.54339 128.661 6.18727C128.661 4.83116 128.916 3.69541 129.425 2.78003C129.946 1.85336 130.647 1.15835 131.53 0.695008C132.413 0.231669 133.397 0 134.484 0C135.593 0 136.583 0.23732 137.455 0.71196C138.337 1.1753 139.033 1.86466 139.543 2.78003C140.052 3.69541 140.307 4.83681 140.307 6.20422C140.307 7.54904 140.052 8.69043 139.543 9.62841C139.033 10.5551 138.337 11.2614 137.455 11.7473C136.583 12.2333 135.593 12.4763 134.484 12.4763ZM134.484 11.0354C135.265 11.0354 135.966 10.8772 136.589 10.5607C137.211 10.2443 137.698 9.73577 138.049 9.03511C138.411 8.32315 138.592 7.39082 138.592 6.23813C138.592 5.07413 138.411 4.1418 138.049 3.44114C137.698 2.74048 137.211 2.23194 136.589 1.91551C135.966 1.59908 135.265 1.44087 134.484 1.44087C133.703 1.44087 133.001 1.59908 132.379 1.91551C131.768 2.23194 131.281 2.74048 130.919 3.44114C130.557 4.1418 130.376 5.07413 130.376 6.23813C130.376 7.39082 130.557 8.32315 130.919 9.03511C131.281 9.73577 131.768 10.2443 132.379 10.5607C133.001 10.8772 133.703 11.0354 134.484 11.0354Z" fill="black" fill-opacity="0.25" style="fill:black;fill-opacity:0.25;"/>
<path d="M117.157 0.152588H121.282C122.618 0.152588 123.631 0.378607 124.321 0.830645C125.023 1.28268 125.374 2.0455 125.374 3.11909C125.374 3.98926 125.153 4.65037 124.712 5.10241C124.27 5.54314 123.682 5.84262 122.946 6.00083C123.885 6.11384 124.598 6.39071 125.085 6.83145C125.572 7.26089 125.815 7.91634 125.815 8.79782C125.815 9.63409 125.617 10.3121 125.221 10.832C124.825 11.3518 124.281 11.7304 123.591 11.9677C122.901 12.1938 122.12 12.3068 121.248 12.3068H117.157V0.152588ZM121.164 5.33973C121.933 5.33973 122.556 5.17021 123.031 4.83118C123.518 4.48085 123.761 3.93841 123.761 3.20385C123.761 2.58229 123.546 2.16416 123.116 1.94944C122.686 1.72342 122.075 1.61041 121.282 1.61041H118.753V5.33973H121.164ZM121.248 10.8659C122.109 10.8659 122.805 10.719 123.336 10.4252C123.868 10.1313 124.134 9.60019 124.134 8.83172C124.134 8.06326 123.885 7.53211 123.387 7.23829C122.901 6.93316 122.126 6.7806 121.062 6.7806H118.753V10.8659H121.248Z" fill="black" fill-opacity="0.25" style="fill:black;fill-opacity:0.25;"/>
<path d="M104.683 12.3068H102.951V0.152588H104.547V10.1878L111.235 0.152588H112.967V12.3068H111.337V2.32237L104.683 12.3068Z" fill="black" fill-opacity="0.25" style="fill:black;fill-opacity:0.25;"/>
<path d="M90.5469 1.62736V0.152588H99.663V1.62736H95.9113V12.3068H94.2986V1.62736H90.5469Z" fill="black" fill-opacity="0.25" style="fill:black;fill-opacity:0.25;"/>
<path d="M82.7495 12.4763C81.6631 12.4763 80.6785 12.2333 79.7957 11.7473C78.913 11.2614 78.2113 10.5551 77.6907 9.62841C77.1814 8.69043 76.9268 7.54339 76.9268 6.18727C76.9268 4.83116 77.1814 3.69541 77.6907 2.78003C78.2113 1.85336 78.913 1.15835 79.7957 0.695008C80.6785 0.231669 81.6631 0 82.7495 0C83.8586 0 84.8489 0.23732 85.7203 0.71196C86.6031 1.1753 87.2991 1.86466 87.8084 2.78003C88.3177 3.69541 88.5723 4.83681 88.5723 6.20422C88.5723 7.54904 88.3177 8.69043 87.8084 9.62841C87.2991 10.5551 86.6031 11.2614 85.7203 11.7473C84.8489 12.2333 83.8586 12.4763 82.7495 12.4763ZM82.7495 11.0354C83.5304 11.0354 84.2321 10.8772 84.8546 10.5607C85.477 10.2443 85.9636 9.73577 86.3145 9.03511C86.6766 8.32315 86.8577 7.39082 86.8577 6.23813C86.8577 5.07413 86.6766 4.1418 86.3145 3.44114C85.9636 2.74048 85.477 2.23194 84.8546 1.91551C84.2321 1.59908 83.5304 1.44087 82.7495 1.44087C81.9686 1.44087 81.267 1.59908 80.6445 1.91551C80.0334 2.23194 79.5467 2.74048 79.1846 3.44114C78.8224 4.1418 78.6413 5.07413 78.6413 6.23813C78.6413 7.39082 78.8224 8.32315 79.1846 9.03511C79.5467 9.73577 80.0334 10.2443 80.6445 10.5607C81.267 10.8772 81.9686 11.0354 82.7495 11.0354Z" fill="black" fill-opacity="0.25" style="fill:black;fill-opacity:0.25;"/>
<path d="M65.9199 0.152588H69.8074C71.1881 0.152588 72.2576 0.440762 73.0159 1.01711C73.7855 1.58216 74.1703 2.46928 74.1703 3.67849C74.1703 4.59386 73.9779 5.33973 73.5931 5.91607C73.2196 6.49242 72.6933 6.91621 72.0143 7.18743C71.3466 7.44735 70.5657 7.57731 69.6716 7.57731H67.5157V12.3068H65.9199V0.152588ZM69.6716 6.13644C70.5317 6.13644 71.2277 5.94998 71.7597 5.57705C72.2916 5.20411 72.5575 4.57691 72.5575 3.69544C72.5575 2.96087 72.3199 2.42973 71.8445 2.102C71.3692 1.77427 70.6902 1.61041 69.8074 1.61041H67.5157V6.13644H69.6716Z" fill="black" fill-opacity="0.25" style="fill:black;fill-opacity:0.25;"/>
<path d="M52.5752 0.152588H61.7253V12.3068H60.1125V1.61041H54.1709V12.3068H52.5752V0.152588Z" fill="black" fill-opacity="0.25" style="fill:black;fill-opacity:0.25;"/>
<path d="M35.9502 12.3068V0.152588H37.5459V4.86509H39.9565C41.3033 4.86509 42.3388 5.14761 43.0631 5.71266C43.7874 6.2777 44.1496 7.19308 44.1496 8.45879C44.1496 9.38547 43.9629 10.1313 43.5894 10.6964C43.2159 11.2614 42.6953 11.6739 42.0276 11.9338C41.3599 12.1825 40.5903 12.3068 39.7189 12.3068H35.9502ZM39.7189 10.8659C40.5224 10.8659 41.1788 10.6964 41.6881 10.3573C42.2087 10.0183 42.469 9.40807 42.469 8.52659C42.469 7.78073 42.2483 7.22133 41.8069 6.8484C41.3655 6.47547 40.7318 6.28901 39.9056 6.28901H37.5459V10.8659H39.7189Z" fill="black" fill-opacity="0.25" style="fill:black;fill-opacity:0.25;"/>
<path d="M23.5469 1.62736V0.152588H32.663V1.62736H28.9113V12.3068H27.2986V1.62736H23.5469Z" fill="black" fill-opacity="0.25" style="fill:black;fill-opacity:0.25;"/>
<path d="M16.9955 12.4763C15.7958 12.4763 14.7433 12.2276 13.8379 11.7304C12.9439 11.2331 12.2478 10.5212 11.7499 9.59451C11.2519 8.65653 11.0029 7.53774 11.0029 6.23813C11.0029 4.28306 11.5179 2.75743 12.5477 1.66124C13.5776 0.553746 15.0489 0 16.9615 0C17.7877 0 18.512 0.0904073 19.1344 0.271222C19.7682 0.440736 20.2775 0.644154 20.6623 0.881474V2.4071C20.153 2.07937 19.5645 1.8364 18.8968 1.67819C18.2404 1.51998 17.5896 1.44087 16.9445 1.44087C15.5185 1.44087 14.4604 1.84205 13.77 2.64442C13.0797 3.44679 12.7345 4.64469 12.7345 6.23813C12.7345 7.84286 13.108 9.04641 13.8549 9.84878C14.6018 10.6398 15.694 11.0354 17.1313 11.0354C17.7537 11.0354 18.3592 10.9506 18.9477 10.7811C19.5475 10.6116 20.119 10.3234 20.6623 9.91659V11.4422C20.3341 11.7021 19.8531 11.9395 19.2193 12.1542C18.5969 12.3689 17.8556 12.4763 16.9955 12.4763Z" fill="black" fill-opacity="0.25" style="fill:black;fill-opacity:0.25;"/>
<path d="M0.542969 0.152588H8.08031V1.61041H2.13871V5.28887H7.18058V6.72974H2.13871V10.8659H8.16519V12.3068H0.542969V0.152588Z" fill="black" fill-opacity="0.25" style="fill:black;fill-opacity:0.25;"/>
</svg>
