<svg width="571" height="81" viewBox="0 0 571 81" fill="none" xmlns="http://www.w3.org/2000/svg">
<path d="M567.521 76.7517C567.037 76.7517 566.63 76.5962 566.301 76.2854C565.989 75.9572 565.833 75.5686 565.833 75.1196C565.833 74.636 565.989 74.2388 566.301 73.928C566.63 73.6171 567.037 73.4617 567.521 73.4617C568.006 73.4617 568.405 73.6171 568.716 73.928C569.028 74.2388 569.184 74.636 569.184 75.1196C569.184 75.5686 569.028 75.9572 568.716 76.2854C568.405 76.5962 568.006 76.7517 567.521 76.7517Z" fill="black" fill-opacity="0.25" style="fill:black;fill-opacity:0.25;"/>
<path d="M544.828 58.022H556.362V60.2498H547.27V65.8713H554.985V68.0733H547.27V74.3942H556.492V76.5961H544.828V58.022Z" fill="black" fill-opacity="0.25" style="fill:black;fill-opacity:0.25;"/>
<path d="M521.583 76.5961H518.934V58.022H521.375V73.358L531.61 58.022H534.26V76.5961H531.766V61.3379L521.583 76.5961Z" fill="black" fill-opacity="0.25" style="fill:black;fill-opacity:0.25;"/>
<path d="M493.303 81H491.095V74.3942H492.368C493.164 73.6688 493.753 72.6153 494.134 71.2337C494.515 69.8521 494.775 68.0819 494.913 65.9231C495.052 63.7471 495.156 61.1133 495.225 58.022H507.096V74.3942H509.486V81H507.226L506.966 76.5961H493.588L493.303 81ZM495.199 74.3942H504.628V60.2498H497.511C497.459 62.8749 497.346 65.1028 497.173 66.9334C497.017 68.7641 496.775 70.2838 496.446 71.4928C496.134 72.6844 495.719 73.6515 495.199 74.3942Z" fill="black" fill-opacity="0.25" style="fill:black;fill-opacity:0.25;"/>
<path d="M475.268 76.8552C473.606 76.8552 472.099 76.4839 470.748 75.7412C469.398 74.9986 468.324 73.9192 467.527 72.5031C466.748 71.0696 466.358 69.3167 466.358 67.2443C466.358 65.1718 466.748 63.4362 467.527 62.0373C468.324 60.6211 469.398 59.559 470.748 58.8509C472.099 58.1429 473.606 57.7888 475.268 57.7888C476.965 57.7888 478.481 58.1515 479.814 58.8768C481.165 59.5849 482.23 60.6384 483.009 62.0373C483.789 63.4362 484.178 65.1805 484.178 67.2702C484.178 69.3253 483.789 71.0696 483.009 72.5031C482.23 73.9192 481.165 74.9986 479.814 75.7412C478.481 76.4839 476.965 76.8552 475.268 76.8552ZM475.268 74.6532C476.463 74.6532 477.537 74.4114 478.489 73.9279C479.442 73.4443 480.187 72.6671 480.723 71.5964C481.278 70.5084 481.555 69.0836 481.555 67.322C481.555 65.5432 481.278 64.1184 480.723 63.0476C480.187 61.9769 479.442 61.1997 478.489 60.7161C477.537 60.2326 476.463 59.9908 475.268 59.9908C474.073 59.9908 473 60.2326 472.047 60.7161C471.112 61.1997 470.367 61.9769 469.813 63.0476C469.259 64.1184 468.982 65.5432 468.982 67.322C468.982 69.0836 469.259 70.5084 469.813 71.5964C470.367 72.6671 471.112 73.4443 472.047 73.9279C473 74.4114 474.073 74.6532 475.268 74.6532Z" fill="black" fill-opacity="0.25" style="fill:black;fill-opacity:0.25;"/>
<path d="M441.896 74.2387C442.745 74.3251 443.368 74.0574 443.767 73.4357C444.182 72.8139 444.494 71.9936 444.702 70.9747C444.962 69.6794 445.135 67.9524 445.221 65.7936C445.308 63.6348 445.369 61.0443 445.403 58.022H456.885V76.5961H454.417V60.2498H447.715C447.663 62.754 447.594 64.9387 447.507 66.8039C447.421 68.6518 447.256 70.2148 447.014 71.4928C446.806 72.4599 446.512 73.3493 446.131 74.161C445.75 74.9727 445.221 75.6117 444.546 76.078C443.871 76.5443 442.987 76.7516 441.896 76.6997V74.2387Z" fill="black" fill-opacity="0.25" style="fill:black;fill-opacity:0.25;"/>
<path d="M418.983 58.022H432.985V76.5961H430.517V60.2498H421.425V76.5961H418.983V58.022Z" fill="black" fill-opacity="0.25" style="fill:black;fill-opacity:0.25;"/>
<path d="M403.4 76.8552C401.564 76.8552 399.954 76.4752 398.569 75.7153C397.2 74.9554 396.135 73.8674 395.373 72.4513C394.611 71.0178 394.23 69.3081 394.23 67.322C394.23 64.3342 395.018 62.0028 396.594 60.3275C398.17 58.6351 400.422 57.7888 403.348 57.7888C404.612 57.7888 405.721 57.927 406.673 58.2033C407.643 58.4624 408.422 58.7732 409.011 59.1359V61.4674C408.232 60.9665 407.331 60.5952 406.31 60.3534C405.305 60.1117 404.309 59.9908 403.322 59.9908C401.14 59.9908 399.521 60.6039 398.465 61.8301C397.408 63.0562 396.88 64.8869 396.88 67.322C396.88 69.7744 397.452 71.6137 398.594 72.8398C399.737 74.0488 401.409 74.6532 403.608 74.6532C404.56 74.6532 405.487 74.5237 406.387 74.2646C407.305 74.0056 408.18 73.5652 409.011 72.9435V75.2749C408.509 75.6722 407.773 76.0348 406.803 76.363C405.851 76.6911 404.716 76.8552 403.4 76.8552Z" fill="black" fill-opacity="0.25" style="fill:black;fill-opacity:0.25;"/>
<path d="M374.069 58.022H385.603V60.2498H376.511V65.8713H384.226V68.0733H376.511V74.3942H385.733V76.5961H374.069V58.022Z" fill="black" fill-opacity="0.25" style="fill:black;fill-opacity:0.25;"/>
<path d="M351.702 76.5961V58.022H363.054V60.2498H354.144V65.4827H357.833C359.893 65.4827 361.478 65.9058 362.586 66.7521C363.695 67.5983 364.249 68.9627 364.249 70.8451C364.249 72.2267 363.963 73.3407 363.392 74.1869C362.82 75.0332 362.023 75.6463 361.002 76.0262C359.98 76.4062 358.802 76.5961 357.469 76.5961H351.702ZM357.469 74.3942C358.698 74.3942 359.703 74.1438 360.482 73.6429C361.279 73.1421 361.677 72.244 361.677 70.9488C361.677 69.8435 361.339 69.0231 360.664 68.4877C359.989 67.9524 359.019 67.6847 357.755 67.6847H354.144V74.3942H357.469Z" fill="black" fill-opacity="0.25" style="fill:black;fill-opacity:0.25;"/>
<path d="M317.022 76.5961H314.372V58.022H316.814V73.358L327.049 58.022H329.698V76.5961H327.204V61.3379L317.022 76.5961Z" fill="black" fill-opacity="0.25" style="fill:black;fill-opacity:0.25;"/>
<path d="M285.047 76.8552C283.558 76.8552 282.207 76.5443 280.995 75.9226C279.783 75.2836 278.796 74.3423 278.034 73.0989C277.272 71.8554 276.822 70.3184 276.683 68.4877H273.955V76.5961H271.514V58.022H273.955V66.2858H276.709C276.83 64.4551 277.272 62.9094 278.034 61.6487C278.796 60.388 279.783 59.4295 280.995 58.7732C282.207 58.117 283.558 57.7888 285.047 57.7888C286.623 57.7888 288.043 58.1429 289.308 58.8509C290.572 59.559 291.576 60.6211 292.321 62.0373C293.066 63.4362 293.438 65.1718 293.438 67.2443C293.438 69.3167 293.066 71.0696 292.321 72.5031C291.576 73.9192 290.572 74.9986 289.308 75.7412C288.043 76.4839 286.623 76.8552 285.047 76.8552ZM285.047 74.6532C286.156 74.6532 287.143 74.4114 288.009 73.9279C288.875 73.4443 289.559 72.6671 290.061 71.5964C290.563 70.5084 290.814 69.0836 290.814 67.322C290.814 65.5432 290.563 64.1184 290.061 63.0476C289.559 61.9769 288.875 61.1997 288.009 60.7161C287.143 60.2326 286.156 59.9908 285.047 59.9908C283.956 59.9908 282.978 60.2326 282.112 60.7161C281.246 61.1997 280.562 61.9769 280.06 63.0476C279.558 64.1184 279.307 65.5432 279.307 67.322C279.307 69.0836 279.558 70.5084 280.06 71.5964C280.562 72.6671 281.246 73.4443 282.112 73.9279C282.978 74.4114 283.956 74.6532 285.047 74.6532Z" fill="black" fill-opacity="0.25" style="fill:black;fill-opacity:0.25;"/>
<path d="M249.196 76.5961V58.022H251.638V65.2237H255.327C257.388 65.2237 258.972 65.6554 260.08 66.5189C261.189 67.3824 261.743 68.7813 261.743 70.7156C261.743 72.1318 261.457 73.2716 260.886 74.1351C260.314 74.9986 259.518 75.629 258.496 76.0262C257.474 76.4062 256.297 76.5961 254.963 76.5961H249.196ZM254.963 74.3942C256.193 74.3942 257.197 74.1351 257.976 73.617C258.773 73.0989 259.171 72.1663 259.171 70.8192C259.171 69.6794 258.834 68.8245 258.158 68.2546C257.483 67.6847 256.513 67.3997 255.249 67.3997H251.638V74.3942H254.963Z" fill="black" fill-opacity="0.25" style="fill:black;fill-opacity:0.25;"/>
<path d="M226.219 58.022H232.531C234.575 58.022 236.124 58.3674 237.181 59.0582C238.255 59.749 238.791 60.9147 238.791 62.5554C238.791 63.8852 238.454 64.8955 237.778 65.5863C237.103 66.2599 236.202 66.7175 235.077 66.9593C236.514 67.132 237.605 67.5551 238.35 68.2287C239.094 68.885 239.467 69.8866 239.467 71.2337C239.467 72.5117 239.164 73.5479 238.558 74.3424C237.951 75.1368 237.12 75.7153 236.064 76.078C235.007 76.4234 233.813 76.5961 232.479 76.5961H226.219V58.022ZM232.349 65.949C233.527 65.949 234.479 65.69 235.207 65.1719C235.951 64.6365 236.324 63.8075 236.324 62.6849C236.324 61.7351 235.995 61.0961 235.336 60.7679C234.678 60.4225 233.743 60.2498 232.531 60.2498H228.661V65.949H232.349ZM232.479 74.3942C233.795 74.3942 234.86 74.1697 235.674 73.7206C236.488 73.2716 236.895 72.4599 236.895 71.2855C236.895 70.1111 236.514 69.2994 235.752 68.8504C235.007 68.3841 233.821 68.151 232.193 68.151H228.661V74.3942H232.479Z" fill="black" fill-opacity="0.25" style="fill:black;fill-opacity:0.25;"/>
<path d="M207.814 76.8552C206.152 76.8552 204.645 76.4839 203.294 75.7412C201.944 74.9986 200.87 73.9192 200.073 72.5031C199.294 71.0696 198.904 69.3167 198.904 67.2443C198.904 65.1718 199.294 63.4362 200.073 62.0373C200.87 60.6211 201.944 59.559 203.294 58.8509C204.645 58.1429 206.152 57.7888 207.814 57.7888C209.511 57.7888 211.027 58.1515 212.36 58.8768C213.711 59.5849 214.776 60.6384 215.555 62.0373C216.335 63.4362 216.724 65.1805 216.724 67.2702C216.724 69.3253 216.335 71.0696 215.555 72.5031C214.776 73.9192 213.711 74.9986 212.36 75.7412C211.027 76.4839 209.511 76.8552 207.814 76.8552ZM207.814 74.6532C209.009 74.6532 210.083 74.4114 211.035 73.9279C211.988 73.4443 212.732 72.6671 213.269 71.5964C213.823 70.5084 214.101 69.0836 214.101 67.322C214.101 65.5432 213.823 64.1184 213.269 63.0476C212.732 61.9769 211.988 61.1997 211.035 60.7161C210.083 60.2326 209.009 59.9908 207.814 59.9908C206.619 59.9908 205.546 60.2326 204.593 60.7161C203.658 61.1997 202.913 61.9769 202.359 63.0476C201.805 64.1184 201.528 65.5432 201.528 67.322C201.528 69.0836 201.805 70.5084 202.359 71.5964C202.913 72.6671 203.658 73.4443 204.593 73.9279C205.546 74.4114 206.619 74.6532 207.814 74.6532Z" fill="black" fill-opacity="0.25" style="fill:black;fill-opacity:0.25;"/>
<path d="M177.905 58.022H183.854C185.967 58.022 187.603 58.4624 188.763 59.3431C189.941 60.2067 190.53 61.5624 190.53 63.4103C190.53 64.8092 190.235 65.949 189.647 66.8298C189.075 67.7106 188.27 68.3582 187.231 68.7727C186.209 69.1699 185.014 69.3685 183.646 69.3685H180.347V76.5961H177.905V58.022ZM183.646 67.1666C184.962 67.1666 186.027 66.8816 186.841 66.3117C187.655 65.7418 188.062 64.7833 188.062 63.4362C188.062 62.3136 187.698 61.5019 186.971 61.0011C186.244 60.5003 185.205 60.2498 183.854 60.2498H180.347V67.1666H183.646Z" fill="black" fill-opacity="0.25" style="fill:black;fill-opacity:0.25;"/>
<path d="M159.501 76.8552C157.838 76.8552 156.332 76.4839 154.981 75.7412C153.63 74.9986 152.556 73.9192 151.76 72.5031C150.98 71.0696 150.591 69.3167 150.591 67.2443C150.591 65.1718 150.98 63.4362 151.76 62.0373C152.556 60.6211 153.63 59.559 154.981 58.8509C156.332 58.1429 157.838 57.7888 159.501 57.7888C161.198 57.7888 162.713 58.1515 164.047 58.8768C165.397 59.5849 166.462 60.6384 167.242 62.0373C168.021 63.4362 168.411 65.1805 168.411 67.2702C168.411 69.3253 168.021 71.0696 167.242 72.5031C166.462 73.9192 165.397 74.9986 164.047 75.7412C162.713 76.4839 161.198 76.8552 159.501 76.8552ZM159.501 74.6532C160.696 74.6532 161.769 74.4114 162.722 73.9279C163.674 73.4443 164.419 72.6671 164.956 71.5964C165.51 70.5084 165.787 69.0836 165.787 67.322C165.787 65.5432 165.51 64.1184 164.956 63.0476C164.419 61.9769 163.674 61.1997 162.722 60.7161C161.769 60.2326 160.696 59.9908 159.501 59.9908C158.306 59.9908 157.232 60.2326 156.28 60.7161C155.345 61.1997 154.6 61.9769 154.046 63.0476C153.492 64.1184 153.214 65.5432 153.214 67.322C153.214 69.0836 153.492 70.5084 154.046 71.5964C154.6 72.6671 155.345 73.4443 156.28 73.9279C157.232 74.4114 158.306 74.6532 159.501 74.6532Z" fill="black" fill-opacity="0.25" style="fill:black;fill-opacity:0.25;"/>
<path d="M126.559 81H124.351V74.3942H125.623C126.42 73.6688 127.009 72.6153 127.39 71.2337C127.771 69.8521 128.031 68.0819 128.169 65.9231C128.308 63.7471 128.412 61.1133 128.481 58.022H140.352V74.3942H142.742V81H140.482L140.222 76.5961H126.844L126.559 81ZM128.455 74.3942H137.884V60.2498H130.767C130.715 62.8749 130.602 65.1028 130.429 66.9334C130.273 68.7641 130.031 70.2838 129.702 71.4928C129.39 72.6844 128.974 73.6515 128.455 74.3942Z" fill="black" fill-opacity="0.25" style="fill:black;fill-opacity:0.25;"/>
<path d="M109.294 76.8552C107.909 76.8552 106.705 76.6825 105.684 76.3371C104.679 75.9917 103.943 75.629 103.476 75.249V72.9176C105.086 74.0747 107 74.6532 109.216 74.6532C110.082 74.6532 110.87 74.5496 111.58 74.3423C112.29 74.1351 112.862 73.7897 113.295 73.3061C113.728 72.8053 113.944 72.1318 113.944 71.2855C113.944 70.1111 113.563 69.2908 112.801 68.8245C112.056 68.3409 110.939 68.0992 109.45 68.0992H106.775V66.0267H109.398C110.697 66.0267 111.684 65.7504 112.36 65.1978C113.035 64.6278 113.373 63.8507 113.373 62.8663C113.373 61.7955 113.018 61.0443 112.308 60.6125C111.598 60.1807 110.662 59.9649 109.502 59.9649C108.325 59.9649 107.251 60.0944 106.281 60.3534C105.329 60.6125 104.489 60.932 103.761 61.3119V59.0064C104.333 58.7128 105.077 58.4365 105.995 58.1774C106.93 57.9183 108.108 57.7888 109.528 57.7888C111.468 57.7888 113.009 58.186 114.152 58.9805C115.295 59.7749 115.866 61.0184 115.866 62.7108C115.866 63.7989 115.537 64.7056 114.879 65.4309C114.239 66.139 113.295 66.6312 112.048 66.9075C113.503 67.0975 114.611 67.5465 115.373 68.2546C116.135 68.9627 116.516 69.9557 116.516 71.2337C116.516 72.5462 116.187 73.617 115.529 74.446C114.888 75.2749 114.022 75.888 112.931 76.2853C111.84 76.6652 110.628 76.8552 109.294 76.8552Z" fill="black" fill-opacity="0.25" style="fill:black;fill-opacity:0.25;"/>
<path d="M67.2422 81H65.0342V74.3942H66.307C67.1036 73.6688 67.6924 72.6153 68.0734 71.2337C68.4544 69.8521 68.7142 68.0819 68.8527 65.9231C68.9913 63.7471 69.0952 61.1133 69.1644 58.022H81.0357V74.3942H83.4255V81H81.1656L80.9058 76.5961H67.5279L67.2422 81ZM69.1385 74.3942H78.5679V60.2498H71.4504C71.3984 62.8749 71.2859 65.1028 71.1127 66.9334C70.9568 68.7641 70.7144 70.2838 70.3853 71.4928C70.0736 72.6844 69.658 73.6515 69.1385 74.3942Z" fill="black" fill-opacity="0.25" style="fill:black;fill-opacity:0.25;"/>
<path d="M45.0664 58.022H56.6V60.2498H47.5082V65.8713H55.2232V68.0733H47.5082V74.3942H56.7298V76.5961H45.0664V58.022Z" fill="black" fill-opacity="0.25" style="fill:black;fill-opacity:0.25;"/>
<path d="M22.9775 58.022H28.9262C31.0389 58.022 32.6754 58.4624 33.8357 59.3431C35.0133 60.2067 35.6021 61.5624 35.6021 63.4103C35.6021 64.8092 35.3077 65.949 34.7189 66.8298C34.1474 67.7106 33.3422 68.3582 32.3031 68.7727C31.2814 69.1699 30.0864 69.3685 28.7183 69.3685H25.4193V76.5961H22.9775V58.022ZM28.7183 67.1666C30.0345 67.1666 31.0995 66.8816 31.9134 66.3117C32.7274 65.7418 33.1343 64.7833 33.1343 63.4362C33.1343 62.3136 32.7707 61.5019 32.0433 61.0011C31.316 60.5003 30.2769 60.2498 28.9262 60.2498H25.4193V67.1666H28.7183Z" fill="black" fill-opacity="0.25" style="fill:black;fill-opacity:0.25;"/>
<path d="M0 58.022H6.31228C8.35577 58.022 9.9057 58.3674 10.9621 59.0582C12.0358 59.749 12.5726 60.9147 12.5726 62.5554C12.5726 63.8852 12.2349 64.8955 11.5595 65.5863C10.8841 66.2599 9.98363 66.7175 8.85798 66.9593C10.2953 67.132 11.3864 67.5551 12.131 68.2287C12.8757 68.885 13.248 69.8866 13.248 71.2337C13.248 72.5117 12.9449 73.5479 12.3388 74.3424C11.7327 75.1368 10.9015 75.7153 9.84509 76.078C8.78871 76.4234 7.59379 76.5961 6.26033 76.5961H0V58.022ZM6.13045 65.949C7.30805 65.949 8.26052 65.69 8.98786 65.1719C9.73252 64.6365 10.1048 63.8075 10.1048 62.6849C10.1048 61.7351 9.77581 61.0961 9.11774 60.7679C8.45967 60.4225 7.52452 60.2498 6.31228 60.2498H2.44179V65.949H6.13045ZM6.26033 74.3942C7.57647 74.3942 8.64151 74.1697 9.45544 73.7206C10.2694 73.2716 10.6763 72.4599 10.6763 71.2855C10.6763 70.1111 10.2953 69.2994 9.53337 68.8504C8.78871 68.3841 7.60245 68.151 5.97459 68.151H2.44179V74.3942H6.26033Z" fill="black" fill-opacity="0.25" style="fill:black;fill-opacity:0.25;"/>
<path d="M552.168 29.1276H554.61V37.3914H564.169V29.1276H566.637V47.7017H564.169V39.5933H554.61V47.7017H552.168V29.1276Z" fill="black" fill-opacity="0.25" style="fill:black;fill-opacity:0.25;"/>
<path d="M535.111 29.1276H546.645V31.3554H537.553V36.9769H545.268V39.1788H537.553V45.4998H546.775V47.7017H535.111V29.1276Z" fill="black" fill-opacity="0.25" style="fill:black;fill-opacity:0.25;"/>
<path d="M507.181 47.7017L514.74 38.2463L507.518 29.1276H510.168L516.662 37.495H517.701V29.1276H520.169V37.495H521.26L527.754 29.1276H530.43L523.156 38.2981L530.767 47.7017H527.78L521.234 39.5415H520.169V47.7017H517.701V39.5415H516.584L510.09 47.7017H507.181Z" fill="black" fill-opacity="0.25" style="fill:black;fill-opacity:0.25;"/>
<path d="M496.333 47.9608C494.67 47.9608 493.164 47.5894 491.813 46.8468C490.462 46.1042 489.388 45.0248 488.592 43.6087C487.812 42.1752 487.423 40.4223 487.423 38.3499C487.423 36.2774 487.812 34.5418 488.592 33.1429C489.388 31.7267 490.462 30.6646 491.813 29.9565C493.164 29.2484 494.67 28.8944 496.333 28.8944C498.03 28.8944 499.545 29.2571 500.879 29.9824C502.229 30.6905 503.294 31.744 504.074 33.1429C504.853 34.5418 505.243 36.2861 505.243 38.3758C505.243 40.4309 504.853 42.1752 504.074 43.6087C503.294 45.0248 502.229 46.1042 500.879 46.8468C499.545 47.5894 498.03 47.9608 496.333 47.9608ZM496.333 45.7588C497.528 45.7588 498.601 45.517 499.554 45.0335C500.506 44.5499 501.251 43.7727 501.788 42.702C502.342 41.6139 502.619 40.1892 502.619 38.4276C502.619 36.6488 502.342 35.224 501.788 34.1532C501.251 33.0824 500.506 32.3053 499.554 31.8217C498.601 31.3381 497.528 31.0964 496.333 31.0964C495.138 31.0964 494.064 31.3381 493.112 31.8217C492.177 32.3053 491.432 33.0824 490.878 34.1532C490.324 35.224 490.046 36.6488 490.046 38.4276C490.046 40.1892 490.324 41.6139 490.878 42.702C491.432 43.7727 492.177 44.5499 493.112 45.0335C494.064 45.517 495.138 45.7588 496.333 45.7588Z" fill="black" fill-opacity="0.25" style="fill:black;fill-opacity:0.25;"/>
<path d="M473.214 44.878H472.149H472.123L472.149 44.8521L466.512 32.5471V47.7017H464.2V29.1276H467.603L473.396 42.158L479.448 29.1276H482.618V47.7017H480.15V32.7543L474.435 44.8521L473.214 44.878Z" fill="black" fill-opacity="0.25" style="fill:black;fill-opacity:0.25;"/>
<path d="M451.901 47.9608C450.515 47.9608 449.312 47.7881 448.29 47.4427C447.286 47.0973 446.55 46.7346 446.082 46.3546V44.0231C447.693 45.1803 449.606 45.7588 451.823 45.7588C452.689 45.7588 453.477 45.6552 454.187 45.4479C454.897 45.2407 455.468 44.8953 455.901 44.4117C456.334 43.9109 456.551 43.2373 456.551 42.3911C456.551 41.2167 456.17 40.3964 455.408 39.9301C454.663 39.4465 453.546 39.2047 452.057 39.2047H449.381V37.1323H452.005C453.304 37.1323 454.291 36.856 454.966 36.3033C455.641 35.7334 455.979 34.9563 455.979 33.9719C455.979 32.9011 455.624 32.1499 454.914 31.7181C454.204 31.2863 453.269 31.0705 452.109 31.0705C450.931 31.0705 449.857 31.2 448.888 31.459C447.935 31.7181 447.095 32.0376 446.368 32.4175V30.112C446.939 29.8184 447.684 29.542 448.602 29.283C449.537 29.0239 450.715 28.8944 452.135 28.8944C454.074 28.8944 455.615 29.2916 456.758 30.0861C457.901 30.8805 458.473 32.1239 458.473 33.8164C458.473 34.9045 458.144 35.8111 457.486 36.5365C456.845 37.2446 455.901 37.7368 454.654 38.0131C456.109 38.2031 457.217 38.6521 457.979 39.3602C458.741 40.0683 459.122 41.0613 459.122 42.3393C459.122 43.6518 458.793 44.7226 458.135 45.5516C457.494 46.3805 456.629 46.9936 455.537 47.3908C454.446 47.7708 453.234 47.9608 451.901 47.9608Z" fill="black" fill-opacity="0.25" style="fill:black;fill-opacity:0.25;"/>
<path d="M433.691 47.9608C432.029 47.9608 430.522 47.5894 429.171 46.8468C427.82 46.1042 426.747 45.0248 425.95 43.6087C425.171 42.1752 424.781 40.4223 424.781 38.3499C424.781 36.2774 425.171 34.5418 425.95 33.1429C426.747 31.7267 427.82 30.6646 429.171 29.9565C430.522 29.2484 432.029 28.8944 433.691 28.8944C435.388 28.8944 436.904 29.2571 438.237 29.9824C439.588 30.6905 440.653 31.744 441.432 33.1429C442.211 34.5418 442.601 36.2861 442.601 38.3758C442.601 40.4309 442.211 42.1752 441.432 43.6087C440.653 45.0248 439.588 46.1042 438.237 46.8468C436.904 47.5894 435.388 47.9608 433.691 47.9608ZM433.691 45.7588C434.886 45.7588 435.96 45.517 436.912 45.0335C437.865 44.5499 438.609 43.7727 439.146 42.702C439.7 41.6139 439.977 40.1892 439.977 38.4276C439.977 36.6488 439.7 35.224 439.146 34.1532C438.609 33.0824 437.865 32.3053 436.912 31.8217C435.96 31.3381 434.886 31.0964 433.691 31.0964C432.496 31.0964 431.423 31.3381 430.47 31.8217C429.535 32.3053 428.79 33.0824 428.236 34.1532C427.682 35.224 427.405 36.6488 427.405 38.4276C427.405 40.1892 427.682 41.6139 428.236 42.702C428.79 43.7727 429.535 44.5499 430.47 45.0335C431.423 45.517 432.496 45.7588 433.691 45.7588Z" fill="black" fill-opacity="0.25" style="fill:black;fill-opacity:0.25;"/>
<path d="M407.698 29.1276H414.011C416.054 29.1276 417.604 29.473 418.66 30.1638C419.734 30.8546 420.271 32.0203 420.271 33.661C420.271 34.9908 419.933 36.0011 419.258 36.6919C418.582 37.3655 417.682 37.8231 416.556 38.0649C417.994 38.2376 419.085 38.6607 419.829 39.3343C420.574 39.9905 420.946 40.9922 420.946 42.3393C420.946 43.6173 420.643 44.6535 420.037 45.4479C419.431 46.2424 418.6 46.8209 417.543 47.1836C416.487 47.529 415.292 47.7017 413.959 47.7017H407.698V29.1276ZM413.829 37.0546C415.006 37.0546 415.959 36.7956 416.686 36.2774C417.431 35.7421 417.803 34.9131 417.803 33.7905C417.803 32.8407 417.474 32.2017 416.816 31.8735C416.158 31.5281 415.223 31.3554 414.011 31.3554H410.14V37.0546H413.829ZM413.959 45.4998C415.275 45.4998 416.34 45.2752 417.154 44.8262C417.968 44.3772 418.375 43.5655 418.375 42.3911C418.375 41.2167 417.994 40.405 417.232 39.956C416.487 39.4897 415.301 39.2566 413.673 39.2566H410.14V45.4998H413.959Z" fill="black" fill-opacity="0.25" style="fill:black;fill-opacity:0.25;"/>
<path d="M394.101 47.8571C393.616 47.8571 393.209 47.7017 392.88 47.3908C392.568 47.0627 392.412 46.6741 392.412 46.2251C392.412 45.7415 392.568 45.3443 392.88 45.0334C393.209 44.7226 393.616 44.5671 394.101 44.5671C394.585 44.5671 394.984 44.7226 395.296 45.0334C395.607 45.3443 395.763 45.7415 395.763 46.2251C395.763 46.6741 395.607 47.0627 395.296 47.3908C394.984 47.7017 394.585 47.8571 394.101 47.8571Z" fill="black" fill-opacity="0.25" style="fill:black;fill-opacity:0.25;"/>
<path d="M377.866 44.878H376.801H376.775L376.801 44.8521L371.164 32.5471V47.7017H368.853V29.1276H372.255L378.048 42.158L384.101 29.1276H387.27V47.7017H384.802V32.7543L379.087 44.8521L377.866 44.878Z" fill="black" fill-opacity="0.25" style="fill:black;fill-opacity:0.25;"/>
<path d="M355.123 47.9608C353.46 47.9608 351.954 47.5894 350.603 46.8468C349.252 46.1042 348.178 45.0248 347.382 43.6087C346.603 42.1752 346.213 40.4223 346.213 38.3499C346.213 36.2774 346.603 34.5418 347.382 33.1429C348.178 31.7267 349.252 30.6646 350.603 29.9565C351.954 29.2484 353.46 28.8944 355.123 28.8944C356.82 28.8944 358.335 29.2571 359.669 29.9824C361.019 30.6905 362.085 31.744 362.864 33.1429C363.643 34.5418 364.033 36.2861 364.033 38.3758C364.033 40.4309 363.643 42.1752 362.864 43.6087C362.085 45.0248 361.019 46.1042 359.669 46.8468C358.335 47.5894 356.82 47.9608 355.123 47.9608ZM355.123 45.7588C356.318 45.7588 357.391 45.517 358.344 45.0335C359.296 44.5499 360.041 43.7727 360.578 42.702C361.132 41.6139 361.409 40.1892 361.409 38.4276C361.409 36.6488 361.132 35.224 360.578 34.1532C360.041 33.0824 359.296 32.3053 358.344 31.8217C357.391 31.3381 356.318 31.0964 355.123 31.0964C353.928 31.0964 352.854 31.3381 351.902 31.8217C350.967 32.3053 350.222 33.0824 349.668 34.1532C349.114 35.224 348.836 36.6488 348.836 38.4276C348.836 40.1892 349.114 41.6139 349.668 42.702C350.222 43.7727 350.967 44.5499 351.902 45.0335C352.854 45.517 353.928 45.7588 355.123 45.7588Z" fill="black" fill-opacity="0.25" style="fill:black;fill-opacity:0.25;"/>
<path d="M327.624 34.3086V29.1276H330.092V34.3086C330.092 35.7593 330.447 36.8733 331.157 37.6504C331.884 38.4276 332.949 38.8162 334.352 38.8162C335.2 38.8162 336.014 38.7212 336.794 38.5312C337.573 38.324 338.292 37.9872 338.95 37.5209V29.1276H341.418V47.7017H338.95V39.5933C338.24 40.0424 337.495 40.3705 336.716 40.5777C335.954 40.785 335.157 40.8886 334.326 40.8886C332.196 40.8886 330.542 40.3532 329.364 39.2825C328.204 38.2117 327.624 36.5538 327.624 34.3086Z" fill="black" fill-opacity="0.25" style="fill:black;fill-opacity:0.25;"/>
<path d="M325.544 47.7017H322.946L321.024 42.3911H312.79L310.893 47.7017H308.607L315.231 29.1276H318.868L325.544 47.7017ZM313.595 40.1892H320.245L316.92 30.9409L313.595 40.1892Z" fill="black" fill-opacity="0.25" style="fill:black;fill-opacity:0.25;"/>
<path d="M294.404 29.1276H300.353C302.466 29.1276 304.102 29.568 305.262 30.4487C306.44 31.3122 307.029 32.668 307.029 34.5159C307.029 35.9148 306.734 37.0546 306.146 37.9354C305.574 38.8162 304.769 39.4638 303.73 39.8783C302.708 40.2755 301.513 40.4741 300.145 40.4741H296.846V47.7017H294.404V29.1276ZM300.145 38.2722C301.461 38.2722 302.526 37.9872 303.34 37.4173C304.154 36.8474 304.561 35.8889 304.561 34.5418C304.561 33.4192 304.197 32.6075 303.47 32.1067C302.743 31.6058 301.704 31.3554 300.353 31.3554H296.846V38.2722H300.145Z" fill="black" fill-opacity="0.25" style="fill:black;fill-opacity:0.25;"/>
<path d="M276.103 29.1276H282.415C284.458 29.1276 286.008 29.473 287.065 30.1638C288.138 30.8546 288.675 32.0203 288.675 33.661C288.675 34.9908 288.337 36.0011 287.662 36.6919C286.987 37.3655 286.086 37.8231 284.961 38.0649C286.398 38.2376 287.489 38.6607 288.234 39.3343C288.978 39.9905 289.351 40.9922 289.351 42.3393C289.351 43.6173 289.047 44.6535 288.441 45.4479C287.835 46.2424 287.004 46.8209 285.948 47.1836C284.891 47.529 283.696 47.7017 282.363 47.7017H276.103V29.1276ZM282.233 37.0546C283.411 37.0546 284.363 36.7956 285.09 36.2774C285.835 35.7421 286.207 34.9131 286.207 33.7905C286.207 32.8407 285.878 32.2017 285.22 31.8735C284.562 31.5281 283.627 31.3554 282.415 31.3554H278.544V37.0546H282.233ZM282.363 45.4998C283.679 45.4998 284.744 45.2752 285.558 44.8262C286.372 44.3772 286.779 43.5655 286.779 42.3911C286.779 41.2167 286.398 40.405 285.636 39.956C284.891 39.4897 283.705 39.2566 282.077 39.2566H278.544V45.4998H282.363Z" fill="black" fill-opacity="0.25" style="fill:black;fill-opacity:0.25;"/>
<path d="M258.436 47.9608C256.601 47.9608 254.99 47.5808 253.605 46.8209C252.237 46.061 251.172 44.973 250.41 43.5568C249.648 42.1234 249.267 40.4137 249.267 38.4276C249.267 35.4398 250.055 33.1083 251.63 31.4331C253.206 29.7407 255.458 28.8944 258.384 28.8944C259.649 28.8944 260.757 29.0326 261.709 29.3089C262.679 29.5679 263.458 29.8788 264.047 30.2415V32.573C263.268 32.0721 262.367 31.7008 261.346 31.459C260.341 31.2173 259.345 31.0964 258.358 31.0964C256.176 31.0964 254.557 31.7095 253.501 32.9356C252.444 34.1618 251.916 35.9925 251.916 38.4276C251.916 40.88 252.488 42.7192 253.631 43.9454C254.774 45.1543 256.445 45.7588 258.644 45.7588C259.597 45.7588 260.523 45.6293 261.424 45.3702C262.341 45.1112 263.216 44.6708 264.047 44.0491V46.3805C263.545 46.7777 262.809 47.1404 261.839 47.4686C260.887 47.7967 259.752 47.9608 258.436 47.9608Z" fill="black" fill-opacity="0.25" style="fill:black;fill-opacity:0.25;"/>
<path d="M225.957 47.7017V29.1276H228.399V36.3293H232.087C234.148 36.3293 235.733 36.761 236.841 37.6245C237.95 38.488 238.504 39.8869 238.504 41.8212C238.504 43.2374 238.218 44.3772 237.646 45.2407C237.075 46.1042 236.278 46.7346 235.257 47.1318C234.235 47.5117 233.057 47.7017 231.724 47.7017H225.957ZM231.724 45.4998C232.953 45.4998 233.958 45.2407 234.737 44.7226C235.534 44.2045 235.932 43.2719 235.932 41.9248C235.932 40.785 235.594 39.9301 234.919 39.3602C234.244 38.7903 233.274 38.5053 232.01 38.5053H228.399V45.4998H231.724Z" fill="black" fill-opacity="0.25" style="fill:black;fill-opacity:0.25;"/>
<path d="M215.05 47.9608C213.214 47.9608 211.603 47.5808 210.218 46.8209C208.85 46.061 207.785 44.973 207.023 43.5568C206.261 42.1234 205.88 40.4137 205.88 38.4276C205.88 35.4398 206.668 33.1083 208.244 31.4331C209.82 29.7407 212.071 28.8944 214.998 28.8944C216.262 28.8944 217.37 29.0326 218.323 29.3089C219.292 29.5679 220.072 29.8788 220.661 30.2415V32.573C219.881 32.0721 218.981 31.7008 217.959 31.459C216.955 31.2173 215.959 31.0964 214.972 31.0964C212.79 31.0964 211.17 31.7095 210.114 32.9356C209.058 34.1618 208.529 35.9925 208.529 38.4276C208.529 40.88 209.101 42.7192 210.244 43.9454C211.387 45.1543 213.058 45.7588 215.257 45.7588C216.21 45.7588 217.136 45.6293 218.037 45.3702C218.955 45.1112 219.829 44.6708 220.661 44.0491V46.3805C220.158 46.7777 219.422 47.1404 218.452 47.4686C217.5 47.7967 216.366 47.9608 215.05 47.9608Z" fill="black" fill-opacity="0.25" style="fill:black;fill-opacity:0.25;"/>
<path d="M190.395 29.1276H201.928V31.3554H192.836V36.9769H200.551V39.1788H192.836V45.4998H202.058V47.7017H190.395V29.1276Z" fill="black" fill-opacity="0.25" style="fill:black;fill-opacity:0.25;"/>
<path d="M171.935 31.3813V29.1276H185.884V31.3813H180.143V47.7017H177.675V31.3813H171.935Z" fill="black" fill-opacity="0.25" style="fill:black;fill-opacity:0.25;"/>
<path d="M159.547 28.1173C158.075 28.1173 156.984 27.7546 156.274 27.0292C155.564 26.2866 155.209 25.3886 155.209 24.3351H157.495C157.495 25.0777 157.677 25.6131 158.041 25.9412C158.404 26.2694 158.907 26.4334 159.547 26.4334C160.188 26.4334 160.682 26.2694 161.028 25.9412C161.392 25.6131 161.574 25.0777 161.574 24.3351H163.86C163.86 25.3886 163.505 26.2866 162.794 27.0292C162.102 27.7546 161.019 28.1173 159.547 28.1173ZM154.768 47.7017H152.118V29.1276H154.56V44.4636L164.795 29.1276H167.444V47.7017H164.951V32.4435L154.768 47.7017Z" fill="black" fill-opacity="0.25" style="fill:black;fill-opacity:0.25;"/>
<path d="M135.548 45.2666C136.622 45.3702 137.462 45.2148 138.068 44.8003C138.674 44.3686 139.176 43.8073 139.575 43.1165L132.665 29.1276H135.445L140.822 40.3187L145.471 29.1276H147.991L142.095 42.6761C141.61 43.8159 141.081 44.7744 140.51 45.5516C139.938 46.3287 139.254 46.8986 138.458 47.2613C137.679 47.624 136.709 47.7708 135.548 47.7017V45.2666Z" fill="black" fill-opacity="0.25" style="fill:black;fill-opacity:0.25;"/>
<path d="M115.457 31.3813V29.1276H129.406V31.3813H123.666V47.7017H121.198V31.3813H115.457Z" fill="black" fill-opacity="0.25" style="fill:black;fill-opacity:0.25;"/>
<path d="M99.9033 29.1276H111.437V31.3554H102.345V36.9769H110.06V39.1788H102.345V45.4998H111.567V47.7017H99.9033V29.1276Z" fill="black" fill-opacity="0.25" style="fill:black;fill-opacity:0.25;"/>
<path d="M81.6016 29.1276H87.9138C89.9573 29.1276 91.5073 29.473 92.5636 30.1638C93.6373 30.8546 94.1742 32.0203 94.1742 33.661C94.1742 34.9908 93.8365 36.0011 93.1611 36.6919C92.4857 37.3655 91.5852 37.8231 90.4595 38.0649C91.8969 38.2376 92.9879 38.6607 93.7326 39.3343C94.4772 39.9905 94.8496 40.9922 94.8496 42.3393C94.8496 43.6173 94.5465 44.6535 93.9404 45.4479C93.3343 46.2424 92.503 46.8209 91.4467 47.1836C90.3903 47.529 89.1954 47.7017 87.8619 47.7017H81.6016V29.1276ZM87.732 37.0546C88.9096 37.0546 89.8621 36.7956 90.5894 36.2774C91.3341 35.7421 91.7064 34.9131 91.7064 33.7905C91.7064 32.8407 91.3774 32.2017 90.7193 31.8735C90.0612 31.5281 89.1261 31.3554 87.9138 31.3554H84.0434V37.0546H87.732ZM87.8619 45.4998C89.178 45.4998 90.2431 45.2752 91.057 44.8262C91.8709 44.3772 92.2779 43.5655 92.2779 42.3911C92.2779 41.2167 91.8969 40.405 91.1349 39.956C90.3903 39.4897 89.204 39.2566 87.5762 39.2566H84.0434V45.4998H87.8619Z" fill="black" fill-opacity="0.25" style="fill:black;fill-opacity:0.25;"/>
<path d="M67.8728 47.9608C66.2103 47.9608 64.7037 47.5894 63.3529 46.8468C62.0021 46.1042 60.9284 45.0248 60.1318 43.6087C59.3525 42.1752 58.9629 40.4223 58.9629 38.3499C58.9629 36.2774 59.3525 34.5418 60.1318 33.1429C60.9284 31.7267 62.0021 30.6646 63.3529 29.9565C64.7037 29.2484 66.2103 28.8944 67.8728 28.8944C69.57 28.8944 71.0852 29.2571 72.4187 29.9824C73.7695 30.6905 74.8345 31.744 75.6138 33.1429C76.3931 34.5418 76.7828 36.2861 76.7828 38.3758C76.7828 40.4309 76.3931 42.1752 75.6138 43.6087C74.8345 45.0248 73.7695 46.1042 72.4187 46.8468C71.0852 47.5894 69.57 47.9608 67.8728 47.9608ZM67.8728 45.7588C69.0677 45.7588 70.1414 45.517 71.0939 45.0335C72.0464 44.5499 72.791 43.7727 73.3279 42.702C73.882 41.6139 74.1591 40.1892 74.1591 38.4276C74.1591 36.6488 73.882 35.224 73.3279 34.1532C72.791 33.0824 72.0464 32.3053 71.0939 31.8217C70.1414 31.3381 69.0677 31.0964 67.8728 31.0964C66.6779 31.0964 65.6042 31.3381 64.6517 31.8217C63.7166 32.3053 62.9719 33.0824 62.4178 34.1532C61.8636 35.224 61.5865 36.6488 61.5865 38.4276C61.5865 40.1892 61.8636 41.6139 62.4178 42.702C62.9719 43.7727 63.7166 44.5499 64.6517 45.0335C65.6042 45.517 66.6779 45.7588 67.8728 45.7588Z" fill="black" fill-opacity="0.25" style="fill:black;fill-opacity:0.25;"/>
<path d="M49.5271 47.9608C47.6914 47.9608 46.0809 47.5808 44.6955 46.8209C43.3274 46.061 42.2624 44.973 41.5004 43.5568C40.7384 42.1234 40.3574 40.4137 40.3574 38.4276C40.3574 35.4398 41.1454 33.1083 42.7213 31.4331C44.2972 29.7407 46.5485 28.8944 49.4752 28.8944C50.7394 28.8944 51.8477 29.0326 52.8002 29.3089C53.7699 29.5679 54.5492 29.8788 55.138 30.2415V32.573C54.3587 32.0721 53.4582 31.7008 52.4365 31.459C51.4321 31.2173 50.4363 31.0964 49.4492 31.0964C47.2672 31.0964 45.648 31.7095 44.5916 32.9356C43.5352 34.1618 43.007 35.9925 43.007 38.4276C43.007 40.88 43.5785 42.7192 44.7215 43.9454C45.8644 45.1543 47.5356 45.7588 49.7349 45.7588C50.6874 45.7588 51.6139 45.6293 52.5144 45.3702C53.4323 45.1112 54.3068 44.6708 55.138 44.0491V46.3805C54.6358 46.7777 53.8998 47.1404 52.93 47.4686C51.9776 47.7967 50.8433 47.9608 49.5271 47.9608Z" fill="black" fill-opacity="0.25" style="fill:black;fill-opacity:0.25;"/>
<path d="M27.7195 47.9608C26.057 47.9608 24.5504 47.5894 23.1996 46.8468C21.8488 46.1042 20.7751 45.0248 19.9785 43.6087C19.1992 42.1752 18.8096 40.4223 18.8096 38.3499C18.8096 36.2774 19.1992 34.5418 19.9785 33.1429C20.7751 31.7267 21.8488 30.6646 23.1996 29.9565C24.5504 29.2484 26.057 28.8944 27.7195 28.8944C29.4166 28.8944 30.9319 29.2571 32.2654 29.9824C33.6162 30.6905 34.6812 31.744 35.4605 33.1429C36.2398 34.5418 36.6294 36.2861 36.6294 38.3758C36.6294 40.4309 36.2398 42.1752 35.4605 43.6087C34.6812 45.0248 33.6162 46.1042 32.2654 46.8468C30.9319 47.5894 29.4166 47.9608 27.7195 47.9608ZM27.7195 45.7588C28.9144 45.7588 29.9881 45.517 30.9406 45.0335C31.8931 44.5499 32.6377 43.7727 33.1746 42.702C33.7287 41.6139 34.0058 40.1892 34.0058 38.4276C34.0058 36.6488 33.7287 35.224 33.1746 34.1532C32.6377 33.0824 31.8931 32.3053 30.9406 31.8217C29.9881 31.3381 28.9144 31.0964 27.7195 31.0964C26.5246 31.0964 25.4509 31.3381 24.4984 31.8217C23.5633 32.3053 22.8186 33.0824 22.2644 34.1532C21.7103 35.224 21.4332 36.6488 21.4332 38.4276C21.4332 40.1892 21.7103 41.6139 22.2644 42.702C22.8186 43.7727 23.5633 44.5499 24.4984 45.0335C25.4509 45.517 26.5246 45.7588 27.7195 45.7588Z" fill="black" fill-opacity="0.25" style="fill:black;fill-opacity:0.25;"/>
<path d="M0 29.1276H14.0013V47.7017H11.5336V31.3554H2.44179V47.7017H0V29.1276Z" fill="black" fill-opacity="0.25" style="fill:black;fill-opacity:0.25;"/>
<path d="M569.338 18.9627C568.853 18.9627 568.446 18.8073 568.117 18.4964C567.805 18.1683 567.649 17.7797 567.649 17.3307C567.649 16.8471 567.805 16.4499 568.117 16.139C568.446 15.8282 568.853 15.6727 569.338 15.6727C569.823 15.6727 570.221 15.8282 570.533 16.139C570.845 16.4499 571 16.8471 571 17.3307C571 17.7797 570.845 18.1683 570.533 18.4964C570.221 18.8073 569.823 18.9627 569.338 18.9627Z" fill="black" fill-opacity="0.25" style="fill:black;fill-opacity:0.25;"/>
<path d="M553.921 0.233154V18.8073H551.453V11.3725H548.076L542.933 18.8073H539.945L545.582 10.9321C544.214 10.6385 543.166 10.0686 542.439 9.22232C541.712 8.37608 541.348 7.2276 541.348 5.7769C541.348 4.46436 541.634 3.40224 542.205 2.59054C542.777 1.77884 543.573 1.18302 544.595 0.803071C545.617 0.423126 546.794 0.233154 548.128 0.233154H553.921ZM547.868 9.17051H551.453V2.46102H548.128C546.898 2.46102 545.885 2.71143 545.089 3.21227C544.309 3.69584 543.92 4.55072 543.92 5.7769C543.92 6.93401 544.257 7.78889 544.933 8.34154C545.626 8.89418 546.604 9.17051 547.868 9.17051Z" fill="black" fill-opacity="0.25" style="fill:black;fill-opacity:0.25;"/>
<path d="M514.337 18.8073H511.688V0.233154H514.129V15.5691L524.364 0.233154H527.014V18.8073H524.52V3.54904L514.337 18.8073Z" fill="black" fill-opacity="0.25" style="fill:black;fill-opacity:0.25;"/>
<path d="M482.758 0.233154H485.2V8.49697H494.759V0.233154H497.227V18.8073H494.759V10.6989H485.2V18.8073H482.758V0.233154Z" fill="black" fill-opacity="0.25" style="fill:black;fill-opacity:0.25;"/>
<path d="M469.943 18.8073H467.345L465.423 13.4967H457.188L455.292 18.8073H453.006L459.63 0.233154H463.267L469.943 18.8073ZM457.993 11.2947H464.643L461.318 2.04653L457.993 11.2947Z" fill="black" fill-opacity="0.25" style="fill:black;fill-opacity:0.25;"/>
<path d="M434.177 19.0664C432.792 19.0664 431.588 18.8937 430.566 18.5482C429.562 18.2028 428.826 17.8402 428.358 17.4602V15.1287C429.969 16.2858 431.883 16.8644 434.099 16.8644C434.965 16.8644 435.753 16.7608 436.463 16.5535C437.173 16.3463 437.745 16.0009 438.178 15.5173C438.61 15.0165 438.827 14.3429 438.827 13.4967C438.827 12.3223 438.446 11.502 437.684 11.0357C436.939 10.5521 435.822 10.3103 434.333 10.3103H431.657V8.23791H434.281C435.58 8.23791 436.567 7.96158 437.242 7.40894C437.918 6.83902 438.255 6.06186 438.255 5.07745C438.255 4.0067 437.9 3.25544 437.19 2.82368C436.48 2.39193 435.545 2.17605 434.385 2.17605C433.207 2.17605 432.134 2.30558 431.164 2.56463C430.211 2.82368 429.371 3.14318 428.644 3.52313V1.21755C429.216 0.923958 429.96 0.647634 430.878 0.38858C431.813 0.129527 432.991 0 434.411 0C436.351 0 437.892 0.397216 439.035 1.19165C440.178 1.98608 440.749 3.22954 440.749 4.92202C440.749 6.01005 440.42 6.91673 439.762 7.64208C439.121 8.35016 438.178 8.84237 436.931 9.11869C438.385 9.30866 439.494 9.75769 440.256 10.4658C441.018 11.1738 441.399 12.1669 441.399 13.4449C441.399 14.7574 441.07 15.8282 440.412 16.6572C439.771 17.4861 438.905 18.0992 437.814 18.4964C436.723 18.8764 435.511 19.0664 434.177 19.0664Z" fill="black" fill-opacity="0.25" style="fill:black;fill-opacity:0.25;"/>
<path d="M416.474 18.8073H413.876L411.954 13.4967H403.719L401.823 18.8073H399.537L406.161 0.233154H409.798L416.474 18.8073ZM404.525 11.2947H411.175L407.85 2.04653L404.525 11.2947Z" fill="black" fill-opacity="0.25" style="fill:black;fill-opacity:0.25;"/>
<path d="M388.377 18.8073H385.338L378.844 10.8544H376.87V18.8073H374.428V0.233154H376.87V8.6524H378.688L385.338 0.233154H388.091L380.74 9.50728L388.377 18.8073Z" fill="black" fill-opacity="0.25" style="fill:black;fill-opacity:0.25;"/>
<path d="M352.127 19.0664C350.464 19.0664 348.958 18.695 347.607 17.9524C346.256 17.2098 345.182 16.1304 344.386 14.7143C343.606 13.2808 343.217 11.5279 343.217 9.45546C343.217 7.38303 343.606 5.64737 344.386 4.24848C345.182 2.83232 346.256 1.7702 347.607 1.06212C348.958 0.35404 350.464 0 352.127 0C353.824 0 355.339 0.362675 356.673 1.08803C358.023 1.79611 359.088 2.84959 359.868 4.24848C360.647 5.64737 361.037 7.39167 361.037 9.48137C361.037 11.5365 360.647 13.2808 359.868 14.7143C359.088 16.1304 358.023 17.2098 356.673 17.9524C355.339 18.695 353.824 19.0664 352.127 19.0664ZM352.127 16.8644C353.322 16.8644 354.395 16.6226 355.348 16.139C356.3 15.6555 357.045 14.8783 357.582 13.8076C358.136 12.7195 358.413 11.2947 358.413 9.53318C358.413 7.75434 358.136 6.32955 357.582 5.25879C357.045 4.18804 356.3 3.41087 355.348 2.92731C354.395 2.44374 353.322 2.20196 352.127 2.20196C350.932 2.20196 349.858 2.44374 348.906 2.92731C347.97 3.41087 347.226 4.18804 346.672 5.25879C346.117 6.32955 345.84 7.75434 345.84 9.53318C345.84 11.2947 346.117 12.7195 346.672 13.8076C347.226 14.8783 347.97 15.6555 348.906 16.139C349.858 16.6226 350.932 16.8644 352.127 16.8644Z" fill="black" fill-opacity="0.25" style="fill:black;fill-opacity:0.25;"/>
<path d="M315.836 0.233154H329.837V18.8073H327.369V2.46102H318.278V18.8073H315.836V0.233154Z" fill="black" fill-opacity="0.25" style="fill:black;fill-opacity:0.25;"/>
<path d="M293.534 19.0664C291.871 19.0664 290.365 18.695 289.014 17.9524C287.663 17.2098 286.59 16.1304 285.793 14.7143C285.014 13.2808 284.624 11.5279 284.624 9.45546C284.624 7.38303 285.014 5.64737 285.793 4.24848C286.59 2.83232 287.663 1.7702 289.014 1.06212C290.365 0.35404 291.871 0 293.534 0C295.231 0 296.746 0.362675 298.08 1.08803C299.431 1.79611 300.496 2.84959 301.275 4.24848C302.054 5.64737 302.444 7.39167 302.444 9.48137C302.444 11.5365 302.054 13.2808 301.275 14.7143C300.496 16.1304 299.431 17.2098 298.08 17.9524C296.746 18.695 295.231 19.0664 293.534 19.0664ZM293.534 16.8644C294.729 16.8644 295.803 16.6226 296.755 16.139C297.708 15.6555 298.452 14.8783 298.989 13.8076C299.543 12.7195 299.82 11.2947 299.82 9.53318C299.82 7.75434 299.543 6.32955 298.989 5.25879C298.452 4.18804 297.708 3.41087 296.755 2.92731C295.803 2.44374 294.729 2.20196 293.534 2.20196C292.339 2.20196 291.265 2.44374 290.313 2.92731C289.378 3.41087 288.633 4.18804 288.079 5.25879C287.525 6.32955 287.248 7.75434 287.248 9.53318C287.248 11.2947 287.525 12.7195 288.079 13.8076C288.633 14.8783 289.378 15.6555 290.313 16.139C291.265 16.6226 292.339 16.8644 293.534 16.8644Z" fill="black" fill-opacity="0.25" style="fill:black;fill-opacity:0.25;"/>
<path d="M258.969 0.233154H265.281C267.325 0.233154 268.874 0.578559 269.931 1.26937C271.005 1.96018 271.541 3.12592 271.541 4.76659C271.541 6.0964 271.204 7.10671 270.528 7.79752C269.853 8.47106 268.952 8.92872 267.827 9.17051C269.264 9.34321 270.355 9.76633 271.1 10.4399C271.844 11.0961 272.217 12.0978 272.217 13.4449C272.217 14.7229 271.914 15.7591 271.308 16.5535C270.701 17.348 269.87 17.9265 268.814 18.2892C267.757 18.6346 266.563 18.8073 265.229 18.8073H258.969V0.233154ZM265.099 8.1602C266.277 8.1602 267.229 7.90114 267.957 7.38304C268.701 6.84766 269.074 6.01869 269.074 4.89612C269.074 3.94626 268.745 3.30726 268.087 2.97912C267.428 2.63372 266.493 2.46102 265.281 2.46102H261.411V8.1602H265.099ZM265.229 16.6054C266.545 16.6054 267.61 16.3808 268.424 15.9318C269.238 15.4828 269.645 14.6711 269.645 13.4967C269.645 12.3223 269.264 11.5106 268.502 11.0616C267.757 10.5953 266.571 10.3622 264.943 10.3622H261.411V16.6054H265.229Z" fill="black" fill-opacity="0.25" style="fill:black;fill-opacity:0.25;"/>
<path d="M231.827 18.8073H229.178V0.233154H231.62V15.5691L241.854 0.233154H244.504V18.8073H242.01V3.54904L231.827 18.8073Z" fill="black" fill-opacity="0.25" style="fill:black;fill-opacity:0.25;"/>
<path d="M202.146 2.48692V0.233154H216.095V2.48692H210.354V18.8073H207.886V2.48692H202.146Z" fill="black" fill-opacity="0.25" style="fill:black;fill-opacity:0.25;"/>
<path d="M182.159 19.0664C180.496 19.0664 178.99 18.695 177.639 17.9524C176.288 17.2098 175.215 16.1304 174.418 14.7143C173.639 13.2808 173.249 11.5279 173.249 9.45546C173.249 7.38303 173.639 5.64737 174.418 4.24848C175.215 2.83232 176.288 1.7702 177.639 1.06212C178.99 0.35404 180.496 0 182.159 0C183.856 0 185.371 0.362675 186.705 1.08803C188.056 1.79611 189.121 2.84959 189.9 4.24848C190.679 5.64737 191.069 7.39167 191.069 9.48137C191.069 11.5365 190.679 13.2808 189.9 14.7143C189.121 16.1304 188.056 17.2098 186.705 17.9524C185.371 18.695 183.856 19.0664 182.159 19.0664ZM182.159 16.8644C183.354 16.8644 184.428 16.6226 185.38 16.139C186.333 15.6555 187.077 14.8783 187.614 13.8076C188.168 12.7195 188.445 11.2947 188.445 9.53318C188.445 7.75434 188.168 6.32955 187.614 5.25879C187.077 4.18804 186.333 3.41087 185.38 2.92731C184.428 2.44374 183.354 2.20196 182.159 2.20196C180.964 2.20196 179.89 2.44374 178.938 2.92731C178.003 3.41087 177.258 4.18804 176.704 5.25879C176.15 6.32955 175.873 7.75434 175.873 9.53318C175.873 11.2947 176.15 12.7195 176.704 13.8076C177.258 14.8783 178.003 15.6555 178.938 16.139C179.89 16.6226 180.964 16.8644 182.159 16.8644Z" fill="black" fill-opacity="0.25" style="fill:black;fill-opacity:0.25;"/>
<path d="M148.354 0.233154H154.303C156.416 0.233154 158.052 0.673546 159.213 1.55433C160.39 2.41784 160.979 3.77355 160.979 5.62147C160.979 7.02036 160.685 8.1602 160.096 9.04098C159.524 9.92176 158.719 10.5694 157.68 10.9839C156.658 11.3811 155.463 11.5797 154.095 11.5797H150.796V18.8073H148.354V0.233154ZM154.095 9.37775C155.411 9.37775 156.476 9.09279 157.29 8.52287C158.104 7.95296 158.511 6.99446 158.511 5.64738C158.511 4.52481 158.148 3.71311 157.42 3.21227C156.693 2.71143 155.654 2.46102 154.303 2.46102H150.796V9.37775H154.095Z" fill="black" fill-opacity="0.25" style="fill:black;fill-opacity:0.25;"/>
<path d="M119.883 0.233154H133.884V18.8073H131.416V2.46102H122.325V18.8073H119.883V0.233154Z" fill="black" fill-opacity="0.25" style="fill:black;fill-opacity:0.25;"/>
<path d="M78.3369 18.8073V0.233154H80.7787V7.43485H84.4674C86.5282 7.43485 88.1127 7.8666 89.2211 8.73012C90.3294 9.59363 90.8836 10.9925 90.8836 12.9268C90.8836 14.3429 90.5978 15.4828 90.0263 16.3463C89.4549 17.2098 88.6582 17.8402 87.6365 18.2374C86.6148 18.6173 85.4372 18.8073 84.1037 18.8073H78.3369ZM84.1037 16.6054C85.3332 16.6054 86.3377 16.3463 87.117 15.8282C87.9136 15.3101 88.3119 14.3775 88.3119 13.0304C88.3119 11.8906 87.9742 11.0357 87.2988 10.4658C86.6234 9.89586 85.6536 9.6109 84.3894 9.6109H80.7787V16.6054H84.1037Z" fill="black" fill-opacity="0.25" style="fill:black;fill-opacity:0.25;"/>
<path d="M51.3037 2.48692V0.233154H65.2531V2.48692H59.5123V18.8073H57.0445V2.48692H51.3037Z" fill="black" fill-opacity="0.25" style="fill:black;fill-opacity:0.25;"/>
<path d="M33.2283 19.0664C31.3926 19.0664 29.7821 18.6864 28.3967 17.9265C27.0286 17.1666 25.9635 16.0786 25.2016 14.6624C24.4396 13.229 24.0586 11.5193 24.0586 9.53318C24.0586 6.54542 24.8465 4.21394 26.4225 2.53873C27.9984 0.846242 30.2497 0 33.1763 0C34.4405 0 35.5489 0.138162 36.5013 0.414485C37.4711 0.673539 38.2504 0.984403 38.8392 1.34708V3.67856C38.0599 3.17772 37.1594 2.80641 36.1377 2.56463C35.1332 2.32285 34.1375 2.20196 33.1504 2.20196C30.9683 2.20196 29.3491 2.81505 28.2928 4.04124C27.2364 5.26742 26.7082 7.09807 26.7082 9.53318C26.7082 11.9856 27.2797 13.8248 28.4226 15.051C29.5656 16.2599 31.2368 16.8644 33.4361 16.8644C34.3886 16.8644 35.3151 16.7349 36.2156 16.4758C37.1334 16.2168 38.008 15.7764 38.8392 15.1546V17.4861C38.337 17.8833 37.601 18.246 36.6312 18.5742C35.6787 18.9023 34.5444 19.0664 33.2283 19.0664Z" fill="black" fill-opacity="0.25" style="fill:black;fill-opacity:0.25;"/>
<path d="M0 0.233154H11.5336V2.46102H2.44179V8.08248H10.1568V10.2844H2.44179V16.6054H11.6634V18.8073H0V0.233154Z" fill="black" fill-opacity="0.25" style="fill:black;fill-opacity:0.25;"/>
</svg>
