<svg width="324" height="46" viewBox="0 0 324 46" fill="none" xmlns="http://www.w3.org/2000/svg">
<path d="M0.27 1.746V1.314H3.753V1.746H0.27ZM0 7.758V1.314H0.477V7.758H0ZM1.989 7.326C2.367 7.326 2.685 7.278 2.943 7.182C3.207 7.086 3.405 6.93 3.537 6.714C3.669 6.498 3.735 6.213 3.735 5.859C3.735 5.403 3.597 5.064 3.321 4.842C3.051 4.614 2.64 4.5 2.088 4.5H0.333V4.068H2.097C2.553 4.068 2.937 4.131 3.249 4.257C3.567 4.383 3.81 4.578 3.978 4.842C4.146 5.1 4.23 5.433 4.23 5.841C4.23 6.297 4.137 6.666 3.951 6.948C3.771 7.23 3.513 7.437 3.177 7.569C2.847 7.695 2.451 7.758 1.989 7.758H0.333V7.326H1.989Z" fill="white" style="fill:white;fill-opacity:1;"/>
<path d="M12.757 7.758H12.262L9.67901 1.332L9.68801 1.314H10.174L12.757 7.758ZM9.51701 1.314H9.96701L7.41101 7.758H6.96101L9.51701 1.314ZM7.97801 5.715V5.283H11.668V5.715H7.97801Z" fill="white" style="fill:white;fill-opacity:1;"/>
<path d="M20.4756 1.314H20.9526V7.758H20.4756V1.314ZM15.9216 1.314H16.3986V7.758H15.9216V1.314ZM16.1826 4.779V4.347H20.6916V4.779H16.1826Z" fill="white" style="fill:white;fill-opacity:1;"/>
<path d="M24.7876 1.314H25.2646V7.758H24.7876V1.314ZM25.0846 4.743V4.311H26.4886V4.743H25.0846ZM29.4766 7.758H28.8826L26.1286 4.527L28.7926 1.314H29.3416L26.5516 4.671L26.5966 4.383L29.4766 7.758Z" fill="white" style="fill:white;fill-opacity:1;"/>
<path d="M34.6495 4.599C35.0335 4.599 35.3575 4.548 35.6215 4.446C35.8855 4.344 36.0835 4.185 36.2155 3.969C36.3535 3.747 36.4225 3.459 36.4225 3.105C36.4225 2.793 36.3595 2.538 36.2335 2.34C36.1075 2.142 35.9215 1.995 35.6755 1.899C35.4295 1.797 35.1205 1.746 34.7485 1.746H32.9935V1.314H34.7485C35.4325 1.314 35.9605 1.461 36.3325 1.755C36.7105 2.043 36.8995 2.49 36.8995 3.096C36.8995 3.546 36.8095 3.915 36.6295 4.203C36.4495 4.485 36.1915 4.692 35.8555 4.824C35.5195 4.956 35.1175 5.022 34.6495 5.022H32.9935V4.599H34.6495ZM32.6605 1.314H33.1375V7.758H32.6605V1.314Z" fill="white" style="fill:white;fill-opacity:1;"/>
<path d="M43.0059 7.848C42.5559 7.848 42.1419 7.773 41.7639 7.623C41.3859 7.473 41.0559 7.254 40.7739 6.966C40.4919 6.678 40.2729 6.327 40.1169 5.913C39.9669 5.499 39.8919 5.031 39.8919 4.509C39.8919 3.987 39.9669 3.522 40.1169 3.114C40.2729 2.706 40.4919 2.364 40.7739 2.088C41.0559 1.806 41.3859 1.593 41.7639 1.449C42.1419 1.305 42.5559 1.233 43.0059 1.233C43.4559 1.233 43.8669 1.305 44.2389 1.449C44.6169 1.593 44.9439 1.806 45.2199 2.088C45.5019 2.37 45.7209 2.715 45.8769 3.123C46.0329 3.525 46.1109 3.987 46.1109 4.509C46.1109 5.031 46.0329 5.499 45.8769 5.913C45.7209 6.327 45.5019 6.678 45.2199 6.966C44.9439 7.254 44.6169 7.473 44.2389 7.623C43.8669 7.773 43.4559 7.848 43.0059 7.848ZM43.0059 7.416C43.5099 7.416 43.9569 7.308 44.3469 7.092C44.7429 6.876 45.0519 6.555 45.2739 6.129C45.5019 5.703 45.6159 5.175 45.6159 4.545C45.6159 3.903 45.5019 3.369 45.2739 2.943C45.0519 2.517 44.7429 2.196 44.3469 1.98C43.9569 1.764 43.5099 1.656 43.0059 1.656C42.4959 1.656 42.0429 1.764 41.6469 1.98C41.2569 2.196 40.9479 2.517 40.7199 2.943C40.4979 3.369 40.3869 3.903 40.3869 4.545C40.3869 5.175 40.4979 5.703 40.7199 6.129C40.9479 6.555 41.2569 6.876 41.6469 7.092C42.0429 7.308 42.4959 7.416 43.0059 7.416Z" fill="white" style="fill:white;fill-opacity:1;"/>
<path d="M48.5219 1.755V1.314H53.6069V1.755H48.5219ZM50.8259 1.386H51.3029V7.758H50.8259V1.386Z" fill="white" style="fill:white;fill-opacity:1;"/>
<path d="M59.1834 7.848C58.5354 7.848 57.9744 7.716 57.5004 7.452C57.0264 7.182 56.6604 6.801 56.4024 6.309C56.1504 5.817 56.0244 5.229 56.0244 4.545C56.0244 3.849 56.1474 3.255 56.3934 2.763C56.6454 2.271 57.0054 1.893 57.4734 1.629C57.9414 1.365 58.5084 1.233 59.1744 1.233C59.6004 1.233 59.9874 1.284 60.3354 1.386C60.6894 1.488 60.9834 1.626 61.2174 1.8V2.286C61.0614 2.16 60.8724 2.052 60.6504 1.962C60.4284 1.866 60.1914 1.791 59.9394 1.737C59.6874 1.683 59.4324 1.656 59.1744 1.656C58.5984 1.656 58.1124 1.77 57.7164 1.998C57.3264 2.22 57.0294 2.547 56.8254 2.979C56.6214 3.411 56.5194 3.933 56.5194 4.545C56.5194 5.151 56.6244 5.67 56.8344 6.102C57.0444 6.528 57.3504 6.855 57.7524 7.083C58.1544 7.305 58.6404 7.416 59.2104 7.416C59.4684 7.416 59.7204 7.392 59.9664 7.344C60.2124 7.29 60.4434 7.212 60.6594 7.11C60.8754 7.008 61.0614 6.888 61.2174 6.75V7.236C60.9834 7.428 60.6924 7.578 60.3444 7.686C59.9964 7.794 59.6094 7.848 59.1834 7.848Z" fill="white" style="fill:white;fill-opacity:1;"/>
<path d="M64.1007 1.755V1.314H69.1857V1.755H64.1007ZM66.4047 1.386H66.8817V7.758H66.4047V1.386Z" fill="white" style="fill:white;fill-opacity:1;"/>
<path d="M74.4478 7.326C74.8258 7.326 75.1558 7.284 75.4378 7.2C75.7198 7.11 75.9388 6.966 76.0948 6.768C76.2508 6.564 76.3288 6.294 76.3288 5.958C76.3288 5.658 76.2628 5.412 76.1308 5.22C76.0048 5.028 75.8098 4.887 75.5458 4.797C75.2818 4.701 74.9458 4.653 74.5378 4.653H72.6298V4.374H74.6548C75.3868 4.374 75.9298 4.5 76.2838 4.752C76.6438 5.004 76.8238 5.403 76.8238 5.949C76.8238 6.381 76.7188 6.732 76.5088 7.002C76.2988 7.266 76.0138 7.458 75.6538 7.578C75.2938 7.698 74.8918 7.758 74.4478 7.758H72.6298V7.326H74.4478ZM72.3238 1.314H72.8008V7.758H72.3238V1.314ZM74.3758 4.23C74.7298 4.23 75.0388 4.185 75.3028 4.095C75.5668 4.005 75.7708 3.861 75.9148 3.663C76.0648 3.465 76.1398 3.21 76.1398 2.898C76.1398 2.622 76.0768 2.4 75.9508 2.232C75.8308 2.064 75.6508 1.941 75.4108 1.863C75.1708 1.785 74.8708 1.746 74.5108 1.746H72.6298V1.314H74.5108C74.9668 1.314 75.3508 1.371 75.6628 1.485C75.9748 1.593 76.2118 1.761 76.3738 1.989C76.5358 2.217 76.6168 2.511 76.6168 2.871C76.6168 3.171 76.5628 3.426 76.4548 3.636C76.3468 3.84 76.1938 4.008 75.9958 4.14C75.8038 4.266 75.5728 4.359 75.3028 4.419C75.0328 4.473 74.7358 4.5 74.4118 4.5H72.6298V4.23H74.3758Z" fill="white" style="fill:white;fill-opacity:1;"/>
<path d="M83.012 7.848C82.562 7.848 82.148 7.773 81.77 7.623C81.392 7.473 81.062 7.254 80.78 6.966C80.498 6.678 80.279 6.327 80.123 5.913C79.973 5.499 79.898 5.031 79.898 4.509C79.898 3.987 79.973 3.522 80.123 3.114C80.279 2.706 80.498 2.364 80.78 2.088C81.062 1.806 81.392 1.593 81.77 1.449C82.148 1.305 82.562 1.233 83.012 1.233C83.462 1.233 83.873 1.305 84.245 1.449C84.623 1.593 84.95 1.806 85.226 2.088C85.508 2.37 85.727 2.715 85.883 3.123C86.039 3.525 86.117 3.987 86.117 4.509C86.117 5.031 86.039 5.499 85.883 5.913C85.727 6.327 85.508 6.678 85.226 6.966C84.95 7.254 84.623 7.473 84.245 7.623C83.873 7.773 83.462 7.848 83.012 7.848ZM83.012 7.416C83.516 7.416 83.963 7.308 84.353 7.092C84.749 6.876 85.058 6.555 85.28 6.129C85.508 5.703 85.622 5.175 85.622 4.545C85.622 3.903 85.508 3.369 85.28 2.943C85.058 2.517 84.749 2.196 84.353 1.98C83.963 1.764 83.516 1.656 83.012 1.656C82.502 1.656 82.049 1.764 81.653 1.98C81.263 2.196 80.954 2.517 80.726 2.943C80.504 3.369 80.393 3.903 80.393 4.545C80.393 5.175 80.504 5.703 80.726 6.129C80.954 6.555 81.263 6.876 81.653 7.092C82.049 7.308 82.502 7.416 83.012 7.416Z" fill="white" style="fill:white;fill-opacity:1;"/>
<path d="M95.5616 7.326C95.9396 7.326 96.2696 7.284 96.5516 7.2C96.8336 7.11 97.0526 6.966 97.2086 6.768C97.3646 6.564 97.4426 6.294 97.4426 5.958C97.4426 5.658 97.3766 5.412 97.2446 5.22C97.1186 5.028 96.9236 4.887 96.6596 4.797C96.3956 4.701 96.0596 4.653 95.6516 4.653H93.7436V4.374H95.7686C96.5006 4.374 97.0436 4.5 97.3976 4.752C97.7576 5.004 97.9376 5.403 97.9376 5.949C97.9376 6.381 97.8326 6.732 97.6226 7.002C97.4126 7.266 97.1276 7.458 96.7676 7.578C96.4076 7.698 96.0056 7.758 95.5616 7.758H93.7436V7.326H95.5616ZM93.4376 1.314H93.9146V7.758H93.4376V1.314ZM95.4896 4.23C95.8436 4.23 96.1526 4.185 96.4166 4.095C96.6806 4.005 96.8846 3.861 97.0286 3.663C97.1786 3.465 97.2536 3.21 97.2536 2.898C97.2536 2.622 97.1906 2.4 97.0646 2.232C96.9446 2.064 96.7646 1.941 96.5246 1.863C96.2846 1.785 95.9846 1.746 95.6246 1.746H93.7436V1.314H95.6246C96.0806 1.314 96.4646 1.371 96.7766 1.485C97.0886 1.593 97.3256 1.761 97.4876 1.989C97.6496 2.217 97.7306 2.511 97.7306 2.871C97.7306 3.171 97.6766 3.426 97.5686 3.636C97.4606 3.84 97.3076 4.008 97.1096 4.14C96.9176 4.266 96.6866 4.359 96.4166 4.419C96.1466 4.473 95.8496 4.5 95.5256 4.5H93.7436V4.23H95.4896Z" fill="white" style="fill:white;fill-opacity:1;"/>
<path d="M102.22 1.314H105.577V1.746H102.22V1.314ZM105.316 7.758V1.314H105.793V7.758H105.316ZM100.645 7.308C100.849 7.32 101.02 7.278 101.158 7.182C101.302 7.086 101.422 6.933 101.518 6.723C101.614 6.513 101.689 6.24 101.743 5.904C101.779 5.706 101.812 5.466 101.842 5.184C101.872 4.902 101.896 4.575 101.914 4.203C101.938 3.825 101.959 3.399 101.977 2.925C102.001 2.445 102.019 1.908 102.031 1.314H102.49C102.472 1.998 102.454 2.592 102.436 3.096C102.418 3.594 102.397 4.023 102.373 4.383C102.349 4.743 102.322 5.055 102.292 5.319C102.268 5.577 102.241 5.805 102.211 6.003C102.145 6.333 102.067 6.615 101.977 6.849C101.893 7.077 101.788 7.263 101.662 7.407C101.542 7.545 101.398 7.647 101.23 7.713C101.062 7.773 100.867 7.8 100.645 7.794V7.308Z" fill="white" style="fill:white;fill-opacity:1;"/>
<path d="M109.623 1.314H110.1V7.758H109.623V1.314ZM109.848 7.758V7.326H113.736V7.758H109.848ZM109.848 4.563V4.131H113.196V4.563H109.848ZM109.848 1.746V1.314H113.691V1.746H109.848Z" fill="white" style="fill:white;fill-opacity:1;"/>
<path d="M121.076 1.314H121.544V7.758H121.076V1.314ZM117.053 3.033V1.314H117.539V3.033C117.539 3.453 117.608 3.801 117.746 4.077C117.884 4.347 118.079 4.545 118.331 4.671C118.583 4.797 118.877 4.86 119.213 4.86C119.573 4.86 119.924 4.818 120.266 4.734C120.614 4.65 120.932 4.482 121.22 4.23L121.337 4.581C121.037 4.821 120.713 4.998 120.365 5.112C120.017 5.22 119.636 5.274 119.222 5.274C118.79 5.274 118.409 5.199 118.079 5.049C117.755 4.893 117.503 4.65 117.323 4.32C117.143 3.99 117.053 3.561 117.053 3.033Z" fill="white" style="fill:white;fill-opacity:1;"/>
<path d="M128.221 0.693C128.155 0.693 128.095 0.678 128.041 0.648C127.987 0.612 127.945 0.57 127.915 0.522C127.891 0.468 127.879 0.411 127.879 0.351C127.879 0.291 127.891 0.234 127.915 0.18C127.945 0.126 127.987 0.0840002 128.041 0.0539998C128.095 0.0179999 128.155 0 128.221 0C128.299 0 128.362 0.0179999 128.41 0.0539998C128.458 0.0840002 128.494 0.126 128.518 0.18C128.542 0.234 128.554 0.291 128.554 0.351C128.554 0.411 128.542 0.468 128.518 0.522C128.494 0.57 128.458 0.612 128.41 0.648C128.362 0.678 128.299 0.693 128.221 0.693ZM126.61 0.693C126.544 0.693 126.484 0.678 126.43 0.648C126.376 0.612 126.337 0.57 126.313 0.522C126.289 0.468 126.277 0.411 126.277 0.351C126.277 0.291 126.289 0.234 126.313 0.18C126.337 0.126 126.376 0.0840002 126.43 0.0539998C126.484 0.0179999 126.544 0 126.61 0C126.688 0 126.751 0.0179999 126.799 0.0539998C126.847 0.0840002 126.883 0.126 126.907 0.18C126.937 0.234 126.952 0.291 126.952 0.351C126.952 0.411 126.937 0.468 126.907 0.522C126.883 0.57 126.847 0.612 126.799 0.648C126.751 0.678 126.688 0.693 126.61 0.693ZM125.377 1.314H125.854V7.758H125.377V1.314ZM125.602 7.758V7.326H129.49V7.758H125.602ZM125.602 4.563V4.131H128.95V4.563H125.602ZM125.602 1.746V1.314H129.445V1.746H125.602Z" fill="white" style="fill:white;fill-opacity:1;"/>
<path d="M132.399 1.755V1.314H137.484V1.755H132.399ZM134.703 1.386H135.18V7.758H134.703V1.386Z" fill="white" style="fill:white;fill-opacity:1;"/>
<path d="M149.041 1.314H149.518V7.758H149.041V1.314ZM144.487 1.314H144.964V7.758H144.487V1.314ZM144.748 4.779V4.347H149.257V4.779H144.748Z" fill="white" style="fill:white;fill-opacity:1;"/>
<path d="M153.353 1.314H153.83V7.758H153.353V1.314ZM153.578 7.758V7.326H157.466V7.758H153.578ZM153.578 4.563V4.131H156.926V4.563H153.578ZM153.578 1.746V1.314H157.421V1.746H153.578Z" fill="white" style="fill:white;fill-opacity:1;"/>
<path d="M161.233 1.746V1.314H164.608V1.746H161.233ZM160.963 1.314H161.44V7.758H160.963V1.314Z" fill="white" style="fill:white;fill-opacity:1;"/>
<path d="M172.278 7.758H171.783L169.2 1.332L169.209 1.314H169.695L172.278 7.758ZM169.038 1.314H169.488L166.932 7.758H166.482L169.038 1.314ZM167.499 5.715V5.283H171.189V5.715H167.499Z" fill="white" style="fill:white;fill-opacity:1;"/>
<path d="M174.108 1.755V1.314H179.193V1.755H174.108ZM176.412 1.386H176.889V7.758H176.412V1.386Z" fill="white" style="fill:white;fill-opacity:1;"/>
<path d="M187.038 1.314H187.524V7.758H187.038V1.314ZM182.331 1.314H182.808V7.758H182.331V1.314ZM182.826 7.758H182.43L182.574 7.443L187.02 1.314H187.407L187.317 1.575L182.826 7.758Z" fill="white" style="fill:white;fill-opacity:1;"/>
<path d="M193.479 7.326C193.857 7.326 194.187 7.284 194.469 7.2C194.751 7.11 194.97 6.966 195.126 6.768C195.282 6.564 195.36 6.294 195.36 5.958C195.36 5.658 195.294 5.412 195.162 5.22C195.036 5.028 194.841 4.887 194.577 4.797C194.313 4.701 193.977 4.653 193.569 4.653H191.661V4.374H193.686C194.418 4.374 194.961 4.5 195.315 4.752C195.675 5.004 195.855 5.403 195.855 5.949C195.855 6.381 195.75 6.732 195.54 7.002C195.33 7.266 195.045 7.458 194.685 7.578C194.325 7.698 193.923 7.758 193.479 7.758H191.661V7.326H193.479ZM191.355 1.314H191.832V7.758H191.355V1.314ZM193.407 4.23C193.761 4.23 194.07 4.185 194.334 4.095C194.598 4.005 194.802 3.861 194.946 3.663C195.096 3.465 195.171 3.21 195.171 2.898C195.171 2.622 195.108 2.4 194.982 2.232C194.862 2.064 194.682 1.941 194.442 1.863C194.202 1.785 193.902 1.746 193.542 1.746H191.661V1.314H193.542C193.998 1.314 194.382 1.371 194.694 1.485C195.006 1.593 195.243 1.761 195.405 1.989C195.567 2.217 195.648 2.511 195.648 2.871C195.648 3.171 195.594 3.426 195.486 3.636C195.378 3.84 195.225 4.008 195.027 4.14C194.835 4.266 194.604 4.359 194.334 4.419C194.064 4.473 193.767 4.5 193.443 4.5H191.661V4.23H193.407Z" fill="white" style="fill:white;fill-opacity:1;"/>
<path d="M203.897 1.314H204.374V7.758H203.897V1.314ZM199.343 1.314H199.82V7.758H199.343V1.314ZM199.604 4.779V4.347H204.113V4.779H199.604Z" fill="white" style="fill:white;fill-opacity:1;"/>
<path d="M208.209 7.758V1.314H208.686V7.758H208.209ZM210.135 7.326C210.513 7.326 210.831 7.278 211.089 7.182C211.353 7.086 211.551 6.93 211.683 6.714C211.815 6.492 211.881 6.204 211.881 5.85C211.881 5.382 211.743 5.034 211.467 4.806C211.197 4.578 210.786 4.464 210.234 4.464H208.542V4.041H210.243C210.699 4.041 211.083 4.104 211.395 4.23C211.713 4.356 211.956 4.551 212.124 4.815C212.292 5.079 212.376 5.418 212.376 5.832C212.376 6.288 212.286 6.657 212.106 6.939C211.926 7.221 211.668 7.428 211.332 7.56C210.996 7.692 210.597 7.758 210.135 7.758H208.542V7.326H210.135ZM213.465 1.314H213.942V7.758H213.465V1.314Z" fill="white" style="fill:white;fill-opacity:1;"/>
<path d="M217.778 1.314H218.255V7.758H217.778V1.314ZM218.003 7.758V7.326H221.891V7.758H218.003ZM218.003 4.563V4.131H221.351V4.563H218.003ZM218.003 1.746V1.314H221.846V1.746H218.003Z" fill="white" style="fill:white;fill-opacity:1;"/>
<path d="M233.653 1.314H234.139V7.758H233.653V1.314ZM229.252 1.314H229.729V7.758H229.252V1.314ZM229.45 1.746V1.314H233.905V1.746H229.45Z" fill="white" style="fill:white;fill-opacity:1;"/>
<path d="M240.705 7.848C240.255 7.848 239.841 7.773 239.463 7.623C239.085 7.473 238.755 7.254 238.473 6.966C238.191 6.678 237.972 6.327 237.816 5.913C237.666 5.499 237.591 5.031 237.591 4.509C237.591 3.987 237.666 3.522 237.816 3.114C237.972 2.706 238.191 2.364 238.473 2.088C238.755 1.806 239.085 1.593 239.463 1.449C239.841 1.305 240.255 1.233 240.705 1.233C241.155 1.233 241.566 1.305 241.938 1.449C242.316 1.593 242.643 1.806 242.919 2.088C243.201 2.37 243.42 2.715 243.576 3.123C243.732 3.525 243.81 3.987 243.81 4.509C243.81 5.031 243.732 5.499 243.576 5.913C243.42 6.327 243.201 6.678 242.919 6.966C242.643 7.254 242.316 7.473 241.938 7.623C241.566 7.773 241.155 7.848 240.705 7.848ZM240.705 7.416C241.209 7.416 241.656 7.308 242.046 7.092C242.442 6.876 242.751 6.555 242.973 6.129C243.201 5.703 243.315 5.175 243.315 4.545C243.315 3.903 243.201 3.369 242.973 2.943C242.751 2.517 242.442 2.196 242.046 1.98C241.656 1.764 241.209 1.656 240.705 1.656C240.195 1.656 239.742 1.764 239.346 1.98C238.956 2.196 238.647 2.517 238.419 2.943C238.197 3.369 238.086 3.903 238.086 4.545C238.086 5.175 238.197 5.703 238.419 6.129C238.647 6.555 238.956 6.876 239.346 7.092C239.742 7.308 240.195 7.416 240.705 7.416Z" fill="white" style="fill:white;fill-opacity:1;"/>
<path d="M250.055 7.848C249.407 7.848 248.846 7.716 248.372 7.452C247.898 7.182 247.533 6.801 247.275 6.309C247.023 5.817 246.896 5.229 246.896 4.545C246.896 3.849 247.02 3.255 247.266 2.763C247.518 2.271 247.878 1.893 248.346 1.629C248.814 1.365 249.381 1.233 250.047 1.233C250.473 1.233 250.86 1.284 251.208 1.386C251.562 1.488 251.856 1.626 252.09 1.8V2.286C251.934 2.16 251.745 2.052 251.523 1.962C251.301 1.866 251.064 1.791 250.812 1.737C250.56 1.683 250.305 1.656 250.047 1.656C249.471 1.656 248.985 1.77 248.589 1.998C248.199 2.22 247.902 2.547 247.698 2.979C247.494 3.411 247.392 3.933 247.392 4.545C247.392 5.151 247.496 5.67 247.706 6.102C247.916 6.528 248.222 6.855 248.624 7.083C249.026 7.305 249.513 7.416 250.083 7.416C250.341 7.416 250.593 7.392 250.839 7.344C251.085 7.29 251.316 7.212 251.532 7.11C251.748 7.008 251.934 6.888 252.09 6.75V7.236C251.856 7.428 251.565 7.578 251.217 7.686C250.869 7.794 250.481 7.848 250.055 7.848Z" fill="white" style="fill:white;fill-opacity:1;"/>
<path d="M256.522 1.314H259.879V1.746H256.522V1.314ZM259.618 7.758V1.314H260.095V7.758H259.618ZM254.947 7.308C255.151 7.32 255.322 7.278 255.46 7.182C255.604 7.086 255.724 6.933 255.82 6.723C255.916 6.513 255.991 6.24 256.045 5.904C256.081 5.706 256.114 5.466 256.144 5.184C256.174 4.902 256.198 4.575 256.216 4.203C256.24 3.825 256.261 3.399 256.279 2.925C256.303 2.445 256.321 1.908 256.333 1.314H256.792C256.774 1.998 256.756 2.592 256.738 3.096C256.72 3.594 256.699 4.023 256.675 4.383C256.651 4.743 256.624 5.055 256.594 5.319C256.57 5.577 256.543 5.805 256.513 6.003C256.447 6.333 256.369 6.615 256.279 6.849C256.195 7.077 256.09 7.263 255.964 7.407C255.844 7.545 255.7 7.647 255.532 7.713C255.364 7.773 255.169 7.8 254.947 7.794V7.308Z" fill="white" style="fill:white;fill-opacity:1;"/>
<path d="M263.925 1.314H264.402V7.758H263.925V1.314ZM264.15 7.758V7.326H268.038V7.758H264.15ZM264.15 4.563V4.131H267.498V4.563H264.15ZM264.15 1.746V1.314H267.993V1.746H264.15Z" fill="white" style="fill:white;fill-opacity:1;"/>
<path d="M270.896 7.326H271.409L271.319 9.279H270.896V7.326ZM271.121 7.443C271.397 7.371 271.613 7.191 271.769 6.903C271.931 6.609 272.051 6.207 272.129 5.697C272.213 5.187 272.27 4.569 272.3 3.843C272.336 3.111 272.363 2.268 272.381 1.314H272.849C272.825 2.106 272.801 2.817 272.777 3.447C272.753 4.071 272.717 4.623 272.669 5.103C272.627 5.577 272.564 5.982 272.48 6.318C272.402 6.654 272.297 6.927 272.165 7.137C272.033 7.341 271.865 7.491 271.661 7.587L271.121 7.443ZM272.624 1.314H276.107V1.746H272.624V1.314ZM271.202 7.326H276.962V7.758H271.202V7.326ZM275.864 7.758V1.314H276.341V7.758H275.864ZM276.692 9.279L276.62 7.326H277.133V9.279H276.692Z" fill="white" style="fill:white;fill-opacity:1;"/>
<path d="M283.129 7.848C282.481 7.848 281.92 7.716 281.446 7.452C280.972 7.182 280.606 6.801 280.348 6.309C280.096 5.817 279.97 5.229 279.97 4.545C279.97 3.849 280.093 3.255 280.339 2.763C280.591 2.271 280.951 1.893 281.419 1.629C281.887 1.365 282.454 1.233 283.12 1.233C283.546 1.233 283.933 1.284 284.281 1.386C284.635 1.488 284.929 1.626 285.163 1.8V2.286C285.007 2.16 284.818 2.052 284.596 1.962C284.374 1.866 284.137 1.791 283.885 1.737C283.633 1.683 283.378 1.656 283.12 1.656C282.544 1.656 282.058 1.77 281.662 1.998C281.272 2.22 280.975 2.547 280.771 2.979C280.567 3.411 280.465 3.933 280.465 4.545C280.465 5.151 280.57 5.67 280.78 6.102C280.99 6.528 281.296 6.855 281.698 7.083C282.1 7.305 282.586 7.416 283.156 7.416C283.414 7.416 283.666 7.392 283.912 7.344C284.158 7.29 284.389 7.212 284.605 7.11C284.821 7.008 285.007 6.888 285.163 6.75V7.236C284.929 7.428 284.638 7.578 284.29 7.686C283.942 7.794 283.555 7.848 283.129 7.848Z" fill="white" style="fill:white;fill-opacity:1;"/>
<path d="M288.046 1.755V1.314H293.131V1.755H288.046ZM290.35 1.386H290.827V7.758H290.35V1.386Z" fill="white" style="fill:white;fill-opacity:1;"/>
<path d="M298.393 7.326C298.771 7.326 299.101 7.284 299.383 7.2C299.665 7.11 299.884 6.966 300.04 6.768C300.196 6.564 300.274 6.294 300.274 5.958C300.274 5.658 300.208 5.412 300.076 5.22C299.95 5.028 299.755 4.887 299.491 4.797C299.227 4.701 298.891 4.653 298.483 4.653H296.576V4.374H298.6C299.332 4.374 299.875 4.5 300.229 4.752C300.589 5.004 300.77 5.403 300.77 5.949C300.77 6.381 300.664 6.732 300.454 7.002C300.244 7.266 299.959 7.458 299.599 7.578C299.239 7.698 298.837 7.758 298.393 7.758H296.576V7.326H298.393ZM296.269 1.314H296.746V7.758H296.269V1.314ZM298.321 4.23C298.675 4.23 298.984 4.185 299.248 4.095C299.512 4.005 299.716 3.861 299.86 3.663C300.01 3.465 300.085 3.21 300.085 2.898C300.085 2.622 300.022 2.4 299.896 2.232C299.776 2.064 299.596 1.941 299.356 1.863C299.116 1.785 298.816 1.746 298.456 1.746H296.576V1.314H298.456C298.912 1.314 299.296 1.371 299.608 1.485C299.92 1.593 300.157 1.761 300.319 1.989C300.481 2.217 300.562 2.511 300.562 2.871C300.562 3.171 300.508 3.426 300.4 3.636C300.292 3.84 300.139 4.008 299.941 4.14C299.749 4.266 299.518 4.359 299.248 4.419C298.978 4.473 298.681 4.5 298.357 4.5H296.576V4.23H298.321Z" fill="white" style="fill:white;fill-opacity:1;"/>
<path d="M308.964 1.314H309.45V7.758H308.964V1.314ZM304.257 1.314H304.734V7.758H304.257V1.314ZM304.752 7.758H304.356L304.5 7.443L308.946 1.314H309.333L309.243 1.575L304.752 7.758Z" fill="white" style="fill:white;fill-opacity:1;"/>
<path d="M313.317 3.114C313.317 2.694 313.404 2.352 313.578 2.088C313.752 1.824 314.001 1.629 314.325 1.503C314.649 1.377 315.036 1.314 315.486 1.314H317.214V1.746H315.486C315.126 1.746 314.82 1.794 314.568 1.89C314.316 1.986 314.127 2.136 314.001 2.34C313.875 2.538 313.812 2.796 313.812 3.114C313.812 3.63 313.953 4.002 314.235 4.23C314.523 4.458 314.952 4.572 315.522 4.572H317.214V5.004H315.441L315.279 4.968C314.859 4.944 314.502 4.863 314.208 4.725C313.92 4.587 313.698 4.386 313.542 4.122C313.392 3.852 313.317 3.516 313.317 3.114ZM315.054 4.842H315.603L313.389 7.758H312.795L315.054 4.842ZM317.07 1.314H317.547V7.758H317.07V1.314Z" fill="white" style="fill:white;fill-opacity:1;"/>
<path d="M321.454 8.622H321.058C321.166 8.496 321.259 8.355 321.337 8.199C321.415 8.043 321.46 7.905 321.472 7.785C321.364 7.773 321.277 7.731 321.211 7.659C321.145 7.587 321.112 7.503 321.112 7.407C321.112 7.299 321.148 7.206 321.22 7.128C321.292 7.05 321.391 7.011 321.517 7.011C321.643 7.011 321.742 7.053 321.814 7.137C321.892 7.221 321.931 7.335 321.931 7.479C321.931 7.611 321.904 7.749 321.85 7.893C321.802 8.043 321.739 8.181 321.661 8.307C321.589 8.439 321.52 8.544 321.454 8.622Z" fill="white" style="fill:white;fill-opacity:1;"/>
<path d="M3.39278 19.326C3.77078 19.326 4.10078 19.284 4.38278 19.2C4.66478 19.11 4.88378 18.966 5.03978 18.768C5.19578 18.564 5.27378 18.294 5.27378 17.958C5.27378 17.658 5.20778 17.412 5.07578 17.22C4.94978 17.028 4.75478 16.887 4.49078 16.797C4.22678 16.701 3.89078 16.653 3.48278 16.653H1.57478V16.374H3.59978C4.33178 16.374 4.87478 16.5 5.22878 16.752C5.58878 17.004 5.76878 17.403 5.76878 17.949C5.76878 18.381 5.66378 18.732 5.45378 19.002C5.24378 19.266 4.95878 19.458 4.59878 19.578C4.23878 19.698 3.83678 19.758 3.39278 19.758H1.57478V19.326H3.39278ZM1.26878 13.314H1.74578V19.758H1.26878V13.314ZM3.32078 16.23C3.67478 16.23 3.98378 16.185 4.24778 16.095C4.51178 16.005 4.71578 15.861 4.85978 15.663C5.00978 15.465 5.08478 15.21 5.08478 14.898C5.08478 14.622 5.02178 14.4 4.89578 14.232C4.77578 14.064 4.59578 13.941 4.35578 13.863C4.11578 13.785 3.81578 13.746 3.45578 13.746H1.57478V13.314H3.45578C3.91178 13.314 4.29578 13.371 4.60778 13.485C4.91978 13.593 5.15678 13.761 5.31878 13.989C5.48078 14.217 5.56178 14.511 5.56178 14.871C5.56178 15.171 5.50778 15.426 5.39978 15.636C5.29178 15.84 5.13878 16.008 4.94078 16.14C4.74878 16.266 4.51778 16.359 4.24778 16.419C3.97778 16.473 3.68078 16.5 3.35678 16.5H1.57478V16.23H3.32078Z" fill="white" style="fill:white;fill-opacity:1;"/>
<path d="M11.708 13.755V13.314H16.793V13.755H11.708ZM14.012 13.386H14.489V19.758H14.012V13.386Z" fill="white" style="fill:white;fill-opacity:1;"/>
<path d="M21.9646 19.848C21.5146 19.848 21.1006 19.773 20.7226 19.623C20.3446 19.473 20.0146 19.254 19.7326 18.966C19.4506 18.678 19.2316 18.327 19.0756 17.913C18.9256 17.499 18.8506 17.031 18.8506 16.509C18.8506 15.987 18.9256 15.522 19.0756 15.114C19.2316 14.706 19.4506 14.364 19.7326 14.088C20.0146 13.806 20.3446 13.593 20.7226 13.449C21.1006 13.305 21.5146 13.233 21.9646 13.233C22.4146 13.233 22.8256 13.305 23.1976 13.449C23.5756 13.593 23.9026 13.806 24.1786 14.088C24.4606 14.37 24.6796 14.715 24.8356 15.123C24.9916 15.525 25.0696 15.987 25.0696 16.509C25.0696 17.031 24.9916 17.499 24.8356 17.913C24.6796 18.327 24.4606 18.678 24.1786 18.966C23.9026 19.254 23.5756 19.473 23.1976 19.623C22.8256 19.773 22.4146 19.848 21.9646 19.848ZM21.9646 19.416C22.4686 19.416 22.9156 19.308 23.3056 19.092C23.7016 18.876 24.0106 18.555 24.2326 18.129C24.4606 17.703 24.5746 17.175 24.5746 16.545C24.5746 15.903 24.4606 15.369 24.2326 14.943C24.0106 14.517 23.7016 14.196 23.3056 13.98C22.9156 13.764 22.4686 13.656 21.9646 13.656C21.4546 13.656 21.0016 13.764 20.6056 13.98C20.2156 14.196 19.9066 14.517 19.6786 14.943C19.4566 15.369 19.3456 15.903 19.3456 16.545C19.3456 17.175 19.4566 17.703 19.6786 18.129C19.9066 18.555 20.2156 18.876 20.6056 19.092C21.0016 19.308 21.4546 19.416 21.9646 19.416Z" fill="white" style="fill:white;fill-opacity:1;"/>
<path d="M31.3691 18.786H31.0361L28.3001 13.314H28.8221L31.4861 18.651L31.3691 18.786ZM28.1651 13.314H28.6061V19.758H28.1651V13.314ZM31.5401 18.786L31.0811 18.777L33.8261 13.314H34.3031L31.5401 18.786ZM33.9791 13.314H34.4561V19.758H33.9791V13.314Z" fill="white" style="fill:white;fill-opacity:1;"/>
<path d="M45.303 13.314H45.771V19.758H45.303V13.314ZM41.28 15.033V13.314H41.766V15.033C41.766 15.453 41.835 15.801 41.973 16.077C42.111 16.347 42.306 16.545 42.558 16.671C42.81 16.797 43.104 16.86 43.44 16.86C43.8 16.86 44.151 16.818 44.493 16.734C44.841 16.65 45.159 16.482 45.447 16.23L45.564 16.581C45.264 16.821 44.94 16.998 44.592 17.112C44.244 17.22 43.863 17.274 43.449 17.274C43.017 17.274 42.636 17.199 42.306 17.049C41.982 16.893 41.73 16.65 41.55 16.32C41.37 15.99 41.28 15.561 41.28 15.033Z" fill="white" style="fill:white;fill-opacity:1;"/>
<path d="M53.9518 13.314H54.4378V19.758H53.9518V13.314ZM49.2448 13.314H49.7218V19.758H49.2448V13.314ZM49.7398 19.758H49.3438L49.4878 19.443L53.9338 13.314H54.3208L54.2308 13.575L49.7398 19.758Z" fill="white" style="fill:white;fill-opacity:1;"/>
<path d="M60.699 19.848C60.051 19.848 59.49 19.716 59.016 19.452C58.542 19.182 58.176 18.801 57.918 18.309C57.666 17.817 57.54 17.229 57.54 16.545C57.54 15.849 57.663 15.255 57.909 14.763C58.161 14.271 58.521 13.893 58.989 13.629C59.457 13.365 60.024 13.233 60.69 13.233C61.116 13.233 61.503 13.284 61.851 13.386C62.205 13.488 62.499 13.626 62.733 13.8V14.286C62.577 14.16 62.388 14.052 62.166 13.962C61.944 13.866 61.707 13.791 61.455 13.737C61.203 13.683 60.948 13.656 60.69 13.656C60.114 13.656 59.628 13.77 59.232 13.998C58.842 14.22 58.545 14.547 58.341 14.979C58.137 15.411 58.035 15.933 58.035 16.545C58.035 17.151 58.14 17.67 58.35 18.102C58.56 18.528 58.866 18.855 59.268 19.083C59.67 19.305 60.156 19.416 60.726 19.416C60.984 19.416 61.236 19.392 61.482 19.344C61.728 19.29 61.959 19.212 62.175 19.11C62.391 19.008 62.577 18.888 62.733 18.75V19.236C62.499 19.428 62.208 19.578 61.86 19.686C61.512 19.794 61.125 19.848 60.699 19.848Z" fill="white" style="fill:white;fill-opacity:1;"/>
<path d="M66.8057 13.314H70.1627V13.746H66.8057V13.314ZM69.9017 19.758V13.314H70.3787V19.758H69.9017ZM65.2307 19.308C65.4347 19.32 65.6057 19.278 65.7437 19.182C65.8877 19.086 66.0077 18.933 66.1037 18.723C66.1997 18.513 66.2747 18.24 66.3287 17.904C66.3647 17.706 66.3977 17.466 66.4277 17.184C66.4577 16.902 66.4817 16.575 66.4997 16.203C66.5237 15.825 66.5447 15.399 66.5627 14.925C66.5867 14.445 66.6047 13.908 66.6167 13.314H67.0757C67.0577 13.998 67.0397 14.592 67.0217 15.096C67.0037 15.594 66.9827 16.023 66.9587 16.383C66.9347 16.743 66.9077 17.055 66.8777 17.319C66.8537 17.577 66.8267 17.805 66.7967 18.003C66.7307 18.333 66.6527 18.615 66.5627 18.849C66.4787 19.077 66.3737 19.263 66.2477 19.407C66.1277 19.545 65.9837 19.647 65.8157 19.713C65.6477 19.773 65.4527 19.8 65.2307 19.794V19.308Z" fill="white" style="fill:white;fill-opacity:1;"/>
<path d="M73.8489 13.314H74.3259V19.758H73.8489V13.314ZM74.0739 19.758V19.326H77.9619V19.758H74.0739ZM74.0739 16.563V16.131H77.4219V16.563H74.0739ZM74.0739 13.746V13.314H77.9169V13.746H74.0739Z" fill="white" style="fill:white;fill-opacity:1;"/>
<path d="M87.3482 19.848C86.8982 19.848 86.4842 19.773 86.1062 19.623C85.7282 19.473 85.3982 19.254 85.1162 18.966C84.8342 18.678 84.6152 18.327 84.4592 17.913C84.3092 17.499 84.2342 17.031 84.2342 16.509C84.2342 15.987 84.3092 15.522 84.4592 15.114C84.6152 14.706 84.8342 14.364 85.1162 14.088C85.3982 13.806 85.7282 13.593 86.1062 13.449C86.4842 13.305 86.8982 13.233 87.3482 13.233C87.7982 13.233 88.2092 13.305 88.5812 13.449C88.9592 13.593 89.2862 13.806 89.5622 14.088C89.8442 14.37 90.0632 14.715 90.2192 15.123C90.3752 15.525 90.4532 15.987 90.4532 16.509C90.4532 17.031 90.3752 17.499 90.2192 17.913C90.0632 18.327 89.8442 18.678 89.5622 18.966C89.2862 19.254 88.9592 19.473 88.5812 19.623C88.2092 19.773 87.7982 19.848 87.3482 19.848ZM87.3482 19.416C87.8522 19.416 88.2992 19.308 88.6892 19.092C89.0852 18.876 89.3942 18.555 89.6162 18.129C89.8442 17.703 89.9582 17.175 89.9582 16.545C89.9582 15.903 89.8442 15.369 89.6162 14.943C89.3942 14.517 89.0852 14.196 88.6892 13.98C88.2992 13.764 87.8522 13.656 87.3482 13.656C86.8382 13.656 86.3852 13.764 85.9892 13.98C85.5992 14.196 85.2902 14.517 85.0622 14.943C84.8402 15.369 84.7292 15.903 84.7292 16.545C84.7292 17.175 84.8402 17.703 85.0622 18.129C85.2902 18.555 85.5992 18.876 85.9892 19.092C86.3852 19.308 86.8382 19.416 87.3482 19.416Z" fill="white" style="fill:white;fill-opacity:1;"/>
<path d="M93.8187 13.746V13.314H97.1937V13.746H93.8187ZM93.5487 13.314H94.0257V19.758H93.5487V13.314Z" fill="white" style="fill:white;fill-opacity:1;"/>
<path d="M101.996 16.599C102.38 16.599 102.704 16.548 102.968 16.446C103.232 16.344 103.43 16.185 103.562 15.969C103.7 15.747 103.769 15.459 103.769 15.105C103.769 14.793 103.706 14.538 103.58 14.34C103.454 14.142 103.268 13.995 103.022 13.899C102.776 13.797 102.467 13.746 102.095 13.746H100.34V13.314H102.095C102.779 13.314 103.307 13.461 103.679 13.755C104.057 14.043 104.246 14.49 104.246 15.096C104.246 15.546 104.156 15.915 103.976 16.203C103.796 16.485 103.538 16.692 103.202 16.824C102.866 16.956 102.464 17.022 101.996 17.022H100.34V16.599H101.996ZM100.007 13.314H100.484V19.758H100.007V13.314Z" fill="white" style="fill:white;fill-opacity:1;"/>
<path d="M111.868 19.758H111.373L108.79 13.332L108.799 13.314H109.285L111.868 19.758ZM108.628 13.314H109.078L106.522 19.758H106.072L108.628 13.314ZM107.089 17.715V17.283H110.779V17.715H107.089Z" fill="white" style="fill:white;fill-opacity:1;"/>
<path d="M119.226 13.314H119.703V19.758H119.226V13.314ZM114.672 13.314H115.149V19.758H114.672V13.314ZM114.933 16.779V16.347H119.442V16.779H114.933Z" fill="white" style="fill:white;fill-opacity:1;"/>
<path d="M127.885 13.314H128.371V19.758H127.885V13.314ZM123.178 13.314H123.655V19.758H123.178V13.314ZM123.673 19.758H123.277L123.421 19.443L127.867 13.314H128.254L128.164 13.575L123.673 19.758Z" fill="white" style="fill:white;fill-opacity:1;"/>
<path d="M135.713 13.314H136.181V19.758H135.713V13.314ZM131.69 15.033V13.314H132.176V15.033C132.176 15.453 132.245 15.801 132.383 16.077C132.521 16.347 132.716 16.545 132.968 16.671C133.22 16.797 133.514 16.86 133.85 16.86C134.21 16.86 134.561 16.818 134.903 16.734C135.251 16.65 135.569 16.482 135.857 16.23L135.974 16.581C135.674 16.821 135.35 16.998 135.002 17.112C134.654 17.22 134.273 17.274 133.859 17.274C133.427 17.274 133.046 17.199 132.716 17.049C132.392 16.893 132.14 16.65 131.96 16.32C131.78 15.99 131.69 15.561 131.69 15.033Z" fill="white" style="fill:white;fill-opacity:1;"/>
<path d="M139.654 13.314H140.131V19.758H139.654V13.314ZM139.879 19.758V19.326H143.767V19.758H139.879ZM139.879 16.563V16.131H143.227V16.563H139.879ZM139.879 13.746V13.314H143.722V13.746H139.879Z" fill="white" style="fill:white;fill-opacity:1;"/>
<path d="M151.458 13.314H151.935V19.758H151.458V13.314ZM146.904 13.314H147.381V19.758H146.904V13.314ZM147.165 16.779V16.347H151.674V16.779H147.165Z" fill="white" style="fill:white;fill-opacity:1;"/>
<path d="M160.117 13.314H160.603V19.758H160.117V13.314ZM155.41 13.314H155.887V19.758H155.41V13.314ZM155.905 19.758H155.509L155.653 19.443L160.099 13.314H160.486L160.396 13.575L155.905 19.758Z" fill="white" style="fill:white;fill-opacity:1;"/>
<path d="M164.11 15.114C164.11 14.694 164.197 14.352 164.371 14.088C164.545 13.824 164.794 13.629 165.118 13.503C165.442 13.377 165.829 13.314 166.279 13.314H168.007V13.746H166.279C165.919 13.746 165.613 13.794 165.361 13.89C165.109 13.986 164.92 14.136 164.794 14.34C164.668 14.538 164.605 14.796 164.605 15.114C164.605 15.63 164.746 16.002 165.028 16.23C165.316 16.458 165.745 16.572 166.315 16.572H168.007V17.004H166.234L166.072 16.968C165.652 16.944 165.295 16.863 165.001 16.725C164.713 16.587 164.491 16.386 164.335 16.122C164.185 15.852 164.11 15.516 164.11 15.114ZM165.847 16.842H166.396L164.182 19.758H163.588L165.847 16.842ZM167.863 13.314H168.34V19.758H167.863V13.314Z" fill="white" style="fill:white;fill-opacity:1;"/>
<path d="M179.874 13.314H180.351V19.758H179.874V13.314ZM175.32 13.314H175.797V19.758H175.32V13.314ZM175.581 16.779V16.347H180.09V16.779H175.581Z" fill="white" style="fill:white;fill-opacity:1;"/>
<path d="M188.965 19.758H188.47L185.887 13.332L185.896 13.314H186.382L188.965 19.758ZM185.725 13.314H186.175L183.619 19.758H183.169L185.725 13.314ZM184.186 17.715V17.283H187.876V17.715H184.186Z" fill="white" style="fill:white;fill-opacity:1;"/>
<path d="M199.676 13.314H200.162V19.758H199.676V13.314ZM195.275 13.314H195.752V19.758H195.275V13.314ZM195.473 13.746V13.314H199.928V13.746H195.473Z" fill="white" style="fill:white;fill-opacity:1;"/>
<path d="M206.368 19.848C205.918 19.848 205.504 19.773 205.126 19.623C204.748 19.473 204.418 19.254 204.136 18.966C203.854 18.678 203.635 18.327 203.479 17.913C203.329 17.499 203.254 17.031 203.254 16.509C203.254 15.987 203.329 15.522 203.479 15.114C203.635 14.706 203.854 14.364 204.136 14.088C204.418 13.806 204.748 13.593 205.126 13.449C205.504 13.305 205.918 13.233 206.368 13.233C206.818 13.233 207.229 13.305 207.601 13.449C207.979 13.593 208.306 13.806 208.582 14.088C208.864 14.37 209.083 14.715 209.239 15.123C209.395 15.525 209.473 15.987 209.473 16.509C209.473 17.031 209.395 17.499 209.239 17.913C209.083 18.327 208.864 18.678 208.582 18.966C208.306 19.254 207.979 19.473 207.601 19.623C207.229 19.773 206.818 19.848 206.368 19.848ZM206.368 19.416C206.872 19.416 207.319 19.308 207.709 19.092C208.105 18.876 208.414 18.555 208.636 18.129C208.864 17.703 208.978 17.175 208.978 16.545C208.978 15.903 208.864 15.369 208.636 14.943C208.414 14.517 208.105 14.196 207.709 13.98C207.319 13.764 206.872 13.656 206.368 13.656C205.858 13.656 205.405 13.764 205.009 13.98C204.619 14.196 204.31 14.517 204.082 14.943C203.86 15.369 203.749 15.903 203.749 16.545C203.749 17.175 203.86 17.703 204.082 18.129C204.31 18.555 204.619 18.876 205.009 19.092C205.405 19.308 205.858 19.416 206.368 19.416Z" fill="white" style="fill:white;fill-opacity:1;"/>
<path d="M213.188 13.314H216.545V13.746H213.188V13.314ZM216.284 19.758V13.314H216.761V19.758H216.284ZM211.613 19.308C211.817 19.32 211.988 19.278 212.126 19.182C212.27 19.086 212.39 18.933 212.486 18.723C212.582 18.513 212.657 18.24 212.711 17.904C212.747 17.706 212.78 17.466 212.81 17.184C212.84 16.902 212.864 16.575 212.882 16.203C212.906 15.825 212.927 15.399 212.945 14.925C212.969 14.445 212.987 13.908 212.999 13.314H213.458C213.44 13.998 213.422 14.592 213.404 15.096C213.386 15.594 213.365 16.023 213.341 16.383C213.317 16.743 213.29 17.055 213.26 17.319C213.236 17.577 213.209 17.805 213.179 18.003C213.113 18.333 213.035 18.615 212.945 18.849C212.861 19.077 212.756 19.263 212.63 19.407C212.51 19.545 212.366 19.647 212.198 19.713C212.03 19.773 211.835 19.8 211.613 19.794V19.308Z" fill="white" style="fill:white;fill-opacity:1;"/>
<path d="M222.185 18.426L219.593 13.314H220.142L222.437 17.859L222.185 18.426ZM220.574 19.272C220.598 19.278 220.622 19.281 220.646 19.281C220.676 19.281 220.712 19.281 220.754 19.281C220.958 19.281 221.141 19.236 221.303 19.146C221.465 19.056 221.615 18.912 221.753 18.714C221.891 18.516 222.026 18.255 222.158 17.931L222.239 17.76L224.192 13.314H224.714L222.599 18.021C222.401 18.465 222.212 18.813 222.032 19.065C221.858 19.317 221.672 19.497 221.474 19.605C221.276 19.713 221.042 19.767 220.772 19.767C220.73 19.767 220.691 19.767 220.655 19.767C220.625 19.767 220.598 19.764 220.574 19.758V19.272Z" fill="white" style="fill:white;fill-opacity:1;"/>
<path d="M231.376 13.314H231.844V19.758H231.376V13.314ZM227.353 15.033V13.314H227.839V15.033C227.839 15.453 227.908 15.801 228.046 16.077C228.184 16.347 228.379 16.545 228.631 16.671C228.883 16.797 229.177 16.86 229.513 16.86C229.873 16.86 230.224 16.818 230.566 16.734C230.914 16.65 231.232 16.482 231.52 16.23L231.637 16.581C231.337 16.821 231.013 16.998 230.665 17.112C230.317 17.22 229.936 17.274 229.522 17.274C229.09 17.274 228.709 17.199 228.379 17.049C228.055 16.893 227.803 16.65 227.623 16.32C227.443 15.99 227.353 15.561 227.353 15.033Z" fill="white" style="fill:white;fill-opacity:1;"/>
<path d="M235.318 13.314H235.795V19.758H235.318V13.314ZM235.543 19.758V19.326H239.431V19.758H235.543ZM235.543 16.563V16.131H238.891V16.563H235.543ZM235.543 13.746V13.314H239.386V13.746H235.543Z" fill="white" style="fill:white;fill-opacity:1;"/>
<path d="M247.121 13.314H247.598V19.758H247.121V13.314ZM242.567 13.314H243.044V19.758H242.567V13.314ZM242.828 16.779V16.347H247.337V16.779H242.828Z" fill="white" style="fill:white;fill-opacity:1;"/>
<path d="M255.78 13.314H256.266V19.758H255.78V13.314ZM251.073 13.314H251.55V19.758H251.073V13.314ZM251.568 19.758H251.172L251.316 19.443L255.762 13.314H256.149L256.059 13.575L251.568 19.758Z" fill="white" style="fill:white;fill-opacity:1;"/>
<path d="M259.738 13.314H260.215V19.758H259.738V13.314ZM259.963 19.758V19.326H263.851V19.758H259.963ZM259.963 16.563V16.131H263.311V16.563H259.963ZM259.963 13.746V13.314H263.806V13.746H259.963Z" fill="white" style="fill:white;fill-opacity:1;"/>
<path d="M270.492 13.314H270.969V19.758H270.492V13.314ZM270.789 16.743V16.311H272.193V16.743H270.789ZM275.181 19.758H274.587L271.833 16.527L274.497 13.314H275.046L272.256 16.671L272.301 16.383L275.181 19.758Z" fill="white" style="fill:white;fill-opacity:1;"/>
<path d="M279.994 16.599C280.378 16.599 280.702 16.548 280.966 16.446C281.23 16.344 281.428 16.185 281.56 15.969C281.698 15.747 281.767 15.459 281.767 15.105C281.767 14.793 281.704 14.538 281.578 14.34C281.452 14.142 281.266 13.995 281.02 13.899C280.774 13.797 280.465 13.746 280.093 13.746H278.338V13.314H280.093C280.777 13.314 281.305 13.461 281.677 13.755C282.055 14.043 282.244 14.49 282.244 15.096C282.244 15.546 282.154 15.915 281.974 16.203C281.794 16.485 281.536 16.692 281.2 16.824C280.864 16.956 280.462 17.022 279.994 17.022H278.338V16.599H279.994ZM278.005 13.314H278.482V19.758H278.005V13.314Z" fill="white" style="fill:white;fill-opacity:1;"/>
<path d="M285.307 13.314H285.784V19.758H285.307V13.314ZM285.532 19.758V19.326H289.42V19.758H285.532ZM285.532 16.563V16.131H288.88V16.563H285.532ZM285.532 13.746V13.314H289.375V13.746H285.532Z" fill="white" style="fill:white;fill-opacity:1;"/>
<path d="M291.917 19.326H292.43L292.34 21.279H291.917V19.326ZM292.142 19.443C292.418 19.371 292.634 19.191 292.79 18.903C292.952 18.609 293.072 18.207 293.15 17.697C293.234 17.187 293.291 16.569 293.321 15.843C293.357 15.111 293.384 14.268 293.402 13.314H293.87C293.846 14.106 293.822 14.817 293.798 15.447C293.774 16.071 293.738 16.623 293.69 17.103C293.648 17.577 293.585 17.982 293.501 18.318C293.423 18.654 293.318 18.927 293.186 19.137C293.054 19.341 292.886 19.491 292.682 19.587L292.142 19.443ZM293.645 13.314H297.128V13.746H293.645V13.314ZM292.223 19.326H297.983V19.758H292.223V19.326ZM296.885 19.758V13.314H297.362V19.758H296.885ZM297.713 21.279L297.641 19.326H298.154V21.279H297.713Z" fill="white" style="fill:white;fill-opacity:1;"/>
<path d="M305.795 13.314H306.281V19.758H305.795V13.314ZM301.088 13.314H301.565V19.758H301.088V13.314ZM301.583 19.758H301.187L301.331 19.443L305.777 13.314H306.164L306.074 13.575L301.583 19.758Z" fill="white" style="fill:white;fill-opacity:1;"/>
<path d="M309.06 13.755V13.314H314.145V13.755H309.06ZM311.364 13.386H311.841V19.758H311.364V13.386Z" fill="white" style="fill:white;fill-opacity:1;"/>
<path d="M321.42 19.758H320.925L318.342 13.332L318.351 13.314H318.837L321.42 19.758ZM318.18 13.314H318.63L316.074 19.758H315.624L318.18 13.314ZM316.641 17.715V17.283H320.331V17.715H316.641Z" fill="white" style="fill:white;fill-opacity:1;"/>
<path d="M6.3604 25.314H6.8464V31.758H6.3604V25.314ZM1.6534 25.314H2.1304V31.758H1.6534V25.314ZM2.1484 31.758H1.7524L1.8964 31.443L6.3424 25.314H6.7294L6.6394 25.575L2.1484 31.758Z" fill="white" style="fill:white;fill-opacity:1;"/>
<path d="M18.9437 25.314H19.4297V31.758H18.9437V25.314ZM14.5427 25.314H15.0197V31.758H14.5427V25.314ZM14.7407 25.746V25.314H19.1957V25.746H14.7407Z" fill="white" style="fill:white;fill-opacity:1;"/>
<path d="M25.9956 31.848C25.5456 31.848 25.1316 31.773 24.7536 31.623C24.3756 31.473 24.0456 31.254 23.7636 30.966C23.4816 30.678 23.2626 30.327 23.1066 29.913C22.9566 29.499 22.8816 29.031 22.8816 28.509C22.8816 27.987 22.9566 27.522 23.1066 27.114C23.2626 26.706 23.4816 26.364 23.7636 26.088C24.0456 25.806 24.3756 25.593 24.7536 25.449C25.1316 25.305 25.5456 25.233 25.9956 25.233C26.4456 25.233 26.8566 25.305 27.2286 25.449C27.6066 25.593 27.9336 25.806 28.2096 26.088C28.4916 26.37 28.7106 26.715 28.8666 27.123C29.0226 27.525 29.1006 27.987 29.1006 28.509C29.1006 29.031 29.0226 29.499 28.8666 29.913C28.7106 30.327 28.4916 30.678 28.2096 30.966C27.9336 31.254 27.6066 31.473 27.2286 31.623C26.8566 31.773 26.4456 31.848 25.9956 31.848ZM25.9956 31.416C26.4996 31.416 26.9466 31.308 27.3366 31.092C27.7326 30.876 28.0416 30.555 28.2636 30.129C28.4916 29.703 28.6056 29.175 28.6056 28.545C28.6056 27.903 28.4916 27.369 28.2636 26.943C28.0416 26.517 27.7326 26.196 27.3366 25.98C26.9466 25.764 26.4996 25.656 25.9956 25.656C25.4856 25.656 25.0326 25.764 24.6366 25.98C24.2466 26.196 23.9376 26.517 23.7096 26.943C23.4876 27.369 23.3766 27.903 23.3766 28.545C23.3766 29.175 23.4876 29.703 23.7096 30.129C23.9376 30.555 24.2466 30.876 24.6366 31.092C25.0326 31.308 25.4856 31.416 25.9956 31.416Z" fill="white" style="fill:white;fill-opacity:1;"/>
<path d="M34.6801 31.326C35.0581 31.326 35.3881 31.284 35.6701 31.2C35.9521 31.11 36.1711 30.966 36.3271 30.768C36.4831 30.564 36.5611 30.294 36.5611 29.958C36.5611 29.658 36.4951 29.412 36.3631 29.22C36.2371 29.028 36.0421 28.887 35.7781 28.797C35.5141 28.701 35.1781 28.653 34.7701 28.653H32.8621V28.374H34.8871C35.6191 28.374 36.1621 28.5 36.5161 28.752C36.8761 29.004 37.0561 29.403 37.0561 29.949C37.0561 30.381 36.9511 30.732 36.7411 31.002C36.5311 31.266 36.2461 31.458 35.8861 31.578C35.5261 31.698 35.1241 31.758 34.6801 31.758H32.8621V31.326H34.6801ZM32.5561 25.314H33.0331V31.758H32.5561V25.314ZM34.6081 28.23C34.9621 28.23 35.2711 28.185 35.5351 28.095C35.7991 28.005 36.0031 27.861 36.1471 27.663C36.2971 27.465 36.3721 27.21 36.3721 26.898C36.3721 26.622 36.3091 26.4 36.1831 26.232C36.0631 26.064 35.8831 25.941 35.6431 25.863C35.4031 25.785 35.1031 25.746 34.7431 25.746H32.8621V25.314H34.7431C35.1991 25.314 35.5831 25.371 35.8951 25.485C36.2071 25.593 36.4441 25.761 36.6061 25.989C36.7681 26.217 36.8491 26.511 36.8491 26.871C36.8491 27.171 36.7951 27.426 36.6871 27.636C36.5791 27.84 36.4261 28.008 36.2281 28.14C36.0361 28.266 35.8051 28.359 35.5351 28.419C35.2651 28.473 34.9681 28.5 34.6441 28.5H32.8621V28.23H34.6081Z" fill="white" style="fill:white;fill-opacity:1;"/>
<path d="M39.6393 25.755V25.314H44.7243V25.755H39.6393ZM41.9433 25.386H42.4203V31.758H41.9433V25.386Z" fill="white" style="fill:white;fill-opacity:1;"/>
<path d="M50.2559 31.848C49.8059 31.848 49.3919 31.773 49.0139 31.623C48.6359 31.473 48.3059 31.254 48.0239 30.966C47.7419 30.678 47.5229 30.327 47.3669 29.913C47.2169 29.499 47.1419 29.031 47.1419 28.509C47.1419 27.987 47.2169 27.522 47.3669 27.114C47.5229 26.706 47.7419 26.364 48.0239 26.088C48.3059 25.806 48.6359 25.593 49.0139 25.449C49.3919 25.305 49.8059 25.233 50.2559 25.233C50.7059 25.233 51.1169 25.305 51.4889 25.449C51.8669 25.593 52.1939 25.806 52.4699 26.088C52.7519 26.37 52.9709 26.715 53.1269 27.123C53.2829 27.525 53.3609 27.987 53.3609 28.509C53.3609 29.031 53.2829 29.499 53.1269 29.913C52.9709 30.327 52.7519 30.678 52.4699 30.966C52.1939 31.254 51.8669 31.473 51.4889 31.623C51.1169 31.773 50.7059 31.848 50.2559 31.848ZM50.2559 31.416C50.7599 31.416 51.2069 31.308 51.5969 31.092C51.9929 30.876 52.3019 30.555 52.5239 30.129C52.7519 29.703 52.8659 29.175 52.8659 28.545C52.8659 27.903 52.7519 27.369 52.5239 26.943C52.3019 26.517 51.9929 26.196 51.5969 25.98C51.2069 25.764 50.7599 25.656 50.2559 25.656C49.7459 25.656 49.2929 25.764 48.8969 25.98C48.5069 26.196 48.1979 26.517 47.9699 26.943C47.7479 27.369 47.6369 27.903 47.6369 28.545C47.6369 29.175 47.7479 29.703 47.9699 30.129C48.1979 30.555 48.5069 30.876 48.8969 31.092C49.2929 31.308 49.7459 31.416 50.2559 31.416Z" fill="white" style="fill:white;fill-opacity:1;"/>
<path d="M58.8054 28.599C59.1894 28.599 59.5134 28.548 59.7774 28.446C60.0414 28.344 60.2394 28.185 60.3714 27.969C60.5094 27.747 60.5784 27.459 60.5784 27.105C60.5784 26.793 60.5154 26.538 60.3894 26.34C60.2634 26.142 60.0774 25.995 59.8314 25.899C59.5854 25.797 59.2764 25.746 58.9044 25.746H57.1494V25.314H58.9044C59.5884 25.314 60.1164 25.461 60.4884 25.755C60.8664 26.043 61.0554 26.49 61.0554 27.096C61.0554 27.546 60.9654 27.915 60.7854 28.203C60.6054 28.485 60.3474 28.692 60.0114 28.824C59.6754 28.956 59.2734 29.022 58.8054 29.022H57.1494V28.599H58.8054ZM56.8164 25.314H57.2934V31.758H56.8164V25.314Z" fill="white" style="fill:white;fill-opacity:1;"/>
<path d="M69.0323 25.314H69.5093V31.758H69.0323V25.314ZM64.4783 25.314H64.9553V31.758H64.4783V25.314ZM64.7393 28.779V28.347H69.2483V28.779H64.7393Z" fill="white" style="fill:white;fill-opacity:1;"/>
<path d="M76.0894 31.848C75.6394 31.848 75.2254 31.773 74.8474 31.623C74.4694 31.473 74.1394 31.254 73.8574 30.966C73.5754 30.678 73.3564 30.327 73.2004 29.913C73.0504 29.499 72.9754 29.031 72.9754 28.509C72.9754 27.987 73.0504 27.522 73.2004 27.114C73.3564 26.706 73.5754 26.364 73.8574 26.088C74.1394 25.806 74.4694 25.593 74.8474 25.449C75.2254 25.305 75.6394 25.233 76.0894 25.233C76.5394 25.233 76.9504 25.305 77.3224 25.449C77.7004 25.593 78.0274 25.806 78.3034 26.088C78.5854 26.37 78.8044 26.715 78.9604 27.123C79.1164 27.525 79.1944 27.987 79.1944 28.509C79.1944 29.031 79.1164 29.499 78.9604 29.913C78.8044 30.327 78.5854 30.678 78.3034 30.966C78.0274 31.254 77.7004 31.473 77.3224 31.623C76.9504 31.773 76.5394 31.848 76.0894 31.848ZM76.0894 31.416C76.5934 31.416 77.0404 31.308 77.4304 31.092C77.8264 30.876 78.1354 30.555 78.3574 30.129C78.5854 29.703 78.6994 29.175 78.6994 28.545C78.6994 27.903 78.5854 27.369 78.3574 26.943C78.1354 26.517 77.8264 26.196 77.4304 25.98C77.0404 25.764 76.5934 25.656 76.0894 25.656C75.5794 25.656 75.1264 25.764 74.7304 25.98C74.3404 26.196 74.0314 26.517 73.8034 26.943C73.5814 27.369 73.4704 27.903 73.4704 28.545C73.4704 29.175 73.5814 29.703 73.8034 30.129C74.0314 30.555 74.3404 30.876 74.7304 31.092C75.1264 31.308 75.5794 31.416 76.0894 31.416Z" fill="white" style="fill:white;fill-opacity:1;"/>
<path d="M82.6499 25.314H83.1269V31.758H82.6499V25.314ZM82.8749 31.758V31.326H86.7629V31.758H82.8749ZM82.8749 28.563V28.131H86.2229V28.563H82.8749ZM82.8749 25.746V25.314H86.7179V25.746H82.8749Z" fill="white" style="fill:white;fill-opacity:1;"/>
<path d="M94.3942 25.746V25.314H97.8772V25.746H94.3942ZM94.1242 31.758V25.314H94.6012V31.758H94.1242ZM96.1132 31.326C96.4912 31.326 96.8092 31.278 97.0672 31.182C97.3312 31.086 97.5292 30.93 97.6612 30.714C97.7932 30.498 97.8592 30.213 97.8592 29.859C97.8592 29.403 97.7212 29.064 97.4452 28.842C97.1752 28.614 96.7642 28.5 96.2122 28.5H94.4572V28.068H96.2212C96.6772 28.068 97.0612 28.131 97.3732 28.257C97.6912 28.383 97.9342 28.578 98.1022 28.842C98.2702 29.1 98.3542 29.433 98.3542 29.841C98.3542 30.297 98.2612 30.666 98.0752 30.948C97.8952 31.23 97.6372 31.437 97.3012 31.569C96.9712 31.695 96.5752 31.758 96.1132 31.758H94.4572V31.326H96.1132Z" fill="white" style="fill:white;fill-opacity:1;"/>
<path d="M106.881 31.758H106.386L103.803 25.332L103.812 25.314H104.298L106.881 31.758ZM103.641 25.314H104.091L101.535 31.758H101.085L103.641 25.314ZM102.102 29.715V29.283H105.792V29.715H102.102Z" fill="white" style="fill:white;fill-opacity:1;"/>
<path d="M114.6 25.314H115.077V31.758H114.6V25.314ZM110.046 25.314H110.523V31.758H110.046V25.314ZM110.307 28.779V28.347H114.816V28.779H110.307Z" fill="white" style="fill:white;fill-opacity:1;"/>
<path d="M118.912 25.314H119.389V31.758H118.912V25.314ZM119.209 28.743V28.311H120.613V28.743H119.209ZM123.601 31.758H123.007L120.253 28.527L122.917 25.314H123.466L120.676 28.671L120.721 28.383L123.601 31.758Z" fill="white" style="fill:white;fill-opacity:1;"/>
<path d="M128.774 28.599C129.158 28.599 129.482 28.548 129.746 28.446C130.01 28.344 130.208 28.185 130.34 27.969C130.478 27.747 130.547 27.459 130.547 27.105C130.547 26.793 130.484 26.538 130.358 26.34C130.232 26.142 130.046 25.995 129.8 25.899C129.554 25.797 129.245 25.746 128.873 25.746H127.118V25.314H128.873C129.557 25.314 130.085 25.461 130.457 25.755C130.835 26.043 131.024 26.49 131.024 27.096C131.024 27.546 130.934 27.915 130.754 28.203C130.574 28.485 130.316 28.692 129.98 28.824C129.644 28.956 129.242 29.022 128.774 29.022H127.118V28.599H128.774ZM126.785 25.314H127.262V31.758H126.785V25.314Z" fill="white" style="fill:white;fill-opacity:1;"/>
<path d="M137.13 31.848C136.68 31.848 136.266 31.773 135.888 31.623C135.51 31.473 135.18 31.254 134.898 30.966C134.616 30.678 134.397 30.327 134.241 29.913C134.091 29.499 134.016 29.031 134.016 28.509C134.016 27.987 134.091 27.522 134.241 27.114C134.397 26.706 134.616 26.364 134.898 26.088C135.18 25.806 135.51 25.593 135.888 25.449C136.266 25.305 136.68 25.233 137.13 25.233C137.58 25.233 137.991 25.305 138.363 25.449C138.741 25.593 139.068 25.806 139.344 26.088C139.626 26.37 139.845 26.715 140.001 27.123C140.157 27.525 140.235 27.987 140.235 28.509C140.235 29.031 140.157 29.499 140.001 29.913C139.845 30.327 139.626 30.678 139.344 30.966C139.068 31.254 138.741 31.473 138.363 31.623C137.991 31.773 137.58 31.848 137.13 31.848ZM137.13 31.416C137.634 31.416 138.081 31.308 138.471 31.092C138.867 30.876 139.176 30.555 139.398 30.129C139.626 29.703 139.74 29.175 139.74 28.545C139.74 27.903 139.626 27.369 139.398 26.943C139.176 26.517 138.867 26.196 138.471 25.98C138.081 25.764 137.634 25.656 137.13 25.656C136.62 25.656 136.167 25.764 135.771 25.98C135.381 26.196 135.072 26.517 134.844 26.943C134.622 27.369 134.511 27.903 134.511 28.545C134.511 29.175 134.622 29.703 134.844 30.129C135.072 30.555 135.381 30.876 135.771 31.092C136.167 31.308 136.62 31.416 137.13 31.416Z" fill="white" style="fill:white;fill-opacity:1;"/>
<path d="M142.646 25.755V25.314H147.731V25.755H142.646ZM144.95 25.386H145.427V31.758H144.95V25.386Z" fill="white" style="fill:white;fill-opacity:1;"/>
<path d="M153.308 31.848C152.66 31.848 152.099 31.716 151.625 31.452C151.151 31.182 150.785 30.801 150.527 30.309C150.275 29.817 150.149 29.229 150.149 28.545C150.149 27.849 150.272 27.255 150.518 26.763C150.77 26.271 151.13 25.893 151.598 25.629C152.066 25.365 152.633 25.233 153.299 25.233C153.725 25.233 154.112 25.284 154.46 25.386C154.814 25.488 155.108 25.626 155.342 25.8V26.286C155.186 26.16 154.997 26.052 154.775 25.962C154.553 25.866 154.316 25.791 154.064 25.737C153.812 25.683 153.557 25.656 153.299 25.656C152.723 25.656 152.237 25.77 151.841 25.998C151.451 26.22 151.154 26.547 150.95 26.979C150.746 27.411 150.644 27.933 150.644 28.545C150.644 29.151 150.749 29.67 150.959 30.102C151.169 30.528 151.475 30.855 151.877 31.083C152.279 31.305 152.765 31.416 153.335 31.416C153.593 31.416 153.845 31.392 154.091 31.344C154.337 31.29 154.568 31.212 154.784 31.11C155 31.008 155.186 30.888 155.342 30.75V31.236C155.108 31.428 154.817 31.578 154.469 31.686C154.121 31.794 153.734 31.848 153.308 31.848Z" fill="white" style="fill:white;fill-opacity:1;"/>
<path d="M158.225 25.755V25.314H163.31V25.755H158.225ZM160.529 25.386H161.006V31.758H160.529V25.386Z" fill="white" style="fill:white;fill-opacity:1;"/>
<path d="M168.572 31.326C168.95 31.326 169.28 31.284 169.562 31.2C169.844 31.11 170.063 30.966 170.219 30.768C170.375 30.564 170.453 30.294 170.453 29.958C170.453 29.658 170.387 29.412 170.255 29.22C170.129 29.028 169.934 28.887 169.67 28.797C169.406 28.701 169.07 28.653 168.662 28.653H166.754V28.374H168.779C169.511 28.374 170.054 28.5 170.408 28.752C170.768 29.004 170.948 29.403 170.948 29.949C170.948 30.381 170.843 30.732 170.633 31.002C170.423 31.266 170.138 31.458 169.778 31.578C169.418 31.698 169.016 31.758 168.572 31.758H166.754V31.326H168.572ZM166.448 25.314H166.925V31.758H166.448V25.314ZM168.5 28.23C168.854 28.23 169.163 28.185 169.427 28.095C169.691 28.005 169.895 27.861 170.039 27.663C170.189 27.465 170.264 27.21 170.264 26.898C170.264 26.622 170.201 26.4 170.075 26.232C169.955 26.064 169.775 25.941 169.535 25.863C169.295 25.785 168.995 25.746 168.635 25.746H166.754V25.314H168.635C169.091 25.314 169.475 25.371 169.787 25.485C170.099 25.593 170.336 25.761 170.498 25.989C170.66 26.217 170.741 26.511 170.741 26.871C170.741 27.171 170.687 27.426 170.579 27.636C170.471 27.84 170.318 28.008 170.12 28.14C169.928 28.266 169.697 28.359 169.427 28.419C169.157 28.473 168.86 28.5 168.536 28.5H166.754V28.23H168.5Z" fill="white" style="fill:white;fill-opacity:1;"/>
<path d="M177.136 31.848C176.686 31.848 176.272 31.773 175.894 31.623C175.516 31.473 175.186 31.254 174.904 30.966C174.622 30.678 174.403 30.327 174.247 29.913C174.097 29.499 174.022 29.031 174.022 28.509C174.022 27.987 174.097 27.522 174.247 27.114C174.403 26.706 174.622 26.364 174.904 26.088C175.186 25.806 175.516 25.593 175.894 25.449C176.272 25.305 176.686 25.233 177.136 25.233C177.586 25.233 177.997 25.305 178.369 25.449C178.747 25.593 179.074 25.806 179.35 26.088C179.632 26.37 179.851 26.715 180.007 27.123C180.163 27.525 180.241 27.987 180.241 28.509C180.241 29.031 180.163 29.499 180.007 29.913C179.851 30.327 179.632 30.678 179.35 30.966C179.074 31.254 178.747 31.473 178.369 31.623C177.997 31.773 177.586 31.848 177.136 31.848ZM177.136 31.416C177.64 31.416 178.087 31.308 178.477 31.092C178.873 30.876 179.182 30.555 179.404 30.129C179.632 29.703 179.746 29.175 179.746 28.545C179.746 27.903 179.632 27.369 179.404 26.943C179.182 26.517 178.873 26.196 178.477 25.98C178.087 25.764 177.64 25.656 177.136 25.656C176.626 25.656 176.173 25.764 175.777 25.98C175.387 26.196 175.078 26.517 174.85 26.943C174.628 27.369 174.517 27.903 174.517 28.545C174.517 29.175 174.628 29.703 174.85 30.129C175.078 30.555 175.387 30.876 175.777 31.092C176.173 31.308 176.626 31.416 177.136 31.416Z" fill="white" style="fill:white;fill-opacity:1;"/>
<path d="M189.686 31.326C190.064 31.326 190.394 31.284 190.676 31.2C190.958 31.11 191.177 30.966 191.333 30.768C191.489 30.564 191.567 30.294 191.567 29.958C191.567 29.658 191.501 29.412 191.369 29.22C191.243 29.028 191.048 28.887 190.784 28.797C190.52 28.701 190.184 28.653 189.776 28.653H187.868V28.374H189.893C190.625 28.374 191.168 28.5 191.522 28.752C191.882 29.004 192.062 29.403 192.062 29.949C192.062 30.381 191.957 30.732 191.747 31.002C191.537 31.266 191.252 31.458 190.892 31.578C190.532 31.698 190.13 31.758 189.686 31.758H187.868V31.326H189.686ZM187.562 25.314H188.039V31.758H187.562V25.314ZM189.614 28.23C189.968 28.23 190.277 28.185 190.541 28.095C190.805 28.005 191.009 27.861 191.153 27.663C191.303 27.465 191.378 27.21 191.378 26.898C191.378 26.622 191.315 26.4 191.189 26.232C191.069 26.064 190.889 25.941 190.649 25.863C190.409 25.785 190.109 25.746 189.749 25.746H187.868V25.314H189.749C190.205 25.314 190.589 25.371 190.901 25.485C191.213 25.593 191.45 25.761 191.612 25.989C191.774 26.217 191.855 26.511 191.855 26.871C191.855 27.171 191.801 27.426 191.693 27.636C191.585 27.84 191.432 28.008 191.234 28.14C191.042 28.266 190.811 28.359 190.541 28.419C190.271 28.473 189.974 28.5 189.65 28.5H187.868V28.23H189.614Z" fill="white" style="fill:white;fill-opacity:1;"/>
<path d="M198.721 25.755V25.314H203.806V25.755H198.721ZM201.025 25.386H201.502V31.758H201.025V25.386Z" fill="white" style="fill:white;fill-opacity:1;"/>
<path d="M206.944 25.314H207.421V31.758H206.944V25.314ZM207.169 31.758V31.326H211.057V31.758H207.169ZM207.169 28.563V28.131H210.517V28.563H207.169ZM207.169 25.746V25.314H211.012V25.746H207.169Z" fill="white" style="fill:white;fill-opacity:1;"/>
<path d="M218.397 25.314H218.865V31.758H218.397V25.314ZM214.374 27.033V25.314H214.86V27.033C214.86 27.453 214.929 27.801 215.067 28.077C215.205 28.347 215.4 28.545 215.652 28.671C215.904 28.797 216.198 28.86 216.534 28.86C216.894 28.86 217.245 28.818 217.587 28.734C217.935 28.65 218.253 28.482 218.541 28.23L218.658 28.581C218.358 28.821 218.034 28.998 217.686 29.112C217.338 29.22 216.957 29.274 216.543 29.274C216.111 29.274 215.73 29.199 215.4 29.049C215.076 28.893 214.824 28.65 214.644 28.32C214.464 27.99 214.374 27.561 214.374 27.033Z" fill="white" style="fill:white;fill-opacity:1;"/>
<path d="M222.699 25.314H223.176V31.758H222.699V25.314ZM222.924 31.758V31.326H226.812V31.758H222.924ZM222.924 28.563V28.131H226.272V28.563H222.924ZM222.924 25.746V25.314H226.767V25.746H222.924Z" fill="white" style="fill:white;fill-opacity:1;"/>
<path d="M234.862 25.314H235.339V31.758H234.862V25.314ZM230.308 25.314H230.785V31.758H230.308V25.314ZM230.569 28.779V28.347H235.078V28.779H230.569Z" fill="white" style="fill:white;fill-opacity:1;"/>
<path d="M243.881 25.314H244.367V31.758H243.881V25.314ZM239.174 25.314H239.651V31.758H239.174V25.314ZM239.669 31.758H239.273L239.417 31.443L243.863 25.314H244.25L244.16 25.575L239.669 31.758Z" fill="white" style="fill:white;fill-opacity:1;"/>
<path d="M248.198 25.314H248.675V31.758H248.198V25.314ZM248.423 31.758V31.326H252.311V31.758H248.423ZM248.423 28.563V28.131H251.771V28.563H248.423ZM248.423 25.746V25.314H252.266V25.746H248.423Z" fill="white" style="fill:white;fill-opacity:1;"/>
<path d="M264.073 25.314H264.56V31.758H264.073V25.314ZM259.672 25.314H260.15V31.758H259.672V25.314ZM259.871 25.746V25.314H264.326V25.746H259.871Z" fill="white" style="fill:white;fill-opacity:1;"/>
<path d="M268.416 27.114C268.416 26.694 268.503 26.352 268.677 26.088C268.851 25.824 269.1 25.629 269.424 25.503C269.748 25.377 270.135 25.314 270.585 25.314H272.313V25.746H270.585C270.225 25.746 269.919 25.794 269.667 25.89C269.415 25.986 269.226 26.136 269.1 26.34C268.974 26.538 268.911 26.796 268.911 27.114C268.911 27.63 269.052 28.002 269.334 28.23C269.622 28.458 270.051 28.572 270.621 28.572H272.313V29.004H270.54L270.378 28.968C269.958 28.944 269.601 28.863 269.307 28.725C269.019 28.587 268.797 28.386 268.641 28.122C268.491 27.852 268.416 27.516 268.416 27.114ZM270.153 28.842H270.702L268.488 31.758H267.894L270.153 28.842ZM272.169 25.314H272.646V31.758H272.169V25.314Z" fill="white" style="fill:white;fill-opacity:1;"/>
<path d="M275.789 25.755V25.314H280.874V25.755H275.789ZM278.093 25.386H278.57V31.758H278.093V25.386Z" fill="white" style="fill:white;fill-opacity:1;"/>
<path d="M288.719 25.314H289.205V31.758H288.719V25.314ZM284.012 25.314H284.489V31.758H284.012V25.314ZM284.507 31.758H284.111L284.255 31.443L288.701 25.314H289.088L288.998 25.575L284.507 31.758Z" fill="white" style="fill:white;fill-opacity:1;"/>
<path d="M297.819 25.314H301.176V25.746H297.819V25.314ZM300.915 31.758V25.314H301.392V31.758H300.915ZM296.244 31.308C296.448 31.32 296.619 31.278 296.757 31.182C296.901 31.086 297.021 30.933 297.117 30.723C297.213 30.513 297.288 30.24 297.342 29.904C297.378 29.706 297.411 29.466 297.441 29.184C297.471 28.902 297.495 28.575 297.513 28.203C297.537 27.825 297.558 27.399 297.576 26.925C297.6 26.445 297.618 25.908 297.63 25.314H298.089C298.071 25.998 298.053 26.592 298.035 27.096C298.017 27.594 297.996 28.023 297.972 28.383C297.948 28.743 297.921 29.055 297.891 29.319C297.867 29.577 297.84 29.805 297.81 30.003C297.744 30.333 297.666 30.615 297.576 30.849C297.492 31.077 297.387 31.263 297.261 31.407C297.141 31.545 296.997 31.647 296.829 31.713C296.661 31.773 296.466 31.8 296.244 31.794V31.308Z" fill="white" style="fill:white;fill-opacity:1;"/>
<path d="M305.222 25.314H305.699V31.758H305.222V25.314ZM305.447 31.758V31.326H309.335V31.758H305.447ZM305.447 28.563V28.131H308.795V28.563H305.447ZM305.447 25.746V25.314H309.29V25.746H305.447Z" fill="white" style="fill:white;fill-opacity:1;"/>
<path d="M312.244 25.755V25.314H317.329V25.755H312.244ZM314.548 25.386H315.025V31.758H314.548V25.386Z" fill="white" style="fill:white;fill-opacity:1;"/>
<path d="M319.873 31.803C319.789 31.803 319.714 31.785 319.648 31.749C319.588 31.707 319.54 31.656 319.504 31.596C319.474 31.536 319.459 31.473 319.459 31.407C319.459 31.323 319.474 31.254 319.504 31.2C319.54 31.14 319.588 31.092 319.648 31.056C319.714 31.02 319.789 31.002 319.873 31.002C319.957 31.002 320.029 31.02 320.089 31.056C320.149 31.092 320.194 31.14 320.224 31.2C320.26 31.254 320.278 31.32 320.278 31.398C320.278 31.47 320.26 31.536 320.224 31.596C320.194 31.656 320.149 31.707 320.089 31.749C320.029 31.785 319.957 31.803 319.873 31.803Z" fill="white" style="fill:white;fill-opacity:1;"/>
<path d="M5.62268 37.314H6.10868V43.758H5.62268V37.314ZM1.22168 37.314H1.69868V43.758H1.22168V37.314ZM1.41968 37.746V37.314H5.87468V37.746H1.41968Z" fill="white" style="fill:white;fill-opacity:1;"/>
<path d="M10.4785 40.599C10.8625 40.599 11.1865 40.548 11.4505 40.446C11.7145 40.344 11.9125 40.185 12.0445 39.969C12.1825 39.747 12.2515 39.459 12.2515 39.105C12.2515 38.793 12.1885 38.538 12.0625 38.34C11.9365 38.142 11.7505 37.995 11.5045 37.899C11.2585 37.797 10.9495 37.746 10.5775 37.746H8.82253V37.314H10.5775C11.2615 37.314 11.7895 37.461 12.1615 37.755C12.5395 38.043 12.7285 38.49 12.7285 39.096C12.7285 39.546 12.6385 39.915 12.4585 40.203C12.2785 40.485 12.0205 40.692 11.6845 40.824C11.3485 40.956 10.9465 41.022 10.4785 41.022H8.82253V40.599H10.4785ZM8.48953 37.314H8.96653V43.758H8.48953V37.314Z" fill="white" style="fill:white;fill-opacity:1;"/>
<path d="M14.7115 37.314H15.1885V43.758H14.7115V37.314ZM14.9365 43.758V43.326H18.8245V43.758H14.9365ZM14.9365 40.563V40.131H18.2845V40.563H14.9365ZM14.9365 37.746V37.314H18.7795V37.746H14.9365Z" fill="white" style="fill:white;fill-opacity:1;"/>
<path d="M20.2417 43.326H20.7547L20.6647 45.279H20.2417V43.326ZM20.4667 43.443C20.7427 43.371 20.9587 43.191 21.1147 42.903C21.2767 42.609 21.3967 42.207 21.4747 41.697C21.5587 41.187 21.6157 40.569 21.6457 39.843C21.6817 39.111 21.7087 38.268 21.7267 37.314H22.1947C22.1707 38.106 22.1467 38.817 22.1227 39.447C22.0987 40.071 22.0627 40.623 22.0147 41.103C21.9727 41.577 21.9097 41.982 21.8257 42.318C21.7477 42.654 21.6427 42.927 21.5107 43.137C21.3787 43.341 21.2107 43.491 21.0067 43.587L20.4667 43.443ZM21.9697 37.314H25.4527V37.746H21.9697V37.314ZM20.5477 43.326H26.3077V43.758H20.5477V43.326ZM25.2097 43.758V37.314H25.6867V43.758H25.2097ZM26.0377 45.279L25.9657 43.326H26.4787V45.279H26.0377Z" fill="white" style="fill:white;fill-opacity:1;"/>
<path d="M30.4571 43.326C30.8351 43.326 31.1651 43.284 31.4471 43.2C31.7291 43.11 31.9481 42.966 32.1041 42.768C32.2601 42.564 32.3381 42.294 32.3381 41.958C32.3381 41.658 32.2721 41.412 32.1401 41.22C32.0141 41.028 31.8191 40.887 31.5551 40.797C31.2911 40.701 30.9551 40.653 30.5471 40.653H28.6391V40.374H30.6641C31.3961 40.374 31.9391 40.5 32.2931 40.752C32.6531 41.004 32.8331 41.403 32.8331 41.949C32.8331 42.381 32.7281 42.732 32.5181 43.002C32.3081 43.266 32.0231 43.458 31.6631 43.578C31.3031 43.698 30.9011 43.758 30.4571 43.758H28.6391V43.326H30.4571ZM28.3331 37.314H28.8101V43.758H28.3331V37.314ZM30.3851 40.23C30.7391 40.23 31.0481 40.185 31.3121 40.095C31.5761 40.005 31.7801 39.861 31.9241 39.663C32.0741 39.465 32.1491 39.21 32.1491 38.898C32.1491 38.622 32.0861 38.4 31.9601 38.232C31.8401 38.064 31.6601 37.941 31.4201 37.863C31.1801 37.785 30.8801 37.746 30.5201 37.746H28.6391V37.314H30.5201C30.9761 37.314 31.3601 37.371 31.6721 37.485C31.9841 37.593 32.2211 37.761 32.3831 37.989C32.5451 38.217 32.6261 38.511 32.6261 38.871C32.6261 39.171 32.5721 39.426 32.4641 39.636C32.3561 39.84 32.2031 40.008 32.0051 40.14C31.8131 40.266 31.5821 40.359 31.3121 40.419C31.0421 40.473 30.7451 40.5 30.4211 40.5H28.6391V40.23H30.3851Z" fill="white" style="fill:white;fill-opacity:1;"/>
<path d="M39.949 43.758H39.454L36.871 37.332L36.88 37.314H37.366L39.949 43.758ZM36.709 37.314H37.159L34.603 43.758H34.153L36.709 37.314ZM35.17 41.715V41.283H38.86V41.715H35.17Z" fill="white" style="fill:white;fill-opacity:1;"/>
<path d="M43.6625 40.599C44.0465 40.599 44.3705 40.548 44.6345 40.446C44.8985 40.344 45.0965 40.185 45.2285 39.969C45.3665 39.747 45.4355 39.459 45.4355 39.105C45.4355 38.793 45.3725 38.538 45.2465 38.34C45.1205 38.142 44.9345 37.995 44.6885 37.899C44.4425 37.797 44.1335 37.746 43.7615 37.746H42.0065V37.314H43.7615C44.4455 37.314 44.9735 37.461 45.3455 37.755C45.7235 38.043 45.9125 38.49 45.9125 39.096C45.9125 39.546 45.8225 39.915 45.6425 40.203C45.4625 40.485 45.2045 40.692 44.8685 40.824C44.5325 40.956 44.1305 41.022 43.6625 41.022H42.0065V40.599H43.6625ZM41.6735 37.314H42.1505V43.758H41.6735V37.314Z" fill="white" style="fill:white;fill-opacity:1;"/>
<path d="M52.6025 37.314H53.0885V43.758H52.6025V37.314ZM47.8955 37.314H48.3725V43.758H47.8955V37.314ZM48.3905 43.758H47.9945L48.1385 43.443L52.5845 37.314H52.9715L52.8815 37.575L48.3905 43.758Z" fill="white" style="fill:white;fill-opacity:1;"/>
<path d="M54.7867 37.755V37.314H59.8717V37.755H54.7867ZM57.0907 37.386H57.5677V43.758H57.0907V37.386Z" fill="white" style="fill:white;fill-opacity:1;"/>
<path d="M61.5698 37.314H62.0468V43.758H61.5698V37.314ZM61.7948 43.758V43.326H65.6828V43.758H61.7948ZM61.7948 40.563V40.131H65.1428V40.563H61.7948ZM61.7948 37.746V37.314H65.6378V37.746H61.7948Z" fill="white" style="fill:white;fill-opacity:1;"/>
<path d="M68.6571 37.314H72.0141V37.746H68.6571V37.314ZM71.7531 43.758V37.314H72.2301V43.758H71.7531ZM67.0821 43.308C67.2861 43.32 67.4571 43.278 67.5951 43.182C67.7391 43.086 67.8591 42.933 67.9551 42.723C68.0511 42.513 68.1261 42.24 68.1801 41.904C68.2161 41.706 68.2491 41.466 68.2791 41.184C68.3091 40.902 68.3331 40.575 68.3511 40.203C68.3751 39.825 68.3961 39.399 68.4141 38.925C68.4381 38.445 68.4561 37.908 68.4681 37.314H68.9271C68.9091 37.998 68.8911 38.592 68.8731 39.096C68.8551 39.594 68.8341 40.023 68.8101 40.383C68.7861 40.743 68.7591 41.055 68.7291 41.319C68.7051 41.577 68.6781 41.805 68.6481 42.003C68.5821 42.333 68.5041 42.615 68.4141 42.849C68.3301 43.077 68.2251 43.263 68.0991 43.407C67.9791 43.545 67.8351 43.647 67.6671 43.713C67.4991 43.773 67.3041 43.8 67.0821 43.794V43.308Z" fill="white" style="fill:white;fill-opacity:1;"/>
<path d="M74.6292 43.758V37.314H75.1062V43.758H74.6292ZM76.6182 43.326C76.9962 43.326 77.3142 43.278 77.5722 43.182C77.8362 43.086 78.0342 42.93 78.1662 42.714C78.2982 42.492 78.3642 42.204 78.3642 41.85C78.3642 41.382 78.2262 41.034 77.9502 40.806C77.6742 40.578 77.2632 40.464 76.7172 40.464H74.9622V40.041H76.7262C77.1822 40.041 77.5662 40.104 77.8782 40.23C78.1962 40.356 78.4392 40.551 78.6072 40.815C78.7752 41.079 78.8592 41.418 78.8592 41.832C78.8592 42.288 78.7662 42.657 78.5802 42.939C78.4002 43.221 78.1422 43.428 77.8062 43.56C77.4762 43.692 77.0802 43.758 76.6182 43.758H74.9622V43.326H76.6182Z" fill="white" style="fill:white;fill-opacity:1;"/>
<path d="M85.4225 37.314H85.8995V43.758H85.4225V37.314ZM80.8685 37.314H81.3455V43.758H80.8685V37.314ZM81.1295 40.779V40.347H85.6385V40.779H81.1295Z" fill="white" style="fill:white;fill-opacity:1;"/>
<path d="M91.0396 43.848C90.5896 43.848 90.1756 43.773 89.7976 43.623C89.4196 43.473 89.0896 43.254 88.8076 42.966C88.5256 42.678 88.3066 42.327 88.1506 41.913C88.0006 41.499 87.9256 41.031 87.9256 40.509C87.9256 39.987 88.0006 39.522 88.1506 39.114C88.3066 38.706 88.5256 38.364 88.8076 38.088C89.0896 37.806 89.4196 37.593 89.7976 37.449C90.1756 37.305 90.5896 37.233 91.0396 37.233C91.4896 37.233 91.9006 37.305 92.2726 37.449C92.6506 37.593 92.9776 37.806 93.2536 38.088C93.5356 38.37 93.7546 38.715 93.9106 39.123C94.0666 39.525 94.1446 39.987 94.1446 40.509C94.1446 41.031 94.0666 41.499 93.9106 41.913C93.7546 42.327 93.5356 42.678 93.2536 42.966C92.9776 43.254 92.6506 43.473 92.2726 43.623C91.9006 43.773 91.4896 43.848 91.0396 43.848ZM91.0396 43.416C91.5436 43.416 91.9906 43.308 92.3806 43.092C92.7766 42.876 93.0856 42.555 93.3076 42.129C93.5356 41.703 93.6496 41.175 93.6496 40.545C93.6496 39.903 93.5356 39.369 93.3076 38.943C93.0856 38.517 92.7766 38.196 92.3806 37.98C91.9906 37.764 91.5436 37.656 91.0396 37.656C90.5296 37.656 90.0766 37.764 89.6806 37.98C89.2906 38.196 88.9816 38.517 88.7536 38.943C88.5316 39.369 88.4206 39.903 88.4206 40.545C88.4206 41.175 88.5316 41.703 88.7536 42.129C88.9816 42.555 89.2906 42.876 89.6806 43.092C90.0766 43.308 90.5296 43.416 91.0396 43.416Z" fill="white" style="fill:white;fill-opacity:1;"/>
<path d="M101.33 43.848C100.88 43.848 100.466 43.773 100.088 43.623C99.7102 43.473 99.3802 43.254 99.0982 42.966C98.8162 42.678 98.5972 42.327 98.4412 41.913C98.2912 41.499 98.2162 41.031 98.2162 40.509C98.2162 39.987 98.2912 39.522 98.4412 39.114C98.5972 38.706 98.8162 38.364 99.0982 38.088C99.3802 37.806 99.7102 37.593 100.088 37.449C100.466 37.305 100.88 37.233 101.33 37.233C101.78 37.233 102.191 37.305 102.563 37.449C102.941 37.593 103.268 37.806 103.544 38.088C103.826 38.37 104.045 38.715 104.201 39.123C104.357 39.525 104.435 39.987 104.435 40.509C104.435 41.031 104.357 41.499 104.201 41.913C104.045 42.327 103.826 42.678 103.544 42.966C103.268 43.254 102.941 43.473 102.563 43.623C102.191 43.773 101.78 43.848 101.33 43.848ZM101.33 43.416C101.834 43.416 102.281 43.308 102.671 43.092C103.067 42.876 103.376 42.555 103.598 42.129C103.826 41.703 103.94 41.175 103.94 40.545C103.94 39.903 103.826 39.369 103.598 38.943C103.376 38.517 103.067 38.196 102.671 37.98C102.281 37.764 101.834 37.656 101.33 37.656C100.82 37.656 100.367 37.764 99.9712 37.98C99.5812 38.196 99.2722 38.517 99.0442 38.943C98.8222 39.369 98.7112 39.903 98.7112 40.545C98.7112 41.175 98.8222 41.703 99.0442 42.129C99.2722 42.555 99.5812 42.876 99.9712 43.092C100.367 43.308 100.82 43.416 101.33 43.416Z" fill="white" style="fill:white;fill-opacity:1;"/>
<path d="M106.721 37.746V37.314H110.204V37.746H106.721ZM106.451 43.758V37.314H106.928V43.758H106.451ZM108.44 43.326C108.818 43.326 109.136 43.278 109.394 43.182C109.658 43.086 109.856 42.93 109.988 42.714C110.12 42.498 110.186 42.213 110.186 41.859C110.186 41.403 110.048 41.064 109.772 40.842C109.502 40.614 109.091 40.5 108.539 40.5H106.784V40.068H108.548C109.004 40.068 109.388 40.131 109.7 40.257C110.018 40.383 110.261 40.578 110.429 40.842C110.597 41.1 110.681 41.433 110.681 41.841C110.681 42.297 110.588 42.666 110.402 42.948C110.222 43.23 109.964 43.437 109.628 43.569C109.298 43.695 108.902 43.758 108.44 43.758H106.784V43.326H108.44Z" fill="white" style="fill:white;fill-opacity:1;"/>
<path d="M114.688 40.599C115.072 40.599 115.396 40.548 115.66 40.446C115.924 40.344 116.122 40.185 116.254 39.969C116.392 39.747 116.461 39.459 116.461 39.105C116.461 38.793 116.398 38.538 116.272 38.34C116.146 38.142 115.96 37.995 115.714 37.899C115.468 37.797 115.159 37.746 114.787 37.746H113.032V37.314H114.787C115.471 37.314 115.999 37.461 116.371 37.755C116.749 38.043 116.938 38.49 116.938 39.096C116.938 39.546 116.848 39.915 116.668 40.203C116.488 40.485 116.23 40.692 115.894 40.824C115.558 40.956 115.156 41.022 114.688 41.022H113.032V40.599H114.688ZM112.699 37.314H113.176V43.758H112.699V37.314Z" fill="white" style="fill:white;fill-opacity:1;"/>
<path d="M123.48 43.758H122.985L120.402 37.332L120.411 37.314H120.897L123.48 43.758ZM120.24 37.314H120.69L118.134 43.758H117.684L120.24 37.314ZM118.701 41.715V41.283H122.391V41.715H118.701Z" fill="white" style="fill:white;fill-opacity:1;"/>
<path d="M123.87 37.755V37.314H128.955V37.755H123.87ZM126.174 37.386H126.651V43.758H126.174V37.386Z" fill="white" style="fill:white;fill-opacity:1;"/>
<path d="M135.36 37.314H135.846V43.758H135.36V37.314ZM130.653 37.314H131.13V43.758H130.653V37.314ZM131.148 43.758H130.752L130.896 43.443L135.342 37.314H135.729L135.639 37.575L131.148 43.758Z" fill="white" style="fill:white;fill-opacity:1;"/>
<path d="M137.544 37.755V37.314H142.629V37.755H137.544ZM139.848 37.386H140.325V43.758H139.848V37.386Z" fill="white" style="fill:white;fill-opacity:1;"/>
<path d="M144.327 37.314H144.804V43.758H144.327V37.314ZM144.552 43.758V43.326H148.44V43.758H144.552ZM144.552 40.563V40.131H147.9V40.563H144.552ZM144.552 37.746V37.314H148.395V37.746H144.552Z" fill="white" style="fill:white;fill-opacity:1;"/>
<path d="M153.111 43.848C152.463 43.848 151.902 43.716 151.428 43.452C150.954 43.182 150.588 42.801 150.33 42.309C150.078 41.817 149.952 41.229 149.952 40.545C149.952 39.849 150.075 39.255 150.321 38.763C150.573 38.271 150.933 37.893 151.401 37.629C151.869 37.365 152.436 37.233 153.102 37.233C153.528 37.233 153.915 37.284 154.263 37.386C154.617 37.488 154.911 37.626 155.145 37.8V38.286C154.989 38.16 154.8 38.052 154.578 37.962C154.356 37.866 154.119 37.791 153.867 37.737C153.615 37.683 153.36 37.656 153.102 37.656C152.526 37.656 152.04 37.77 151.644 37.998C151.254 38.22 150.957 38.547 150.753 38.979C150.549 39.411 150.447 39.933 150.447 40.545C150.447 41.151 150.552 41.67 150.762 42.102C150.972 42.528 151.278 42.855 151.68 43.083C152.082 43.305 152.568 43.416 153.138 43.416C153.396 43.416 153.648 43.392 153.894 43.344C154.14 43.29 154.371 43.212 154.587 43.11C154.803 43.008 154.989 42.888 155.145 42.75V43.236C154.911 43.428 154.62 43.578 154.272 43.686C153.924 43.794 153.537 43.848 153.111 43.848Z" fill="white" style="fill:white;fill-opacity:1;"/>
<path d="M157.228 43.758V37.314H157.705V43.758H157.228ZM159.217 43.326C159.595 43.326 159.913 43.278 160.171 43.182C160.435 43.086 160.633 42.93 160.765 42.714C160.897 42.492 160.963 42.204 160.963 41.85C160.963 41.382 160.825 41.034 160.549 40.806C160.273 40.578 159.862 40.464 159.316 40.464H157.561V40.041H159.325C159.781 40.041 160.165 40.104 160.477 40.23C160.795 40.356 161.038 40.551 161.206 40.815C161.374 41.079 161.458 41.418 161.458 41.832C161.458 42.288 161.365 42.657 161.179 42.939C160.999 43.221 160.741 43.428 160.405 43.56C160.075 43.692 159.679 43.758 159.217 43.758H157.561V43.326H159.217Z" fill="white" style="fill:white;fill-opacity:1;"/>
<path d="M165.893 37.314H166.37V43.758H165.893V37.314ZM166.19 40.743V40.311H167.594V40.743H166.19ZM170.582 43.758H169.988L167.234 40.527L169.898 37.314H170.447L167.657 40.671L167.702 40.383L170.582 43.758Z" fill="white" style="fill:white;fill-opacity:1;"/>
<path d="M177.541 43.848C176.893 43.848 176.332 43.716 175.858 43.452C175.384 43.182 175.018 42.801 174.76 42.309C174.508 41.817 174.382 41.229 174.382 40.545C174.382 39.849 174.505 39.255 174.751 38.763C175.003 38.271 175.363 37.893 175.831 37.629C176.299 37.365 176.866 37.233 177.532 37.233C177.958 37.233 178.345 37.284 178.693 37.386C179.047 37.488 179.341 37.626 179.575 37.8V38.286C179.419 38.16 179.23 38.052 179.008 37.962C178.786 37.866 178.549 37.791 178.297 37.737C178.045 37.683 177.79 37.656 177.532 37.656C176.956 37.656 176.47 37.77 176.074 37.998C175.684 38.22 175.387 38.547 175.183 38.979C174.979 39.411 174.877 39.933 174.877 40.545C174.877 41.151 174.982 41.67 175.192 42.102C175.402 42.528 175.708 42.855 176.11 43.083C176.512 43.305 176.998 43.416 177.568 43.416C177.826 43.416 178.078 43.392 178.324 43.344C178.57 43.29 178.801 43.212 179.017 43.11C179.233 43.008 179.419 42.888 179.575 42.75V43.236C179.341 43.428 179.05 43.578 178.702 43.686C178.354 43.794 177.967 43.848 177.541 43.848Z" fill="white" style="fill:white;fill-opacity:1;"/>
<path d="M183.774 43.326C184.152 43.326 184.482 43.284 184.764 43.2C185.046 43.11 185.265 42.966 185.421 42.768C185.577 42.564 185.655 42.294 185.655 41.958C185.655 41.658 185.589 41.412 185.457 41.22C185.331 41.028 185.136 40.887 184.872 40.797C184.608 40.701 184.272 40.653 183.864 40.653H181.956V40.374H183.981C184.713 40.374 185.256 40.5 185.61 40.752C185.97 41.004 186.15 41.403 186.15 41.949C186.15 42.381 186.045 42.732 185.835 43.002C185.625 43.266 185.34 43.458 184.98 43.578C184.62 43.698 184.218 43.758 183.774 43.758H181.956V43.326H183.774ZM181.65 37.314H182.127V43.758H181.65V37.314ZM183.702 40.23C184.056 40.23 184.365 40.185 184.629 40.095C184.893 40.005 185.097 39.861 185.241 39.663C185.391 39.465 185.466 39.21 185.466 38.898C185.466 38.622 185.403 38.4 185.277 38.232C185.157 38.064 184.977 37.941 184.737 37.863C184.497 37.785 184.197 37.746 183.837 37.746H181.956V37.314H183.837C184.293 37.314 184.677 37.371 184.989 37.485C185.301 37.593 185.538 37.761 185.7 37.989C185.862 38.217 185.943 38.511 185.943 38.871C185.943 39.171 185.889 39.426 185.781 39.636C185.673 39.84 185.52 40.008 185.322 40.14C185.13 40.266 184.899 40.359 184.629 40.419C184.359 40.473 184.062 40.5 183.738 40.5H181.956V40.23H183.702Z" fill="white" style="fill:white;fill-opacity:1;"/>
<path d="M190.898 43.848C190.448 43.848 190.034 43.773 189.656 43.623C189.278 43.473 188.948 43.254 188.666 42.966C188.384 42.678 188.165 42.327 188.009 41.913C187.859 41.499 187.784 41.031 187.784 40.509C187.784 39.987 187.859 39.522 188.009 39.114C188.165 38.706 188.384 38.364 188.666 38.088C188.948 37.806 189.278 37.593 189.656 37.449C190.034 37.305 190.448 37.233 190.898 37.233C191.348 37.233 191.759 37.305 192.131 37.449C192.509 37.593 192.836 37.806 193.112 38.088C193.394 38.37 193.613 38.715 193.769 39.123C193.925 39.525 194.003 39.987 194.003 40.509C194.003 41.031 193.925 41.499 193.769 41.913C193.613 42.327 193.394 42.678 193.112 42.966C192.836 43.254 192.509 43.473 192.131 43.623C191.759 43.773 191.348 43.848 190.898 43.848ZM190.898 43.416C191.402 43.416 191.849 43.308 192.239 43.092C192.635 42.876 192.944 42.555 193.166 42.129C193.394 41.703 193.508 41.175 193.508 40.545C193.508 39.903 193.394 39.369 193.166 38.943C192.944 38.517 192.635 38.196 192.239 37.98C191.849 37.764 191.402 37.656 190.898 37.656C190.388 37.656 189.935 37.764 189.539 37.98C189.149 38.196 188.84 38.517 188.612 38.943C188.39 39.369 188.279 39.903 188.279 40.545C188.279 41.175 188.39 41.703 188.612 42.129C188.84 42.555 189.149 42.876 189.539 43.092C189.935 43.308 190.388 43.416 190.898 43.416Z" fill="white" style="fill:white;fill-opacity:1;"/>
<path d="M196.018 37.314H196.495V43.758H196.018V37.314ZM196.243 43.758V43.326H200.131V43.758H196.243ZM196.243 40.563V40.131H199.591V40.563H196.243ZM196.243 37.746V37.314H200.086V37.746H196.243Z" fill="white" style="fill:white;fill-opacity:1;"/>
<path d="M205.391 42.786H205.058L202.322 37.314H202.844L205.508 42.651L205.391 42.786ZM202.187 37.314H202.628V43.758H202.187V37.314ZM205.562 42.786L205.103 42.777L207.848 37.314H208.325L205.562 42.786ZM208.001 37.314H208.478V43.758H208.001V37.314Z" fill="white" style="fill:white;fill-opacity:1;"/>
<path d="M212.825 42.426L210.233 37.314H210.782L213.077 41.859L212.825 42.426ZM211.214 43.272C211.238 43.278 211.262 43.281 211.286 43.281C211.316 43.281 211.352 43.281 211.394 43.281C211.598 43.281 211.781 43.236 211.943 43.146C212.105 43.056 212.255 42.912 212.393 42.714C212.531 42.516 212.666 42.255 212.798 41.931L212.879 41.76L214.832 37.314H215.354L213.239 42.021C213.041 42.465 212.852 42.813 212.672 43.065C212.498 43.317 212.312 43.497 212.114 43.605C211.916 43.713 211.682 43.767 211.412 43.767C211.37 43.767 211.331 43.767 211.295 43.767C211.265 43.767 211.238 43.764 211.214 43.758V43.272Z" fill="white" style="fill:white;fill-opacity:1;"/>
<path d="M219.429 37.314H219.906V43.758H219.429V37.314ZM219.726 40.743V40.311H221.13V40.743H219.726ZM224.118 43.758H223.524L220.77 40.527L223.434 37.314H223.983L221.193 40.671L221.238 40.383L224.118 43.758Z" fill="white" style="fill:white;fill-opacity:1;"/>
<path d="M227.851 40.599C228.235 40.599 228.559 40.548 228.823 40.446C229.087 40.344 229.285 40.185 229.417 39.969C229.555 39.747 229.624 39.459 229.624 39.105C229.624 38.793 229.561 38.538 229.435 38.34C229.309 38.142 229.123 37.995 228.877 37.899C228.631 37.797 228.322 37.746 227.95 37.746H226.195V37.314H227.95C228.634 37.314 229.162 37.461 229.534 37.755C229.912 38.043 230.101 38.49 230.101 39.096C230.101 39.546 230.011 39.915 229.831 40.203C229.651 40.485 229.393 40.692 229.057 40.824C228.721 40.956 228.319 41.022 227.851 41.022H226.195V40.599H227.851ZM225.862 37.314H226.339V43.758H225.862V37.314Z" fill="white" style="fill:white;fill-opacity:1;"/>
<path d="M232.084 37.314H232.561V43.758H232.084V37.314ZM232.309 43.758V43.326H236.197V43.758H232.309ZM232.309 40.563V40.131H235.657V40.563H232.309ZM232.309 37.746V37.314H236.152V37.746H232.309Z" fill="white" style="fill:white;fill-opacity:1;"/>
<path d="M237.615 43.326H238.128L238.038 45.279H237.615V43.326ZM237.84 43.443C238.116 43.371 238.332 43.191 238.488 42.903C238.65 42.609 238.77 42.207 238.848 41.697C238.932 41.187 238.989 40.569 239.019 39.843C239.055 39.111 239.082 38.268 239.1 37.314H239.568C239.544 38.106 239.52 38.817 239.496 39.447C239.472 40.071 239.436 40.623 239.388 41.103C239.346 41.577 239.283 41.982 239.199 42.318C239.121 42.654 239.016 42.927 238.884 43.137C238.752 43.341 238.584 43.491 238.38 43.587L237.84 43.443ZM239.343 37.314H242.826V37.746H239.343V37.314ZM237.921 43.326H243.681V43.758H237.921V43.326ZM242.583 43.758V37.314H243.06V43.758H242.583ZM243.411 45.279L243.339 43.326H243.852V45.279H243.411Z" fill="white" style="fill:white;fill-opacity:1;"/>
<path d="M250.413 37.314H250.899V43.758H250.413V37.314ZM245.706 37.314H246.183V43.758H245.706V37.314ZM246.201 43.758H245.805L245.949 43.443L250.395 37.314H250.782L250.692 37.575L246.201 43.758Z" fill="white" style="fill:white;fill-opacity:1;"/>
<path d="M252.597 37.755V37.314H257.682V37.755H252.597ZM254.901 37.386H255.378V43.758H254.901V37.386Z" fill="white" style="fill:white;fill-opacity:1;"/>
<path d="M261.774 43.848C261.324 43.848 260.91 43.773 260.532 43.623C260.154 43.473 259.824 43.254 259.542 42.966C259.26 42.678 259.041 42.327 258.885 41.913C258.735 41.499 258.66 41.031 258.66 40.509C258.66 39.987 258.735 39.522 258.885 39.114C259.041 38.706 259.26 38.364 259.542 38.088C259.824 37.806 260.154 37.593 260.532 37.449C260.91 37.305 261.324 37.233 261.774 37.233C262.224 37.233 262.635 37.305 263.007 37.449C263.385 37.593 263.712 37.806 263.988 38.088C264.27 38.37 264.489 38.715 264.645 39.123C264.801 39.525 264.879 39.987 264.879 40.509C264.879 41.031 264.801 41.499 264.645 41.913C264.489 42.327 264.27 42.678 263.988 42.966C263.712 43.254 263.385 43.473 263.007 43.623C262.635 43.773 262.224 43.848 261.774 43.848ZM261.774 43.416C262.278 43.416 262.725 43.308 263.115 43.092C263.511 42.876 263.82 42.555 264.042 42.129C264.27 41.703 264.384 41.175 264.384 40.545C264.384 39.903 264.27 39.369 264.042 38.943C263.82 38.517 263.511 38.196 263.115 37.98C262.725 37.764 262.278 37.656 261.774 37.656C261.264 37.656 260.811 37.764 260.415 37.98C260.025 38.196 259.716 38.517 259.488 38.943C259.266 39.369 259.155 39.903 259.155 40.545C259.155 41.175 259.266 41.703 259.488 42.129C259.716 42.555 260.025 42.876 260.415 43.092C260.811 43.308 261.264 43.416 261.774 43.416Z" fill="white" style="fill:white;fill-opacity:1;"/>
<path d="M268.883 40.599C269.267 40.599 269.591 40.548 269.855 40.446C270.119 40.344 270.317 40.185 270.449 39.969C270.587 39.747 270.656 39.459 270.656 39.105C270.656 38.793 270.593 38.538 270.467 38.34C270.341 38.142 270.155 37.995 269.909 37.899C269.663 37.797 269.354 37.746 268.982 37.746H267.227V37.314H268.982C269.666 37.314 270.194 37.461 270.566 37.755C270.944 38.043 271.133 38.49 271.133 39.096C271.133 39.546 271.043 39.915 270.863 40.203C270.683 40.485 270.425 40.692 270.089 40.824C269.753 40.956 269.351 41.022 268.883 41.022H267.227V40.599H268.883ZM266.894 37.314H267.371V43.758H266.894V37.314Z" fill="white" style="fill:white;fill-opacity:1;"/>
<path d="M275.106 42.426L272.514 37.314H273.063L275.358 41.859L275.106 42.426ZM273.495 43.272C273.519 43.278 273.543 43.281 273.567 43.281C273.597 43.281 273.633 43.281 273.675 43.281C273.879 43.281 274.062 43.236 274.224 43.146C274.386 43.056 274.536 42.912 274.674 42.714C274.812 42.516 274.947 42.255 275.079 41.931L275.16 41.76L277.113 37.314H277.635L275.52 42.021C275.322 42.465 275.133 42.813 274.953 43.065C274.779 43.317 274.593 43.497 274.395 43.605C274.197 43.713 273.963 43.767 273.693 43.767C273.651 43.767 273.612 43.767 273.576 43.767C273.546 43.767 273.519 43.764 273.495 43.758V43.272Z" fill="white" style="fill:white;fill-opacity:1;"/>
<path d="M286.418 37.314H286.904V43.758H286.418V37.314ZM281.711 37.314H282.188V43.758H281.711V37.314ZM282.206 43.758H281.81L281.954 43.443L286.4 37.314H286.787L286.697 37.575L282.206 43.758Z" fill="white" style="fill:white;fill-opacity:1;"/>
<path d="M293.844 43.326C294.222 43.326 294.552 43.284 294.834 43.2C295.116 43.11 295.335 42.966 295.491 42.768C295.647 42.564 295.725 42.294 295.725 41.958C295.725 41.658 295.659 41.412 295.527 41.22C295.401 41.028 295.206 40.887 294.942 40.797C294.678 40.701 294.342 40.653 293.934 40.653H292.026V40.374H294.051C294.783 40.374 295.326 40.5 295.68 40.752C296.04 41.004 296.22 41.403 296.22 41.949C296.22 42.381 296.115 42.732 295.905 43.002C295.695 43.266 295.41 43.458 295.05 43.578C294.69 43.698 294.288 43.758 293.844 43.758H292.026V43.326H293.844ZM291.72 37.314H292.197V43.758H291.72V37.314ZM293.772 40.23C294.126 40.23 294.435 40.185 294.699 40.095C294.963 40.005 295.167 39.861 295.311 39.663C295.461 39.465 295.536 39.21 295.536 38.898C295.536 38.622 295.473 38.4 295.347 38.232C295.227 38.064 295.047 37.941 294.807 37.863C294.567 37.785 294.267 37.746 293.907 37.746H292.026V37.314H293.907C294.363 37.314 294.747 37.371 295.059 37.485C295.371 37.593 295.608 37.761 295.77 37.989C295.932 38.217 296.013 38.511 296.013 38.871C296.013 39.171 295.959 39.426 295.851 39.636C295.743 39.84 295.59 40.008 295.392 40.14C295.2 40.266 294.969 40.359 294.699 40.419C294.429 40.473 294.132 40.5 293.808 40.5H292.026V40.23H293.772Z" fill="white" style="fill:white;fill-opacity:1;"/>
<path d="M303.896 42.786H303.563L300.827 37.314H301.349L304.013 42.651L303.896 42.786ZM300.692 37.314H301.133V43.758H300.692V37.314ZM304.067 42.786L303.608 42.777L306.353 37.314H306.83L304.067 42.786ZM306.506 37.314H306.983V43.758H306.506V37.314Z" fill="white" style="fill:white;fill-opacity:1;"/>
<path d="M314.946 40.509C314.946 40.155 314.883 39.852 314.757 39.6C314.631 39.348 314.454 39.141 314.226 38.979C314.004 38.811 313.74 38.688 313.434 38.61C313.134 38.526 312.81 38.475 312.462 38.457V38.061C312.888 38.067 313.281 38.124 313.641 38.232C314.001 38.334 314.316 38.487 314.586 38.691C314.856 38.889 315.063 39.138 315.207 39.438C315.357 39.738 315.432 40.092 315.432 40.5C315.432 40.902 315.357 41.259 315.207 41.571C315.063 41.877 314.856 42.135 314.586 42.345C314.316 42.549 314.001 42.708 313.641 42.822C313.281 42.93 312.888 42.993 312.462 43.011V42.606C312.81 42.588 313.134 42.537 313.434 42.453C313.74 42.369 314.004 42.246 314.226 42.084C314.454 41.916 314.631 41.703 314.757 41.445C314.883 41.187 314.946 40.875 314.946 40.509ZM309.492 40.554C309.492 40.902 309.555 41.205 309.681 41.463C309.807 41.721 309.984 41.931 310.212 42.093C310.44 42.255 310.704 42.378 311.004 42.462C311.304 42.546 311.628 42.594 311.976 42.606V43.011C311.55 42.999 311.157 42.942 310.797 42.84C310.437 42.732 310.122 42.579 309.852 42.381C309.582 42.177 309.372 41.925 309.222 41.625C309.078 41.319 309.006 40.965 309.006 40.563C309.006 40.155 309.078 39.801 309.222 39.501C309.372 39.195 309.582 38.94 309.852 38.736C310.122 38.526 310.437 38.367 310.797 38.259C311.157 38.145 311.55 38.079 311.976 38.061V38.457C311.628 38.469 311.304 38.52 311.004 38.61C310.704 38.694 310.44 38.82 310.212 38.988C309.984 39.15 309.807 39.36 309.681 39.618C309.555 39.876 309.492 40.188 309.492 40.554ZM311.976 37.242H312.462V43.848H311.976V37.242Z" fill="white" style="fill:white;fill-opacity:1;"/>
<path d="M322.707 45.279L322.626 43.326H323.13V45.279H322.707ZM321.861 43.758V37.314H322.347V43.758H321.861ZM317.46 43.758V37.314H317.937V43.758H317.46ZM317.676 43.326H322.761V43.758H317.676V43.326Z" fill="white" style="fill:white;fill-opacity:1;"/>
</svg>
