<svg width="212" height="29" viewBox="0 0 212 29" fill="none" xmlns="http://www.w3.org/2000/svg">
<path d="M0 0.081H0.495V6.525H0V0.081ZM0.234 6.525V6.093H4.779V6.525H0.234ZM0.234 3.33V2.898H4.149V3.33H0.234ZM0.234 0.522V0.081H4.725V0.522H0.234Z" fill="white" style="fill:white;fill-opacity:1;"/>
<path d="M12.5089 6.615C11.7469 6.615 11.0929 6.483 10.5469 6.219C10.0009 5.955 9.58087 5.577 9.28687 5.085C8.99887 4.593 8.85487 4.002 8.85487 3.312C8.85487 2.61 8.99887 2.013 9.28687 1.521C9.57487 1.029 9.98888 0.654 10.5289 0.396C11.0689 0.132 11.7229 0 12.4909 0C13.0189 0 13.4809 0.054 13.8769 0.162C14.2729 0.27 14.5999 0.408 14.8579 0.576V1.053C14.6779 0.927 14.4589 0.819 14.2009 0.729C13.9489 0.633 13.6759 0.561 13.3819 0.513C13.0879 0.459 12.7909 0.432 12.4909 0.432C11.8189 0.432 11.2489 0.543 10.7809 0.765C10.3189 0.987 9.96787 1.314 9.72787 1.746C9.49387 2.172 9.37687 2.694 9.37687 3.312C9.37687 3.924 9.49687 4.443 9.73687 4.869C9.98287 5.295 10.3399 5.622 10.8079 5.85C11.2819 6.072 11.8549 6.183 12.5269 6.183C12.8209 6.183 13.1119 6.156 13.3999 6.102C13.6879 6.048 13.9579 5.973 14.2099 5.877C14.4619 5.775 14.6779 5.655 14.8579 5.517V6.003C14.6059 6.183 14.2819 6.33 13.8859 6.444C13.4899 6.558 13.0309 6.615 12.5089 6.615Z" fill="white" style="fill:white;fill-opacity:1;"/>
<path d="M18.862 0.522V0.081H24.766V0.522H18.862ZM21.571 0.153H22.057V6.525H21.571V0.153Z" fill="white" style="fill:white;fill-opacity:1;"/>
<path d="M29.0737 6.525V0.081H29.5687V6.525H29.0737ZM31.3777 6.093C31.8337 6.093 32.2117 6.045 32.5117 5.949C32.8177 5.853 33.0457 5.697 33.1957 5.481C33.3517 5.259 33.4297 4.968 33.4297 4.608C33.4297 4.14 33.2707 3.795 32.9527 3.573C32.6347 3.351 32.1487 3.24 31.4947 3.24H29.4157V2.808H31.5037C32.0317 2.808 32.4757 2.871 32.8357 2.997C33.1957 3.117 33.4687 3.309 33.6547 3.573C33.8467 3.837 33.9427 4.179 33.9427 4.599C33.9427 5.055 33.8407 5.427 33.6367 5.715C33.4327 5.997 33.1387 6.204 32.7547 6.336C32.3707 6.462 31.9117 6.525 31.3777 6.525H29.4157V6.093H31.3777Z" fill="white" style="fill:white;fill-opacity:1;"/>
<path d="M48.9632 0.081H49.4582V6.525H48.9632V0.081ZM43.8152 0.081H44.3102V6.525H43.8152V0.081ZM44.0132 0.522V0.081H49.2332V0.522H44.0132Z" fill="white" style="fill:white;fill-opacity:1;"/>
<path d="M56.9095 3.357C57.3655 3.357 57.7465 3.309 58.0525 3.213C58.3645 3.117 58.5985 2.961 58.7545 2.745C58.9105 2.523 58.9885 2.232 58.9885 1.872C58.9885 1.56 58.9135 1.305 58.7635 1.107C58.6195 0.909 58.4035 0.762 58.1155 0.666C57.8275 0.57 57.4615 0.522 57.0175 0.522H54.9295V0.081H57.0175C57.8155 0.081 58.4245 0.225 58.8445 0.513C59.2705 0.801 59.4835 1.251 59.4835 1.863C59.4835 2.319 59.3815 2.691 59.1775 2.979C58.9735 3.261 58.6795 3.468 58.2955 3.6C57.9115 3.726 57.4495 3.789 56.9095 3.789H54.9295V3.357H56.9095ZM54.5875 0.081H55.0825V6.525H54.5875V0.081Z" fill="white" style="fill:white;fill-opacity:1;"/>
<path d="M67.2093 6.615C66.6933 6.615 66.2133 6.54 65.7693 6.39C65.3313 6.24 64.9503 6.021 64.6263 5.733C64.3083 5.445 64.0593 5.094 63.8793 4.68C63.6993 4.266 63.6093 3.798 63.6093 3.276C63.6093 2.754 63.6993 2.289 63.8793 1.881C64.0593 1.473 64.3083 1.131 64.6263 0.855C64.9503 0.573 65.3313 0.36 65.7693 0.216C66.2133 0.072 66.6933 0 67.2093 0C67.7313 0 68.2113 0.072 68.6493 0.216C69.0873 0.36 69.4653 0.573 69.7833 0.855C70.1073 1.137 70.3563 1.482 70.5303 1.89C70.7103 2.292 70.8003 2.754 70.8003 3.276C70.8003 3.798 70.7103 4.266 70.5303 4.68C70.3563 5.094 70.1073 5.445 69.7833 5.733C69.4653 6.021 69.0873 6.24 68.6493 6.39C68.2113 6.54 67.7313 6.615 67.2093 6.615ZM67.2093 6.183C67.8153 6.183 68.3463 6.075 68.8023 5.859C69.2643 5.643 69.6273 5.322 69.8913 4.896C70.1553 4.47 70.2873 3.942 70.2873 3.312C70.2873 2.67 70.1553 2.136 69.8913 1.71C69.6273 1.284 69.2643 0.966 68.8023 0.756C68.3463 0.54 67.8153 0.432 67.2093 0.432C66.6153 0.432 66.0843 0.54 65.6163 0.756C65.1543 0.966 64.7913 1.284 64.5273 1.71C64.2633 2.136 64.1313 2.67 64.1313 3.312C64.1313 3.942 64.2633 4.47 64.5273 4.896C64.7913 5.322 65.1543 5.643 65.6163 5.859C66.0843 6.075 66.6153 6.183 67.2093 6.183Z" fill="white" style="fill:white;fill-opacity:1;"/>
<path d="M74.302 0.522V0.081H80.206V0.522H74.302ZM77.011 0.153H77.497V6.525H77.011V0.153Z" fill="white" style="fill:white;fill-opacity:1;"/>
<path d="M89.9857 0.081H90.4897V6.525H89.9857V0.081ZM84.5047 0.081H84.9997V6.525H84.5047V0.081ZM85.0177 6.525H84.6127L84.7387 6.21L89.9677 0.081H90.3637L90.2827 0.342L85.0177 6.525Z" fill="white" style="fill:white;fill-opacity:1;"/>
<path d="M98.0589 6.093C98.5089 6.093 98.8989 6.051 99.2289 5.967C99.5649 5.877 99.8259 5.733 100.012 5.535C100.198 5.331 100.291 5.061 100.291 4.725C100.291 4.425 100.213 4.179 100.057 3.987C99.9069 3.795 99.6759 3.654 99.3639 3.564C99.0579 3.474 98.6649 3.429 98.1849 3.429H95.9349V3.132H98.3289C99.1629 3.132 99.7809 3.261 100.183 3.519C100.591 3.771 100.795 4.17 100.795 4.716C100.795 5.154 100.675 5.505 100.435 5.769C100.195 6.033 99.8679 6.225 99.4539 6.345C99.0399 6.465 98.5749 6.525 98.0589 6.525H95.9349V6.093H98.0589ZM95.6109 0.081H96.1059V6.525H95.6109V0.081ZM97.9779 2.997C98.3979 2.997 98.7639 2.952 99.0759 2.862C99.3879 2.772 99.6309 2.631 99.8049 2.439C99.9789 2.241 100.066 1.983 100.066 1.665C100.066 1.389 99.9939 1.167 99.8499 0.999C99.7059 0.831 99.4899 0.708 99.2019 0.63C98.9139 0.552 98.5569 0.513 98.1309 0.513H95.9259V0.081H98.1399C98.6619 0.081 99.1029 0.135 99.4629 0.243C99.8229 0.351 100.096 0.519 100.282 0.747C100.468 0.975 100.561 1.275 100.561 1.647C100.561 1.947 100.498 2.202 100.372 2.412C100.252 2.616 100.078 2.781 99.8499 2.907C99.6279 3.033 99.3609 3.126 99.0489 3.186C98.7429 3.24 98.4009 3.267 98.0229 3.267H95.9349V2.997H97.9779Z" fill="white" style="fill:white;fill-opacity:1;"/>
<path d="M108.637 6.615C108.121 6.615 107.641 6.54 107.197 6.39C106.759 6.24 106.378 6.021 106.054 5.733C105.736 5.445 105.487 5.094 105.307 4.68C105.127 4.266 105.037 3.798 105.037 3.276C105.037 2.754 105.127 2.289 105.307 1.881C105.487 1.473 105.736 1.131 106.054 0.855C106.378 0.573 106.759 0.36 107.197 0.216C107.641 0.072 108.121 0 108.637 0C109.159 0 109.639 0.072 110.077 0.216C110.515 0.36 110.893 0.573 111.211 0.855C111.535 1.137 111.784 1.482 111.958 1.89C112.138 2.292 112.228 2.754 112.228 3.276C112.228 3.798 112.138 4.266 111.958 4.68C111.784 5.094 111.535 5.445 111.211 5.733C110.893 6.021 110.515 6.24 110.077 6.39C109.639 6.54 109.159 6.615 108.637 6.615ZM108.637 6.183C109.243 6.183 109.774 6.075 110.23 5.859C110.692 5.643 111.055 5.322 111.319 4.896C111.583 4.47 111.715 3.942 111.715 3.312C111.715 2.67 111.583 2.136 111.319 1.71C111.055 1.284 110.692 0.966 110.23 0.756C109.774 0.54 109.243 0.432 108.637 0.432C108.043 0.432 107.512 0.54 107.044 0.756C106.582 0.966 106.219 1.284 105.955 1.71C105.691 2.136 105.559 2.67 105.559 3.312C105.559 3.942 105.691 4.47 105.955 4.896C106.219 5.322 106.582 5.643 107.044 5.859C107.512 6.075 108.043 6.183 108.637 6.183Z" fill="white" style="fill:white;fill-opacity:1;"/>
<path d="M122.084 0.081H122.579V6.525H122.084V0.081ZM116.936 0.081H117.431V6.525H116.936V0.081ZM117.134 0.522V0.081H122.354V0.522H117.134Z" fill="white" style="fill:white;fill-opacity:1;"/>
<path d="M130.876 6.615C130.36 6.615 129.88 6.54 129.436 6.39C128.998 6.24 128.617 6.021 128.293 5.733C127.975 5.445 127.726 5.094 127.546 4.68C127.366 4.266 127.276 3.798 127.276 3.276C127.276 2.754 127.366 2.289 127.546 1.881C127.726 1.473 127.975 1.131 128.293 0.855C128.617 0.573 128.998 0.36 129.436 0.216C129.88 0.072 130.36 0 130.876 0C131.398 0 131.878 0.072 132.316 0.216C132.754 0.36 133.132 0.573 133.45 0.855C133.774 1.137 134.023 1.482 134.197 1.89C134.377 2.292 134.467 2.754 134.467 3.276C134.467 3.798 134.377 4.266 134.197 4.68C134.023 5.094 133.774 5.445 133.45 5.733C133.132 6.021 132.754 6.24 132.316 6.39C131.878 6.54 131.398 6.615 130.876 6.615ZM130.876 6.183C131.482 6.183 132.013 6.075 132.469 5.859C132.931 5.643 133.294 5.322 133.558 4.896C133.822 4.47 133.954 3.942 133.954 3.312C133.954 2.67 133.822 2.136 133.558 1.71C133.294 1.284 132.931 0.966 132.469 0.756C132.013 0.54 131.482 0.432 130.876 0.432C130.282 0.432 129.751 0.54 129.283 0.756C128.821 0.966 128.458 1.284 128.194 1.71C127.93 2.136 127.798 2.67 127.798 3.312C127.798 3.942 127.93 4.47 128.194 4.896C128.458 5.322 128.821 5.643 129.283 5.859C129.751 6.075 130.282 6.183 130.876 6.183Z" fill="white" style="fill:white;fill-opacity:1;"/>
<path d="M139.174 0.081H139.669V6.525H139.174V0.081ZM139.48 3.51V3.078H141.127V3.51H139.48ZM144.574 6.525H143.935L140.74 3.294L143.827 0.081H144.412L141.19 3.438L141.235 3.15L144.574 6.525Z" fill="white" style="fill:white;fill-opacity:1;"/>
<path d="M154.858 6.525H154.336L151.303 0.0989998V0.081H151.825L154.858 6.525ZM151.159 0.081H151.636L148.639 6.525H148.162L151.159 0.081ZM149.341 4.482V4.05H153.607V4.482H149.341Z" fill="white" style="fill:white;fill-opacity:1;"/>
<path d="M161.143 6.615C160.789 6.615 160.462 6.588 160.162 6.534C159.862 6.486 159.595 6.414 159.361 6.318C159.133 6.222 158.932 6.114 158.758 5.994V5.517C158.944 5.649 159.163 5.766 159.415 5.868C159.667 5.97 159.94 6.048 160.234 6.102C160.528 6.156 160.828 6.183 161.134 6.183C161.566 6.183 161.941 6.138 162.259 6.048C162.577 5.952 162.823 5.799 162.997 5.589C163.177 5.373 163.267 5.085 163.267 4.725C163.267 4.419 163.189 4.173 163.033 3.987C162.883 3.795 162.655 3.654 162.349 3.564C162.043 3.474 161.659 3.429 161.197 3.429H160V3.123H161.323C161.881 3.123 162.34 3.18 162.7 3.294C163.066 3.408 163.336 3.585 163.51 3.825C163.69 4.059 163.78 4.356 163.78 4.716C163.78 5.058 163.711 5.349 163.573 5.589C163.441 5.829 163.255 6.027 163.015 6.183C162.775 6.333 162.493 6.444 162.169 6.516C161.851 6.582 161.509 6.615 161.143 6.615ZM160 3.285V3.006H160.99C161.416 3.006 161.785 2.961 162.097 2.871C162.409 2.775 162.649 2.631 162.817 2.439C162.991 2.241 163.078 1.989 163.078 1.683C163.078 1.389 163.006 1.149 162.862 0.963C162.724 0.777 162.517 0.642 162.241 0.558C161.965 0.468 161.623 0.423 161.215 0.423C160.897 0.423 160.588 0.45 160.288 0.504C159.994 0.552 159.721 0.621 159.469 0.711C159.217 0.801 158.998 0.909 158.812 1.035V0.576C158.986 0.456 159.19 0.354 159.424 0.27C159.658 0.186 159.925 0.12 160.225 0.0720001C160.525 0.024 160.855 0 161.215 0C161.965 0 162.547 0.135 162.961 0.405C163.375 0.669 163.582 1.086 163.582 1.656C163.582 1.932 163.522 2.175 163.402 2.385C163.288 2.589 163.12 2.757 162.898 2.889C162.676 3.021 162.409 3.12 162.097 3.186C161.791 3.252 161.443 3.285 161.053 3.285H160Z" fill="white" style="fill:white;fill-opacity:1;"/>
<path d="M174.346 6.525H173.824L170.791 0.0989998V0.081H171.313L174.346 6.525ZM170.647 0.081H171.124L168.127 6.525H167.65L170.647 0.081ZM168.829 4.482V4.05H173.095V4.482H168.829Z" fill="white" style="fill:white;fill-opacity:1;"/>
<path d="M184.014 0.081H184.509V6.525H184.014V0.081ZM178.695 0.081H179.19V6.525H178.695V0.081ZM178.974 3.546V3.114H184.23V3.546H178.974Z" fill="white" style="fill:white;fill-opacity:1;"/>
<path d="M195.124 0.081H195.628V6.525H195.124V0.081ZM189.643 0.081H190.138V6.525H189.643V0.081ZM190.156 6.525H189.751L189.877 6.21L195.106 0.081H195.502L195.421 0.342L190.156 6.525Z" fill="white" style="fill:white;fill-opacity:1;"/>
<path d="M200.803 1.881C200.803 1.461 200.899 1.119 201.091 0.855C201.289 0.591 201.574 0.396 201.946 0.27C202.318 0.144 202.762 0.081 203.278 0.081H205.33V0.522H203.278C202.846 0.522 202.483 0.57 202.189 0.666C201.895 0.756 201.676 0.903 201.532 1.107C201.388 1.305 201.316 1.563 201.316 1.881C201.316 2.397 201.484 2.769 201.82 2.997C202.156 3.225 202.663 3.339 203.341 3.339H205.33V3.771H203.242L203.089 3.735C202.597 3.717 202.18 3.639 201.838 3.501C201.502 3.363 201.244 3.162 201.064 2.898C200.89 2.628 200.803 2.289 200.803 1.881ZM202.819 3.609H203.413L200.821 6.525H200.191L202.819 3.609ZM205.177 0.081H205.672V6.525H205.177V0.081Z" fill="white" style="fill:white;fill-opacity:1;"/>
<path d="M210.927 6.57C210.837 6.57 210.759 6.552 210.693 6.516C210.627 6.474 210.576 6.423 210.54 6.363C210.504 6.303 210.486 6.237 210.486 6.165C210.486 6.087 210.504 6.021 210.54 5.967C210.576 5.907 210.627 5.859 210.693 5.823C210.765 5.781 210.846 5.76 210.936 5.76C211.026 5.76 211.101 5.781 211.161 5.823C211.227 5.859 211.278 5.907 211.314 5.967C211.356 6.021 211.377 6.087 211.377 6.165C211.377 6.237 211.359 6.303 211.323 6.363C211.287 6.423 211.236 6.474 211.17 6.516C211.104 6.552 211.023 6.57 210.927 6.57Z" fill="white" style="fill:white;fill-opacity:1;"/>
<path d="M5.148 10.081H5.643V16.525H5.148V10.081ZM0 10.081H0.495V16.525H0V10.081ZM0.198 10.522V10.081H5.418V10.522H0.198Z" fill="white" style="fill:white;fill-opacity:1;"/>
<path d="M10.7002 16.615C10.1842 16.615 9.70423 16.54 9.26023 16.39C8.82223 16.24 8.44123 16.021 8.11723 15.733C7.79923 15.445 7.55023 15.094 7.37023 14.68C7.19023 14.266 7.10023 13.798 7.10023 13.276C7.10023 12.754 7.19023 12.289 7.37023 11.881C7.55023 11.473 7.79923 11.131 8.11723 10.855C8.44123 10.573 8.82223 10.36 9.26023 10.216C9.70423 10.072 10.1842 10 10.7002 10C11.2222 10 11.7022 10.072 12.1402 10.216C12.5782 10.36 12.9562 10.573 13.2742 10.855C13.5982 11.137 13.8472 11.482 14.0212 11.89C14.2012 12.292 14.2912 12.754 14.2912 13.276C14.2912 13.798 14.2012 14.266 14.0212 14.68C13.8472 15.094 13.5982 15.445 13.2742 15.733C12.9562 16.021 12.5782 16.24 12.1402 16.39C11.7022 16.54 11.2222 16.615 10.7002 16.615ZM10.7002 16.183C11.3062 16.183 11.8372 16.075 12.2932 15.859C12.7552 15.643 13.1182 15.322 13.3822 14.896C13.6462 14.47 13.7782 13.942 13.7782 13.312C13.7782 12.67 13.6462 12.136 13.3822 11.71C13.1182 11.284 12.7552 10.966 12.2932 10.756C11.8372 10.54 11.3062 10.432 10.7002 10.432C10.1062 10.432 9.57523 10.54 9.10723 10.756C8.64523 10.966 8.28223 11.284 8.01823 11.71C7.75423 12.136 7.62223 12.67 7.62223 13.312C7.62223 13.942 7.75423 14.47 8.01823 14.896C8.28223 15.322 8.64523 15.643 9.10723 15.859C9.57523 16.075 10.1062 16.183 10.7002 16.183Z" fill="white" style="fill:white;fill-opacity:1;"/>
<path d="M18.9808 16.615C18.2188 16.615 17.5648 16.483 17.0188 16.219C16.4728 15.955 16.0528 15.577 15.7588 15.085C15.4708 14.593 15.3268 14.002 15.3268 13.312C15.3268 12.61 15.4708 12.013 15.7588 11.521C16.0468 11.029 16.4608 10.654 17.0008 10.396C17.5408 10.132 18.1948 10 18.9628 10C19.4908 10 19.9528 10.054 20.3488 10.162C20.7448 10.27 21.0718 10.408 21.3298 10.576V11.053C21.1498 10.927 20.9308 10.819 20.6728 10.729C20.4208 10.633 20.1478 10.561 19.8538 10.513C19.5598 10.459 19.2628 10.432 18.9628 10.432C18.2908 10.432 17.7208 10.543 17.2528 10.765C16.7908 10.987 16.4398 11.314 16.1998 11.746C15.9658 12.172 15.8488 12.694 15.8488 13.312C15.8488 13.924 15.9688 14.443 16.2088 14.869C16.4548 15.295 16.8118 15.622 17.2798 15.85C17.7538 16.072 18.3268 16.183 18.9988 16.183C19.2928 16.183 19.5838 16.156 19.8718 16.102C20.1598 16.048 20.4298 15.973 20.6818 15.877C20.9338 15.775 21.1498 15.655 21.3298 15.517V16.003C21.0778 16.183 20.7538 16.33 20.3578 16.444C19.9618 16.558 19.5028 16.615 18.9808 16.615Z" fill="white" style="fill:white;fill-opacity:1;"/>
<path d="M25.9053 16.615C25.3893 16.615 24.9093 16.54 24.4653 16.39C24.0273 16.24 23.6463 16.021 23.3223 15.733C23.0043 15.445 22.7553 15.094 22.5753 14.68C22.3953 14.266 22.3053 13.798 22.3053 13.276C22.3053 12.754 22.3953 12.289 22.5753 11.881C22.7553 11.473 23.0043 11.131 23.3223 10.855C23.6463 10.573 24.0273 10.36 24.4653 10.216C24.9093 10.072 25.3893 10 25.9053 10C26.4273 10 26.9073 10.072 27.3453 10.216C27.7833 10.36 28.1613 10.573 28.4793 10.855C28.8033 11.137 29.0523 11.482 29.2263 11.89C29.4063 12.292 29.4963 12.754 29.4963 13.276C29.4963 13.798 29.4063 14.266 29.2263 14.68C29.0523 15.094 28.8033 15.445 28.4793 15.733C28.1613 16.021 27.7833 16.24 27.3453 16.39C26.9073 16.54 26.4273 16.615 25.9053 16.615ZM25.9053 16.183C26.5113 16.183 27.0423 16.075 27.4983 15.859C27.9603 15.643 28.3233 15.322 28.5873 14.896C28.8513 14.47 28.9833 13.942 28.9833 13.312C28.9833 12.67 28.8513 12.136 28.5873 11.71C28.3233 11.284 27.9603 10.966 27.4983 10.756C27.0423 10.54 26.5113 10.432 25.9053 10.432C25.3113 10.432 24.7803 10.54 24.3123 10.756C23.8503 10.966 23.4873 11.284 23.2233 11.71C22.9593 12.136 22.8273 12.67 22.8273 13.312C22.8273 13.942 22.9593 14.47 23.2233 14.896C23.4873 15.322 23.8503 15.643 24.3123 15.859C24.7803 16.075 25.3113 16.183 25.9053 16.183Z" fill="white" style="fill:white;fill-opacity:1;"/>
<path d="M33.4119 16.093C33.8619 16.093 34.2519 16.051 34.5819 15.967C34.9179 15.877 35.1789 15.733 35.3649 15.535C35.5509 15.331 35.6439 15.061 35.6439 14.725C35.6439 14.425 35.5659 14.179 35.4099 13.987C35.2599 13.795 35.0289 13.654 34.7169 13.564C34.4109 13.474 34.0179 13.429 33.5379 13.429H31.2879V13.132H33.6819C34.5159 13.132 35.1339 13.261 35.5359 13.519C35.9439 13.771 36.1479 14.17 36.1479 14.716C36.1479 15.154 36.0279 15.505 35.7879 15.769C35.5479 16.033 35.2209 16.225 34.8069 16.345C34.3929 16.465 33.9279 16.525 33.4119 16.525H31.2879V16.093H33.4119ZM30.9639 10.081H31.4589V16.525H30.9639V10.081ZM33.3309 12.997C33.7509 12.997 34.1169 12.952 34.4289 12.862C34.7409 12.772 34.9839 12.631 35.1579 12.439C35.3319 12.241 35.4189 11.983 35.4189 11.665C35.4189 11.389 35.3469 11.167 35.2029 10.999C35.0589 10.831 34.8429 10.708 34.5549 10.63C34.2669 10.552 33.9099 10.513 33.4839 10.513H31.2789V10.081H33.4929C34.0149 10.081 34.4559 10.135 34.8159 10.243C35.1759 10.351 35.4489 10.519 35.6349 10.747C35.8209 10.975 35.9139 11.275 35.9139 11.647C35.9139 11.947 35.8509 12.202 35.7249 12.412C35.6049 12.616 35.4309 12.781 35.2029 12.907C34.9809 13.033 34.7139 13.126 34.4019 13.186C34.0959 13.24 33.7539 13.267 33.3759 13.267H31.2879V12.997H33.3309Z" fill="white" style="fill:white;fill-opacity:1;"/>
<path d="M37.626 10.081H38.121V16.525H37.626V10.081ZM37.86 16.525V16.093H42.405V16.525H37.86ZM37.86 13.33V12.898H41.775V13.33H37.86ZM37.86 10.522V10.081H42.351V10.522H37.86Z" fill="white" style="fill:white;fill-opacity:1;"/>
<path d="M43.1525 10.522V10.081H49.0565V10.522H43.1525ZM45.8615 10.153H46.3475V16.525H45.8615V10.153Z" fill="white" style="fill:white;fill-opacity:1;"/>
<path d="M52.6835 15.193L49.6775 10.081H50.2535L52.9355 14.626L52.6835 15.193ZM50.8115 16.03C50.8415 16.036 50.8745 16.042 50.9105 16.048C50.9465 16.048 50.9915 16.048 51.0455 16.048C51.2795 16.048 51.4865 16.003 51.6665 15.913C51.8525 15.823 52.0235 15.679 52.1795 15.481C52.3355 15.283 52.4915 15.022 52.6475 14.698L52.7375 14.527L55.0235 10.081H55.5725L53.1155 14.788C52.8935 15.22 52.6835 15.565 52.4855 15.823C52.2875 16.075 52.0775 16.258 51.8555 16.372C51.6335 16.48 51.3695 16.534 51.0635 16.534C51.0095 16.534 50.9615 16.531 50.9195 16.525C50.8835 16.525 50.8475 16.522 50.8115 16.516V16.03Z" fill="white" style="fill:white;fill-opacity:1;"/>
<path d="M59.5898 9.676C59.2478 9.676 58.9658 9.622 58.7438 9.514C58.5218 9.406 58.3568 9.262 58.2488 9.082C58.1408 8.896 58.0868 8.695 58.0868 8.479H58.5728C58.5728 8.761 58.6598 8.971 58.8338 9.109C59.0138 9.247 59.2658 9.316 59.5898 9.316C59.9198 9.316 60.1688 9.247 60.3368 9.109C60.5108 8.971 60.5978 8.761 60.5978 8.479H61.0748C61.0748 8.695 61.0208 8.896 60.9128 9.082C60.8048 9.262 60.6428 9.406 60.4268 9.514C60.2108 9.622 59.9318 9.676 59.5898 9.676ZM62.0738 10.081H62.5778V16.525H62.0738V10.081ZM56.5928 10.081H57.0878V16.525H56.5928V10.081ZM57.1058 16.525H56.7008L56.8268 16.21L62.0558 10.081H62.4518L62.3708 10.342L57.1058 16.525Z" fill="white" style="fill:white;fill-opacity:1;"/>
<path d="M63.631 10.522V10.081H69.535V10.522H63.631ZM66.34 10.153H66.826V16.525H66.34V10.153Z" fill="white" style="fill:white;fill-opacity:1;"/>
<path d="M70.5938 10.081H71.0888V16.525H70.5938V10.081ZM70.8278 16.525V16.093H75.3727V16.525H70.8278ZM70.8278 13.33V12.898H74.7428V13.33H70.8278ZM70.8278 10.522V10.081H75.3187V10.522H70.8278Z" fill="white" style="fill:white;fill-opacity:1;"/>
<path d="M79.8626 16.615C79.1006 16.615 78.4466 16.483 77.9006 16.219C77.3546 15.955 76.9346 15.577 76.6406 15.085C76.3526 14.593 76.2086 14.002 76.2086 13.312C76.2086 12.61 76.3526 12.013 76.6406 11.521C76.9286 11.029 77.3426 10.654 77.8826 10.396C78.4226 10.132 79.0766 10 79.8446 10C80.3726 10 80.8346 10.054 81.2306 10.162C81.6266 10.27 81.9536 10.408 82.2116 10.576V11.053C82.0316 10.927 81.8126 10.819 81.5546 10.729C81.3026 10.633 81.0296 10.561 80.7356 10.513C80.4416 10.459 80.1446 10.432 79.8446 10.432C79.1726 10.432 78.6026 10.543 78.1346 10.765C77.6726 10.987 77.3216 11.314 77.0816 11.746C76.8476 12.172 76.7306 12.694 76.7306 13.312C76.7306 13.924 76.8506 14.443 77.0906 14.869C77.3366 15.295 77.6936 15.622 78.1616 15.85C78.6356 16.072 79.2086 16.183 79.8806 16.183C80.1746 16.183 80.4656 16.156 80.7536 16.102C81.0416 16.048 81.3116 15.973 81.5636 15.877C81.8156 15.775 82.0316 15.655 82.2116 15.517V16.003C81.9596 16.183 81.6356 16.33 81.2396 16.444C80.8436 16.558 80.3846 16.615 79.8626 16.615Z" fill="white" style="fill:white;fill-opacity:1;"/>
<path d="M83.7424 16.525V10.081H84.2374V16.525H83.7424ZM86.0464 16.093C86.5024 16.093 86.8804 16.045 87.1804 15.949C87.4864 15.853 87.7144 15.697 87.8644 15.481C88.0204 15.259 88.0984 14.968 88.0984 14.608C88.0984 14.14 87.9394 13.795 87.6214 13.573C87.3034 13.351 86.8174 13.24 86.1634 13.24H84.0844V12.808H86.1724C86.7004 12.808 87.1444 12.871 87.5044 12.997C87.8644 13.117 88.1374 13.309 88.3234 13.573C88.5154 13.837 88.6114 14.179 88.6114 14.599C88.6114 15.055 88.5094 15.427 88.3054 15.715C88.1014 15.997 87.8074 16.204 87.4234 16.336C87.0394 16.462 86.5804 16.525 86.0464 16.525H84.0844V16.093H86.0464Z" fill="white" style="fill:white;fill-opacity:1;"/>
<path d="M95.2259 16.615C94.4639 16.615 93.8099 16.483 93.2639 16.219C92.7179 15.955 92.2979 15.577 92.0039 15.085C91.7159 14.593 91.5719 14.002 91.5719 13.312C91.5719 12.61 91.7159 12.013 92.0039 11.521C92.2919 11.029 92.7059 10.654 93.2459 10.396C93.7859 10.132 94.4399 10 95.2079 10C95.7359 10 96.1979 10.054 96.5939 10.162C96.9899 10.27 97.3169 10.408 97.5749 10.576V11.053C97.3949 10.927 97.1759 10.819 96.9179 10.729C96.6659 10.633 96.3929 10.561 96.0989 10.513C95.8049 10.459 95.5079 10.432 95.2079 10.432C94.5359 10.432 93.9659 10.543 93.4979 10.765C93.0359 10.987 92.6849 11.314 92.4449 11.746C92.2109 12.172 92.0939 12.694 92.0939 13.312C92.0939 13.924 92.2139 14.443 92.4539 14.869C92.6999 15.295 93.0569 15.622 93.5249 15.85C93.9989 16.072 94.5719 16.183 95.2439 16.183C95.5379 16.183 95.8289 16.156 96.1169 16.102C96.4049 16.048 96.6749 15.973 96.9269 15.877C97.1789 15.775 97.3949 15.655 97.5749 15.517V16.003C97.3229 16.183 96.9989 16.33 96.6029 16.444C96.2069 16.558 95.7479 16.615 95.2259 16.615Z" fill="white" style="fill:white;fill-opacity:1;"/>
<path d="M103.496 16.093C103.946 16.093 104.336 16.051 104.666 15.967C105.002 15.877 105.263 15.733 105.449 15.535C105.635 15.331 105.728 15.061 105.728 14.725C105.728 14.425 105.65 14.179 105.494 13.987C105.344 13.795 105.113 13.654 104.801 13.564C104.495 13.474 104.102 13.429 103.622 13.429H101.372V13.132H103.766C104.6 13.132 105.218 13.261 105.62 13.519C106.028 13.771 106.232 14.17 106.232 14.716C106.232 15.154 106.112 15.505 105.872 15.769C105.632 16.033 105.305 16.225 104.891 16.345C104.477 16.465 104.012 16.525 103.496 16.525H101.372V16.093H103.496ZM101.048 10.081H101.543V16.525H101.048V10.081ZM103.415 12.997C103.835 12.997 104.201 12.952 104.513 12.862C104.825 12.772 105.068 12.631 105.242 12.439C105.416 12.241 105.503 11.983 105.503 11.665C105.503 11.389 105.431 11.167 105.287 10.999C105.143 10.831 104.927 10.708 104.639 10.63C104.351 10.552 103.994 10.513 103.568 10.513H101.363V10.081H103.577C104.099 10.081 104.54 10.135 104.9 10.243C105.26 10.351 105.533 10.519 105.719 10.747C105.905 10.975 105.998 11.275 105.998 11.647C105.998 11.947 105.935 12.202 105.809 12.412C105.689 12.616 105.515 12.781 105.287 12.907C105.065 13.033 104.798 13.126 104.486 13.186C104.18 13.24 103.838 13.267 103.46 13.267H101.372V12.997H103.415Z" fill="white" style="fill:white;fill-opacity:1;"/>
<path d="M110.032 13.357C110.488 13.357 110.869 13.309 111.175 13.213C111.487 13.117 111.721 12.961 111.877 12.745C112.033 12.523 112.111 12.232 112.111 11.872C112.111 11.56 112.036 11.305 111.886 11.107C111.742 10.909 111.526 10.762 111.238 10.666C110.95 10.57 110.584 10.522 110.14 10.522H108.052V10.081H110.14C110.938 10.081 111.547 10.225 111.967 10.513C112.393 10.801 112.606 11.251 112.606 11.863C112.606 12.319 112.504 12.691 112.3 12.979C112.096 13.261 111.802 13.468 111.418 13.6C111.034 13.726 110.572 13.789 110.032 13.789H108.052V13.357H110.032ZM107.71 10.081H108.205V16.525H107.71V10.081Z" fill="white" style="fill:white;fill-opacity:1;"/>
<path d="M119.283 16.525H118.761L115.728 10.099V10.081H116.25L119.283 16.525ZM115.584 10.081H116.061L113.064 16.525H112.587L115.584 10.081ZM113.766 14.482V14.05H118.032V14.482H113.766Z" fill="white" style="fill:white;fill-opacity:1;"/>
<path d="M124.136 10.081H124.631V16.525H124.136V10.081ZM119.474 11.764V10.081H119.978V11.764C119.978 12.196 120.059 12.55 120.221 12.826C120.389 13.102 120.62 13.306 120.914 13.438C121.208 13.564 121.553 13.627 121.949 13.627C122.369 13.627 122.78 13.585 123.182 13.501C123.584 13.417 123.953 13.249 124.289 12.997L124.397 13.348C124.055 13.594 123.683 13.774 123.281 13.888C122.879 13.996 122.438 14.05 121.958 14.05C121.46 14.05 121.025 13.972 120.653 13.816C120.281 13.654 119.99 13.408 119.78 13.078C119.576 12.742 119.474 12.304 119.474 11.764Z" fill="white" style="fill:white;fill-opacity:1;"/>
<path d="M129.678 16.615C129.162 16.615 128.682 16.54 128.238 16.39C127.8 16.24 127.419 16.021 127.095 15.733C126.777 15.445 126.528 15.094 126.348 14.68C126.168 14.266 126.078 13.798 126.078 13.276C126.078 12.754 126.168 12.289 126.348 11.881C126.528 11.473 126.777 11.131 127.095 10.855C127.419 10.573 127.8 10.36 128.238 10.216C128.682 10.072 129.162 10 129.678 10C130.2 10 130.68 10.072 131.118 10.216C131.556 10.36 131.934 10.573 132.252 10.855C132.576 11.137 132.825 11.482 132.999 11.89C133.179 12.292 133.269 12.754 133.269 13.276C133.269 13.798 133.179 14.266 132.999 14.68C132.825 15.094 132.576 15.445 132.252 15.733C131.934 16.021 131.556 16.24 131.118 16.39C130.68 16.54 130.2 16.615 129.678 16.615ZM129.678 16.183C130.284 16.183 130.815 16.075 131.271 15.859C131.733 15.643 132.096 15.322 132.36 14.896C132.624 14.47 132.756 13.942 132.756 13.312C132.756 12.67 132.624 12.136 132.36 11.71C132.096 11.284 131.733 10.966 131.271 10.756C130.815 10.54 130.284 10.432 129.678 10.432C129.084 10.432 128.553 10.54 128.085 10.756C127.623 10.966 127.26 11.284 126.996 11.71C126.732 12.136 126.6 12.67 126.6 13.312C126.6 13.942 126.732 14.47 126.996 14.896C127.26 15.322 127.623 15.643 128.085 15.859C128.553 16.075 129.084 16.183 129.678 16.183Z" fill="white" style="fill:white;fill-opacity:1;"/>
<path d="M138.48 15.571H138.084L134.871 10.081H135.429L138.57 15.436L138.48 15.571ZM134.736 10.081H135.195V16.525H134.736V10.081ZM138.606 15.571L138.129 15.535L141.333 10.081H141.837L138.606 15.571ZM141.495 10.081H141.999V16.525H141.495V10.081Z" fill="white" style="fill:white;fill-opacity:1;"/>
<path d="M146.476 16.57C146.386 16.57 146.308 16.552 146.242 16.516C146.176 16.474 146.125 16.423 146.089 16.363C146.053 16.303 146.035 16.237 146.035 16.165C146.035 16.087 146.053 16.021 146.089 15.967C146.125 15.907 146.176 15.859 146.242 15.823C146.314 15.781 146.395 15.76 146.485 15.76C146.575 15.76 146.65 15.781 146.71 15.823C146.776 15.859 146.827 15.907 146.863 15.967C146.905 16.021 146.926 16.087 146.926 16.165C146.926 16.237 146.908 16.303 146.872 16.363C146.836 16.423 146.785 16.474 146.719 16.516C146.653 16.552 146.572 16.57 146.476 16.57Z" fill="white" style="fill:white;fill-opacity:1;"/>
<path d="M153.462 16.093C153.912 16.093 154.302 16.051 154.632 15.967C154.968 15.877 155.229 15.733 155.415 15.535C155.601 15.331 155.694 15.061 155.694 14.725C155.694 14.425 155.616 14.179 155.46 13.987C155.31 13.795 155.079 13.654 154.767 13.564C154.461 13.474 154.068 13.429 153.588 13.429H151.338V13.132H153.732C154.566 13.132 155.184 13.261 155.586 13.519C155.994 13.771 156.198 14.17 156.198 14.716C156.198 15.154 156.078 15.505 155.838 15.769C155.598 16.033 155.271 16.225 154.857 16.345C154.443 16.465 153.978 16.525 153.462 16.525H151.338V16.093H153.462ZM151.014 10.081H151.509V16.525H151.014V10.081ZM153.381 12.997C153.801 12.997 154.167 12.952 154.479 12.862C154.791 12.772 155.034 12.631 155.208 12.439C155.382 12.241 155.469 11.983 155.469 11.665C155.469 11.389 155.397 11.167 155.253 10.999C155.109 10.831 154.893 10.708 154.605 10.63C154.317 10.552 153.96 10.513 153.534 10.513H151.329V10.081H153.543C154.065 10.081 154.506 10.135 154.866 10.243C155.226 10.351 155.499 10.519 155.685 10.747C155.871 10.975 155.964 11.275 155.964 11.647C155.964 11.947 155.901 12.202 155.775 12.412C155.655 12.616 155.481 12.781 155.253 12.907C155.031 13.033 154.764 13.126 154.452 13.186C154.146 13.24 153.804 13.267 153.426 13.267H151.338V12.997H153.381Z" fill="white" style="fill:white;fill-opacity:1;"/>
<path d="M160.8 16.615C160.284 16.615 159.804 16.54 159.36 16.39C158.922 16.24 158.541 16.021 158.217 15.733C157.899 15.445 157.65 15.094 157.47 14.68C157.29 14.266 157.2 13.798 157.2 13.276C157.2 12.754 157.29 12.289 157.47 11.881C157.65 11.473 157.899 11.131 158.217 10.855C158.541 10.573 158.922 10.36 159.36 10.216C159.804 10.072 160.284 10 160.8 10C161.322 10 161.802 10.072 162.24 10.216C162.678 10.36 163.056 10.573 163.374 10.855C163.698 11.137 163.947 11.482 164.121 11.89C164.301 12.292 164.391 12.754 164.391 13.276C164.391 13.798 164.301 14.266 164.121 14.68C163.947 15.094 163.698 15.445 163.374 15.733C163.056 16.021 162.678 16.24 162.24 16.39C161.802 16.54 161.322 16.615 160.8 16.615ZM160.8 16.183C161.406 16.183 161.937 16.075 162.393 15.859C162.855 15.643 163.218 15.322 163.482 14.896C163.746 14.47 163.878 13.942 163.878 13.312C163.878 12.67 163.746 12.136 163.482 11.71C163.218 11.284 162.855 10.966 162.393 10.756C161.937 10.54 161.406 10.432 160.8 10.432C160.206 10.432 159.675 10.54 159.207 10.756C158.745 10.966 158.382 11.284 158.118 11.71C157.854 12.136 157.722 12.67 157.722 13.312C157.722 13.942 157.854 14.47 158.118 14.896C158.382 15.322 158.745 15.643 159.207 15.859C159.675 16.075 160.206 16.183 160.8 16.183Z" fill="white" style="fill:white;fill-opacity:1;"/>
<path d="M167.521 16.615C167.167 16.615 166.84 16.588 166.54 16.534C166.24 16.486 165.973 16.414 165.739 16.318C165.511 16.222 165.31 16.114 165.136 15.994V15.517C165.322 15.649 165.541 15.766 165.793 15.868C166.045 15.97 166.318 16.048 166.612 16.102C166.906 16.156 167.206 16.183 167.512 16.183C167.944 16.183 168.319 16.138 168.637 16.048C168.955 15.952 169.201 15.799 169.375 15.589C169.555 15.373 169.645 15.085 169.645 14.725C169.645 14.419 169.567 14.173 169.411 13.987C169.261 13.795 169.033 13.654 168.727 13.564C168.421 13.474 168.037 13.429 167.575 13.429H166.378V13.123H167.701C168.259 13.123 168.718 13.18 169.078 13.294C169.444 13.408 169.714 13.585 169.888 13.825C170.068 14.059 170.158 14.356 170.158 14.716C170.158 15.058 170.089 15.349 169.951 15.589C169.819 15.829 169.633 16.027 169.393 16.183C169.153 16.333 168.871 16.444 168.547 16.516C168.229 16.582 167.887 16.615 167.521 16.615ZM166.378 13.285V13.006H167.368C167.794 13.006 168.163 12.961 168.475 12.871C168.787 12.775 169.027 12.631 169.195 12.439C169.369 12.241 169.456 11.989 169.456 11.683C169.456 11.389 169.384 11.149 169.24 10.963C169.102 10.777 168.895 10.642 168.619 10.558C168.343 10.468 168.001 10.423 167.593 10.423C167.275 10.423 166.966 10.45 166.666 10.504C166.372 10.552 166.099 10.621 165.847 10.711C165.595 10.801 165.376 10.909 165.19 11.035V10.576C165.364 10.456 165.568 10.354 165.802 10.27C166.036 10.186 166.303 10.12 166.603 10.072C166.903 10.024 167.233 10 167.593 10C168.343 10 168.925 10.135 169.339 10.405C169.753 10.669 169.96 11.086 169.96 11.656C169.96 11.932 169.9 12.175 169.78 12.385C169.666 12.589 169.498 12.757 169.276 12.889C169.054 13.021 168.787 13.12 168.475 13.186C168.169 13.252 167.821 13.285 167.431 13.285H166.378Z" fill="white" style="fill:white;fill-opacity:1;"/>
<path d="M175.386 15.571H174.99L171.777 10.081H172.335L175.476 15.436L175.386 15.571ZM171.642 10.081H172.101V16.525H171.642V10.081ZM175.512 15.571L175.035 15.535L178.239 10.081H178.743L175.512 15.571ZM178.401 10.081H178.905V16.525H178.401V10.081Z" fill="white" style="fill:white;fill-opacity:1;"/>
<path d="M183.95 16.615C183.434 16.615 182.954 16.54 182.51 16.39C182.072 16.24 181.691 16.021 181.367 15.733C181.049 15.445 180.8 15.094 180.62 14.68C180.44 14.266 180.35 13.798 180.35 13.276C180.35 12.754 180.44 12.289 180.62 11.881C180.8 11.473 181.049 11.131 181.367 10.855C181.691 10.573 182.072 10.36 182.51 10.216C182.954 10.072 183.434 10 183.95 10C184.472 10 184.952 10.072 185.39 10.216C185.828 10.36 186.206 10.573 186.524 10.855C186.848 11.137 187.097 11.482 187.271 11.89C187.451 12.292 187.541 12.754 187.541 13.276C187.541 13.798 187.451 14.266 187.271 14.68C187.097 15.094 186.848 15.445 186.524 15.733C186.206 16.021 185.828 16.24 185.39 16.39C184.952 16.54 184.472 16.615 183.95 16.615ZM183.95 16.183C184.556 16.183 185.087 16.075 185.543 15.859C186.005 15.643 186.368 15.322 186.632 14.896C186.896 14.47 187.028 13.942 187.028 13.312C187.028 12.67 186.896 12.136 186.632 11.71C186.368 11.284 186.005 10.966 185.543 10.756C185.087 10.54 184.556 10.432 183.95 10.432C183.356 10.432 182.825 10.54 182.357 10.756C181.895 10.966 181.532 11.284 181.268 11.71C181.004 12.136 180.872 12.67 180.872 13.312C180.872 13.942 181.004 14.47 181.268 14.896C181.532 15.322 181.895 15.643 182.357 15.859C182.825 16.075 183.356 16.183 183.95 16.183Z" fill="white" style="fill:white;fill-opacity:1;"/>
<path d="M187.857 16.525L190.989 13.141V13.348L188.028 10.081H188.595L191.484 13.276L188.478 16.525H187.857ZM193.626 13.294L196.515 10.081H197.082L194.13 13.348V13.15L197.262 16.525H196.632L193.626 13.294ZM191.151 13.492V13.069H193.977V13.492H191.151ZM192.303 10.081H192.807V16.525H192.303V10.081Z" fill="white" style="fill:white;fill-opacity:1;"/>
<path d="M198.396 10.081H198.891V16.525H198.396V10.081ZM198.63 16.525V16.093H203.175V16.525H198.63ZM198.63 13.33V12.898H202.545V13.33H198.63ZM198.63 10.522V10.081H203.121V10.522H198.63Z" fill="white" style="fill:white;fill-opacity:1;"/>
<path d="M209.955 10.081H210.45V16.525H209.955V10.081ZM204.636 10.081H205.131V16.525H204.636V10.081ZM204.915 13.546V13.114H210.171V13.546H204.915Z" fill="white" style="fill:white;fill-opacity:1;"/>
<path d="M2.448 26.093C2.898 26.093 3.288 26.051 3.618 25.967C3.954 25.877 4.215 25.733 4.401 25.535C4.587 25.331 4.68 25.061 4.68 24.725C4.68 24.425 4.602 24.179 4.446 23.987C4.296 23.795 4.065 23.654 3.753 23.564C3.447 23.474 3.054 23.429 2.574 23.429H0.324V23.132H2.718C3.552 23.132 4.17 23.261 4.572 23.519C4.98 23.771 5.184 24.17 5.184 24.716C5.184 25.154 5.064 25.505 4.824 25.769C4.584 26.033 4.257 26.225 3.843 26.345C3.429 26.465 2.964 26.525 2.448 26.525H0.324V26.093H2.448ZM0 20.081H0.495V26.525H0V20.081ZM2.367 22.997C2.787 22.997 3.153 22.952 3.465 22.862C3.777 22.772 4.02 22.631 4.194 22.439C4.368 22.241 4.455 21.983 4.455 21.665C4.455 21.389 4.383 21.167 4.239 20.999C4.095 20.831 3.879 20.708 3.591 20.63C3.303 20.552 2.946 20.513 2.52 20.513H0.315V20.081H2.529C3.051 20.081 3.492 20.135 3.852 20.243C4.212 20.351 4.485 20.519 4.671 20.747C4.857 20.975 4.95 21.275 4.95 21.647C4.95 21.947 4.887 22.202 4.761 22.412C4.641 22.616 4.467 22.781 4.239 22.907C4.017 23.033 3.75 23.126 3.438 23.186C3.132 23.24 2.79 23.267 2.412 23.267H0.324V22.997H2.367Z" fill="white" style="fill:white;fill-opacity:1;"/>
<path d="M10.8741 23.357C11.3301 23.357 11.7111 23.309 12.0171 23.213C12.3291 23.117 12.5631 22.961 12.7191 22.745C12.8751 22.523 12.9531 22.232 12.9531 21.872C12.9531 21.56 12.8781 21.305 12.7281 21.107C12.5841 20.909 12.3681 20.762 12.0801 20.666C11.7921 20.57 11.4261 20.522 10.9821 20.522H8.89411V20.081H10.9821C11.7801 20.081 12.3891 20.225 12.8091 20.513C13.2351 20.801 13.4481 21.251 13.4481 21.863C13.4481 22.319 13.3461 22.691 13.1421 22.979C12.9381 23.261 12.6441 23.468 12.2601 23.6C11.8761 23.726 11.4141 23.789 10.8741 23.789H8.89411V23.357H10.8741ZM8.55211 20.081H9.04711V26.525H8.55211V20.081Z" fill="white" style="fill:white;fill-opacity:1;"/>
<path d="M16.7263 20.081H17.2213V26.525H16.7263V20.081ZM16.9603 26.525V26.093H21.5053V26.525H16.9603ZM16.9603 23.33V22.898H20.8753V23.33H16.9603ZM16.9603 20.522V20.081H21.4513V20.522H16.9603Z" fill="white" style="fill:white;fill-opacity:1;"/>
<path d="M24.1095 26.093H24.6495L24.5505 28.046H24.1095V26.093ZM24.4245 26.21C24.7365 26.126 24.9795 25.937 25.1535 25.643C25.3275 25.349 25.4595 24.95 25.5495 24.446C25.6395 23.936 25.7025 23.318 25.7385 22.592C25.7745 21.866 25.8075 21.029 25.8375 20.081H26.3235C26.2935 20.873 26.2635 21.581 26.2335 22.205C26.2095 22.823 26.1735 23.369 26.1255 23.843C26.0775 24.317 26.0085 24.722 25.9185 25.058C25.8285 25.394 25.7085 25.67 25.5585 25.886C25.4145 26.096 25.2315 26.252 25.0095 26.354L24.4245 26.21ZM26.1075 20.081H30.1485V20.522H26.1075V20.081ZM24.4425 26.093H31.0935V26.525H24.4425V26.093ZM29.8965 26.525V20.081H30.4005V26.525H29.8965ZM30.8415 28.046L30.7605 26.093H31.2915V28.046H30.8415Z" fill="white" style="fill:white;fill-opacity:1;"/>
<path d="M40.2223 26.615C39.8683 26.615 39.5413 26.588 39.2413 26.534C38.9413 26.486 38.6743 26.414 38.4403 26.318C38.2123 26.222 38.0113 26.114 37.8373 25.994V25.517C38.0233 25.649 38.2423 25.766 38.4943 25.868C38.7463 25.97 39.0193 26.048 39.3133 26.102C39.6073 26.156 39.9073 26.183 40.2133 26.183C40.6453 26.183 41.0203 26.138 41.3383 26.048C41.6563 25.952 41.9023 25.799 42.0763 25.589C42.2563 25.373 42.3463 25.085 42.3463 24.725C42.3463 24.419 42.2683 24.173 42.1123 23.987C41.9623 23.795 41.7343 23.654 41.4283 23.564C41.1223 23.474 40.7383 23.429 40.2763 23.429H39.0793V23.123H40.4023C40.9603 23.123 41.4193 23.18 41.7793 23.294C42.1453 23.408 42.4153 23.585 42.5893 23.825C42.7693 24.059 42.8593 24.356 42.8593 24.716C42.8593 25.058 42.7903 25.349 42.6523 25.589C42.5203 25.829 42.3343 26.027 42.0943 26.183C41.8543 26.333 41.5723 26.444 41.2483 26.516C40.9303 26.582 40.5883 26.615 40.2223 26.615ZM39.0793 23.285V23.006H40.0693C40.4953 23.006 40.8643 22.961 41.1763 22.871C41.4883 22.775 41.7283 22.631 41.8963 22.439C42.0703 22.241 42.1573 21.989 42.1573 21.683C42.1573 21.389 42.0853 21.149 41.9413 20.963C41.8033 20.777 41.5963 20.642 41.3203 20.558C41.0443 20.468 40.7023 20.423 40.2943 20.423C39.9763 20.423 39.6673 20.45 39.3673 20.504C39.0733 20.552 38.8003 20.621 38.5483 20.711C38.2963 20.801 38.0773 20.909 37.8913 21.035V20.576C38.0653 20.456 38.2693 20.354 38.5033 20.27C38.7373 20.186 39.0043 20.12 39.3043 20.072C39.6043 20.024 39.9343 20 40.2943 20C41.0443 20 41.6263 20.135 42.0403 20.405C42.4543 20.669 42.6613 21.086 42.6613 21.656C42.6613 21.932 42.6013 22.175 42.4813 22.385C42.3673 22.589 42.1993 22.757 41.9773 22.889C41.7553 23.021 41.4883 23.12 41.1763 23.186C40.8703 23.252 40.5223 23.285 40.1323 23.285H39.0793Z" fill="white" style="fill:white;fill-opacity:1;"/>
<path d="M45.2043 26.093H45.7443L45.6453 28.046H45.2043V26.093ZM45.5193 26.21C45.8313 26.126 46.0743 25.937 46.2483 25.643C46.4223 25.349 46.5543 24.95 46.6443 24.446C46.7343 23.936 46.7973 23.318 46.8333 22.592C46.8693 21.866 46.9023 21.029 46.9323 20.081H47.4183C47.3883 20.873 47.3583 21.581 47.3283 22.205C47.3043 22.823 47.2683 23.369 47.2203 23.843C47.1723 24.317 47.1033 24.722 47.0133 25.058C46.9233 25.394 46.8033 25.67 46.6533 25.886C46.5093 26.096 46.3263 26.252 46.1043 26.354L45.5193 26.21ZM47.2023 20.081H51.2433V20.522H47.2023V20.081ZM45.5373 26.093H52.1883V26.525H45.5373V26.093ZM50.9913 26.525V20.081H51.4953V26.525H50.9913ZM51.9363 28.046L51.8553 26.093H52.3863V28.046H51.9363Z" fill="white" style="fill:white;fill-opacity:1;"/>
<path d="M58.6031 26.615C58.0871 26.615 57.6071 26.54 57.1631 26.39C56.7251 26.24 56.3441 26.021 56.0201 25.733C55.7021 25.445 55.4531 25.094 55.2731 24.68C55.0931 24.266 55.0031 23.798 55.0031 23.276C55.0031 22.754 55.0931 22.289 55.2731 21.881C55.4531 21.473 55.7021 21.131 56.0201 20.855C56.3441 20.573 56.7251 20.36 57.1631 20.216C57.6071 20.072 58.0871 20 58.6031 20C59.1251 20 59.6051 20.072 60.0431 20.216C60.4811 20.36 60.8591 20.573 61.1771 20.855C61.5011 21.137 61.7501 21.482 61.9241 21.89C62.1041 22.292 62.1941 22.754 62.1941 23.276C62.1941 23.798 62.1041 24.266 61.9241 24.68C61.7501 25.094 61.5011 25.445 61.1771 25.733C60.8591 26.021 60.4811 26.24 60.0431 26.39C59.6051 26.54 59.1251 26.615 58.6031 26.615ZM58.6031 26.183C59.2091 26.183 59.7401 26.075 60.1961 25.859C60.6581 25.643 61.0211 25.322 61.2851 24.896C61.5491 24.47 61.6811 23.942 61.6811 23.312C61.6811 22.67 61.5491 22.136 61.2851 21.71C61.0211 21.284 60.6581 20.966 60.1961 20.756C59.7401 20.54 59.2091 20.432 58.6031 20.432C58.0091 20.432 57.4781 20.54 57.0101 20.756C56.5481 20.966 56.1851 21.284 55.9211 21.71C55.6571 22.136 55.5251 22.67 55.5251 23.312C55.5251 23.942 55.6571 24.47 55.9211 24.896C56.1851 25.322 56.5481 25.643 57.0101 25.859C57.4781 26.075 58.0091 26.183 58.6031 26.183Z" fill="white" style="fill:white;fill-opacity:1;"/>
<path d="M67.8736 23.357C68.3296 23.357 68.7106 23.309 69.0166 23.213C69.3286 23.117 69.5626 22.961 69.7186 22.745C69.8746 22.523 69.9526 22.232 69.9526 21.872C69.9526 21.56 69.8776 21.305 69.7276 21.107C69.5836 20.909 69.3676 20.762 69.0796 20.666C68.7916 20.57 68.4256 20.522 67.9816 20.522H65.8936V20.081H67.9816C68.7796 20.081 69.3886 20.225 69.8086 20.513C70.2346 20.801 70.4476 21.251 70.4476 21.863C70.4476 22.319 70.3456 22.691 70.1416 22.979C69.9376 23.261 69.6436 23.468 69.2596 23.6C68.8756 23.726 68.4136 23.789 67.8736 23.789H65.8936V23.357H67.8736ZM65.5516 20.081H66.0466V26.525H65.5516V20.081Z" fill="white" style="fill:white;fill-opacity:1;"/>
<path d="M76.8235 26.615C76.3075 26.615 75.8275 26.54 75.3835 26.39C74.9455 26.24 74.5645 26.021 74.2405 25.733C73.9225 25.445 73.6735 25.094 73.4935 24.68C73.3135 24.266 73.2235 23.798 73.2235 23.276C73.2235 22.754 73.3135 22.289 73.4935 21.881C73.6735 21.473 73.9225 21.131 74.2405 20.855C74.5645 20.573 74.9455 20.36 75.3835 20.216C75.8275 20.072 76.3075 20 76.8235 20C77.3455 20 77.8255 20.072 78.2635 20.216C78.7015 20.36 79.0795 20.573 79.3975 20.855C79.7215 21.137 79.9705 21.482 80.1445 21.89C80.3245 22.292 80.4145 22.754 80.4145 23.276C80.4145 23.798 80.3245 24.266 80.1445 24.68C79.9705 25.094 79.7215 25.445 79.3975 25.733C79.0795 26.021 78.7015 26.24 78.2635 26.39C77.8255 26.54 77.3455 26.615 76.8235 26.615ZM76.8235 26.183C77.4295 26.183 77.9605 26.075 78.4165 25.859C78.8785 25.643 79.2415 25.322 79.5055 24.896C79.7695 24.47 79.9015 23.942 79.9015 23.312C79.9015 22.67 79.7695 22.136 79.5055 21.71C79.2415 21.284 78.8785 20.966 78.4165 20.756C77.9605 20.54 77.4295 20.432 76.8235 20.432C76.2295 20.432 75.6985 20.54 75.2305 20.756C74.7685 20.966 74.4055 21.284 74.1415 21.71C73.8775 22.136 73.7455 22.67 73.7455 23.312C73.7455 23.942 73.8775 24.47 74.1415 24.896C74.4055 25.322 74.7685 25.643 75.2305 25.859C75.6985 26.075 76.2295 26.183 76.8235 26.183Z" fill="white" style="fill:white;fill-opacity:1;"/>
<path d="M86.2201 26.093C86.6701 26.093 87.0601 26.051 87.3901 25.967C87.7261 25.877 87.9871 25.733 88.1731 25.535C88.3591 25.331 88.4521 25.061 88.4521 24.725C88.4521 24.425 88.3741 24.179 88.2181 23.987C88.0681 23.795 87.8371 23.654 87.5251 23.564C87.2191 23.474 86.8261 23.429 86.3461 23.429H84.0961V23.132H86.4901C87.3241 23.132 87.9421 23.261 88.3441 23.519C88.7521 23.771 88.9561 24.17 88.9561 24.716C88.9561 25.154 88.8361 25.505 88.5961 25.769C88.3561 26.033 88.0291 26.225 87.6151 26.345C87.2011 26.465 86.7361 26.525 86.2201 26.525H84.0961V26.093H86.2201ZM83.7721 20.081H84.2671V26.525H83.7721V20.081ZM86.1391 22.997C86.5591 22.997 86.9251 22.952 87.2371 22.862C87.5491 22.772 87.7921 22.631 87.9661 22.439C88.1401 22.241 88.2271 21.983 88.2271 21.665C88.2271 21.389 88.1551 21.167 88.0111 20.999C87.8671 20.831 87.6511 20.708 87.3631 20.63C87.0751 20.552 86.7181 20.513 86.2921 20.513H84.0871V20.081H86.3011C86.8231 20.081 87.2641 20.135 87.6241 20.243C87.9841 20.351 88.2571 20.519 88.4431 20.747C88.6291 20.975 88.7221 21.275 88.7221 21.647C88.7221 21.947 88.6591 22.202 88.5331 22.412C88.4131 22.616 88.2391 22.781 88.0111 22.907C87.7891 23.033 87.5221 23.126 87.2101 23.186C86.9041 23.24 86.5621 23.267 86.1841 23.267H84.0961V22.997H86.1391Z" fill="white" style="fill:white;fill-opacity:1;"/>
<path d="M92.3332 26.525V20.081H92.8282V26.525H92.3332ZM94.6372 26.093C95.0932 26.093 95.4712 26.045 95.7712 25.949C96.0772 25.853 96.3052 25.697 96.4552 25.481C96.6112 25.259 96.6892 24.968 96.6892 24.608C96.6892 24.14 96.5302 23.795 96.2122 23.573C95.8942 23.351 95.4082 23.24 94.7542 23.24H92.6752V22.808H94.7632C95.2912 22.808 95.7352 22.871 96.0952 22.997C96.4552 23.117 96.7282 23.309 96.9142 23.573C97.1062 23.837 97.2022 24.179 97.2022 24.599C97.2022 25.055 97.1002 25.427 96.8962 25.715C96.6922 25.997 96.3982 26.204 96.0142 26.336C95.6302 26.462 95.1712 26.525 94.6372 26.525H92.6752V26.093H94.6372Z" fill="white" style="fill:white;fill-opacity:1;"/>
<path d="M100.534 20.081H101.029V26.525H100.534V20.081ZM100.813 23.546V23.114H102.91V23.546H100.813ZM105.934 26.615C105.448 26.615 104.998 26.54 104.584 26.39C104.176 26.24 103.819 26.024 103.513 25.742C103.213 25.46 102.979 25.115 102.811 24.707C102.643 24.293 102.559 23.822 102.559 23.294C102.559 22.772 102.643 22.307 102.811 21.899C102.979 21.491 103.213 21.146 103.513 20.864C103.819 20.582 104.176 20.369 104.584 20.225C104.998 20.075 105.448 20 105.934 20C106.426 20 106.876 20.072 107.284 20.216C107.698 20.36 108.058 20.573 108.364 20.855C108.67 21.131 108.904 21.473 109.066 21.881C109.234 22.289 109.318 22.754 109.318 23.276C109.318 23.798 109.234 24.266 109.066 24.68C108.904 25.094 108.67 25.445 108.364 25.733C108.058 26.021 107.698 26.24 107.284 26.39C106.876 26.54 106.426 26.615 105.934 26.615ZM105.934 26.183C106.498 26.183 106.996 26.075 107.428 25.859C107.86 25.643 108.199 25.322 108.445 24.896C108.691 24.47 108.814 23.942 108.814 23.312C108.814 22.67 108.691 22.136 108.445 21.71C108.199 21.284 107.86 20.966 107.428 20.756C106.996 20.54 106.498 20.432 105.934 20.432C105.382 20.432 104.89 20.54 104.458 20.756C104.026 20.966 103.687 21.284 103.441 21.71C103.201 22.136 103.081 22.67 103.081 23.312C103.081 23.942 103.201 24.47 103.441 24.896C103.687 25.322 104.026 25.643 104.458 25.859C104.89 26.075 105.382 26.183 105.934 26.183Z" fill="white" style="fill:white;fill-opacity:1;"/>
<path d="M121.994 20.081H122.498V26.525H121.994V20.081ZM116.513 20.081H117.008V26.525H116.513V20.081ZM117.026 26.525H116.621L116.747 26.21L121.976 20.081H122.372L122.291 20.342L117.026 26.525Z" fill="white" style="fill:white;fill-opacity:1;"/>
<path d="M130.407 20.522V20.081H134.43V20.522H130.407ZM130.11 26.525V20.081H130.605V26.525H130.11ZM132.414 26.093C132.87 26.093 133.248 26.045 133.548 25.949C133.854 25.853 134.082 25.697 134.232 25.481C134.388 25.265 134.466 24.98 134.466 24.626C134.466 24.164 134.307 23.822 133.989 23.6C133.671 23.378 133.185 23.267 132.531 23.267H130.452V22.835H132.54C133.068 22.835 133.512 22.898 133.872 23.024C134.232 23.144 134.505 23.336 134.691 23.6C134.883 23.858 134.979 24.194 134.979 24.608C134.979 25.064 134.874 25.433 134.664 25.715C134.46 25.997 134.166 26.204 133.782 26.336C133.404 26.462 132.948 26.525 132.414 26.525H130.452V26.093H132.414Z" fill="white" style="fill:white;fill-opacity:1;"/>
<path d="M138.311 20.081H138.806V26.525H138.311V20.081ZM138.545 26.525V26.093H143.09V26.525H138.545ZM138.545 23.33V22.898H142.46V23.33H138.545ZM138.545 20.522V20.081H143.036V20.522H138.545Z" fill="white" style="fill:white;fill-opacity:1;"/>
<path d="M149.47 26.615C148.708 26.615 148.054 26.483 147.508 26.219C146.962 25.955 146.542 25.577 146.248 25.085C145.96 24.593 145.816 24.002 145.816 23.312C145.816 22.61 145.96 22.013 146.248 21.521C146.536 21.029 146.95 20.654 147.49 20.396C148.03 20.132 148.684 20 149.452 20C149.98 20 150.442 20.054 150.838 20.162C151.234 20.27 151.561 20.408 151.819 20.576V21.053C151.639 20.927 151.42 20.819 151.162 20.729C150.91 20.633 150.637 20.561 150.343 20.513C150.049 20.459 149.752 20.432 149.452 20.432C148.78 20.432 148.21 20.543 147.742 20.765C147.28 20.987 146.929 21.314 146.689 21.746C146.455 22.172 146.338 22.694 146.338 23.312C146.338 23.924 146.458 24.443 146.698 24.869C146.944 25.295 147.301 25.622 147.769 25.85C148.243 26.072 148.816 26.183 149.488 26.183C149.782 26.183 150.073 26.156 150.361 26.102C150.649 26.048 150.919 25.973 151.171 25.877C151.423 25.775 151.639 25.655 151.819 25.517V26.003C151.567 26.183 151.243 26.33 150.847 26.444C150.451 26.558 149.992 26.615 149.47 26.615Z" fill="white" style="fill:white;fill-opacity:1;"/>
<path d="M160.378 20.081H160.873V26.525H160.378V20.081ZM155.23 20.081H155.725V26.525H155.23V20.081ZM155.428 20.522V20.081H160.648V20.522H155.428Z" fill="white" style="fill:white;fill-opacity:1;"/>
<path d="M165.715 20.081H169.612V20.522H165.715V20.081ZM169.333 26.525V20.081H169.828V26.525H169.333ZM163.879 26.066C164.125 26.084 164.329 26.042 164.491 25.94C164.659 25.838 164.797 25.682 164.905 25.472C165.019 25.256 165.106 24.989 165.166 24.671C165.208 24.461 165.247 24.209 165.283 23.915C165.319 23.621 165.349 23.285 165.373 22.907C165.403 22.523 165.427 22.097 165.445 21.629C165.469 21.161 165.49 20.645 165.508 20.081H165.985C165.967 20.705 165.946 21.26 165.922 21.746C165.904 22.232 165.883 22.664 165.859 23.042C165.835 23.414 165.805 23.741 165.769 24.023C165.739 24.299 165.703 24.542 165.661 24.752C165.595 25.07 165.514 25.346 165.418 25.58C165.328 25.808 165.214 25.997 165.076 26.147C164.944 26.291 164.779 26.399 164.581 26.471C164.389 26.537 164.155 26.567 163.879 26.561V26.066Z" fill="white" style="fill:white;fill-opacity:1;"/>
<path d="M176.777 26.615C176.261 26.615 175.781 26.54 175.337 26.39C174.899 26.24 174.518 26.021 174.194 25.733C173.876 25.445 173.627 25.094 173.447 24.68C173.267 24.266 173.177 23.798 173.177 23.276C173.177 22.754 173.267 22.289 173.447 21.881C173.627 21.473 173.876 21.131 174.194 20.855C174.518 20.573 174.899 20.36 175.337 20.216C175.781 20.072 176.261 20 176.777 20C177.299 20 177.779 20.072 178.217 20.216C178.655 20.36 179.033 20.573 179.351 20.855C179.675 21.137 179.924 21.482 180.098 21.89C180.278 22.292 180.368 22.754 180.368 23.276C180.368 23.798 180.278 24.266 180.098 24.68C179.924 25.094 179.675 25.445 179.351 25.733C179.033 26.021 178.655 26.24 178.217 26.39C177.779 26.54 177.299 26.615 176.777 26.615ZM176.777 26.183C177.383 26.183 177.914 26.075 178.37 25.859C178.832 25.643 179.195 25.322 179.459 24.896C179.723 24.47 179.855 23.942 179.855 23.312C179.855 22.67 179.723 22.136 179.459 21.71C179.195 21.284 178.832 20.966 178.37 20.756C177.914 20.54 177.383 20.432 176.777 20.432C176.183 20.432 175.652 20.54 175.184 20.756C174.722 20.966 174.359 21.284 174.095 21.71C173.831 22.136 173.699 22.67 173.699 23.312C173.699 23.942 173.831 24.47 174.095 24.896C174.359 25.322 174.722 25.643 175.184 25.859C175.652 26.075 176.183 26.183 176.777 26.183Z" fill="white" style="fill:white;fill-opacity:1;"/>
<path d="M182.469 26.093H183.009L182.91 28.046H182.469V26.093ZM182.784 26.21C183.096 26.126 183.339 25.937 183.513 25.643C183.687 25.349 183.819 24.95 183.909 24.446C183.999 23.936 184.062 23.318 184.098 22.592C184.134 21.866 184.167 21.029 184.197 20.081H184.683C184.653 20.873 184.623 21.581 184.593 22.205C184.569 22.823 184.533 23.369 184.485 23.843C184.437 24.317 184.368 24.722 184.278 25.058C184.188 25.394 184.068 25.67 183.918 25.886C183.774 26.096 183.591 26.252 183.369 26.354L182.784 26.21ZM184.467 20.081H188.508V20.522H184.467V20.081ZM182.802 26.093H189.453V26.525H182.802V26.093ZM188.256 26.525V20.081H188.76V26.525H188.256ZM189.201 28.046L189.12 26.093H189.651V28.046H189.201Z" fill="white" style="fill:white;fill-opacity:1;"/>
<path d="M198.268 20.081H198.772V26.525H198.268V20.081ZM192.787 20.081H193.282V26.525H192.787V20.081ZM193.3 26.525H192.895L193.021 26.21L198.25 20.081H198.646L198.565 20.342L193.3 26.525Z" fill="white" style="fill:white;fill-opacity:1;"/>
<path d="M202.544 20.081H203.039V26.525H202.544V20.081ZM202.778 26.525V26.093H207.323V26.525H202.778ZM202.778 23.33V22.898H206.693V23.33H202.778ZM202.778 20.522V20.081H207.269V20.522H202.778Z" fill="white" style="fill:white;fill-opacity:1;"/>
<path d="M210.8 26.57C210.71 26.57 210.632 26.552 210.566 26.516C210.5 26.474 210.449 26.423 210.413 26.363C210.377 26.303 210.359 26.237 210.359 26.165C210.359 26.087 210.377 26.021 210.413 25.967C210.449 25.907 210.5 25.859 210.566 25.823C210.638 25.781 210.719 25.76 210.809 25.76C210.899 25.76 210.974 25.781 211.034 25.823C211.1 25.859 211.151 25.907 211.187 25.967C211.229 26.021 211.25 26.087 211.25 26.165C211.25 26.237 211.232 26.303 211.196 26.363C211.16 26.423 211.109 26.474 211.043 26.516C210.977 26.552 210.896 26.57 210.8 26.57Z" fill="white" style="fill:white;fill-opacity:1;"/>
</svg>
