<svg width="212" height="45" viewBox="0 0 212 45" fill="none" xmlns="http://www.w3.org/2000/svg">
<path d="M5.076 1.602H5.562V8.046H5.076V1.602ZM0.369 1.602H0.846V8.046H0.369V1.602ZM0.864 8.046H0.468L0.612 7.731L5.058 1.602H5.445L5.355 1.863L0.864 8.046Z" fill="white" style="fill:white;fill-opacity:1;"/>
<path d="M9.64526 8.136C9.36926 8.136 9.10226 8.112 8.84426 8.064C8.59226 8.016 8.36126 7.944 8.15126 7.848C7.94126 7.752 7.75526 7.641 7.59326 7.515V7.038C7.75526 7.176 7.94426 7.296 8.16026 7.398C8.38226 7.5 8.61926 7.578 8.87126 7.632C9.12326 7.68 9.37826 7.704 9.63626 7.704C10.0023 7.704 10.3203 7.659 10.5903 7.569C10.8603 7.473 11.0733 7.317 11.2293 7.101C11.3853 6.885 11.4633 6.6 11.4633 6.246C11.4633 5.946 11.3973 5.7 11.2653 5.508C11.1333 5.316 10.9383 5.175 10.6803 5.085C10.4223 4.989 10.0923 4.941 9.69026 4.941H8.67326V4.644H9.80726C10.2873 4.644 10.6863 4.704 11.0043 4.824C11.3223 4.938 11.5593 5.115 11.7153 5.355C11.8713 5.589 11.9493 5.883 11.9493 6.237C11.9493 6.573 11.8893 6.864 11.7693 7.11C11.6553 7.35 11.4933 7.545 11.2833 7.695C11.0733 7.845 10.8273 7.956 10.5453 8.028C10.2693 8.1 9.96926 8.136 9.64526 8.136ZM8.67326 4.806V4.527H9.51026C9.87026 4.527 10.1823 4.482 10.4463 4.392C10.7103 4.296 10.9143 4.152 11.0583 3.96C11.2083 3.762 11.2833 3.51 11.2833 3.204C11.2833 2.91 11.2233 2.67 11.1033 2.484C10.9833 2.298 10.8033 2.163 10.5633 2.079C10.3293 1.989 10.0413 1.944 9.69926 1.944C9.44126 1.944 9.18326 1.968 8.92526 2.016C8.67326 2.064 8.43626 2.133 8.21426 2.223C7.99826 2.313 7.80326 2.424 7.62926 2.556V2.097C7.79126 1.971 7.97726 1.866 8.18726 1.782C8.39726 1.698 8.62826 1.635 8.88026 1.593C9.13826 1.545 9.41426 1.521 9.70826 1.521C10.3563 1.521 10.8603 1.656 11.2203 1.926C11.5803 2.196 11.7603 2.613 11.7603 3.177C11.7603 3.453 11.7093 3.693 11.6073 3.897C11.5053 4.101 11.3583 4.272 11.1663 4.41C10.9803 4.542 10.7523 4.641 10.4823 4.707C10.2123 4.773 9.90626 4.806 9.56426 4.806H8.67326Z" fill="white" style="fill:white;fill-opacity:1;"/>
<path d="M15.7869 6.714L13.1949 1.602H13.7439L16.0389 6.147L15.7869 6.714ZM14.1759 7.56C14.1999 7.566 14.2239 7.569 14.2479 7.569C14.2779 7.569 14.3139 7.569 14.3559 7.569C14.5599 7.569 14.7429 7.524 14.9049 7.434C15.0669 7.344 15.2169 7.2 15.3549 7.002C15.4929 6.804 15.6279 6.543 15.7599 6.219L15.8409 6.048L17.7939 1.602H18.3159L16.2009 6.309C16.0029 6.753 15.8139 7.101 15.6339 7.353C15.4599 7.605 15.2739 7.785 15.0759 7.893C14.8779 8.001 14.6439 8.055 14.3739 8.055C14.3319 8.055 14.2929 8.055 14.2569 8.055C14.2269 8.055 14.1999 8.052 14.1759 8.046V7.56Z" fill="white" style="fill:white;fill-opacity:1;"/>
<path d="M23.898 1.602H24.366V8.046H23.898V1.602ZM19.875 3.321V1.602H20.361V3.321C20.361 3.741 20.43 4.089 20.568 4.365C20.706 4.635 20.901 4.833 21.153 4.959C21.405 5.085 21.699 5.148 22.035 5.148C22.395 5.148 22.746 5.106 23.088 5.022C23.436 4.938 23.754 4.77 24.042 4.518L24.159 4.869C23.859 5.109 23.535 5.286 23.187 5.4C22.839 5.508 22.458 5.562 22.044 5.562C21.612 5.562 21.231 5.487 20.901 5.337C20.577 5.181 20.325 4.938 20.145 4.608C19.965 4.278 19.875 3.849 19.875 3.321Z" fill="white" style="fill:white;fill-opacity:1;"/>
<path d="M31.4667 1.602H31.9527V8.046H31.4667V1.602ZM26.7597 1.602H27.2367V8.046H26.7597V1.602ZM27.2547 8.046H26.8587L27.0027 7.731L31.4487 1.602H31.8357L31.7457 1.863L27.2547 8.046Z" fill="white" style="fill:white;fill-opacity:1;"/>
<path d="M33.651 2.043V1.602H38.736V2.043H33.651ZM35.955 1.674H36.432V8.046H35.955V1.674Z" fill="white" style="fill:white;fill-opacity:1;"/>
<path d="M40.4341 1.602H40.9111V8.046H40.4341V1.602ZM40.6591 8.046V7.614H44.5471V8.046H40.6591ZM40.6591 4.851V4.419H44.0071V4.851H40.6591ZM40.6591 2.034V1.602H44.5021V2.034H40.6591Z" fill="white" style="fill:white;fill-opacity:1;"/>
<path d="M51.1524 7.614C51.5304 7.614 51.8604 7.572 52.1424 7.488C52.4244 7.398 52.6434 7.254 52.7994 7.056C52.9554 6.852 53.0334 6.582 53.0334 6.246C53.0334 5.946 52.9674 5.7 52.8354 5.508C52.7094 5.316 52.5144 5.175 52.2504 5.085C51.9864 4.989 51.6504 4.941 51.2424 4.941H49.3344V4.662H51.3594C52.0914 4.662 52.6344 4.788 52.9884 5.04C53.3484 5.292 53.5284 5.691 53.5284 6.237C53.5284 6.669 53.4234 7.02 53.2134 7.29C53.0034 7.554 52.7184 7.746 52.3584 7.866C51.9984 7.986 51.5964 8.046 51.1524 8.046H49.3344V7.614H51.1524ZM49.0284 1.602H49.5054V8.046H49.0284V1.602ZM51.0804 4.518C51.4344 4.518 51.7434 4.473 52.0074 4.383C52.2714 4.293 52.4754 4.149 52.6194 3.951C52.7694 3.753 52.8444 3.498 52.8444 3.186C52.8444 2.91 52.7814 2.688 52.6554 2.52C52.5354 2.352 52.3554 2.229 52.1154 2.151C51.8754 2.073 51.5754 2.034 51.2154 2.034H49.3344V1.602H51.2154C51.6714 1.602 52.0554 1.659 52.3674 1.773C52.6794 1.881 52.9164 2.049 53.0784 2.277C53.2404 2.505 53.3214 2.799 53.3214 3.159C53.3214 3.459 53.2674 3.714 53.1594 3.924C53.0514 4.128 52.8984 4.296 52.7004 4.428C52.5084 4.554 52.2774 4.647 52.0074 4.707C51.7374 4.761 51.4404 4.788 51.1164 4.788H49.3344V4.518H51.0804Z" fill="white" style="fill:white;fill-opacity:1;"/>
<path d="M58.3216 8.136C57.6736 8.136 57.1126 8.004 56.6386 7.74C56.1646 7.47 55.7986 7.089 55.5406 6.597C55.2886 6.105 55.1626 5.517 55.1626 4.833C55.1626 4.137 55.2856 3.543 55.5316 3.051C55.7836 2.559 56.1436 2.181 56.6116 1.917C57.0796 1.653 57.6466 1.521 58.3126 1.521C58.7386 1.521 59.1256 1.572 59.4736 1.674C59.8276 1.776 60.1216 1.914 60.3556 2.088V2.574C60.1996 2.448 60.0106 2.34 59.7886 2.25C59.5666 2.154 59.3296 2.079 59.0776 2.025C58.8256 1.971 58.5706 1.944 58.3126 1.944C57.7366 1.944 57.2506 2.058 56.8546 2.286C56.4646 2.508 56.1676 2.835 55.9636 3.267C55.7596 3.699 55.6576 4.221 55.6576 4.833C55.6576 5.439 55.7626 5.958 55.9726 6.39C56.1826 6.816 56.4886 7.143 56.8906 7.371C57.2926 7.593 57.7786 7.704 58.3486 7.704C58.6066 7.704 58.8586 7.68 59.1046 7.632C59.3506 7.578 59.5816 7.5 59.7976 7.398C60.0136 7.296 60.1996 7.176 60.3556 7.038V7.524C60.1216 7.716 59.8306 7.866 59.4826 7.974C59.1346 8.082 58.7476 8.136 58.3216 8.136Z" fill="white" style="fill:white;fill-opacity:1;"/>
<path d="M62.4303 1.602H62.9073V8.046H62.4303V1.602ZM62.6553 8.046V7.614H66.5433V8.046H62.6553ZM62.6553 4.851V4.419H66.0033V4.851H62.6553ZM62.6553 2.034V1.602H66.4983V2.034H62.6553Z" fill="white" style="fill:white;fill-opacity:1;"/>
<path d="M73.0406 6.714L70.4486 1.602H70.9976L73.2926 6.147L73.0406 6.714ZM71.4296 7.56C71.4536 7.566 71.4776 7.569 71.5016 7.569C71.5316 7.569 71.5676 7.569 71.6096 7.569C71.8136 7.569 71.9966 7.524 72.1586 7.434C72.3206 7.344 72.4706 7.2 72.6086 7.002C72.7466 6.804 72.8816 6.543 73.0136 6.219L73.0946 6.048L75.0476 1.602H75.5696L73.4546 6.309C73.2566 6.753 73.0676 7.101 72.8876 7.353C72.7136 7.605 72.5276 7.785 72.3296 7.893C72.1316 8.001 71.8976 8.055 71.6276 8.055C71.5856 8.055 71.5466 8.055 71.5106 8.055C71.4806 8.055 71.4536 8.052 71.4296 8.046V7.56Z" fill="white" style="fill:white;fill-opacity:1;"/>
<path d="M79.7641 8.136C79.1161 8.136 78.5551 8.004 78.0811 7.74C77.6071 7.47 77.2411 7.089 76.9831 6.597C76.7311 6.105 76.6051 5.517 76.6051 4.833C76.6051 4.137 76.7281 3.543 76.9741 3.051C77.2261 2.559 77.5861 2.181 78.0541 1.917C78.5221 1.653 79.0891 1.521 79.7551 1.521C80.1811 1.521 80.5681 1.572 80.9161 1.674C81.2701 1.776 81.5641 1.914 81.7981 2.088V2.574C81.6421 2.448 81.4531 2.34 81.2311 2.25C81.0091 2.154 80.7721 2.079 80.5201 2.025C80.2681 1.971 80.0131 1.944 79.7551 1.944C79.1791 1.944 78.6931 2.058 78.2971 2.286C77.9071 2.508 77.6101 2.835 77.4061 3.267C77.2021 3.699 77.1001 4.221 77.1001 4.833C77.1001 5.439 77.2051 5.958 77.4151 6.39C77.6251 6.816 77.9311 7.143 78.3331 7.371C78.7351 7.593 79.2211 7.704 79.7911 7.704C80.0491 7.704 80.3011 7.68 80.5471 7.632C80.7931 7.578 81.0241 7.5 81.2401 7.398C81.4561 7.296 81.6421 7.176 81.7981 7.038V7.524C81.5641 7.716 81.2731 7.866 80.9251 7.974C80.5771 8.082 80.1901 8.136 79.7641 8.136Z" fill="white" style="fill:white;fill-opacity:1;"/>
<path d="M84.7908 1.602H88.1478V2.034H84.7908V1.602ZM87.8868 8.046V1.602H88.3638V8.046H87.8868ZM83.2158 7.596C83.4198 7.608 83.5908 7.566 83.7288 7.47C83.8728 7.374 83.9928 7.221 84.0888 7.011C84.1848 6.801 84.2598 6.528 84.3138 6.192C84.3498 5.994 84.3828 5.754 84.4128 5.472C84.4428 5.19 84.4668 4.863 84.4848 4.491C84.5088 4.113 84.5298 3.687 84.5478 3.213C84.5718 2.733 84.5898 2.196 84.6018 1.602H85.0608C85.0428 2.286 85.0248 2.88 85.0068 3.384C84.9888 3.882 84.9678 4.311 84.9438 4.671C84.9198 5.031 84.8928 5.343 84.8628 5.607C84.8388 5.865 84.8118 6.093 84.7818 6.291C84.7158 6.621 84.6378 6.903 84.5478 7.137C84.4638 7.365 84.3588 7.551 84.2328 7.695C84.1128 7.833 83.9688 7.935 83.8008 8.001C83.6328 8.061 83.4378 8.088 83.2158 8.082V7.596Z" fill="white" style="fill:white;fill-opacity:1;"/>
<path d="M93.499 8.136C93.049 8.136 92.635 8.061 92.257 7.911C91.879 7.761 91.549 7.542 91.267 7.254C90.985 6.966 90.766 6.615 90.61 6.201C90.46 5.787 90.385 5.319 90.385 4.797C90.385 4.275 90.46 3.81 90.61 3.402C90.766 2.994 90.985 2.652 91.267 2.376C91.549 2.094 91.879 1.881 92.257 1.737C92.635 1.593 93.049 1.521 93.499 1.521C93.949 1.521 94.36 1.593 94.732 1.737C95.11 1.881 95.437 2.094 95.713 2.376C95.995 2.658 96.214 3.003 96.37 3.411C96.526 3.813 96.604 4.275 96.604 4.797C96.604 5.319 96.526 5.787 96.37 6.201C96.214 6.615 95.995 6.966 95.713 7.254C95.437 7.542 95.11 7.761 94.732 7.911C94.36 8.061 93.949 8.136 93.499 8.136ZM93.499 7.704C94.003 7.704 94.45 7.596 94.84 7.38C95.236 7.164 95.545 6.843 95.767 6.417C95.995 5.991 96.109 5.463 96.109 4.833C96.109 4.191 95.995 3.657 95.767 3.231C95.545 2.805 95.236 2.484 94.84 2.268C94.45 2.052 94.003 1.944 93.499 1.944C92.989 1.944 92.536 2.052 92.14 2.268C91.75 2.484 91.441 2.805 91.213 3.231C90.991 3.657 90.88 4.191 90.88 4.833C90.88 5.463 90.991 5.991 91.213 6.417C91.441 6.843 91.75 7.164 92.14 7.38C92.536 7.596 92.989 7.704 93.499 7.704Z" fill="white" style="fill:white;fill-opacity:1;"/>
<path d="M100.743 7.614C101.121 7.614 101.451 7.572 101.733 7.488C102.015 7.398 102.234 7.254 102.39 7.056C102.546 6.852 102.624 6.582 102.624 6.246C102.624 5.946 102.558 5.7 102.426 5.508C102.3 5.316 102.105 5.175 101.841 5.085C101.577 4.989 101.241 4.941 100.833 4.941H98.9255V4.662H100.95C101.682 4.662 102.225 4.788 102.579 5.04C102.939 5.292 103.119 5.691 103.119 6.237C103.119 6.669 103.014 7.02 102.804 7.29C102.594 7.554 102.309 7.746 101.949 7.866C101.589 7.986 101.187 8.046 100.743 8.046H98.9255V7.614H100.743ZM98.6195 1.602H99.0965V8.046H98.6195V1.602ZM100.671 4.518C101.025 4.518 101.334 4.473 101.598 4.383C101.862 4.293 102.066 4.149 102.21 3.951C102.36 3.753 102.435 3.498 102.435 3.186C102.435 2.91 102.372 2.688 102.246 2.52C102.126 2.352 101.946 2.229 101.706 2.151C101.466 2.073 101.166 2.034 100.806 2.034H98.9255V1.602H100.806C101.262 1.602 101.646 1.659 101.958 1.773C102.27 1.881 102.507 2.049 102.669 2.277C102.831 2.505 102.912 2.799 102.912 3.159C102.912 3.459 102.858 3.714 102.75 3.924C102.642 4.128 102.489 4.296 102.291 4.428C102.099 4.554 101.868 4.647 101.598 4.707C101.328 4.761 101.031 4.788 100.707 4.788H98.9255V4.518H100.671Z" fill="white" style="fill:white;fill-opacity:1;"/>
<path d="M109.874 1.602H110.36V8.046H109.874V1.602ZM105.167 1.602H105.644V8.046H105.167V1.602ZM105.662 8.046H105.266L105.41 7.731L109.856 1.602H110.243L110.153 1.863L105.662 8.046Z" fill="white" style="fill:white;fill-opacity:1;"/>
<path d="M112.787 3.402C112.787 2.982 112.874 2.64 113.048 2.376C113.222 2.112 113.471 1.917 113.795 1.791C114.119 1.665 114.506 1.602 114.956 1.602H116.684V2.034H114.956C114.596 2.034 114.29 2.082 114.038 2.178C113.786 2.274 113.597 2.424 113.471 2.628C113.345 2.826 113.282 3.084 113.282 3.402C113.282 3.918 113.423 4.29 113.705 4.518C113.993 4.746 114.422 4.86 114.992 4.86H116.684V5.292H114.911L114.749 5.256C114.329 5.232 113.972 5.151 113.678 5.013C113.39 4.875 113.168 4.674 113.012 4.41C112.862 4.14 112.787 3.804 112.787 3.402ZM114.524 5.13H115.073L112.859 8.046H112.265L114.524 5.13ZM116.54 1.602H117.017V8.046H116.54V1.602Z" fill="white" style="fill:white;fill-opacity:1;"/>
<path d="M121.837 1.602H122.314V8.046H121.837V1.602ZM122.134 5.031V4.599H123.538V5.031H122.134ZM126.526 8.046H125.932L123.178 4.815L125.842 1.602H126.391L123.601 4.959L123.646 4.671L126.526 8.046Z" fill="white" style="fill:white;fill-opacity:1;"/>
<path d="M130.259 4.887C130.643 4.887 130.967 4.836 131.231 4.734C131.495 4.632 131.693 4.473 131.825 4.257C131.963 4.035 132.032 3.747 132.032 3.393C132.032 3.081 131.969 2.826 131.843 2.628C131.717 2.43 131.531 2.283 131.285 2.187C131.039 2.085 130.73 2.034 130.358 2.034H128.603V1.602H130.358C131.042 1.602 131.57 1.749 131.942 2.043C132.32 2.331 132.509 2.778 132.509 3.384C132.509 3.834 132.419 4.203 132.239 4.491C132.059 4.773 131.801 4.98 131.465 5.112C131.129 5.244 130.727 5.31 130.259 5.31H128.603V4.887H130.259ZM128.27 1.602H128.747V8.046H128.27V1.602Z" fill="white" style="fill:white;fill-opacity:1;"/>
<path d="M134.492 1.602H134.969V8.046H134.492V1.602ZM134.717 8.046V7.614H138.605V8.046H134.717ZM134.717 4.851V4.419H138.065V4.851H134.717ZM134.717 2.034V1.602H138.56V2.034H134.717Z" fill="white" style="fill:white;fill-opacity:1;"/>
<path d="M140.022 7.614H140.535L140.445 9.567H140.022V7.614ZM140.247 7.731C140.523 7.659 140.739 7.479 140.895 7.191C141.057 6.897 141.177 6.495 141.255 5.985C141.339 5.475 141.396 4.857 141.426 4.131C141.462 3.399 141.489 2.556 141.507 1.602H141.975C141.951 2.394 141.927 3.105 141.903 3.735C141.879 4.359 141.843 4.911 141.795 5.391C141.753 5.865 141.69 6.27 141.606 6.606C141.528 6.942 141.423 7.215 141.291 7.425C141.159 7.629 140.991 7.779 140.787 7.875L140.247 7.731ZM141.75 1.602H145.233V2.034H141.75V1.602ZM140.328 7.614H146.088V8.046H140.328V7.614ZM144.99 8.046V1.602H145.467V8.046H144.99ZM145.818 9.567L145.746 7.614H146.259V9.567H145.818Z" fill="white" style="fill:white;fill-opacity:1;"/>
<path d="M152.821 1.602H153.307V8.046H152.821V1.602ZM148.114 1.602H148.591V8.046H148.114V1.602ZM148.609 8.046H148.213L148.357 7.731L152.803 1.602H153.19L153.1 1.863L148.609 8.046Z" fill="white" style="fill:white;fill-opacity:1;"/>
<path d="M155.005 2.043V1.602H160.09V2.043H155.005ZM157.309 1.674H157.786V8.046H157.309V1.674Z" fill="white" style="fill:white;fill-opacity:1;"/>
<path d="M166.286 8.046H165.791L163.208 1.62L163.217 1.602H163.703L166.286 8.046ZM163.046 1.602H163.496L160.94 8.046H160.49L163.046 1.602ZM161.507 6.003V5.571H165.197V6.003H161.507Z" fill="white" style="fill:white;fill-opacity:1;"/>
<path d="M172.172 9.297H171.704C171.26 8.763 170.921 8.151 170.687 7.461C170.453 6.771 170.336 6.045 170.336 5.283C170.336 4.773 170.387 4.272 170.489 3.78C170.597 3.288 170.753 2.826 170.957 2.394C171.161 1.956 171.41 1.575 171.704 1.251H172.172C171.872 1.563 171.617 1.935 171.407 2.367C171.197 2.799 171.038 3.261 170.93 3.753C170.822 4.245 170.768 4.746 170.768 5.256C170.768 5.76 170.822 6.255 170.93 6.741C171.038 7.221 171.197 7.677 171.407 8.109C171.617 8.541 171.872 8.937 172.172 9.297Z" fill="white" style="fill:white;fill-opacity:1;"/>
<path d="M175.774 8.136C175.498 8.136 175.231 8.112 174.973 8.064C174.721 8.016 174.49 7.944 174.28 7.848C174.07 7.752 173.884 7.641 173.722 7.515V7.038C173.884 7.176 174.073 7.296 174.289 7.398C174.511 7.5 174.748 7.578 175 7.632C175.252 7.68 175.507 7.704 175.765 7.704C176.131 7.704 176.449 7.659 176.719 7.569C176.989 7.473 177.202 7.317 177.358 7.101C177.514 6.885 177.592 6.6 177.592 6.246C177.592 5.946 177.526 5.7 177.394 5.508C177.262 5.316 177.067 5.175 176.809 5.085C176.551 4.989 176.221 4.941 175.819 4.941H174.802V4.644H175.936C176.416 4.644 176.815 4.704 177.133 4.824C177.451 4.938 177.688 5.115 177.844 5.355C178 5.589 178.078 5.883 178.078 6.237C178.078 6.573 178.018 6.864 177.898 7.11C177.784 7.35 177.622 7.545 177.412 7.695C177.202 7.845 176.956 7.956 176.674 8.028C176.398 8.1 176.098 8.136 175.774 8.136ZM174.802 4.806V4.527H175.639C175.999 4.527 176.311 4.482 176.575 4.392C176.839 4.296 177.043 4.152 177.187 3.96C177.337 3.762 177.412 3.51 177.412 3.204C177.412 2.91 177.352 2.67 177.232 2.484C177.112 2.298 176.932 2.163 176.692 2.079C176.458 1.989 176.17 1.944 175.828 1.944C175.57 1.944 175.312 1.968 175.054 2.016C174.802 2.064 174.565 2.133 174.343 2.223C174.127 2.313 173.932 2.424 173.758 2.556V2.097C173.92 1.971 174.106 1.866 174.316 1.782C174.526 1.698 174.757 1.635 175.009 1.593C175.267 1.545 175.543 1.521 175.837 1.521C176.485 1.521 176.989 1.656 177.349 1.926C177.709 2.196 177.889 2.613 177.889 3.177C177.889 3.453 177.838 3.693 177.736 3.897C177.634 4.101 177.487 4.272 177.295 4.41C177.109 4.542 176.881 4.641 176.611 4.707C176.341 4.773 176.035 4.806 175.693 4.806H174.802Z" fill="white" style="fill:white;fill-opacity:1;"/>
<path d="M185.197 8.046H184.702L182.119 1.62L182.128 1.602H182.614L185.197 8.046ZM181.957 1.602H182.407L179.851 8.046H179.401L181.957 1.602ZM180.418 6.003V5.571H184.108V6.003H180.418Z" fill="white" style="fill:white;fill-opacity:1;"/>
<path d="M189.513 1.197C189.213 1.197 188.961 1.146 188.757 1.044C188.559 0.936 188.412 0.792 188.316 0.612C188.22 0.426 188.172 0.222 188.172 0H188.631C188.631 0.288 188.709 0.501 188.865 0.639C189.021 0.777 189.237 0.846 189.513 0.846C189.801 0.846 190.02 0.777 190.17 0.639C190.32 0.501 190.395 0.288 190.395 0H190.845C190.845 0.222 190.797 0.426 190.701 0.612C190.605 0.792 190.458 0.936 190.26 1.044C190.068 1.146 189.819 1.197 189.513 1.197ZM191.628 1.602H192.114V8.046H191.628V1.602ZM186.921 1.602H187.398V8.046H186.921V1.602ZM187.416 8.046H187.02L187.164 7.731L191.61 1.602H191.997L191.907 1.863L187.416 8.046Z" fill="white" style="fill:white;fill-opacity:1;"/>
<path d="M197.71 7.074H197.377L194.641 1.602H195.163L197.827 6.939L197.71 7.074ZM194.506 1.602H194.947V8.046H194.506V1.602ZM197.881 7.074L197.422 7.065L200.167 1.602H200.644L197.881 7.074ZM200.32 1.602H200.797V8.046H200.32V1.602Z" fill="white" style="fill:white;fill-opacity:1;"/>
<path d="M208.328 8.046H207.833L205.25 1.62L205.259 1.602H205.745L208.328 8.046ZM205.088 1.602H205.538L202.982 8.046H202.532L205.088 1.602ZM203.549 6.003V5.571H207.239V6.003H203.549Z" fill="white" style="fill:white;fill-opacity:1;"/>
<path d="M209.566 9.297C209.866 8.937 210.118 8.541 210.322 8.109C210.532 7.677 210.691 7.221 210.799 6.741C210.907 6.255 210.961 5.76 210.961 5.256C210.961 4.746 210.907 4.245 210.799 3.753C210.691 3.261 210.532 2.799 210.322 2.367C210.118 1.935 209.866 1.563 209.566 1.251H210.025C210.325 1.575 210.577 1.956 210.781 2.394C210.985 2.826 211.138 3.288 211.24 3.78C211.348 4.272 211.402 4.773 211.402 5.283C211.402 6.045 211.285 6.771 211.051 7.461C210.817 8.151 210.475 8.763 210.025 9.297H209.566Z" fill="white" style="fill:white;fill-opacity:1;"/>
<path d="M4.923 13.602H5.4V20.046H4.923V13.602ZM0.369 13.602H0.846V20.046H0.369V13.602ZM0.63 17.067V16.635H5.139V17.067H0.63Z" fill="white" style="fill:white;fill-opacity:1;"/>
<path d="M14.7341 20.046H14.2391L11.6561 13.62L11.6651 13.602H12.1511L14.7341 20.046ZM11.4941 13.602H11.9441L9.38805 20.046H8.93806L11.4941 13.602ZM9.95506 18.003V17.571H13.6451V18.003H9.95506Z" fill="white" style="fill:white;fill-opacity:1;"/>
<path d="M25.2737 20.136C24.6257 20.136 24.0647 20.004 23.5907 19.74C23.1167 19.47 22.7507 19.089 22.4927 18.597C22.2407 18.105 22.1147 17.517 22.1147 16.833C22.1147 16.137 22.2377 15.543 22.4837 15.051C22.7357 14.559 23.0957 14.181 23.5637 13.917C24.0317 13.653 24.5987 13.521 25.2647 13.521C25.6907 13.521 26.0777 13.572 26.4257 13.674C26.7797 13.776 27.0737 13.914 27.3077 14.088V14.574C27.1517 14.448 26.9627 14.34 26.7407 14.25C26.5187 14.154 26.2817 14.079 26.0297 14.025C25.7777 13.971 25.5227 13.944 25.2647 13.944C24.6887 13.944 24.2027 14.058 23.8067 14.286C23.4167 14.508 23.1197 14.835 22.9157 15.267C22.7117 15.699 22.6097 16.221 22.6097 16.833C22.6097 17.439 22.7147 17.958 22.9247 18.39C23.1347 18.816 23.4407 19.143 23.8427 19.371C24.2447 19.593 24.7307 19.704 25.3007 19.704C25.5587 19.704 25.8107 19.68 26.0567 19.632C26.3027 19.578 26.5337 19.5 26.7497 19.398C26.9657 19.296 27.1517 19.176 27.3077 19.038V19.524C27.0737 19.716 26.7827 19.866 26.4347 19.974C26.0867 20.082 25.6997 20.136 25.2737 20.136Z" fill="white" style="fill:white;fill-opacity:1;"/>
<path d="M36.295 20.046H35.8L33.217 13.62L33.226 13.602H33.712L36.295 20.046ZM33.055 13.602H33.505L30.949 20.046H30.499L33.055 13.602ZM31.516 18.003V17.571H35.206V18.003H31.516Z" fill="white" style="fill:white;fill-opacity:1;"/>
<path d="M42.4116 13.197C42.1116 13.197 41.8596 13.146 41.6556 13.044C41.4576 12.936 41.3106 12.792 41.2146 12.612C41.1186 12.426 41.0706 12.222 41.0706 12H41.5296C41.5296 12.288 41.6076 12.501 41.7636 12.639C41.9196 12.777 42.1356 12.846 42.4116 12.846C42.6996 12.846 42.9186 12.777 43.0686 12.639C43.2186 12.501 43.2936 12.288 43.2936 12H43.7436C43.7436 12.222 43.6956 12.426 43.5996 12.612C43.5036 12.792 43.3566 12.936 43.1586 13.044C42.9666 13.146 42.7176 13.197 42.4116 13.197ZM44.5266 13.602H45.0126V20.046H44.5266V13.602ZM39.8196 13.602H40.2966V20.046H39.8196V13.602ZM40.3146 20.046H39.9186L40.0626 19.731L44.5086 13.602H44.8956L44.8056 13.863L40.3146 20.046Z" fill="white" style="fill:white;fill-opacity:1;"/>
<path d="M48.5108 14.043V13.602H53.5958V14.043H48.5108ZM50.8148 13.674H51.2918V20.046H50.8148V13.674Z" fill="white" style="fill:white;fill-opacity:1;"/>
<path d="M57.094 13.602H57.571V20.046H57.094V13.602ZM57.319 20.046V19.614H61.207V20.046H57.319ZM57.319 16.851V16.419H60.667V16.851H57.319ZM57.319 14.034V13.602H61.162V14.034H57.319Z" fill="white" style="fill:white;fill-opacity:1;"/>
<path d="M71.4123 19.614C71.7903 19.614 72.1203 19.572 72.4023 19.488C72.6843 19.398 72.9033 19.254 73.0593 19.056C73.2153 18.852 73.2933 18.582 73.2933 18.246C73.2933 17.946 73.2273 17.7 73.0953 17.508C72.9693 17.316 72.7743 17.175 72.5103 17.085C72.2463 16.989 71.9103 16.941 71.5023 16.941H69.5943V16.662H71.6193C72.3513 16.662 72.8943 16.788 73.2483 17.04C73.6083 17.292 73.7883 17.691 73.7883 18.237C73.7883 18.669 73.6833 19.02 73.4733 19.29C73.2633 19.554 72.9783 19.746 72.6183 19.866C72.2583 19.986 71.8563 20.046 71.4123 20.046H69.5943V19.614H71.4123ZM69.2883 13.602H69.7653V20.046H69.2883V13.602ZM71.3403 16.518C71.6943 16.518 72.0033 16.473 72.2673 16.383C72.5313 16.293 72.7353 16.149 72.8793 15.951C73.0293 15.753 73.1043 15.498 73.1043 15.186C73.1043 14.91 73.0413 14.688 72.9153 14.52C72.7953 14.352 72.6153 14.229 72.3753 14.151C72.1353 14.073 71.8353 14.034 71.4753 14.034H69.5943V13.602H71.4753C71.9313 13.602 72.3153 13.659 72.6273 13.773C72.9393 13.881 73.1763 14.049 73.3383 14.277C73.5003 14.505 73.5813 14.799 73.5813 15.159C73.5813 15.459 73.5273 15.714 73.4193 15.924C73.3113 16.128 73.1583 16.296 72.9603 16.428C72.7683 16.554 72.5373 16.647 72.2673 16.707C71.9973 16.761 71.7003 16.788 71.3763 16.788H69.5943V16.518H71.3403Z" fill="white" style="fill:white;fill-opacity:1;"/>
<path d="M84.6505 20.136C84.0025 20.136 83.4415 20.004 82.9675 19.74C82.4935 19.47 82.1275 19.089 81.8695 18.597C81.6175 18.105 81.4915 17.517 81.4915 16.833C81.4915 16.137 81.6145 15.543 81.8605 15.051C82.1125 14.559 82.4725 14.181 82.9405 13.917C83.4085 13.653 83.9755 13.521 84.6415 13.521C85.0675 13.521 85.4545 13.572 85.8025 13.674C86.1565 13.776 86.4505 13.914 86.6845 14.088V14.574C86.5285 14.448 86.3395 14.34 86.1175 14.25C85.8955 14.154 85.6585 14.079 85.4065 14.025C85.1545 13.971 84.8995 13.944 84.6415 13.944C84.0655 13.944 83.5795 14.058 83.1835 14.286C82.7935 14.508 82.4965 14.835 82.2925 15.267C82.0885 15.699 81.9865 16.221 81.9865 16.833C81.9865 17.439 82.0915 17.958 82.3015 18.39C82.5115 18.816 82.8175 19.143 83.2195 19.371C83.6215 19.593 84.1075 19.704 84.6775 19.704C84.9355 19.704 85.1875 19.68 85.4335 19.632C85.6795 19.578 85.9105 19.5 86.1265 19.398C86.3425 19.296 86.5285 19.176 86.6845 19.038V19.524C86.4505 19.716 86.1595 19.866 85.8115 19.974C85.4635 20.082 85.0765 20.136 84.6505 20.136Z" fill="white" style="fill:white;fill-opacity:1;"/>
<path d="M93.1987 20.136C92.7487 20.136 92.3347 20.061 91.9567 19.911C91.5787 19.761 91.2487 19.542 90.9667 19.254C90.6847 18.966 90.4657 18.615 90.3097 18.201C90.1597 17.787 90.0847 17.319 90.0847 16.797C90.0847 16.275 90.1597 15.81 90.3097 15.402C90.4657 14.994 90.6847 14.652 90.9667 14.376C91.2487 14.094 91.5787 13.881 91.9567 13.737C92.3347 13.593 92.7487 13.521 93.1987 13.521C93.6487 13.521 94.0597 13.593 94.4317 13.737C94.8097 13.881 95.1367 14.094 95.4127 14.376C95.6947 14.658 95.9137 15.003 96.0697 15.411C96.2257 15.813 96.3037 16.275 96.3037 16.797C96.3037 17.319 96.2257 17.787 96.0697 18.201C95.9137 18.615 95.6947 18.966 95.4127 19.254C95.1367 19.542 94.8097 19.761 94.4317 19.911C94.0597 20.061 93.6487 20.136 93.1987 20.136ZM93.1987 19.704C93.7027 19.704 94.1497 19.596 94.5397 19.38C94.9357 19.164 95.2447 18.843 95.4667 18.417C95.6947 17.991 95.8087 17.463 95.8087 16.833C95.8087 16.191 95.6947 15.657 95.4667 15.231C95.2447 14.805 94.9357 14.484 94.5397 14.268C94.1497 14.052 93.7027 13.944 93.1987 13.944C92.6887 13.944 92.2357 14.052 91.8397 14.268C91.4497 14.484 91.1407 14.805 90.9127 15.231C90.6907 15.657 90.5797 16.191 90.5797 16.833C90.5797 17.463 90.6907 17.991 90.9127 18.417C91.1407 18.843 91.4497 19.164 91.8397 19.38C92.2357 19.596 92.6887 19.704 93.1987 19.704Z" fill="white" style="fill:white;fill-opacity:1;"/>
<path d="M102.864 20.136C102.414 20.136 102 20.061 101.622 19.911C101.244 19.761 100.914 19.542 100.632 19.254C100.35 18.966 100.131 18.615 99.9752 18.201C99.8252 17.787 99.7502 17.319 99.7502 16.797C99.7502 16.275 99.8252 15.81 99.9752 15.402C100.131 14.994 100.35 14.652 100.632 14.376C100.914 14.094 101.244 13.881 101.622 13.737C102 13.593 102.414 13.521 102.864 13.521C103.314 13.521 103.725 13.593 104.097 13.737C104.475 13.881 104.802 14.094 105.078 14.376C105.36 14.658 105.579 15.003 105.735 15.411C105.891 15.813 105.969 16.275 105.969 16.797C105.969 17.319 105.891 17.787 105.735 18.201C105.579 18.615 105.36 18.966 105.078 19.254C104.802 19.542 104.475 19.761 104.097 19.911C103.725 20.061 103.314 20.136 102.864 20.136ZM102.864 19.704C103.368 19.704 103.815 19.596 104.205 19.38C104.601 19.164 104.91 18.843 105.132 18.417C105.36 17.991 105.474 17.463 105.474 16.833C105.474 16.191 105.36 15.657 105.132 15.231C104.91 14.805 104.601 14.484 104.205 14.268C103.815 14.052 103.368 13.944 102.864 13.944C102.354 13.944 101.901 14.052 101.505 14.268C101.115 14.484 100.806 14.805 100.578 15.231C100.356 15.657 100.245 16.191 100.245 16.833C100.245 17.463 100.356 17.991 100.578 18.417C100.806 18.843 101.115 19.164 101.505 19.38C101.901 19.596 102.354 19.704 102.864 19.704Z" fill="white" style="fill:white;fill-opacity:1;"/>
<path d="M108.74 14.043V13.602H113.825V14.043H108.74ZM111.044 13.674H111.521V20.046H111.044V13.674Z" fill="white" style="fill:white;fill-opacity:1;"/>
<path d="M119.447 19.614C119.825 19.614 120.155 19.572 120.437 19.488C120.719 19.398 120.938 19.254 121.094 19.056C121.25 18.852 121.328 18.582 121.328 18.246C121.328 17.946 121.262 17.7 121.13 17.508C121.004 17.316 120.809 17.175 120.545 17.085C120.281 16.989 119.945 16.941 119.537 16.941H117.629V16.662H119.654C120.386 16.662 120.929 16.788 121.283 17.04C121.643 17.292 121.823 17.691 121.823 18.237C121.823 18.669 121.718 19.02 121.508 19.29C121.298 19.554 121.013 19.746 120.653 19.866C120.293 19.986 119.891 20.046 119.447 20.046H117.629V19.614H119.447ZM117.323 13.602H117.8V20.046H117.323V13.602ZM119.375 16.518C119.729 16.518 120.038 16.473 120.302 16.383C120.566 16.293 120.77 16.149 120.914 15.951C121.064 15.753 121.139 15.498 121.139 15.186C121.139 14.91 121.076 14.688 120.95 14.52C120.83 14.352 120.65 14.229 120.41 14.151C120.17 14.073 119.87 14.034 119.51 14.034H117.629V13.602H119.51C119.966 13.602 120.35 13.659 120.662 13.773C120.974 13.881 121.211 14.049 121.373 14.277C121.535 14.505 121.616 14.799 121.616 15.159C121.616 15.459 121.562 15.714 121.454 15.924C121.346 16.128 121.193 16.296 120.995 16.428C120.803 16.554 120.572 16.647 120.302 16.707C120.032 16.761 119.735 16.788 119.411 16.788H117.629V16.518H119.375Z" fill="white" style="fill:white;fill-opacity:1;"/>
<path d="M125.67 13.602H126.147V20.046H125.67V13.602ZM125.895 20.046V19.614H129.783V20.046H125.895ZM125.895 16.851V16.419H129.243V16.851H125.895ZM125.895 14.034V13.602H129.738V14.034H125.895Z" fill="white" style="fill:white;fill-opacity:1;"/>
<path d="M133.052 14.043V13.602H138.137V14.043H133.052ZM135.356 13.674H135.833V20.046H135.356V13.674Z" fill="white" style="fill:white;fill-opacity:1;"/>
<path d="M144.074 20.136C143.426 20.136 142.865 20.004 142.391 19.74C141.917 19.47 141.551 19.089 141.293 18.597C141.041 18.105 140.915 17.517 140.915 16.833C140.915 16.137 141.038 15.543 141.284 15.051C141.536 14.559 141.896 14.181 142.364 13.917C142.832 13.653 143.399 13.521 144.065 13.521C144.491 13.521 144.878 13.572 145.226 13.674C145.58 13.776 145.874 13.914 146.108 14.088V14.574C145.952 14.448 145.763 14.34 145.541 14.25C145.319 14.154 145.082 14.079 144.83 14.025C144.578 13.971 144.323 13.944 144.065 13.944C143.489 13.944 143.003 14.058 142.607 14.286C142.217 14.508 141.92 14.835 141.716 15.267C141.512 15.699 141.41 16.221 141.41 16.833C141.41 17.439 141.515 17.958 141.725 18.39C141.935 18.816 142.241 19.143 142.643 19.371C143.045 19.593 143.531 19.704 144.101 19.704C144.359 19.704 144.611 19.68 144.857 19.632C145.103 19.578 145.334 19.5 145.55 19.398C145.766 19.296 145.952 19.176 146.108 19.038V19.524C145.874 19.716 145.583 19.866 145.235 19.974C144.887 20.082 144.5 20.136 144.074 20.136Z" fill="white" style="fill:white;fill-opacity:1;"/>
<path d="M149.351 14.043V13.602H154.436V14.043H149.351ZM151.655 13.674H152.132V20.046H151.655V13.674Z" fill="white" style="fill:white;fill-opacity:1;"/>
<path d="M160.058 19.614C160.436 19.614 160.766 19.572 161.048 19.488C161.33 19.398 161.549 19.254 161.705 19.056C161.861 18.852 161.939 18.582 161.939 18.246C161.939 17.946 161.873 17.7 161.741 17.508C161.615 17.316 161.42 17.175 161.156 17.085C160.892 16.989 160.556 16.941 160.148 16.941H158.24V16.662H160.265C160.997 16.662 161.54 16.788 161.894 17.04C162.254 17.292 162.434 17.691 162.434 18.237C162.434 18.669 162.329 19.02 162.119 19.29C161.909 19.554 161.624 19.746 161.264 19.866C160.904 19.986 160.502 20.046 160.058 20.046H158.24V19.614H160.058ZM157.934 13.602H158.411V20.046H157.934V13.602ZM159.986 16.518C160.34 16.518 160.649 16.473 160.913 16.383C161.177 16.293 161.381 16.149 161.525 15.951C161.675 15.753 161.75 15.498 161.75 15.186C161.75 14.91 161.687 14.688 161.561 14.52C161.441 14.352 161.261 14.229 161.021 14.151C160.781 14.073 160.481 14.034 160.121 14.034H158.24V13.602H160.121C160.577 13.602 160.961 13.659 161.273 13.773C161.585 13.881 161.822 14.049 161.984 14.277C162.146 14.505 162.227 14.799 162.227 15.159C162.227 15.459 162.173 15.714 162.065 15.924C161.957 16.128 161.804 16.296 161.606 16.428C161.414 16.554 161.183 16.647 160.913 16.707C160.643 16.761 160.346 16.788 160.022 16.788H158.24V16.518H159.986Z" fill="white" style="fill:white;fill-opacity:1;"/>
<path d="M168.069 18.714L165.477 13.602H166.026L168.321 18.147L168.069 18.714ZM166.458 19.56C166.482 19.566 166.506 19.569 166.53 19.569C166.56 19.569 166.596 19.569 166.638 19.569C166.842 19.569 167.025 19.524 167.187 19.434C167.349 19.344 167.499 19.2 167.637 19.002C167.775 18.804 167.91 18.543 168.042 18.219L168.123 18.048L170.076 13.602H170.598L168.483 18.309C168.285 18.753 168.096 19.101 167.916 19.353C167.742 19.605 167.556 19.785 167.358 19.893C167.16 20.001 166.926 20.055 166.656 20.055C166.614 20.055 166.575 20.055 166.539 20.055C166.509 20.055 166.482 20.052 166.458 20.046V19.56Z" fill="white" style="fill:white;fill-opacity:1;"/>
<path d="M174.048 13.602H174.525V20.046H174.048V13.602ZM174.309 17.067V16.635H176.136V17.067H174.309ZM178.728 20.136C178.308 20.136 177.921 20.061 177.567 19.911C177.213 19.761 176.904 19.545 176.64 19.263C176.376 18.975 176.169 18.627 176.019 18.219C175.875 17.805 175.803 17.337 175.803 16.815C175.803 16.293 175.875 15.828 176.019 15.42C176.169 15.012 176.376 14.667 176.64 14.385C176.904 14.103 177.213 13.89 177.567 13.746C177.921 13.596 178.308 13.521 178.728 13.521C179.148 13.521 179.535 13.593 179.889 13.737C180.243 13.881 180.552 14.094 180.816 14.376C181.08 14.658 181.284 15.003 181.428 15.411C181.578 15.813 181.653 16.275 181.653 16.797C181.653 17.319 181.578 17.787 181.428 18.201C181.284 18.615 181.08 18.966 180.816 19.254C180.552 19.542 180.243 19.761 179.889 19.911C179.535 20.061 179.148 20.136 178.728 20.136ZM178.728 19.704C179.202 19.704 179.622 19.596 179.988 19.38C180.354 19.164 180.639 18.843 180.843 18.417C181.053 17.991 181.158 17.463 181.158 16.833C181.158 16.191 181.053 15.657 180.843 15.231C180.639 14.805 180.354 14.484 179.988 14.268C179.622 14.052 179.202 13.944 178.728 13.944C178.26 13.944 177.843 14.052 177.477 14.268C177.117 14.484 176.832 14.805 176.622 15.231C176.412 15.657 176.307 16.191 176.307 16.833C176.307 17.463 176.412 17.991 176.622 18.417C176.832 18.843 177.117 19.164 177.477 19.38C177.843 19.596 178.26 19.704 178.728 19.704Z" fill="white" style="fill:white;fill-opacity:1;"/>
<path d="M185.48 20.046V13.602H185.957V20.046H185.48ZM188.747 20.046V13.602H189.233V20.046H188.747ZM185.75 19.614H192.968V20.046H185.75V19.614ZM192.041 20.046V13.602H192.527V20.046H192.041ZM192.878 21.567L192.788 19.614H193.301V21.567H192.878Z" fill="white" style="fill:white;fill-opacity:1;"/>
<path d="M196.965 13.602H197.442V20.046H196.965V13.602ZM197.19 20.046V19.614H201.078V20.046H197.19ZM197.19 16.851V16.419H200.538V16.851H197.19ZM197.19 14.034V13.602H201.033V14.034H197.19Z" fill="white" style="fill:white;fill-opacity:1;"/>
<path d="M208.138 19.074H207.805L205.069 13.602H205.591L208.255 18.939L208.138 19.074ZM204.934 13.602H205.375V20.046H204.934V13.602ZM208.309 19.074L207.85 19.065L210.595 13.602H211.072L208.309 19.074ZM210.748 13.602H211.225V20.046H210.748V13.602Z" fill="white" style="fill:white;fill-opacity:1;"/>
<path d="M2.358 28.887C2.742 28.887 3.066 28.836 3.33 28.734C3.594 28.632 3.792 28.473 3.924 28.257C4.062 28.035 4.131 27.747 4.131 27.393C4.131 27.081 4.068 26.826 3.942 26.628C3.816 26.43 3.63 26.283 3.384 26.187C3.138 26.085 2.829 26.034 2.457 26.034H0.702V25.602H2.457C3.141 25.602 3.669 25.749 4.041 26.043C4.419 26.331 4.608 26.778 4.608 27.384C4.608 27.834 4.518 28.203 4.338 28.491C4.158 28.773 3.9 28.98 3.564 29.112C3.228 29.244 2.826 29.31 2.358 29.31H0.702V28.887H2.358ZM0.369 25.602H0.846V32.046H0.369V25.602Z" fill="white" style="fill:white;fill-opacity:1;"/>
<path d="M13.8499 32.046H13.3549L10.7719 25.62L10.7809 25.602H11.2669L13.8499 32.046ZM10.6099 25.602H11.0599L8.50387 32.046H8.05387L10.6099 25.602ZM9.07088 30.003V29.571H12.7609V30.003H9.07088Z" fill="white" style="fill:white;fill-opacity:1;"/>
<path d="M19.9489 32.136C19.6729 32.136 19.4059 32.112 19.1479 32.064C18.8959 32.016 18.6649 31.944 18.4549 31.848C18.2449 31.752 18.0589 31.641 17.8969 31.515V31.038C18.0589 31.176 18.2479 31.296 18.4639 31.398C18.6859 31.5 18.9229 31.578 19.1749 31.632C19.4269 31.68 19.6819 31.704 19.9399 31.704C20.3059 31.704 20.6239 31.659 20.8939 31.569C21.1639 31.473 21.3769 31.317 21.5329 31.101C21.6889 30.885 21.7669 30.6 21.7669 30.246C21.7669 29.946 21.7009 29.7 21.5689 29.508C21.4369 29.316 21.2419 29.175 20.9839 29.085C20.7259 28.989 20.3959 28.941 19.9939 28.941H18.9769V28.644H20.1109C20.5909 28.644 20.9899 28.704 21.3079 28.824C21.6259 28.938 21.8629 29.115 22.0189 29.355C22.1749 29.589 22.2529 29.883 22.2529 30.237C22.2529 30.573 22.1929 30.864 22.0729 31.11C21.9589 31.35 21.7969 31.545 21.5869 31.695C21.3769 31.845 21.1309 31.956 20.8489 32.028C20.5729 32.1 20.2729 32.136 19.9489 32.136ZM18.9769 28.806V28.527H19.8139C20.1739 28.527 20.4859 28.482 20.7499 28.392C21.0139 28.296 21.2179 28.152 21.3619 27.96C21.5119 27.762 21.5869 27.51 21.5869 27.204C21.5869 26.91 21.5269 26.67 21.4069 26.484C21.2869 26.298 21.1069 26.163 20.8669 26.079C20.6329 25.989 20.3449 25.944 20.0029 25.944C19.7449 25.944 19.4869 25.968 19.2289 26.016C18.9769 26.064 18.7399 26.133 18.5179 26.223C18.3019 26.313 18.1069 26.424 17.9329 26.556V26.097C18.0949 25.971 18.2809 25.866 18.4909 25.782C18.7009 25.698 18.9319 25.635 19.1839 25.593C19.4419 25.545 19.7179 25.521 20.0119 25.521C20.6599 25.521 21.1639 25.656 21.5239 25.926C21.8839 26.196 22.0639 26.613 22.0639 27.177C22.0639 27.453 22.0129 27.693 21.9109 27.897C21.8089 28.101 21.6619 28.272 21.4699 28.41C21.2839 28.542 21.0559 28.641 20.7859 28.707C20.5159 28.773 20.2099 28.806 19.8679 28.806H18.9769Z" fill="white" style="fill:white;fill-opacity:1;"/>
<path d="M26.1091 31.614H26.6221L26.5321 33.567H26.1091V31.614ZM26.3341 31.731C26.6101 31.659 26.8261 31.479 26.9821 31.191C27.1441 30.897 27.2641 30.495 27.3421 29.985C27.4261 29.475 27.4831 28.857 27.5131 28.131C27.5491 27.399 27.5761 26.556 27.5941 25.602H28.0621C28.0381 26.394 28.0141 27.105 27.9901 27.735C27.9661 28.359 27.9301 28.911 27.8821 29.391C27.8401 29.865 27.7771 30.27 27.6931 30.606C27.6151 30.942 27.5101 31.215 27.3781 31.425C27.2461 31.629 27.0781 31.779 26.8741 31.875L26.3341 31.731ZM27.8371 25.602H31.3201V26.034H27.8371V25.602ZM26.4151 31.614H32.1751V32.046H26.4151V31.614ZM31.0771 32.046V25.602H31.5541V32.046H31.0771ZM31.9051 33.567L31.8331 31.614H32.3461V33.567H31.9051Z" fill="white" style="fill:white;fill-opacity:1;"/>
<path d="M36.9006 25.602H37.3776V32.046H36.9006V25.602ZM37.1256 32.046V31.614H41.0136V32.046H37.1256ZM37.1256 28.851V28.419H40.4736V28.851H37.1256ZM37.1256 26.034V25.602H40.9686V26.034H37.1256Z" fill="white" style="fill:white;fill-opacity:1;"/>
<path d="M46.6878 25.602H50.0448V26.034H46.6878V25.602ZM49.7838 32.046V25.602H50.2608V32.046H49.7838ZM45.1128 31.596C45.3168 31.608 45.4878 31.566 45.6258 31.47C45.7698 31.374 45.8898 31.221 45.9858 31.011C46.0818 30.801 46.1568 30.528 46.2108 30.192C46.2468 29.994 46.2798 29.754 46.3098 29.472C46.3398 29.19 46.3638 28.863 46.3818 28.491C46.4058 28.113 46.4268 27.687 46.4448 27.213C46.4688 26.733 46.4868 26.196 46.4988 25.602H46.9578C46.9398 26.286 46.9218 26.88 46.9038 27.384C46.8858 27.882 46.8648 28.311 46.8408 28.671C46.8168 29.031 46.7898 29.343 46.7598 29.607C46.7358 29.865 46.7088 30.093 46.6788 30.291C46.6128 30.621 46.5348 30.903 46.4448 31.137C46.3608 31.365 46.2558 31.551 46.1298 31.695C46.0098 31.833 45.8658 31.935 45.6978 32.001C45.5298 32.061 45.3348 32.088 45.1128 32.082V31.596Z" fill="white" style="fill:white;fill-opacity:1;"/>
<path d="M55.3509 25.602H55.8279V32.046H55.3509V25.602ZM55.5759 32.046V31.614H59.4639V32.046H55.5759ZM55.5759 28.851V28.419H58.9239V28.851H55.5759ZM55.5759 26.034V25.602H59.4189V26.034H55.5759Z" fill="white" style="fill:white;fill-opacity:1;"/>
<path d="M64.3641 32.091C64.2801 32.091 64.2051 32.073 64.1391 32.037C64.0791 31.995 64.0311 31.944 63.9951 31.884C63.9651 31.824 63.9501 31.761 63.9501 31.695C63.9501 31.611 63.9651 31.542 63.9951 31.488C64.0311 31.428 64.0791 31.38 64.1391 31.344C64.2051 31.308 64.2801 31.29 64.3641 31.29C64.4481 31.29 64.5201 31.308 64.5801 31.344C64.6401 31.38 64.6851 31.428 64.7151 31.488C64.7511 31.542 64.7691 31.608 64.7691 31.686C64.7691 31.758 64.7511 31.824 64.7151 31.884C64.6851 31.944 64.6401 31.995 64.5801 32.037C64.5201 32.073 64.4481 32.091 64.3641 32.091Z" fill="white" style="fill:white;fill-opacity:1;"/>
<path d="M77.4614 32.136C77.0114 32.136 76.5974 32.061 76.2194 31.911C75.8414 31.761 75.5114 31.542 75.2294 31.254C74.9474 30.966 74.7284 30.615 74.5724 30.201C74.4224 29.787 74.3474 29.319 74.3474 28.797C74.3474 28.275 74.4224 27.81 74.5724 27.402C74.7284 26.994 74.9474 26.652 75.2294 26.376C75.5114 26.094 75.8414 25.881 76.2194 25.737C76.5974 25.593 77.0114 25.521 77.4614 25.521C77.9114 25.521 78.3224 25.593 78.6944 25.737C79.0724 25.881 79.3994 26.094 79.6754 26.376C79.9574 26.658 80.1764 27.003 80.3324 27.411C80.4884 27.813 80.5664 28.275 80.5664 28.797C80.5664 29.319 80.4884 29.787 80.3324 30.201C80.1764 30.615 79.9574 30.966 79.6754 31.254C79.3994 31.542 79.0724 31.761 78.6944 31.911C78.3224 32.061 77.9114 32.136 77.4614 32.136ZM77.4614 31.704C77.9654 31.704 78.4124 31.596 78.8024 31.38C79.1984 31.164 79.5074 30.843 79.7294 30.417C79.9574 29.991 80.0714 29.463 80.0714 28.833C80.0714 28.191 79.9574 27.657 79.7294 27.231C79.5074 26.805 79.1984 26.484 78.8024 26.268C78.4124 26.052 77.9654 25.944 77.4614 25.944C76.9514 25.944 76.4984 26.052 76.1024 26.268C75.7124 26.484 75.4034 26.805 75.1754 27.231C74.9534 27.657 74.8424 28.191 74.8424 28.833C74.8424 29.463 74.9534 29.991 75.1754 30.417C75.4034 30.843 75.7124 31.164 76.1024 31.38C76.4984 31.596 76.9514 31.704 77.4614 31.704Z" fill="white" style="fill:white;fill-opacity:1;"/>
<path d="M90.5289 33.567L90.4479 31.614H90.9519V33.567H90.5289ZM89.6829 32.046V25.602H90.1689V32.046H89.6829ZM85.2819 32.046V25.602H85.7589V32.046H85.2819ZM85.4979 31.614H90.5829V32.046H85.4979V31.614Z" fill="white" style="fill:white;fill-opacity:1;"/>
<path d="M95.5134 25.602H95.9904V32.046H95.5134V25.602ZM95.7384 32.046V31.614H99.6264V32.046H95.7384ZM95.7384 28.851V28.419H99.0864V28.851H95.7384ZM95.7384 26.034V25.602H99.5814V26.034H95.7384Z" fill="white" style="fill:white;fill-opacity:1;"/>
<path d="M108.937 25.602H109.414V32.046H108.937V25.602ZM104.383 25.602H104.86V32.046H104.383V25.602ZM104.644 29.067V28.635H109.153V29.067H104.644Z" fill="white" style="fill:white;fill-opacity:1;"/>
<path d="M119.216 25.602H119.702V32.046H119.216V25.602ZM114.509 25.602H114.986V32.046H114.509V25.602ZM115.004 32.046H114.608L114.752 31.731L119.198 25.602H119.585L119.495 25.863L115.004 32.046Z" fill="white" style="fill:white;fill-opacity:1;"/>
<path d="M126.917 31.614C127.295 31.614 127.625 31.572 127.907 31.488C128.189 31.398 128.408 31.254 128.564 31.056C128.72 30.852 128.798 30.582 128.798 30.246C128.798 29.946 128.732 29.7 128.6 29.508C128.474 29.316 128.279 29.175 128.015 29.085C127.751 28.989 127.415 28.941 127.007 28.941H125.099V28.662H127.124C127.856 28.662 128.399 28.788 128.753 29.04C129.113 29.292 129.293 29.691 129.293 30.237C129.293 30.669 129.188 31.02 128.978 31.29C128.768 31.554 128.483 31.746 128.123 31.866C127.763 31.986 127.361 32.046 126.917 32.046H125.099V31.614H126.917ZM124.793 25.602H125.27V32.046H124.793V25.602ZM126.845 28.518C127.199 28.518 127.508 28.473 127.772 28.383C128.036 28.293 128.24 28.149 128.384 27.951C128.534 27.753 128.609 27.498 128.609 27.186C128.609 26.91 128.546 26.688 128.42 26.52C128.3 26.352 128.12 26.229 127.88 26.151C127.64 26.073 127.34 26.034 126.98 26.034H125.099V25.602H126.98C127.436 25.602 127.82 25.659 128.132 25.773C128.444 25.881 128.681 26.049 128.843 26.277C129.005 26.505 129.086 26.799 129.086 27.159C129.086 27.459 129.032 27.714 128.924 27.924C128.816 28.128 128.663 28.296 128.465 28.428C128.273 28.554 128.042 28.647 127.772 28.707C127.502 28.761 127.205 28.788 126.881 28.788H125.099V28.518H126.845Z" fill="white" style="fill:white;fill-opacity:1;"/>
<path d="M139.109 32.046H138.614L136.031 25.62L136.04 25.602H136.526L139.109 32.046ZM135.869 25.602H136.319L133.763 32.046H133.313L135.869 25.602ZM134.33 30.003V29.571H138.02V30.003H134.33Z" fill="white" style="fill:white;fill-opacity:1;"/>
<path d="M146.125 25.197C145.825 25.197 145.573 25.146 145.369 25.044C145.171 24.936 145.024 24.792 144.928 24.612C144.832 24.426 144.784 24.222 144.784 24H145.243C145.243 24.288 145.321 24.501 145.477 24.639C145.633 24.777 145.849 24.846 146.125 24.846C146.413 24.846 146.632 24.777 146.782 24.639C146.932 24.501 147.007 24.288 147.007 24H147.457C147.457 24.222 147.409 24.426 147.313 24.612C147.217 24.792 147.07 24.936 146.872 25.044C146.68 25.146 146.431 25.197 146.125 25.197ZM148.24 25.602H148.726V32.046H148.24V25.602ZM143.533 25.602H144.01V32.046H143.533V25.602ZM144.028 32.046H143.632L143.776 31.731L148.222 25.602H148.609L148.519 25.863L144.028 32.046Z" fill="white" style="fill:white;fill-opacity:1;"/>
<path d="M153.125 26.043V25.602H158.21V26.043H153.125ZM155.429 25.674H155.906V32.046H155.429V25.674Z" fill="white" style="fill:white;fill-opacity:1;"/>
<path d="M162.608 25.602H163.085V32.046H162.608V25.602ZM162.833 32.046V31.614H166.721V32.046H162.833ZM162.833 28.851V28.419H166.181V28.851H162.833ZM162.833 26.034V25.602H166.676V26.034H162.833Z" fill="white" style="fill:white;fill-opacity:1;"/>
<path d="M179.392 32.136C178.744 32.136 178.183 32.004 177.709 31.74C177.235 31.47 176.869 31.089 176.611 30.597C176.359 30.105 176.233 29.517 176.233 28.833C176.233 28.137 176.356 27.543 176.602 27.051C176.854 26.559 177.214 26.181 177.682 25.917C178.15 25.653 178.717 25.521 179.383 25.521C179.809 25.521 180.196 25.572 180.544 25.674C180.898 25.776 181.192 25.914 181.426 26.088V26.574C181.27 26.448 181.081 26.34 180.859 26.25C180.637 26.154 180.4 26.079 180.148 26.025C179.896 25.971 179.641 25.944 179.383 25.944C178.807 25.944 178.321 26.058 177.925 26.286C177.535 26.508 177.238 26.835 177.034 27.267C176.83 27.699 176.728 28.221 176.728 28.833C176.728 29.439 176.833 29.958 177.043 30.39C177.253 30.816 177.559 31.143 177.961 31.371C178.363 31.593 178.849 31.704 179.419 31.704C179.677 31.704 179.929 31.68 180.175 31.632C180.421 31.578 180.652 31.5 180.868 31.398C181.084 31.296 181.27 31.176 181.426 31.038V31.524C181.192 31.716 180.901 31.866 180.553 31.974C180.205 32.082 179.818 32.136 179.392 32.136Z" fill="white" style="fill:white;fill-opacity:1;"/>
<path d="M188.325 31.614C188.703 31.614 189.033 31.572 189.315 31.488C189.597 31.398 189.816 31.254 189.972 31.056C190.128 30.852 190.206 30.582 190.206 30.246C190.206 29.946 190.14 29.7 190.008 29.508C189.882 29.316 189.687 29.175 189.423 29.085C189.159 28.989 188.823 28.941 188.415 28.941H186.507V28.662H188.532C189.264 28.662 189.807 28.788 190.161 29.04C190.521 29.292 190.701 29.691 190.701 30.237C190.701 30.669 190.596 31.02 190.386 31.29C190.176 31.554 189.891 31.746 189.531 31.866C189.171 31.986 188.769 32.046 188.325 32.046H186.507V31.614H188.325ZM186.201 25.602H186.678V32.046H186.201V25.602ZM188.253 28.518C188.607 28.518 188.916 28.473 189.18 28.383C189.444 28.293 189.648 28.149 189.792 27.951C189.942 27.753 190.017 27.498 190.017 27.186C190.017 26.91 189.954 26.688 189.828 26.52C189.708 26.352 189.528 26.229 189.288 26.151C189.048 26.073 188.748 26.034 188.388 26.034H186.507V25.602H188.388C188.844 25.602 189.228 25.659 189.54 25.773C189.852 25.881 190.089 26.049 190.251 26.277C190.413 26.505 190.494 26.799 190.494 27.159C190.494 27.459 190.44 27.714 190.332 27.924C190.224 28.128 190.071 28.296 189.873 28.428C189.681 28.554 189.45 28.647 189.18 28.707C188.91 28.761 188.613 28.788 188.289 28.788H186.507V28.518H188.253Z" fill="white" style="fill:white;fill-opacity:1;"/>
<path d="M198.149 32.136C197.699 32.136 197.285 32.061 196.907 31.911C196.529 31.761 196.199 31.542 195.917 31.254C195.635 30.966 195.416 30.615 195.26 30.201C195.11 29.787 195.035 29.319 195.035 28.797C195.035 28.275 195.11 27.81 195.26 27.402C195.416 26.994 195.635 26.652 195.917 26.376C196.199 26.094 196.529 25.881 196.907 25.737C197.285 25.593 197.699 25.521 198.149 25.521C198.599 25.521 199.01 25.593 199.382 25.737C199.76 25.881 200.087 26.094 200.363 26.376C200.645 26.658 200.864 27.003 201.02 27.411C201.176 27.813 201.254 28.275 201.254 28.797C201.254 29.319 201.176 29.787 201.02 30.201C200.864 30.615 200.645 30.966 200.363 31.254C200.087 31.542 199.76 31.761 199.382 31.911C199.01 32.061 198.599 32.136 198.149 32.136ZM198.149 31.704C198.653 31.704 199.1 31.596 199.49 31.38C199.886 31.164 200.195 30.843 200.417 30.417C200.645 29.991 200.759 29.463 200.759 28.833C200.759 28.191 200.645 27.657 200.417 27.231C200.195 26.805 199.886 26.484 199.49 26.268C199.1 26.052 198.653 25.944 198.149 25.944C197.639 25.944 197.186 26.052 196.79 26.268C196.4 26.484 196.091 26.805 195.863 27.231C195.641 27.657 195.53 28.191 195.53 28.833C195.53 29.463 195.641 29.991 195.863 30.417C196.091 30.843 196.4 31.164 196.79 31.38C197.186 31.596 197.639 31.704 198.149 31.704Z" fill="white" style="fill:white;fill-opacity:1;"/>
<path d="M210.676 25.602H211.162V32.046H210.676V25.602ZM205.969 25.602H206.446V32.046H205.969V25.602ZM206.464 32.046H206.068L206.212 31.731L210.658 25.602H211.045L210.955 25.863L206.464 32.046Z" fill="white" style="fill:white;fill-opacity:1;"/>
<path d="M5.94 40.797C5.94 40.443 5.877 40.14 5.751 39.888C5.625 39.636 5.448 39.429 5.22 39.267C4.998 39.099 4.734 38.976 4.428 38.898C4.128 38.814 3.804 38.763 3.456 38.745V38.349C3.882 38.355 4.275 38.412 4.635 38.52C4.995 38.622 5.31 38.775 5.58 38.979C5.85 39.177 6.057 39.426 6.201 39.726C6.351 40.026 6.426 40.38 6.426 40.788C6.426 41.19 6.351 41.547 6.201 41.859C6.057 42.165 5.85 42.423 5.58 42.633C5.31 42.837 4.995 42.996 4.635 43.11C4.275 43.218 3.882 43.281 3.456 43.299V42.894C3.804 42.876 4.128 42.825 4.428 42.741C4.734 42.657 4.998 42.534 5.22 42.372C5.448 42.204 5.625 41.991 5.751 41.733C5.877 41.475 5.94 41.163 5.94 40.797ZM0.486 40.842C0.486 41.19 0.549 41.493 0.675 41.751C0.801 42.009 0.978 42.219 1.206 42.381C1.434 42.543 1.698 42.666 1.998 42.75C2.298 42.834 2.622 42.882 2.97 42.894V43.299C2.544 43.287 2.151 43.23 1.791 43.128C1.431 43.02 1.116 42.867 0.846 42.669C0.576 42.465 0.366 42.213 0.216 41.913C0.072 41.607 0 41.253 0 40.851C0 40.443 0.072 40.089 0.216 39.789C0.366 39.483 0.576 39.228 0.846 39.024C1.116 38.814 1.431 38.655 1.791 38.547C2.151 38.433 2.544 38.367 2.97 38.349V38.745C2.622 38.757 2.298 38.808 1.998 38.898C1.698 38.982 1.434 39.108 1.206 39.276C0.978 39.438 0.801 39.648 0.675 39.906C0.549 40.164 0.486 40.476 0.486 40.842ZM2.97 37.53H3.456V44.136H2.97V37.53Z" fill="white" style="fill:white;fill-opacity:1;"/>
<path d="M13.4762 37.602H13.9622V44.046H13.4762V37.602ZM8.76923 37.602H9.24623V44.046H8.76923V37.602ZM9.26423 44.046H8.86823L9.01223 43.731L13.4582 37.602H13.8452L13.7552 37.863L9.26423 44.046Z" fill="white" style="fill:white;fill-opacity:1;"/>
<path d="M21.2225 37.602H21.6995V44.046H21.2225V37.602ZM16.6685 37.602H17.1455V44.046H16.6685V37.602ZM16.9295 41.067V40.635H21.4385V41.067H16.9295Z" fill="white" style="fill:white;fill-opacity:1;"/>
<path d="M29.5485 44.046H29.0535L26.4705 37.62L26.4795 37.602H26.9655L29.5485 44.046ZM26.3085 37.602H26.7585L24.2025 44.046H23.7525L26.3085 37.602ZM24.7695 42.003V41.571H28.4595V42.003H24.7695Z" fill="white" style="fill:white;fill-opacity:1;"/>
<path d="M36.1421 37.602H36.6191V44.046H36.1421V37.602ZM31.5881 37.602H32.0651V44.046H31.5881V37.602ZM31.8491 41.067V40.635H36.3581V41.067H31.8491Z" fill="white" style="fill:white;fill-opacity:1;"/>
<path d="M42.1192 44.136C41.4712 44.136 40.9102 44.004 40.4362 43.74C39.9622 43.47 39.5962 43.089 39.3382 42.597C39.0862 42.105 38.9602 41.517 38.9602 40.833C38.9602 40.137 39.0832 39.543 39.3292 39.051C39.5812 38.559 39.9412 38.181 40.4092 37.917C40.8772 37.653 41.4442 37.521 42.1102 37.521C42.5362 37.521 42.9232 37.572 43.2712 37.674C43.6252 37.776 43.9192 37.914 44.1532 38.088V38.574C43.9972 38.448 43.8082 38.34 43.5862 38.25C43.3642 38.154 43.1272 38.079 42.8752 38.025C42.6232 37.971 42.3682 37.944 42.1102 37.944C41.5342 37.944 41.0482 38.058 40.6522 38.286C40.2622 38.508 39.9652 38.835 39.7612 39.267C39.5572 39.699 39.4552 40.221 39.4552 40.833C39.4552 41.439 39.5602 41.958 39.7702 42.39C39.9802 42.816 40.2862 43.143 40.6882 43.371C41.0902 43.593 41.5762 43.704 42.1462 43.704C42.4042 43.704 42.6562 43.68 42.9022 43.632C43.1482 43.578 43.3792 43.5 43.5952 43.398C43.8112 43.296 43.9972 43.176 44.1532 43.038V43.524C43.9192 43.716 43.6282 43.866 43.2802 43.974C42.9322 44.082 42.5452 44.136 42.1192 44.136Z" fill="white" style="fill:white;fill-opacity:1;"/>
<path d="M49.1824 44.136C48.7324 44.136 48.3184 44.061 47.9404 43.911C47.5624 43.761 47.2324 43.542 46.9504 43.254C46.6684 42.966 46.4494 42.615 46.2934 42.201C46.1434 41.787 46.0684 41.319 46.0684 40.797C46.0684 40.275 46.1434 39.81 46.2934 39.402C46.4494 38.994 46.6684 38.652 46.9504 38.376C47.2324 38.094 47.5624 37.881 47.9404 37.737C48.3184 37.593 48.7324 37.521 49.1824 37.521C49.6324 37.521 50.0434 37.593 50.4154 37.737C50.7934 37.881 51.1204 38.094 51.3964 38.376C51.6784 38.658 51.8974 39.003 52.0534 39.411C52.2094 39.813 52.2874 40.275 52.2874 40.797C52.2874 41.319 52.2094 41.787 52.0534 42.201C51.8974 42.615 51.6784 42.966 51.3964 43.254C51.1204 43.542 50.7934 43.761 50.4154 43.911C50.0434 44.061 49.6324 44.136 49.1824 44.136ZM49.1824 43.704C49.6864 43.704 50.1334 43.596 50.5234 43.38C50.9194 43.164 51.2284 42.843 51.4504 42.417C51.6784 41.991 51.7924 41.463 51.7924 40.833C51.7924 40.191 51.6784 39.657 51.4504 39.231C51.2284 38.805 50.9194 38.484 50.5234 38.268C50.1334 38.052 49.6864 37.944 49.1824 37.944C48.6724 37.944 48.2194 38.052 47.8234 38.268C47.4334 38.484 47.1244 38.805 46.8964 39.231C46.6744 39.657 46.5634 40.191 46.5634 40.833C46.5634 41.463 46.6744 41.991 46.8964 42.417C47.1244 42.843 47.4334 43.164 47.8234 43.38C48.2194 43.596 48.6724 43.704 49.1824 43.704Z" fill="white" style="fill:white;fill-opacity:1;"/>
<path d="M56.7419 43.614C57.1199 43.614 57.4499 43.572 57.7319 43.488C58.0139 43.398 58.2329 43.254 58.3889 43.056C58.5449 42.852 58.6229 42.582 58.6229 42.246C58.6229 41.946 58.5569 41.7 58.4249 41.508C58.2989 41.316 58.1039 41.175 57.8399 41.085C57.5759 40.989 57.2399 40.941 56.8319 40.941H54.9239V40.662H56.9489C57.6809 40.662 58.2239 40.788 58.5779 41.04C58.9379 41.292 59.1179 41.691 59.1179 42.237C59.1179 42.669 59.0129 43.02 58.8029 43.29C58.5929 43.554 58.3079 43.746 57.9479 43.866C57.5879 43.986 57.1859 44.046 56.7419 44.046H54.9239V43.614H56.7419ZM54.6179 37.602H55.0949V44.046H54.6179V37.602ZM56.6699 40.518C57.0239 40.518 57.3329 40.473 57.5969 40.383C57.8609 40.293 58.0649 40.149 58.2089 39.951C58.3589 39.753 58.4339 39.498 58.4339 39.186C58.4339 38.91 58.3709 38.688 58.2449 38.52C58.1249 38.352 57.9449 38.229 57.7049 38.151C57.4649 38.073 57.1649 38.034 56.8049 38.034H54.9239V37.602H56.8049C57.2609 37.602 57.6449 37.659 57.9569 37.773C58.2689 37.881 58.5059 38.049 58.6679 38.277C58.8299 38.505 58.9109 38.799 58.9109 39.159C58.9109 39.459 58.8569 39.714 58.7489 39.924C58.6409 40.128 58.4879 40.296 58.2899 40.428C58.0979 40.554 57.8669 40.647 57.5969 40.707C57.3269 40.761 57.0299 40.788 56.7059 40.788H54.9239V40.518H56.6699Z" fill="white" style="fill:white;fill-opacity:1;"/>
<path d="M61.4801 44.046V37.602H61.9571V44.046H61.4801ZM63.4061 43.614C63.7841 43.614 64.1021 43.566 64.3601 43.47C64.6241 43.374 64.8221 43.218 64.9541 43.002C65.0861 42.78 65.1521 42.492 65.1521 42.138C65.1521 41.67 65.0141 41.322 64.7381 41.094C64.4681 40.866 64.0571 40.752 63.5051 40.752H61.8131V40.329H63.5141C63.9701 40.329 64.3541 40.392 64.6661 40.518C64.9841 40.644 65.2271 40.839 65.3951 41.103C65.5631 41.367 65.6471 41.706 65.6471 42.12C65.6471 42.576 65.5571 42.945 65.3771 43.227C65.1971 43.509 64.9391 43.716 64.6031 43.848C64.2671 43.98 63.8681 44.046 63.4061 44.046H61.8131V43.614H63.4061ZM66.7361 37.602H67.2131V44.046H66.7361V37.602Z" fill="white" style="fill:white;fill-opacity:1;"/>
<path d="M69.9242 37.602H70.4012V44.046H69.9242V37.602ZM70.1492 44.046V43.614H74.0372V44.046H70.1492ZM70.1492 40.851V40.419H73.4972V40.851H70.1492ZM70.1492 38.034V37.602H73.9922V38.034H70.1492Z" fill="white" style="fill:white;fill-opacity:1;"/>
<path d="M81.2725 43.614C81.6505 43.614 81.9805 43.572 82.2625 43.488C82.5445 43.398 82.7635 43.254 82.9195 43.056C83.0755 42.852 83.1535 42.582 83.1535 42.246C83.1535 41.946 83.0875 41.7 82.9555 41.508C82.8295 41.316 82.6345 41.175 82.3705 41.085C82.1065 40.989 81.7705 40.941 81.3625 40.941H79.4545V40.662H81.4795C82.2115 40.662 82.7545 40.788 83.1085 41.04C83.4685 41.292 83.6485 41.691 83.6485 42.237C83.6485 42.669 83.5435 43.02 83.3335 43.29C83.1235 43.554 82.8385 43.746 82.4785 43.866C82.1185 43.986 81.7165 44.046 81.2725 44.046H79.4545V43.614H81.2725ZM79.1485 37.602H79.6255V44.046H79.1485V37.602ZM81.2005 40.518C81.5545 40.518 81.8635 40.473 82.1275 40.383C82.3915 40.293 82.5955 40.149 82.7395 39.951C82.8895 39.753 82.9645 39.498 82.9645 39.186C82.9645 38.91 82.9015 38.688 82.7755 38.52C82.6555 38.352 82.4755 38.229 82.2355 38.151C81.9955 38.073 81.6955 38.034 81.3355 38.034H79.4545V37.602H81.3355C81.7915 37.602 82.1755 37.659 82.4875 37.773C82.7995 37.881 83.0365 38.049 83.1985 38.277C83.3605 38.505 83.4415 38.799 83.4415 39.159C83.4415 39.459 83.3875 39.714 83.2795 39.924C83.1715 40.128 83.0185 40.296 82.8205 40.428C82.6285 40.554 82.3975 40.647 82.1275 40.707C81.8575 40.761 81.5605 40.788 81.2365 40.788H79.4545V40.518H81.2005Z" fill="white" style="fill:white;fill-opacity:1;"/>
<path d="M88.7117 44.136C88.2617 44.136 87.8477 44.061 87.4697 43.911C87.0917 43.761 86.7617 43.542 86.4797 43.254C86.1977 42.966 85.9787 42.615 85.8227 42.201C85.6727 41.787 85.5977 41.319 85.5977 40.797C85.5977 40.275 85.6727 39.81 85.8227 39.402C85.9787 38.994 86.1977 38.652 86.4797 38.376C86.7617 38.094 87.0917 37.881 87.4697 37.737C87.8477 37.593 88.2617 37.521 88.7117 37.521C89.1617 37.521 89.5727 37.593 89.9447 37.737C90.3227 37.881 90.6497 38.094 90.9257 38.376C91.2077 38.658 91.4267 39.003 91.5827 39.411C91.7387 39.813 91.8167 40.275 91.8167 40.797C91.8167 41.319 91.7387 41.787 91.5827 42.201C91.4267 42.615 91.2077 42.966 90.9257 43.254C90.6497 43.542 90.3227 43.761 89.9447 43.911C89.5727 44.061 89.1617 44.136 88.7117 44.136ZM88.7117 43.704C89.2157 43.704 89.6627 43.596 90.0527 43.38C90.4487 43.164 90.7577 42.843 90.9797 42.417C91.2077 41.991 91.3217 41.463 91.3217 40.833C91.3217 40.191 91.2077 39.657 90.9797 39.231C90.7577 38.805 90.4487 38.484 90.0527 38.268C89.6627 38.052 89.2157 37.944 88.7117 37.944C88.2017 37.944 87.7487 38.052 87.3527 38.268C86.9627 38.484 86.6537 38.805 86.4257 39.231C86.2037 39.657 86.0927 40.191 86.0927 40.833C86.0927 41.463 86.2037 41.991 86.4257 42.417C86.6537 42.843 86.9627 43.164 87.3527 43.38C87.7487 43.596 88.2017 43.704 88.7117 43.704Z" fill="white" style="fill:white;fill-opacity:1;"/>
<path d="M95.5668 44.136C95.2908 44.136 95.0238 44.112 94.7658 44.064C94.5138 44.016 94.2828 43.944 94.0728 43.848C93.8628 43.752 93.6768 43.641 93.5148 43.515V43.038C93.6768 43.176 93.8658 43.296 94.0818 43.398C94.3038 43.5 94.5408 43.578 94.7928 43.632C95.0448 43.68 95.2998 43.704 95.5578 43.704C95.9238 43.704 96.2418 43.659 96.5118 43.569C96.7818 43.473 96.9948 43.317 97.1508 43.101C97.3068 42.885 97.3848 42.6 97.3848 42.246C97.3848 41.946 97.3188 41.7 97.1868 41.508C97.0548 41.316 96.8598 41.175 96.6018 41.085C96.3438 40.989 96.0138 40.941 95.6118 40.941H94.5948V40.644H95.7288C96.2088 40.644 96.6078 40.704 96.9258 40.824C97.2438 40.938 97.4808 41.115 97.6368 41.355C97.7928 41.589 97.8708 41.883 97.8708 42.237C97.8708 42.573 97.8108 42.864 97.6908 43.11C97.5768 43.35 97.4148 43.545 97.2048 43.695C96.9948 43.845 96.7488 43.956 96.4668 44.028C96.1908 44.1 95.8908 44.136 95.5668 44.136ZM94.5948 40.806V40.527H95.4318C95.7918 40.527 96.1038 40.482 96.3678 40.392C96.6318 40.296 96.8358 40.152 96.9798 39.96C97.1298 39.762 97.2048 39.51 97.2048 39.204C97.2048 38.91 97.1448 38.67 97.0248 38.484C96.9048 38.298 96.7248 38.163 96.4848 38.079C96.2508 37.989 95.9628 37.944 95.6208 37.944C95.3628 37.944 95.1048 37.968 94.8468 38.016C94.5948 38.064 94.3578 38.133 94.1358 38.223C93.9198 38.313 93.7248 38.424 93.5508 38.556V38.097C93.7128 37.971 93.8988 37.866 94.1088 37.782C94.3188 37.698 94.5498 37.635 94.8018 37.593C95.0598 37.545 95.3358 37.521 95.6298 37.521C96.2778 37.521 96.7818 37.656 97.1418 37.926C97.5018 38.196 97.6818 38.613 97.6818 39.177C97.6818 39.453 97.6308 39.693 97.5288 39.897C97.4268 40.101 97.2798 40.272 97.0878 40.41C96.9018 40.542 96.6738 40.641 96.4038 40.707C96.1338 40.773 95.8278 40.806 95.4858 40.806H94.5948Z" fill="white" style="fill:white;fill-opacity:1;"/>
<path d="M103.44 43.074H103.107L100.371 37.602H100.893L103.557 42.939L103.44 43.074ZM100.236 37.602H100.677V44.046H100.236V37.602ZM103.611 43.074L103.152 43.065L105.897 37.602H106.374L103.611 43.074ZM106.05 37.602H106.527V44.046H106.05V37.602Z" fill="white" style="fill:white;fill-opacity:1;"/>
<path d="M111.979 44.136C111.529 44.136 111.115 44.061 110.737 43.911C110.359 43.761 110.029 43.542 109.747 43.254C109.465 42.966 109.246 42.615 109.09 42.201C108.94 41.787 108.865 41.319 108.865 40.797C108.865 40.275 108.94 39.81 109.09 39.402C109.246 38.994 109.465 38.652 109.747 38.376C110.029 38.094 110.359 37.881 110.737 37.737C111.115 37.593 111.529 37.521 111.979 37.521C112.429 37.521 112.84 37.593 113.212 37.737C113.59 37.881 113.917 38.094 114.193 38.376C114.475 38.658 114.694 39.003 114.85 39.411C115.006 39.813 115.084 40.275 115.084 40.797C115.084 41.319 115.006 41.787 114.85 42.201C114.694 42.615 114.475 42.966 114.193 43.254C113.917 43.542 113.59 43.761 113.212 43.911C112.84 44.061 112.429 44.136 111.979 44.136ZM111.979 43.704C112.483 43.704 112.93 43.596 113.32 43.38C113.716 43.164 114.025 42.843 114.247 42.417C114.475 41.991 114.589 41.463 114.589 40.833C114.589 40.191 114.475 39.657 114.247 39.231C114.025 38.805 113.716 38.484 113.32 38.268C112.93 38.052 112.483 37.944 111.979 37.944C111.469 37.944 111.016 38.052 110.62 38.268C110.23 38.484 109.921 38.805 109.693 39.231C109.471 39.657 109.36 40.191 109.36 40.833C109.36 41.463 109.471 41.991 109.693 42.417C109.921 42.843 110.23 43.164 110.62 43.38C111.016 43.596 111.469 43.704 111.979 43.704Z" fill="white" style="fill:white;fill-opacity:1;"/>
<path d="M116.406 44.046L119.124 40.671V40.869L116.55 37.602H117.081L119.592 40.806L116.982 44.046H116.406ZM121.383 40.806L123.894 37.602H124.425L121.851 40.869L121.842 40.671L124.569 44.046H123.984L121.383 40.806ZM119.286 41.004V40.599H121.707V41.004H119.286ZM120.24 37.602H120.726V44.046H120.24V37.602Z" fill="white" style="fill:white;fill-opacity:1;"/>
<path d="M131.195 37.602H131.672V44.046H131.195V37.602ZM126.641 37.602H127.118V44.046H126.641V37.602ZM126.902 41.067V40.635H131.411V41.067H126.902Z" fill="white" style="fill:white;fill-opacity:1;"/>
<path d="M137.127 44.136C136.677 44.136 136.263 44.061 135.885 43.911C135.507 43.761 135.177 43.542 134.895 43.254C134.613 42.966 134.394 42.615 134.238 42.201C134.088 41.787 134.013 41.319 134.013 40.797C134.013 40.275 134.088 39.81 134.238 39.402C134.394 38.994 134.613 38.652 134.895 38.376C135.177 38.094 135.507 37.881 135.885 37.737C136.263 37.593 136.677 37.521 137.127 37.521C137.577 37.521 137.988 37.593 138.36 37.737C138.738 37.881 139.065 38.094 139.341 38.376C139.623 38.658 139.842 39.003 139.998 39.411C140.154 39.813 140.232 40.275 140.232 40.797C140.232 41.319 140.154 41.787 139.998 42.201C139.842 42.615 139.623 42.966 139.341 43.254C139.065 43.542 138.738 43.761 138.36 43.911C137.988 44.061 137.577 44.136 137.127 44.136ZM137.127 43.704C137.631 43.704 138.078 43.596 138.468 43.38C138.864 43.164 139.173 42.843 139.395 42.417C139.623 41.991 139.737 41.463 139.737 40.833C139.737 40.191 139.623 39.657 139.395 39.231C139.173 38.805 138.864 38.484 138.468 38.268C138.078 38.052 137.631 37.944 137.127 37.944C136.617 37.944 136.164 38.052 135.768 38.268C135.378 38.484 135.069 38.805 134.841 39.231C134.619 39.657 134.508 40.191 134.508 40.833C134.508 41.463 134.619 41.991 134.841 42.417C135.069 42.843 135.378 43.164 135.768 43.38C136.164 43.596 136.617 43.704 137.127 43.704Z" fill="white" style="fill:white;fill-opacity:1;"/>
<path d="M145.352 44.136C144.704 44.136 144.143 44.004 143.669 43.74C143.195 43.47 142.829 43.089 142.571 42.597C142.319 42.105 142.193 41.517 142.193 40.833C142.193 40.137 142.316 39.543 142.562 39.051C142.814 38.559 143.174 38.181 143.642 37.917C144.11 37.653 144.677 37.521 145.343 37.521C145.769 37.521 146.156 37.572 146.504 37.674C146.858 37.776 147.152 37.914 147.386 38.088V38.574C147.23 38.448 147.041 38.34 146.819 38.25C146.597 38.154 146.36 38.079 146.108 38.025C145.856 37.971 145.601 37.944 145.343 37.944C144.767 37.944 144.281 38.058 143.885 38.286C143.495 38.508 143.198 38.835 142.994 39.267C142.79 39.699 142.688 40.221 142.688 40.833C142.688 41.439 142.793 41.958 143.003 42.39C143.213 42.816 143.519 43.143 143.921 43.371C144.323 43.593 144.809 43.704 145.379 43.704C145.637 43.704 145.889 43.68 146.135 43.632C146.381 43.578 146.612 43.5 146.828 43.398C147.044 43.296 147.23 43.176 147.386 43.038V43.524C147.152 43.716 146.861 43.866 146.513 43.974C146.165 44.082 145.778 44.136 145.352 44.136Z" fill="white" style="fill:white;fill-opacity:1;"/>
<path d="M149.145 38.043V37.602H154.23V38.043H149.145ZM151.449 37.674H151.926V44.046H151.449V37.674Z" fill="white" style="fill:white;fill-opacity:1;"/>
<path d="M160.95 37.602H161.436V44.046H160.95V37.602ZM156.243 37.602H156.72V44.046H156.243V37.602ZM156.738 44.046H156.342L156.486 43.731L160.932 37.602H161.319L161.229 37.863L156.738 44.046Z" fill="white" style="fill:white;fill-opacity:1;"/>
<path d="M171.589 37.602H172.075V44.046H171.589V37.602ZM166.882 37.602H167.359V44.046H166.882V37.602ZM167.377 44.046H166.981L167.125 43.731L171.571 37.602H171.958L171.868 37.863L167.377 44.046Z" fill="white" style="fill:white;fill-opacity:1;"/>
<path d="M179.51 40.887C179.894 40.887 180.218 40.836 180.482 40.734C180.746 40.632 180.944 40.473 181.076 40.257C181.214 40.035 181.283 39.747 181.283 39.393C181.283 39.081 181.22 38.826 181.094 38.628C180.968 38.43 180.782 38.283 180.536 38.187C180.29 38.085 179.981 38.034 179.609 38.034H177.854V37.602H179.609C180.293 37.602 180.821 37.749 181.193 38.043C181.571 38.331 181.76 38.778 181.76 39.384C181.76 39.834 181.67 40.203 181.49 40.491C181.31 40.773 181.052 40.98 180.716 41.112C180.38 41.244 179.978 41.31 179.51 41.31H177.854V40.887H179.51ZM177.521 37.602H177.998V44.046H177.521V37.602Z" fill="white" style="fill:white;fill-opacity:1;"/>
<path d="M188.765 37.602H189.251V44.046H188.765V37.602ZM184.058 37.602H184.535V44.046H184.058V37.602ZM184.553 44.046H184.157L184.301 43.731L188.747 37.602H189.134L189.044 37.863L184.553 44.046Z" fill="white" style="fill:white;fill-opacity:1;"/>
<path d="M194.748 44.136C194.1 44.136 193.539 44.004 193.065 43.74C192.591 43.47 192.225 43.089 191.967 42.597C191.715 42.105 191.589 41.517 191.589 40.833C191.589 40.137 191.712 39.543 191.958 39.051C192.21 38.559 192.57 38.181 193.038 37.917C193.506 37.653 194.073 37.521 194.739 37.521C195.165 37.521 195.552 37.572 195.9 37.674C196.254 37.776 196.548 37.914 196.782 38.088V38.574C196.626 38.448 196.437 38.34 196.215 38.25C195.993 38.154 195.756 38.079 195.504 38.025C195.252 37.971 194.997 37.944 194.739 37.944C194.163 37.944 193.677 38.058 193.281 38.286C192.891 38.508 192.594 38.835 192.39 39.267C192.186 39.699 192.084 40.221 192.084 40.833C192.084 41.439 192.189 41.958 192.399 42.39C192.609 42.816 192.915 43.143 193.317 43.371C193.719 43.593 194.205 43.704 194.775 43.704C195.033 43.704 195.285 43.68 195.531 43.632C195.777 43.578 196.008 43.5 196.224 43.398C196.44 43.296 196.626 43.176 196.782 43.038V43.524C196.548 43.716 196.257 43.866 195.909 43.974C195.561 44.082 195.174 44.136 194.748 44.136Z" fill="white" style="fill:white;fill-opacity:1;"/>
<path d="M199.171 37.602H199.648V44.046H199.171V37.602ZM199.468 41.031V40.599H200.872V41.031H199.468ZM203.86 44.046H203.266L200.512 40.815L203.176 37.602H203.725L200.935 40.959L200.98 40.671L203.86 44.046Z" fill="white" style="fill:white;fill-opacity:1;"/>
<path d="M210.626 37.602H211.112V44.046H210.626V37.602ZM205.919 37.602H206.396V44.046H205.919V37.602ZM206.414 44.046H206.018L206.162 43.731L210.608 37.602H210.995L210.905 37.863L206.414 44.046Z" fill="white" style="fill:white;fill-opacity:1;"/>
</svg>
