<svg width="210" height="12" viewBox="0 0 210 12" fill="none" xmlns="http://www.w3.org/2000/svg">
<path d="M7.335 0.135H8.115V10.875H7.335V0.135ZM0 0.135H0.78V10.875H0V0.135ZM0.42 5.91V5.19H7.68V5.91H0.42Z" fill="white" style="fill:white;fill-opacity:1;"/>
<path d="M11.4252 0.135H12.2052V10.875H11.4252V0.135ZM11.7852 10.875V10.17H18.0552V10.875H11.7852ZM11.7852 5.55V4.83H17.1852V5.55H11.7852ZM11.7852 0.855V0.135H17.9802V0.855H11.7852Z" fill="white" style="fill:white;fill-opacity:1;"/>
<path d="M24.2132 3.135C24.2132 2.435 24.3532 1.865 24.6332 1.425C24.9232 0.985 25.3282 0.66 25.8482 0.45C26.3782 0.24 27.0032 0.135 27.7232 0.135H30.4982V0.855H27.7232C27.1432 0.855 26.6482 0.935 26.2382 1.095C25.8382 1.255 25.5332 1.505 25.3232 1.845C25.1232 2.175 25.0232 2.605 25.0232 3.135C25.0232 3.985 25.2532 4.605 25.7132 4.995C26.1832 5.375 26.8732 5.565 27.7832 5.565H30.4982V6.285H27.6482L27.3782 6.225C26.7082 6.185 26.1382 6.05 25.6682 5.82C25.1982 5.59 24.8382 5.255 24.5882 4.815C24.3382 4.365 24.2132 3.805 24.2132 3.135ZM27.0182 6.015H27.9332L24.3482 10.875H23.3732L27.0182 6.015ZM30.2732 0.135H31.0532V10.875H30.2732V0.135Z" fill="white" style="fill:white;fill-opacity:1;"/>
<path d="M37.7975 10.17C38.4075 10.17 38.9375 10.095 39.3875 9.945C39.8475 9.795 40.2025 9.55 40.4525 9.21C40.7025 8.87 40.8275 8.425 40.8275 7.875C40.8275 7.375 40.7225 6.965 40.5125 6.645C40.3025 6.325 39.9825 6.09 39.5525 5.94C39.1325 5.78 38.5925 5.7 37.9325 5.7H34.8875V5.235H38.1425C39.3125 5.235 40.1875 5.445 40.7675 5.865C41.3475 6.285 41.6375 6.95 41.6375 7.86C41.6375 8.58 41.4675 9.165 41.1275 9.615C40.7875 10.055 40.3275 10.375 39.7475 10.575C39.1675 10.775 38.5175 10.875 37.7975 10.875H34.8875V10.17H37.7975ZM34.3775 0.135H35.1575V10.875H34.3775V0.135ZM37.6775 4.995C38.2475 4.995 38.7425 4.92 39.1625 4.77C39.5925 4.61 39.9275 4.37 40.1675 4.05C40.4075 3.72 40.5275 3.295 40.5275 2.775C40.5275 2.315 40.4275 1.945 40.2275 1.665C40.0275 1.385 39.7325 1.18 39.3425 1.05C38.9525 0.91 38.4725 0.84 37.9025 0.84H34.8725V0.135H37.9025C38.6325 0.135 39.2475 0.23 39.7475 0.42C40.2575 0.6 40.6425 0.88 40.9025 1.26C41.1725 1.64 41.3075 2.13 41.3075 2.73C41.3075 3.23 41.2175 3.655 41.0375 4.005C40.8675 4.345 40.6225 4.625 40.3025 4.845C39.9925 5.055 39.6175 5.21 39.1775 5.31C38.7475 5.4 38.2675 5.445 37.7375 5.445H34.8875V4.995H37.6775Z" fill="white" style="fill:white;fill-opacity:1;"/>
<path d="M45.6614 0.135H51.0764V0.855H45.6614V0.135ZM50.6564 10.875V0.135H51.4514V10.875H50.6564ZM43.1264 10.125C43.4564 10.145 43.7314 10.08 43.9514 9.93C44.1814 9.77 44.3714 9.515 44.5214 9.165C44.6814 8.805 44.8064 8.345 44.8964 7.785C44.9464 7.455 44.9964 7.06 45.0464 6.6C45.0964 6.14 45.1364 5.6 45.1664 4.98C45.2064 4.35 45.2414 3.635 45.2714 2.835C45.3114 2.035 45.3414 1.135 45.3614 0.135H46.1264C46.0864 1.295 46.0514 2.295 46.0214 3.135C45.9914 3.975 45.9564 4.695 45.9164 5.295C45.8864 5.895 45.8464 6.405 45.7964 6.825C45.7564 7.245 45.7114 7.625 45.6614 7.965C45.5614 8.515 45.4364 8.985 45.2864 9.375C45.1464 9.755 44.9764 10.065 44.7764 10.305C44.5764 10.535 44.3414 10.7 44.0714 10.8C43.8014 10.9 43.4864 10.945 43.1264 10.935V10.125Z" fill="white" style="fill:white;fill-opacity:1;"/>
<path d="M54.812 3.135C54.812 2.435 54.952 1.865 55.232 1.425C55.522 0.985 55.927 0.66 56.447 0.45C56.977 0.24 57.602 0.135 58.322 0.135H61.097V0.855H58.322C57.742 0.855 57.247 0.935 56.837 1.095C56.437 1.255 56.132 1.505 55.922 1.845C55.722 2.175 55.622 2.605 55.622 3.135C55.622 3.985 55.852 4.605 56.312 4.995C56.782 5.375 57.472 5.565 58.382 5.565H61.097V6.285H58.247L57.977 6.225C57.307 6.185 56.737 6.05 56.267 5.82C55.797 5.59 55.437 5.255 55.187 4.815C54.937 4.365 54.812 3.805 54.812 3.135ZM57.617 6.015H58.532L54.947 10.875H53.972L57.617 6.015ZM60.872 0.135H61.652V10.875H60.872V0.135Z" fill="white" style="fill:white;fill-opacity:1;"/>
<path d="M64.9764 0.135H65.7564V10.875H64.9764V0.135ZM65.3364 10.875V10.17H71.6064V10.875H65.3364ZM65.3364 5.55V4.83H70.7364V5.55H65.3364ZM65.3364 0.855V0.135H71.5314V0.855H65.3364Z" fill="white" style="fill:white;fill-opacity:1;"/>
<path d="M73.4459 0.855V0.135H81.6359V0.855H73.4459ZM77.1509 0.255H77.9309V10.875H77.1509V0.255Z" fill="white" style="fill:white;fill-opacity:1;"/>
<path d="M87.8007 11.025C86.7407 11.025 85.8257 10.805 85.0557 10.365C84.2957 9.915 83.7107 9.28 83.3007 8.46C82.8907 7.64 82.6857 6.66 82.6857 5.52C82.6857 4.36 82.8857 3.37 83.2857 2.55C83.6857 1.73 84.2657 1.1 85.0257 0.66C85.7857 0.22 86.7007 0 87.7707 0C88.4507 0 89.0757 0.0850001 89.6457 0.255C90.2157 0.415 90.6907 0.645 91.0707 0.944999V1.755C90.8207 1.535 90.5157 1.35 90.1557 1.2C89.7957 1.04 89.4107 0.92 89.0007 0.84C88.6007 0.75 88.1907 0.705 87.7707 0.705C86.8507 0.705 86.0707 0.895 85.4307 1.275C84.8007 1.645 84.3207 2.19 83.9907 2.91C83.6707 3.63 83.5107 4.5 83.5107 5.52C83.5107 6.53 83.6757 7.395 84.0057 8.115C84.3457 8.825 84.8357 9.37 85.4757 9.75C86.1257 10.13 86.9107 10.32 87.8307 10.32C88.2507 10.32 88.6557 10.275 89.0457 10.185C89.4457 10.095 89.8207 9.965 90.1707 9.795C90.5207 9.625 90.8207 9.43 91.0707 9.21V10.005C90.6907 10.325 90.2157 10.575 89.6457 10.755C89.0857 10.935 88.4707 11.025 87.8007 11.025Z" fill="white" style="fill:white;fill-opacity:1;"/>
<path d="M93.7012 3.135C93.7012 2.435 93.8412 1.865 94.1212 1.425C94.4112 0.985 94.8163 0.66 95.3363 0.45C95.8663 0.24 96.4913 0.135 97.2113 0.135H99.9863V0.855H97.2113C96.6313 0.855 96.1362 0.935 95.7262 1.095C95.3262 1.255 95.0212 1.505 94.8112 1.845C94.6112 2.175 94.5113 2.605 94.5113 3.135C94.5113 3.985 94.7412 4.605 95.2012 4.995C95.6712 5.375 96.3612 5.565 97.2712 5.565H99.9863V6.285H97.1363L96.8662 6.225C96.1962 6.185 95.6262 6.05 95.1562 5.82C94.6862 5.59 94.3262 5.255 94.0762 4.815C93.8262 4.365 93.7012 3.805 93.7012 3.135ZM96.5062 6.015H97.4212L93.8363 10.875H92.8613L96.5062 6.015ZM99.7613 0.135H100.541V10.875H99.7613V0.135Z" fill="white" style="fill:white;fill-opacity:1;"/>
<path d="M108.675 0.135H114.09V0.855H108.675V0.135ZM113.67 10.875V0.135H114.465V10.875H113.67ZM106.14 10.125C106.47 10.145 106.745 10.08 106.965 9.93C107.195 9.77 107.385 9.515 107.535 9.165C107.695 8.805 107.82 8.345 107.91 7.785C107.96 7.455 108.01 7.06 108.06 6.6C108.11 6.14 108.15 5.6 108.18 4.98C108.22 4.35 108.255 3.635 108.285 2.835C108.325 2.035 108.355 1.135 108.375 0.135H109.14C109.1 1.295 109.065 2.295 109.035 3.135C109.005 3.975 108.97 4.695 108.93 5.295C108.9 5.895 108.86 6.405 108.81 6.825C108.77 7.245 108.725 7.625 108.675 7.965C108.575 8.515 108.45 8.985 108.3 9.375C108.16 9.755 107.99 10.065 107.79 10.305C107.59 10.535 107.355 10.7 107.085 10.8C106.815 10.9 106.5 10.945 106.14 10.935V10.125Z" fill="white" style="fill:white;fill-opacity:1;"/>
<path d="M117.78 0.135H118.56V10.875H117.78V0.135ZM118.14 10.875V10.17H124.41V10.875H118.14ZM118.14 5.55V4.83H123.54V5.55H118.14ZM118.14 0.855V0.135H124.335V0.855H118.14Z" fill="white" style="fill:white;fill-opacity:1;"/>
<path d="M127.184 0.135H127.964V10.875H127.184V0.135ZM127.664 5.85V5.13H129.944V5.85H127.664ZM134.759 10.875H133.784L129.344 5.49L133.634 0.135H134.534L130.034 5.73L130.109 5.25L134.759 10.875Z" fill="white" style="fill:white;fill-opacity:1;"/>
<path d="M145.337 10.875H144.527L140.372 0.165L140.387 0.135H141.182L145.337 10.875ZM140.087 0.135H140.837L136.727 10.875H135.977L140.087 0.135ZM137.627 7.47V6.75H143.567V7.47H137.627Z" fill="white" style="fill:white;fill-opacity:1;"/>
<path d="M150.798 5.61C151.418 5.61 151.938 5.525 152.358 5.355C152.788 5.185 153.108 4.92 153.318 4.56C153.538 4.19 153.648 3.71 153.648 3.12C153.648 2.6 153.548 2.175 153.348 1.845C153.148 1.515 152.848 1.27 152.448 1.11C152.048 0.94 151.548 0.855 150.948 0.855H148.158V0.135H150.948C152.068 0.135 152.928 0.38 153.528 0.87C154.138 1.35 154.443 2.095 154.443 3.105C154.443 3.855 154.293 4.47 153.993 4.95C153.703 5.42 153.283 5.765 152.733 5.985C152.193 6.205 151.548 6.315 150.798 6.315H148.158V5.61H150.798ZM147.603 0.135H148.383V10.875H147.603V0.135Z" fill="white" style="fill:white;fill-opacity:1;"/>
<path d="M161.507 11.025C160.447 11.025 159.532 10.805 158.762 10.365C158.002 9.915 157.417 9.28 157.007 8.46C156.597 7.64 156.392 6.66 156.392 5.52C156.392 4.36 156.592 3.37 156.992 2.55C157.392 1.73 157.972 1.1 158.732 0.66C159.492 0.22 160.407 0 161.477 0C162.157 0 162.782 0.0850001 163.352 0.255C163.922 0.415 164.397 0.645 164.777 0.944999V1.755C164.527 1.535 164.222 1.35 163.862 1.2C163.502 1.04 163.117 0.92 162.707 0.84C162.307 0.75 161.897 0.705 161.477 0.705C160.557 0.705 159.777 0.895 159.137 1.275C158.507 1.645 158.027 2.19 157.697 2.91C157.377 3.63 157.217 4.5 157.217 5.52C157.217 6.53 157.382 7.395 157.712 8.115C158.052 8.825 158.542 9.37 159.182 9.75C159.832 10.13 160.617 10.32 161.537 10.32C161.957 10.32 162.362 10.275 162.752 10.185C163.152 10.095 163.527 9.965 163.877 9.795C164.227 9.625 164.527 9.43 164.777 9.21V10.005C164.397 10.325 163.922 10.575 163.352 10.755C162.792 10.935 162.177 11.025 161.507 11.025Z" fill="white" style="fill:white;fill-opacity:1;"/>
<path d="M166.575 0.855V0.135H174.765V0.855H166.575ZM170.28 0.255H171.06V10.875H170.28V0.255Z" fill="white" style="fill:white;fill-opacity:1;"/>
<path d="M180.406 10.17C181.016 10.17 181.546 10.095 181.996 9.945C182.456 9.795 182.811 9.55 183.061 9.21C183.311 8.87 183.436 8.425 183.436 7.875C183.436 7.375 183.331 6.965 183.121 6.645C182.911 6.325 182.591 6.09 182.161 5.94C181.741 5.78 181.201 5.7 180.541 5.7H177.496V5.235H180.751C181.921 5.235 182.796 5.445 183.376 5.865C183.956 6.285 184.246 6.95 184.246 7.86C184.246 8.58 184.076 9.165 183.736 9.615C183.396 10.055 182.936 10.375 182.356 10.575C181.776 10.775 181.126 10.875 180.406 10.875H177.496V10.17H180.406ZM176.986 0.135H177.766V10.875H176.986V0.135ZM180.286 4.995C180.856 4.995 181.351 4.92 181.771 4.77C182.201 4.61 182.536 4.37 182.776 4.05C183.016 3.72 183.136 3.295 183.136 2.775C183.136 2.315 183.036 1.945 182.836 1.665C182.636 1.385 182.341 1.18 181.951 1.05C181.561 0.91 181.081 0.84 180.511 0.84H177.481V0.135H180.511C181.241 0.135 181.856 0.23 182.356 0.42C182.866 0.6 183.251 0.88 183.511 1.26C183.781 1.64 183.916 2.13 183.916 2.73C183.916 3.23 183.826 3.655 183.646 4.005C183.476 4.345 183.231 4.625 182.911 4.845C182.601 5.055 182.226 5.21 181.786 5.31C181.356 5.4 180.876 5.445 180.346 5.445H177.496V4.995H180.286Z" fill="white" style="fill:white;fill-opacity:1;"/>
<path d="M191.357 11.025C190.637 11.025 189.967 10.9 189.347 10.65C188.737 10.4 188.207 10.035 187.757 9.555C187.307 9.075 186.957 8.49 186.707 7.8C186.457 7.11 186.332 6.33 186.332 5.46C186.332 4.59 186.457 3.815 186.707 3.135C186.957 2.455 187.307 1.885 187.757 1.425C188.207 0.955 188.737 0.6 189.347 0.36C189.967 0.12 190.637 0 191.357 0C192.077 0 192.742 0.12 193.352 0.36C193.962 0.6 194.492 0.955 194.942 1.425C195.392 1.895 195.742 2.47 195.992 3.15C196.242 3.82 196.367 4.59 196.367 5.46C196.367 6.33 196.242 7.11 195.992 7.8C195.742 8.49 195.392 9.075 194.942 9.555C194.492 10.035 193.962 10.4 193.352 10.65C192.742 10.9 192.077 11.025 191.357 11.025ZM191.357 10.32C192.167 10.32 192.887 10.14 193.517 9.78C194.157 9.41 194.652 8.87 195.002 8.16C195.362 7.45 195.542 6.57 195.542 5.52C195.542 4.45 195.362 3.56 195.002 2.85C194.652 2.14 194.157 1.605 193.517 1.245C192.887 0.885 192.167 0.705 191.357 0.705C190.547 0.705 189.822 0.885 189.182 1.245C188.552 1.605 188.052 2.14 187.682 2.85C187.322 3.56 187.142 4.45 187.142 5.52C187.142 6.57 187.322 7.45 187.682 8.16C188.052 8.87 188.552 9.41 189.182 9.78C189.822 10.14 190.547 10.32 191.357 10.32Z" fill="white" style="fill:white;fill-opacity:1;"/>
<path d="M204.264 9.255H203.724L199.329 0.135H200.184L204.459 9.03L204.264 9.255ZM199.104 0.135H199.824V10.875H199.104V0.135ZM204.564 9.24L203.799 9.255L208.224 0.135H209.004L204.564 9.24ZM208.464 0.135H209.259V10.875H208.464V0.135Z" fill="white" style="fill:white;fill-opacity:1;"/>
</svg>
